<svg width="37" height="41" viewBox="0 0 37 41" fill="none" xmlns="http://www.w3.org/2000/svg">
<path d="M15.0498 4.01843H13.2679C12.3547 4.01843 11.6113 4.76136 11.6113 5.67496V7.44959C11.6113 8.36318 12.3547 9.10612 13.2679 9.10612H15.0498C15.963 9.10612 16.7063 8.36318 16.7063 7.44959V5.67496C16.7063 4.76136 15.963 4.01843 15.0498 4.01843ZM15.0498 7.44959H13.2679V5.67496L15.0498 5.67415V7.44959Z" fill="#F9FBFD"/>
<path d="M25.841 7.44958H19.3322C18.8744 7.44958 18.5039 7.82044 18.5039 8.27785C18.5039 8.73526 18.8744 9.10612 19.3322 9.10612H25.841C26.2988 9.10612 26.6693 8.73526 26.6693 8.27785C26.6693 7.82044 26.2988 7.44958 25.841 7.44958Z" fill="#F9FBFD"/>
<path d="M21.4057 6.15219C21.561 6.28443 21.7519 6.35036 21.9436 6.35036C22.1369 6.35036 22.3294 6.28322 22.4847 6.14895L24.0474 4.79898C24.3936 4.4997 24.4324 3.97678 24.1332 3.63059C23.8323 3.28359 23.3098 3.24719 22.9652 3.54525L21.9404 4.43054L21.6904 4.21701C21.3434 3.92137 20.8201 3.961 20.5224 4.30962C20.2256 4.65743 20.2668 5.18035 20.6147 5.4772L21.4057 6.15219Z" fill="#F9FBFD"/>
<path d="M15.0498 12.6128H13.2679C12.3547 12.6128 11.6113 13.3557 11.6113 14.2693V16.0439C11.6113 16.9575 12.3547 17.7005 13.2679 17.7005H15.0498C15.963 17.7005 16.7063 16.9575 16.7063 16.0439V14.2693C16.7063 13.3557 15.963 12.6128 15.0498 12.6128ZM15.0498 16.0439H13.2679V14.2693L15.0498 14.2685V16.0439Z" fill="#F9FBFD"/>
<path d="M25.841 16.0439H19.3322C18.8744 16.0439 18.5039 16.4148 18.5039 16.8722C18.5039 17.3296 18.8744 17.7005 19.3322 17.7005H25.841C26.2988 17.7005 26.6693 17.3296 26.6693 16.8722C26.6693 16.4148 26.2988 16.0439 25.841 16.0439Z" fill="#F9FBFD"/>
<path d="M21.9436 14.9447C22.1369 14.9447 22.3294 14.8776 22.4847 14.7433L24.0474 13.3933C24.3936 13.0941 24.4324 12.5711 24.1332 12.2249C23.8323 11.878 23.3098 11.8416 22.9652 12.1396L21.9404 13.0249L21.6904 12.8114C21.3434 12.5149 20.8201 12.5554 20.5224 12.904C20.2256 13.2518 20.2668 13.7747 20.6147 14.0716L21.4057 14.7465C21.561 14.8788 21.7519 14.9447 21.9436 14.9447Z" fill="#F9FBFD"/>
<path d="M15.0498 21.2073H13.2679C12.3547 21.2073 11.6113 21.9502 11.6113 22.8638V24.6384C11.6113 25.552 12.3547 26.295 13.2679 26.295H15.0498C15.963 26.295 16.7063 25.552 16.7063 24.6384V22.8638C16.7063 21.9502 15.963 21.2073 15.0498 21.2073ZM15.0498 24.6384H13.2679V22.8638L15.0498 22.863V24.6384Z" fill="#F9FBFD"/>
<path d="M25.841 24.6384H19.3322C18.8744 24.6384 18.5039 25.0093 18.5039 25.4667C18.5039 25.9241 18.8744 26.295 19.3322 26.295H25.841C26.2988 26.295 26.6693 25.9241 26.6693 25.4667C26.6693 25.0093 26.2988 24.6384 25.841 24.6384Z" fill="#F9FBFD"/>
<path d="M21.9436 23.5392C22.1369 23.5392 22.3294 23.4721 22.4847 23.3378L24.0474 21.9878C24.3936 21.6885 24.4324 21.1656 24.1332 20.8194C23.8323 20.4724 23.3098 20.436 22.9652 20.7341L21.9404 21.6194L21.6904 21.4058C21.3434 21.1094 20.8201 21.1498 20.5224 21.4985C20.2256 21.8463 20.2668 22.3692 20.6147 22.666L21.4057 23.341C21.561 23.4733 21.7519 23.5392 21.9436 23.5392Z" fill="#F9FBFD"/>
<path d="M36.9315 32.5782C36.9315 24.6688 36.9315 18.7168 36.9315 10.4184C36.9315 8.95926 35.7441 7.77227 34.285 7.77227H30.5003V2.07066C30.5003 0.928967 29.5718 0 28.4297 0H9.85195C8.70985 0 7.78129 0.928967 7.78129 2.07066V7.77227H3.14576C1.68659 7.77227 0.5 8.95926 0.5 10.4184V32.5782C0.5 34.0373 1.68659 35.2247 3.14576 35.2247H13.8907L11.9509 38.5637H10.4424C9.98461 38.5637 9.61415 38.9345 9.61415 39.3919C9.61415 39.8493 9.98461 40.2202 10.4424 40.2202H26.9891C27.4469 40.2202 27.8174 39.8493 27.8174 39.3919C27.8174 38.9345 27.4469 38.5637 26.9891 38.5637H25.4798L23.5406 35.2247H34.285C35.7441 35.2247 36.9315 34.0373 36.9315 32.5782ZM30.5003 9.4288H34.285C34.8309 9.4288 35.275 9.87286 35.275 10.4184V28.1634H30.5003V9.4288ZM9.43782 2.07066C9.43782 1.84216 9.62386 1.65653 9.85195 1.65653H28.4297C28.6578 1.65653 28.8438 1.84216 28.8438 2.07066V28.0288H9.43782V2.07066ZM2.15653 10.4184C2.15653 9.87286 2.60059 9.4288 3.14576 9.4288H7.78129V28.1634H2.15653V10.4184ZM23.5644 38.5637H13.8663L15.8059 35.2247H21.6257L23.5644 38.5637ZM3.14576 33.5682C2.60059 33.5682 2.15653 33.1241 2.15653 32.5782V29.82H35.275V32.5782C35.275 33.1241 34.8309 33.5682 34.285 33.5682C29.0473 33.5643 3.2475 33.5682 3.14576 33.5682Z" fill="#F9FBFD"/>
<path d="M18.7151 30.8586C18.2573 30.8586 17.8496 31.2671 17.8496 31.7245C17.8496 32.1819 18.2573 32.59 18.7151 32.59C19.1729 32.59 19.5806 32.1819 19.5806 31.7245C19.5806 31.2671 19.1729 30.8586 18.7151 30.8586Z" fill="#F9FBFD"/>
</svg>
