<svg width="97" height="96" viewBox="0 0 97 96" fill="none" xmlns="http://www.w3.org/2000/svg">
<g clip-path="url(#clip0_674_2327)">
<path d="M96.3653 53.4347C96.365 53.4342 96.365 53.434 96.3648 53.4335L78.2396 7.92271C77.8549 6.95572 76.7589 6.48365 75.7919 6.86833C75.7912 6.86856 75.7905 6.8688 75.7898 6.86927L2.25824 36.1488C1.95837 36.2784 1.69831 36.4852 1.50444 36.7481C0.892919 37.0659 0.506596 37.6948 0.5 38.3839V87.381C0.5 88.4217 1.34379 89.2655 2.38451 89.2655H81.5337C82.5744 89.2655 83.4182 88.4217 83.4182 87.381V60.621L95.3132 55.8834C96.28 55.4978 96.7509 54.4014 96.3653 53.4347ZM79.6492 85.4965H4.26901V40.2684H79.6492V85.4965ZM31.943 36.5088L63.4971 23.9354C66.3133 26.8954 70.2154 28.5778 74.301 28.5939L77.4481 36.5088H31.943ZM83.4182 56.5731V38.3839C83.4182 37.3431 82.5744 36.4994 81.5337 36.4994H81.5036L77.5103 26.47C77.466 26.3864 77.4144 26.3068 77.3558 26.2326C77.1537 25.3249 76.3132 24.7056 75.3865 24.7815C71.585 25.128 67.8661 23.5267 65.506 20.5263C64.9188 19.8015 63.8865 19.6212 63.0882 20.1042C62.9987 20.1148 62.9099 20.1312 62.8225 20.1532L24.2994 35.493C23.8332 35.6758 23.4603 36.0384 23.2648 36.4994H11.5658L75.4355 11.0679L92.168 53.083L83.4182 56.5731Z" fill="#41B79B"/>
<path d="M9.38265 72.7742C13.0414 73.8556 15.9044 76.7151 16.9904 80.3725C17.2285 81.1708 17.9628 81.7178 18.7957 81.718C18.8935 81.7119 18.9906 81.6973 19.086 81.6747C19.1705 81.6987 19.257 81.7164 19.3441 81.7275H64.5723C64.65 81.7173 64.7268 81.7015 64.8022 81.6803C65.7437 81.9093 66.6926 81.332 66.9218 80.3904C66.9225 80.3869 66.9234 80.3836 66.9241 80.38C68.0073 76.7189 70.8708 73.8554 74.5319 72.7723C75.4197 72.5009 75.9714 71.6161 75.8247 70.6993C75.8499 70.6079 75.868 70.5147 75.8793 70.4204V55.3444C75.8682 55.2499 75.8494 55.1566 75.8228 55.0655C75.9705 54.1484 75.4185 53.2632 74.53 52.9925C70.8689 51.9096 68.0061 49.045 66.926 45.3829C66.6532 44.4889 65.7597 43.9358 64.838 44.0901C64.7508 44.0659 64.662 44.0482 64.5723 44.0374H19.3441C19.2492 44.0487 19.1552 44.0675 19.0633 44.0939C18.1468 43.9478 17.2625 44.4993 16.9904 45.3867C15.9066 49.0471 13.0433 51.9096 9.38265 52.9925C8.49481 53.2639 7.94312 54.1487 8.08988 55.0655C8.06538 55.1571 8.04771 55.2502 8.03711 55.3444V70.4204C8.04795 70.509 8.06561 70.5966 8.08988 70.6824C7.93535 71.6051 8.48821 72.4997 9.38265 72.7742ZM11.8061 56.1095C15.5902 54.5896 18.5894 51.5905 20.1093 47.8064H63.8053C65.3258 51.5905 68.3257 54.5896 72.1103 56.1095V69.6553C68.3274 71.1768 65.3287 74.1755 63.8072 77.9585H20.1093C18.5877 74.1755 15.589 71.1768 11.8061 69.6553V56.1095Z" fill="#41B79B"/>
<path d="M41.9594 74.1895C48.2042 74.1895 53.2664 69.1273 53.2664 62.8825C53.2664 56.6377 48.2042 51.5754 41.9594 51.5754C35.7146 51.5754 30.6523 56.6377 30.6523 62.8825C30.6585 69.1247 35.7172 74.1834 41.9594 74.1895ZM41.9594 55.3445C46.1225 55.3445 49.4974 58.7194 49.4974 62.8825C49.4974 67.0456 46.1225 70.4205 41.9594 70.4205C37.7963 70.4205 34.4214 67.0456 34.4214 62.8825C34.4214 58.7194 37.7963 55.3445 41.9594 55.3445Z" fill="#41B79B"/>
<path d="M21.2291 65.7092C22.7902 65.7092 24.0559 64.4435 24.0559 62.8824C24.0559 61.3213 22.7902 60.0557 21.2291 60.0557C19.668 60.0557 18.4023 61.3213 18.4023 62.8824C18.4023 64.4437 19.668 65.7092 21.2291 65.7092ZM21.2291 61.9402C21.7495 61.9402 22.1714 62.3621 22.1714 62.8824C22.1714 63.4028 21.7495 63.8247 21.2291 63.8247C20.7087 63.8247 20.2868 63.4028 20.2868 62.8824C20.2868 62.3621 20.7087 61.9402 21.2291 61.9402Z" fill="#41B79B"/>
<path d="M62.6881 65.7092C64.2492 65.7092 65.5148 64.4435 65.5148 62.8824C65.5148 61.3213 64.2492 60.0557 62.6881 60.0557C61.127 60.0557 59.8613 61.3213 59.8613 62.8824C59.8613 64.4437 61.127 65.7092 62.6881 65.7092ZM62.6881 61.9402C63.2084 61.9402 63.6303 62.3621 63.6303 62.8824C63.6303 63.4028 63.2084 63.8247 62.6881 63.8247C62.1677 63.8247 61.7458 63.4028 61.7458 62.8824C61.7458 62.3621 62.1677 61.9402 62.6881 61.9402Z" fill="#41B79B"/>
</g>
<defs>
<clipPath id="clip0_674_2327">
<rect width="96" height="96" fill="white" transform="translate(0.5)"/>
</clipPath>
</defs>
</svg>
