<svg width="21" height="31" viewBox="0 0 21 31" fill="none" xmlns="http://www.w3.org/2000/svg">
<path d="M0.36 30.8972V25.2972C0.36 24.0705 0.546667 23.0038 0.92 22.0972C1.32 21.1905 1.96 20.3905 2.84 19.6972C3.74667 18.9772 4.93333 18.2972 6.4 17.6572L11.36 15.4572C12.5867 14.8972 13.52 14.2172 14.16 13.4172C14.8267 12.5905 15.16 11.5372 15.16 10.2572C15.16 8.84384 14.7333 7.72385 13.88 6.89718C13.0533 6.04385 11.8667 5.61718 10.32 5.61718C8.77333 5.61718 7.57333 6.04385 6.72 6.89718C5.89333 7.75051 5.48 8.93718 5.48 10.4572H0C0 8.64384 0.386667 7.01718 1.16 5.57718C1.93333 4.11051 3.08 2.96384 4.6 2.13718C6.12 1.28384 8.02667 0.857178 10.32 0.857178C12.6133 0.857178 14.52 1.27051 16.04 2.09718C17.56 2.92384 18.7067 4.03051 19.48 5.41718C20.2533 6.77718 20.64 8.29718 20.64 9.97718V10.4972C20.64 12.6838 20.0267 14.5105 18.8 15.9772C17.5733 17.4172 15.7733 18.6705 13.4 19.7372L8.44 21.9372C7.50667 22.3372 6.85333 22.7638 6.48 23.2172C6.10667 23.6438 5.92 24.2305 5.92 24.9772V27.5372L4.56 26.0572H20.76V30.8972H0.36Z" fill="#41B79B"/>
</svg>
