<svg width="21" height="32" viewBox="0 0 21 32" fill="none" xmlns="http://www.w3.org/2000/svg">
<path d="M0.36 31.0127V25.4127C0.36 24.186 0.546667 23.1193 0.92 22.2127C1.32 21.306 1.96 20.506 2.84 19.8127C3.74667 19.0927 4.93333 18.4127 6.4 17.7727L11.36 15.5727C12.5867 15.0127 13.52 14.3327 14.16 13.5327C14.8267 12.706 15.16 11.6527 15.16 10.3727C15.16 8.95932 14.7333 7.83932 13.88 7.01266C13.0533 6.15932 11.8667 5.73266 10.32 5.73266C8.77333 5.73266 7.57333 6.15932 6.72 7.01266C5.89333 7.86599 5.48 9.05266 5.48 10.5727H0C0 8.75932 0.386667 7.13266 1.16 5.69266C1.93333 4.22599 3.08 3.07932 4.6 2.25266C6.12 1.39932 8.02667 0.972656 10.32 0.972656C12.6133 0.972656 14.52 1.38599 16.04 2.21266C17.56 3.03932 18.7067 4.14599 19.48 5.53266C20.2533 6.89266 20.64 8.41266 20.64 10.0927V10.6127C20.64 12.7993 20.0267 14.626 18.8 16.0927C17.5733 17.5327 15.7733 18.786 13.4 19.8527L8.44 22.0527C7.50667 22.4527 6.85333 22.8793 6.48 23.3327C6.10667 23.7593 5.92 24.346 5.92 25.0927V27.6527L4.56 26.1727H20.76V31.0127H0.36Z" fill="#41B79B"/>
</svg>
