<svg width="486" height="340" viewBox="0 0 486 340" fill="none" xmlns="http://www.w3.org/2000/svg">
<g clip-path="url(#clip0_687_4559)">
<g opacity="0.15">
<path opacity="0.04" d="M368.707 241.242C369.412 224.836 332.539 209.928 286.349 207.944C240.159 205.959 202.143 217.65 201.438 234.056C200.733 250.462 237.607 265.37 283.797 267.354C329.987 269.339 368.003 257.648 368.707 241.242Z" fill="#030611"/>
<path opacity="0.07" d="M367.652 241.197C368.348 224.998 331.941 210.278 286.334 208.319C240.728 206.359 203.192 217.903 202.496 234.101C201.8 250.3 238.208 265.02 283.814 266.979C329.42 268.939 366.956 257.395 367.652 241.197Z" fill="#030611"/>
<path opacity="0.11" d="M366.595 241.151C367.282 225.16 331.34 210.628 286.318 208.694C241.295 206.76 204.24 218.155 203.553 234.147C202.866 250.138 238.807 264.67 283.83 266.604C328.852 268.539 365.908 257.143 366.595 241.151Z" fill="#030611"/>
<path opacity="0.15" d="M365.535 241.106C366.213 225.321 330.739 210.978 286.301 209.069C241.863 207.16 205.289 218.408 204.611 234.192C203.933 249.977 239.407 264.32 283.845 266.229C328.283 268.138 364.857 256.89 365.535 241.106Z" fill="#030611"/>
<path opacity="0.19" d="M363.886 239.63C364.509 224.039 329.431 209.977 285.536 208.221C241.641 206.465 205.552 217.681 204.928 233.271C204.304 248.862 239.383 262.924 283.278 264.68C327.173 266.435 363.262 255.22 363.886 239.63Z" fill="#030611"/>
<path opacity="0.22" d="M363.422 241.015C364.083 225.646 329.54 211.68 286.269 209.821C242.998 207.962 207.385 218.914 206.725 234.283C206.065 249.652 240.607 263.618 283.878 265.477C327.149 267.336 362.762 256.384 363.422 241.015Z" fill="#030611"/>
<path opacity="0.26" d="M362.363 240.97C363.015 225.808 328.939 212.03 286.252 210.196C243.566 208.362 208.434 219.167 207.783 234.329C207.132 249.49 241.207 263.268 283.894 265.102C326.58 266.936 361.712 256.131 362.363 240.97Z" fill="#030611"/>
<path opacity="0.3" d="M361.306 240.924C361.948 225.969 328.338 212.38 286.236 210.571C244.133 208.762 209.482 219.419 208.839 234.374C208.197 249.329 241.807 262.918 283.909 264.727C326.012 266.536 360.663 255.879 361.306 240.924Z" fill="#030611"/>
<path opacity="0.33" d="M360.25 240.879C360.884 226.132 327.74 212.732 286.221 210.948C244.702 209.165 210.531 219.673 209.897 234.419C209.264 249.166 242.408 262.566 283.927 264.35C325.445 266.134 359.617 255.625 360.25 240.879Z" fill="#030611"/>
<path opacity="0.37" d="M359.191 240.833C359.816 226.294 327.138 213.082 286.204 211.323C245.27 209.565 211.58 219.926 210.955 234.465C210.331 249.004 243.008 262.216 283.942 263.975C324.876 265.733 358.566 255.373 359.191 240.833Z" fill="#030611"/>
<path opacity="0.41" d="M358.134 240.788C358.749 226.456 326.538 213.432 286.187 211.698C245.837 209.965 212.627 220.178 212.011 234.51C211.396 248.842 243.607 261.866 283.958 263.6C324.308 265.333 357.518 255.12 358.134 240.788Z" fill="#030611"/>
<path opacity="0.44" d="M357.078 240.742C357.685 226.617 325.94 213.782 286.173 212.073C246.406 210.365 213.676 220.431 213.069 234.556C212.463 248.681 244.208 261.516 283.975 263.225C323.742 264.933 356.472 254.867 357.078 240.742Z" fill="#030611"/>
<path opacity="0.48" d="M356.019 240.697C356.617 226.779 325.338 214.132 286.156 212.449C246.974 210.765 214.725 220.683 214.128 234.601C213.53 248.519 244.808 261.166 283.991 262.849C323.173 264.533 355.421 254.615 356.019 240.697Z" fill="#030611"/>
<path opacity="0.52" d="M354.962 240.652C355.551 226.942 324.738 214.484 286.139 212.826C247.54 211.167 215.773 220.937 215.184 234.647C214.595 248.356 245.408 260.814 284.006 262.472C322.605 264.131 354.373 254.361 354.962 240.652Z" fill="#030611"/>
<path opacity="0.56" d="M353.906 240.606C354.486 227.104 324.139 214.834 286.124 213.201C248.109 211.568 216.822 221.189 216.242 234.692C215.662 248.194 246.009 260.464 284.024 262.097C322.039 263.731 353.326 254.109 353.906 240.606Z" fill="#030611"/>
<path opacity="0.59" d="M352.242 239.164C352.774 225.856 322.834 213.854 285.369 212.355C247.904 210.856 217.102 220.429 216.569 233.737C216.037 247.045 245.977 259.047 283.442 260.546C320.906 262.044 351.709 252.471 352.242 239.164Z" fill="#030611"/>
<path opacity="0.63" d="M351.79 240.515C352.352 227.427 322.938 215.534 286.091 213.951C249.244 212.368 218.918 221.695 218.356 234.783C217.794 247.871 247.208 259.764 284.055 261.347C320.901 262.93 351.227 253.603 351.79 240.515Z" fill="#030611"/>
<path opacity="0.67" d="M350.127 239.079C350.643 226.187 321.636 214.56 285.34 213.108C249.043 211.656 219.201 220.93 218.686 233.822C218.17 246.713 247.176 258.341 283.473 259.793C319.769 261.245 349.611 251.971 350.127 239.079Z" fill="#030611"/>
<path opacity="0.7" d="M349.677 240.425C350.221 227.752 321.739 216.236 286.059 214.703C250.38 213.17 221.015 222.201 220.47 234.874C219.926 247.546 248.408 259.062 284.088 260.595C319.767 262.128 349.132 253.097 349.677 240.425Z" fill="#030611"/>
<path opacity="0.74" d="M348.618 240.379C349.153 227.913 321.137 216.586 286.043 215.078C250.948 213.57 222.064 222.454 221.528 234.919C220.993 247.385 249.008 258.712 284.103 260.22C319.198 261.728 348.082 252.845 348.618 240.379Z" fill="#030611"/>
<path opacity="0.78" d="M347.562 240.334C348.089 228.075 320.539 216.936 286.028 215.453C251.517 213.971 223.113 222.706 222.586 234.964C222.06 247.223 249.61 258.362 284.121 259.845C318.632 261.327 347.035 252.592 347.562 240.334Z" fill="#030611"/>
<path opacity="0.81" d="M346.505 240.288C347.022 228.238 319.938 217.288 286.011 215.83C252.083 214.373 224.16 222.96 223.642 235.01C223.125 247.06 250.209 258.01 284.136 259.468C318.064 260.925 345.987 252.338 346.505 240.288Z" fill="#030611"/>
<path opacity="0.85" d="M345.445 240.243C345.954 228.4 319.337 217.638 285.994 216.205C252.651 214.773 225.209 223.212 224.701 235.055C224.192 246.898 250.809 257.66 284.152 259.093C317.495 260.525 344.937 252.086 345.445 240.243Z" fill="#030611"/>
<path opacity="0.89" d="M344.39 240.197C344.89 228.561 318.739 217.988 285.979 216.58C253.22 215.173 226.259 223.465 225.759 235.101C225.259 246.737 251.41 257.31 284.169 258.718C316.928 260.125 343.89 251.833 344.39 240.197Z" fill="#030611"/>
<path opacity="0.93" d="M343.333 240.152C343.824 228.723 318.138 218.338 285.963 216.956C253.787 215.573 227.306 223.717 226.815 235.146C226.324 246.575 252.009 256.96 284.185 258.342C316.36 259.725 342.842 251.581 343.333 240.152Z" fill="#030611"/>
<path opacity="0.96" d="M342.273 240.106C342.755 228.886 317.537 218.69 285.946 217.333C254.355 215.975 228.355 223.971 227.873 235.192C227.391 246.412 252.609 256.608 284.2 257.965C315.791 259.323 341.791 251.327 342.273 240.106Z" fill="#030611"/>
<path d="M341.216 240.061C341.689 229.048 316.936 219.04 285.929 217.708C254.922 216.376 229.402 224.224 228.929 235.237C228.456 246.25 253.209 256.258 284.216 257.59C315.223 258.923 340.743 251.074 341.216 240.061Z" fill="#030611"/>
</g>
<g opacity="0.15">
<path opacity="0.04" d="M488.785 266.932C489.486 250.609 452.801 235.777 406.845 233.802C360.89 231.828 323.067 243.46 322.365 259.783C321.664 276.105 358.35 290.938 404.306 292.912C450.261 294.887 488.084 283.255 488.785 266.932Z" fill="#030611"/>
<path opacity="0.07" d="M487.304 266.868C487.993 250.836 451.96 236.267 406.822 234.328C361.685 232.389 324.536 243.814 323.847 259.846C323.158 275.879 359.191 290.448 404.328 292.387C449.466 294.326 486.615 282.901 487.304 266.868Z" fill="#030611"/>
<path opacity="0.11" d="M484.901 265.185C485.531 249.43 450.081 235.219 405.721 233.444C361.36 231.67 324.889 243.004 324.258 258.76C323.628 274.515 359.078 288.727 403.438 290.501C447.799 292.275 484.27 280.941 484.901 265.185Z" fill="#030611"/>
<path opacity="0.15" d="M484.339 266.741C485.003 251.29 450.277 237.25 406.777 235.381C363.277 233.512 327.475 244.522 326.811 259.973C326.147 275.425 360.873 289.465 404.373 291.334C447.873 293.203 483.675 282.192 484.339 266.741Z" fill="#030611"/>
<path opacity="0.19" d="M482.858 266.678C483.509 251.518 449.436 237.742 406.754 235.908C364.072 234.075 328.944 244.877 328.293 260.037C327.641 275.197 361.714 288.973 404.396 290.807C447.078 292.64 482.206 281.837 482.858 266.678Z" fill="#030611"/>
<path opacity="0.22" d="M480.449 265.007C481.044 250.124 447.558 236.7 405.656 235.024C363.753 233.348 329.302 244.054 328.707 258.938C328.112 273.821 361.598 287.245 403.5 288.921C445.402 290.597 479.854 279.891 480.449 265.007Z" fill="#030611"/>
<path opacity="0.26" d="M479.891 266.55C480.517 251.971 447.752 238.723 406.707 236.959C365.663 235.196 331.882 245.585 331.255 260.165C330.629 274.744 363.394 287.992 404.439 289.755C445.484 291.519 479.265 281.129 479.891 266.55Z" fill="#030611"/>
<path opacity="0.3" d="M478.409 266.486C479.023 252.199 446.911 239.215 406.684 237.487C366.458 235.758 333.35 245.94 332.736 260.228C332.123 274.516 364.235 287.5 404.462 289.228C444.688 290.956 477.796 280.774 478.409 266.486Z" fill="#030611"/>
<path opacity="0.33" d="M476.928 266.423C477.529 252.425 446.07 239.705 406.662 238.012C367.253 236.319 334.819 246.294 334.218 260.292C333.616 274.289 365.076 287.009 404.484 288.702C443.892 290.395 476.327 280.421 476.928 266.423Z" fill="#030611"/>
<path opacity="0.37" d="M475.445 266.357C476.034 252.651 445.228 240.196 406.639 238.538C368.05 236.88 336.29 246.647 335.701 260.354C335.112 274.06 365.917 286.515 404.507 288.173C443.096 289.831 474.856 280.064 475.445 266.357Z" fill="#030611"/>
<path opacity="0.41" d="M473.963 266.292C474.54 252.876 444.387 240.684 406.616 239.061C368.845 237.439 337.759 246.999 337.182 260.415C336.606 273.832 366.758 286.023 404.529 287.646C442.3 289.268 473.387 279.708 473.963 266.292Z" fill="#030611"/>
<path opacity="0.44" d="M471.549 264.648C472.075 251.511 442.517 239.662 405.53 238.182C368.543 236.703 338.133 246.153 337.608 259.29C337.082 272.427 366.64 284.276 403.627 285.755C440.614 287.235 471.024 277.785 471.549 264.648Z" fill="#030611"/>
<path opacity="0.48" d="M470.997 266.164C471.548 253.33 442.703 241.667 406.569 240.114C370.435 238.562 340.696 247.708 340.145 260.543C339.593 273.377 368.439 285.04 404.572 286.593C440.706 288.145 470.445 278.999 470.997 266.164Z" fill="#030611"/>
<path opacity="0.52" d="M469.517 266.101C470.056 253.557 441.864 242.159 406.548 240.642C371.233 239.125 342.167 248.063 341.628 260.606C341.089 273.15 369.281 284.548 404.597 286.065C439.912 287.583 468.978 278.644 469.517 266.101Z" fill="#030611"/>
<path opacity="0.56" d="M468.036 266.037C468.562 253.784 441.023 242.649 406.526 241.167C372.028 239.685 343.636 248.417 343.109 260.67C342.583 272.923 370.122 284.058 404.619 285.54C439.117 287.022 467.509 278.29 468.036 266.037Z" fill="#030611"/>
<path opacity="0.59" d="M466.554 265.973C467.068 254.011 440.182 243.14 406.503 241.693C372.824 240.246 345.105 248.771 344.591 260.734C344.077 272.697 370.963 283.567 404.642 285.014C438.321 286.461 466.04 277.936 466.554 265.973Z" fill="#030611"/>
<path opacity="0.63" d="M465.071 265.91C465.572 254.238 439.34 243.632 406.48 242.22C373.62 240.809 346.575 249.126 346.074 260.797C345.573 272.469 371.804 283.075 404.664 284.487C437.525 285.899 464.569 277.581 465.071 265.91Z" fill="#030611"/>
<path opacity="0.67" d="M463.588 265.844C464.077 254.463 438.498 244.12 406.456 242.744C374.414 241.367 348.042 249.478 347.553 260.859C347.064 272.241 372.643 282.583 404.685 283.959C436.727 285.336 463.099 277.226 463.588 265.844Z" fill="#030611"/>
<path opacity="0.7" d="M462.106 265.781C462.583 254.69 437.657 244.613 406.433 243.271C375.209 241.93 349.511 249.833 349.035 260.923C348.558 272.013 373.484 282.091 404.708 283.432C435.931 284.773 461.63 276.871 462.106 265.781Z" fill="#030611"/>
<path opacity="0.74" d="M460.623 265.717C461.087 254.917 436.815 245.103 406.41 243.797C376.006 242.491 350.982 250.187 350.518 260.986C350.054 271.786 374.326 281.6 404.73 282.906C435.135 284.213 460.159 276.517 460.623 265.717Z" fill="#030611"/>
<path opacity="0.78" d="M459.216 265.722C459.669 255.214 436.052 245.66 406.466 244.384C376.88 243.108 352.528 250.592 352.075 261.1C351.621 271.609 375.238 281.162 404.825 282.438C434.411 283.715 458.763 276.23 459.216 265.722Z" fill="#030611"/>
<path opacity="0.81" d="M457.733 265.656C458.173 255.438 435.21 246.148 406.441 244.908C377.673 243.667 353.995 250.944 353.554 261.162C353.113 271.381 376.077 280.67 404.845 281.911C433.613 283.152 457.292 275.874 457.733 265.656Z" fill="#030611"/>
<path opacity="0.85" d="M456.249 265.592C456.677 255.665 434.367 246.641 406.418 245.435C378.47 244.229 355.465 251.299 355.037 261.226C354.609 271.153 376.919 280.178 404.868 281.384C432.817 282.589 455.821 275.519 456.249 265.592Z" fill="#030611"/>
<path opacity="0.89" d="M454.768 265.528C455.183 255.892 433.527 247.131 406.396 245.96C379.265 244.79 356.934 251.653 356.518 261.29C356.103 270.927 377.76 279.688 404.89 280.858C432.021 282.028 454.352 275.165 454.768 265.528Z" fill="#030611"/>
<path opacity="0.93" d="M453.284 265.464C453.687 256.118 432.684 247.621 406.371 246.486C380.058 245.351 358.401 252.008 357.998 261.354C357.594 270.701 378.598 279.198 404.911 280.333C431.224 281.468 452.881 274.811 453.284 265.464Z" fill="#030611"/>
<path opacity="0.96" d="M451.801 265.398C452.192 256.343 431.842 248.111 406.348 247.011C380.855 245.912 359.871 252.361 359.481 261.416C359.09 270.471 379.44 278.703 404.934 279.803C430.427 280.903 451.41 274.454 451.801 265.398Z" fill="#030611"/>
<path d="M450.317 265.335C450.696 256.57 430.999 248.601 406.323 247.537C381.648 246.473 361.338 252.715 360.96 261.48C360.582 270.245 380.279 278.213 404.954 279.278C429.63 280.342 449.939 274.1 450.317 265.335Z" fill="#030611"/>
</g>
<g opacity="0.15">
<path opacity="0.04" d="M311.471 309.897C312.176 293.491 275.303 278.583 229.113 276.598C182.923 274.614 144.907 286.305 144.202 302.711C143.497 319.117 180.37 334.025 226.56 336.009C272.75 337.994 310.766 326.303 311.471 309.897Z" fill="#030611"/>
<path opacity="0.07" d="M310.416 309.851C311.111 293.653 274.704 278.933 229.098 276.973C183.491 275.014 145.956 286.557 145.26 302.756C144.564 318.955 180.971 333.675 226.578 335.634C272.184 337.593 309.72 326.05 310.416 309.851Z" fill="#030611"/>
<path opacity="0.11" d="M308.996 308.221C309.636 292.215 273.624 277.778 228.559 275.975C183.495 274.173 146.444 285.687 145.804 301.693C145.164 317.7 181.176 332.137 226.241 333.939C271.305 335.742 308.356 324.227 308.996 308.221Z" fill="#030611"/>
<path opacity="0.15" d="M308.299 309.761C308.977 293.976 273.503 279.633 229.065 277.724C184.626 275.815 148.052 287.063 147.374 302.847C146.696 318.631 182.171 332.975 226.609 334.884C271.047 336.793 307.621 325.545 308.299 309.761Z" fill="#030611"/>
<path opacity="0.19" d="M307.243 309.715C307.913 294.139 272.904 279.985 229.05 278.101C185.195 276.217 149.102 287.316 148.432 302.892C147.763 318.469 182.772 332.623 226.626 334.507C270.481 336.391 306.574 325.291 307.243 309.715Z" fill="#030611"/>
<path opacity="0.22" d="M306.186 309.67C306.846 294.301 272.304 280.335 229.033 278.476C185.762 276.617 150.149 287.569 149.489 302.938C148.828 318.307 183.371 332.273 226.642 334.132C269.913 335.991 305.526 325.039 306.186 309.67Z" fill="#030611"/>
<path opacity="0.26" d="M305.127 309.624C305.778 294.462 271.702 280.685 229.016 278.851C186.33 277.017 151.198 287.821 150.547 302.983C149.895 318.145 183.971 331.923 226.657 333.757C269.343 335.591 304.475 324.786 305.127 309.624Z" fill="#030611"/>
<path opacity="0.3" d="M304.072 309.579C304.714 294.624 271.104 281.035 229.001 279.226C186.899 277.417 152.247 288.074 151.605 303.029C150.962 317.983 184.572 331.573 226.675 333.382C268.777 335.19 303.429 324.534 304.072 309.579Z" fill="#030611"/>
<path opacity="0.33" d="M303.014 309.533C303.648 294.787 270.503 281.387 228.984 279.603C187.466 277.819 153.294 288.328 152.661 303.074C152.027 317.821 185.171 331.221 226.69 333.005C268.209 334.788 302.38 324.28 303.014 309.533Z" fill="#030611"/>
<path opacity="0.37" d="M301.955 309.488C302.579 294.949 269.902 281.737 228.968 279.978C188.034 278.22 154.344 288.58 153.719 303.12C153.094 317.659 185.772 330.871 226.706 332.63C267.64 334.388 301.33 324.027 301.955 309.488Z" fill="#030611"/>
<path opacity="0.41" d="M300.897 309.443C301.513 295.11 269.302 282.087 228.951 280.353C188.601 278.62 155.391 288.833 154.775 303.165C154.159 317.497 186.371 330.521 226.721 332.254C267.072 333.988 300.282 323.775 300.897 309.443Z" fill="#030611"/>
<path opacity="0.44" d="M299.842 309.397C300.449 295.272 268.703 282.437 228.936 280.728C189.169 279.02 156.44 289.085 155.833 303.21C155.226 317.335 186.972 330.171 226.739 331.879C266.506 333.588 299.235 323.522 299.842 309.397Z" fill="#030611"/>
<path opacity="0.48" d="M298.783 309.352C299.381 295.434 268.102 282.787 228.92 281.103C189.737 279.42 157.489 289.338 156.891 303.256C156.293 317.174 187.572 329.821 226.754 331.504C265.937 333.188 298.185 323.27 298.783 309.352Z" fill="#030611"/>
<path opacity="0.52" d="M297.354 307.755C297.903 294.033 267.029 281.656 228.394 280.111C189.76 278.566 157.996 288.437 157.447 302.159C156.898 315.881 187.772 328.258 226.407 329.804C265.041 331.349 296.805 321.478 297.354 307.755Z" fill="#030611"/>
<path opacity="0.56" d="M296.67 309.261C297.25 295.759 266.903 283.489 228.888 281.856C190.873 280.222 159.585 289.844 159.005 303.347C158.425 316.849 188.772 329.119 226.787 330.752C264.802 332.385 296.09 322.763 296.67 309.261Z" fill="#030611"/>
<path opacity="0.59" d="M295.611 309.215C296.182 295.92 266.302 283.839 228.871 282.231C191.441 280.623 160.635 290.097 160.064 303.392C159.492 316.687 189.373 328.769 226.803 330.377C264.233 331.985 295.04 322.511 295.611 309.215Z" fill="#030611"/>
<path opacity="0.63" d="M294.553 309.17C295.116 296.082 265.701 284.189 228.855 282.606C192.008 281.023 161.682 290.349 161.12 303.438C160.557 316.526 189.972 328.419 226.818 330.002C263.665 331.585 293.991 322.258 294.553 309.17Z" fill="#030611"/>
<path opacity="0.67" d="M293.498 309.125C294.051 296.245 265.103 284.541 228.84 282.983C192.577 281.425 162.731 290.603 162.178 303.483C161.624 316.363 190.573 328.067 226.836 329.625C263.099 331.183 292.944 322.004 293.498 309.125Z" fill="#030611"/>
<path opacity="0.7" d="M292.44 309.079C292.985 296.407 264.502 284.891 228.823 283.358C193.144 281.825 163.778 290.856 163.234 303.528C162.689 316.201 191.172 327.717 226.851 329.25C262.531 330.783 291.896 321.752 292.44 309.079Z" fill="#030611"/>
<path opacity="0.74" d="M291.381 309.034C291.917 296.568 263.901 285.241 228.806 283.733C193.712 282.225 164.827 291.108 164.292 303.574C163.756 316.039 191.772 327.367 226.867 328.875C261.962 330.382 290.846 321.499 291.381 309.034Z" fill="#030611"/>
<path opacity="0.78" d="M290.326 308.988C290.852 296.73 263.303 285.591 228.791 284.108C194.28 282.625 165.877 291.361 165.35 303.619C164.823 315.878 192.373 327.017 226.884 328.5C261.395 329.982 289.799 321.247 290.326 308.988Z" fill="#030611"/>
<path opacity="0.81" d="M289.268 308.943C289.786 296.893 262.702 285.943 228.775 284.485C194.847 283.027 166.924 291.614 166.406 303.665C165.888 315.715 192.972 326.665 226.9 328.123C260.827 329.58 288.751 320.993 289.268 308.943Z" fill="#030611"/>
<path opacity="0.85" d="M288.209 308.897C288.718 297.054 262.101 286.293 228.758 284.86C195.415 283.428 167.973 291.867 167.464 303.71C166.955 315.553 193.573 326.315 226.915 327.747C260.258 329.18 287.7 320.74 288.209 308.897Z" fill="#030611"/>
<path opacity="0.89" d="M287.154 308.852C287.654 297.216 261.502 286.643 228.743 285.235C195.984 283.828 169.022 292.12 168.522 303.756C168.022 315.391 194.174 325.965 226.933 327.372C259.692 328.78 286.654 320.488 287.154 308.852Z" fill="#030611"/>
<path opacity="0.93" d="M286.096 308.807C286.587 297.378 260.902 286.993 228.726 285.61C196.551 284.228 170.069 292.372 169.578 303.801C169.087 315.23 194.773 325.615 226.948 326.997C259.124 328.38 285.605 320.235 286.096 308.807Z" fill="#030611"/>
<path opacity="0.96" d="M285.037 308.761C285.519 297.541 260.3 287.345 228.71 285.987C197.119 284.63 171.119 292.626 170.636 303.846C170.154 315.067 195.373 325.263 226.964 326.62C258.555 327.977 284.555 319.982 285.037 308.761Z" fill="#030611"/>
<path d="M283.982 308.716C284.455 297.702 259.702 287.695 228.695 286.362C197.688 285.03 172.168 292.878 171.695 303.892C171.221 314.905 195.974 324.913 226.981 326.245C257.989 327.577 283.509 319.729 283.982 308.716Z" fill="#030611"/>
</g>
<g opacity="0.15">
<path opacity="0.04" d="M176.334 228.283C177.039 211.877 140.166 196.968 93.976 194.984C47.7859 193 9.77007 204.691 9.06525 221.096C8.36043 237.502 45.2335 252.411 91.4236 254.395C137.614 256.379 175.63 244.688 176.334 228.283Z" fill="#030611"/>
<path opacity="0.07" d="M175.279 228.237C175.975 212.038 139.568 197.318 93.9612 195.359C48.3547 193.4 10.8193 204.943 10.1234 221.142C9.42744 237.341 45.8346 252.061 91.441 254.02C137.047 255.979 174.583 244.436 175.279 228.237Z" fill="#030611"/>
<path opacity="0.11" d="M174.18 226.97C174.82 210.964 138.807 196.527 93.7429 194.724C48.6785 192.921 11.6277 204.436 10.9874 220.442C10.3472 236.448 46.36 250.885 91.4243 252.688C136.489 254.49 173.54 242.976 174.18 226.97Z" fill="#030611"/>
<path opacity="0.15" d="M173.12 226.927C173.752 211.129 138.207 196.879 93.7274 195.1C49.2483 193.32 12.6786 204.686 12.0466 220.485C11.4146 236.283 46.9598 250.533 91.4389 252.313C135.918 254.092 172.488 242.726 173.12 226.927Z" fill="#030611"/>
<path opacity="0.19" d="M172.061 226.885C172.685 211.295 137.607 197.233 93.7117 195.477C49.8168 193.721 13.7274 204.936 13.1038 220.527C12.4802 236.117 47.5585 250.179 91.4534 251.935C135.348 253.691 171.438 242.476 172.061 226.885Z" fill="#030611"/>
<path opacity="0.22" d="M171.049 228.055C171.71 212.686 137.167 198.72 93.8961 196.861C50.6253 195.002 15.0121 205.954 14.3518 221.323C13.6915 236.692 48.2342 250.658 91.5051 252.517C134.776 254.376 170.389 243.424 171.049 228.055Z" fill="#030611"/>
<path opacity="0.26" d="M169.99 228.01C170.642 212.848 136.566 199.07 93.8794 197.237C51.1933 195.403 16.0613 206.207 15.4099 221.369C14.7585 236.531 48.8344 250.309 91.5206 252.142C134.207 253.976 169.339 243.172 169.99 228.01Z" fill="#030611"/>
<path opacity="0.3" d="M168.935 227.965C169.577 213.01 135.967 199.42 93.8647 197.612C51.7621 195.803 17.1105 206.46 16.468 221.414C15.8255 236.369 49.4355 249.959 91.5381 251.767C133.641 253.576 168.292 242.919 168.935 227.965Z" fill="#030611"/>
<path opacity="0.33" d="M167.877 227.919C168.511 213.173 135.367 199.772 93.8478 197.989C52.3289 196.205 18.1576 206.713 17.5241 221.46C16.8905 236.206 50.0347 249.607 91.5536 251.39C133.072 253.174 167.244 242.666 167.877 227.919Z" fill="#030611"/>
<path opacity="0.37" d="M166.818 227.874C167.443 213.334 134.765 200.122 93.8311 198.364C52.8969 196.605 19.2068 206.966 18.5822 221.505C17.9575 236.045 50.6349 249.257 91.5691 251.015C132.503 252.774 166.193 242.413 166.818 227.874Z" fill="#030611"/>
<path opacity="0.41" d="M165.761 227.828C166.376 213.496 134.165 200.472 93.8144 198.739C53.4638 197.005 20.254 207.219 19.6383 221.551C19.0226 235.883 51.234 248.907 91.5846 250.64C131.935 252.374 165.145 242.161 165.761 227.828Z" fill="#030611"/>
<path opacity="0.44" d="M164.705 227.783C165.312 213.658 133.567 200.822 93.7996 199.114C54.0327 197.406 21.3032 207.471 20.6964 221.596C20.0896 235.721 51.8351 248.557 91.6021 250.265C131.369 251.973 164.098 241.908 164.705 227.783Z" fill="#030611"/>
<path opacity="0.48" d="M163.594 226.546C164.151 212.616 132.81 200.051 93.5916 198.482C54.3732 196.914 22.1287 206.935 21.5714 220.866C21.0142 234.796 52.3553 247.361 91.5737 248.93C130.792 250.498 163.037 240.477 163.594 226.546Z" fill="#030611"/>
<path opacity="0.52" d="M162.589 227.692C163.178 213.982 132.365 201.524 93.766 199.866C55.1674 198.208 23.3996 207.977 22.8106 221.687C22.2216 235.397 53.0345 247.855 91.6331 249.513C130.232 251.171 162 241.402 162.589 227.692Z" fill="#030611"/>
<path opacity="0.56" d="M161.533 227.647C162.113 214.144 131.766 201.874 93.7513 200.241C55.7363 198.608 24.4488 208.23 23.8687 221.732C23.2886 235.235 53.6356 247.505 91.6506 249.138C129.666 250.771 160.953 241.149 161.533 227.647Z" fill="#030611"/>
<path opacity="0.59" d="M160.474 227.601C161.045 214.306 131.165 202.224 93.7346 200.616C56.3043 199.008 25.498 208.483 24.9268 221.778C24.3556 235.073 54.2358 247.155 91.6662 248.763C129.096 250.371 159.903 240.896 160.474 227.601Z" fill="#030611"/>
<path opacity="0.63" d="M159.417 227.556C159.979 214.468 130.565 202.574 93.7179 200.991C56.8712 199.408 26.5452 208.735 25.9829 221.823C25.4207 234.911 54.835 246.805 91.6817 248.388C128.528 249.971 158.854 240.644 159.417 227.556Z" fill="#030611"/>
<path opacity="0.67" d="M158.361 227.51C158.914 214.63 129.966 202.926 93.7029 201.368C57.4399 199.81 27.5943 208.989 27.041 221.869C26.4876 234.748 55.4361 246.453 91.6991 248.011C127.962 249.568 157.808 240.39 158.361 227.51Z" fill="#030611"/>
<path opacity="0.7" d="M157.304 227.465C157.848 214.792 129.366 203.276 93.6862 201.743C58.0068 200.211 28.6416 209.241 28.0971 221.914C27.5527 234.587 56.0352 246.103 91.7146 247.635C127.394 249.168 156.759 240.138 157.304 227.465Z" fill="#030611"/>
<path opacity="0.74" d="M156.245 227.419C156.78 214.954 128.764 203.626 93.6695 202.119C58.5748 200.611 29.6908 209.494 29.1552 221.96C28.6197 234.425 56.6354 245.753 91.7302 247.26C126.825 248.768 155.709 239.885 156.245 227.419Z" fill="#030611"/>
<path opacity="0.78" d="M155.189 227.374C155.716 215.116 128.166 203.976 93.6547 202.494C59.1437 201.011 30.74 209.747 30.2133 222.005C29.6867 234.263 57.2365 245.403 91.7476 246.885C126.259 248.368 154.662 239.632 155.189 227.374Z" fill="#030611"/>
<path opacity="0.81" d="M154.072 226.166C154.554 214.104 127.416 203.226 93.4575 201.867C59.4988 200.509 31.5787 209.185 31.0962 221.247C30.6138 233.308 57.7517 244.187 91.7104 245.545C125.669 246.903 153.589 238.227 154.072 226.166Z" fill="#030611"/>
<path opacity="0.85" d="M153.072 227.283C153.581 215.44 126.964 204.678 93.6212 203.246C60.2784 201.813 32.8363 210.253 32.3275 222.096C31.8187 233.939 58.4359 244.701 91.7787 246.133C125.121 247.566 152.564 239.126 153.072 227.283Z" fill="#030611"/>
<path opacity="0.89" d="M152.017 227.238C152.517 215.602 126.366 205.028 93.6064 203.621C60.8473 202.214 33.8855 210.505 33.3856 222.141C32.8857 233.777 59.037 244.351 91.7962 245.758C124.555 247.166 151.517 238.874 152.017 227.238Z" fill="#030611"/>
<path opacity="0.93" d="M150.96 227.192C151.451 215.764 125.765 205.378 93.5897 203.996C61.4142 202.614 34.9328 210.758 34.4418 222.187C33.9508 233.615 59.6361 244.001 91.8117 245.383C123.987 246.765 150.469 238.621 150.96 227.192Z" fill="#030611"/>
<path opacity="0.96" d="M149.9 227.147C150.382 215.926 125.164 205.73 93.5728 204.373C61.982 203.016 35.9818 211.012 35.4998 222.232C35.0177 233.453 60.2364 243.649 91.8272 245.006C123.418 246.363 149.418 238.367 149.9 227.147Z" fill="#030611"/>
<path d="M148.843 227.102C149.316 216.088 124.563 206.08 93.5562 204.748C62.5489 203.416 37.0291 211.264 36.5559 222.278C36.0828 233.291 60.8355 243.299 91.8427 244.631C122.85 245.963 148.37 238.115 148.843 227.102Z" fill="#030611"/>
</g>
<path d="M390.209 62.4522L383.494 94.5006L351.402 245.469L220.039 228.008L251.268 92.3242L258.562 56.7766L390.209 62.4522Z" fill="#9FB1C9"/>
<path d="M384.064 56.4011L377.35 88.4495L345.258 239.416L213.895 221.957L245.123 86.2712L252.417 50.7236L384.064 56.4011Z" fill="url(#paint0_linear_687_4559)"/>
<path d="M384.065 56.4011L376.757 91.1806L245.898 82.5815L252.418 50.7236L384.065 56.4011Z" fill="url(#paint1_linear_687_4559)"/>
<path d="M384.065 56.4011L390.209 62.4521L383.253 95.6193L376.756 91.1806L384.065 56.4011Z" fill="url(#paint2_linear_687_4559)"/>
<path d="M351.402 245.469L345.258 239.416L213.895 221.957L220.039 228.008L351.402 245.469Z" fill="url(#paint3_linear_687_4559)"/>
<path d="M312.567 109.985L263.016 107.632C262.575 107.607 262.159 107.417 261.853 107.099C261.546 106.78 261.371 106.358 261.363 105.916C261.363 105.703 261.406 105.493 261.49 105.297C261.574 105.101 261.697 104.925 261.852 104.778C262.007 104.632 262.19 104.519 262.39 104.446C262.59 104.374 262.803 104.343 263.016 104.356L312.567 106.709C313.008 106.734 313.423 106.924 313.73 107.242C314.036 107.561 314.21 107.983 314.218 108.425C314.218 108.637 314.175 108.848 314.091 109.044C314.008 109.239 313.885 109.416 313.73 109.562C313.575 109.708 313.392 109.821 313.192 109.894C312.992 109.967 312.78 109.998 312.567 109.985Z" fill="url(#paint4_linear_687_4559)"/>
<path d="M309.848 119.911L260.342 116.707C259.899 116.674 259.484 116.477 259.179 116.154C258.873 115.831 258.7 115.406 258.691 114.962C258.691 114.75 258.734 114.541 258.818 114.347C258.903 114.154 259.026 113.98 259.182 113.836C259.337 113.693 259.52 113.583 259.72 113.515C259.919 113.446 260.131 113.419 260.342 113.437L309.848 116.641C310.291 116.674 310.705 116.872 311.01 117.194C311.316 117.517 311.489 117.942 311.498 118.386C311.499 118.598 311.456 118.807 311.371 119C311.287 119.194 311.163 119.368 311.008 119.511C310.853 119.655 310.67 119.764 310.47 119.833C310.27 119.902 310.058 119.928 309.848 119.911Z" fill="url(#paint5_linear_687_4559)"/>
<path d="M350.396 104.077L327.515 103.218C327.179 103.204 326.85 103.306 326.581 103.508C326.313 103.709 326.123 103.997 326.043 104.323L321.357 123.277C321.305 123.494 321.301 123.72 321.345 123.938C321.39 124.157 321.482 124.363 321.615 124.542C321.748 124.722 321.919 124.87 322.115 124.976C322.312 125.082 322.529 125.143 322.752 125.156L345.511 126.507C345.852 126.529 346.189 126.43 346.464 126.228C346.739 126.027 346.935 125.735 347.017 125.404L351.823 105.964C351.877 105.744 351.882 105.515 351.836 105.293C351.79 105.071 351.695 104.862 351.559 104.681C351.422 104.5 351.246 104.353 351.045 104.248C350.844 104.144 350.622 104.085 350.396 104.077Z" fill="url(#paint6_linear_687_4559)"/>
<path d="M323.699 122.995L328.039 105.442L349.476 106.246L345.024 124.26L323.699 122.995Z" fill="url(#paint7_linear_687_4559)"/>
<path d="M305.814 138.136L256.143 134.062C255.697 134.02 255.282 133.815 254.977 133.488C254.672 133.161 254.497 132.733 254.486 132.286C254.485 132.074 254.528 131.865 254.612 131.672C254.697 131.479 254.822 131.305 254.978 131.164C255.134 131.022 255.319 130.915 255.52 130.849C255.72 130.784 255.933 130.761 256.143 130.784L305.814 134.858C306.26 134.9 306.674 135.103 306.98 135.431C307.285 135.758 307.46 136.185 307.47 136.633C307.472 136.844 307.429 137.053 307.344 137.246C307.26 137.44 307.135 137.613 306.979 137.755C306.822 137.897 306.638 138.004 306.437 138.07C306.237 138.136 306.024 138.158 305.814 138.136Z" fill="url(#paint8_linear_687_4559)"/>
<path d="M303.087 147.972L253.459 143.048C253.013 142.997 252.599 142.786 252.296 142.455C251.992 142.124 251.817 141.694 251.805 141.245C251.802 141.035 251.845 140.827 251.93 140.635C252.014 140.442 252.139 140.271 252.296 140.131C252.453 139.991 252.638 139.886 252.838 139.824C253.039 139.762 253.251 139.743 253.459 139.77L303.087 144.694C303.534 144.745 303.947 144.955 304.251 145.286C304.555 145.618 304.729 146.048 304.741 146.497C304.744 146.707 304.701 146.915 304.616 147.108C304.532 147.3 304.407 147.472 304.25 147.611C304.093 147.751 303.908 147.856 303.707 147.918C303.507 147.98 303.295 147.999 303.087 147.972Z" fill="url(#paint9_linear_687_4559)"/>
<path d="M343.798 133.444L320.825 131.788C320.482 131.762 320.141 131.857 319.862 132.058C319.583 132.259 319.384 132.552 319.3 132.886L314.604 151.672C314.552 151.884 314.547 152.105 314.588 152.32C314.629 152.534 314.715 152.738 314.842 152.916C314.969 153.094 315.132 153.243 315.321 153.353C315.51 153.462 315.721 153.53 315.938 153.551L338.787 155.695C339.135 155.73 339.483 155.639 339.769 155.438C340.054 155.237 340.258 154.94 340.342 154.601L345.172 135.333C345.225 135.117 345.231 134.892 345.188 134.673C345.146 134.455 345.056 134.248 344.925 134.068C344.794 133.888 344.625 133.739 344.43 133.631C344.236 133.524 344.02 133.46 343.798 133.444Z" fill="url(#paint10_linear_687_4559)"/>
<path d="M316.947 151.426L321.294 134.033L342.832 135.588L338.369 153.436L316.947 151.426Z" fill="url(#paint11_linear_687_4559)"/>
<path d="M299.963 166.907L251.595 161.363C251.154 161.299 250.749 161.081 250.454 160.747C250.159 160.413 249.992 159.985 249.983 159.539C249.977 159.332 250.016 159.127 250.097 158.937C250.178 158.747 250.299 158.577 250.453 158.438C250.606 158.3 250.788 158.197 250.985 158.136C251.182 158.075 251.391 158.057 251.595 158.085L299.963 163.629C300.404 163.691 300.808 163.908 301.103 164.241C301.398 164.574 301.566 165 301.576 165.445C301.583 165.652 301.545 165.858 301.464 166.049C301.383 166.24 301.262 166.411 301.109 166.55C300.955 166.689 300.773 166.793 300.575 166.855C300.378 166.916 300.169 166.934 299.963 166.907Z" fill="url(#paint12_linear_687_4559)"/>
<path d="M297.308 176.663L248.984 170.269C248.541 170.197 248.137 169.973 247.843 169.634C247.548 169.296 247.382 168.865 247.372 168.416C247.365 168.211 247.404 168.006 247.485 167.818C247.567 167.629 247.689 167.46 247.843 167.324C247.997 167.188 248.179 167.088 248.376 167.03C248.573 166.972 248.781 166.959 248.984 166.991L297.308 173.385C297.751 173.457 298.154 173.681 298.448 174.02C298.743 174.358 298.909 174.789 298.919 175.237C298.925 175.442 298.887 175.647 298.805 175.835C298.724 176.024 298.602 176.192 298.449 176.328C298.295 176.464 298.113 176.565 297.916 176.623C297.719 176.681 297.511 176.694 297.308 176.663Z" fill="url(#paint13_linear_687_4559)"/>
<path d="M337.048 163.253L314.736 160.924C314.385 160.885 314.032 160.976 313.742 161.178C313.453 161.38 313.247 161.681 313.162 162.024L308.588 180.665C308.539 180.873 308.534 181.09 308.573 181.3C308.613 181.511 308.697 181.711 308.819 181.887C308.941 182.063 309.099 182.211 309.282 182.322C309.465 182.433 309.67 182.504 309.882 182.531L332.078 185.346C332.433 185.393 332.794 185.307 333.09 185.105C333.386 184.903 333.597 184.598 333.682 184.25L338.373 165.125C338.423 164.914 338.428 164.694 338.387 164.481C338.346 164.268 338.26 164.066 338.134 163.889C338.009 163.712 337.847 163.563 337.66 163.454C337.473 163.344 337.264 163.276 337.048 163.253Z" fill="url(#paint14_linear_687_4559)"/>
<path d="M310.92 180.436L315.151 163.185L336.041 165.369L331.699 183.072L310.92 180.436Z" fill="url(#paint15_linear_687_4559)"/>
<path d="M293.461 195.91L245.093 190.366C244.652 190.303 244.247 190.085 243.952 189.751C243.656 189.416 243.489 188.988 243.481 188.542C243.475 188.335 243.514 188.13 243.595 187.94C243.676 187.751 243.798 187.581 243.951 187.442C244.105 187.304 244.286 187.201 244.483 187.139C244.681 187.078 244.889 187.061 245.093 187.088L293.461 192.632C293.903 192.695 294.307 192.913 294.603 193.247C294.898 193.581 295.065 194.01 295.074 194.456C295.08 194.662 295.041 194.867 294.96 195.057C294.879 195.247 294.758 195.418 294.604 195.556C294.451 195.694 294.269 195.798 294.072 195.859C293.874 195.92 293.666 195.937 293.461 195.91Z" fill="url(#paint16_linear_687_4559)"/>
<path d="M290.807 205.658L242.482 199.266C242.04 199.194 241.636 198.969 241.342 198.631C241.048 198.292 240.882 197.862 240.872 197.413C240.865 197.208 240.903 197.004 240.985 196.815C241.066 196.626 241.188 196.458 241.341 196.321C241.495 196.185 241.677 196.085 241.875 196.027C242.072 195.969 242.279 195.956 242.482 195.988L290.807 202.38C291.249 202.452 291.652 202.677 291.947 203.015C292.241 203.353 292.407 203.784 292.417 204.232C292.424 204.438 292.385 204.642 292.304 204.831C292.223 205.02 292.101 205.188 291.947 205.324C291.794 205.461 291.611 205.561 291.414 205.619C291.217 205.676 291.01 205.69 290.807 205.658Z" fill="url(#paint17_linear_687_4559)"/>
<path d="M330.545 192.258L308.233 189.927C307.882 189.888 307.529 189.979 307.24 190.181C306.95 190.383 306.745 190.684 306.661 191.027L302.087 209.668C302.037 209.877 302.032 210.093 302.071 210.304C302.111 210.515 302.195 210.715 302.317 210.892C302.439 211.068 302.597 211.216 302.781 211.327C302.965 211.438 303.17 211.509 303.383 211.536L325.576 214.349C325.932 214.396 326.293 214.311 326.59 214.109C326.886 213.906 327.097 213.602 327.183 213.253L331.879 194.128C331.929 193.916 331.933 193.696 331.892 193.483C331.85 193.269 331.763 193.067 331.636 192.89C331.51 192.713 331.347 192.565 331.159 192.456C330.971 192.347 330.761 192.279 330.545 192.258Z" fill="url(#paint18_linear_687_4559)"/>
<path d="M304.42 209.439L308.649 192.188L329.539 194.372L325.201 212.075L304.42 209.439Z" fill="url(#paint19_linear_687_4559)"/>
<g opacity="0.15">
<path opacity="0.04" d="M272.643 194.045C273.658 169.52 250.098 148.63 220.021 147.385C189.943 146.14 164.738 165.012 163.723 189.537C162.708 214.062 186.267 234.952 216.345 236.197C246.422 237.442 271.628 218.57 272.643 194.045Z" fill="#030611"/>
<path opacity="0.07" d="M271.956 194.017C272.958 169.801 249.696 149.174 219.998 147.945C190.3 146.716 165.413 165.35 164.41 189.566C163.408 213.781 186.671 234.408 216.368 235.637C246.066 236.866 270.954 218.232 271.956 194.017Z" fill="#030611"/>
<path opacity="0.11" d="M271.267 193.988C272.256 170.083 249.292 149.72 219.975 148.507C190.658 147.293 166.089 165.689 165.1 189.594C164.111 213.499 187.075 233.862 216.392 235.076C245.709 236.289 270.277 217.894 271.267 193.988Z" fill="#030611"/>
<path opacity="0.15" d="M270.578 193.96C271.554 170.365 248.887 150.266 219.95 149.069C191.012 147.871 166.762 166.028 165.786 189.623C164.809 213.218 187.476 233.316 216.414 234.514C245.351 235.711 269.601 217.555 270.578 193.96Z" fill="#030611"/>
<path opacity="0.19" d="M269.889 193.931C270.852 170.646 248.484 150.812 219.927 149.63C191.37 148.448 167.439 166.366 166.475 189.651C165.512 212.936 187.88 232.77 216.437 233.952C244.994 235.134 268.925 217.216 269.889 193.931Z" fill="#030611"/>
<path opacity="0.22" d="M269.2 193.903C270.151 170.928 248.08 151.358 219.904 150.192C191.728 149.026 168.116 166.705 167.165 189.68C166.214 212.654 188.285 232.224 216.461 233.39C244.637 234.556 268.249 216.877 269.2 193.903Z" fill="#030611"/>
<path opacity="0.26" d="M268.513 193.874C269.451 171.21 247.678 151.904 219.881 150.754C192.085 149.603 168.791 167.044 167.853 189.708C166.915 212.373 188.688 231.678 216.484 232.829C244.281 233.979 267.574 216.539 268.513 193.874Z" fill="#030611"/>
<path opacity="0.3" d="M267.741 193.203C268.635 170.829 247.117 151.801 219.678 150.704C192.239 149.606 169.269 166.854 168.374 189.229C167.479 211.603 188.998 230.631 216.437 231.728C243.876 232.826 266.846 215.578 267.741 193.203Z" fill="#030611"/>
<path opacity="0.33" d="M267.136 193.819C268.049 171.774 246.871 152.996 219.835 151.877C192.799 150.758 170.143 167.722 169.23 189.767C168.318 211.812 189.495 230.59 216.531 231.709C243.567 232.828 266.224 215.864 267.136 193.819Z" fill="#030611"/>
<path opacity="0.37" d="M266.446 193.789C267.345 172.054 246.466 153.54 219.81 152.437C193.155 151.334 170.817 168.059 169.918 189.794C169.018 211.528 189.898 230.042 216.553 231.145C243.208 232.248 265.546 215.523 266.446 193.789Z" fill="#030611"/>
<path opacity="0.41" d="M265.757 193.76C266.643 172.336 246.062 154.086 219.788 152.999C193.513 151.911 171.494 168.398 170.607 189.822C169.721 211.247 190.302 229.496 216.576 230.584C242.851 231.671 264.87 215.185 265.757 193.76Z" fill="#030611"/>
<path opacity="0.44" d="M265.069 193.732C265.943 172.618 245.66 154.632 219.765 153.561C193.87 152.489 172.169 168.737 171.295 189.851C170.421 210.965 190.705 228.95 216.6 230.022C242.495 231.094 264.196 214.846 265.069 193.732Z" fill="#030611"/>
<path opacity="0.48" d="M264.38 193.703C265.241 172.899 245.256 155.178 219.742 154.122C194.227 153.066 172.846 169.075 171.985 189.879C171.124 210.683 191.109 228.404 216.624 229.46C242.138 230.516 263.519 214.507 264.38 193.703Z" fill="#030611"/>
<path opacity="0.52" d="M263.693 193.675C264.542 173.18 244.853 155.722 219.719 154.682C194.584 153.642 173.521 169.413 172.673 189.908C171.824 210.402 191.512 227.86 216.647 228.9C241.782 229.94 262.845 214.169 263.693 193.675Z" fill="#030611"/>
<path opacity="0.56" d="M263.002 193.646C263.838 173.462 244.448 156.268 219.694 155.244C194.94 154.219 174.196 169.752 173.36 189.936C172.525 210.121 191.915 227.314 216.669 228.338C241.423 229.363 262.167 213.831 263.002 193.646Z" fill="#030611"/>
<path opacity="0.59" d="M262.229 192.983C263.024 173.092 243.893 156.176 219.498 155.2C195.103 154.224 174.682 169.558 173.886 189.449C173.09 209.341 192.222 226.257 216.617 227.232C241.012 228.208 261.433 212.874 262.229 192.983Z" fill="#030611"/>
<path opacity="0.63" d="M261.626 193.589C262.436 174.025 243.642 157.36 219.648 156.367C195.654 155.374 175.547 170.429 174.738 189.993C173.928 209.557 192.722 226.222 216.716 227.215C240.709 228.208 260.817 213.153 261.626 193.589Z" fill="#030611"/>
<path opacity="0.67" d="M260.937 193.561C261.734 174.307 243.238 157.906 219.625 156.929C196.012 155.952 176.224 170.768 175.427 190.022C174.63 209.276 193.126 225.676 216.739 226.653C240.352 227.631 260.14 212.815 260.937 193.561Z" fill="#030611"/>
<path opacity="0.7" d="M260.25 193.532C261.034 174.589 242.835 158.452 219.602 157.491C196.369 156.529 176.899 171.107 176.115 190.05C175.331 208.994 193.53 225.13 216.763 226.092C239.996 227.053 259.466 212.476 260.25 193.532Z" fill="#030611"/>
<path opacity="0.74" d="M259.561 193.504C260.332 174.869 242.432 158.996 219.579 158.051C196.727 157.105 177.576 171.444 176.805 190.079C176.033 208.713 193.934 224.586 216.786 225.532C239.639 226.477 258.79 212.138 259.561 193.504Z" fill="#030611"/>
<path opacity="0.78" d="M258.874 193.477C259.632 175.153 242.029 159.544 219.556 158.614C197.083 157.684 178.251 171.785 177.492 190.109C176.734 208.433 194.337 224.042 216.81 224.972C239.283 225.902 258.116 211.801 258.874 193.477Z" fill="#030611"/>
<path opacity="0.81" d="M258.183 193.447C258.929 175.433 241.624 160.089 219.532 159.174C197.439 158.26 178.926 172.122 178.18 190.136C177.434 208.15 194.739 223.494 216.832 224.408C238.924 225.323 257.438 211.461 258.183 193.447Z" fill="#030611"/>
<path opacity="0.85" d="M257.494 193.418C258.227 175.715 241.22 160.635 219.509 159.736C197.797 158.837 179.602 172.461 178.87 190.164C178.137 207.868 195.144 222.948 216.855 223.847C238.567 224.745 256.761 211.122 257.494 193.418Z" fill="#030611"/>
<path opacity="0.89" d="M256.807 193.39C257.527 175.996 240.817 161.181 219.486 160.298C198.154 159.415 180.277 172.799 179.557 190.193C178.837 207.586 195.547 222.402 216.879 223.285C238.211 224.168 256.087 210.783 256.807 193.39Z" fill="#030611"/>
<path opacity="0.93" d="M256.118 193.361C256.825 176.278 240.414 161.727 219.463 160.859C198.512 159.992 180.954 173.138 180.247 190.221C179.54 207.304 195.951 221.856 216.902 222.723C237.853 223.59 255.411 210.444 256.118 193.361Z" fill="#030611"/>
<path opacity="0.96" d="M255.431 193.335C256.125 176.561 240.011 162.272 219.44 161.421C198.868 160.57 181.629 173.477 180.935 190.251C180.241 207.025 196.354 221.314 216.926 222.165C237.497 223.016 254.737 210.109 255.431 193.335Z" fill="#030611"/>
<path d="M254.647 192.68C255.306 176.202 239.458 162.189 219.25 161.38C199.042 160.572 182.126 173.275 181.467 189.753C180.808 206.23 196.655 220.244 216.863 221.052C237.072 221.86 253.988 209.158 254.647 192.68Z" fill="#030611"/>
</g>
<path d="M189.025 130.887L249.406 136.446C249.876 136.472 250.334 136.602 250.748 136.828C251.161 137.053 251.519 137.368 251.795 137.75C252.072 138.131 252.259 138.57 252.345 139.033C252.43 139.496 252.411 139.972 252.289 140.427L235.327 203.674C235.025 204.799 234.335 205.78 233.38 206.445C232.424 207.111 231.265 207.417 230.105 207.31L167.024 199.86C166.46 199.809 165.914 199.633 165.426 199.344C164.938 199.056 164.52 198.663 164.203 198.193C163.885 197.723 163.676 197.189 163.591 196.629C163.505 196.068 163.545 195.496 163.708 194.953L181.588 136.124C182.061 134.543 183.051 133.168 184.4 132.218C185.749 131.268 187.378 130.799 189.025 130.887Z" fill="url(#paint20_linear_687_4559)"/>
<path d="M185.893 127.153L246.272 132.712C246.742 132.738 247.201 132.868 247.615 133.094C248.028 133.319 248.387 133.634 248.663 134.016C248.94 134.397 249.127 134.836 249.213 135.299C249.298 135.762 249.279 136.239 249.157 136.694L232.205 199.941C231.903 201.065 231.213 202.047 230.258 202.712C229.302 203.377 228.142 203.684 226.983 203.577L163.883 196.129C163.318 196.077 162.773 195.9 162.285 195.611C161.797 195.323 161.38 194.929 161.062 194.459C160.745 193.99 160.536 193.455 160.45 192.895C160.365 192.335 160.404 191.763 160.567 191.219L178.449 132.39C178.921 130.808 179.913 129.431 181.263 128.481C182.614 127.531 184.245 127.063 185.893 127.153Z" fill="url(#paint21_linear_687_4559)"/>
<g opacity="0.6">
<path d="M214.172 148.43L189.633 145.886C189.407 145.871 189.188 145.806 188.992 145.694C188.795 145.582 188.627 145.427 188.5 145.241C188.372 145.055 188.289 144.841 188.256 144.618C188.223 144.394 188.242 144.166 188.31 143.951C188.459 143.471 188.766 143.055 189.181 142.771C189.597 142.487 190.096 142.352 190.597 142.388L215.137 144.933C215.362 144.947 215.581 145.013 215.778 145.125C215.974 145.237 216.142 145.392 216.27 145.578C216.397 145.765 216.481 145.978 216.514 146.202C216.546 146.425 216.528 146.654 216.459 146.869C216.31 147.349 216.003 147.764 215.587 148.047C215.172 148.331 214.674 148.465 214.172 148.43Z" fill="white"/>
<path d="M230.314 159.051L187.227 154.582C187.001 154.567 186.782 154.502 186.585 154.39C186.389 154.278 186.221 154.123 186.093 153.936C185.966 153.749 185.883 153.536 185.85 153.313C185.817 153.089 185.835 152.861 185.904 152.646C186.053 152.166 186.36 151.75 186.776 151.467C187.191 151.183 187.69 151.049 188.191 151.085L231.28 155.55C231.505 155.565 231.725 155.63 231.921 155.742C232.117 155.854 232.286 156.009 232.413 156.196C232.541 156.382 232.624 156.596 232.657 156.819C232.689 157.043 232.671 157.271 232.602 157.486C232.454 157.968 232.147 158.384 231.731 158.669C231.316 158.953 230.816 159.088 230.314 159.051Z" fill="white"/>
<path d="M227.909 167.751L184.82 163.284C184.595 163.27 184.375 163.204 184.178 163.092C183.982 162.981 183.813 162.825 183.686 162.639C183.558 162.452 183.475 162.239 183.442 162.015C183.409 161.791 183.427 161.563 183.496 161.348C183.645 160.868 183.952 160.453 184.368 160.169C184.783 159.886 185.281 159.751 185.783 159.787L228.872 164.254C229.098 164.267 229.318 164.331 229.516 164.443C229.713 164.554 229.883 164.708 230.012 164.895C230.14 165.082 230.225 165.295 230.258 165.519C230.292 165.743 230.274 165.972 230.206 166.188C230.056 166.67 229.748 167.087 229.33 167.371C228.913 167.655 228.412 167.789 227.909 167.751Z" fill="white"/>
<path d="M225.501 176.449L182.412 171.982C182.187 171.968 181.967 171.902 181.771 171.791C181.575 171.679 181.406 171.524 181.279 171.338C181.151 171.151 181.068 170.938 181.035 170.714C181.002 170.491 181.021 170.263 181.09 170.048C181.238 169.567 181.546 169.152 181.961 168.868C182.376 168.585 182.875 168.45 183.377 168.487L226.465 172.952C226.691 172.967 226.91 173.032 227.107 173.144C227.303 173.256 227.471 173.411 227.599 173.598C227.726 173.785 227.809 173.998 227.842 174.221C227.875 174.445 227.857 174.673 227.788 174.888C227.639 175.368 227.331 175.784 226.916 176.067C226.501 176.35 226.002 176.485 225.501 176.449Z" fill="white"/>
<path d="M223.095 185.148L180.006 180.692C179.78 180.677 179.561 180.612 179.365 180.5C179.168 180.388 179 180.233 178.873 180.046C178.745 179.859 178.662 179.646 178.629 179.423C178.596 179.199 178.615 178.971 178.683 178.755C178.833 178.276 179.14 177.86 179.555 177.577C179.97 177.294 180.469 177.159 180.97 177.195L224.063 181.645C224.288 181.659 224.508 181.724 224.704 181.836C224.9 181.948 225.069 182.103 225.196 182.289C225.324 182.476 225.407 182.689 225.44 182.912C225.473 183.136 225.454 183.364 225.386 183.579C225.238 184.061 224.931 184.479 224.515 184.764C224.098 185.049 223.598 185.184 223.095 185.148Z" fill="white"/>
</g>
<g opacity="0.15">
<path opacity="0.04" d="M207.672 93.8395C208.687 69.3148 185.127 48.4244 155.05 47.1795C124.972 45.9347 99.767 64.8068 98.7519 89.3315C97.7369 113.856 121.297 134.747 151.374 135.991C181.452 137.236 206.657 118.364 207.672 93.8395Z" fill="#030611"/>
<path opacity="0.07" d="M206.906 93.3542C207.876 69.118 184.566 48.5068 154.843 47.3179C125.12 46.1289 100.238 64.8125 99.269 89.0487C98.2996 113.285 121.609 133.896 151.332 135.085C181.056 136.274 205.937 117.59 206.906 93.3542Z" fill="#030611"/>
<path opacity="0.11" d="M206.296 93.7825C207.285 69.8772 184.321 49.5145 155.004 48.3011C125.687 47.0878 101.119 65.4832 100.129 89.3885C99.1399 113.294 122.104 133.656 151.421 134.87C180.738 136.083 205.307 117.688 206.296 93.7825Z" fill="#030611"/>
<path opacity="0.15" d="M205.607 93.754C206.584 70.159 183.917 50.0605 154.979 48.8628C126.042 47.6652 101.792 65.8218 100.815 89.4169C99.8385 113.012 122.505 133.11 151.443 134.308C180.38 135.506 204.63 117.349 205.607 93.754Z" fill="#030611"/>
<path opacity="0.19" d="M204.918 93.7255C205.882 70.4407 183.513 50.6065 154.956 49.4246C126.4 48.2427 102.468 66.1607 101.505 89.4455C100.541 112.73 122.91 132.564 151.466 133.746C180.023 134.928 203.954 117.01 204.918 93.7255Z" fill="#030611"/>
<path opacity="0.22" d="M204.229 93.697C205.18 70.7224 183.109 51.1525 154.933 49.9863C126.757 48.8202 103.145 66.4994 102.194 89.474C101.243 112.449 123.314 132.018 151.49 133.185C179.666 134.351 203.278 116.672 204.229 93.697Z" fill="#030611"/>
<path opacity="0.26" d="M203.461 93.2165C204.369 70.5327 182.551 51.2418 154.731 50.129C126.911 49.0162 103.623 66.5029 102.715 89.1866C101.808 111.87 123.625 131.161 151.445 132.274C179.265 133.387 202.554 115.9 203.461 93.2165Z" fill="#030611"/>
<path opacity="0.3" d="M202.772 93.1889C203.667 70.8146 182.148 51.7869 154.709 50.6893C127.27 49.5918 104.301 66.8399 103.406 89.2142C102.511 111.589 124.029 130.616 151.468 131.714C178.907 132.811 201.877 115.563 202.772 93.1889Z" fill="#030611"/>
<path opacity="0.33" d="M202.166 93.6115C203.078 71.5666 181.901 52.7886 154.865 51.6696C127.829 50.5506 105.172 67.5145 104.259 89.5594C103.347 111.604 124.524 130.382 151.561 131.501C178.597 132.62 201.253 115.656 202.166 93.6115Z" fill="#030611"/>
<path opacity="0.37" d="M201.475 93.583C202.374 71.8483 181.495 53.3346 154.84 52.2314C128.184 51.1282 105.847 67.8533 104.947 89.5879C104.048 111.323 124.927 129.836 151.582 130.94C178.238 132.043 200.575 115.318 201.475 93.583Z" fill="#030611"/>
<path opacity="0.41" d="M200.786 93.5545C201.673 72.1301 181.092 53.8806 154.817 52.7931C128.542 51.7057 106.523 68.1921 105.637 89.6165C104.75 111.041 125.331 129.29 151.606 130.378C177.88 131.465 199.899 114.979 200.786 93.5545Z" fill="#030611"/>
<path opacity="0.44" d="M200.099 93.526C200.973 72.4118 180.689 54.4266 154.794 53.3548C128.899 52.2831 107.198 68.5307 106.324 89.6449C105.451 110.759 125.734 128.744 151.629 129.816C177.524 130.888 199.225 114.64 200.099 93.526Z" fill="#030611"/>
<path opacity="0.48" d="M199.41 93.4975C200.271 72.6935 180.285 54.9725 154.771 53.9166C129.257 52.8606 107.875 68.8695 107.014 89.6734C106.153 110.477 126.139 128.198 151.653 129.254C177.167 130.31 198.549 114.301 199.41 93.4975Z" fill="#030611"/>
<path opacity="0.52" d="M198.723 93.4692C199.571 72.9744 179.883 55.5168 154.748 54.4765C129.613 53.4363 108.55 69.2072 107.702 89.702C106.854 110.197 126.542 127.654 151.676 128.695C176.811 129.735 197.874 113.964 198.723 93.4692Z" fill="#030611"/>
<path opacity="0.56" d="M198.032 93.4405C198.867 73.256 179.477 56.0627 154.723 55.0382C129.969 54.0136 109.225 69.5459 108.39 89.7304C107.554 109.915 126.944 127.108 151.698 128.133C176.452 129.157 197.196 113.625 198.032 93.4405Z" fill="#030611"/>
<path opacity="0.59" d="M197.346 93.412C198.169 73.5377 179.077 56.6086 154.702 55.5998C130.328 54.591 109.902 69.8845 109.079 89.7588C108.257 109.633 127.349 126.562 151.723 127.571C176.098 128.58 196.524 113.286 197.346 93.412Z" fill="#030611"/>
<path opacity="0.63" d="M196.656 93.3836C197.465 73.8196 178.671 57.1548 154.677 56.1618C130.684 55.1687 110.577 70.2235 109.767 89.7875C108.957 109.352 127.751 126.016 151.745 127.009C175.739 128.002 195.846 112.948 196.656 93.3836Z" fill="#030611"/>
<path opacity="0.67" d="M195.879 92.9131C196.65 73.6428 178.116 57.2548 154.483 56.3095C130.85 55.3642 111.067 70.2195 110.296 89.4898C109.525 108.76 128.059 125.148 151.692 126.093C175.325 127.039 195.108 112.183 195.879 92.9131Z" fill="#030611"/>
<path opacity="0.7" d="M195.279 93.3266C196.063 74.3831 177.865 58.2468 154.631 57.2852C131.398 56.3236 111.928 70.9009 111.144 89.8444C110.36 108.788 128.559 124.924 151.792 125.886C175.025 126.847 194.495 112.27 195.279 93.3266Z" fill="#030611"/>
<path opacity="0.74" d="M194.59 93.2981C195.362 74.6638 177.461 58.7909 154.609 57.8451C131.756 56.8992 112.605 71.2387 111.834 89.873C111.063 108.507 128.963 124.38 151.816 125.326C174.668 126.272 193.819 111.933 194.59 93.2981Z" fill="#030611"/>
<path opacity="0.78" d="M193.903 93.2696C194.662 74.9455 177.059 59.3369 154.586 58.4068C132.113 57.4766 113.28 71.5773 112.522 89.9014C111.763 108.226 129.366 123.834 151.839 124.764C174.312 125.694 193.145 111.594 193.903 93.2696Z" fill="#030611"/>
<path opacity="0.81" d="M193.123 92.8029C193.845 74.7736 176.505 59.441 154.393 58.5565C132.282 57.6721 113.773 71.5707 113.052 89.6001C112.331 107.629 129.671 122.962 151.782 123.846C173.893 124.731 192.402 110.832 193.123 92.8029Z" fill="#030611"/>
<path opacity="0.85" d="M192.523 93.2126C193.256 75.509 176.249 60.4289 154.538 59.5303C132.826 58.6317 114.632 72.2549 113.899 89.9585C113.166 107.662 130.173 122.742 151.884 123.641C173.596 124.539 191.791 110.916 192.523 93.2126Z" fill="#030611"/>
<path opacity="0.89" d="M191.836 93.1841C192.556 75.7907 175.847 60.9749 154.515 60.092C133.183 59.2091 115.307 72.5935 114.587 89.9869C113.867 107.38 130.576 122.196 151.908 123.079C173.24 123.962 191.116 110.578 191.836 93.1841Z" fill="#030611"/>
<path opacity="0.93" d="M191.147 93.1556C191.854 76.0724 175.443 61.5208 154.492 60.6537C133.541 59.7866 115.983 72.9323 115.276 90.0155C114.569 107.099 130.98 121.65 151.932 122.517C172.883 123.384 190.44 110.239 191.147 93.1556Z" fill="#030611"/>
<path opacity="0.96" d="M190.46 93.1272C191.154 76.3532 175.041 62.065 154.469 61.2135C133.898 60.3621 116.658 73.2699 115.964 90.0439C115.27 106.818 131.384 121.106 151.955 121.958C172.527 122.809 189.766 109.901 190.46 93.1272Z" fill="#030611"/>
<path d="M189.771 93.0986C190.453 76.6349 174.637 62.611 154.446 61.7753C134.255 60.9396 117.335 73.6087 116.654 90.0724C115.972 106.536 131.788 120.56 151.979 121.396C172.169 122.231 189.09 109.562 189.771 93.0986Z" fill="#030611"/>
</g>
<path d="M133.951 38.0042L195.28 40.5713C195.749 40.5665 196.213 40.6711 196.634 40.8768C197.055 41.0825 197.423 41.3837 197.707 41.7563C197.992 42.1289 198.186 42.5628 198.273 43.0234C198.361 43.484 198.34 43.9586 198.212 44.4096L180.987 108.497C180.669 109.648 179.973 110.658 179.01 111.365C178.048 112.071 176.876 112.433 175.683 112.392L111.592 108.068C111.027 108.052 110.473 107.906 109.975 107.639C109.476 107.373 109.047 106.994 108.72 106.533C108.393 106.072 108.178 105.541 108.092 104.983C108.005 104.424 108.05 103.853 108.222 103.315L126.387 43.6016C126.884 41.9828 127.887 40.5659 129.248 39.5585C130.609 38.5512 132.257 38.0065 133.951 38.0042Z" fill="url(#paint22_linear_687_4559)"/>
<path d="M130.768 34.4249L192.099 36.9921C192.569 36.9858 193.033 37.0893 193.456 37.2944C193.878 37.4994 194.247 37.8004 194.533 38.1732C194.818 38.546 195.013 38.9804 195.101 39.4417C195.189 39.9031 195.168 40.3786 195.04 40.8304L177.815 104.918C177.497 106.069 176.801 107.079 175.839 107.785C174.876 108.492 173.704 108.854 172.511 108.813L108.41 104.489C107.846 104.473 107.293 104.327 106.795 104.061C106.298 103.795 105.868 103.417 105.542 102.957C105.215 102.497 104.999 101.967 104.913 101.409C104.826 100.851 104.87 100.281 105.041 99.7434L123.203 40.03C123.699 38.4098 124.701 36.9912 126.063 35.9824C127.424 34.9736 129.073 34.4277 130.768 34.4249Z" fill="url(#paint23_linear_687_4559)"/>
<g opacity="0.6">
<path d="M159.491 54.3009L134.565 52.9668C134.341 52.9656 134.12 52.9112 133.921 52.808C133.722 52.7048 133.55 52.5559 133.42 52.3733C133.289 52.1907 133.204 51.9798 133.171 51.758C133.139 51.5361 133.159 51.3096 133.231 51.0972C133.387 50.6047 133.697 50.1756 134.117 49.8738C134.536 49.5719 135.041 49.4135 135.558 49.422L160.484 50.756C160.709 50.7572 160.929 50.8116 161.128 50.9148C161.328 51.018 161.499 51.167 161.63 51.3496C161.76 51.5321 161.845 51.743 161.878 51.9649C161.911 52.1867 161.89 52.4132 161.818 52.6257C161.662 53.1182 161.352 53.5473 160.933 53.8491C160.513 54.1509 160.008 54.3094 159.491 54.3009Z" fill="#9FB1C9"/>
<path d="M175.888 64.1217L132.121 61.7908C131.895 61.7911 131.674 61.7377 131.473 61.6352C131.273 61.5326 131.1 61.3839 130.968 61.2012C130.837 61.0185 130.751 60.8071 130.717 60.5845C130.683 60.362 130.703 60.1346 130.775 59.9212C130.931 59.4292 131.242 59.0005 131.66 58.6987C132.079 58.397 132.584 58.2382 133.1 58.246L176.869 60.5787C177.094 60.5799 177.314 60.6343 177.514 60.7375C177.713 60.8407 177.885 60.9897 178.015 61.1722C178.145 61.3548 178.23 61.5657 178.263 61.7876C178.296 62.0094 178.275 62.2359 178.204 62.4484C178.048 62.9388 177.739 63.3663 177.322 63.6676C176.905 63.9689 176.402 64.1281 175.888 64.1217Z" fill="#9FB1C9"/>
<path d="M173.445 72.94L129.67 70.6091C129.446 70.608 129.225 70.5536 129.026 70.4504C128.827 70.3472 128.655 70.1982 128.525 70.0156C128.395 69.8331 128.31 69.6222 128.277 69.4003C128.244 69.1785 128.264 68.952 128.336 68.7395C128.492 68.247 128.803 67.8179 129.222 67.5161C129.641 67.2143 130.147 67.0558 130.663 67.0643L174.427 69.3913C174.652 69.3913 174.874 69.4449 175.074 69.5476C175.275 69.6504 175.448 69.7994 175.579 69.9823C175.71 70.1652 175.796 70.3768 175.829 70.5994C175.863 70.8221 175.843 71.0495 175.771 71.2628C175.616 71.7557 175.306 72.1853 174.887 72.4876C174.468 72.7898 173.962 72.9485 173.445 72.94Z" fill="#9FB1C9"/>
<path d="M170.999 81.7582L127.232 79.4273C127.007 79.4276 126.785 79.3742 126.585 79.2717C126.384 79.1691 126.211 79.0204 126.08 78.8377C125.948 78.655 125.862 78.4436 125.828 78.221C125.795 77.9985 125.815 77.7711 125.886 77.5577C126.042 77.0654 126.353 76.6365 126.772 76.3347C127.192 76.0329 127.697 75.8743 128.213 75.8825L171.979 78.2133C172.203 78.2148 172.424 78.2695 172.623 78.3729C172.822 78.4763 172.994 78.6255 173.124 78.8082C173.254 78.9909 173.339 79.2019 173.372 79.4238C173.405 79.6457 173.385 79.8723 173.313 80.0849C173.158 80.575 172.849 81.0022 172.432 81.3035C172.016 81.6048 171.513 81.7642 170.999 81.7582Z" fill="#9FB1C9"/>
<path d="M168.549 90.5764L124.788 88.2456C124.563 88.2444 124.343 88.19 124.143 88.0868C123.944 87.9837 123.773 87.8346 123.642 87.6521C123.512 87.4695 123.427 87.2586 123.394 87.0368C123.361 86.8149 123.382 86.5884 123.454 86.376C123.609 85.8835 123.92 85.4544 124.339 85.1526C124.759 84.8507 125.264 84.6923 125.781 84.7008L169.548 87.0316C169.772 87.0331 169.993 87.0878 170.192 87.1912C170.391 87.2946 170.563 87.4438 170.693 87.6265C170.823 87.8091 170.908 88.0201 170.941 88.2421C170.974 88.464 170.954 88.6906 170.882 88.9031C170.726 89.3964 170.414 89.8259 169.994 90.1275C169.573 90.4291 169.067 90.5866 168.549 90.5764Z" fill="#9FB1C9"/>
</g>
<path d="M387.11 179.432L451.836 184.995C453.864 185.117 455.478 187.044 455.163 188.971L442.194 252.067C441.813 254.371 439.768 255.879 437.34 255.646L372.433 247.813C369.99 247.575 368.126 245.21 368.572 242.913L380.198 184.595C380.821 181.355 383.682 179.226 387.11 179.432Z" fill="url(#paint24_linear_687_4559)"/>
<path d="M383.561 175.7L448.285 181.263C450.315 181.385 451.927 183.312 451.615 185.239L438.643 248.335C438.262 250.639 436.219 252.147 433.789 251.914L368.884 244.082C366.441 243.845 364.575 241.478 365.021 239.182L376.647 180.854C377.27 177.623 380.131 175.495 383.561 175.7Z" fill="url(#paint25_linear_687_4559)"/>
<g opacity="0.6">
<path d="M414.269 197.034L389.337 194.339C389.106 194.323 388.88 194.258 388.675 194.15C388.47 194.042 388.289 193.892 388.145 193.71C388 193.529 387.895 193.319 387.835 193.095C387.776 192.871 387.764 192.636 387.799 192.407C387.963 191.454 388.924 190.762 389.932 190.871L414.864 193.566C415.095 193.582 415.321 193.647 415.526 193.755C415.731 193.864 415.912 194.013 416.057 194.195C416.201 194.376 416.306 194.586 416.366 194.81C416.425 195.035 416.438 195.269 416.402 195.498C416.238 196.453 415.277 197.143 414.269 197.034Z" fill="white"/>
<path d="M431.632 207.697L387.857 202.965C387.625 202.949 387.4 202.884 387.195 202.776C386.989 202.668 386.809 202.519 386.664 202.337C386.52 202.156 386.414 201.946 386.355 201.722C386.295 201.498 386.283 201.264 386.319 201.035C386.483 200.082 387.441 199.39 388.451 199.499L432.226 204.231C432.458 204.247 432.684 204.311 432.889 204.419C433.095 204.527 433.275 204.676 433.42 204.858C433.565 205.039 433.67 205.249 433.73 205.473C433.79 205.698 433.802 205.932 433.766 206.161C433.602 207.116 432.642 207.806 431.632 207.697Z" fill="white"/>
<path d="M430.153 216.331L386.386 211.593C386.154 211.576 385.929 211.512 385.723 211.403C385.518 211.295 385.337 211.145 385.193 210.964C385.048 210.782 384.942 210.573 384.883 210.348C384.823 210.124 384.81 209.89 384.846 209.66C385.01 208.707 385.97 208.016 386.98 208.124L430.755 212.856C430.987 212.873 431.213 212.937 431.418 213.045C431.623 213.154 431.804 213.303 431.949 213.485C432.093 213.667 432.199 213.876 432.258 214.101C432.317 214.325 432.329 214.56 432.293 214.789C432.126 215.742 431.173 216.434 430.153 216.331Z" fill="white"/>
<path d="M428.675 224.951L384.898 220.219C384.666 220.202 384.441 220.137 384.235 220.029C384.03 219.921 383.85 219.771 383.705 219.59C383.561 219.408 383.455 219.198 383.396 218.974C383.336 218.75 383.324 218.515 383.36 218.286C383.524 217.333 384.484 216.643 385.492 216.761L429.267 221.476C429.499 221.493 429.724 221.558 429.93 221.666C430.135 221.774 430.315 221.924 430.46 222.106C430.605 222.287 430.71 222.497 430.769 222.721C430.829 222.945 430.841 223.18 430.805 223.409C430.643 224.37 429.683 225.059 428.675 224.951Z" fill="white"/>
<path d="M427.194 233.577L383.419 228.846C383.188 228.83 382.962 228.765 382.757 228.657C382.552 228.549 382.371 228.399 382.227 228.217C382.082 228.036 381.977 227.826 381.917 227.602C381.858 227.377 381.846 227.143 381.881 226.914C382.045 225.961 383.004 225.269 384.014 225.378L427.789 230.11C428.021 230.126 428.246 230.191 428.452 230.299C428.657 230.407 428.838 230.557 428.983 230.738C429.127 230.92 429.233 231.13 429.292 231.354C429.352 231.579 429.364 231.813 429.329 232.042C429.165 232.995 428.204 233.687 427.194 233.577Z" fill="white"/>
</g>
<path d="M246.748 118.445C261.906 108.012 267.347 89.6059 258.901 77.3349C250.455 65.0638 231.319 63.5743 216.161 74.0078C201.003 84.4414 195.562 102.847 204.008 115.118C212.454 127.389 231.59 128.879 246.748 118.445Z" fill="url(#paint26_linear_687_4559)"/>
<path d="M243.76 114.01C258.918 103.577 264.359 85.1711 255.913 72.9001C247.466 60.629 228.331 59.1394 213.173 69.573C198.015 80.0065 192.574 98.4122 201.02 110.683C209.466 122.954 228.601 124.444 243.76 114.01Z" fill="url(#paint27_linear_687_4559)"/>
<path d="M208.102 85.6022L218.801 104.836L248.833 90.4487L245.265 84.1824L222.529 95.0437L214.692 81.762L208.102 85.6022Z" fill="#FEFFFF"/>
<path d="M259.852 84.7656C259.566 79.3131 257.584 74.6057 254.394 70.9484C257.426 74.5694 259.303 79.153 259.582 84.4531C260.401 100.081 247.015 115.899 229.681 119.789C218.395 122.318 208.223 119.16 202.27 112.337C208.178 119.377 218.492 122.671 229.95 120.104C247.283 116.219 260.672 100.397 259.852 84.7656Z" fill="url(#paint28_linear_687_4559)"/>
<path d="M334.514 206.784C333.401 207.066 332.269 207.267 331.127 207.387C320.792 208.469 314.413 201.562 308.246 194.884C300.866 186.893 293.235 178.631 278.345 181.688C250.617 187.354 235.872 221.438 235.727 221.781L232.037 220.762C232.651 219.315 247.127 185.961 275.751 178.748C276.395 178.586 277.043 178.437 277.703 178.302C294.928 174.764 303.668 184.229 311.379 192.578C317.434 199.134 322.663 204.797 330.927 203.931C344.268 202.534 355.079 187.011 365.546 171.999C375.704 157.427 385.3 143.665 397.936 139.981C424.438 132.255 440.55 158.195 440.71 158.456L437.202 160.265C437.057 160.027 422.788 137.239 400.108 142.956C399.727 143.053 399.34 143.158 398.946 143.273C387.799 146.524 378.172 160.32 368.878 173.665C358.695 188.273 348.192 203.337 334.514 206.784Z" fill="url(#paint29_linear_687_4559)"/>
<path d="M335.023 203.979C333.91 204.26 332.778 204.461 331.637 204.581C321.301 205.662 314.923 198.757 308.755 192.077C301.376 184.088 293.745 175.826 278.855 178.883C251.127 184.547 236.381 218.631 236.237 218.976L232.547 217.956C233.162 216.508 247.639 183.154 276.261 175.941C276.905 175.779 277.553 175.63 278.212 175.495C295.437 171.957 304.177 181.422 311.888 189.771C317.943 196.327 323.173 201.989 331.437 201.124C344.777 199.727 355.591 184.206 366.056 169.192C376.214 154.622 385.81 140.858 398.455 137.174C424.956 129.446 441.068 155.386 441.228 155.649L437.719 157.458C437.576 157.221 423.309 134.439 400.624 140.155C400.243 140.251 399.855 140.357 399.461 140.471C388.316 143.722 378.688 157.521 369.393 170.865C359.205 185.468 348.703 200.531 335.023 203.979Z" fill="url(#paint30_linear_687_4559)"/>
<path d="M437.712 157.454L437.201 160.261L440.71 158.453L441.221 155.647L437.712 157.454Z" fill="url(#paint31_linear_687_4559)"/>
<path d="M37.5583 200L43.2091 206.649L45.6962 209.573L55.0348 220.566L19.0756 248.772C17.1698 250.378 12.5767 248.17 8.22571 243.74C7.63109 243.144 7.03457 242.485 6.45519 241.795C5.63271 240.831 4.86291 239.823 4.14914 238.776C0.996898 234.087 -0.154224 229.694 1.6201 228.216L37.5583 200Z" fill="url(#paint32_linear_687_4559)"/>
<path d="M56.1093 219.69C59.649 216.502 58.4657 209.418 53.4663 203.868C48.4669 198.317 41.5446 196.402 38.0049 199.591C34.4652 202.779 35.6485 209.863 40.6479 215.413C45.6473 220.964 52.5696 222.879 56.1093 219.69Z" fill="url(#paint33_linear_687_4559)"/>
<path d="M69.6219 181.296L73.203 185.512L74.7829 187.362L80.691 194.33L51.5089 216.977C50.2987 217.995 47.3904 216.596 44.6327 213.788C44.2515 213.407 43.8703 212.994 43.5101 212.555C42.9894 211.946 42.5015 211.31 42.0484 210.649C40.0511 207.678 39.323 204.896 40.4475 203.956L69.6219 181.296Z" fill="url(#paint34_linear_687_4559)"/>
<path d="M81.3814 193.774C83.6244 191.753 82.8741 187.264 79.7055 183.746C76.537 180.228 72.15 179.014 69.907 181.035C67.664 183.055 68.4143 187.544 71.5829 191.062C74.7514 194.58 79.1384 195.794 81.3814 193.774Z" fill="url(#paint35_linear_687_4559)"/>
<path d="M72.5136 174.349L77.261 179.941L79.3574 182.407L87.2057 191.65L68.4046 206.914C66.7999 208.265 62.9406 206.407 59.2814 202.683C58.7821 202.182 58.2809 201.629 57.793 201.048C57.1025 200.237 56.4555 199.389 55.8548 198.509C53.2037 194.568 52.2337 190.875 53.7298 189.63L72.5136 174.349Z" fill="url(#paint36_linear_687_4559)"/>
<path d="M88.108 190.901C91.0838 188.221 90.0887 182.265 85.8854 177.598C81.682 172.932 75.8621 171.321 72.8862 174.002C69.9104 176.682 70.9056 182.638 75.1089 187.305C79.3123 191.971 85.1322 193.582 88.108 190.901Z" fill="url(#paint37_linear_687_4559)"/>
<path d="M192.906 100.201C182.142 83.0636 163.631 71.2818 141.42 69.8372C103.113 67.3443 68.3449 96.5188 63.7804 135.017C61.6001 153.387 66.7078 170.545 76.7953 183.747C87.5575 200.884 106.071 212.666 128.283 214.11C166.59 216.603 201.357 187.429 205.923 148.931C208.101 130.568 202.994 113.403 192.906 100.201ZM78.3162 140.631C82.1488 108.327 111.325 83.8374 143.496 85.9338C160.156 87.0182 174.336 95.0341 183.613 106.989C189.965 117.332 192.982 129.941 191.397 143.314C187.564 175.618 158.388 200.108 126.227 198.012C109.566 196.929 95.3867 188.911 86.1072 176.956C79.7474 166.613 76.7305 154.01 78.3162 140.631Z" fill="#9FB1C9"/>
<path d="M134.096 67.819C95.7889 65.3262 61.0209 94.5006 56.4564 132.998C51.892 171.496 79.2501 204.705 117.565 207.183C155.88 209.66 190.64 180.501 195.205 142.003C199.769 103.506 172.411 70.3118 134.096 67.819ZM184.063 141.291C180.231 173.594 151.054 198.084 118.884 195.988C86.7134 193.892 63.7672 166.017 67.5998 133.715C71.4324 101.413 100.609 76.9212 132.779 79.0176C164.95 81.114 187.894 108.987 184.063 141.291Z" fill="url(#paint38_linear_687_4559)"/>
<path d="M132.769 77.874C100.608 75.7776 71.4299 100.273 67.5897 132.571C67.3196 134.882 67.1853 137.207 67.1875 139.533C67.2275 137.61 67.3571 135.668 67.5897 133.709C71.4204 101.405 100.599 76.9154 132.769 79.0118C162.591 80.9519 184.489 105.074 184.463 134.328C185.069 104.561 162.978 79.8389 132.769 77.874Z" fill="url(#paint39_linear_687_4559)"/>
<path d="M195.203 140.877C190.639 179.363 155.878 208.534 117.564 206.056C81.9722 203.741 55.8509 174.905 55.9748 139.97C55.2696 175.418 81.5853 204.854 117.564 207.194C155.871 209.687 190.639 180.512 195.203 142.015C195.518 139.323 195.679 136.615 195.684 133.905C195.635 136.205 195.475 138.529 195.203 140.877Z" fill="url(#paint40_linear_687_4559)"/>
<path d="M98.751 158.794L88.2441 157.58L93.8092 138.893L104.318 140.107L98.751 158.794Z" fill="url(#paint41_linear_687_4559)"/>
<path d="M116.944 160.896L106.436 159.682L114.16 133.751L124.669 134.965L116.944 160.896Z" fill="url(#paint42_linear_687_4559)"/>
<path d="M135.138 162.998L124.629 161.784L137.537 117.399L148.046 118.615L135.138 162.998Z" fill="url(#paint43_linear_687_4559)"/>
<path d="M153.333 165.1L142.824 163.886L150.549 137.955L161.057 139.171L153.333 165.1Z" fill="url(#paint44_linear_687_4559)"/>
<path d="M118.656 270.279L255.956 295.274L332.243 260.043L194.169 241.693L118.656 270.279Z" fill="url(#paint45_linear_687_4559)"/>
<path d="M118.656 270.279L255.956 295.274V312.426L118.656 287.43V270.279Z" fill="url(#paint46_linear_687_4559)"/>
<path d="M255.957 295.274L332.244 260.043V277.195L255.957 312.426V295.274Z" fill="url(#paint47_linear_687_4559)"/>
<path d="M257.74 296.416L332.243 262.008V275.228L257.74 309.636V296.416Z" fill="url(#paint48_linear_687_4559)"/>
<path d="M257.74 300.504L332.243 266.096V267.054L257.74 301.462V300.504Z" fill="url(#paint49_linear_687_4559)"/>
<path d="M257.74 305.369L332.243 270.961V271.922L257.74 306.328V305.369Z" fill="url(#paint50_linear_687_4559)"/>
<path d="M152.291 267.765L182.685 272.452C183.455 272.571 184.244 272.463 184.955 272.141L228.167 252.562C228.406 252.452 228.602 252.267 228.727 252.036C228.851 251.804 228.898 251.538 228.859 251.278C228.819 251.019 228.697 250.778 228.51 250.594C228.323 250.409 228.081 250.29 227.821 250.254L200.279 246.595C199.544 246.498 198.797 246.597 198.112 246.883L152.09 266.176C151.924 266.247 151.785 266.37 151.695 266.527C151.604 266.684 151.568 266.866 151.591 267.046C151.613 267.226 151.694 267.393 151.82 267.523C151.946 267.653 152.112 267.738 152.291 267.765Z" stroke="#425C9E" stroke-width="0.75" stroke-miterlimit="10"/>
<path d="M253.372 263.054L218.806 280.492C218.44 280.676 218.021 280.723 217.623 280.626C217.225 280.529 216.874 280.294 216.634 279.962C216.192 279.292 216.443 278.438 217.205 278.057L251.771 260.618C252.137 260.432 252.557 260.383 252.956 260.48C253.355 260.578 253.705 260.815 253.944 261.148C254.379 261.815 254.121 262.675 253.372 263.054Z" fill="url(#paint51_linear_687_4559)"/>
<path d="M267.609 266.002L233.041 283.441C232.675 283.625 232.255 283.672 231.857 283.575C231.459 283.478 231.109 283.243 230.868 282.911C230.426 282.24 230.677 281.386 231.44 281.005L266.006 263.567C266.372 263.383 266.792 263.335 267.19 263.432C267.588 263.53 267.938 263.765 268.179 264.097C268.615 264.764 268.36 265.623 267.609 266.002Z" fill="url(#paint52_linear_687_4559)"/>
<path d="M281.843 268.951L247.275 286.391C246.909 286.575 246.489 286.622 246.091 286.524C245.693 286.427 245.343 286.191 245.102 285.859C244.66 285.188 244.912 284.335 245.674 283.953L280.231 266.511C280.597 266.328 281.016 266.281 281.414 266.378C281.812 266.475 282.162 266.71 282.403 267.041C282.849 267.712 282.594 268.571 281.843 268.951Z" fill="url(#paint53_linear_687_4559)"/>
<path d="M363.938 69.2141L323.887 67.3082C323.53 67.2881 323.194 67.1336 322.947 66.8758C322.699 66.6181 322.558 66.2762 322.553 65.9189C322.552 65.7469 322.587 65.5765 322.655 65.4184C322.722 65.2603 322.822 65.1177 322.947 64.9995C323.072 64.8813 323.22 64.7899 323.381 64.7311C323.543 64.6722 323.715 64.6471 323.887 64.6572L363.938 66.5631C364.294 66.5837 364.63 66.7383 364.877 66.996C365.125 67.2536 365.266 67.5953 365.272 67.9524C365.272 68.1244 365.237 68.2946 365.169 68.4526C365.102 68.6106 365.002 68.753 364.877 68.8712C364.752 68.9893 364.604 69.0807 364.443 69.1396C364.281 69.1986 364.109 69.2239 363.938 69.2141Z" fill="url(#paint54_linear_687_4559)"/>
<path d="M361.739 77.2414L321.717 74.6495C321.359 74.6229 321.023 74.4636 320.777 74.2027C320.53 73.9418 320.389 73.5982 320.383 73.2392C320.381 73.0679 320.416 72.8982 320.484 72.7409C320.551 72.5837 320.651 72.4423 320.777 72.3257C320.902 72.2092 321.051 72.12 321.213 72.064C321.374 72.008 321.546 71.9863 321.717 72.0004L361.739 74.5904C362.098 74.6174 362.433 74.7771 362.68 75.0383C362.926 75.2995 363.067 75.6434 363.073 76.0026C363.074 76.1738 363.04 76.3433 362.972 76.5005C362.904 76.6576 362.804 76.7989 362.679 76.9154C362.553 77.0319 362.405 77.121 362.243 77.1771C362.082 77.2332 361.91 77.2551 361.739 77.2414Z" fill="url(#paint55_linear_687_4559)"/>
<path d="M327.469 108.089L332.674 121.18L349.464 111.487L347.503 108.089L335.126 114.634L331.776 105.817L327.469 108.089Z" fill="url(#paint56_linear_687_4559)"/>
<path d="M319.197 85.324L330.771 110.74L299.9 102.494L319.197 85.324Z" fill="#9FB1C9"/>
<path d="M316.4 96.5646C316.358 96.6122 316.312 96.677 316.268 96.7247C314.885 98.4076 313.214 99.8311 311.332 100.929L310.801 101.219C310.801 101.219 310.781 101.219 310.78 101.234C306.888 103.33 302.886 103.67 299.892 102.49C299.383 102.459 298.899 102.258 298.519 101.918L297.967 101.4C297.59 101.121 297.245 100.802 296.939 100.447L231.455 39.3363L237.426 32.9632L240.052 30.1712L249.963 19.6567L316.703 81.9697C317.852 82.8149 318.722 83.9844 319.201 85.3278C320.444 88.7945 319.226 93.0655 316.4 96.5646Z" fill="url(#paint57_linear_687_4559)"/>
<path d="M249.394 34.1601C247.856 36.0717 245.952 37.6572 243.794 38.8236C243.794 38.8236 243.775 38.8236 243.773 38.837C237.248 42.3494 230.433 40.9448 228.544 35.6981C226.655 30.4513 230.4 23.3102 236.947 19.7939C243.493 16.2776 250.287 17.6689 252.193 22.9195C253.432 26.3919 252.214 30.6609 249.394 34.1601Z" fill="url(#paint58_linear_687_4559)"/>
<path d="M316.268 96.7247C314.884 98.4076 313.213 99.8311 311.331 100.929L241.812 36.7139C241.813 36.7114 241.813 36.7091 241.815 36.7069C241.816 36.7048 241.818 36.7029 241.82 36.7015C241.821 36.7 241.824 36.699 241.826 36.6985C241.829 36.6981 241.831 36.6981 241.833 36.6987C243.992 35.533 245.896 33.9481 247.435 32.037L316.268 96.7247Z" fill="url(#paint59_linear_687_4559)"/>
<path d="M252.172 22.8719C251.692 21.5282 250.823 20.3579 249.675 19.51L230.783 1.78577L220.888 12.304L218.26 15.1075L212.275 21.4749L229.918 38.0003C230.228 38.3505 230.571 38.6697 230.943 38.9532L231.499 39.4735C231.886 39.806 232.371 40.0022 232.879 40.032C235.871 41.2098 239.862 40.8762 243.756 38.7817C243.756 38.7795 243.757 38.7773 243.758 38.7753C243.759 38.7733 243.76 38.7715 243.762 38.7701C243.764 38.7687 243.766 38.7677 243.768 38.767C243.77 38.7664 243.773 38.7662 243.775 38.7665C245.934 37.6009 247.838 36.0161 249.376 34.1048C252.199 30.6133 253.409 26.3424 252.172 22.8719Z" fill="url(#paint60_linear_687_4559)"/>
<path d="M230.222 16.2891C228.685 18.2013 226.781 19.7869 224.622 20.9527C224.62 20.9521 224.617 20.9521 224.615 20.9526C224.613 20.9531 224.61 20.9541 224.608 20.9555C224.606 20.957 224.605 20.9588 224.603 20.961C224.602 20.9631 224.602 20.9655 224.601 20.9679C218.078 24.4785 211.26 23.0739 209.372 17.8271C207.483 12.5804 211.23 5.44876 217.775 1.92297C224.319 -1.60281 231.115 -0.202022 233.021 5.04854C234.26 8.52096 233.048 12.7881 230.222 16.2891Z" fill="url(#paint61_linear_687_4559)"/>
<path d="M326.552 101.476C326.552 101.476 325.065 107.291 319.342 107.363L330.777 110.74L326.552 101.476Z" fill="url(#paint62_linear_687_4559)"/>
</g>
<defs>
<linearGradient id="paint0_linear_687_4559" x1="281.742" y1="237.531" x2="309.285" y2="80.3707" gradientUnits="userSpaceOnUse">
<stop stop-color="#FBFFFF"/>
<stop offset="1" stop-color="#DBE1F2"/>
</linearGradient>
<linearGradient id="paint1_linear_687_4559" x1="363.24" y1="58.0153" x2="264.278" y2="84.3291" gradientUnits="userSpaceOnUse">
<stop stop-color="#628FC4"/>
<stop offset="1" stop-color="#414791"/>
</linearGradient>
<linearGradient id="paint2_linear_687_4559" x1="383.729" y1="91.2911" x2="383.348" y2="68.9319" gradientUnits="userSpaceOnUse">
<stop stop-color="#628FC4"/>
<stop offset="1" stop-color="#414791"/>
</linearGradient>
<linearGradient id="paint3_linear_687_4559" x1="231.739" y1="237.312" x2="318.374" y2="231.187" gradientUnits="userSpaceOnUse">
<stop stop-color="#FBFFFF"/>
<stop offset="1" stop-color="#C7CDEA"/>
</linearGradient>
<linearGradient id="paint4_linear_687_4559" x1="288.55" y1="106.397" x2="288.401" y2="109.393" gradientUnits="userSpaceOnUse">
<stop stop-color="#FFF8F6"/>
<stop offset="1" stop-color="#B4C2E3"/>
</linearGradient>
<linearGradient id="paint5_linear_687_4559" x1="286.139" y1="116.777" x2="285.932" y2="119.767" gradientUnits="userSpaceOnUse">
<stop stop-color="#FFF8F6"/>
<stop offset="1" stop-color="#B4C2E3"/>
</linearGradient>
<linearGradient id="paint6_linear_687_4559" x1="338.858" y1="98.629" x2="321.197" y2="203.228" gradientUnits="userSpaceOnUse">
<stop stop-color="#FDAE6E"/>
<stop offset="0.99" stop-color="#FE5A71"/>
</linearGradient>
<linearGradient id="paint7_linear_687_4559" x1="338.445" y1="101.386" x2="323.98" y2="187.06" gradientUnits="userSpaceOnUse">
<stop stop-color="#FBFFFF"/>
<stop offset="1" stop-color="#C7CDEA"/>
</linearGradient>
<linearGradient id="paint8_linear_687_4559" x1="280.912" y1="132.062" x2="280.676" y2="135.047" gradientUnits="userSpaceOnUse">
<stop stop-color="#FFF8F6"/>
<stop offset="1" stop-color="#B4C2E3"/>
</linearGradient>
<linearGradient id="paint9_linear_687_4559" x1="278.498" y1="142.345" x2="278.203" y2="145.32" gradientUnits="userSpaceOnUse">
<stop stop-color="#FFF8F6"/>
<stop offset="1" stop-color="#B4C2E3"/>
</linearGradient>
<linearGradient id="paint10_linear_687_4559" x1="335.683" y1="99.9439" x2="314.156" y2="203.023" gradientUnits="userSpaceOnUse">
<stop stop-color="#FDAE6E"/>
<stop offset="0.99" stop-color="#FE5A71"/>
</linearGradient>
<linearGradient id="paint11_linear_687_4559" x1="334.462" y1="108.079" x2="316.844" y2="192.436" gradientUnits="userSpaceOnUse">
<stop stop-color="#FBFFFF"/>
<stop offset="1" stop-color="#C7CDEA"/>
</linearGradient>
<linearGradient id="paint12_linear_687_4559" x1="274.653" y1="160.158" x2="274.32" y2="163.124" gradientUnits="userSpaceOnUse">
<stop stop-color="#FFF8F6"/>
<stop offset="1" stop-color="#B4C2E3"/>
</linearGradient>
<linearGradient id="paint13_linear_687_4559" x1="272.277" y1="170.366" x2="271.885" y2="173.318" gradientUnits="userSpaceOnUse">
<stop stop-color="#FFF8F6"/>
<stop offset="1" stop-color="#B4C2E3"/>
</linearGradient>
<linearGradient id="paint14_linear_687_4559" x1="335.835" y1="100.108" x2="311.087" y2="201.657" gradientUnits="userSpaceOnUse">
<stop stop-color="#FDAE6E"/>
<stop offset="0.99" stop-color="#FE5A71"/>
</linearGradient>
<linearGradient id="paint15_linear_687_4559" x1="333.83" y1="113.648" x2="313.605" y2="196.636" gradientUnits="userSpaceOnUse">
<stop stop-color="#FBFFFF"/>
<stop offset="1" stop-color="#C7CDEA"/>
</linearGradient>
<linearGradient id="paint16_linear_687_4559" x1="268.175" y1="189.181" x2="267.842" y2="192.147" gradientUnits="userSpaceOnUse">
<stop stop-color="#FFF8F6"/>
<stop offset="1" stop-color="#B4C2E3"/>
</linearGradient>
<linearGradient id="paint17_linear_687_4559" x1="265.795" y1="199.371" x2="265.404" y2="202.321" gradientUnits="userSpaceOnUse">
<stop stop-color="#FFF8F6"/>
<stop offset="1" stop-color="#B4C2E3"/>
</linearGradient>
<linearGradient id="paint18_linear_687_4559" x1="333.67" y1="99.5791" x2="308.92" y2="201.126" gradientUnits="userSpaceOnUse">
<stop stop-color="#FDAE6E"/>
<stop offset="0.99" stop-color="#FE5A71"/>
</linearGradient>
<linearGradient id="paint19_linear_687_4559" x1="330.869" y1="118.517" x2="310.644" y2="201.5" gradientUnits="userSpaceOnUse">
<stop stop-color="#FBFFFF"/>
<stop offset="1" stop-color="#C7CDEA"/>
</linearGradient>
<linearGradient id="paint20_linear_687_4559" x1="231.094" y1="141.054" x2="190.693" y2="192.363" gradientUnits="userSpaceOnUse">
<stop stop-color="#FDAE6E"/>
<stop offset="0.99" stop-color="#FE5A71"/>
</linearGradient>
<linearGradient id="paint21_linear_687_4559" x1="160.405" y1="165.371" x2="249.27" y2="165.371" gradientUnits="userSpaceOnUse">
<stop stop-color="#FDAE6E"/>
<stop offset="0.99" stop-color="#FE5A71"/>
</linearGradient>
<linearGradient id="paint22_linear_687_4559" x1="177.614" y1="45.977" x2="138.147" y2="100.566" gradientUnits="userSpaceOnUse">
<stop stop-color="#9FB1C9"/>
<stop offset="1" stop-color="#DBE1F2"/>
</linearGradient>
<linearGradient id="paint23_linear_687_4559" x1="141.726" y1="101.398" x2="162.16" y2="24.8901" gradientUnits="userSpaceOnUse">
<stop stop-color="#FBFFFF"/>
<stop offset="1" stop-color="#DBE1F2"/>
</linearGradient>
<linearGradient id="paint24_linear_687_4559" x1="430.158" y1="188.912" x2="393.316" y2="239.616" gradientUnits="userSpaceOnUse">
<stop stop-color="#465399"/>
<stop offset="0.99" stop-color="#22A5C4"/>
</linearGradient>
<linearGradient id="paint25_linear_687_4559" x1="360.794" y1="213.718" x2="451.913" y2="203.594" gradientUnits="userSpaceOnUse">
<stop stop-color="#465399"/>
<stop offset="0.99" stop-color="#22A5C4"/>
</linearGradient>
<linearGradient id="paint26_linear_687_4559" x1="259.839" y1="72.5063" x2="207.814" y2="102.564" gradientUnits="userSpaceOnUse">
<stop stop-color="#465399"/>
<stop offset="0.99" stop-color="#22A5C4"/>
</linearGradient>
<linearGradient id="paint27_linear_687_4559" x1="225.126" y1="110.344" x2="227.009" y2="57.8472" gradientUnits="userSpaceOnUse">
<stop stop-color="#465399"/>
<stop offset="0.99" stop-color="#22A5C4"/>
</linearGradient>
<linearGradient id="paint28_linear_687_4559" x1="245.545" y1="115.621" x2="233.704" y2="99.0651" gradientUnits="userSpaceOnUse">
<stop stop-color="#F1F4FA"/>
<stop offset="0.99" stop-color="#22A5C4"/>
</linearGradient>
<linearGradient id="paint29_linear_687_4559" x1="414.445" y1="141.206" x2="269.681" y2="210.514" gradientUnits="userSpaceOnUse">
<stop stop-color="#628FC4"/>
<stop offset="1" stop-color="#414791"/>
</linearGradient>
<linearGradient id="paint30_linear_687_4559" x1="440.176" y1="145.556" x2="234.247" y2="213.439" gradientUnits="userSpaceOnUse">
<stop stop-color="#465399"/>
<stop offset="0.99" stop-color="#22A5C4"/>
</linearGradient>
<linearGradient id="paint31_linear_687_4559" x1="441.754" y1="157.077" x2="436.775" y2="158.718" gradientUnits="userSpaceOnUse">
<stop stop-color="#465399"/>
<stop offset="0.99" stop-color="#22A5C4"/>
</linearGradient>
<linearGradient id="paint32_linear_687_4559" x1="9.71031" y1="214.686" x2="40.3684" y2="232.731" gradientUnits="userSpaceOnUse">
<stop stop-color="#628FC4"/>
<stop offset="1" stop-color="#B4C2E3"/>
</linearGradient>
<linearGradient id="paint33_linear_687_4559" x1="41.0628" y1="218.305" x2="50.451" y2="204.712" gradientUnits="userSpaceOnUse">
<stop stop-color="white"/>
<stop offset="0.29" stop-color="#DFE2F3"/>
<stop offset="1" stop-color="#BCC2E6"/>
</linearGradient>
<linearGradient id="paint34_linear_687_4559" x1="47.4518" y1="192.216" x2="69.124" y2="204.971" gradientUnits="userSpaceOnUse">
<stop stop-color="#B2C0D6"/>
<stop offset="1" stop-color="#DBE1F2"/>
</linearGradient>
<linearGradient id="paint35_linear_687_4559" x1="79.3481" y1="186.239" x2="72.5141" y2="192.395" gradientUnits="userSpaceOnUse">
<stop stop-color="white"/>
<stop offset="0.29" stop-color="#DFE2F3"/>
<stop offset="1" stop-color="#BCC2E6"/>
</linearGradient>
<linearGradient id="paint36_linear_687_4559" x1="57.1837" y1="183.865" x2="78.9232" y2="196.661" gradientUnits="userSpaceOnUse">
<stop stop-color="#628FC4"/>
<stop offset="1" stop-color="#B4C2E3"/>
</linearGradient>
<linearGradient id="paint37_linear_687_4559" x1="84.9726" y1="180.58" x2="75.904" y2="188.748" gradientUnits="userSpaceOnUse">
<stop stop-color="white"/>
<stop offset="0.29" stop-color="#DFE2F3"/>
<stop offset="1" stop-color="#BCC2E6"/>
</linearGradient>
<linearGradient id="paint38_linear_687_4559" x1="93.4674" y1="183.772" x2="153.646" y2="105.819" gradientUnits="userSpaceOnUse">
<stop stop-color="#B2C0D6"/>
<stop offset="1" stop-color="#DBE1F2"/>
</linearGradient>
<linearGradient id="paint39_linear_687_4559" x1="108.026" y1="154.311" x2="144.517" y2="99.8673" gradientUnits="userSpaceOnUse">
<stop stop-color="white"/>
<stop offset="1" stop-color="#DBE1F2"/>
</linearGradient>
<linearGradient id="paint40_linear_687_4559" x1="97.6648" y1="189.805" x2="141.08" y2="125.03" gradientUnits="userSpaceOnUse">
<stop stop-color="white"/>
<stop offset="1" stop-color="#DBE1F2"/>
</linearGradient>
<linearGradient id="paint41_linear_687_4559" x1="107.018" y1="114.214" x2="99.023" y2="155.071" gradientUnits="userSpaceOnUse">
<stop stop-color="#465399"/>
<stop offset="0.99" stop-color="#22A5C4"/>
</linearGradient>
<linearGradient id="paint42_linear_687_4559" x1="124.823" y1="117.7" x2="116.826" y2="158.557" gradientUnits="userSpaceOnUse">
<stop stop-color="#465399"/>
<stop offset="0.99" stop-color="#22A5C4"/>
</linearGradient>
<linearGradient id="paint43_linear_687_4559" x1="142.443" y1="121.147" x2="134.448" y2="162.005" gradientUnits="userSpaceOnUse">
<stop stop-color="#465399"/>
<stop offset="0.99" stop-color="#22A5C4"/>
</linearGradient>
<linearGradient id="paint44_linear_687_4559" x1="160.477" y1="124.676" x2="152.482" y2="165.534" gradientUnits="userSpaceOnUse">
<stop stop-color="#465399"/>
<stop offset="0.99" stop-color="#22A5C4"/>
</linearGradient>
<linearGradient id="paint45_linear_687_4559" x1="235.937" y1="230.718" x2="214.96" y2="299.604" gradientUnits="userSpaceOnUse">
<stop stop-color="#628FC4"/>
<stop offset="1" stop-color="#B4C2E3"/>
</linearGradient>
<linearGradient id="paint46_linear_687_4559" x1="192.038" y1="275.81" x2="182.572" y2="306.894" gradientUnits="userSpaceOnUse">
<stop stop-color="#628FC4"/>
<stop offset="1" stop-color="#B4C2E3"/>
</linearGradient>
<linearGradient id="paint47_linear_687_4559" x1="304.636" y1="251.636" x2="283.563" y2="320.833" gradientUnits="userSpaceOnUse">
<stop stop-color="#628FC4"/>
<stop offset="1" stop-color="#B4C2E3"/>
</linearGradient>
<linearGradient id="paint48_linear_687_4559" x1="304.789" y1="253.649" x2="285.194" y2="317.995" gradientUnits="userSpaceOnUse">
<stop stop-color="#B2C0D6"/>
<stop offset="1" stop-color="#DBE1F2"/>
</linearGradient>
<linearGradient id="paint49_linear_687_4559" x1="303.08" y1="257.215" x2="286.901" y2="310.341" gradientUnits="userSpaceOnUse">
<stop stop-color="#628FC4"/>
<stop offset="1" stop-color="#B4C2E3"/>
</linearGradient>
<linearGradient id="paint50_linear_687_4559" x1="303.08" y1="262.082" x2="286.901" y2="315.209" gradientUnits="userSpaceOnUse">
<stop stop-color="#628FC4"/>
<stop offset="1" stop-color="#B4C2E3"/>
</linearGradient>
<linearGradient id="paint51_linear_687_4559" x1="235.579" y1="269.551" x2="236.575" y2="271.508" gradientUnits="userSpaceOnUse">
<stop stop-color="#FBFFFF"/>
<stop offset="1" stop-color="#DBE1F2"/>
</linearGradient>
<linearGradient id="paint52_linear_687_4559" x1="249.855" y1="272.469" x2="250.851" y2="274.427" gradientUnits="userSpaceOnUse">
<stop stop-color="#FBFFFF"/>
<stop offset="1" stop-color="#DBE1F2"/>
</linearGradient>
<linearGradient id="paint53_linear_687_4559" x1="264.129" y1="275.387" x2="265.125" y2="277.344" gradientUnits="userSpaceOnUse">
<stop stop-color="#FBFFFF"/>
<stop offset="1" stop-color="#DBE1F2"/>
</linearGradient>
<linearGradient id="paint54_linear_687_4559" x1="344.8" y1="66.5655" x2="344.68" y2="68.9876" gradientUnits="userSpaceOnUse">
<stop stop-color="#FFF8F6"/>
<stop offset="1" stop-color="#B4C2E3"/>
</linearGradient>
<linearGradient id="paint55_linear_687_4559" x1="342.958" y1="75.2767" x2="342.79" y2="77.6931" gradientUnits="userSpaceOnUse">
<stop stop-color="#FFF8F6"/>
<stop offset="1" stop-color="#B4C2E3"/>
</linearGradient>
<linearGradient id="paint56_linear_687_4559" x1="331.78" y1="119.192" x2="340.983" y2="106.25" gradientUnits="userSpaceOnUse">
<stop stop-color="#465399"/>
<stop offset="0.99" stop-color="#22A5C4"/>
</linearGradient>
<linearGradient id="paint57_linear_687_4559" x1="268.659" y1="73.1555" x2="285.19" y2="56.1061" gradientUnits="userSpaceOnUse">
<stop stop-color="#465399"/>
<stop offset="0.99" stop-color="#22A5C4"/>
</linearGradient>
<linearGradient id="paint58_linear_687_4559" x1="252.934" y1="26.4379" x2="234.865" y2="30.5867" gradientUnits="userSpaceOnUse">
<stop stop-color="#FDAE6E"/>
<stop offset="0.99" stop-color="#FE5A71"/>
</linearGradient>
<linearGradient id="paint59_linear_687_4559" x1="276.306" y1="97.8919" x2="281.795" y2="35.0553" gradientUnits="userSpaceOnUse">
<stop stop-color="#FBFFFF"/>
<stop offset="1" stop-color="#BCC2E6"/>
</linearGradient>
<linearGradient id="paint60_linear_687_4559" x1="244.295" y1="15.9653" x2="224.875" y2="27.9935" gradientUnits="userSpaceOnUse">
<stop stop-color="#FDAE6E"/>
<stop offset="0.99" stop-color="#FE5A71"/>
</linearGradient>
<linearGradient id="paint61_linear_687_4559" x1="212.001" y1="15.3657" x2="229.106" y2="8.08279" gradientUnits="userSpaceOnUse">
<stop stop-color="#FDAE6E"/>
<stop offset="0.99" stop-color="#FE5A71"/>
</linearGradient>
<linearGradient id="paint62_linear_687_4559" x1="319.728" y1="104.764" x2="331.402" y2="106.55" gradientUnits="userSpaceOnUse">
<stop stop-color="#465399"/>
<stop offset="0.99" stop-color="#22A5C4"/>
</linearGradient>
<clipPath id="clip0_687_4559">
<rect width="485.224" height="340" fill="white" transform="translate(0.775391)"/>
</clipPath>
</defs>
</svg>
