<svg width="22" height="31" viewBox="0 0 22 31" fill="none" xmlns="http://www.w3.org/2000/svg">
<path d="M10.76 30.8172C8.52 30.8172 6.58667 30.3905 4.96 29.5372C3.36 28.6838 2.13333 27.5505 1.28 26.1372C0.426667 24.6972 0 23.0972 0 21.3372H5.48C5.48 22.7505 5.94667 23.8972 6.88 24.7772C7.84 25.6305 9.13333 26.0572 10.76 26.0572C11.8533 26.0572 12.7867 25.8572 13.56 25.4572C14.36 25.0305 14.9733 24.4572 15.4 23.7372C15.8267 22.9905 16.04 22.1372 16.04 21.1772C16.04 19.7372 15.5733 18.5638 14.64 17.6572C13.7067 16.7238 12.4267 16.2572 10.8 16.2572C10 16.2572 9.29333 16.3638 8.68 16.5772C8.09333 16.7905 7.57333 17.0705 7.12 17.4172L4.52 12.9372L14.12 6.37718L13.76 5.69718H1.2V0.857178H20.28V6.69718L10.4 13.2572L7.32 12.6972C7.82667 12.5372 8.37333 12.4172 8.96 12.3372C9.54667 12.2305 10.1867 12.1772 10.88 12.1772C13.0933 12.1772 14.9867 12.5638 16.56 13.3372C18.16 14.0838 19.3867 15.1238 20.24 16.4572C21.0933 17.7905 21.52 19.3238 21.52 21.0572V21.5772C21.52 23.2572 21.0933 24.8038 20.24 26.2172C19.3867 27.6038 18.16 28.7238 16.56 29.5772C14.96 30.4038 13.0267 30.8172 10.76 30.8172Z" fill="#41B79B"/>
</svg>
