<svg width="22" height="31" viewBox="0 0 22 31" fill="none" xmlns="http://www.w3.org/2000/svg">
<path d="M10.76 30.9327C8.52 30.9327 6.58667 30.506 4.96 29.6527C3.36 28.7993 2.13333 27.666 1.28 26.2527C0.426667 24.8127 0 23.2127 0 21.4527H5.48C5.48 22.866 5.94667 24.0127 6.88 24.8927C7.84 25.746 9.13333 26.1727 10.76 26.1727C11.8533 26.1727 12.7867 25.9727 13.56 25.5727C14.36 25.146 14.9733 24.5727 15.4 23.8527C15.8267 23.106 16.04 22.2527 16.04 21.2927C16.04 19.8527 15.5733 18.6793 14.64 17.7727C13.7067 16.8393 12.4267 16.3727 10.8 16.3727C10 16.3727 9.29333 16.4793 8.68 16.6927C8.09333 16.906 7.57333 17.186 7.12 17.5327L4.52 13.0527L14.12 6.49266L13.76 5.81266H1.2V0.972656H20.28V6.81265L10.4 13.3727L7.32 12.8127C7.82667 12.6527 8.37333 12.5327 8.96 12.4527C9.54667 12.346 10.1867 12.2927 10.88 12.2927C13.0933 12.2927 14.9867 12.6793 16.56 13.4527C18.16 14.1993 19.3867 15.2393 20.24 16.5727C21.0933 17.906 21.52 19.4393 21.52 21.1727V21.6927C21.52 23.3727 21.0933 24.9193 20.24 26.3327C19.3867 27.7193 18.16 28.8393 16.56 29.6927C14.96 30.5193 13.0267 30.9327 10.76 30.9327Z" fill="#41B79B"/>
</svg>
