<svg width="529" height="444" viewBox="0 0 529 444" fill="none" xmlns="http://www.w3.org/2000/svg">
<g clip-path="url(#clip0_674_1635)">
<path d="M156.213 276.217C156.213 275.623 156.768 275.087 157.888 274.841H160.738C161.858 275.087 162.412 275.623 162.412 276.232C162.412 276.84 161.858 277.363 160.738 277.624H157.888C156.768 277.358 156.213 276.833 156.213 276.217Z" fill="#D1DCF8"/>
<path d="M132.902 276.217C132.902 275.623 133.944 275.087 136.053 274.841H141.409C143.516 275.087 144.558 275.623 144.558 276.232C144.558 276.84 143.516 277.363 141.409 277.624H136.053C133.944 277.358 132.902 276.833 132.902 276.217Z" fill="#D1DCF8"/>
<path d="M109.59 276.217C109.59 275.623 110.632 275.087 112.74 274.841H118.102C120.208 275.087 121.25 275.623 121.25 276.232C121.25 276.84 120.208 277.363 118.102 277.624H112.745C110.632 277.358 109.59 276.833 109.59 276.217Z" fill="#D1DCF8"/>
<path d="M86.2793 276.217C86.2793 275.623 87.3213 275.087 89.4287 274.841H94.7864C96.8925 275.087 97.9345 275.623 97.9345 276.232C97.9345 276.84 96.8925 277.363 94.7864 277.624H89.4287C87.3213 277.358 86.2793 276.833 86.2793 276.217Z" fill="#D1DCF8"/>
<path d="M68.4388 270.018C69.0318 270.018 69.5682 271.127 69.8142 273.374V274.836H71.2745C73.5148 275.082 74.6232 275.618 74.6232 276.227C74.6232 276.836 73.516 277.358 71.2745 277.619H67.0352V273.374C67.2935 271.129 67.8164 270.018 68.4388 270.018Z" fill="#D1DCF8"/>
<path d="M68.4388 250.527C69.0318 250.527 69.5682 251.398 69.8142 253.161V257.64C69.5682 259.401 69.0318 260.272 68.4241 260.272C67.8164 260.272 67.2947 259.401 67.0352 257.64V253.161C67.2935 251.398 67.8164 250.527 68.4388 250.527Z" fill="#D1DCF8"/>
<path d="M74.6232 234.586C74.6232 235.18 73.516 235.717 71.2721 235.963H69.8142V237.426C69.5682 239.67 69.0318 240.78 68.4241 240.78C67.8164 240.78 67.2947 239.671 67.0352 237.426V233.18H71.2721C73.5148 233.441 74.6232 233.962 74.6232 234.586Z" fill="#D1DCF8"/>
<path d="M91.8536 234.586C91.8536 235.18 91.0835 235.717 89.526 235.963H85.5659C84.0096 235.717 83.2383 235.18 83.2383 234.571C83.2383 233.962 84.0096 233.441 85.5659 233.18H89.526C91.0835 233.441 91.8536 233.962 91.8536 234.586Z" fill="#D1DCF8"/>
<path d="M106.661 240.78C106.067 240.78 105.532 239.671 105.286 237.424V235.963H103.819C101.579 235.717 100.471 235.18 100.471 234.571C100.471 233.962 101.578 233.441 103.819 233.18H108.059V237.424C107.798 239.67 107.276 240.78 106.661 240.78Z" fill="#D1DCF8"/>
<path d="M106.661 264.574C106.066 264.574 105.531 263.509 105.285 261.358V255.886C105.531 253.737 106.066 252.672 106.675 252.672C107.284 252.672 107.803 253.737 108.064 255.886V261.353C107.797 263.509 107.276 264.574 106.661 264.574Z" fill="#D1DCF8"/>
<path d="M106.661 288.368C106.066 288.368 105.531 287.303 105.285 285.152V279.684C105.531 277.534 106.066 276.471 106.675 276.471C107.284 276.471 107.803 277.534 108.064 279.684V285.152C107.797 287.307 107.276 288.368 106.661 288.368Z" fill="#D1DCF8"/>
<path d="M100.471 306.458C100.471 305.864 101.578 305.328 103.822 305.081H105.28V303.618C105.526 301.375 106.061 300.263 106.67 300.263C107.279 300.263 107.798 301.372 108.059 303.618V307.865H103.822C101.579 307.604 100.471 307.082 100.471 306.458Z" fill="#D1DCF8"/>
<path d="M73.0762 306.458C73.0762 305.864 74.3064 305.328 76.7779 305.081H83.073C85.547 305.328 86.7723 305.864 86.7723 306.472C86.7723 307.081 85.5421 307.604 83.073 307.865H76.7804C74.3064 307.604 73.0762 307.082 73.0762 306.458Z" fill="#D1DCF8"/>
<path d="M45.6855 306.458C45.6855 305.864 46.9158 305.328 49.3873 305.081H55.6824C58.1564 305.328 59.3817 305.864 59.3817 306.472C59.3817 307.081 58.1515 307.604 55.6824 307.865H49.3873C46.9109 307.604 45.6855 307.082 45.6855 306.458Z" fill="#D1DCF8"/>
<path d="M25.806 300.263C26.4002 300.263 26.9354 301.372 27.1814 303.62V305.081H28.6417C30.882 305.328 31.9904 305.864 31.9904 306.473C31.9904 307.081 30.8832 307.604 28.6417 307.865H24.4023V303.62C24.6632 301.375 25.1835 300.263 25.806 300.263Z" fill="#D1DCF8"/>
<path d="M25.806 277.384C26.4002 277.384 26.9354 278.407 27.1814 280.477V285.733C26.9354 287.801 26.4002 288.824 25.7913 288.824C25.1823 288.824 24.6632 287.801 24.4023 285.733V280.477C24.6632 278.407 25.1835 277.384 25.806 277.384Z" fill="#D1DCF8"/>
<path d="M25.806 254.504C26.4002 254.504 26.9354 255.527 27.1814 257.596V262.854C26.9354 264.921 26.4002 265.944 25.7913 265.944C25.1823 265.944 24.6632 264.921 24.4023 262.854V257.596C24.6632 255.527 25.1835 254.504 25.806 254.504Z" fill="#D1DCF8"/>
<path d="M25.806 231.625C26.4002 231.625 26.9354 232.647 27.1814 234.716V239.974C26.9354 242.041 26.4002 243.065 25.7913 243.065C25.1823 243.065 24.6632 242.041 24.4023 239.974V234.716C24.6632 232.647 25.1835 231.625 25.806 231.625Z" fill="#D1DCF8"/>
<path d="M25.806 208.744C26.4002 208.744 26.9354 209.768 27.1814 211.837V217.095C26.9354 219.161 26.4002 220.185 25.7913 220.185C25.1823 220.185 24.6632 219.161 24.4023 217.095V211.837C24.6632 209.768 25.1835 208.744 25.806 208.744Z" fill="#D1DCF8"/>
<path d="M25.806 185.864C26.4002 185.864 26.9354 186.888 27.1814 188.957V194.215C26.9354 196.281 26.4002 197.304 25.7913 197.304C25.1823 197.304 24.6632 196.281 24.4023 194.215V188.957C24.6632 186.888 25.1835 185.864 25.806 185.864Z" fill="#D1DCF8"/>
<path d="M25.806 162.985C26.4002 162.985 26.9354 164.008 27.1814 166.076V171.334C26.9354 173.402 26.4002 174.425 25.7913 174.425C25.1823 174.425 24.6632 173.402 24.4023 171.334V166.076C24.6632 164.008 25.1835 162.985 25.806 162.985Z" fill="#D1DCF8"/>
<path d="M31.9867 145.357C31.9867 145.951 30.8795 146.488 28.6368 146.735H27.1814V148.191C26.9354 150.435 26.4002 151.545 25.7913 151.545C25.1823 151.545 24.6632 150.436 24.4023 148.191V143.944H28.6405C30.8795 144.205 31.9867 144.727 31.9867 145.357Z" fill="#D1DCF8"/>
<path d="M51.3582 145.357C51.3582 145.951 50.4971 146.488 48.7403 146.734H44.2893C42.5399 146.488 41.6738 145.951 41.6738 145.342C41.6738 144.733 42.535 144.211 44.2893 143.95H48.7391C50.4921 144.205 51.3582 144.727 51.3582 145.357Z" fill="#D1DCF8"/>
<path d="M70.7242 145.357C70.7242 145.951 69.863 146.488 68.1075 146.734H63.6565C61.9071 146.488 61.041 145.951 61.041 145.342C61.041 144.733 61.9022 144.211 63.6565 143.95H68.1075C69.8581 144.205 70.7242 144.727 70.7242 145.357Z" fill="#D1DCF8"/>
<path d="M86.6201 139.127C87.2144 139.127 87.7495 140.236 87.9956 142.483V146.728H83.7562C81.5159 146.482 80.4062 145.945 80.4062 145.336C80.4062 144.727 81.5134 144.205 83.7562 143.944H85.2164V142.483C85.4773 140.237 85.9927 139.127 86.6201 139.127Z" fill="#D1DCF8"/>
<path d="M86.6205 114.854C87.2147 114.854 87.7499 115.939 87.9959 118.134V123.712C87.7499 125.905 87.2147 126.99 86.6057 126.99C85.9968 126.99 85.4776 125.905 85.2168 123.712V118.134C85.4776 115.939 85.9931 114.854 86.6205 114.854Z" fill="#D1DCF8"/>
<path d="M86.6205 90.5806C87.2147 90.5806 87.7499 91.6661 87.9959 93.8607V99.4389C87.7499 101.632 87.2147 102.718 86.6057 102.718C85.9968 102.718 85.4776 101.632 85.2168 99.4389V93.8607C85.4776 91.6661 85.9931 90.5806 86.6205 90.5806Z" fill="#D1DCF8"/>
<path d="M86.6205 66.3086C87.2147 66.3086 87.7499 67.3929 87.9959 69.5887V75.1669C87.7499 77.359 87.2147 78.4446 86.6057 78.4446C85.9968 78.4446 85.4776 77.359 85.2168 75.1669V69.5887C85.4776 67.3929 85.9931 66.3086 86.6205 66.3086Z" fill="#D1DCF8"/>
<path d="M86.6205 42.0354C87.2147 42.0354 87.7499 43.121 87.9959 45.3155V50.8937C87.7499 53.0858 87.2147 54.1714 86.6057 54.1714C85.9968 54.1714 85.4776 53.0858 85.2168 50.8937V45.3155C85.4776 43.121 85.9931 42.0354 86.6205 42.0354Z" fill="#D1DCF8"/>
<path d="M92.8061 23.7039C92.8061 24.2978 91.6989 24.8351 89.455 25.0815H87.9959V26.5442C87.7499 28.788 87.2147 29.8982 86.6057 29.8982C85.9968 29.8982 85.4776 28.7892 85.2168 26.5442V22.298H89.455C91.6964 22.5592 92.8061 23.0804 92.8061 23.7039Z" fill="#D1DCF8"/>
<path d="M117.047 23.7039C117.047 24.2978 115.962 24.8351 113.771 25.0815H108.199C106.01 24.8351 104.926 24.2978 104.926 23.6891C104.926 23.0804 106.01 22.5592 108.199 22.298H113.771C115.962 22.5592 117.047 23.0804 117.047 23.7039Z" fill="#D1DCF8"/>
<path d="M141.289 23.7039C141.289 24.2978 140.206 24.8351 138.013 25.0815H132.443C130.252 24.8351 129.168 24.2978 129.168 23.6891C129.168 23.0804 130.252 22.5592 132.443 22.298H138.013C140.206 22.5592 141.289 23.0804 141.289 23.7039Z" fill="#D1DCF8"/>
<path d="M165.532 23.7039C165.532 24.2978 164.448 24.8351 162.256 25.0815H156.685C154.495 24.8351 153.41 24.2978 153.41 23.6891C153.41 23.0804 154.495 22.5592 156.685 22.298H162.256C164.448 22.5592 165.532 23.0804 165.532 23.7039Z" fill="#D1DCF8"/>
<path d="M189.773 23.7039C189.773 24.2978 188.689 24.8351 186.496 25.0815H180.926C178.736 24.8351 177.652 24.2978 177.652 23.6891C177.652 23.0804 178.736 22.5592 180.926 22.298H186.503C188.689 22.5592 189.773 23.0804 189.773 23.7039Z" fill="#D1DCF8"/>
<path d="M214.015 23.7039C214.015 24.2978 212.931 24.8351 210.739 25.0815H205.168C202.978 24.8351 201.895 24.2978 201.895 23.6891C201.895 23.0804 202.978 22.5592 205.168 22.298H210.739C212.931 22.5592 214.015 23.0804 214.015 23.7039Z" fill="#D1DCF8"/>
<path d="M238.257 23.7039C238.257 24.2978 237.173 24.8351 234.981 25.0815H229.41C227.221 24.8351 226.137 24.2978 226.137 23.6891C226.137 23.0804 227.221 22.5592 229.41 22.298H234.981C237.173 22.5592 238.257 23.0804 238.257 23.7039Z" fill="#D1DCF8"/>
<path d="M262.499 23.7039C262.499 24.2978 261.415 24.8351 259.223 25.0815H253.653C251.463 24.8351 250.379 24.2978 250.379 23.6891C250.379 23.0804 251.463 22.5592 253.653 22.298H259.223C261.415 22.5592 262.499 23.0804 262.499 23.7039Z" fill="#D1DCF8"/>
<path d="M286.741 23.7039C286.741 24.2978 285.656 24.8351 283.465 25.0815H277.893C275.703 24.8351 274.619 24.2978 274.619 23.6891C274.619 23.0804 275.703 22.5592 277.893 22.298H283.465C285.659 22.5592 286.741 23.0804 286.741 23.7039Z" fill="#D1DCF8"/>
<path d="M310.983 23.7039C310.983 24.2978 309.899 24.8351 307.707 25.0815H302.135C299.945 24.8351 298.861 24.2978 298.861 23.6891C298.861 23.0804 299.945 22.5592 302.135 22.298H307.707C309.895 22.5592 310.983 23.0804 310.983 23.7039Z" fill="#D1DCF8"/>
<path d="M335.224 23.7039C335.224 24.2978 334.141 24.8351 331.948 25.0815H326.38C324.189 24.8351 323.105 24.2978 323.105 23.6891C323.105 23.0804 324.189 22.5592 326.38 22.298H331.951C334.141 22.5592 335.224 23.0804 335.224 23.7039Z" fill="#D1DCF8"/>
<path d="M359.467 23.7039C359.467 24.2978 358.383 24.8351 356.191 25.0815H350.617C348.427 24.8351 347.342 24.2978 347.342 23.6891C347.342 23.0804 348.427 22.5592 350.617 22.298H356.187C358.383 22.5592 359.467 23.0804 359.467 23.7039Z" fill="#D1DCF8"/>
<path d="M383.71 23.7039C383.71 24.2978 382.626 24.8351 380.434 25.0815H374.864C372.674 24.8351 371.59 24.2978 371.59 23.6891C371.59 23.0804 372.674 22.5592 374.864 22.298H380.434C382.625 22.5592 383.71 23.0804 383.71 23.7039Z" fill="#D1DCF8"/>
<path d="M407.944 23.7039C407.944 24.2978 406.861 24.8351 404.668 25.0815H399.098C396.908 24.8351 395.824 24.2978 395.824 23.6891C395.824 23.0804 396.908 22.5592 399.098 22.298H404.668C406.866 22.5592 407.944 23.0804 407.944 23.7039Z" fill="#D1DCF8"/>
<path d="M426.257 29.8994C425.664 29.8994 425.127 28.7905 424.881 26.5429V25.0815H423.421C421.181 24.8351 420.072 24.2978 420.072 23.6891C420.072 23.0804 421.179 22.5592 423.421 22.298H427.662V26.5417C427.401 28.7905 426.879 29.8994 426.257 29.8994Z" fill="#D1DCF8"/>
<path d="M426.256 56.1935C425.663 56.1935 425.127 55.018 424.881 52.6398V46.602C425.127 44.2275 425.663 43.0508 426.271 43.0508C426.879 43.0508 427.4 44.2275 427.661 46.602V52.6398C427.4 55.018 426.879 56.1935 426.256 56.1935Z" fill="#D1DCF8"/>
<path d="M426.256 75.5501C425.663 75.5501 425.127 74.9944 424.881 73.8719V71.0181C425.127 69.8956 425.663 69.3411 426.271 69.3411C426.879 69.3411 427.4 69.8956 427.661 71.0181V73.8719C427.4 74.9981 426.879 75.5501 426.256 75.5501Z" fill="#D1DCF8"/>
<path d="M369.841 80.6022V411.917C369.841 429.323 355.735 443.426 338.357 443.426H166.802C149.424 443.426 135.318 429.323 135.318 411.917V80.6022C135.318 63.1949 149.424 49.0923 166.802 49.0923H338.357C355.735 49.0923 369.841 63.1949 369.841 80.6022Z" fill="#3A4146"/>
<path d="M369.841 80.6022V411.917C369.841 429.323 355.735 443.426 338.357 443.426H166.802C149.424 443.426 135.318 429.323 135.318 411.917V80.6022C135.318 63.1949 149.424 49.0923 166.802 49.0923H338.357C355.735 49.0923 369.841 63.1949 369.841 80.6022Z" fill="#4A5258"/>
<path d="M166.801 434.587C154.308 434.587 144.143 424.418 144.143 411.915V80.6021C144.143 68.1014 154.296 57.9296 166.779 57.9296H193.509C194.558 57.9305 195.564 58.3483 196.306 59.0912C197.048 59.8342 197.466 60.8415 197.467 61.8923C197.47 63.9176 198.274 65.8591 199.704 67.2912C201.134 68.7232 203.072 69.5291 205.094 69.532H301.596C303.618 69.5294 305.557 68.7237 306.987 67.2915C308.417 65.8594 309.221 63.9177 309.224 61.8923C309.225 60.8415 309.643 59.8342 310.384 59.0912C311.126 58.3483 312.132 57.9305 313.181 57.9296H338.354C350.849 57.9296 361.014 68.1113 361.014 80.6268V411.917C361.014 424.418 350.849 434.59 338.354 434.59L166.801 434.587Z" fill="white"/>
<g opacity="0.5">
<path d="M166.801 434.587C154.308 434.587 144.143 424.418 144.143 411.915V80.6021C144.143 68.1014 154.296 57.9296 166.779 57.9296H193.509C194.558 57.9305 195.564 58.3483 196.306 59.0912C197.048 59.8342 197.466 60.8415 197.467 61.8923C197.47 63.9176 198.274 65.8591 199.704 67.2912C201.134 68.7232 203.072 69.5291 205.094 69.532H301.596C303.618 69.5294 305.557 68.7237 306.987 67.2915C308.417 65.8594 309.221 63.9177 309.224 61.8923C309.225 60.8415 309.643 59.8342 310.384 59.0912C311.126 58.3483 312.132 57.9305 313.181 57.9296H338.354C350.849 57.9296 361.014 68.1113 361.014 80.6268V411.917C361.014 424.418 350.849 434.59 338.354 434.59L166.801 434.587Z" fill="#64D3FF"/>
</g>
<g opacity="0.1">
<path d="M152.34 248.377V404.199L165.134 394.812L173.873 404.625L182.631 394.809L191.373 404.629L200.113 394.812L208.849 404.626L217.609 394.809L226.351 404.629L235.091 394.812L243.827 404.626L252.585 394.808L261.33 404.629L270.068 394.812L278.807 404.626L287.563 394.809L296.307 404.629L305.046 394.812L313.787 404.629L322.529 394.809L331.288 404.625L340.025 394.812L352.82 404.199V248.377H152.34Z" fill="black"/>
</g>
<path d="M223.578 65.2058C225.708 65.2058 227.434 63.4768 227.434 61.344C227.434 59.2113 225.708 57.4823 223.578 57.4823C221.449 57.4823 219.723 59.2113 219.723 61.344C219.723 63.4768 221.449 65.2058 223.578 65.2058Z" fill="#2E363A"/>
<path d="M283.754 59.646H232.454C231.524 59.646 230.77 60.4012 230.77 61.3329V61.3538C230.77 62.2855 231.524 63.0407 232.454 63.0407H283.754C284.685 63.0407 285.439 62.2855 285.439 61.3538V61.3329C285.439 60.4012 284.685 59.646 283.754 59.646Z" fill="#2E363A"/>
<path d="M352.452 96.8578V393.696L343.348 383.876L334.244 393.696L325.117 383.876L316.013 393.696L306.885 383.876L297.781 393.696L288.678 383.876L279.549 393.696L270.446 383.876L261.342 393.696L252.238 383.876L243.084 393.689L233.98 383.87L224.877 393.689L215.773 383.87L206.646 393.689L197.542 383.87L188.438 393.689L179.335 383.87L170.207 393.689L161.104 383.87L152 393.689V96.8516C151.998 94.7723 152.82 92.7772 154.286 91.3049C155.752 89.8326 157.742 89.0036 159.818 89H344.636C346.712 89.0055 348.701 89.8361 350.167 91.3094C351.632 92.7827 352.454 94.7782 352.452 96.8578Z" fill="white"/>
<path d="M165.848 142.663C165.848 143.257 165.293 143.794 164.172 144.041H161.323C160.203 143.794 159.648 143.257 159.648 142.648C159.648 142.04 160.203 141.517 161.323 141.256H164.172C165.293 141.517 165.848 142.04 165.848 142.663Z" fill="#D1DCF8"/>
<path d="M188.978 142.663C188.978 143.257 187.943 143.794 185.852 144.041H180.536C178.444 143.794 177.412 143.257 177.412 142.648C177.412 142.04 178.447 141.517 180.536 141.256H185.852C187.943 141.517 188.978 142.04 188.978 142.663Z" fill="#D1DCF8"/>
<path d="M212.108 142.663C212.108 143.257 211.074 143.794 208.982 144.041H203.667C201.575 143.794 200.543 143.257 200.543 142.648C200.543 142.04 201.576 141.517 203.667 141.256H208.982C211.074 141.517 212.108 142.04 212.108 142.663Z" fill="#D1DCF8"/>
<path d="M235.239 142.663C235.239 143.257 234.205 143.794 232.113 144.041H226.799C224.707 143.794 223.674 143.257 223.674 142.648C223.674 142.04 224.708 141.517 226.799 141.256H232.113C234.205 141.517 235.239 142.04 235.239 142.663Z" fill="#D1DCF8"/>
<path d="M258.37 142.663C258.37 143.257 257.335 143.794 255.244 144.041H249.928C247.837 143.794 246.805 143.257 246.805 142.648C246.805 142.04 247.839 141.517 249.928 141.256H255.244C257.335 141.517 258.37 142.04 258.37 142.663Z" fill="#D1DCF8"/>
<path d="M281.501 142.663C281.501 143.257 280.466 143.794 278.375 144.041H273.059C270.968 143.794 269.936 143.257 269.936 142.648C269.936 142.04 270.97 141.517 273.059 141.256H278.375C280.466 141.517 281.501 142.04 281.501 142.663Z" fill="#D1DCF8"/>
<path d="M304.63 142.663C304.63 143.257 303.596 143.794 301.504 144.041H296.189C294.098 143.794 293.064 143.257 293.064 142.648C293.064 142.04 294.099 141.517 296.189 141.256H301.504C303.596 141.517 304.63 142.04 304.63 142.663Z" fill="#D1DCF8"/>
<path d="M327.761 142.663C327.761 143.257 326.726 143.794 324.635 144.041H319.319C317.227 143.794 316.195 143.257 316.195 142.648C316.195 142.04 317.23 141.517 319.319 141.256H324.635C326.726 141.517 327.761 142.04 327.761 142.663Z" fill="#D1DCF8"/>
<path d="M345.525 142.663C345.525 143.257 344.97 143.794 343.85 144.041H341.001C339.881 143.794 339.326 143.257 339.326 142.648C339.326 142.04 339.881 141.517 341.001 141.256H343.85C344.97 141.517 345.525 142.04 345.525 142.663Z" fill="#D1DCF8"/>
<path d="M222.585 159.389H164.313C163.263 159.389 162.412 160.242 162.412 161.293V164.695C162.412 165.747 163.263 166.599 164.313 166.599H222.585C223.635 166.599 224.486 165.747 224.486 164.695V161.293C224.486 160.242 223.635 159.389 222.585 159.389Z" fill="#D1DCF8"/>
<path d="M305.189 174.76H164.313C163.263 174.76 162.412 175.612 162.412 176.664V180.066C162.412 181.117 163.263 181.969 164.313 181.969H305.189C306.239 181.969 307.09 181.117 307.09 180.066V176.664C307.09 175.612 306.239 174.76 305.189 174.76Z" fill="#D1DCF8"/>
<path d="M342.044 302.938H163.129C162.923 302.938 162.726 302.857 162.581 302.711C162.435 302.566 162.354 302.368 162.354 302.162V194.768C162.354 194.666 162.374 194.565 162.413 194.471C162.451 194.377 162.509 194.291 162.581 194.219C162.653 194.147 162.738 194.09 162.832 194.051C162.926 194.012 163.027 193.992 163.129 193.992H342.041C342.247 193.992 342.444 194.074 342.589 194.22C342.734 194.365 342.816 194.562 342.816 194.768V302.168C342.814 302.373 342.732 302.568 342.588 302.712C342.443 302.856 342.248 302.938 342.044 302.938ZM163.906 301.387H341.266V195.541H163.906V301.387Z" fill="#D1DCF8"/>
<path d="M342.044 214.73H163.129C162.923 214.73 162.726 214.648 162.581 214.502C162.436 214.357 162.354 214.159 162.354 213.954V194.768C162.354 194.666 162.374 194.565 162.413 194.471C162.451 194.377 162.509 194.291 162.581 194.219C162.653 194.147 162.738 194.09 162.832 194.051C162.926 194.012 163.027 193.992 163.129 193.992H342.041C342.247 193.992 342.444 194.074 342.589 194.22C342.734 194.365 342.816 194.562 342.816 194.768V213.954C342.816 214.159 342.735 214.356 342.59 214.501C342.445 214.647 342.249 214.729 342.044 214.73ZM163.906 213.177H341.266V195.545H163.906V213.177Z" fill="#D1DCF8"/>
<path d="M259.33 223.896H173.153C172.437 223.896 171.855 224.478 171.855 225.196V229.837C171.855 230.555 172.437 231.137 173.153 231.137H259.33C260.047 231.137 260.628 230.555 260.628 229.837V225.196C260.628 224.478 260.047 223.896 259.33 223.896Z" fill="#E4ECF9"/>
<path d="M332.021 223.896H293.146C292.429 223.896 291.848 224.478 291.848 225.196V229.837C291.848 230.555 292.429 231.137 293.146 231.137H332.021C332.738 231.137 333.319 230.555 333.319 229.837V225.196C333.319 224.478 332.738 223.896 332.021 223.896Z" fill="#E4ECF9"/>
<path d="M259.33 239.019H173.153C172.437 239.019 171.855 239.601 171.855 240.319V244.96C171.855 245.678 172.437 246.26 173.153 246.26H259.33C260.047 246.26 260.628 245.678 260.628 244.96V240.319C260.628 239.601 260.047 239.019 259.33 239.019Z" fill="#E4ECF9"/>
<path d="M332.021 239.019H293.146C292.429 239.019 291.848 239.601 291.848 240.319V244.96C291.848 245.678 292.429 246.26 293.146 246.26H332.021C332.738 246.26 333.319 245.678 333.319 244.96V240.319C333.319 239.601 332.738 239.019 332.021 239.019Z" fill="#E4ECF9"/>
<path d="M259.33 254.141H173.153C172.437 254.141 171.855 254.723 171.855 255.441V260.081C171.855 260.799 172.437 261.381 173.153 261.381H259.33C260.047 261.381 260.628 260.799 260.628 260.081V255.441C260.628 254.723 260.047 254.141 259.33 254.141Z" fill="#E4ECF9"/>
<path d="M332.021 254.141H293.146C292.429 254.141 291.848 254.723 291.848 255.441V260.081C291.848 260.799 292.429 261.381 293.146 261.381H332.021C332.738 261.381 333.319 260.799 333.319 260.081V255.441C333.319 254.723 332.738 254.141 332.021 254.141Z" fill="#E4ECF9"/>
<path d="M259.33 269.264H173.153C172.437 269.264 171.855 269.846 171.855 270.564V275.204C171.855 275.922 172.437 276.504 173.153 276.504H259.33C260.047 276.504 260.628 275.922 260.628 275.204V270.564C260.628 269.846 260.047 269.264 259.33 269.264Z" fill="#E4ECF9"/>
<path d="M332.021 269.264H293.146C292.429 269.264 291.848 269.846 291.848 270.564V275.204C291.848 275.922 292.429 276.504 293.146 276.504H332.021C332.738 276.504 333.319 275.922 333.319 275.204V270.564C333.319 269.846 332.738 269.264 332.021 269.264Z" fill="#E4ECF9"/>
<path d="M246.371 332.701H172.559C170.656 332.701 169.113 334.246 169.113 336.153V347.247C169.113 349.153 170.656 350.699 172.559 350.699H246.371C248.274 350.699 249.817 349.153 249.817 347.247V336.153C249.817 334.246 248.274 332.701 246.371 332.701Z" fill="#E4ECF9"/>
<path d="M434.752 429.97L424.172 437.24L418.02 434.529C418.02 434.529 417.867 429.45 417.744 421.908C417.682 416.213 417.59 411.133 417.59 410.824C417.59 410.055 433.389 410.978 434.127 411.226C434.434 411.318 434.588 414.799 434.649 418.989C434.812 425.198 434.752 429.416 434.752 429.97Z" fill="#FEC9AC"/>
<g opacity="0.5">
<path d="M434.659 418.98C429.915 421.236 424.691 422.294 419.444 422.061C418.878 422.04 418.314 421.988 417.753 421.907C417.692 416.211 417.6 411.132 417.6 410.823C417.6 410.054 433.398 410.977 434.136 411.225C434.444 411.315 434.598 414.792 434.659 418.98Z" fill="#FFAB90"/>
</g>
<path d="M440.037 441.777C439.963 442.238 439.725 442.657 439.366 442.957C439.008 443.256 438.554 443.415 438.087 443.405H390.476C390.072 443.405 389.677 443.283 389.343 443.054C389.01 442.825 388.753 442.501 388.607 442.123C387.896 440.19 386.941 436.609 389.156 435.084C392.244 432.968 398.784 434.921 403.294 431.727C407.783 428.553 413.166 417.749 419.625 425.094C419.625 425.094 424.825 433.069 428.36 431.379C431.894 429.688 434.535 420.961 438.781 424.298C440.915 425.989 440.728 437.668 440.037 441.777Z" fill="#2E363A"/>
<path d="M475.353 429.97L464.773 437.24L458.622 434.529C458.622 434.529 458.468 429.45 458.345 421.908C458.284 416.213 458.191 411.133 458.191 410.824C458.191 410.055 473.99 410.978 474.727 411.226C475.035 411.318 475.188 414.799 475.25 418.989C475.415 425.198 475.353 429.416 475.353 429.97Z" fill="#FEC9AC"/>
<g opacity="0.5">
<path d="M475.262 418.98C470.517 421.236 465.294 422.294 460.047 422.061C459.481 422.04 458.917 421.989 458.357 421.907C458.295 416.211 458.203 411.132 458.203 410.823C458.203 410.054 474.002 410.977 474.739 411.225C475.046 411.315 475.2 414.792 475.262 418.98Z" fill="#FFAB90"/>
</g>
<path d="M480.639 441.777C480.564 442.238 480.326 442.657 479.968 442.956C479.609 443.255 479.155 443.415 478.689 443.405H431.073C430.668 443.405 430.274 443.282 429.94 443.054C429.607 442.825 429.35 442.501 429.204 442.123C428.494 440.19 427.539 436.609 429.753 435.084C432.84 432.968 439.382 434.921 443.89 431.727C448.38 428.553 453.763 417.749 460.222 425.094C460.222 425.094 465.422 433.069 468.956 431.379C472.491 429.688 475.131 420.961 479.376 424.298C481.512 425.989 481.329 437.668 480.639 441.777Z" fill="#3A4146"/>
<path d="M409.502 206.567C409.502 206.567 396.323 218.561 380.185 215.913C379.885 215.866 379.588 215.8 379.296 215.716C366.433 212.218 339.739 177.537 331.708 164.12C331.708 164.12 322.359 163.21 322.633 158.23C323.028 151.235 329.617 146.611 329.617 146.611C329.617 146.611 318.963 133.726 322.179 131.237C325.395 128.748 336.543 145.958 336.543 145.958C336.543 145.958 336.622 140.248 339.995 139.002C343.388 137.778 339.679 152.064 339.679 152.064C339.679 152.064 380.881 183.288 384.387 186.232C385.433 185.224 393.266 180.541 397.96 177.774C400.052 176.529 401.512 175.679 401.512 175.679L409.502 206.567Z" fill="#FEC9AC"/>
<g opacity="0.5">
<path d="M409.501 206.567C409.501 206.567 396.321 218.561 380.183 215.913C379.883 215.866 379.587 215.8 379.295 215.716C385.115 210.835 389.436 204.155 392.396 197.081C394.364 192.338 395.789 187.397 396.948 182.398C397.303 180.856 397.638 179.315 397.954 177.774C400.045 176.529 401.506 175.679 401.506 175.679L409.501 206.567Z" fill="#FFAB90"/>
</g>
<path d="M383.834 186.43C383.438 186.509 383.399 186.43 383.596 186.232C383.756 186.33 383.834 186.41 383.834 186.43Z" fill="#FEC9AC"/>
<path d="M470.612 138.422C470.538 138.496 464.25 145.532 461.77 144.794C459.29 144.056 458.527 140.169 458.527 140.169L460.886 136.775L464.864 134.83L470.612 138.422Z" fill="#2E363A"/>
<path d="M407.183 416.092C407.183 421.332 439.639 421.332 439.639 416.092C439.639 415.229 435.087 357.48 435.087 357.48L451.15 416.034V416.092C451.576 420.561 480.676 417.78 480.247 413.312C480.746 413.189 481.319 377.505 481.033 341.759C480.817 308.795 479.89 275.713 477.673 270.386C477.673 270.386 413.259 255.117 404.105 269.734C403.748 270.386 403.39 271.096 403.244 271.924C399.319 290.093 407.183 416.092 407.183 416.092Z" fill="#3A4146"/>
<path d="M426.275 295.715C426.275 295.715 426.275 388.81 439.643 416.093C440.504 416.093 435.091 357.48 435.091 357.48L451.154 416.034C451.149 412.424 426.275 295.715 426.275 295.715Z" fill="#2E363A"/>
<path d="M404.107 269.734C413.974 270.859 422.982 275.712 429.844 281.81C437.208 288.438 442.355 296.487 447.145 304.536C451.935 312.643 456.51 320.87 463.015 328.149C467.877 333.654 473.881 338.506 481.03 341.76C480.815 308.796 479.887 275.714 477.67 270.387C477.672 270.386 413.258 255.117 404.107 269.734Z" fill="#2E363A"/>
<path d="M407.814 215.181C407.814 215.181 412.434 191.86 420.657 177.599L407.814 215.181Z" fill="#42C1F4"/>
<path d="M512.855 201.154C510.394 208.337 502.146 219.138 495.195 224.697C491.584 227.6 488.293 229.052 486.377 227.822L479.303 224.673L476.33 223.344L486.23 271.071C486.23 271.071 447.347 294.663 400.95 270.235C400.95 270.235 401.244 266.25 401.761 260.32C402.891 247.651 405.083 226.05 407.803 215.176H407.41L403.652 215.053C396.971 216.011 392.181 179.897 397.512 174.559C397.582 174.451 397.674 174.358 397.781 174.288C397.781 174.288 419.691 157.928 452.281 161.666C474.436 164.176 494.503 178.766 505.04 187.819C510.002 192.075 512.851 195.101 512.851 195.101C513.91 196.307 513.789 198.472 512.855 201.154Z" fill="#51C1A7"/>
<path d="M446.022 174.117C432.859 172.443 440.962 164.375 441.97 161.102C442.167 160.464 442.191 159.455 442.142 158.322C442.093 157.51 441.995 156.625 441.896 155.789C441.872 155.641 441.847 155.494 441.822 155.371C441.576 153.55 441.282 152.024 441.282 151.95L445.138 148.254L446.931 146.529L448.777 144.781H458.626L460.984 147.02L462.14 161.289L462.237 162.544L462.335 163.653C462.335 163.653 463.658 176.38 446.022 174.117Z" fill="#FEC9AC"/>
<path d="M462.232 162.554C461.463 161.789 460.816 160.909 460.317 159.946C459.657 158.67 459.26 157.274 459.151 155.842C459.041 154.409 459.22 152.969 459.678 151.607C457.172 153.701 454.446 155.55 451.425 156.797C448.503 158.052 445.284 158.667 442.141 158.322C442.092 157.51 441.994 156.625 441.895 155.789C441.871 155.641 441.846 155.494 441.821 155.371C441.575 153.55 441.281 152.024 441.281 151.95L445.137 148.254L446.93 146.529L448.776 144.781H458.625L460.983 147.02L462.139 161.289L462.232 162.554Z" fill="#F2BDA2"/>
<path d="M459.645 150.636C459.645 150.636 438.71 162.751 433.826 150.02C428.942 137.288 442.898 119.338 442.898 119.338L458.792 124.231C458.792 124.231 464.143 136.269 463.366 137.589C462.59 138.909 460.731 142.093 460.964 142.093C461.196 142.093 467.597 139.951 466.842 146.573C466.136 152.794 459.645 150.636 459.645 150.636Z" fill="#FEC9AC"/>
<path d="M445.9 138.746C445.632 139.663 446.064 140.594 446.862 140.83C447.66 141.065 448.526 140.511 448.795 139.598C449.063 138.685 448.631 137.749 447.831 137.514C447.032 137.279 446.167 137.829 445.9 138.746Z" fill="#4F2D2B"/>
<path d="M437.641 135.323C437.402 136.144 437.787 136.978 438.502 137.189C439.217 137.399 439.992 136.903 440.232 136.08C440.472 135.257 440.085 134.424 439.371 134.214C438.656 134.005 437.881 134.502 437.641 135.323Z" fill="#4F2D2B"/>
<path d="M439.848 145.338C439.762 145.431 438.953 144.919 437.906 143.358C437.787 143.177 437.685 142.984 437.602 142.784C437.556 142.649 437.538 142.505 437.551 142.362C437.563 142.22 437.605 142.081 437.675 141.956C437.891 141.575 438.14 141.305 438.372 140.97C438.843 140.341 439.31 139.696 439.812 139.122C441.023 137.767 441.704 137.16 441.819 137.258C441.935 137.355 441.46 138.13 440.343 139.568C439.831 140.155 439.396 140.763 438.942 141.366C438.73 141.664 438.46 141.976 438.293 142.263C438.228 142.411 438.222 142.443 438.255 142.551C438.326 142.705 438.408 142.853 438.501 142.994C439.381 144.535 439.978 145.218 439.848 145.338Z" fill="#4F2D2B"/>
<path d="M452.628 134.819C452.474 134.876 452.259 134.507 451.736 133.945C451.328 133.44 450.778 133.068 450.157 132.878C449.47 132.632 449.124 132.806 449.025 132.671C448.902 132.589 449.322 132.017 450.332 132.204C451.095 132.431 451.772 132.884 452.273 133.503C452.802 134.278 452.758 134.783 452.628 134.819Z" fill="#4F2D2B"/>
<path d="M438.948 128.921C438.873 128.818 439.14 128.403 440.006 128.279C440.37 128.264 440.734 128.323 441.075 128.452C441.417 128.58 441.73 128.776 441.995 129.026C442.277 129.338 442.43 129.643 442.428 129.925C442.425 130.207 442.24 130.286 442.189 130.238C442.074 130.115 442.079 129.978 441.519 129.533C441.321 129.345 441.088 129.199 440.833 129.103C440.578 129.007 440.306 128.963 440.034 128.974C439.382 128.948 439.023 129.071 438.948 128.921Z" fill="#4F2D2B"/>
<path d="M444.648 149.877C444.681 150 444.172 150.319 443.034 150.294C442.08 150.209 441.158 149.907 440.339 149.411C439.406 148.758 439.182 148.201 439.284 148.117C439.407 148.001 439.812 148.345 440.697 148.815C441.426 149.257 442.247 149.526 443.097 149.601C444.088 149.745 444.616 149.707 444.648 149.877Z" fill="#4F2D2B"/>
<path d="M460.959 142.088C459.873 142.688 459.36 144.621 459.214 146.737C459.091 148.731 457.078 140.021 458.107 135.052C457.246 132.464 456.314 129.787 455.381 128.286C452.998 124.4 448.582 126.154 443.247 124.497C440.015 123.494 432.807 120.045 433.495 115.1C434.207 110.131 438.801 115.149 441.65 111.114C444.5 107.078 450.149 104.915 455.454 113.354C455.454 113.354 470.732 108.359 473.335 122.973C476.751 142.088 465.939 139.338 460.959 142.088Z" fill="#2E363A"/>
<path d="M512.865 201.151C510.398 208.345 502.152 219.134 495.187 224.707C491.577 227.592 488.298 229.054 486.388 227.83L479.305 224.668L476.326 223.343L486.23 271.066C486.23 271.066 447.342 294.661 400.959 270.236C400.959 270.236 401.255 266.245 401.768 260.317C415.933 258.657 431.086 263.027 444.088 257.155C454.506 252.451 461.293 241.899 464.252 230.852C466.876 221.032 467.82 210.202 467.745 199.907C467.577 198.542 467.478 197.17 467.448 195.796C467.527 195.89 467.6 195.989 467.666 196.093C470.605 199.867 473.585 203.701 477.508 206.443C481.513 209.27 486.702 210.851 491.379 209.467C494.514 208.538 497.178 206.365 499.129 203.756C501.063 201.147 502.345 198.066 503.332 194.983C504.068 192.634 504.642 190.237 505.048 187.809C510.001 192.077 512.861 195.101 512.861 195.101C513.91 196.31 513.792 198.465 512.865 201.151Z" fill="#41B79B"/>
<path d="M486.97 258.378C486.97 258.378 470.464 275.797 464.888 259.044C461.058 247.481 483.433 246.693 483.433 246.693" fill="#FEC9AC"/>
<path d="M528.825 226.031C524.129 239.508 486.959 258.38 486.959 258.38L483.428 246.681L498.756 226.525L495.189 224.707C496.155 223.916 497.157 223.046 498.167 222.079C504.363 216.17 510.755 207.337 512.866 201.151C516.239 204.827 521.133 210.341 524.644 215.399C527.646 219.727 529.614 223.739 528.825 226.031Z" fill="#FEC9AC"/>
<path d="M418.373 194.868C414.836 197.673 409.549 210.92 407.656 215.029C407.565 215.06 407.481 215.11 407.41 215.176L403.652 215.053C396.971 216.012 392.181 179.897 397.512 174.559C398.273 192.59 406.831 193.625 418.373 194.868Z" fill="#41B79B"/>
<path d="M434.518 166.943C434.688 166.903 434.94 167.732 435.694 169.231C436.827 171.467 438.464 173.407 440.476 174.899C442.705 176.621 445.413 177.607 448.226 177.719C451.029 177.843 453.862 177.166 456.384 175.902C459.394 174.437 461.305 172.706 462.559 171.574C463.804 170.42 464.404 169.8 464.537 169.901C464.67 170.002 464.269 170.782 463.16 172.145C461.46 174.203 459.369 175.903 457.009 177.148C454.293 178.503 451.237 179.242 448.17 179.111C445.074 178.984 442.093 177.9 439.638 176.007C436.809 173.715 435.512 171.216 434.937 169.557C434.359 167.868 434.395 166.966 434.518 166.943Z" fill="white"/>
<path d="M32.6578 181.343C50.6941 181.343 65.3155 166.699 65.3155 148.633C65.3155 130.568 50.6941 115.923 32.6578 115.923C14.6214 115.923 0 130.568 0 148.633C0 166.699 14.6214 181.343 32.6578 181.343Z" fill="#71C687"/>
<path d="M32.6587 164.01C33.8986 164.01 35.0876 163.517 35.9643 162.639C36.8411 161.76 37.3336 160.569 37.3336 159.328V149.45C37.343 149.17 37.4608 148.905 37.662 148.71C37.8632 148.515 38.132 148.406 38.4119 148.406C38.6917 148.406 38.9606 148.515 39.1618 148.71C39.363 148.905 39.4807 149.17 39.4902 149.45V159.328C39.4562 161.119 38.722 162.825 37.4452 164.08C36.1684 165.335 34.4511 166.038 32.6624 166.038C30.8737 166.038 29.1564 165.335 27.8796 164.08C26.6028 162.825 25.8686 161.119 25.8346 159.328C25.8297 159.183 25.854 159.038 25.906 158.903C25.958 158.768 26.0366 158.644 26.1372 158.54C26.2378 158.436 26.3584 158.353 26.4916 158.296C26.6249 158.24 26.7681 158.21 26.9129 158.21C27.0577 158.21 27.2009 158.24 27.3342 158.296C27.4674 158.353 27.588 158.436 27.6886 158.54C27.7892 158.644 27.8678 158.768 27.9198 158.903C27.9718 159.038 27.9961 159.183 27.9912 159.328C27.9912 160.568 28.4827 161.758 29.3578 162.636C30.2329 163.514 31.4201 164.008 32.6587 164.01Z" fill="white"/>
<path d="M45.2359 149.454V159.331C45.2359 162.673 43.9107 165.877 41.5519 168.24C39.1931 170.602 35.9939 171.929 32.658 171.929C29.3221 171.929 26.1229 170.602 23.7641 168.24C21.4053 165.877 20.0801 162.673 20.0801 159.331V149.454C20.0764 146.955 20.8173 144.512 22.2078 142.437C23.5984 140.362 25.5754 138.749 27.8859 137.806C28.0171 137.747 28.1589 137.714 28.3028 137.711C28.4468 137.708 28.5899 137.733 28.7237 137.787C28.8575 137.84 28.9793 137.919 29.0818 138.021C29.1843 138.122 29.2655 138.243 29.3204 138.376C29.3753 138.509 29.403 138.652 29.4017 138.796C29.4003 138.941 29.3701 139.083 29.3127 139.215C29.2553 139.348 29.172 139.467 29.0676 139.566C28.9633 139.666 28.84 139.743 28.7053 139.794C26.7912 140.578 25.1539 141.916 24.0019 143.637C22.8499 145.357 22.2354 147.382 22.2367 149.454V159.331C22.2665 162.08 23.3777 164.706 25.3289 166.64C27.2802 168.573 29.914 169.657 32.6586 169.657C35.4032 169.657 38.0371 168.573 39.9883 166.64C41.9396 164.706 43.0507 162.08 43.0805 159.331V149.454C43.0786 146.686 41.9798 144.032 40.0256 142.075C38.0714 140.118 35.4215 139.018 32.658 139.016C32.3783 139.007 32.1132 138.889 31.9187 138.687C31.7242 138.486 31.6155 138.216 31.6155 137.936C31.6155 137.656 31.7242 137.386 31.9187 137.185C32.1132 136.983 32.3783 136.865 32.658 136.856C35.9928 136.86 39.1899 138.188 41.548 140.55C43.906 142.912 45.2323 146.114 45.2359 149.454Z" fill="white"/>
<path d="M13.4678 138.857C11.6789 142.102 10.7394 145.747 10.7367 149.454V153.255C10.7272 153.535 10.6095 153.801 10.4083 153.996C10.2071 154.191 9.93822 154.299 9.65838 154.299C9.37854 154.299 9.10965 154.191 8.90846 153.996C8.70727 153.801 8.58953 153.535 8.58008 153.255V149.454C8.57979 145.379 9.61401 141.371 11.5855 137.806C11.653 137.679 11.7449 137.568 11.856 137.477C11.967 137.387 12.0949 137.319 12.2323 137.279C12.3696 137.238 12.5136 137.226 12.6559 137.242C12.7982 137.258 12.9359 137.302 13.0609 137.372C13.1859 137.442 13.2958 137.536 13.3842 137.648C13.4725 137.761 13.5375 137.891 13.5754 138.029C13.6133 138.167 13.6233 138.312 13.6048 138.454C13.5863 138.596 13.5397 138.733 13.4678 138.857Z" fill="white"/>
<path d="M56.7366 149.454C56.7366 149.74 56.623 150.015 56.4209 150.217C56.2188 150.42 55.9447 150.533 55.6589 150.533C55.3731 150.533 55.099 150.42 54.8969 150.217C54.6948 150.015 54.5812 149.74 54.5812 149.454C54.5812 137.345 44.748 127.497 32.6585 127.497C26.9537 127.492 21.4737 129.725 17.3925 133.718C17.1879 133.918 16.9122 134.029 16.626 134.026C16.3398 134.023 16.0666 133.906 15.8664 133.701C15.6662 133.496 15.5555 133.22 15.5587 132.933C15.5618 132.647 15.6785 132.373 15.883 132.172C20.366 127.782 26.3887 125.327 32.6585 125.334C45.9413 125.337 56.7366 136.165 56.7366 149.454Z" fill="white"/>
<path d="M50.9861 149.454V159.331C50.99 160.692 50.8406 162.049 50.5408 163.377C50.4872 163.616 50.3544 163.83 50.1639 163.985C49.9734 164.139 49.7364 164.224 49.4914 164.227C49.4086 164.224 49.3263 164.214 49.2453 164.197C49.1069 164.166 48.976 164.108 48.8604 164.026C48.7447 163.944 48.6465 163.84 48.5716 163.719C48.4967 163.598 48.4465 163.464 48.4241 163.324C48.4016 163.184 48.4073 163.04 48.4408 162.902C48.6993 161.729 48.8297 160.531 48.8295 159.329V149.451C48.8249 145.157 47.1196 141.04 44.0878 138.004C41.056 134.968 36.9454 133.261 32.6581 133.257C23.7463 133.257 16.4867 140.527 16.4867 149.454V159.331C16.4912 160.395 16.597 161.455 16.8029 162.498C16.8353 162.639 16.8391 162.785 16.8141 162.927C16.789 163.07 16.7357 163.206 16.6572 163.327C16.5787 163.449 16.4766 163.553 16.3571 163.634C16.2376 163.715 16.103 163.771 15.9613 163.799C15.8197 163.827 15.6738 163.827 15.5325 163.797C15.3911 163.767 15.2572 163.71 15.1385 163.627C15.0199 163.545 14.919 163.439 14.8418 163.317C14.7646 163.195 14.7128 163.058 14.6893 162.916C14.4486 161.736 14.3282 160.535 14.3301 159.331V149.454C14.3301 139.333 22.553 131.094 32.6606 131.094C42.7682 131.094 50.9861 139.333 50.9861 149.454Z" fill="white"/>
<path d="M32.6578 160.727C32.5162 160.728 32.3759 160.7 32.245 160.646C32.1141 160.592 31.9951 160.512 31.895 160.412C31.7949 160.312 31.7155 160.193 31.6615 160.061C31.6074 159.93 31.5798 159.79 31.5801 159.648V149.123C31.5895 148.842 31.7073 148.577 31.9085 148.382C32.1096 148.187 32.3785 148.078 32.6584 148.078C32.9382 148.078 33.2071 148.187 33.4083 148.382C33.6095 148.577 33.7272 148.842 33.7367 149.123V159.65C33.7377 159.792 33.7104 159.933 33.6565 160.065C33.6026 160.196 33.5231 160.315 33.4226 160.416C33.3222 160.516 33.2029 160.595 33.0715 160.649C32.9402 160.702 32.7995 160.729 32.6578 160.727Z" fill="white"/>
<path d="M37.1716 144.314C37.3869 144.503 37.5185 144.77 37.5375 145.056C37.5564 145.342 37.4611 145.624 37.2725 145.84C37.0839 146.056 36.8175 146.187 36.5318 146.206C36.2462 146.225 35.9648 146.13 35.7494 145.941C35.0745 145.346 34.2426 144.959 33.3536 144.826C32.4645 144.692 31.5559 144.819 30.7367 145.189C29.9175 145.56 29.2223 146.16 28.7346 146.916C28.2468 147.672 27.9872 148.554 27.9867 149.454V154.393C27.9772 154.673 27.8595 154.938 27.6583 155.133C27.4571 155.328 27.1882 155.437 26.9084 155.437C26.6285 155.437 26.3596 155.328 26.1585 155.133C25.9573 154.938 25.8395 154.673 25.8301 154.393V149.454C25.8316 148.139 26.2113 146.852 26.9238 145.747C27.6363 144.642 28.6514 143.767 29.8477 143.225C31.044 142.682 32.371 142.497 33.6698 142.69C34.9686 142.883 36.1843 143.447 37.1716 144.314Z" fill="white"/>
<path d="M93.3583 60.6417C110.077 60.6417 123.631 47.0666 123.631 30.3208C123.631 13.5751 110.077 0 93.3583 0C76.6393 0 63.0859 13.5751 63.0859 30.3208C63.0859 47.0666 76.6393 60.6417 93.3583 60.6417Z" fill="#F3F6FD"/>
<path d="M116.553 32.2665V36.9833C116.551 37.0673 116.532 37.1501 116.498 37.2267C116.463 37.3034 116.414 37.3724 116.353 37.4297C116.292 37.4871 116.22 37.5317 116.141 37.5608C116.062 37.5899 115.979 37.6031 115.895 37.5994H111.664C111.346 37.0129 110.876 36.5232 110.303 36.182C109.731 35.8407 109.077 35.6606 108.411 35.6606C107.744 35.6606 107.09 35.8407 106.518 36.182C105.945 36.5232 105.475 37.0129 105.157 37.5994H98.252V20.2254C98.2532 20.0031 98.3419 19.7903 98.4987 19.633C98.6555 19.4757 98.8678 19.3866 99.0897 19.385H107.512C107.686 19.3868 107.856 19.4362 108.004 19.5279C108.152 19.6195 108.272 19.7499 108.351 19.905L112.681 29.7195C112.767 29.8677 112.888 29.9914 113.035 30.079C113.182 30.1666 113.348 30.2151 113.519 30.2198H114.535C114.803 30.2193 115.067 30.272 115.314 30.375C115.561 30.478 115.784 30.6292 115.972 30.8197C116.16 31.0102 116.308 31.2362 116.408 31.4846C116.507 31.733 116.557 31.9988 116.553 32.2665Z" fill="#42C1F4"/>
<path d="M98.2505 18.1134V37.6032H84.44C84.1221 37.0167 83.6521 36.527 83.0794 36.1857C82.5068 35.8445 81.8529 35.6643 81.1866 35.6643C80.5203 35.6643 79.8664 35.8445 79.2938 36.1857C78.7212 36.527 78.2511 37.0167 77.9333 37.6032H72.9447C72.8708 37.605 72.7972 37.5919 72.7286 37.5644C72.6599 37.537 72.5975 37.4959 72.5452 37.4436C72.4928 37.3912 72.4517 37.3288 72.4241 37.2601C72.3966 37.1914 72.3832 37.1178 72.3849 37.0438V18.1134C72.3832 18.0394 72.3966 17.9658 72.4241 17.8971C72.4517 17.8284 72.4928 17.766 72.5452 17.7136C72.5975 17.6613 72.6599 17.6202 72.7286 17.5928C72.7972 17.5653 72.8708 17.5522 72.9447 17.554H97.692C97.8392 17.5571 97.9794 17.6171 98.0835 17.7213C98.1876 17.8256 98.2474 17.966 98.2505 18.1134Z" fill="#41B79B"/>
<path d="M101.033 22.3164V28.8988C101.034 28.9682 101.062 29.0346 101.111 29.0837C101.16 29.1328 101.226 29.1607 101.295 29.1613H109.262C109.307 29.1607 109.351 29.1486 109.39 29.1261C109.429 29.1037 109.462 29.0715 109.485 29.0329C109.508 28.9942 109.521 28.9502 109.522 28.9052C109.523 28.8602 109.513 28.8156 109.492 28.7756L106.713 22.1944C106.69 22.1524 106.656 22.1174 106.615 22.0929C106.574 22.0684 106.527 22.0554 106.479 22.0552H101.295C101.226 22.0555 101.16 22.0831 101.111 22.132C101.062 22.1808 101.034 22.2471 101.033 22.3164Z" fill="white"/>
<path d="M112.161 36.8687C112.161 37.8655 111.765 38.8214 111.062 39.5262C110.358 40.231 109.404 40.627 108.408 40.627C107.413 40.627 106.459 40.231 105.755 39.5262C105.052 38.8214 104.656 37.8655 104.656 36.8687C104.656 36.2219 104.829 35.5868 105.156 35.0291C105.474 34.4425 105.944 33.9528 106.516 33.6116C107.089 33.2703 107.743 33.0902 108.409 33.0902C109.075 33.0902 109.729 33.2703 110.302 33.6116C110.875 33.9528 111.345 34.4425 111.662 35.0291C111.989 35.5869 112.161 36.222 112.161 36.8687Z" fill="#2E363A"/>
<path d="M84.938 36.8687C84.938 37.8655 84.5427 38.8214 83.839 39.5262C83.1354 40.231 82.181 40.627 81.1858 40.627C80.1907 40.627 79.2363 40.231 78.5326 39.5262C77.8289 38.8214 77.4336 37.8655 77.4336 36.8687C77.4314 36.2226 77.6012 35.5875 77.9257 35.0291C78.2436 34.4425 78.7136 33.9528 79.2862 33.6116C79.8588 33.2703 80.5128 33.0902 81.1791 33.0902C81.8454 33.0902 82.4993 33.2703 83.0719 33.6116C83.6445 33.9528 84.1145 34.4425 84.4324 35.0291C84.7622 35.586 84.9368 36.2213 84.938 36.8687Z" fill="#2E363A"/>
<path d="M108.412 38.4681C108.731 38.4699 109.043 38.3766 109.308 38.2003C109.574 38.024 109.782 37.7726 109.904 37.478C110.027 37.1833 110.06 36.8588 109.998 36.5456C109.936 36.2324 109.783 35.9446 109.557 35.7189C109.332 35.4931 109.045 35.3396 108.732 35.2777C108.419 35.2159 108.095 35.2485 107.801 35.3714C107.507 35.4944 107.256 35.7022 107.08 35.9683C106.904 36.2345 106.811 36.547 106.813 36.8663C106.815 37.2904 106.984 37.6966 107.283 37.9965C107.583 38.2964 107.988 38.4659 108.412 38.4681Z" fill="white"/>
<path d="M81.1872 38.4681C81.506 38.4699 81.818 38.3766 82.0838 38.2003C82.3495 38.024 82.5569 37.7726 82.6797 37.478C82.8024 37.1833 82.835 36.8588 82.7732 36.5456C82.7115 36.2324 82.5582 35.9446 82.3328 35.7189C82.1074 35.4931 81.8201 35.3396 81.5074 35.2777C81.1947 35.2159 80.8707 35.2485 80.5765 35.3714C80.2824 35.4944 80.0313 35.7022 79.8553 35.9683C79.6793 36.2345 79.5862 36.547 79.5879 36.8663C79.5899 37.2905 79.759 37.6968 80.0585 37.9968C80.358 38.2968 80.7637 38.4662 81.1872 38.4681Z" fill="white"/>
<path d="M442.843 77.9431C451.996 68.7757 451.996 53.9123 442.843 44.7449C433.69 35.5774 418.85 35.5774 409.698 44.7449C400.545 53.9123 400.545 68.7757 409.698 77.9431C418.85 87.1106 433.69 87.1106 442.843 77.9431Z" fill="#F3F6FD"/>
<path d="M431.457 56.9848C432.528 54.3951 431.3 51.4261 428.714 50.3534C426.129 49.2807 423.164 50.5105 422.093 53.1002C421.022 55.6899 422.25 58.6589 424.836 59.7316C427.421 60.8043 430.386 59.5745 431.457 56.9848Z" fill="#41B79B"/>
<path d="M416.336 71.5577H436.195C436.772 71.5577 437.257 71.0118 437.074 70.4339C435.741 65.7269 431.435 62.2349 426.28 62.2349C423.832 62.2389 421.451 63.0411 419.498 64.5203C417.545 65.9995 416.125 68.0753 415.454 70.4339C415.421 70.5678 415.419 70.7074 415.448 70.8422C415.477 70.977 415.536 71.1034 415.621 71.2118C415.706 71.3202 415.815 71.4077 415.939 71.4676C416.063 71.5276 416.199 71.5584 416.336 71.5577Z" fill="#41B79B"/>
<path d="M32.8927 307.645C33.5294 303.717 30.866 300.015 26.944 299.378C23.022 298.74 19.3265 301.408 18.6898 305.336C18.0532 309.264 20.7165 312.966 24.6386 313.603C28.5606 314.241 32.2561 311.573 32.8927 307.645Z" fill="#BBCAEA"/>
<path d="M84.7296 435.201C104.74 435.201 120.961 432.742 120.961 429.71C120.961 426.678 104.74 424.219 84.7296 424.219C64.7195 424.219 48.498 426.678 48.498 429.71C48.498 432.742 64.7195 435.201 84.7296 435.201Z" fill="#FFD964"/>
<path d="M48.4961 438.509C48.4961 441.542 64.7179 444 84.7289 444C104.74 444 120.96 441.542 120.96 438.509V429.71C120.96 432.743 104.739 435.201 84.7289 435.201C64.7192 435.201 48.4961 432.743 48.4961 429.71V438.509Z" fill="#FCC230"/>
<path d="M84.7296 424.78C104.74 424.78 120.961 422.322 120.961 419.289C120.961 416.257 104.74 413.799 84.7296 413.799C64.7195 413.799 48.498 416.257 48.498 419.289C48.498 422.322 64.7195 424.78 84.7296 424.78Z" fill="#FFD964"/>
<path d="M48.4961 428.089C48.4961 431.12 64.7179 433.578 84.7289 433.578C104.74 433.578 120.96 431.12 120.96 428.089V419.289C120.96 422.322 104.739 424.78 84.7289 424.78C64.7192 424.78 48.4961 422.322 48.4961 419.289V428.089Z" fill="#FCC230"/>
<path d="M48.4961 417.667C48.4961 420.699 64.7179 423.157 84.7289 423.157C104.74 423.157 120.96 420.699 120.96 417.667V408.867C120.96 411.9 104.739 414.358 84.7289 414.358C64.7192 414.358 48.4961 411.894 48.4961 408.867V417.667Z" fill="#FCC230"/>
<path d="M84.7296 414.358C104.74 414.358 120.961 411.9 120.961 408.867C120.961 405.835 104.74 403.377 84.7296 403.377C64.7195 403.377 48.498 405.835 48.498 408.867C48.498 411.9 64.7195 414.358 84.7296 414.358Z" fill="#FFD964"/>
<path d="M92.6476 401.723C112.658 401.723 128.879 399.265 128.879 396.232C128.879 393.2 112.658 390.742 92.6476 390.742C72.6375 390.742 56.416 393.2 56.416 396.232C56.416 399.265 72.6375 401.723 92.6476 401.723Z" fill="#FFD964"/>
<path d="M56.416 405.032C56.416 408.064 72.6366 410.522 92.6476 410.522C112.659 410.522 128.879 408.063 128.879 405.032V396.234C128.879 399.266 112.657 401.724 92.6476 401.724C72.6379 401.724 56.416 399.26 56.416 396.234V405.032Z" fill="#FCC230"/>
<path d="M64.0957 392.397C64.0957 395.429 80.3163 397.887 100.327 397.887C120.338 397.887 136.559 395.423 136.559 392.397V383.599C136.559 386.63 120.337 389.088 100.327 389.088C80.3176 389.088 64.0957 386.63 64.0957 383.599V392.397Z" fill="#FCC230"/>
<path d="M100.331 389.088C120.341 389.088 136.563 386.63 136.563 383.597C136.563 380.565 120.341 378.107 100.331 378.107C80.321 378.107 64.0996 380.565 64.0996 383.597C64.0996 386.63 80.321 389.088 100.331 389.088Z" fill="#FFD964"/>
<path d="M133.332 442.773C151.831 442.773 166.827 427.753 166.827 409.225C166.827 390.697 151.831 375.677 133.332 375.677C114.834 375.677 99.8379 390.697 99.8379 409.225C99.8379 427.753 114.834 442.773 133.332 442.773Z" fill="#FFCF3D"/>
<path d="M152.877 428.801C163.672 417.989 163.672 400.46 152.877 389.648C142.083 378.836 124.582 378.836 113.787 389.648C102.993 400.46 102.993 417.989 113.787 428.801C124.582 439.612 142.083 439.612 152.877 428.801Z" fill="#FFD964"/>
<path d="M139.9 416.601C139.333 417.434 138.551 418.096 137.637 418.518C136.659 418.994 135.527 419.269 134.241 419.344V421.33C134.245 421.441 134.225 421.552 134.185 421.656C134.144 421.759 134.082 421.854 134.004 421.932C133.835 422.083 133.617 422.168 133.391 422.171C133.165 422.173 132.946 422.094 132.773 421.947C132.693 421.867 132.63 421.771 132.589 421.664C132.548 421.558 132.53 421.445 132.536 421.331V419.345C130.594 419.23 128.686 418.786 126.893 418.03C126.665 417.934 126.471 417.773 126.333 417.568C126.172 417.344 126.094 417.07 126.112 416.794C126.13 416.519 126.243 416.258 126.432 416.056C126.536 415.942 126.663 415.851 126.805 415.791C126.948 415.73 127.101 415.701 127.256 415.706C127.438 415.706 127.619 415.744 127.786 415.818C129.285 416.488 130.896 416.868 132.536 416.938V410.501C131.442 410.224 130.373 409.86 129.337 409.411C128.494 409.036 127.751 408.465 127.172 407.745C126.594 407.028 126.307 406.118 126.311 405.017C126.304 404.074 126.55 403.146 127.023 402.331C127.499 401.509 128.207 400.828 129.148 400.286C130.089 399.745 131.22 399.416 132.542 399.301V397.343C132.539 397.229 132.559 397.117 132.6 397.011C132.64 396.905 132.702 396.809 132.78 396.726C132.856 396.644 132.949 396.578 133.052 396.535C133.156 396.491 133.268 396.47 133.38 396.473C133.494 396.473 133.606 396.495 133.711 396.539C133.816 396.583 133.911 396.647 133.991 396.727C134.071 396.808 134.134 396.904 134.177 397.009C134.22 397.115 134.242 397.228 134.241 397.341V399.272C136.068 399.346 137.688 399.654 139.103 400.195C139.625 400.382 139.885 400.756 139.885 401.315C139.885 401.614 139.776 401.902 139.579 402.126C139.481 402.245 139.357 402.341 139.216 402.405C139.076 402.469 138.923 402.5 138.768 402.496C138.614 402.485 138.462 402.447 138.321 402.384C137.007 401.926 135.631 401.672 134.241 401.628V408.288C135.381 408.542 136.498 408.888 137.581 409.325C138.448 409.685 139.212 410.256 139.802 410.988C140.398 411.727 140.696 412.702 140.696 413.913C140.706 414.869 140.429 415.805 139.9 416.601ZM129.79 406.722C130.414 407.17 131.332 407.553 132.542 407.871V401.709C131.425 401.859 130.531 402.199 129.86 402.73C129.539 402.972 129.28 403.288 129.105 403.65C128.93 404.013 128.844 404.412 128.854 404.815C128.851 405.639 129.163 406.275 129.79 406.722ZM138.186 413.746C138.186 413.017 137.856 412.453 137.195 412.053C136.534 411.653 135.55 411.275 134.242 410.919V416.935C136.868 416.749 138.182 415.686 138.182 413.747L138.186 413.746Z" fill="#FCC230"/>
<path d="M296.652 336.813C295.538 335.474 294.982 333.769 294.982 331.698C294.983 329.627 295.54 327.923 296.652 326.585C297.762 325.244 299.338 324.574 301.38 324.574C303.421 324.574 304.997 325.244 306.109 326.585C307.221 327.924 307.777 329.628 307.777 331.698C307.777 333.768 307.221 335.473 306.109 336.813C304.995 338.154 303.419 338.824 301.38 338.824C299.341 338.824 297.765 338.154 296.652 336.813ZM304.042 334.965C304.678 334.115 304.996 333.027 304.995 331.701C304.994 330.374 304.677 329.286 304.042 328.437C303.405 327.588 302.518 327.164 301.38 327.164C300.241 327.164 299.354 327.588 298.717 328.437C298.081 329.287 297.763 330.375 297.763 331.701C297.763 333.026 298.081 334.115 298.717 334.965C299.354 335.814 300.241 336.239 301.38 336.239C302.518 336.239 303.405 335.813 304.042 334.962V334.965ZM300.467 353.055C300.338 352.936 300.235 352.791 300.167 352.63C300.098 352.469 300.064 352.295 300.068 352.119C300.068 351.879 300.138 351.645 300.267 351.443L316.44 325.531C316.551 325.335 316.712 325.173 316.907 325.061C317.101 324.949 317.323 324.892 317.547 324.895C317.899 324.88 318.245 324.993 318.52 325.213C318.646 325.321 318.745 325.455 318.811 325.607C318.876 325.759 318.906 325.924 318.898 326.089C318.892 326.402 318.795 326.706 318.62 326.964L302.566 352.717C302.435 352.927 302.258 353.104 302.049 353.235C301.847 353.364 301.613 353.433 301.373 353.433C301.205 353.432 301.038 353.399 300.882 353.333C300.727 353.268 300.585 353.172 300.467 353.052V353.055ZM312.785 351.741C311.671 350.402 311.115 348.697 311.116 346.626C311.116 344.555 311.673 342.851 312.785 341.513C313.897 340.174 315.474 339.503 317.514 339.502C319.555 339.5 321.131 340.17 322.242 341.513C323.356 342.852 323.912 344.557 323.911 346.626C323.911 348.696 323.354 350.401 322.242 351.741C321.13 353.082 319.554 353.752 317.514 353.751C315.474 353.75 313.898 353.079 312.785 351.739V351.741ZM320.176 349.893C320.811 349.045 321.129 347.957 321.13 346.629C321.131 345.3 320.813 344.213 320.176 343.366C319.54 342.516 318.652 342.092 317.514 342.092C316.376 342.092 315.488 342.516 314.852 343.366C314.215 344.215 313.897 345.303 313.897 346.629C313.897 347.955 314.215 349.043 314.852 349.893C315.487 350.742 316.374 351.167 317.514 351.167C318.654 351.167 319.542 350.741 320.176 349.888V349.893Z" fill="#4A5258"/>
<path fill-rule="evenodd" clip-rule="evenodd" d="M222.111 107.345C221.187 107.69 220.461 108.362 219.766 109.259C219.272 109.896 219.004 110.766 219.004 111.986C218.869 114.166 220.561 115.693 221.879 117.197L223.864 119.358L224.217 118.996C224.433 118.774 224.793 118.785 224.997 119.018L225.12 119.159C225.298 119.364 225.292 119.672 225.106 119.869L224.473 120.541C224.113 120.923 223.502 120.916 223.151 120.525L220.989 118.116C219.114 116.019 217.769 114.756 217.612 112.067C217.538 110.81 217.965 109.609 218.645 108.483C219.147 107.651 220.434 106.439 221.662 105.981C222.894 105.521 224.294 105.452 225.924 105.859C228.636 106.612 230.429 109.594 230.31 111.988C230.259 113.021 230.028 114.157 229.288 115.321C228.453 116.406 227.783 117.199 226.819 118.105C226.403 118.495 225.759 118.508 225.375 118.085L223.926 116.487C223.867 116.549 223.819 116.6 223.773 116.649C223.524 116.916 223.1 116.92 222.855 116.648L222.798 116.584C222.592 116.355 222.588 116.005 222.797 115.778C222.856 115.714 222.925 115.641 223.028 115.53L222.07 114.451C220.826 113.128 220.225 111.412 221.374 109.786C222.001 108.897 223.031 108.483 224.006 108.483C224.981 108.483 225.974 108.926 226.576 109.829C226.903 110.319 227.106 110.806 227.147 111.426C227.229 112.048 227.044 112.736 226.699 113.311C226.148 114.105 225.51 114.708 224.841 115.464L225.752 116.487C225.975 116.738 226.353 116.729 226.599 116.499C227.222 115.918 227.726 115.322 228.146 114.695C228.796 113.727 228.927 112.505 228.985 111.835C229.138 110.074 227.738 107.813 225.447 107.182C224.038 106.83 223.031 107.002 222.111 107.345ZM223.946 114.47C224.7 113.644 224.865 113.474 225.332 112.965C225.781 112.476 225.853 111.845 225.801 111.458C225.761 111.153 225.617 110.828 225.447 110.573C225.154 110.133 224.612 109.876 224.006 109.876C223.4 109.876 222.835 110.133 222.514 110.588C221.875 111.493 221.948 112.354 223.028 113.474L223.946 114.47Z" fill="#33A78C"/>
<mask id="mask0_674_1635" style="mask-type:alpha" maskUnits="userSpaceOnUse" x="217" y="105" width="14" height="17">
<path fill-rule="evenodd" clip-rule="evenodd" d="M222.009 107.294C221.085 107.639 220.46 108.371 219.765 109.267C219.271 109.904 218.936 110.838 219.003 111.986C218.858 114.026 220.386 115.604 221.908 117.183L224.722 120.339L223.804 121.255L220.97 118.099C219.417 116.488 217.667 114.658 217.611 112.067C217.537 110.81 217.83 109.588 218.696 108.391C219.562 107.194 220.26 106.622 221.485 106.029C222.717 105.569 224.167 105.472 225.797 105.879C228.999 106.678 230.495 109.847 230.309 111.988C230.22 113.019 229.943 114.296 229.259 115.316C228.796 116.007 227.92 116.981 227.14 117.787C226.663 118.417 225.894 118.805 225.076 117.749L223.936 116.484C223.857 116.564 223.799 116.622 223.748 116.672C223.504 116.914 223.107 116.911 222.868 116.663L222.864 116.658L222.799 116.587C222.588 116.355 222.586 116 222.801 115.771C222.864 115.704 222.93 115.634 223.027 115.53L222.071 114.475C220.848 113.253 220.224 111.412 221.373 109.786C222 108.897 223.029 108.483 224.005 108.483C224.98 108.483 225.967 108.923 226.569 109.826C226.895 110.316 227.188 111.078 227.149 111.67C227.149 112.335 227.009 112.798 226.663 113.373C226.048 114.182 225.62 114.617 224.842 115.469L225.814 116.55C225.973 116.723 226.385 116.722 226.545 116.55C227.184 115.926 227.69 115.351 228.127 114.699C228.776 113.731 228.861 112.538 228.919 111.868C229.059 110.259 227.856 107.854 225.5 107.2C224.357 106.828 222.929 106.95 222.009 107.294ZM223.945 114.47C224.821 113.473 225.015 113.367 225.423 112.858C225.927 112.114 225.767 111.706 225.785 111.426C225.803 111.161 225.616 110.828 225.446 110.573C225.153 110.133 224.611 109.876 224.005 109.876C223.399 109.876 222.834 110.133 222.513 110.588C221.874 111.493 221.99 112.521 223.07 113.498L223.945 114.47Z" fill="url(#paint0_linear_674_1635)"/>
</mask>
<g mask="url(#mask0_674_1635)">
<path d="M222.436 116.181L222.731 115.849L222.875 115.691L223.026 115.529L223.924 116.487L223.765 116.658L223.615 116.817L223.315 117.162L222.436 116.181Z" fill="url(#paint1_linear_674_1635)" fill-opacity="0.8"/>
<path d="M226.172 113.985L225.648 114.582L225.238 115.026L224.841 115.464L223.945 114.47L225.169 113.128L226.172 113.985Z" fill="url(#paint2_linear_674_1635)" fill-opacity="0.8"/>
</g>
<path d="M235.333 117.233C235.043 117.233 234.821 117.153 234.669 116.993C234.516 116.833 234.439 116.608 234.439 116.318V109.967C234.439 109.669 234.516 109.444 234.669 109.291C234.829 109.139 235.054 109.063 235.345 109.063H238.13C239.031 109.063 239.726 109.291 240.215 109.749C240.704 110.199 240.949 110.829 240.949 111.637C240.949 112.446 240.704 113.079 240.215 113.537C239.726 113.995 239.031 114.224 238.13 114.224H236.216V116.318C236.216 116.608 236.139 116.833 235.987 116.993C235.841 117.153 235.624 117.233 235.333 117.233ZM236.216 112.85H237.832C238.29 112.85 238.638 112.747 238.875 112.541C239.119 112.335 239.241 112.034 239.241 111.637C239.241 111.241 239.119 110.943 238.875 110.745C238.638 110.546 238.29 110.447 237.832 110.447H236.216V112.85ZM242.543 117.222C242.26 117.222 242.042 117.142 241.889 116.982C241.744 116.814 241.672 116.581 241.672 116.284V112.37C241.672 112.065 241.744 111.832 241.889 111.672C242.042 111.504 242.26 111.42 242.543 111.42C242.818 111.42 243.028 111.504 243.173 111.672C243.326 111.832 243.402 112.065 243.402 112.37V116.284C243.402 116.581 243.33 116.814 243.184 116.982C243.039 117.142 242.825 117.222 242.543 117.222ZM242.543 110.482C242.222 110.482 241.973 110.409 241.798 110.264C241.63 110.112 241.546 109.898 241.546 109.623C241.546 109.341 241.63 109.127 241.798 108.982C241.973 108.83 242.222 108.754 242.543 108.754C242.864 108.754 243.108 108.83 243.276 108.982C243.444 109.127 243.528 109.341 243.528 109.623C243.528 109.898 243.444 110.112 243.276 110.264C243.108 110.409 242.864 110.482 242.543 110.482ZM245.38 117.233C245.097 117.233 244.879 117.157 244.727 117.005C244.581 116.852 244.509 116.635 244.509 116.352V112.29C244.509 112.007 244.581 111.794 244.727 111.649C244.879 111.496 245.09 111.42 245.357 111.42C245.632 111.42 245.842 111.496 245.987 111.649C246.132 111.794 246.205 112.007 246.205 112.29V112.942L246.079 112.564C246.255 112.191 246.515 111.904 246.858 111.706C247.21 111.5 247.607 111.397 248.05 111.397C248.501 111.397 248.872 111.485 249.162 111.66C249.452 111.828 249.67 112.088 249.815 112.438C249.96 112.782 250.033 113.22 250.033 113.755V116.352C250.033 116.635 249.956 116.852 249.804 117.005C249.658 117.157 249.444 117.233 249.162 117.233C248.887 117.233 248.673 117.157 248.52 117.005C248.375 116.852 248.302 116.635 248.302 116.352V113.835C248.302 113.446 248.23 113.167 248.085 112.999C247.947 112.824 247.733 112.736 247.443 112.736C247.076 112.736 246.782 112.85 246.56 113.079C246.346 113.308 246.239 113.613 246.239 113.995V116.352C246.239 116.94 245.953 117.233 245.38 117.233ZM253.8 119.316C253.388 119.316 252.99 119.282 252.608 119.213C252.234 119.145 251.901 119.042 251.611 118.904C251.435 118.828 251.309 118.729 251.233 118.607C251.164 118.485 251.134 118.355 251.141 118.218C251.157 118.08 251.202 117.958 251.279 117.851C251.363 117.745 251.466 117.668 251.588 117.622C251.711 117.584 251.84 117.596 251.978 117.657C252.314 117.81 252.624 117.909 252.906 117.954C253.196 118 253.445 118.023 253.651 118.023C254.14 118.023 254.507 117.912 254.751 117.691C254.996 117.47 255.118 117.13 255.118 116.673V115.803H255.221C255.107 116.154 254.87 116.44 254.511 116.661C254.152 116.883 253.754 116.993 253.319 116.993C252.814 116.993 252.375 116.879 252.001 116.65C251.626 116.413 251.336 116.085 251.13 115.666C250.924 115.238 250.82 114.746 250.82 114.189C250.82 113.77 250.878 113.388 250.992 113.045C251.115 112.702 251.283 112.408 251.497 112.164C251.718 111.92 251.982 111.733 252.287 111.603C252.601 111.466 252.944 111.397 253.319 111.397C253.77 111.397 254.167 111.508 254.511 111.729C254.862 111.943 255.095 112.225 255.21 112.576L255.095 112.942V112.29C255.095 112.007 255.168 111.794 255.313 111.649C255.466 111.496 255.68 111.42 255.955 111.42C256.23 111.42 256.44 111.496 256.585 111.649C256.73 111.794 256.803 112.007 256.803 112.29V116.478C256.803 117.417 256.543 118.122 256.023 118.595C255.512 119.076 254.77 119.316 253.8 119.316ZM253.835 115.7C254.094 115.7 254.316 115.639 254.499 115.517C254.69 115.395 254.839 115.223 254.946 115.002C255.053 114.773 255.107 114.502 255.107 114.189C255.107 113.716 254.988 113.35 254.751 113.091C254.522 112.824 254.217 112.69 253.835 112.69C253.575 112.69 253.349 112.751 253.158 112.873C252.967 112.988 252.818 113.159 252.711 113.388C252.612 113.61 252.562 113.877 252.562 114.189C252.562 114.662 252.677 115.032 252.906 115.299C253.135 115.566 253.445 115.7 253.835 115.7Z" fill="#2E3646"/>
<path d="M262.767 117.321C262.434 117.321 262.143 117.24 261.892 117.077C261.641 116.913 261.475 116.696 261.394 116.424L261.483 116.187V116.726C261.483 116.911 261.434 117.055 261.336 117.158C261.244 117.256 261.107 117.305 260.928 117.305C260.742 117.305 260.601 117.256 260.503 117.158C260.404 117.055 260.355 116.911 260.355 116.726V112C260.355 111.81 260.404 111.665 260.503 111.568C260.601 111.47 260.742 111.421 260.928 111.421C261.113 111.421 261.255 111.47 261.353 111.568C261.456 111.665 261.508 111.81 261.508 112V114.008H261.41C261.492 113.752 261.655 113.548 261.9 113.396C262.151 113.238 262.44 113.159 262.767 113.159C263.115 113.159 263.421 113.243 263.682 113.412C263.944 113.581 264.148 113.82 264.295 114.13C264.448 114.435 264.524 114.805 264.524 115.24C264.524 115.665 264.448 116.035 264.295 116.35C264.148 116.66 263.941 116.9 263.674 117.068C263.412 117.237 263.11 117.321 262.767 117.321ZM262.423 116.464C262.609 116.464 262.772 116.418 262.914 116.326C263.055 116.233 263.164 116.097 263.241 115.918C263.322 115.738 263.363 115.512 263.363 115.24C263.363 114.827 263.276 114.519 263.102 114.318C262.933 114.117 262.707 114.016 262.423 114.016C262.238 114.016 262.075 114.062 261.933 114.155C261.791 114.242 261.68 114.375 261.598 114.555C261.522 114.734 261.483 114.963 261.483 115.24C261.483 115.648 261.571 115.956 261.745 116.163C261.919 116.364 262.145 116.464 262.423 116.464ZM265.721 117.305C265.536 117.305 265.394 117.251 265.296 117.142C265.198 117.028 265.149 116.873 265.149 116.677V113.804C265.149 113.602 265.198 113.447 265.296 113.339C265.394 113.23 265.536 113.175 265.721 113.175C265.906 113.175 266.048 113.23 266.146 113.339C266.249 113.447 266.301 113.602 266.301 113.804V116.677C266.301 116.873 266.252 117.028 266.154 117.142C266.056 117.251 265.912 117.305 265.721 117.305ZM265.721 112.473C265.508 112.473 265.345 112.422 265.23 112.318C265.116 112.215 265.059 112.071 265.059 111.886C265.059 111.695 265.116 111.551 265.23 111.453C265.345 111.35 265.508 111.298 265.721 111.298C265.939 111.298 266.102 111.35 266.211 111.453C266.326 111.551 266.383 111.695 266.383 111.886C266.383 112.071 266.326 112.215 266.211 112.318C266.102 112.422 265.939 112.473 265.721 112.473ZM268.546 117.321C268.072 117.321 267.718 117.191 267.484 116.93C267.249 116.663 267.132 116.269 267.132 115.746V112C267.132 111.81 267.181 111.665 267.279 111.568C267.377 111.47 267.519 111.421 267.705 111.421C267.89 111.421 268.031 111.47 268.129 111.568C268.233 111.665 268.285 111.81 268.285 112V115.705C268.285 115.939 268.334 116.113 268.432 116.228C268.53 116.337 268.666 116.391 268.841 116.391C268.884 116.391 268.925 116.388 268.963 116.383C269.001 116.377 269.039 116.372 269.078 116.367C269.165 116.361 269.222 116.388 269.249 116.448C269.282 116.502 269.298 116.617 269.298 116.791C269.298 116.943 269.268 117.06 269.208 117.142C269.148 117.224 269.053 117.275 268.922 117.297C268.868 117.302 268.808 117.308 268.742 117.313C268.677 117.319 268.612 117.321 268.546 117.321ZM271.057 117.321C270.583 117.321 270.229 117.191 269.994 116.93C269.76 116.663 269.643 116.269 269.643 115.746V112C269.643 111.81 269.692 111.665 269.79 111.568C269.888 111.47 270.03 111.421 270.215 111.421C270.4 111.421 270.542 111.47 270.64 111.568C270.743 111.665 270.795 111.81 270.795 112V115.705C270.795 115.939 270.844 116.113 270.942 116.228C271.04 116.337 271.177 116.391 271.351 116.391C271.394 116.391 271.435 116.388 271.474 116.383C271.512 116.377 271.55 116.372 271.588 116.367C271.675 116.361 271.732 116.388 271.76 116.448C271.792 116.502 271.809 116.617 271.809 116.791C271.809 116.943 271.779 117.06 271.719 117.142C271.659 117.224 271.563 117.275 271.433 117.297C271.378 117.302 271.318 117.308 271.253 117.313C271.188 117.319 271.122 117.321 271.057 117.321ZM274.821 118.774C274.635 118.774 274.494 118.725 274.396 118.627C274.297 118.529 274.248 118.385 274.248 118.195V113.755C274.248 113.564 274.297 113.42 274.396 113.322C274.494 113.224 274.633 113.175 274.812 113.175C274.998 113.175 275.137 113.224 275.229 113.322C275.327 113.42 275.376 113.564 275.376 113.755V114.342L275.287 114.049C275.368 113.782 275.534 113.567 275.785 113.404C276.036 113.241 276.327 113.159 276.66 113.159C277.003 113.159 277.305 113.243 277.567 113.412C277.834 113.581 278.041 113.82 278.188 114.13C278.341 114.435 278.417 114.805 278.417 115.24C278.417 115.665 278.341 116.035 278.188 116.35C278.041 116.66 277.837 116.9 277.575 117.068C277.314 117.237 277.008 117.321 276.66 117.321C276.333 117.321 276.044 117.242 275.793 117.085C275.548 116.927 275.385 116.72 275.303 116.464H275.401V118.195C275.401 118.385 275.349 118.529 275.246 118.627C275.148 118.725 275.006 118.774 274.821 118.774ZM276.316 116.464C276.502 116.464 276.665 116.418 276.807 116.326C276.948 116.233 277.057 116.097 277.134 115.918C277.215 115.738 277.256 115.512 277.256 115.24C277.256 114.827 277.169 114.519 276.995 114.318C276.826 114.117 276.6 114.016 276.316 114.016C276.131 114.016 275.968 114.062 275.826 114.155C275.684 114.242 275.573 114.375 275.491 114.555C275.415 114.734 275.376 114.963 275.376 115.24C275.376 115.648 275.464 115.956 275.638 116.163C275.812 116.364 276.039 116.464 276.316 116.464ZM280.382 117.321C280.088 117.321 279.826 117.267 279.597 117.158C279.369 117.044 279.189 116.892 279.058 116.701C278.927 116.505 278.862 116.285 278.862 116.04C278.862 115.746 278.938 115.515 279.091 115.346C279.243 115.172 279.491 115.05 279.835 114.979C280.178 114.903 280.636 114.865 281.208 114.865H281.624V115.477H281.208C280.908 115.477 280.665 115.493 280.48 115.526C280.3 115.559 280.17 115.613 280.088 115.689C280.012 115.76 279.974 115.861 279.974 115.991C279.974 116.154 280.031 116.29 280.145 116.399C280.259 116.502 280.42 116.554 280.627 116.554C280.796 116.554 280.943 116.516 281.069 116.44C281.199 116.358 281.303 116.25 281.379 116.113C281.455 115.978 281.494 115.822 281.494 115.648V114.71C281.494 114.459 281.436 114.28 281.322 114.171C281.213 114.062 281.022 114.008 280.75 114.008C280.597 114.008 280.431 114.027 280.251 114.065C280.077 114.098 279.889 114.157 279.687 114.245C279.573 114.299 279.472 114.313 279.385 114.285C279.298 114.258 279.23 114.206 279.181 114.13C279.137 114.054 279.115 113.972 279.115 113.885C279.115 113.793 279.14 113.706 279.189 113.624C279.243 113.537 279.328 113.472 279.442 113.428C279.693 113.33 279.933 113.262 280.161 113.224C280.39 113.181 280.6 113.159 280.791 113.159C281.199 113.159 281.534 113.222 281.796 113.347C282.063 113.466 282.262 113.651 282.393 113.902C282.524 114.147 282.589 114.465 282.589 114.857V116.726C282.589 116.911 282.543 117.055 282.45 117.158C282.357 117.256 282.227 117.305 282.058 117.305C281.883 117.305 281.75 117.256 281.657 117.158C281.565 117.055 281.518 116.911 281.518 116.726V116.383L281.575 116.415C281.543 116.601 281.472 116.761 281.363 116.897C281.254 117.033 281.115 117.139 280.946 117.215C280.783 117.286 280.595 117.321 280.382 117.321ZM284.419 118.774C284.282 118.774 284.171 118.739 284.083 118.668C284.002 118.603 283.953 118.513 283.936 118.399C283.92 118.285 283.939 118.162 283.993 118.031L284.549 116.815V117.289L283.086 113.926C283.032 113.79 283.013 113.665 283.029 113.551C283.051 113.437 283.108 113.347 283.201 113.281C283.299 113.211 283.429 113.175 283.593 113.175C283.729 113.175 283.841 113.208 283.928 113.273C284.015 113.333 284.091 113.453 284.157 113.632L285.179 116.195H284.925L285.971 113.624C286.042 113.45 286.121 113.333 286.208 113.273C286.301 113.208 286.424 113.175 286.576 113.175C286.707 113.175 286.811 113.211 286.887 113.281C286.969 113.347 287.018 113.437 287.034 113.551C287.056 113.66 287.037 113.782 286.977 113.918L285.032 118.342C284.95 118.51 284.863 118.625 284.77 118.684C284.677 118.744 284.56 118.774 284.419 118.774Z" fill="#33A78C"/>
</g>
<defs>
<linearGradient id="paint0_linear_674_1635" x1="213.971" y1="113.293" x2="230.363" y2="113.293" gradientUnits="userSpaceOnUse">
<stop stop-color="#63CDB4"/>
<stop offset="1" stop-color="#23514B"/>
</linearGradient>
<linearGradient id="paint1_linear_674_1635" x1="223.102" y1="115.765" x2="222.17" y2="116.617" gradientUnits="userSpaceOnUse">
<stop stop-opacity="0.45"/>
<stop offset="1" stop-opacity="0"/>
</linearGradient>
<linearGradient id="paint2_linear_674_1635" x1="224.271" y1="114.877" x2="225.2" y2="114.022" gradientUnits="userSpaceOnUse">
<stop stop-opacity="0.45"/>
<stop offset="1" stop-opacity="0"/>
</linearGradient>
<clipPath id="clip0_674_1635">
<rect width="529" height="444" fill="white"/>
</clipPath>
</defs>
</svg>
