<svg width="513" height="407" viewBox="0 0 513 407" fill="none" xmlns="http://www.w3.org/2000/svg">
<path d="M420.305 36.1027C409.666 37.9689 403.157 52.525 401.28 61.8559C401.28 61.8559 401.28 61.8559 401.405 61.8559C396.899 66.2103 392.518 70.6891 388.137 75.0435C389.014 71.9332 392.894 55.7597 386.01 42.1989C382.755 35.8539 376.247 32.6192 369.237 35.2318C363.48 37.4712 359.349 43.1942 360.351 49.4147C362.353 61.7315 376.622 71.4356 387.637 75.5412C379.751 83.6279 371.991 91.9635 364.606 100.548C364.982 96.6911 365.983 77.905 355.469 64.0953C350.838 58.1236 343.703 55.5109 336.569 58.87C330.686 61.6071 326.556 67.9521 327.432 74.5459C329.56 89.4753 350.588 98.6817 363.98 101.046C352.215 114.606 341.075 128.665 330.436 143.097C331.312 136.378 332.564 117.966 322.926 103.161C318.17 95.8203 309.783 92.4611 301.397 96.0691C294.263 99.1794 289.381 106.644 290.758 114.358C293.637 130.158 313.914 141.23 328.558 145.336C319.546 157.902 311.035 170.716 302.899 183.779L304.777 184.899C308.156 179.3 311.536 173.702 315.166 168.103C318.795 174.822 323.677 181.042 329.059 186.516C337.195 194.603 350.462 204.805 362.854 201.819C371.115 199.828 376.747 192.239 377.749 184.028C378.875 174.448 372.992 166.859 364.105 163.5C344.955 156.533 324.177 162.505 316.918 165.117C325.93 151.308 335.442 137.747 345.581 124.684C348.96 130.158 353.216 135.01 358.098 139.24C364.857 145.087 375.996 152.303 385.384 149.193C400.404 144.216 398.401 123.191 384.132 119.085C368.737 114.482 352.715 120.329 347.083 122.693C355.719 111.496 364.731 100.672 374.119 90.0973C381.253 100.423 397.775 115.602 411.418 110.501C424.936 105.4 421.807 86.4894 408.79 83.5035C393.645 80.02 378.75 87.2359 374.87 89.2264C383.381 79.6468 392.143 70.4403 401.28 61.4827C403.783 61.7315 417.426 62.7268 427.44 55.5109C436.702 49.4148 431.82 34.1121 420.305 36.1027Z" fill="#E5EBFE"/>
<path d="M209.275 111.496C209.275 111.496 187.246 118.09 177.358 135.632C168.972 150.437 171.726 168.352 172.852 173.702C165.092 162.754 157.206 152.054 149.071 141.355C146.818 138.493 144.565 135.507 142.312 132.646C167.22 125.057 180.738 102.165 175.23 76.7852C175.23 76.7852 155.454 82.1349 146.067 97.5619C138.431 110.252 140.184 125.928 141.06 131.153C131.547 118.961 121.534 106.893 110.394 96.069C131.422 87.7334 141.435 66.9567 134.802 45.3091C134.802 45.3091 118.155 51.4053 111.27 65.4638C105.262 77.6561 108.642 91.839 109.643 95.4469C105.137 91.2169 100.506 87.1114 95.7498 83.2546C95.6247 82.6325 92.3703 70.067 82.4822 63.8464C72.3438 57.377 59.0762 60.1141 59.0762 60.1141C63.5822 76.9096 78.4769 86.3649 95.6246 83.379C106.514 92.3367 116.277 102.663 125.414 113.735C121.91 111.869 109.017 105.524 95.875 108.261C80.4796 111.62 70.5914 126.301 70.5914 126.301C90.2425 137.871 112.898 133.019 126.04 114.482C133.55 123.564 140.559 133.144 147.443 142.475C150.322 146.456 153.201 150.437 156.08 154.542C151.449 152.179 136.929 145.709 122.285 149.068C104.637 153.174 93.4968 170.343 93.4968 170.343C116.277 183.157 142.312 177.31 157.081 156.035C165.843 168.352 174.354 180.793 182.365 193.483C177.483 191.244 160.461 184.152 143.939 188.756C124.288 194.23 112.772 214.011 112.772 214.011C125.039 220.232 140.309 223.093 153.577 218.988C165.843 215.255 176.482 205.551 183.241 194.852C186.871 200.575 190.375 206.422 193.755 212.269L196.884 210.403C189.499 198.335 181.739 186.516 173.478 174.946C185.995 170.84 198.261 162.505 204.769 150.935C211.779 139.489 212.405 124.435 209.275 111.496Z" fill="#E8EEFE"/>
<path d="M124.036 64.7173C126.164 60.2385 128.292 54.64 131.922 51.2809C131.922 51.2809 131.797 51.4053 131.421 51.6541C129.168 53.6447 127.666 56.6306 126.289 59.2432C125.789 58.2479 125.288 57.2526 124.412 56.5062C125.163 57.5015 125.663 58.6212 126.039 59.7409C124.036 63.4732 122.159 67.33 120.407 71.1867C119.656 68.9473 117.903 66.9567 116.276 65.215C117.903 66.9567 119.781 69.1961 120.156 71.6844C118.028 76.412 115.901 81.1397 113.898 85.9917C113.397 83.5035 112.646 81.1397 111.144 79.0247C112.646 81.2641 113.272 84.0011 113.648 86.6138C112.396 89.7241 111.144 92.9588 109.893 96.1935C111.269 92.9588 112.646 89.8485 114.023 86.6138C115.024 84.25 116.151 81.8861 117.152 79.3979C119.781 77.5317 122.91 76.412 126.164 76.0388C123.16 76.1632 120.031 77.1585 117.528 78.7758C119.53 74.4214 121.408 69.9426 123.536 65.5882C125.413 63.5976 127.541 61.7315 130.169 61.3582C127.791 61.7315 125.789 63.2244 124.036 64.7173Z" fill="#BDD0FB"/>
<path d="M163.212 99.4283C166.091 94.5762 170.221 88.9777 171.223 83.2548C171.223 83.2548 171.223 83.5036 171.098 83.8768C170.472 87.2359 168.594 90.595 166.967 93.7053C168.219 93.4565 169.596 93.4565 170.847 93.7053C169.47 93.5809 167.968 93.8297 166.717 94.3274C164.339 98.6818 161.835 102.912 159.207 107.142C161.96 106.395 164.964 106.769 167.593 107.391C164.839 106.893 161.46 106.644 158.831 107.764C155.702 112.865 152.323 117.966 148.943 122.942C151.572 121.822 154.451 121.076 157.455 121.2C154.325 121.076 151.196 122.32 148.443 123.689C146.19 126.923 143.937 130.158 141.684 133.393C143.937 130.034 146.064 126.674 148.317 123.315C149.945 120.827 151.572 118.214 153.199 115.726C153.324 112.118 152.448 108.261 150.696 105.027C152.448 107.888 153.449 111.621 153.7 114.98C156.704 110.252 159.707 105.524 162.586 100.797C163.337 97.8109 163.713 94.5762 162.461 91.7148C163.713 93.9542 163.588 96.8156 163.212 99.4283Z" fill="#BDD0FB"/>
<path d="M193.877 135.632C197.006 130.033 200.135 122.942 205.142 118.836C205.142 118.836 204.892 118.961 204.516 119.21C201.512 121.698 199.384 125.43 197.257 128.665C196.756 127.296 196.13 126.052 195.129 124.933C196.005 126.301 196.631 127.67 196.881 129.287C194.002 134.015 191.249 138.867 188.62 143.719C187.869 140.733 185.741 137.996 183.614 135.756C185.616 138.245 187.744 141.23 188.12 144.465C184.99 150.437 181.861 156.409 178.982 162.505C178.607 159.27 177.731 156.035 175.978 153.423C177.856 156.409 178.357 160.141 178.607 163.5C176.729 167.481 174.852 171.462 173.1 175.568C175.102 171.587 177.105 167.481 179.233 163.5C180.735 160.514 182.237 157.528 183.864 154.543C187.369 152.428 191.624 151.059 195.755 150.935C191.874 150.935 187.744 151.93 184.365 153.672C187.243 148.073 190.122 142.599 193.126 137.125C195.63 134.761 198.508 132.522 202.138 132.148C199.009 132.148 196.255 133.766 193.877 135.632Z" fill="#BDD0FB"/>
<path d="M90.6195 120.827C85.7381 121.822 79.7301 122.569 75.5996 125.306C75.5996 125.306 75.7248 125.181 76.1003 124.933C78.6036 123.315 81.8579 122.569 84.7368 121.822C83.8606 121.2 82.9844 120.329 82.4837 119.458C83.2347 120.454 84.2361 121.2 85.3626 121.698C89.4931 120.578 93.7487 119.707 97.8792 118.961C95.8765 117.717 94.2494 115.602 93.1229 113.487C94.4997 115.477 96.252 117.717 98.6302 118.836C103.762 117.841 108.894 116.97 114.151 116.224C111.898 115.228 109.645 113.86 108.018 111.869C109.895 113.86 112.398 115.104 114.902 116.099C118.281 115.602 121.661 115.104 125.04 114.731C121.536 115.353 118.156 115.851 114.651 116.473C112.023 116.97 109.52 117.343 106.891 117.841C104.513 119.956 102.635 122.693 101.509 125.679C102.385 122.818 104.138 120.081 106.14 117.966C101.384 118.836 96.6275 119.707 91.8712 120.703C89.493 121.947 87.2401 123.564 86.1136 126.177C86.7394 123.688 88.6169 122.196 90.6195 120.827Z" fill="#BDD0FB"/>
<path d="M73.969 68.4496C70.8399 66.459 67.2101 63.5975 63.4551 62.8511C63.4551 62.8511 63.5802 62.8511 63.8306 62.8511C66.0836 63.3487 68.2114 64.5928 70.214 65.7125C70.0889 64.8417 70.0889 63.9708 70.3392 63.2243C70.214 64.0952 70.3392 65.0905 70.5895 65.9614C73.4683 67.5787 76.222 69.3205 78.8505 71.1866C78.475 69.4449 78.7253 67.4543 79.226 65.7125C78.8505 67.5787 78.6002 69.6937 79.3511 71.4355C82.6055 73.6749 85.985 75.9143 89.1141 78.2781C88.4883 76.5363 87.9876 74.6702 88.1128 72.6796C88.1128 74.7946 88.6135 76.7852 89.6148 78.6513C91.7426 80.1443 93.8704 81.7616 95.8731 83.379C93.7453 81.886 91.4923 80.2687 89.3644 78.7757C87.7373 77.656 86.1101 76.5363 84.483 75.4166C81.9796 75.2922 79.6015 75.7899 77.3485 76.7852C79.3512 75.7899 81.7293 75.1678 84.1075 75.0434C81.1035 72.9284 77.9743 70.9378 74.8452 68.9472C72.8425 68.4496 70.7147 68.0764 68.8372 68.8228C70.214 68.0764 72.0915 68.2008 73.969 68.4496Z" fill="#BDD0FB"/>
<path d="M119.034 165.864C113.526 167.108 106.893 169.347 101.01 168.477C101.01 168.477 101.26 168.477 101.636 168.601C105.015 169.099 108.895 168.352 112.275 167.73C111.649 168.85 111.273 170.094 111.023 171.338C111.399 169.969 112.024 168.725 112.901 167.606C117.782 166.735 122.538 165.615 127.42 164.371C125.918 166.735 125.292 169.721 125.042 172.458C125.417 169.721 126.168 166.486 128.171 164.247C134.054 162.754 139.811 161.136 145.694 159.394C143.817 161.634 142.189 164.122 141.438 166.859C142.315 163.873 144.442 161.261 146.57 159.146C150.325 158.026 154.205 156.906 157.96 155.662C154.08 156.782 150.2 157.777 146.32 158.897C143.441 159.643 140.437 160.514 137.558 161.261C134.054 160.265 130.549 158.275 128.046 155.662C130.299 158.15 133.553 160.265 136.682 161.509C131.3 163.002 125.793 164.371 120.411 165.615C117.281 165.366 114.027 164.869 111.774 162.754C113.652 164.62 116.28 165.491 119.034 165.864Z" fill="#BDD0FB"/>
<path d="M140.311 204.929C134.177 206.671 126.417 208.04 121.16 211.896C121.16 211.896 121.41 211.772 121.661 211.399C124.79 209.035 128.92 207.915 132.55 206.671C131.299 205.925 130.297 204.929 129.421 203.685C130.548 204.805 131.799 205.8 133.301 206.422C138.558 204.68 143.94 203.188 149.323 201.819C146.569 200.326 144.441 197.713 142.689 195.225C144.566 197.713 147.07 200.45 150.073 201.695C156.582 200.077 163.216 198.46 169.85 197.091C166.846 195.972 163.842 194.354 161.589 191.99C164.092 194.479 167.472 195.847 170.851 196.843C175.232 195.972 179.488 195.101 183.868 194.23C179.488 195.225 175.107 196.22 170.601 197.34C167.346 198.087 163.967 198.833 160.713 199.704C157.834 202.565 155.456 206.298 154.329 210.279C155.205 206.547 157.208 202.814 159.711 199.953C153.578 201.446 147.57 202.939 141.437 204.556C138.558 206.422 135.554 208.662 134.428 212.021C135.679 209.035 137.932 206.795 140.311 204.929Z" fill="#BDD0FB"/>
<path d="M456.856 247.105C434.827 240.76 412.047 252.828 412.047 252.828C429.195 281.318 461.863 290.773 491.778 275.844C491.653 275.844 478.886 253.45 456.856 247.105Z" fill="#D8E1FE"/>
<path d="M478.385 183.406C463.615 191.369 457.607 208.911 457.232 210.279C449.847 215.256 442.712 220.73 435.828 226.577C437.706 221.476 443.964 201.197 436.454 182.909C427.818 161.759 404.286 151.308 404.286 151.308C392.521 182.162 405.037 213.265 434.702 227.448C417.429 242.004 401.658 258.675 386.638 275.471C388.39 268.006 392.521 245.488 382.633 226.204C370.617 202.814 342.329 193.11 342.329 193.11C331.94 229.563 349.213 264.025 384.635 277.461C381.006 281.442 377.501 285.424 373.996 289.405C361.104 303.961 348.462 318.89 336.196 333.944C338.324 326.231 344.082 300.477 333.442 278.208C320.675 251.584 289.384 240.013 289.384 240.013C283.501 258.426 283 280.447 291.387 298.114C299.648 315.531 316.795 328.843 334.569 336.059C321.552 352.108 309.035 368.406 297.144 385.202L301.4 388.188C306.907 379.976 312.665 372.014 318.422 363.927C327.184 380.225 341.703 395.155 359.101 401.873C378.002 409.089 400.531 406.352 418.931 398.514C418.931 398.514 404.036 368.779 376.124 358.826C352.593 350.491 327.184 358.951 319.924 361.812C332.817 344.146 346.46 326.853 360.353 309.808C379.754 342.28 417.053 353.228 451.349 336.806C451.349 336.806 436.955 310.804 411.671 303.09C390.894 296.745 369.115 304.707 362.105 307.693C366.737 302.095 371.243 296.621 375.874 291.022C400.281 262.159 425.94 232.175 457.106 210.155C481.764 216.126 504.294 203.934 512.43 180.047C512.805 180.296 493.78 175.071 478.385 183.406Z" fill="#D8E1FE"/>
<path d="M418.053 180.545C415.424 173.951 412.921 165.491 407.914 160.141C407.914 160.141 408.164 160.39 408.54 160.763C411.544 163.873 413.421 168.477 415.299 172.333C416.05 170.841 417.051 169.596 418.178 168.477C417.051 169.845 416.175 171.338 415.549 173.08C418.178 178.678 420.431 184.526 422.684 190.249C424.06 187.014 426.689 184.277 429.318 182.038C426.689 184.526 423.935 187.512 422.934 191.12C425.688 198.211 428.191 205.303 430.569 212.518C431.57 209.035 432.947 205.551 435.325 202.814C432.947 205.925 431.696 209.781 430.945 213.638C432.447 218.366 433.949 223.093 435.451 227.821C433.698 223.093 432.071 218.241 430.319 213.514C429.067 209.906 427.815 206.422 426.439 202.814C422.809 199.953 418.303 197.838 413.797 197.091C418.053 197.589 422.558 199.331 426.063 201.819C423.685 195.225 421.182 188.631 418.678 182.162C416.175 179.176 413.296 176.19 409.416 175.319C412.796 175.817 415.549 178.056 418.053 180.545Z" fill="#BDD0FB"/>
<path d="M357.723 227.075C353.968 219.734 348.586 211.15 347.71 202.69C347.71 202.69 347.71 203.063 347.71 203.685C348.21 208.662 350.714 213.763 352.716 218.241C350.839 217.744 348.961 217.619 347.084 217.744C349.212 217.744 351.214 218.241 353.092 218.988C355.971 225.582 359.35 231.927 362.73 238.272C358.85 236.903 354.469 237.152 350.463 237.774C354.594 237.401 359.35 237.401 363.23 239.267C367.361 246.98 371.617 254.57 376.123 262.159C372.368 260.292 368.237 258.8 363.981 258.8C368.487 259.048 372.993 261.039 376.748 263.403C379.627 268.379 382.631 273.231 385.635 278.083C382.756 272.982 379.877 267.882 376.999 262.781C374.871 258.924 372.743 255.067 370.615 251.335C370.866 246.11 372.493 240.511 375.246 236.032C372.368 240.138 370.49 245.363 369.989 250.215C366.109 243.124 362.229 235.908 358.474 228.692C357.723 224.338 357.348 219.486 359.601 215.504C357.598 219.112 357.473 223.093 357.723 227.075Z" fill="#BDD0FB"/>
<path d="M309.66 276.715C305.655 268.379 301.775 257.68 294.891 251.21C294.891 251.21 295.141 251.459 295.767 251.833C299.897 255.689 302.651 261.412 305.279 266.264C306.156 264.274 307.282 262.532 308.784 261.039C307.407 262.905 306.406 264.896 305.78 267.135C309.535 274.227 312.915 281.567 316.294 288.783C317.796 284.428 321.05 280.82 324.305 277.71C321.175 281.069 317.796 285.299 316.795 289.902C320.8 298.86 324.68 307.818 328.31 317.024C329.311 312.421 330.813 307.818 333.692 304.085C330.813 308.191 329.562 313.541 328.936 318.393C331.314 324.364 333.567 330.336 335.82 336.432C333.317 330.461 330.688 324.364 328.185 318.268C326.307 313.789 324.305 309.186 322.427 304.707C317.546 301.348 311.538 298.86 305.655 298.238C311.162 298.487 317.17 300.477 321.926 303.463C318.297 295.128 314.667 286.792 310.787 278.581C307.407 274.849 303.402 271.241 298.27 270.494C302.651 270.992 306.281 273.729 309.66 276.715Z" fill="#BDD0FB"/>
<path d="M461.112 265.145C467.996 267.135 476.633 268.752 482.515 273.107C482.515 273.107 482.265 272.858 481.89 272.609C478.385 269.997 473.754 268.504 469.623 267.135C471 266.264 472.252 265.145 473.253 263.9C472.001 265.145 470.499 266.264 468.872 266.886C462.99 264.896 456.982 263.278 450.974 261.661C454.103 260.044 456.481 257.058 458.484 254.196C456.356 257.058 453.477 260.044 450.097 261.412C442.713 259.422 435.328 257.68 427.818 256.063C431.197 254.818 434.577 253.077 437.08 250.464C434.201 253.201 430.446 254.818 426.691 255.814C421.81 254.818 416.928 253.699 412.047 252.828C417.054 254.072 421.935 255.192 426.942 256.436C430.697 257.307 434.326 258.178 438.081 259.173C441.336 262.532 443.839 266.637 445.091 271.116C444.089 266.886 441.962 262.656 439.083 259.422C445.967 261.163 452.726 262.905 459.61 264.771C462.864 266.886 466.119 269.499 467.37 273.231C466.369 269.748 463.74 267.26 461.112 265.145Z" fill="#BDD0FB"/>
<path d="M490.4 190.871C495.156 188.258 500.788 184.526 506.296 183.779C506.296 183.779 506.045 183.779 505.67 183.779C502.416 184.153 499.036 185.894 496.032 187.387C496.282 186.143 496.408 184.899 496.157 183.655C496.157 185.023 495.907 186.392 495.406 187.636C491.151 189.751 487.02 191.99 482.89 194.354C483.641 191.866 483.39 188.88 482.89 186.268C483.265 189.005 483.39 192.115 482.264 194.603C477.257 197.465 472.251 200.45 467.369 203.561C468.496 201.073 469.372 198.335 469.372 195.598C469.247 198.584 468.12 201.446 466.618 204.058C463.364 206.049 460.235 208.164 457.105 210.279C460.485 208.288 463.739 206.298 467.119 204.307C469.622 202.814 472.125 201.321 474.629 199.828C478.259 199.828 481.763 200.948 484.892 202.565C482.014 200.824 478.634 199.704 475.38 199.455C480.011 196.718 484.642 193.981 489.398 191.368C492.277 190.746 495.406 190.373 498.16 191.742C495.782 190.498 493.028 190.498 490.4 190.871Z" fill="#BDD0FB"/>
<path d="M415.298 327.848C423.184 330.212 432.696 334.068 441.082 333.446C441.082 333.446 440.707 333.446 440.081 333.571C435.074 333.944 429.567 332.451 424.686 331.207C425.437 332.949 425.937 334.691 426.062 336.681C425.687 334.691 424.936 332.824 423.809 331.083C416.8 329.341 409.916 327.226 403.032 324.986C405.035 328.47 405.535 332.949 405.66 336.93C405.285 332.824 404.534 328.097 402.031 324.738C393.644 322.001 385.383 319.139 377.123 316.029C379.626 319.388 381.754 323.12 382.63 327.35C381.628 322.996 378.875 319.015 375.996 315.656C370.614 313.665 365.232 311.55 359.85 309.435C365.357 311.301 370.989 313.292 376.497 315.282C380.627 316.775 384.758 318.144 389.013 319.512C394.145 318.393 399.402 315.904 403.407 312.296C399.903 315.78 395.021 318.517 390.265 319.886C398.025 322.498 405.786 325.111 413.546 327.475C418.052 327.475 422.808 326.977 426.438 324.116C423.309 326.604 419.303 327.475 415.298 327.848Z" fill="#BDD0FB"/>
<path d="M380.505 382.465C389.266 385.575 400.281 388.312 407.54 394.408C407.54 394.408 407.29 394.159 406.79 393.662C402.534 390.054 396.526 387.814 391.394 385.699C393.272 384.704 394.899 383.336 396.276 381.718C394.648 383.336 392.646 384.455 390.518 385.326C383.008 382.34 375.373 379.728 367.738 377.115C371.868 375.249 375.248 371.641 378.001 368.157C374.997 371.641 371.117 375.373 366.611 376.742C357.224 373.631 347.836 370.77 338.324 368.157C342.83 366.789 347.336 364.798 350.715 361.564C346.835 364.798 341.828 366.664 336.822 367.784C330.563 366.042 324.43 364.425 318.172 362.808C324.43 364.674 330.814 366.664 337.072 368.531C341.828 370.024 346.459 371.392 351.216 372.885C355.096 377.364 358.225 382.962 359.352 388.81C358.475 383.336 355.847 377.613 352.467 373.258C361.229 375.995 369.865 378.732 378.502 381.718C382.507 384.704 386.513 388.312 387.889 393.288C386.888 388.81 383.884 385.451 380.505 382.465Z" fill="#BDD0FB"/>
<path d="M202.266 242.875C201.765 243.372 201.265 243.87 200.764 244.492C182.865 263.403 174.855 286.667 171.976 297.367C171.35 299.731 170.098 301.721 168.471 303.463L163.715 308.315L145.691 283.557L149.196 278.456C150.447 276.59 152.2 275.097 154.202 274.102C162.964 269.499 180.737 258.426 193.004 240.013C193.379 239.515 193.755 239.018 194.005 238.396C210.277 213.016 184.492 195.847 167.094 220.605C166.719 221.103 166.343 221.6 165.968 222.222C153.827 240.386 150.322 260.665 149.321 270.618C149.07 272.982 148.319 275.222 146.943 277.212L144.064 281.442L125.915 256.684L127.792 251.708C128.543 249.717 129.795 247.851 131.422 246.358C137.931 240.511 149.947 227.945 156.33 210.652C156.455 210.154 156.706 209.657 156.831 209.159C165.217 184.65 140.184 175.568 130.796 199.704C130.546 200.201 130.421 200.699 130.17 201.197C123.912 218.241 124.788 235.41 125.915 244.119C126.165 246.483 125.915 248.722 125.039 250.961L123.787 254.196L111.646 237.649C110.019 235.285 109.017 232.548 109.017 229.687C108.892 221.103 107.14 205.178 97.8775 191.866C97.6272 191.493 97.2517 191.119 97.0013 190.746C82.9827 172.084 57.4489 190 70.2158 209.408C70.4661 209.781 70.7165 210.154 71.092 210.652C80.3543 223.84 94.7484 230.807 102.884 233.917C105.387 234.912 107.64 236.53 109.268 238.769L121.784 255.938L118.28 256.062C115.901 256.187 113.648 255.689 111.521 254.694C103.51 250.961 87.3636 244.741 69.0893 245.487C68.5887 245.487 67.9628 245.487 67.4621 245.612C41.4276 247.105 42.4289 273.604 68.4635 273.231C68.9642 273.231 69.59 273.231 70.0906 273.231C88.6152 272.485 104.386 265.02 112.021 260.665C113.899 259.546 116.027 258.924 118.28 258.799L123.662 258.55L141.811 283.308L136.804 284.801C134.551 285.423 132.048 285.548 129.795 285.05C120.032 282.935 99.5047 279.949 78.3516 285.921C77.7258 286.045 77.0999 286.294 76.4741 286.419C47.4356 295.252 55.8217 324.862 85.2357 317.397C85.8616 317.273 86.4874 317.024 87.1132 316.899C108.517 310.928 124.538 297.491 131.672 290.773C133.3 289.28 135.302 288.036 137.43 287.414L143.438 285.672L161.462 310.43L155.329 313.416C153.201 314.536 150.823 314.909 148.445 314.784C137.305 314.162 112.522 314.536 88.9907 325.608C88.3649 325.982 87.6139 326.23 86.9881 326.604C55.6965 342.279 71.092 374.502 103.009 360.195C103.635 359.946 104.386 359.573 105.012 359.324C128.919 348.002 144.815 328.967 151.323 320.01C152.7 318.144 154.453 316.775 156.455 315.78L163.089 312.545L181.739 338.049L183.867 336.432L165.342 310.43L170.474 305.205C172.101 303.587 173.978 302.343 176.106 301.721C186.62 298.362 209.776 289.156 227.925 270.121C228.426 269.623 228.926 269.001 229.427 268.503C253.083 242.626 226.924 217.992 202.266 242.875Z" fill="#BDD0FB"/>
<path d="M214.038 107.39C214.038 97.4373 222.174 89.3506 232.187 89.3506C242.2 89.3506 250.336 97.4373 250.336 107.39C250.336 117.343 242.2 125.43 232.187 125.43C222.174 125.43 214.038 117.343 214.038 107.39ZM183.998 115.726V99.1791L198.893 94.9491C199.143 94.2026 199.519 93.5806 199.769 92.8341L192.259 79.3977L204.025 67.703L217.543 75.1677C218.294 74.7944 218.919 74.5456 219.67 74.2968L223.926 59.4918H240.448L244.704 74.2968C245.455 74.5456 246.08 74.9189 246.831 75.1677L260.349 67.703L272.115 79.3977L264.605 92.8341C264.98 93.5806 265.231 94.2026 265.481 94.9491L280.376 99.1791V115.726L265.481 119.956C265.231 120.702 264.855 121.324 264.605 122.071L272.115 135.507L260.349 147.202L246.831 139.737C246.08 140.111 245.455 140.359 244.704 140.608L240.448 155.413H223.801L219.545 140.608C218.794 140.359 218.168 139.986 217.417 139.737L203.899 147.202L192.134 135.507L199.644 122.071C199.268 121.324 199.018 120.702 198.768 119.956L183.998 115.726ZM232.187 133.392C246.581 133.392 258.347 121.698 258.347 107.39C258.347 93.0829 246.581 81.3883 232.187 81.3883C217.793 81.3883 206.027 93.0829 206.027 107.39C206.027 121.822 217.793 133.392 232.187 133.392Z" fill="#E8EEFE"/>
<path d="M288.008 67.33C288.008 61.8559 292.514 57.3771 298.022 57.3771C303.529 57.3771 308.035 61.8559 308.035 67.33C308.035 72.8041 303.529 77.2829 298.022 77.2829C292.389 77.2829 288.008 72.8041 288.008 67.33ZM271.361 71.8088V62.7268L279.622 60.363C279.747 59.9897 279.998 59.6165 280.123 59.2433L275.992 51.7786L282.501 45.3092L290.011 49.4147C290.387 49.2903 290.762 49.0415 291.138 48.9171L293.516 40.7059H302.653L305.031 48.9171C305.406 49.0415 305.782 49.2903 306.157 49.4147L313.667 45.3092L320.176 51.7786L316.046 59.2433C316.171 59.6165 316.421 59.9897 316.546 60.363L324.807 62.7268V71.8088L316.546 74.1726C316.421 74.5459 316.171 74.9191 316.046 75.2924L320.176 82.757L313.667 89.2264L306.157 85.1209C305.782 85.2453 305.406 85.4941 305.031 85.6185L302.653 93.8297H293.516L291.138 85.6185C290.762 85.4941 290.387 85.2453 290.011 85.1209L282.501 89.2264L275.992 82.757L280.123 75.2924C279.998 74.9191 279.747 74.5459 279.622 74.1726L271.361 71.8088ZM297.897 81.6373C305.907 81.6373 312.291 75.1679 312.291 67.33C312.291 59.3677 305.782 53.0227 297.897 53.0227C290.011 53.0227 283.502 59.4921 283.502 67.33C283.502 75.1679 290.011 81.6373 297.897 81.6373Z" fill="#E8EEFE"/>
<path d="M26.5352 177.683C41.1902 177.683 53.0704 165.875 53.0704 151.308C53.0704 136.741 41.1902 124.933 26.5352 124.933C11.8802 124.933 0 136.741 0 151.308C0 165.875 11.8802 177.683 26.5352 177.683Z" fill="#E5EBFE"/>
<path d="M27.1588 153.174L9.38525 147.327C9.63558 146.954 10.0111 146.705 10.3866 146.58L36.6715 137.996C37.047 137.872 37.5476 137.872 37.9231 137.996L27.1588 153.174ZM30.288 151.432L42.0536 154.045C42.4291 154.17 42.6794 154.543 42.6794 154.916C42.5543 155.165 42.4291 155.414 42.1788 155.414C42.0536 155.414 41.9284 155.414 41.8033 155.414L29.4118 152.552L28.1602 154.294C28.035 154.418 27.9098 154.543 27.7847 154.543C27.6595 154.543 27.4092 154.543 27.284 154.543L25.1562 153.921L16.8952 163.5C16.77 163.625 16.6449 163.625 16.5197 163.749C16.2694 163.874 16.0191 163.749 15.7687 163.625C15.3932 163.376 15.3932 162.878 15.6436 162.505L23.529 153.423L9.00977 148.695C9.00977 148.82 9.00977 148.944 9.13494 149.069L13.7661 163.252C14.1416 164.371 15.2681 164.869 16.3946 164.62L42.6794 156.036C43.8059 155.662 44.3066 154.543 43.9311 153.423L39.2999 139.24C39.2999 139.116 39.1748 138.991 39.1748 138.991L30.288 151.432Z" fill="white"/>
<path d="M305.655 8.60784L250.081 0.0234375L244.824 10.3496L305.655 8.60784Z" fill="#EFF3FE"/>
<path d="M244.824 10.3495L248.955 32.6192L305.655 8.60779" fill="#BDD0FB"/>
<path d="M305.655 8.60779L243.197 29.5089L244.95 15.5748L305.655 8.60779Z" fill="#EFF3FE"/>
<path d="M198.008 34.2366C197.883 47.0509 187.369 57.2527 174.602 57.1283C161.835 57.0039 151.446 46.5533 151.571 33.8633C151.697 21.0489 162.211 10.8472 174.978 10.9716C187.744 10.9716 198.133 21.4222 198.008 34.2366Z" fill="#E5EBFE"/>
<path d="M182.735 23.9104L166.839 23.786C163.835 23.786 161.457 26.1498 161.457 29.1357V36.3516C161.457 39.3375 163.835 41.7013 166.839 41.7013H168.466V48.2951L175.225 41.7013H182.735C185.739 41.7013 188.117 39.3375 188.117 36.3516V29.1357C188.117 26.2742 185.739 23.9104 182.735 23.9104ZM165.588 32.7436C165.588 31.7483 166.339 31.0019 167.34 31.0019C168.341 31.0019 169.092 31.7483 169.092 32.7436C169.092 33.7389 168.341 34.4854 167.34 34.4854C166.339 34.4854 165.588 33.7389 165.588 32.7436ZM174.725 34.6098C173.723 34.6098 172.972 33.8633 172.972 32.8681C172.972 31.8728 173.723 31.1263 174.725 31.1263C175.726 31.1263 176.477 31.8728 176.477 32.8681C176.477 33.7389 175.726 34.6098 174.725 34.6098ZM182.109 34.6098C181.108 34.6098 180.357 33.8633 180.357 32.8681C180.357 31.8728 181.108 31.1263 182.109 31.1263C183.111 31.1263 183.862 31.8728 183.862 32.8681C183.862 33.8633 183.111 34.6098 182.109 34.6098Z" fill="white"/>
<path d="M39.8393 206.467C41.0266 201.45 37.8979 196.427 32.8513 195.247C27.8046 194.067 22.7511 197.177 21.5638 202.193C20.3765 207.209 23.5052 212.232 28.5518 213.413C33.5985 214.593 38.652 211.483 39.8393 206.467Z" fill="#E5EBFE"/>
<path d="M451.848 182.784C455.926 182.784 459.232 179.498 459.232 175.444C459.232 171.39 455.926 168.103 451.848 168.103C447.769 168.103 444.463 171.39 444.463 175.444C444.463 179.498 447.769 182.784 451.848 182.784Z" fill="#E5EBFE"/>
<path d="M394.775 226.577C397.816 226.577 400.282 224.126 400.282 221.103C400.282 218.079 397.816 215.629 394.775 215.629C391.733 215.629 389.268 218.079 389.268 221.103C389.268 224.126 391.733 226.577 394.775 226.577Z" fill="#BDD0FB"/>
<path d="M473.816 148.114C482.122 137.824 480.463 122.789 470.11 114.533C459.758 106.277 444.632 107.927 436.326 118.217C428.02 128.507 429.679 143.541 440.032 151.797C450.384 160.053 465.51 158.404 473.816 148.114Z" fill="#E5EBFE"/>
<path d="M466.617 135.508C465.866 137.747 464.489 140.111 462.111 140.982C460.108 141.604 457.229 140.733 456.979 138.369L456.728 138.245C454.601 139.613 451.722 139.24 449.97 137.374C448.092 135.508 448.342 132.646 449.469 130.531C452.097 125.306 458.481 126.923 462.236 129.785L459.858 136.379C459.482 137.623 459.858 139.364 461.485 138.369C462.862 137.374 463.613 135.134 463.988 133.517C464.739 129.411 462.236 125.928 458.23 124.933C454.475 123.937 450.72 124.933 448.468 128.167C446.465 130.904 445.338 135.259 447.216 138.245C449.469 142.101 455.226 142.724 459.232 142.599L458.356 145.212C450.846 145.958 441.709 141.231 443.211 132.646C443.962 128.541 446.465 124.559 450.47 122.818C454.35 121.076 459.107 121.698 462.611 123.937C466.617 126.426 467.993 131.029 466.617 135.508ZM452.097 132.895C451.597 134.388 451.847 135.881 453.349 136.503C455.477 137.249 456.603 135.383 457.354 133.766L458.481 130.78C455.727 129.163 452.973 129.785 452.097 132.895Z" fill="white"/>
</svg>
