<svg width="20" height="20" viewBox="0 0 20 20" fill="none" xmlns="http://www.w3.org/2000/svg">
<path fill-rule="evenodd" clip-rule="evenodd" d="M5.29357 12.707C5.4811 12.8944 5.7354 12.9998 6.00057 12.9998C6.26573 12.9998 6.52004 12.8944 6.70757 12.707L10.0006 9.41397L13.2936 12.707C13.4822 12.8891 13.7348 12.9899 13.997 12.9876C14.2592 12.9854 14.51 12.8802 14.6954 12.6948C14.8808 12.5094 14.986 12.2586 14.9882 11.9964C14.9905 11.7342 14.8897 11.4816 14.7076 11.293L10.7076 7.29297C10.52 7.1055 10.2657 7.00018 10.0006 7.00018C9.7354 7.00018 9.4811 7.1055 9.29357 7.29297L5.29357 11.293C5.1061 11.4805 5.00078 11.7348 5.00078 12C5.00078 12.2651 5.1061 12.5194 5.29357 12.707Z" fill="#41B79B"/>
</svg>
