<svg width="20" height="20" viewBox="0 0 20 20" fill="none" xmlns="http://www.w3.org/2000/svg">
<path fill-rule="evenodd" clip-rule="evenodd" d="M5.29357 7.29303C5.4811 7.10556 5.7354 7.00024 6.00057 7.00024C6.26573 7.00024 6.52004 7.10556 6.70757 7.29303L10.0006 10.586L13.2936 7.29303C13.4822 7.11087 13.7348 7.01008 13.997 7.01236C14.2592 7.01463 14.51 7.1198 14.6954 7.30521C14.8808 7.49062 14.986 7.74143 14.9882 8.00363C14.9905 8.26583 14.8897 8.51843 14.7076 8.70703L10.7076 12.707C10.52 12.8945 10.2657 12.9998 10.0006 12.9998C9.7354 12.9998 9.4811 12.8945 9.29357 12.707L5.29357 8.70703C5.1061 8.5195 5.00078 8.26519 5.00078 8.00003C5.00078 7.73487 5.1061 7.48056 5.29357 7.29303Z" fill="#111928"/>
</svg>
