<svg width="52" height="44" viewBox="0 0 52 44" fill="none" xmlns="http://www.w3.org/2000/svg">
<path d="M33.3437 10.4688C34.75 10.4688 36.0781 10.8438 37.3281 11.5938C38.5781 12.3438 39.5937 13.4219 40.375 14.8281C41.125 16.2344 41.5 17.8906 41.5 19.7969C41.5 21.7031 41.0312 23.5625 40.0937 25.375C39.7812 26.0313 39.2187 26.875 38.4062 27.9063C37.5625 28.9375 36.7812 29.8281 36.0625 30.5781L33.1094 33.5313L31 30.0625C32.4687 29.1563 33.7656 28.0313 34.8906 26.6875C36.0156 25.375 36.5781 24.1719 36.5781 23.0781C36.5781 22.5156 36.4531 22.0625 36.2031 21.7188C35.1094 22.5 33.8906 22.8906 32.5469 22.8906C31.5781 22.8906 30.6562 22.5938 29.7812 22C28.875 21.4375 28.1562 20.6875 27.625 19.75C27.0625 18.8438 26.7812 17.9063 26.7812 16.9375C26.7812 15.8438 27.1094 14.7969 27.7656 13.7969C28.3906 12.7969 29.2187 11.9844 30.25 11.3594C31.25 10.7656 32.2812 10.4688 33.3437 10.4688ZM16.5156 10.4688C17.9219 10.4688 19.25 10.8438 20.5 11.5938C21.75 12.3438 22.7656 13.4219 23.5469 14.8281C24.2969 16.2344 24.6719 17.8906 24.6719 19.7969C24.6719 21.1406 24.5 22.3438 24.1562 23.4063C23.8125 24.5 23.2187 25.6406 22.375 26.8281C21.5625 27.9531 20.7969 28.8906 20.0781 29.6406C19.3594 30.4219 18.1094 31.7188 16.3281 33.5313L14.2187 30.0625C15.6875 29.1563 16.9844 28.0313 18.1094 26.6875C19.2344 25.375 19.7969 24.1719 19.7969 23.0781C19.7969 22.5156 19.6719 22.0625 19.4219 21.7188C18.3281 22.5 17.1094 22.8906 15.7656 22.8906C14.7969 22.8906 13.875 22.5938 13 22C12.0937 21.4375 11.375 20.6875 10.8437 19.75C10.2812 18.8438 10 17.9063 10 16.9375C10 15.8438 10.3125 14.7969 10.9375 13.7969C11.5625 12.7969 12.3906 11.9844 13.4219 11.3594C14.4219 10.7656 15.4531 10.4688 16.5156 10.4688Z" fill="#D3D3D3"/>
</svg>
