<svg width="177" height="349" viewBox="0 0 177 349" fill="none" xmlns="http://www.w3.org/2000/svg">
<path d="M150.572 0.692627H26.2823C12.0133 0.692627 0.498047 12.2629 0.498047 26.3214V321.923C0.498047 336.106 12.1385 348.05 26.2823 348.05H150.572C164.841 348.05 176.356 336.106 176.356 321.923V26.4458C176.356 12.2629 164.841 0.692627 150.572 0.692627ZM168.721 323.541C168.721 333.245 160.836 341.083 151.073 341.083H25.6564C15.8935 341.083 8.00801 333.245 8.00801 323.541V25.6994C8.00801 15.9953 15.8935 8.15732 25.6564 8.15732H40.3009C42.0532 8.15732 43.43 9.52585 43.43 11.2676V11.6408C43.43 16.7417 47.5605 20.9717 52.8175 20.9717H123.787C128.918 20.9717 133.174 16.8661 133.174 11.6408V11.2676C133.174 9.52585 134.551 8.15732 136.303 8.15732H150.948C160.711 8.15732 168.596 15.9953 168.596 25.6994V323.541H168.721Z" fill="#4A6B96"/>
</svg>
