<svg width="113" height="156" viewBox="0 0 113 156" fill="none" xmlns="http://www.w3.org/2000/svg">
<path d="M71.2449 155.362H43.7083C41.0798 155.362 38.8269 153.496 38.3262 151.008L25.0586 102.985H90.145L76.8773 151.008C76.1263 153.621 73.8734 155.362 71.2449 155.362Z" fill="#4042E2"/>
<path d="M85.5151 102.985C76.5031 134.212 51.8454 151.381 38.8281 152.376C39.7043 154.243 41.5818 155.487 43.8348 155.487H71.3713C73.9998 155.487 76.2528 153.621 76.7534 151.132L90.021 103.109H85.5151V102.985Z" fill="#3839C4"/>
<path d="M38.9526 14.6529C43.7089 13.2843 48.9658 15.7725 53.7221 14.404C58.7288 13.0355 61.4824 7.81022 64.9871 4.07787C67.1149 1.71405 70.7448 -0.276541 73.3732 1.46522C75.8766 3.08257 75.7514 6.69049 74.4997 9.30313C73.2481 11.9158 70.9951 13.9064 69.7434 16.519C68.2414 19.6293 68.3666 23.486 69.9937 26.5963C71.6209 29.5822 74.1242 31.5728 75.0004 35.0563C75.8765 38.4155 76.1269 41.5257 73.8739 44.3872C72.6222 45.8801 70.8699 47.2487 70.7447 49.1148C70.6196 50.981 72.1216 52.474 72.3719 54.3401C72.8726 57.0772 70.7447 59.441 68.6169 61.1828C66.4891 62.9245 64.111 64.6663 63.4851 67.2789C62.9845 69.6427 63.9858 72.0066 64.7368 74.3704C65.7381 77.8539 65.8633 81.4619 65.1123 84.9454C64.7368 86.6871 64.1109 88.4289 63.36 90.0462C62.8593 91.1659 62.4838 92.9077 61.7328 93.903C58.6036 92.9077 55.3493 92.1612 52.2202 91.4148C48.9659 90.6683 45.8367 89.4242 43.3334 87.1848C40.9552 84.9454 39.4532 81.4618 40.3294 78.3515C41.3307 75.2413 44.4599 72.8774 44.7102 69.5183C44.9605 66.2836 42.332 63.4222 39.328 61.9292C36.4492 60.4363 33.0697 59.5654 30.4412 57.5748C27.8128 55.5843 26.0605 51.8519 27.8128 48.9904C29.3148 46.6266 32.4439 46.0045 34.4466 44.014C37.0751 41.2769 36.5744 36.7981 35.3228 33.1902C34.0711 29.5822 32.0684 25.9743 32.5691 22.2419C32.9446 18.8828 35.5731 15.6481 38.9526 14.6529Z" fill="url(#paint0_linear_467_7141)"/>
<path d="M96.4044 62.3026C95.1528 61.9293 93.9011 61.6805 92.6494 62.0537C91.3978 62.3025 90.2713 63.1735 89.8958 64.4176C89.3951 66.0349 90.3964 67.6523 90.6468 69.2696C91.1474 72.5043 88.0183 75.739 84.764 75.3658C83.1368 75.2414 81.5096 74.2461 79.8825 74.3705C77.254 74.4949 75.5017 77.2319 75.1262 79.7202C74.7507 82.2084 75.3765 84.9454 75.5017 87.5581C75.6268 90.1707 74.8758 93.0322 72.6229 94.4007C70.3699 95.7693 67.491 95.0228 64.8625 95.396C60.8572 95.8937 57.3526 99.1284 56.6016 103.11C49.0916 93.4054 48.3407 79.2225 54.7241 68.772C54.9745 71.0114 57.8533 72.3799 59.9811 71.6334C62.1089 70.887 63.4857 68.6475 63.8612 66.4081C64.2367 64.1687 63.7361 61.9293 63.2354 59.6899C62.8599 58.3214 62.6096 56.9529 62.8599 55.7088C63.1103 54.3402 64.3619 53.0961 65.7387 53.2205C67.2407 53.3449 68.3672 54.9623 69.8692 55.0867C70.9957 55.0867 71.997 54.2158 72.4977 53.0961C72.8732 51.9764 72.8732 50.8567 72.6229 49.737C72.1222 45.0093 70.7454 40.5305 68.7427 36.1761C68.3672 35.3053 67.9917 34.5588 67.8666 33.5635C67.7414 32.6926 68.2421 31.6973 68.993 31.3241C70.3699 30.702 71.7467 32.0706 72.4977 33.3147C73.2487 34.5588 73.8745 36.1761 75.2514 36.425C76.6282 36.7982 78.1302 35.5541 78.5057 34.1855C79.0063 32.817 78.756 31.3241 78.756 29.8311C78.5057 26.0988 78.756 22.242 79.7573 18.6341C80.1328 17.1412 80.8838 15.3994 82.3858 15.0262C84.013 14.6529 85.6401 16.1459 86.5163 17.5144C87.8931 19.7538 88.8944 22.1176 89.3951 24.7303C89.7706 26.472 90.021 28.4626 91.5229 29.2091C93.4004 30.3288 95.6534 28.7114 97.4057 27.2185C99.0329 25.7255 101.411 24.2326 103.289 25.4767C105.041 26.5964 104.665 29.3335 103.539 31.1997C102.412 33.0658 100.785 34.6832 100.66 36.6738C100.535 37.4202 100.66 38.1667 101.161 38.6644C101.912 39.4108 103.163 39.2864 104.165 38.9132C105.166 38.54 106.042 37.7935 107.044 37.5447C109.046 37.047 111.299 38.5399 111.925 40.4061C112.676 42.3967 112.05 44.6361 110.673 46.2535C109.422 47.8708 107.419 48.8661 105.542 49.4882C103.914 49.9858 102.037 50.6079 101.661 52.2252C101.286 53.7182 102.663 55.2111 104.04 56.082C105.416 56.9529 106.918 57.8238 107.294 59.3167C107.795 61.4317 105.542 63.4223 103.414 63.5467C100.66 63.9199 98.5322 62.9246 96.4044 62.3026Z" fill="url(#paint1_linear_467_7141)"/>
<path d="M55.7241 103.109C55.0982 98.1329 51.7188 93.7786 47.5883 91.0415C43.4578 88.3044 38.4511 86.8115 33.5697 85.5674C28.6882 84.3233 23.6816 83.328 19.0504 81.3374C17.7988 80.8397 16.5471 80.0933 15.6709 79.098C14.7948 78.1027 14.2941 76.6097 14.7947 75.2412C15.9212 72.5042 20.3021 72.6286 21.6789 70.016C22.555 68.3986 21.9292 66.2836 20.6776 65.0395C19.4259 63.671 17.6736 62.9245 16.0464 62.178C11.6656 60.063 7.53514 57.326 3.90532 54.2157C2.77883 53.2204 1.52717 52.1007 0.901342 50.7322C0.275512 49.3636 0.275497 47.6219 1.27683 46.3778C2.27815 45.2581 3.9053 45.1336 5.40729 45.1336C8.16094 45.1336 10.9146 45.6313 13.5431 46.6266C15.2954 47.2486 17.1729 48.1195 18.9253 47.4975C20.8027 46.751 21.6789 44.5116 21.8041 42.521C21.8041 40.5304 21.3034 38.5398 21.4286 36.4248C21.5537 34.3098 22.8054 31.946 24.808 31.6972C27.1862 31.4483 28.9385 33.8122 30.065 35.9272C30.6909 37.2957 31.3167 38.5398 32.318 39.6595C33.3193 40.7792 34.6962 41.6501 36.1982 41.5257C39.077 41.4013 40.7042 38.1666 43.4578 37.0469C45.3353 36.3004 47.5883 36.6736 49.3406 37.7933C51.0929 38.913 52.2194 40.6548 52.9704 42.6454C54.9731 47.7463 54.0969 53.4692 53.7214 58.9433C53.3459 64.4174 53.5962 70.5136 57.3512 74.6192C58.9784 76.3609 61.2314 77.7295 62.1076 79.8445C62.8585 81.5862 62.483 83.5768 62.1076 85.3186C60.8559 91.5391 58.7281 97.5109 55.7241 103.109Z" fill="url(#paint2_linear_467_7141)"/>
<path d="M91.7696 102.985H23.3038C22.0521 102.985 21.0508 101.99 21.0508 100.746V98.2575C21.0508 97.0134 22.0521 96.0181 23.3038 96.0181H91.7696C93.0213 96.0181 94.0226 97.0134 94.0226 98.2575V100.746C93.8975 101.99 93.0213 102.985 91.7696 102.985Z" fill="#3839C4"/>
<defs>
<linearGradient id="paint0_linear_467_7141" x1="53.8345" y1="102.58" x2="50.3391" y2="1.29663" gradientUnits="userSpaceOnUse">
<stop offset="0.2278" stop-color="#05AAB0"/>
<stop offset="0.3506" stop-color="#05B9BF"/>
<stop offset="0.5413" stop-color="#05CAD1"/>
<stop offset="0.7484" stop-color="#05D4DB"/>
<stop offset="1" stop-color="#05D7DE"/>
</linearGradient>
<linearGradient id="paint1_linear_467_7141" x1="43.125" y1="70.8947" x2="110.548" y2="39.9555" gradientUnits="userSpaceOnUse">
<stop stop-color="#056EAB"/>
<stop offset="0.0863103" stop-color="#057FBA"/>
<stop offset="0.2206" stop-color="#0591CA"/>
<stop offset="0.3794" stop-color="#059ED5"/>
<stop offset="0.5843" stop-color="#05A6DC"/>
<stop offset="1" stop-color="#05A8DE"/>
</linearGradient>
<linearGradient id="paint2_linear_467_7141" x1="54.546" y1="103.641" x2="21.2762" y2="34.1982" gradientUnits="userSpaceOnUse">
<stop stop-color="#009DB8"/>
<stop offset="0.1273" stop-color="#02ABC7"/>
<stop offset="0.3046" stop-color="#04B7D4"/>
<stop offset="0.5343" stop-color="#05BEDC"/>
<stop offset="1" stop-color="#05C0DE"/>
</linearGradient>
</defs>
</svg>
