<svg width="35" height="34" viewBox="0 0 35 34" fill="none" xmlns="http://www.w3.org/2000/svg">
<path d="M17.5434 15.5515C16.5364 15.5515 15.8203 15.9768 15.8203 16.6033V25.129C15.8203 25.666 16.5364 26.203 17.5434 26.203C18.5056 26.203 19.2887 25.666 19.2887 25.129V16.6032C19.2887 15.9767 18.5056 15.5515 17.5434 15.5515Z" fill="#F9FBFD"/>
<path d="M17.54 10.293C16.5106 10.293 15.7051 11.0314 15.7051 11.8817C15.7051 12.7321 16.5107 13.493 17.54 13.493C18.5469 13.493 19.3526 12.7321 19.3526 11.8817C19.3526 11.0314 18.5469 10.293 17.54 10.293Z" fill="#F9FBFD"/>
<path d="M17.5 0C8.10411 0 0.5 7.60325 0.5 17C0.5 26.3958 8.10325 34 17.5 34C26.8959 34 34.5 26.3967 34.5 17C34.5 7.60425 26.8967 0 17.5 0ZM17.5 31.6279C9.43416 31.6279 2.8721 25.0659 2.8721 17C2.8721 8.9341 9.43416 2.3721 17.5 2.3721C25.5658 2.3721 32.1279 8.9341 32.1279 17C32.1279 25.0659 25.5658 31.6279 17.5 31.6279Z" fill="#F9FBFD"/>
</svg>
