<svg width="1292" height="157" viewBox="0 0 1292 157" fill="none" xmlns="http://www.w3.org/2000/svg">
<path d="M71 46C71.3599 45.984 71.7365 45.9792 72.1275 45.9869C90.6161 45.5496 91.0293 34.2361 92.5 21C92 41 107.5 46.8333 115.5 47C123.167 47.1667 133.8 47.4 115 47C97.8888 46.6359 93.0104 60.0511 92.5234 68.6218C92.5388 69.3898 92.5314 70.1823 92.5 71C92.4701 70.2664 92.4753 69.4677 92.5234 68.6218C92.1665 50.7886 79.564 46.1328 72.1275 45.9869C71.7589 45.9956 71.3831 46 71 46Z" fill="#41B79B"/>
<path d="M1138 59C1138.24 58.9891 1138.5 58.9859 1138.77 58.9911C1151.31 58.6938 1151.59 51.0006 1152.59 42C1152.25 55.6 1162.77 59.5667 1168.2 59.68C1173.41 59.7933 1180.62 59.952 1167.86 59.68C1156.25 59.4324 1152.94 68.5548 1152.61 74.3828C1152.62 74.9051 1152.61 75.444 1152.59 76C1152.57 75.5012 1152.58 74.958 1152.61 74.3828C1152.37 62.2562 1143.81 59.0903 1138.77 58.9911C1138.52 58.997 1138.26 59 1138 59Z" fill="#41B79B"/>
<path d="M248 127C248.257 126.988 248.527 126.985 248.807 126.991C262.033 126.676 262.329 118.53 263.381 109C263.024 123.4 274.112 127.6 279.836 127.72C285.32 127.84 292.928 128.008 279.478 127.72C267.236 127.458 263.746 137.117 263.398 143.288C263.409 143.841 263.404 144.411 263.381 145C263.36 144.472 263.364 143.897 263.398 143.288C263.143 130.448 254.127 127.096 248.807 126.991C248.543 126.997 248.274 127 248 127Z" fill="#41B79B"/>
<path d="M1253 139C1253.26 138.988 1253.53 138.985 1253.81 138.991C1267.03 138.676 1267.33 130.53 1268.38 121C1268.02 135.4 1279.11 139.6 1284.84 139.72C1290.32 139.84 1297.93 140.008 1284.48 139.72C1272.24 139.458 1268.75 149.117 1268.4 155.288C1268.41 155.841 1268.4 156.411 1268.38 157C1268.36 156.472 1268.36 155.897 1268.4 155.288C1268.14 142.448 1259.13 139.096 1253.81 138.991C1253.54 138.997 1253.27 139 1253 139Z" fill="#41B79B"/>
<path d="M0 110C0.158423 109.993 0.324245 109.991 0.496351 109.994C8.63598 109.802 8.81792 104.824 9.46539 99C9.24527 107.8 16.0692 110.367 19.5912 110.44C22.9664 110.513 27.6477 110.616 19.371 110.44C11.8378 110.28 9.69011 116.182 9.4757 119.954C9.48247 120.292 9.47924 120.64 9.46539 121C9.45221 120.677 9.45454 120.326 9.4757 119.954C9.31856 112.107 3.77031 110.058 0.496351 109.994C0.334087 109.998 0.168656 110 0 110Z" fill="#2E3646"/>
<path d="M1041 121C1041.16 120.993 1041.32 120.991 1041.5 120.994C1049.64 120.802 1049.82 115.824 1050.47 110C1050.25 118.8 1057.07 121.367 1060.59 121.44C1063.97 121.513 1068.65 121.616 1060.37 121.44C1052.84 121.28 1050.69 127.182 1050.48 130.954C1050.48 131.292 1050.48 131.64 1050.47 132C1050.45 131.677 1050.45 131.326 1050.48 130.954C1050.32 123.107 1044.77 121.058 1041.5 120.994C1041.33 120.998 1041.17 121 1041 121Z" fill="#2E3646"/>
<path d="M192 21C192.211 20.9904 192.432 20.9875 192.662 20.9921C203.515 20.7298 203.757 13.9417 204.621 6C204.327 18 213.426 21.5 218.122 21.6C222.622 21.7 228.864 21.84 217.828 21.6C207.784 21.3816 204.92 29.4307 204.634 34.5731C204.643 35.0339 204.639 35.5094 204.621 36C204.603 35.5598 204.606 35.0806 204.634 34.5731C204.425 23.8731 197.027 21.0797 192.662 20.9921C192.445 20.9974 192.225 21 192 21Z" fill="#2E3646"/>
<path d="M1249 11C1249.16 10.993 1249.32 10.9908 1249.5 10.9942C1257.64 10.8019 1257.82 5.8239 1258.47 0C1258.25 8.8 1265.07 11.3667 1268.59 11.44C1271.97 11.5133 1276.65 11.616 1268.37 11.44C1260.84 11.2798 1258.69 17.1825 1258.48 20.9536C1258.48 21.2915 1258.48 21.6402 1258.47 22C1258.45 21.6772 1258.45 21.3258 1258.48 20.9536C1258.32 13.107 1252.77 11.0584 1249.5 10.9942C1249.33 10.9981 1249.17 11 1249 11Z" fill="#2E3646"/>
</svg>
