<svg width="289" height="132" viewBox="0 0 289 132" fill="none" xmlns="http://www.w3.org/2000/svg">
<path d="M91 25C91.3599 24.984 91.7365 24.9792 92.1275 24.9869C110.616 24.5496 111.029 13.2361 112.5 0C112 20 127.5 25.8333 135.5 26C143.167 26.1667 153.8 26.4 135 26C117.889 25.6359 113.01 39.0511 112.523 47.6218C112.539 48.3898 112.531 49.1823 112.5 50C112.47 49.2664 112.475 48.4677 112.523 47.6218C112.166 29.7886 99.564 25.1328 92.1275 24.9869C91.7589 24.9956 91.3831 25 91 25Z" fill="#41B79B"/>
<path d="M250 99C250.257 98.9885 250.527 98.985 250.807 98.9905C264.033 98.6758 264.329 90.53 265.381 81C265.024 95.4 276.112 99.6 281.836 99.72C287.32 99.84 294.928 100.008 281.478 99.72C269.236 99.4579 265.746 109.117 265.398 115.288C265.409 115.841 265.404 116.411 265.381 117C265.36 116.472 265.364 115.897 265.398 115.288C265.143 102.448 256.127 99.0956 250.807 98.9905C250.543 98.9968 250.274 99 250 99Z" fill="#41B79B"/>
<path d="M0 70C0.158423 69.993 0.324245 69.9908 0.496351 69.9942C8.63598 69.8019 8.81792 64.8239 9.46539 59C9.24527 67.8 16.0692 70.3667 19.5912 70.44C22.9664 70.5133 27.6477 70.616 19.371 70.44C11.8378 70.2798 9.69011 76.1825 9.4757 79.9536C9.48247 80.2915 9.47924 80.6402 9.46539 81C9.45221 80.6772 9.45454 80.3258 9.4757 79.9536C9.31856 72.107 3.77031 70.0584 0.496351 69.9942C0.334087 69.9981 0.168656 70 0 70Z" fill="#2E3646"/>
<path d="M145 117C145.211 116.99 145.432 116.988 145.662 116.992C156.515 116.73 156.757 109.942 157.621 102C157.327 114 166.426 117.5 171.122 117.6C175.622 117.7 181.864 117.84 170.828 117.6C160.784 117.382 157.92 125.431 157.634 130.573C157.643 131.034 157.639 131.509 157.621 132C157.603 131.56 157.606 131.081 157.634 130.573C157.425 119.873 150.027 117.08 145.662 116.992C145.445 116.997 145.225 117 145 117Z" fill="#2E3646"/>
</svg>
