<svg width="77" height="79" viewBox="0 0 77 79" fill="none" xmlns="http://www.w3.org/2000/svg">
<path d="M44.7541 68.7431H42.1967V56.212C42.1967 55.8729 42.062 55.5476 41.8222 55.3078C41.5824 55.068 41.2572 54.9333 40.918 54.9333C40.5789 54.9333 40.2537 55.068 40.0139 55.3078C39.7741 55.5476 39.6393 55.8729 39.6393 56.212V68.7431H6.39344V43.1694H17.0321C17.3713 43.1694 17.6965 43.0347 17.9363 42.7949C18.1761 42.5551 18.3108 42.2298 18.3108 41.8907C18.3108 41.5516 18.1761 41.2263 17.9363 40.9865C17.6965 40.7467 17.3713 40.612 17.0321 40.612H5.11475C4.77562 40.612 4.45039 40.7467 4.21059 40.9865C3.97078 41.2263 3.83607 41.5516 3.83607 41.8907V68.7431H1.27869C0.939559 68.7431 0.61432 68.8779 0.374519 69.1177C0.134719 69.3575 0 69.6827 0 70.0218V72.5792C0 74.2749 0.673593 75.9011 1.8726 77.1001C3.0716 78.2991 4.6978 78.9727 6.39344 78.9727H39.6393C41.335 78.9727 42.9612 78.2991 44.1602 77.1001C45.3592 75.9011 46.0328 74.2749 46.0328 72.5792V70.0218C46.0328 69.6827 45.8981 69.3575 45.6583 69.1177C45.4185 68.8779 45.0932 68.7431 44.7541 68.7431ZM43.4754 72.5792C43.4754 73.5966 43.0713 74.5723 42.3519 75.2917C41.6325 76.0111 40.6567 76.4153 39.6393 76.4153H37.082V75.1366C37.082 74.7975 36.9473 74.4722 36.7075 74.2324C36.4676 73.9926 36.1424 73.8579 35.8033 73.8579C35.4641 73.8579 35.1389 73.9926 34.8991 74.2324C34.6593 74.4722 34.5246 74.7975 34.5246 75.1366V76.4153H11.5082V75.1366C11.5082 74.7975 11.3735 74.4722 11.1337 74.2324C10.8939 73.9926 10.5686 73.8579 10.2295 73.8579C9.89038 73.8579 9.56514 73.9926 9.32534 74.2324C9.08554 74.4722 8.95082 74.7975 8.95082 75.1366V76.4153H6.39344C5.37605 76.4153 4.40034 76.0111 3.68093 75.2917C2.96153 74.5723 2.55738 73.5966 2.55738 72.5792V71.3005H43.4754V72.5792Z" fill="#41B79B"/>
<path d="M66.4911 9.92347H69.0485C69.3876 9.92347 69.7128 9.78875 69.9526 9.54895C70.1924 9.30915 70.3272 8.98391 70.3272 8.64478C70.3272 8.30565 70.1924 7.98041 69.9526 7.74061C69.7128 7.50081 69.3876 7.36609 69.0485 7.36609H66.4911C65.4737 7.36609 64.498 7.77024 63.7786 8.48965C63.0592 9.20905 62.655 10.1848 62.655 11.2022V12.4808H61.3763C61.0372 12.4808 60.712 12.6156 60.4722 12.8554C60.2324 13.0952 60.0977 13.4204 60.0977 13.7595C60.0977 14.0987 60.2324 14.4239 60.4722 14.6637C60.712 14.9035 61.0372 15.0382 61.3763 15.0382H62.655V18.8743C62.655 19.2134 62.7898 19.5387 63.0296 19.7785C63.2694 20.0183 63.5946 20.153 63.9337 20.153C64.2729 20.153 64.5981 20.0183 64.8379 19.7785C65.0777 19.5387 65.2124 19.2134 65.2124 18.8743V15.0382H66.4911C66.8302 15.0382 67.1555 14.9035 67.3953 14.6637C67.6351 14.4239 67.7698 14.0987 67.7698 13.7595C67.7698 13.4204 67.6351 13.0952 67.3953 12.8554C67.1555 12.6156 66.8302 12.4808 66.4911 12.4808H65.2124V11.2022C65.2124 10.863 65.3471 10.5378 65.5869 10.298C65.8267 10.0582 66.152 9.92347 66.4911 9.92347Z" fill="#41B79B"/>
<path d="M72.8874 2.25134H57.5431C56.5257 2.25134 55.55 2.6555 54.8306 3.3749C54.1112 4.0943 53.707 5.07002 53.707 6.08741V8.64479C53.707 8.98391 53.8417 9.30915 54.0815 9.54895C54.3214 9.78876 54.6466 9.92347 54.9857 9.92347C55.3248 9.92347 55.6501 9.78876 55.8899 9.54895C56.1297 9.30915 56.2644 8.98391 56.2644 8.64479V6.08741C56.2644 5.74828 56.3991 5.42304 56.6389 5.18324C56.8787 4.94344 57.204 4.80872 57.5431 4.80872H72.8874C73.2265 4.80872 73.5517 4.94344 73.7915 5.18324C74.0313 5.42304 74.166 5.74828 74.166 6.08741V21.4317C74.166 21.7708 74.0313 22.096 73.7915 22.3358C73.5517 22.5756 73.2265 22.7104 72.8874 22.7104H57.5431C57.204 22.7104 56.8787 22.5756 56.6389 22.3358C56.3991 22.096 56.2644 21.7708 56.2644 21.4317V13.7595C56.2644 13.4204 56.1297 13.0952 55.8899 12.8554C55.6501 12.6156 55.3248 12.4809 54.9857 12.4809C54.6466 12.4809 54.3214 12.6156 54.0815 12.8554C53.8417 13.0952 53.707 13.4204 53.707 13.7595V21.4317C53.707 22.4491 54.1112 23.4248 54.8306 24.1442C55.55 24.8636 56.5257 25.2677 57.5431 25.2677H72.8874C73.9047 25.2677 74.8805 24.8636 75.5999 24.1442C76.3193 23.4248 76.7234 22.4491 76.7234 21.4317V6.08741C76.7234 5.07002 76.3193 4.0943 75.5999 3.3749C74.8805 2.6555 73.9047 2.25134 72.8874 2.25134Z" fill="#41B79B"/>
<path d="M60.0977 53.3989C60.0977 54.4105 60.3976 55.3994 60.9596 56.2405C61.5217 57.0816 62.3205 57.7372 63.2551 58.1243C64.1897 58.5114 65.2181 58.6127 66.2102 58.4153C67.2024 58.218 68.1138 57.7309 68.8291 57.0155C69.5444 56.3002 70.0315 55.3889 70.2289 54.3967C70.4262 53.4045 70.325 52.3761 69.9378 51.4415C69.5507 50.5069 68.8951 49.7081 68.054 49.1461C67.2129 48.5841 66.224 48.2841 65.2124 48.2841C63.8559 48.2841 62.5549 48.823 61.5957 49.7822C60.6365 50.7414 60.0977 52.0424 60.0977 53.3989ZM67.7698 53.3989C67.7698 53.9047 67.6198 54.3991 67.3388 54.8197C67.0578 55.2402 66.6584 55.568 66.1911 55.7616C65.7238 55.9551 65.2096 56.0058 64.7135 55.9071C64.2174 55.8084 63.7617 55.5649 63.4041 55.2072C63.0464 54.8496 62.8028 54.3939 62.7042 53.8978C62.6055 53.4017 62.6561 52.8875 62.8497 52.4202C63.0433 51.9529 63.371 51.5535 63.7916 51.2725C64.2122 50.9915 64.7066 50.8415 65.2124 50.8415C65.8907 50.8415 66.5411 51.1109 67.0208 51.5905C67.5004 52.0701 67.7698 52.7206 67.7698 53.3989Z" fill="#41B79B"/>
<path d="M72.8874 41.8907H57.5431C56.5257 41.8907 55.55 42.2948 54.8306 43.0142C54.1112 43.7336 53.707 44.7094 53.707 45.7268V61.071C53.707 62.0884 54.1112 63.0641 54.8306 63.7835C55.55 64.5029 56.5257 64.9071 57.5431 64.9071H72.8874C73.9047 64.9071 74.8805 64.5029 75.5999 63.7835C76.3193 63.0641 76.7234 62.0884 76.7234 61.071V58.5136C76.7234 58.1745 76.5887 57.8493 76.3489 57.6095C76.1091 57.3697 75.7839 57.2349 75.4447 57.2349C75.1056 57.2349 74.7804 57.3697 74.5406 57.6095C74.3008 57.8493 74.166 58.1745 74.166 58.5136V61.071C74.166 61.4101 74.0313 61.7354 73.7915 61.9752C73.5517 62.215 73.2265 62.3497 72.8874 62.3497H57.5431C57.204 62.3497 56.8787 62.215 56.6389 61.9752C56.3991 61.7354 56.2644 61.4101 56.2644 61.071V45.7268C56.2644 45.3876 56.3991 45.0624 56.6389 44.8226C56.8787 44.5828 57.204 44.4481 57.5431 44.4481H72.8874C73.2265 44.4481 73.5517 44.5828 73.7915 44.8226C74.0313 45.0624 74.166 45.3876 74.166 45.7268V53.3989C74.166 53.738 74.3008 54.0633 74.5406 54.3031C74.7804 54.5429 75.1056 54.6776 75.4447 54.6776C75.7839 54.6776 76.1091 54.5429 76.3489 54.3031C76.5887 54.0633 76.7234 53.738 76.7234 53.3989V45.7268C76.7234 44.7094 76.3193 43.7336 75.5999 43.0142C74.8805 42.2948 73.9047 41.8907 72.8874 41.8907Z" fill="#41B79B"/>
<path d="M28.7299 17.4038C28.9334 17.5299 29.1682 17.5964 29.4076 17.5956C29.6078 17.5944 29.8049 17.5463 29.983 17.455L37.6551 13.6189C37.8646 13.5116 38.0404 13.3486 38.1631 13.1478C38.2858 12.947 38.3508 12.7162 38.3508 12.4809C38.3508 12.2455 38.2858 12.0148 38.1631 11.814C38.0404 11.6132 37.8646 11.4502 37.6551 11.3428L29.983 7.50678C29.7884 7.40869 29.5719 7.36199 29.3541 7.37112C29.1363 7.38024 28.9245 7.44488 28.7387 7.5589C28.5529 7.67293 28.3994 7.83255 28.2927 8.0226C28.1859 8.21266 28.1296 8.42684 28.1289 8.64481V16.3169C28.1285 16.5343 28.1834 16.7481 28.2886 16.9383C28.3937 17.1284 28.5456 17.2887 28.7299 17.4038ZM30.6863 10.7163L34.2155 12.4809L30.6863 14.2455V10.7163Z" fill="#41B79B"/>
<path d="M31.9691 23.9891C34.2452 23.9891 36.4702 23.3141 38.3627 22.0496C40.2553 20.785 41.7303 18.9877 42.6013 16.8849C43.4723 14.782 43.7003 12.4681 43.2562 10.2357C42.8122 8.00335 41.7161 5.95278 40.1067 4.34333C38.4972 2.73388 36.4466 1.63783 34.2143 1.19379C31.9819 0.749742 29.668 0.977643 27.5651 1.84867C25.4623 2.7197 23.665 4.19473 22.4004 6.08725C21.1359 7.97976 20.4609 10.2048 20.4609 12.4809C20.4609 15.533 21.6734 18.4602 23.8316 20.6184C25.9898 22.7766 28.917 23.9891 31.9691 23.9891ZM31.9691 3.53004C33.7394 3.53004 35.47 4.05499 36.9419 5.03852C38.4139 6.02205 39.5611 7.41998 40.2386 9.05553C40.9161 10.6911 41.0933 12.4908 40.748 14.2271C40.4026 15.9634 39.5501 17.5582 38.2983 18.81C37.0465 20.0618 35.4516 20.9143 33.7154 21.2597C31.9791 21.6051 30.1794 21.4278 28.5438 20.7503C26.9083 20.0729 25.5103 18.9256 24.5268 17.4537C23.5433 15.9817 23.0183 14.2512 23.0183 12.4809C23.0183 10.107 23.9613 7.83028 25.6399 6.15167C27.3186 4.47307 29.5952 3.53004 31.9691 3.53004Z" fill="#41B79B"/>
<path d="M44.7513 29.1038C44.9499 29.1038 45.1456 29.0576 45.3232 28.9688C45.5007 28.8801 45.6552 28.7512 45.7743 28.5924L49.6104 23.4776C49.8138 23.2063 49.9012 22.8653 49.8532 22.5296C49.8053 22.1938 49.6259 21.8909 49.3546 21.6874C49.0833 21.484 48.7423 21.3966 48.4066 21.4446C48.0709 21.4925 47.7679 21.6719 47.5645 21.9432L43.7284 27.0579C43.5249 27.3292 43.4376 27.6703 43.4855 28.006C43.5335 28.3417 43.7128 28.6446 43.9841 28.8481C44.2055 29.0141 44.4747 29.1038 44.7513 29.1038Z" fill="#41B79B"/>
<path d="M47.5682 33.7071C47.6873 33.8659 47.8418 33.9948 48.0193 34.0836C48.1969 34.1724 48.3927 34.2186 48.5912 34.2186C48.8679 34.2186 49.1371 34.1288 49.3584 33.9628L54.4732 30.1268C54.7445 29.9233 54.9238 29.6204 54.9718 29.2847C55.0197 28.9489 54.9324 28.6079 54.7289 28.3366C54.5254 28.0653 54.2225 27.886 53.8868 27.838C53.5511 27.79 53.21 27.8774 52.9387 28.0809L47.824 31.9169C47.5527 32.1204 47.3733 32.4233 47.3254 32.7591C47.2774 33.0948 47.3648 33.4358 47.5682 33.7071Z" fill="#41B79B"/>
<path d="M60.1007 36.5202C60.0703 36.3507 60.006 36.1891 59.9116 36.045C59.8172 35.9009 59.6947 35.7775 59.5514 35.6819C59.4081 35.5864 59.2469 35.5208 59.0777 35.4891C58.9084 35.4573 58.7344 35.4601 58.5663 35.4973L52.1728 36.776C52.0049 36.7927 51.8419 36.8424 51.6932 36.9222C51.5445 37.002 51.413 37.1103 51.3061 37.2409C51.0903 37.5047 50.9881 37.8434 51.022 38.1825C51.0559 38.5216 51.2232 38.8334 51.4869 39.0492C51.7507 39.265 52.0894 39.3672 52.4286 39.3333H52.6843L59.0777 38.0546C59.2473 38.0242 59.4089 37.9599 59.553 37.8655C59.697 37.7711 59.8205 37.6486 59.916 37.5053C60.0116 37.362 60.0772 37.2009 60.1089 37.0316C60.1406 36.8623 60.1378 36.6884 60.1007 36.5202Z" fill="#41B79B"/>
<path d="M1.27869 36.7759H16.623C16.9621 36.7759 17.2873 36.6412 17.5271 36.4014C17.7669 36.1616 17.9016 35.8364 17.9016 35.4972V15.0382C17.9016 14.6991 17.7669 14.3738 17.5271 14.134C17.2873 13.8942 16.9621 13.7595 16.623 13.7595H1.27869C0.939559 13.7595 0.61432 13.8942 0.374519 14.134C0.134719 14.3738 0 14.6991 0 15.0382V35.4972C0 35.8364 0.134719 36.1616 0.374519 36.4014C0.61432 36.6412 0.939559 36.7759 1.27869 36.7759ZM2.55738 16.3169H15.3443V34.2185H2.55738V16.3169Z" fill="#41B79B"/>
<path d="M11.5079 18.8743H8.95056C8.61143 18.8743 8.28619 19.009 8.04639 19.2488C7.80659 19.4886 7.67187 19.8139 7.67188 20.153C7.67187 20.4921 7.80659 20.8174 8.04639 21.0572C8.28619 21.297 8.61143 21.4317 8.95056 21.4317H11.5079C11.8471 21.4317 12.1723 21.297 12.4121 21.0572C12.6519 20.8174 12.7866 20.4921 12.7866 20.153C12.7866 19.8139 12.6519 19.4886 12.4121 19.2488C12.1723 19.009 11.8471 18.8743 11.5079 18.8743Z" fill="#41B79B"/>
<path d="M11.5067 23.9891H6.39197C6.05284 23.9891 5.7276 24.1238 5.4878 24.3636C5.248 24.6034 5.11328 24.9286 5.11328 25.2678C5.11328 25.6069 5.248 25.9321 5.4878 26.1719C5.7276 26.4117 6.05284 26.5465 6.39197 26.5465H11.5067C11.8459 26.5465 12.1711 26.4117 12.4109 26.1719C12.6507 25.9321 12.7854 25.6069 12.7854 25.2678C12.7854 24.9286 12.6507 24.6034 12.4109 24.3636C12.1711 24.1238 11.8459 23.9891 11.5067 23.9891Z" fill="#41B79B"/>
<path d="M11.5067 29.1038H6.39197C6.05284 29.1038 5.7276 29.2385 5.4878 29.4783C5.248 29.7181 5.11328 30.0434 5.11328 30.3825C5.11328 30.7216 5.248 31.0469 5.4878 31.2867C5.7276 31.5265 6.05284 31.6612 6.39197 31.6612H11.5067C11.8459 31.6612 12.1711 31.5265 12.4109 31.2867C12.6507 31.0469 12.7854 30.7216 12.7854 30.3825C12.7854 30.0434 12.6507 29.7181 12.4109 29.4783C12.1711 29.2385 11.8459 29.1038 11.5067 29.1038Z" fill="#41B79B"/>
<path d="M43.6268 36.3923C43.5428 36.2462 43.4309 36.1181 43.2975 36.0153C43.164 35.9124 43.0116 35.8369 42.8489 35.7929C42.6862 35.749 42.5165 35.7376 42.3494 35.7592C42.1823 35.7809 42.0211 35.8352 41.875 35.9192C41.7289 36.0032 41.6008 36.1151 41.4979 36.2485C41.3951 36.382 41.3196 36.5344 41.2756 36.6971C41.2317 36.8598 41.2202 37.0295 41.2419 37.1966C41.2636 37.3637 41.3179 37.5249 41.4019 37.671L47.0409 47.4274L26.5819 55.0995C26.5819 55.0995 26.5819 55.0995 26.4924 55.0995H26.3901L23.0655 57.0176L20.8534 58.2963C20.5621 58.4646 20.2405 58.5739 19.907 58.6177C19.5735 58.6616 19.2346 58.6393 18.9098 58.552C18.2571 58.3757 17.7008 57.9481 17.3625 57.3628L14.8052 52.9385C14.5043 52.3597 14.436 51.6878 14.6143 51.0602C14.7926 50.4327 15.2039 49.897 15.7642 49.5628L20.1884 47.0054L23.3852 52.5422C23.4978 52.7373 23.66 52.8992 23.8554 53.0115C24.0507 53.1237 24.2723 53.1824 24.4976 53.1815C24.7225 53.1824 24.9437 53.124 25.1387 53.0121C25.3338 52.9002 25.496 52.7389 25.6088 52.5444C25.7216 52.3498 25.7812 52.129 25.7814 51.9041C25.7816 51.6792 25.7225 51.4582 25.6101 51.2635L22.3111 45.5605L38.3586 32.3261L38.8829 33.234C38.9668 33.38 39.0787 33.5082 39.2122 33.611C39.3457 33.7138 39.4981 33.7894 39.6608 33.8333C39.8235 33.8773 39.9932 33.8887 40.1603 33.8671C40.3274 33.8454 40.4886 33.791 40.6347 33.7071C40.7808 33.6231 40.9089 33.5112 41.0117 33.3777C41.1146 33.2442 41.1901 33.0918 41.234 32.9292C41.278 32.7665 41.2894 32.5968 41.2678 32.4297C41.2461 32.2626 41.1917 32.1014 41.1078 31.9553L39.8291 29.7431C39.7354 29.5829 39.6079 29.445 39.4556 29.339C39.3032 29.2331 39.1296 29.1615 38.9468 29.1294C38.763 29.0947 38.5739 29.1008 38.3927 29.1472C38.2116 29.1936 38.0428 29.2792 37.8983 29.3979L19.9966 44.154L14.5494 47.2995C13.5719 47.8689 12.8107 48.7463 12.385 49.7944C11.9592 50.8425 11.893 52.0022 12.1966 53.092L10.9179 53.8208C10.2591 54.1992 9.72745 54.7646 9.39039 55.4455C9.05332 56.1264 8.92603 56.892 9.02464 57.6453C9.12326 58.3987 9.44334 59.1057 9.94431 59.6769C10.4453 60.2481 11.1046 60.6576 11.8386 60.8536C12.164 60.9398 12.4994 60.9828 12.836 60.9815C13.5087 60.9787 14.1693 60.8026 14.754 60.47L16.0327 59.7412C16.6469 60.3757 17.4194 60.8348 18.2704 61.071C18.7074 61.1932 19.1593 61.2535 19.613 61.25C20.5118 61.2521 21.3948 61.0137 22.1704 60.5595L23.2829 59.9202L25.8402 64.3572C26.3485 65.2359 27.1843 65.8774 28.1646 66.141C29.1448 66.4047 30.1896 66.269 31.0701 65.7638C31.5069 65.5121 31.8898 65.1768 32.1969 64.7771C32.504 64.3773 32.7294 63.9209 32.86 63.434C32.9906 62.9471 33.024 62.4392 32.9582 61.9394C32.8924 61.4396 32.7288 60.9577 32.4766 60.5212L30.1494 56.4677L49.3298 49.2687C49.5037 49.2033 49.6613 49.1008 49.7916 48.9683C49.9219 48.8358 50.0217 48.6765 50.0842 48.5015C50.1464 48.3286 50.1706 48.1442 50.1552 47.9611C50.1397 47.7779 50.085 47.6003 49.9947 47.4402L43.6268 36.3923ZM13.4242 58.2451C13.2786 58.3293 13.1178 58.3839 12.951 58.4059C12.7843 58.4278 12.6148 58.4166 12.4524 58.373C12.1248 58.2879 11.8443 58.0764 11.6724 57.7848C11.5882 57.6392 11.5336 57.4784 11.5116 57.3116C11.4897 57.1449 11.5009 56.9754 11.5445 56.813C11.5882 56.6497 11.6637 56.4967 11.7669 56.3628C11.8701 56.2289 11.9987 56.1168 12.1455 56.033L13.2579 55.3936L14.5366 57.6058L13.4242 58.2451ZM30.2517 61.8254C30.3359 61.971 30.3905 62.1318 30.4125 62.2986C30.4344 62.4654 30.4232 62.6348 30.3796 62.7972C30.2884 63.1223 30.0724 63.3981 29.7786 63.5644C29.4865 63.7322 29.1401 63.778 28.8145 63.6918C28.4888 63.6056 28.2104 63.3944 28.0396 63.1041L25.4822 58.6671L27.6048 57.4523H27.7071L30.2517 61.8254Z" fill="#41B79B"/>
</svg>
