<svg width="19" height="19" viewBox="0 0 19 19" fill="none" xmlns="http://www.w3.org/2000/svg">
<path d="M17.4316 1.01471C16.7553 0.338278 15.9405 0 14.9879 0H3.4587C2.50604 0 1.69126 0.338278 1.01471 1.01471C0.338278 1.69126 0 2.506 0 3.4587V14.9877C0 15.9404 0.338278 16.7552 1.01471 17.4317C1.69126 18.1083 2.50604 18.4466 3.4587 18.4466H14.9877C15.9404 18.4466 16.7552 18.1083 17.4314 17.4317C18.108 16.7552 18.4463 15.9404 18.4463 14.9877V3.4587C18.4462 2.506 18.108 1.69114 17.4316 1.01471ZM14.1111 7.09765C14.1191 7.16971 14.1232 7.2776 14.1232 7.42197C14.1232 8.09453 14.025 8.76906 13.829 9.44541C13.6329 10.1221 13.3326 10.7706 12.9281 11.391C12.5241 12.0114 12.0417 12.56 11.4813 13.0364C10.9208 13.5125 10.2484 13.893 9.46358 14.177C8.67917 14.4614 7.83836 14.6037 6.94172 14.6037C5.54873 14.6037 4.25973 14.2271 3.07474 13.4748C3.26689 13.4987 3.46716 13.5108 3.67521 13.5108C4.83617 13.5108 5.881 13.1505 6.80977 12.4298C6.26542 12.422 5.77895 12.254 5.35065 11.9254C4.92223 11.5971 4.62408 11.1809 4.45591 10.6764C4.664 10.7084 4.8201 10.7243 4.92417 10.7243C5.10029 10.7243 5.30451 10.6923 5.53662 10.6284C4.95218 10.5161 4.45987 10.2262 4.05955 9.75782C3.65914 9.28939 3.459 8.75501 3.459 8.15459V8.13057C3.88321 8.33059 4.28354 8.43465 4.65988 8.44277C3.93129 7.95428 3.56702 7.25384 3.56702 6.34113C3.56702 5.89273 3.68303 5.46843 3.91522 5.06811C4.54765 5.84478 5.31641 6.46518 6.221 6.92952C7.12567 7.39383 8.09452 7.65416 9.12728 7.71015C9.08732 7.55804 9.06725 7.36581 9.06725 7.1337C9.06725 6.43704 9.31345 5.84268 9.80589 5.35023C10.2982 4.85783 10.8927 4.61155 11.5892 4.61155C12.3259 4.61155 12.9385 4.87584 13.4268 5.40429C13.9793 5.30022 14.516 5.09596 15.0362 4.79184C14.8361 5.40816 14.4636 5.87658 13.9194 6.19685C14.4397 6.12467 14.9239 5.98864 15.3722 5.7885C15.036 6.30088 14.6155 6.73721 14.1111 7.09765Z" fill="#F9FBFD"/>
</svg>
