<svg width="97" height="119" viewBox="0 0 97 119" fill="none" xmlns="http://www.w3.org/2000/svg">
<path d="M96.3131 113.678C96.4262 113.12 96.4538 112.536 96.4538 111.964C96.4608 76.9794 96.4354 41.9969 96.5 7.01218C96.5069 3.57067 95.4205 1.16255 92.0782 0C63.0261 0 33.9739 0 4.92185 0C2.82281 0.793483 1.1828 2.02753 0.666111 4.37108C0.523099 5.02155 0.543859 5.66741 0.543859 6.31788C0.541552 41.2242 0.569231 76.1329 0.500032 111.039C0.493112 114.49 1.59568 116.882 4.92185 118.051C33.9739 118.051 63.0261 118.051 92.0782 118.051C94.1818 117.263 95.8357 116.026 96.3131 113.678ZM4.20218 18.9398C4.26907 14.6379 4.22756 10.336 4.23217 6.03416C4.23448 4.31572 4.86419 3.68831 6.60108 3.68831C34.5252 3.686 62.4494 3.686 90.3712 3.68831C92.1612 3.68831 92.7678 4.30649 92.7701 6.12181C92.7725 10.4998 92.7425 14.8801 92.7955 19.2581C92.807 20.1369 92.5695 20.3099 91.7252 20.3099C77.3226 20.2823 62.9176 20.2892 48.515 20.2892C34.1885 20.2892 19.8619 20.273 5.53542 20.3215C4.3821 20.3261 4.18604 20.0055 4.20218 18.9398ZM92.7701 68.5856C92.7701 82.9928 92.7701 97.3978 92.7701 111.805C92.7701 113.78 92.1981 114.363 90.2605 114.363C62.4079 114.363 34.5552 114.363 6.70258 114.363C4.82267 114.363 4.22756 113.77 4.22756 111.888C4.22756 82.9605 4.23217 54.033 4.19988 25.1031C4.19757 24.0928 4.50205 23.9567 5.40856 23.9567C34.1054 23.9821 62.8046 23.9844 91.5015 23.9521C92.551 23.9498 92.7955 24.2151 92.7932 25.2508C92.7586 39.6972 92.7701 54.1414 92.7701 68.5856Z" fill="#41B79B"/>
<path d="M48.6718 33.204C30.3318 33.1209 15.3663 47.9687 15.2971 66.318C15.2302 84.5774 30.1011 99.5405 48.3835 99.6074C66.6636 99.6743 81.6152 84.8357 81.7006 66.5464C81.7859 48.2686 66.9427 33.2847 48.6718 33.204ZM48.455 95.9191C32.1978 95.8938 18.9877 82.6467 18.9877 66.3619C18.9854 50.1739 32.2509 36.8969 48.425 36.8946C64.7745 36.8923 78.033 50.1347 78.0123 66.4472C77.9915 82.7021 64.7145 95.9422 48.455 95.9191Z" fill="#41B79B"/>
<path d="M13.6053 15.6711C19.0536 15.6895 24.4995 15.6895 29.9478 15.6688C31.1519 15.6641 31.8554 14.9283 31.8923 13.7196C31.9223 12.684 31.9038 11.6483 31.8992 10.6126C31.89 8.96105 31.2487 8.30828 29.6133 8.30366C27.0045 8.29674 24.3957 8.30135 21.7869 8.30135C19.102 8.30135 16.4171 8.28982 13.7321 8.30597C12.3159 8.31519 11.6308 9.0118 11.6123 10.4327C11.5985 11.5076 11.5916 12.5802 11.6147 13.6551C11.6423 14.9352 12.3343 15.6664 13.6053 15.6711Z" fill="#41B79B"/>
<path d="M68.7349 15.6782C70.7278 15.7059 72.4209 14.0889 72.4762 12.1006C72.5339 10.0638 70.8708 8.32693 68.841 8.30156C66.7927 8.27618 65.0996 9.94388 65.0996 11.9922C65.0996 13.9782 66.7489 15.6505 68.7349 15.6782Z" fill="#41B79B"/>
<path d="M81.6438 15.678C83.6345 15.7057 85.3298 14.0887 85.3875 12.1027C85.4475 10.066 83.7867 8.32906 81.7545 8.30138C79.7501 8.2737 78.0708 9.87912 78.0132 11.8744C77.9555 13.9134 79.6117 15.648 81.6438 15.678Z" fill="#41B79B"/>
<path d="M48.5316 42.426C35.2846 42.4214 24.5241 53.1773 24.5195 66.4289C24.5149 79.5975 35.2823 90.3695 48.4647 90.3856C61.7002 90.4018 72.4907 79.6159 72.4791 66.3805C72.4653 53.1934 61.7071 42.4306 48.5316 42.426ZM48.4025 86.695C37.2406 86.6604 28.194 77.5284 28.2102 66.309C28.224 55.214 37.3721 46.1005 48.4786 46.1166C59.735 46.1328 68.8231 55.2509 68.7885 66.5004C68.7562 77.6553 59.5966 86.7296 48.4025 86.695Z" fill="#41B79B"/>
</svg>
