<svg width="175" height="46" viewBox="0 0 175 46" fill="none" xmlns="http://www.w3.org/2000/svg">
<path d="M3.52344 27.7911H44.1989L47.3347 18.1482H6.64866L3.52344 27.7911Z" fill="#808080"/>
<path d="M25.8405 0.469482V0.471687C11.1839 0.471687 8.69832 12.6225 8.69832 12.6225H48.5276L51.6076 0.469482H25.8405ZM0.316406 45.4695H27.2865C39.3572 44.908 42.5946 35.8275 43.1798 33.7415C43.2564 33.4693 43.2882 33.3147 43.2882 33.3147H3.38324L0.316406 45.4695Z" fill="#808080"/>
<path d="M113.258 15.4582L113.375 14.9971C113.723 13.7931 114.912 10.6413 117.852 10.6413H137.775L140.367 0.469482H116.591C114.37 0.469482 112.307 1.32339 110.403 3.02985C108.462 4.75834 107.123 7.07164 106.385 9.96801L97.3424 45.469H105.613L110.059 28.0147H130.747L133.21 18.3484H112.522L113.258 15.4582ZM86.4133 0.469482L78.972 29.6828L78.9767 29.6154C78.9767 29.6154 78.1312 34.1967 75.1558 34.4213H70.046L78.6941 0.469482H70.4453L61.7972 34.4213H54.1434L62.7918 0.469482H54.5212L43.0586 45.4695H77.8183C79.6229 45.3127 81.187 44.4813 82.5115 42.9765C83.7768 41.4726 84.7446 39.4064 85.4139 36.7791L94.6627 0.469482H86.4133ZM97.6095 0.469482L86.1463 45.4695H94.4172L105.88 0.469482H97.6095ZM142.93 0.469482L140.339 10.6413H151.851L142.981 45.4695H151.273L160.145 10.6413H171.901L174.492 0.469482H142.93Z" fill="#808080"/>
</svg>
