<svg width="86" height="61" viewBox="0 0 86 61" fill="none" xmlns="http://www.w3.org/2000/svg">
<path d="M20.1016 60.5839C20.7527 58.4807 21.3914 56.4167 22.0302 54.3521C25.6335 42.709 29.2376 31.0667 32.833 19.4207C32.9297 19.1064 33.0541 18.99 33.4026 18.9915C37.9132 19.006 42.423 18.9958 46.9336 19.0104C47.3082 19.0118 47.4785 18.9114 47.5978 18.5455C49.4587 12.8244 51.3386 7.10979 53.201 1.38939C53.3051 1.07074 53.4404 0.965247 53.7809 0.969612C55.2963 0.991437 56.8117 0.987802 58.3271 0.971796C58.6334 0.968159 58.7614 1.0591 58.8509 1.3581C60.9032 8.2709 62.9671 15.1808 65.0289 22.0907C68.8003 34.7304 72.5717 47.3701 76.3424 60.0099C76.3802 60.1357 76.4144 60.2631 76.4639 60.4362C76.3169 60.4442 76.1918 60.458 76.0667 60.458C70.9261 60.4588 65.7848 60.4559 60.6442 60.4668C60.3423 60.4675 60.2332 60.3664 60.1473 60.095C59.1761 57.0446 58.1867 54.0007 57.2205 50.9495C57.1209 50.6352 56.9812 50.5508 56.664 50.5508C51.0142 50.561 45.3636 50.5603 39.7138 50.5515C39.4133 50.5508 39.278 50.6308 39.1834 50.9313C38.2071 54.0436 37.2119 57.1493 36.2261 60.258C36.1599 60.4675 36.1002 60.6028 35.8223 60.6021C30.657 60.5919 25.4924 60.5948 20.3271 60.5941C20.266 60.5948 20.2056 60.589 20.1016 60.5839ZM52.3906 35.2193C50.996 30.9866 49.6137 26.7889 48.2307 22.5919C48.1994 22.5897 48.1674 22.5875 48.1361 22.5861C46.7619 26.7867 45.3883 30.9874 44.0039 35.22C46.8142 35.2193 49.5715 35.2193 52.3906 35.2193Z" fill="#808080"/>
<path d="M50.6589 0.988592C50.5214 1.43456 50.4072 1.8114 50.2886 2.1868C48.7703 6.992 47.2483 11.795 45.7395 16.6031C45.6383 16.924 45.4936 17.0178 45.156 17.0171C40.6578 17.004 36.1596 17.012 31.6607 17.0033C31.3486 17.0025 31.206 17.0745 31.1034 17.3976C26.6809 31.3723 22.2467 45.3434 17.8133 59.3152C17.7325 59.5684 17.6343 59.8186 17.5805 60.0776C17.5099 60.4166 17.3448 60.5258 16.9847 60.5243C12.8255 60.5098 8.66706 60.5149 4.50789 60.5149C3.61087 60.5149 2.71312 60.5149 1.8161 60.5149C1.69679 60.5149 1.57821 60.5149 1.37742 60.5149C5.64789 45.9588 9.9031 31.4552 14.1809 16.8738C9.60336 16.8738 5.0848 16.8738 0.505859 16.8738C0.75685 16.0357 0.982379 15.2754 1.21227 14.5159C2.53779 10.145 3.86986 5.77633 5.18229 1.40182C5.28269 1.06716 5.42309 0.980591 5.75848 0.980591C20.5633 0.989321 35.3674 0.987864 50.1722 0.987864C50.3126 0.988592 50.453 0.988592 50.6589 0.988592Z" fill="#808080"/>
<path d="M82.1486 60.9695C80.5146 60.9731 79.1665 59.6243 79.168 57.9867C79.1694 56.3644 80.5008 55.0257 82.1224 55.0163C83.7593 55.0068 85.1059 56.3556 85.0979 57.9969C85.0892 59.6331 83.7673 60.9666 82.1486 60.9695ZM82.1508 60.6086C83.5803 60.6043 84.7567 59.4061 84.7407 57.97C84.7254 56.539 83.5629 55.3786 82.1435 55.3771C80.7074 55.3757 79.5303 56.5572 79.5346 57.9954C79.5383 59.4352 80.7176 60.613 82.1508 60.6086Z" fill="#808080"/>
<path d="M81.0632 56.2764C81.7442 56.331 82.38 56.3703 83.0129 56.4372C83.277 56.4649 83.6466 56.9363 83.6553 57.2549C83.6655 57.5969 83.504 57.8631 83.1774 57.997C83.0231 58.0603 82.8565 58.093 82.6499 58.1527C82.9628 58.6452 83.2669 59.1253 83.5797 59.6179C83.2785 59.7139 83.0952 59.6455 82.962 59.3836C82.8253 59.1152 82.6507 58.8664 82.4921 58.6088C82.1509 58.0537 82.1465 58.0523 81.4473 58.1672C81.4473 58.6401 81.4473 59.1203 81.4473 59.6273C81.3018 59.6273 81.192 59.6273 81.0625 59.6273C81.0632 58.5346 81.0632 57.4521 81.0632 56.2764ZM81.4604 57.7591C81.9217 57.7591 82.3662 57.7867 82.8049 57.7489C83.0828 57.7249 83.2392 57.5168 83.2428 57.2164C83.2465 56.9166 83.1083 56.7115 82.8187 56.6787C82.372 56.6285 81.9202 56.6242 81.4604 56.6002C81.4604 57.033 81.4604 57.3902 81.4604 57.7591Z" fill="#808080"/>
</svg>
