<svg width="184" height="355" viewBox="0 0 184 355" fill="none" xmlns="http://www.w3.org/2000/svg">
<path d="M154.569 0.209351H30.2793C14.0077 0.209351 0.865234 13.2726 0.865234 29.4461V325.048C0.865234 341.221 14.0077 354.285 30.2793 354.285H154.569C170.841 354.285 183.983 341.221 183.983 325.048V29.4461C183.983 13.2726 170.841 0.209351 154.569 0.209351ZM180.353 325.048C180.353 339.231 168.713 351.174 154.569 351.174H30.2793C16.0103 351.174 4.49504 339.231 4.49504 325.048V29.4461C4.49504 15.2631 16.1355 3.81728 30.2793 3.81728H154.569C168.838 3.81728 180.353 15.3876 180.353 29.4461V325.048Z" fill="#5C7EA8"/>
<path d="M155.071 11.0331H140.426C138.674 11.0331 137.297 12.4016 137.297 14.1434V14.5166C137.297 19.6175 133.167 23.8475 127.91 23.8475H56.9405C51.8087 23.8475 47.553 19.7419 47.553 14.5166V14.1434C47.553 12.4016 46.1762 11.0331 44.4239 11.0331H29.6543C19.8913 11.0331 12.0059 18.871 12.0059 28.5751V326.416C12.0059 336.12 19.8913 343.958 29.6543 343.958H155.071C164.834 343.958 172.719 336.12 172.719 326.416V28.6995C172.719 18.9954 164.834 11.0331 155.071 11.0331Z" fill="#E9EBF5"/>
<path d="M153.571 102.351H35.0391V126.985H153.571V102.351Z" fill="#DBDCE6"/>
<path d="M153.571 138.555H35.0391V163.189H153.571V138.555Z" fill="#DBDCE6"/>
<path d="M153.571 174.634H35.0391V289.964H153.571V174.634Z" fill="#DBDCE6"/>
</svg>
