<svg width="70" height="79" viewBox="0 0 70 79" fill="none" xmlns="http://www.w3.org/2000/svg">
<path d="M54.1505 73.1579C53.5196 73.0796 52.9456 73.5277 52.8673 74.1586C52.6985 75.5247 51.5318 76.5547 50.1519 76.5547H5.03938C3.53057 76.5547 2.30252 75.3283 2.30252 73.8178V27.2119L8.5637 47.854C8.71406 48.3513 9.17155 48.6721 9.66423 48.6721C9.77468 48.6721 9.88833 48.6552 9.99878 48.6215C10.6082 48.4373 10.952 47.7941 10.7663 47.1863L5.02247 28.248C5.80537 30.1958 7.71484 31.5758 9.94196 31.5758C12.8645 31.5758 15.2437 29.1966 15.2437 26.2741C15.2437 24.2288 15.2437 14.6316 15.2437 13.0503C22.9146 10.7222 32.127 7.92927 40.6627 5.34019C41.2705 5.15448 41.6144 4.51281 41.4302 3.90344C41.2445 3.29558 40.6013 2.95174 39.9934 3.13593L18.6958 9.59652C17.4662 7.1866 14.9597 5.53351 12.0725 5.53351C7.97413 5.53351 4.64024 8.86741 4.64024 12.9658V13.8606L3.61177 14.1722C1.4721 14.8201 0.0353438 16.7573 0.0353438 18.9922L0 20.3552V73.818C0 76.5978 2.26093 78.8572 5.03923 78.8572H50.1517C52.6921 78.8572 54.841 76.9584 55.1526 74.441C55.2313 73.8102 54.7815 73.2346 54.1505 73.1579ZM6.94292 12.9659C6.94292 10.137 9.24376 7.83604 12.0728 7.83604C13.9178 7.83604 15.5388 8.81531 16.4412 10.2813L14.455 10.8831C12.6295 8.78316 9.1615 9.82672 8.81705 12.593C8.77653 12.9105 8.79069 23.9923 8.791 24.4168C8.791 25.0523 9.30668 25.5681 9.94226 25.5681C10.5778 25.5681 11.0935 25.0524 11.0935 24.4168C11.0935 23.569 11.0935 13.4985 11.0935 12.9952C11.0935 12.4856 11.5079 12.071 12.0176 12.071C12.5274 12.071 12.9418 12.4854 12.9418 12.9952C12.9418 14.573 12.9418 24.5186 12.9418 26.2741C12.9418 27.9271 11.5956 29.2734 9.94241 29.2734C8.28918 29.2734 6.94307 27.9273 6.94307 26.2741C6.94292 23.4325 6.94292 15.8414 6.94292 12.9659ZM3.1392 17.0658C3.14072 17.0627 3.14224 17.0612 3.14377 17.0627C3.24873 16.991 3.75436 16.4654 4.64039 16.3397C4.67772 26.6852 4.55615 26.4121 4.75084 27.3531L2.45624 19.7888C2.15262 18.7769 2.45456 17.7547 3.1392 17.0658Z" fill="#41B79B"/>
<path d="M53.0677 4.43602C52.236 1.69505 49.3802 0.281908 46.7835 1.0776L44.4013 1.7991C43.7934 1.98481 43.4496 2.62648 43.6338 3.23585C43.818 3.84371 44.4612 4.18755 45.069 4.00336C47.3266 3.35087 47.5745 3.16227 48.248 3.16227C49.4407 3.16227 50.5182 3.9604 50.8651 5.10557L54.1729 16.0131L55.1921 19.3717L66.7626 57.5185C67.2148 58.9969 66.3388 60.5077 64.9391 60.9323C18.8245 74.9199 21.5907 74.1452 20.9731 74.1452C19.7789 74.1452 18.7029 73.3471 18.356 72.2019L12.1041 51.5919C11.9199 50.9841 11.2767 50.6402 10.6689 50.8244C10.0595 51.0101 9.71719 51.6533 9.90137 52.2612L16.1517 72.8711C16.801 75.0108 18.7381 76.4476 20.9731 76.4476C21.4673 76.4476 21.9601 76.3738 22.4374 76.2296L52.8896 66.9922V69.6967C52.8896 70.3322 53.4038 70.848 54.0409 70.848C54.6763 70.848 55.1921 70.3323 55.1921 69.6967V66.2937L65.6068 63.1347C67.7465 62.4854 69.1847 60.5484 69.1847 58.3148C69.1847 56.9139 69.7525 59.7012 53.0677 4.43602Z" fill="#41B79B"/>
<path d="M34.9018 28.8552C33.9286 25.6467 31.3546 25.4934 29.8168 25.4022C28.4282 25.3004 27.4631 25.3642 27.1488 24.3277C26.8471 23.3327 27.5478 22.8183 28.5449 22.5157C30.0033 22.0733 30.5105 22.6498 31.2112 22.4371C32.0354 22.1871 32.2365 21.2088 32.0603 20.6282C31.6853 19.3921 29.8004 19.5194 28.7907 19.6839L28.6504 19.2211C28.4194 18.4596 27.612 18.028 26.8504 18.2589C26.0888 18.4899 25.6573 19.2973 25.8884 20.059L26.0812 20.6946C24.4737 21.7517 23.9053 23.357 24.4802 25.2526C25.3085 27.9832 27.4849 28.1247 29.2337 28.2384C30.978 28.3517 31.834 28.4644 32.2332 29.7802C32.5764 30.9118 32.1477 31.6175 30.8842 32.0006C28.8482 32.6181 28.5425 31.116 27.4322 31.4528C26.7013 31.6745 26.366 32.6102 26.5652 33.2672C26.8922 34.3452 28.5579 35.0268 30.3823 34.8754L30.5216 35.3342C30.7525 36.0958 31.56 36.5274 32.3217 36.2963C33.0833 36.0653 33.5148 35.2579 33.2837 34.4962L33.1354 34.0069C34.9306 32.929 35.5744 31.0727 34.9018 28.8552Z" fill="#41B79B"/>
<path d="M52.5942 34.897C52.4097 34.2885 51.7664 33.9452 51.1584 34.1295L18.3408 44.0841C17.7325 44.2687 17.3888 44.9116 17.5733 45.5199C17.757 46.1255 18.3976 46.4727 19.0091 46.2875L51.8267 36.3329C52.4352 36.1481 52.7789 35.5053 52.5942 34.897Z" fill="#41B79B"/>
<path d="M54.5089 41.2138C54.323 40.6059 53.6798 40.2621 53.0721 40.4463L52.8895 40.5016L20.2547 50.4006C19.6468 50.5863 19.303 51.228 19.4872 51.8373C19.6724 52.4478 20.3187 52.7874 20.9239 52.6048C20.9419 52.5995 53.6751 42.6707 53.7414 42.6506C54.3492 42.4647 54.6931 41.8217 54.5089 41.2138Z" fill="#41B79B"/>
<path d="M56.4267 47.5301C56.2454 46.9341 55.6158 46.5781 54.9915 46.7626L52.8917 47.3995L22.1725 56.7183C20.9111 57.1005 21.1902 58.9716 22.5071 58.9716C22.6175 58.9716 22.7297 58.9547 22.8416 58.921C30.147 56.7051 47.9034 51.3192 55.6591 48.9667C56.2671 48.7827 56.6109 48.1395 56.4267 47.5301Z" fill="#41B79B"/>
<path d="M58.3402 53.8481C58.156 53.2402 57.5128 52.8964 56.9049 53.0806L55.192 53.601C26.1763 62.4014 24.1876 63.0044 24.0906 63.034C24.0902 63.034 24.0901 63.0341 24.0898 63.0341L24.0902 63.034C24.0892 63.0343 24.0883 63.0346 24.0877 63.0347L24.0881 63.0346C24.0878 63.0346 24.0875 63.0347 24.0875 63.0347C22.8235 63.4169 23.1061 65.2882 24.4205 65.2882C24.6798 65.2882 22.751 65.852 57.5727 55.2833C58.182 55.099 58.5259 54.4558 58.3402 53.8481Z" fill="#41B79B"/>
<path d="M24.0898 63.034H24.0901C24.092 63.0333 24.0932 63.033 24.0932 63.033C24.0927 63.0331 24.0914 63.0336 24.0898 63.034Z" fill="#41B79B"/>
</svg>
