<svg width="35" height="30" viewBox="0 0 35 30" fill="none" xmlns="http://www.w3.org/2000/svg">
<path d="M24.6547 16.1664H20.0348C18.7704 16.1664 17.7422 17.1946 17.7422 18.459V22.0021C17.7422 23.2665 18.7704 24.2947 20.0348 24.2947H24.6547C25.9191 24.2947 26.9473 23.2665 26.9473 22.0021V18.459C26.9473 17.1946 25.9191 16.1664 24.6547 16.1664ZM25.28 22.0021C25.28 22.3495 24.9952 22.6274 24.6547 22.6274H20.0348C19.6874 22.6274 19.4095 22.3425 19.4095 22.0021V18.459C19.4095 18.1116 19.6944 17.8337 20.0348 17.8337H24.6547C25.0021 17.8337 25.28 18.1186 25.28 18.459V22.0021Z" fill="#F9FBFD"/>
<path d="M34.5 9.7262C34.5 9.5803 34.4653 9.44136 34.3888 9.31631L29.3312 0.423784C29.1853 0.166735 28.9074 0 28.6087 0H6.38435C6.08562 0 5.80772 0.159788 5.66183 0.423784L0.611157 9.31631C0.541684 9.44136 0.5 9.5803 0.5 9.7262C0.5 11.7201 1.70188 13.4291 3.41786 14.1864V28.8521C3.41786 29.3106 3.79301 29.6857 4.25153 29.6857H8.85758C8.86453 29.6857 8.87148 29.6857 8.87842 29.6857H15.3394C15.3463 29.6857 15.3533 29.6857 15.3602 29.6857H30.7415C31.2 29.6857 31.5752 29.3106 31.5752 28.8521V14.2906C31.5752 14.2558 31.5752 14.228 31.5682 14.2002C33.2912 13.443 34.5 11.727 34.5 9.7262ZM6.87066 1.6743H28.1224L32.0754 8.62852H2.9246L6.87066 1.6743ZM24.6974 10.2889C24.4334 11.7895 23.1204 12.9289 21.5433 12.9289C19.9663 12.9289 18.6532 11.7895 18.3893 10.2889H24.6974ZM16.6177 10.2889C16.3537 11.7895 15.0407 12.9289 13.4636 12.9289C11.8866 12.9289 10.5736 11.7895 10.3026 10.2889H16.6177ZM2.22293 10.2889H8.53801C8.27401 11.7895 6.95403 12.9289 5.37699 12.9289C3.79996 12.9358 2.48692 11.7895 2.22293 10.2889ZM14.5057 28.0184H9.7121V19.0217C9.7121 18.3686 10.2401 17.8337 10.9001 17.8337H13.3247C13.9777 17.8337 14.5127 18.3617 14.5127 19.0217V28.0184H14.5057ZM29.9078 28.0184H16.1731V19.0217C16.1731 17.4516 14.8948 16.1663 13.3177 16.1663H10.8931C9.32305 16.1663 8.0378 17.4446 8.0378 19.0217V28.0253H5.08521V14.5962C5.18247 14.6032 5.27973 14.6032 5.37699 14.6032C7.05823 14.6032 8.54495 13.7487 9.42031 12.4495C10.2957 13.7487 11.7824 14.6032 13.4636 14.6032C15.1449 14.6032 16.6246 13.7487 17.5069 12.4495C18.3823 13.7487 19.869 14.6032 21.5433 14.6032C23.2246 14.6032 24.7043 13.7487 25.5797 12.4495C26.455 13.7487 27.9418 14.6032 29.623 14.6032C29.7203 14.6032 29.8106 14.5962 29.9078 14.5962V28.0184ZM29.623 12.9358C28.046 12.9358 26.7329 11.7965 26.4689 10.2959H32.784C32.5131 11.7895 31.2 12.9358 29.623 12.9358Z" fill="#F9FBFD"/>
</svg>
