<svg width="96" height="96" viewBox="0 0 96 96" fill="none" xmlns="http://www.w3.org/2000/svg">
<path d="M46.0209 17.0321H49.9817L51.177 20.6181L54.119 19.6395L49.4738 5.70406C49.372 5.39428 49.175 5.12455 48.9108 4.93333C48.6467 4.74211 48.3289 4.63916 48.0028 4.63916C47.6768 4.63916 47.359 4.74211 47.0949 4.93333C46.8307 5.12455 46.6337 5.39428 46.5319 5.70406L41.8867 19.6395L44.8287 20.6181L46.0209 17.0321ZM48.9505 13.9353H47.0521L48.0013 11.0894L48.9505 13.9353Z" fill="#41B79B"/>
<path d="M60.3874 17.0324C59.9767 17.0324 59.5829 16.8692 59.2925 16.5788C59.0021 16.2885 58.839 15.8946 58.839 15.484H55.7422C55.7422 16.4027 56.0146 17.3008 56.525 18.0647C57.0355 18.8286 57.7609 19.424 58.6097 19.7755C59.4585 20.1271 60.3925 20.2191 61.2936 20.0399C62.1946 19.8606 63.0223 19.4182 63.672 18.7686C64.3216 18.119 64.764 17.2913 64.9433 16.3902C65.1225 15.4891 65.0305 14.5551 64.6789 13.7063C64.3273 12.8576 63.732 12.1321 62.9681 11.6217C62.2042 11.1112 61.3061 10.8388 60.3874 10.8388C60.0811 10.8388 59.7817 10.748 59.5271 10.5779C59.2725 10.4077 59.074 10.1659 58.9568 9.88297C58.8396 9.60004 58.809 9.28871 58.8687 8.98835C58.9285 8.68799 59.0759 8.4121 59.2925 8.19555C59.509 7.97901 59.7849 7.83154 60.0853 7.77179C60.3856 7.71205 60.697 7.74271 60.9799 7.8599C61.2628 7.9771 61.5046 8.17556 61.6748 8.43019C61.8449 8.68482 61.9357 8.98418 61.9357 9.29043H65.0325C65.0325 8.3717 64.7601 7.47361 64.2497 6.70971C63.7392 5.94582 63.0138 5.35044 62.165 4.99886C61.3162 4.64728 60.3822 4.55529 59.4811 4.73452C58.5801 4.91376 57.7524 5.35616 57.1027 6.0058C56.4531 6.65544 56.0107 7.48313 55.8314 8.3842C55.6522 9.28527 55.7442 10.2193 56.0958 11.0681C56.4474 11.9168 57.0427 12.6423 57.8066 13.1527C58.5705 13.6632 59.4686 13.9356 60.3874 13.9356C60.798 13.9356 61.1918 14.0987 61.4822 14.3891C61.7726 14.6795 61.9357 15.0733 61.9357 15.484C61.9357 15.8946 61.7726 16.2885 61.4822 16.5788C61.1918 16.8692 60.798 17.0324 60.3874 17.0324Z" fill="#41B79B"/>
<path d="M34.8393 20.1291C36.2766 20.1291 37.655 19.5582 38.6713 18.5418C39.6877 17.5255 40.2586 16.1471 40.2586 14.7098V13.9356C40.2586 13.5249 40.0955 13.1311 39.8051 12.8407C39.5147 12.5503 39.1209 12.3872 38.7102 12.3872H34.0651V15.484H37.0302C36.8482 16.0014 36.489 16.4377 36.0161 16.7156C35.5432 16.9935 34.9872 17.0951 34.4466 17.0024C33.906 16.9097 33.4157 16.6286 33.0624 16.209C32.7092 15.7894 32.5159 15.2583 32.5167 14.7098V10.0646C32.5167 9.44863 32.7614 8.85787 33.197 8.42231C33.6325 7.98674 34.2233 7.74204 34.8393 7.74204C35.4553 7.74204 36.046 7.98674 36.4816 8.42231C36.9172 8.85787 37.1619 9.44863 37.1619 10.0646V10.8388H40.2586V10.0646C40.2586 8.62732 39.6877 7.24888 38.6713 6.23256C37.655 5.21623 36.2766 4.64526 34.8393 4.64526C33.402 4.64526 32.0235 5.21623 31.0072 6.23256C29.9909 7.24888 29.4199 8.62732 29.4199 10.0646V14.7098C29.4199 16.1471 29.9909 17.5255 31.0072 18.5418C32.0235 19.5582 33.402 20.1291 34.8393 20.1291Z" fill="#41B79B"/>
<path d="M96 20.129C96 18.8971 95.5106 17.7155 94.6395 16.8444C93.7683 15.9733 92.5868 15.4839 91.3548 15.4839H71.2258V4.64516C71.2258 3.41319 70.7364 2.23167 69.8653 1.36054C68.9941 0.489399 67.8126 0 66.5806 0H27.871C26.639 0 25.4575 0.489399 24.5863 1.36054C23.7152 2.23167 23.2258 3.41319 23.2258 4.64516V15.4839H4.64516C3.41319 15.4839 2.23167 15.9733 1.36054 16.8444C0.489399 17.7155 0 18.8971 0 20.129C0 21.361 0.489399 22.5425 1.36054 23.4137C2.23167 24.2848 3.41319 24.7742 4.64516 24.7742H13.9355V41.8064H12.3871C10.3346 41.8089 8.3668 42.6254 6.91544 44.0767C5.46408 45.5281 4.64762 47.4958 4.64516 49.5484V83.6919C4.09365 83.8009 3.57278 84.0296 3.11932 84.3619C2.66586 84.6942 2.29085 85.1219 2.02077 85.615C1.75069 86.108 1.59212 86.6544 1.55625 87.2154C1.52038 87.7764 1.60808 88.3385 1.81316 88.8619C1.10715 89.3106 0.565456 89.9758 0.269198 90.7581C-0.0270608 91.5404 -0.0619447 92.3976 0.16977 93.2013C0.401484 94.0051 0.887328 94.7122 1.55455 95.2167C2.22178 95.7212 3.03448 95.996 3.87097 96H92.129C93.0877 95.9991 94.0119 95.6425 94.7227 94.9993C95.4335 94.356 95.8803 93.4719 95.9767 92.5181C96.0731 91.5643 95.8121 90.6087 95.2443 89.8363C94.6765 89.0639 93.8423 88.5297 92.9032 88.337V24.4893C93.8058 24.1702 94.5877 23.58 95.1421 22.7995C95.6964 22.019 95.996 21.0863 96 20.129ZM52.6452 88.2581V24.7742H89.8064V88.2581H52.6452ZM29.4194 54.1935H30.7355C31.0627 54.2102 31.3781 54.3214 31.6434 54.5138C31.9086 54.7062 32.1123 54.9715 32.2297 55.2774L33.8539 58.8898C34.016 59.2492 34.0867 59.6431 34.0597 60.0365C34.0327 60.4298 33.9088 60.8104 33.6991 61.1443C33.5612 61.3785 33.3662 61.574 33.1322 61.7123C32.8982 61.8507 32.633 61.9275 32.3613 61.9355H29.4194V54.1935ZM29.4194 65.0323H31.3719L34.0181 73.6475C34.1155 74.3251 34.0683 75.0158 33.8796 75.6739C33.6909 76.332 33.365 76.9427 32.9234 77.4658C32.5362 77.9341 32.0506 78.3114 31.5013 78.5709C30.9519 78.8305 30.3521 78.966 29.7445 78.9677H29.4194V65.0323ZM29.4194 83.6919V82.0645H29.7445C30.7989 82.06 31.8398 81.8265 32.7951 81.38C33.7503 80.9335 34.5971 80.2848 35.2769 79.4787C36.0207 78.6022 36.5655 77.5747 36.8737 76.4672C37.182 75.3597 37.2463 74.1985 37.0622 73.0637C37.0494 72.9917 37.0328 72.9204 37.0126 72.8501L34.4516 64.5089C35.202 64.1181 35.8372 63.5379 36.2942 62.8258C36.7835 62.0574 37.0746 61.1798 37.1416 60.2713C37.2086 59.3629 37.0494 58.452 36.6782 57.6201L35.0539 54.0077C34.6906 53.1584 34.0898 52.432 33.3238 51.9157C32.5578 51.3993 31.6591 51.115 30.7355 51.0968H29.4194V49.5484C29.4169 47.4958 28.6004 45.5281 27.1491 44.0767C25.6977 42.6254 23.73 41.8089 21.6774 41.8064V24.7742H49.5484V88.2581H32.4372C32.6423 87.2524 32.4396 86.2064 31.8737 85.3501C31.3078 84.4939 30.425 83.8974 29.4194 83.6919ZM91.3548 18.5806C91.7655 18.5806 92.1593 18.7438 92.4497 19.0342C92.7401 19.3245 92.9032 19.7184 92.9032 20.129C92.9032 20.5397 92.7401 20.9335 92.4497 21.2239C92.1593 21.5143 91.7655 21.6774 91.3548 21.6774H70.9409C71.1243 21.1815 71.2207 20.6577 71.2258 20.129V18.5806H91.3548ZM26.3226 4.64516C26.3226 4.2345 26.4857 3.84067 26.7761 3.55029C27.0665 3.25991 27.4603 3.09677 27.871 3.09677H66.5806C66.9913 3.09677 67.3851 3.25991 67.6755 3.55029C67.9659 3.84067 68.129 4.2345 68.129 4.64516V20.129C68.129 20.5397 67.9659 20.9335 67.6755 21.2239C67.3851 21.5143 66.9913 21.6774 66.5806 21.6774H27.871C27.4603 21.6774 27.0665 21.5143 26.7761 21.2239C26.4857 20.9335 26.3226 20.5397 26.3226 20.129V4.64516ZM3.09677 20.129C3.09677 19.7184 3.25991 19.3245 3.55029 19.0342C3.84066 18.7438 4.2345 18.5806 4.64516 18.5806H23.2258V20.129C23.2309 20.6577 23.3273 21.1815 23.5107 21.6774H4.64516C4.2345 21.6774 3.84066 21.5143 3.55029 21.2239C3.25991 20.9335 3.09677 20.5397 3.09677 20.129ZM17.0323 24.7742H18.5806V41.8064H17.0323V24.7742ZM12.3871 44.9032H21.6774C22.9094 44.9032 24.0909 45.3926 24.962 46.2638C25.8332 47.1349 26.3226 48.3164 26.3226 49.5484V83.6129H7.74194V49.5484C7.74194 48.3164 8.23133 47.1349 9.10247 46.2638C9.97361 45.3926 11.1551 44.9032 12.3871 44.9032ZM5.41935 86.7097H28.6452C28.8505 86.7097 29.0474 86.7912 29.1926 86.9364C29.3378 87.0816 29.4194 87.2785 29.4194 87.4839C29.4194 87.6892 29.3378 87.8861 29.1926 88.0313C29.0474 88.1765 28.8505 88.2581 28.6452 88.2581H5.41935C5.21403 88.2581 5.01711 88.1765 4.87192 88.0313C4.72673 87.8861 4.64516 87.6892 4.64516 87.4839C4.64516 87.2785 4.72673 87.0816 4.87192 86.9364C5.01711 86.7912 5.21403 86.7097 5.41935 86.7097ZM92.129 92.9032H3.87097C3.66564 92.9032 3.46872 92.8217 3.32353 92.6765C3.17834 92.5313 3.09677 92.3344 3.09677 92.129C3.09677 91.9237 3.17834 91.7268 3.32353 91.5816C3.46872 91.4364 3.66564 91.3548 3.87097 91.3548H92.129C92.3344 91.3548 92.5313 91.4364 92.6765 91.5816C92.8217 91.7268 92.9032 91.9237 92.9032 92.129C92.9032 92.3344 92.8217 92.5313 92.6765 92.6765C92.5313 92.8217 92.3344 92.9032 92.129 92.9032Z" fill="#41B79B"/>
<path d="M10.8394 58.8388H23.2265C23.6372 58.8388 24.031 58.6756 24.3214 58.3852C24.6118 58.0949 24.7749 57.701 24.7749 57.2904V51.0968C24.7749 49.8648 24.2855 48.6833 23.4144 47.8122C22.5432 46.9411 21.3617 46.4517 20.1297 46.4517H13.9362C12.7042 46.4517 11.5227 46.9411 10.6516 47.8122C9.78042 48.6833 9.29102 49.8648 9.29102 51.0968V57.2904C9.29102 57.701 9.45415 58.0949 9.74453 58.3852C10.0349 58.6756 10.4287 58.8388 10.8394 58.8388ZM12.3878 51.0968C12.3878 50.6862 12.5509 50.2923 12.8413 50.0019C13.1317 49.7116 13.5255 49.5484 13.9362 49.5484H20.1297C20.5404 49.5484 20.9342 49.7116 21.2246 50.0019C21.515 50.2923 21.6781 50.6862 21.6781 51.0968V55.742H12.3878V51.0968Z" fill="#41B79B"/>
<path d="M21.6777 61.9355H24.7745V65.0323H21.6777V61.9355Z" fill="#41B79B"/>
<path d="M13.9355 61.9355H20.1291V65.0323H13.9355V61.9355Z" fill="#41B79B"/>
<path d="M9.29102 61.9355H12.3878V65.0323H9.29102V61.9355Z" fill="#41B79B"/>
<path d="M86.7095 37.1614H55.7417C55.3311 37.1614 54.9372 37.3245 54.6469 37.6149C54.3565 37.9053 54.1934 38.2991 54.1934 38.7098V63.484C54.1934 63.8946 54.3565 64.2885 54.6469 64.5788C54.9372 64.8692 55.3311 65.0323 55.7417 65.0323H86.7095C87.1201 65.0323 87.514 64.8692 87.8044 64.5788C88.0947 64.2885 88.2579 63.8946 88.2579 63.484V38.7098C88.2579 38.2991 88.0947 37.9053 87.8044 37.6149C87.514 37.3245 87.1201 37.1614 86.7095 37.1614ZM69.6772 61.9356H61.9353V58.0646C61.9353 57.038 62.3431 56.0534 63.0691 55.3274C63.795 54.6015 64.7796 54.1936 65.8063 54.1936C66.8329 54.1936 67.8175 54.6015 68.5435 55.3274C69.2694 56.0534 69.6772 57.038 69.6772 58.0646V61.9356ZM85.1611 61.9356H72.774V58.0646C72.774 56.2166 72.0399 54.4444 70.7332 53.1377C69.4265 51.831 67.6542 51.0969 65.8063 51.0969C63.9583 51.0969 62.186 51.831 60.8793 53.1377C59.5726 54.4444 58.8385 56.2166 58.8385 58.0646V61.9356H57.2901V40.2582H85.1611V61.9356Z" fill="#41B79B"/>
</svg>
