<svg width="97" height="90" viewBox="0 0 97 90" fill="none" xmlns="http://www.w3.org/2000/svg">
<path d="M94.3811 12.8668C93.0152 13.1128 92.3872 12.5528 92.0941 11.1502C91.4635 8.12267 90.5136 5.1579 89.9405 2.12247C89.6161 0.413739 88.8755 0.0133776 87.2296 0.0212278C74.35 0.0892631 61.4704 0.057862 48.5907 0.057862C35.7111 0.057862 22.8289 0.112813 9.95191 0.000293365C8.02076 -0.0154071 7.31947 0.596911 6.97406 2.36321C6.43763 5.10033 5.60288 7.77987 5.0586 10.517C4.71319 12.2414 4.10873 13.2933 2.11738 12.8851C1.03405 12.6627 0.487146 13.0421 0.500229 14.3243C0.563031 19.7018 0.526398 25.0818 0.526398 30.4618C0.526398 31.218 0.40341 32.1365 1.59665 31.9376C3.83134 31.5635 3.73453 32.9163 3.73191 34.4811C3.69528 49.1035 3.70836 63.7258 3.71098 78.3482C3.7136 85.9996 7.32994 89.6212 14.9734 89.6238C37.3231 89.6264 59.6753 89.6264 82.0249 89.6238C89.6239 89.6238 93.2743 85.9551 93.2743 78.3247C93.2769 63.5505 93.2743 48.7764 93.2795 34.0023C93.2795 32.9974 92.9419 31.676 94.7266 31.9664C96.4274 32.2438 96.4902 31.2678 96.4772 29.9829C96.4301 24.9823 96.3856 19.9818 96.4981 14.9838C96.5321 13.3064 96.1239 12.5528 94.3811 12.8668ZM12.3829 7.4554C12.5373 6.75149 12.8722 6.39562 13.6101 6.4244C14.2146 6.44795 14.8217 6.4244 15.4261 6.4244C37.4487 6.4244 59.4738 6.46103 81.4963 6.36683C83.7101 6.35636 84.8274 6.91111 85.0551 9.15105C85.1755 10.3312 85.5444 11.4878 85.827 12.77C60.913 12.77 36.1115 12.77 11.1321 12.77C11.5691 10.9304 12.0034 9.19815 12.3829 7.4554ZM30.8283 83.2755C28.714 83.197 26.5944 83.1866 24.4801 83.2782C23.2031 83.3357 22.774 82.9406 22.808 81.6348C22.8943 78.3875 22.8368 75.1349 22.8368 71.8849C22.8368 68.9384 22.8106 65.9893 22.8446 63.0429C22.8786 59.8662 24.8935 57.6576 27.7118 57.6341C30.4096 57.6131 32.4638 59.7327 32.4978 62.8545C32.5684 69.1268 32.4847 75.4018 32.5501 81.6741C32.5684 83.0322 32.0451 83.3226 30.8283 83.2755ZM84.1052 83.1997C83.5164 83.3096 82.8963 83.252 82.2918 83.252C68.5853 83.2546 54.8762 83.218 41.1697 83.2965C39.3458 83.307 38.7073 82.938 38.7492 80.9781C38.8826 74.9229 38.8172 68.8625 38.7884 62.8048C38.757 56.2838 34.0731 51.4088 27.8374 51.3513C21.497 51.2937 16.6168 56.1504 16.5383 62.7341C16.4676 68.6401 16.5723 74.5487 16.465 80.4547C16.4493 81.3889 17.4594 83.0113 15.379 83.2546C12.4431 83.5974 10.6506 82.7758 10.1665 80.8315C10.0775 80.4704 10.0801 80.0805 10.0801 79.7037C10.0775 67.6614 10.0801 55.6218 10.088 43.5795C10.088 43.3754 10.1665 43.1713 10.2502 42.771C13.7226 44.9272 17.3651 45.2569 21.162 44.1735C23.2423 43.5795 25.061 42.5093 26.5368 40.9445C27.2093 40.2301 27.6123 40.1752 28.3188 40.9105C33.4764 46.2669 42.5278 45.8561 47.073 40.8686C47.8528 40.0129 48.2192 40.4316 48.8577 40.9864C54.8107 46.157 61.5175 46.1544 67.4365 40.955C68.1352 40.34 68.4649 40.1752 69.229 40.8895C74.0517 45.4034 79.45 45.8901 85.5444 42.8861C85.5444 43.6947 85.5444 44.4064 85.5444 45.1182C85.5444 56.0248 85.5392 66.9288 85.5523 77.8353C85.5523 78.7277 85.4816 79.6069 85.8506 80.5044C86.5074 82.1059 85.6046 82.9223 84.1052 83.1997ZM11.3937 31.9586C13.3511 31.9455 15.3084 31.9533 17.2683 31.9533C19.2256 31.9533 21.1856 31.9717 23.1429 31.9455C24.1373 31.9324 24.6868 32.0031 24.2864 33.3193C23.4046 36.2134 20.3561 38.5973 17.3625 38.5083C14.3166 38.4167 11.0248 35.7529 10.3366 33.0053C10.0304 31.7937 10.7291 31.9638 11.3937 31.9586ZM32.592 31.9376C34.4813 32.0083 36.3732 31.956 38.2651 31.956C40.0811 31.956 41.8997 32.0135 43.7131 31.935C44.9508 31.8801 45.3565 32.2831 45.032 33.5025C44.3595 36.0459 41.1906 38.4481 38.3567 38.5083C35.4599 38.5685 32.1602 36.148 31.4773 33.4841C31.2287 32.495 31.3255 31.8905 32.592 31.9376ZM53.5756 31.9246C55.3812 32.058 57.2051 31.9533 59.0211 31.9533C60.8371 31.9533 62.6557 32.0083 64.4691 31.935C65.8272 31.8775 66.259 32.2621 65.7671 33.6333C64.8015 36.3285 61.8053 38.5528 59.0054 38.5318C56.2342 38.5109 53.3532 36.4332 52.3824 33.7929C51.9454 32.6075 51.812 31.7963 53.5756 31.9246ZM86.5937 33.4475C85.6517 36.2605 82.7157 38.5292 79.7876 38.5135C76.8333 38.4978 73.8816 36.216 73.0207 33.4056C72.6753 32.2752 72.9474 31.9062 74.1119 31.9403C76.0692 31.9952 78.0265 31.956 79.9865 31.956C81.7946 31.956 83.6028 32.0005 85.4083 31.9403C86.5885 31.8958 87.0412 32.113 86.5937 33.4475ZM90.1342 21.4995C89.9955 25.6706 90.1002 25.6732 85.9893 25.6758C73.4969 25.6758 61.002 25.6758 48.5096 25.6758C35.3343 25.6758 22.159 25.6418 8.98634 25.715C7.28807 25.7255 6.81183 25.2937 6.84846 23.5824C6.94266 19.1915 6.85368 19.1889 11.2184 19.1889C36.7343 19.1889 62.2528 19.2098 87.7686 19.1444C89.6449 19.1418 90.197 19.5997 90.1342 21.4995Z" fill="#41B79B"/>
<path d="M78.5463 51.3095C69.1652 51.3618 59.7868 51.3592 50.4058 51.3121C49.0843 51.3042 48.5427 51.579 48.561 53.047C48.6395 59.3246 48.6343 65.6047 48.5662 71.8823C48.5505 73.3137 49.0556 73.6591 50.4032 73.6381C55.0924 73.5675 59.7842 73.612 64.4734 73.6094C69.1626 73.6094 73.8544 73.557 78.5436 73.6408C79.9802 73.6669 80.5193 73.332 80.4983 71.7829C80.4146 65.5812 80.412 59.3769 80.501 53.1752C80.5219 51.6156 79.9724 51.3016 78.5463 51.3095ZM72.5879 67.3239C69.8639 67.2559 67.1373 67.303 64.4132 67.303C61.6892 67.303 58.9626 67.2638 56.2385 67.3213C55.1578 67.3449 54.7496 66.9602 54.7705 65.8847C54.815 63.5401 54.8072 61.1903 54.7731 58.8457C54.7574 57.8513 55.2075 57.5242 56.1469 57.5295C61.6735 57.5504 67.2001 57.5556 72.7266 57.5295C73.789 57.5242 74.1972 57.8906 74.1632 58.987C74.0952 61.2557 74.0821 63.5297 74.1658 65.7984C74.2077 67.0152 73.7524 67.3527 72.5879 67.3239Z" fill="#41B79B"/>
</svg>
