<svg width="97" height="129" viewBox="0 0 97 129" fill="none" xmlns="http://www.w3.org/2000/svg">
<path d="M21.5273 36.6804C21.5253 37.0882 21.6025 37.2386 22.0519 37.2129C22.8437 37.1674 23.6435 37.1575 24.4333 37.2149C24.948 37.2525 25.051 37.1099 25.049 36.6111C25.0312 29.5122 25.0411 22.4133 25.0252 15.3144C25.0233 14.8453 25.1381 14.7206 25.6132 14.7225C31.1026 14.7404 36.5921 14.7364 42.0816 14.7324C45.6389 14.7305 49.1983 14.7206 52.7556 14.7126C52.9892 14.7067 53.2208 14.7008 53.4544 14.6968C53.6227 14.7107 53.7929 14.7344 53.9612 14.7344C62.4755 14.7344 70.9918 14.7344 79.5061 14.7305C80.0544 14.7305 80.6028 14.7087 81.1492 14.6988C81.6084 14.7027 82.0677 14.7067 82.527 14.7107C82.6378 14.7107 82.7507 14.7107 82.8615 14.7107C83.1664 14.7107 83.4713 14.7107 83.7761 14.7107C84.1126 14.7522 84.4492 14.7483 84.7857 14.6988C85.245 14.7027 85.7043 14.7067 86.1635 14.7107C86.2744 14.7107 86.3872 14.7107 86.4981 14.7107C86.8029 14.7107 87.1078 14.7126 87.4127 14.7126C87.5255 14.7126 87.6383 14.7126 87.7492 14.7126C88.0541 14.7126 88.3569 14.7126 88.6618 14.7126C88.8122 14.7126 88.9627 14.7126 89.1131 14.7126C89.42 14.7107 89.7268 14.7067 90.0317 14.7047C90.2534 14.578 90.1406 14.3662 90.1406 14.1979C90.1505 12.7588 90.1762 11.3196 90.1386 9.88239C90.0376 6.00433 88.2065 3.21704 84.756 1.47301C83.8711 1.02759 82.8972 0.883082 81.9549 0.625732C78.1303 0.625732 74.3057 0.625732 70.481 0.625732C70.291 0.625732 70.1029 0.625732 69.9129 0.625732C69.8001 0.625732 69.6852 0.625732 69.5724 0.625732C69.3824 0.625732 69.1943 0.625732 69.0043 0.625732C58.1362 0.625732 47.2662 0.625732 36.3981 0.625732C36.2081 0.625732 36.02 0.625732 35.83 0.625732C35.7171 0.625732 35.6023 0.625732 35.4895 0.625732C35.2994 0.625732 35.1114 0.625732 34.9213 0.625732C33.2169 0.625732 31.5124 0.625732 29.808 0.625732C28.836 0.853388 27.8442 1.0177 26.9415 1.47103C23.4178 3.2408 21.5827 6.11321 21.5451 10.0467C21.4956 15.4985 21.5332 20.9504 21.5332 26.4022C21.5352 29.8289 21.5411 33.2537 21.5273 36.6804ZM72.7259 8.1146C72.6923 8.96781 71.9717 9.64088 71.1205 9.61316C70.2732 9.58545 69.5783 8.85893 69.6021 8.02156C69.6259 7.1822 70.3544 6.50319 71.2135 6.52101C72.0548 6.53883 72.7576 7.2792 72.7259 8.1146ZM44.9104 8.02156C44.9362 7.55635 45.2272 7.3089 45.6726 7.24951C45.8765 7.22179 46.0883 7.23763 46.2962 7.23763C49.4932 7.23763 52.6903 7.23763 55.8854 7.23763C59.1201 7.23763 62.3548 7.23763 65.5894 7.23961C65.7775 7.23961 65.9735 7.22773 66.1536 7.27128C66.5733 7.37224 66.8069 7.66919 66.801 8.09084C66.795 8.48676 66.5674 8.76985 66.1675 8.85695C65.9675 8.9005 65.7557 8.9005 65.5498 8.9005C59.0627 8.90248 52.5735 8.90248 46.0863 8.90248C45.9359 8.90248 45.7795 8.91832 45.633 8.88863C45.1678 8.79163 44.8827 8.51844 44.9104 8.02156Z" fill="#41B79B"/>
<path d="M89.6082 112.686C78.9302 112.702 68.2521 112.698 57.5741 112.698C57.5741 112.7 57.5741 112.702 57.5741 112.704C46.9713 112.704 36.3685 112.7 25.7657 112.715C25.1956 112.715 25.0175 112.603 25.0194 111.991C25.0452 104.985 25.0313 97.9792 25.0432 90.9733C25.0432 90.5675 24.9818 90.419 24.5245 90.4487C23.7149 90.5022 22.8953 90.5002 22.0857 90.4527C21.6323 90.427 21.5234 90.5418 21.5234 90.9931C21.5353 100.289 21.5254 109.588 21.5353 118.884C21.5393 122.867 23.9049 126.28 27.5771 127.665C28.6679 128.077 29.8002 128.243 30.9682 128.243C47.5909 128.238 64.2137 128.239 80.8385 128.239C86.0567 128.239 90.1545 124.122 90.1446 118.892C90.1407 117.017 90.1348 115.142 90.1545 113.268C90.1605 112.85 90.0872 112.686 89.6082 112.686ZM55.7865 125.143C52.9893 125.122 50.7841 122.827 50.8078 119.967C50.8316 117.259 53.124 115.02 55.8558 115.035C58.6708 115.051 60.9315 117.34 60.9078 120.155C60.886 122.922 58.5837 125.165 55.7865 125.143Z" fill="#41B79B"/>
<path d="M24.382 86.5271C24.7205 86.535 24.9145 86.4281 25.0907 86.1153C25.9162 84.6504 26.7912 83.2113 27.6167 81.7463C27.8087 81.4058 27.9532 81.3999 28.2621 81.586C29.6874 82.4451 31.1325 83.2687 32.5539 84.1318C32.8706 84.3238 33.1161 84.3436 33.4308 84.1535C34.1257 83.7339 34.8304 83.3261 35.547 82.944C35.9034 82.754 35.9825 82.4927 35.9786 82.1165C35.9647 80.4893 35.9944 78.8601 35.9707 77.2328C35.9647 76.8032 36.0835 76.6904 36.5091 76.7003C38.174 76.734 39.8408 76.7241 41.5056 76.7458C41.8204 76.7498 42.0223 76.6667 42.1926 76.3856C42.632 75.6571 43.0774 74.9345 43.4833 74.1862C43.6515 73.8754 43.6238 73.6557 43.4516 73.3627C42.6103 71.9275 41.8085 70.4705 40.9632 69.0392C40.7593 68.6948 40.8187 68.5404 41.1493 68.3582C42.6023 67.5506 44.0415 66.7152 45.4965 65.9095C45.7955 65.7432 45.9439 65.561 45.936 65.2067C45.9162 64.3555 45.9182 63.5023 45.9439 62.653C45.9538 62.3204 45.8271 62.1502 45.548 61.9918C44.1187 61.1782 42.7073 60.3329 41.276 59.5232C40.8959 59.3075 40.7811 59.157 41.0503 58.7255C41.9174 57.3298 42.7191 55.8926 43.5644 54.4832C43.7406 54.1882 43.7664 53.9605 43.5803 53.6577C43.1665 52.9806 42.7805 52.2858 42.4044 51.589C42.2045 51.2168 41.9491 51.0743 41.5037 51.0822C39.8764 51.1099 38.2492 51.0723 36.62 51.0861C36.23 51.0901 36.1112 50.9931 36.1211 50.5833C36.1587 48.9185 36.1508 47.2516 36.1686 45.5868C36.1726 45.3077 36.1528 45.0859 35.8697 44.9197C35.1531 44.496 34.4483 44.0585 33.7258 43.6448C33.314 43.4092 33.0191 43.4706 32.6429 43.6923C31.277 44.502 29.8893 45.272 28.5214 46.0777C28.169 46.2856 27.979 46.2955 27.7553 45.8837C26.9595 44.4228 26.1221 42.9856 25.2966 41.5405C25.1976 41.3663 25.1402 41.1723 24.865 41.1584C23.8812 41.1109 22.8993 41.0555 21.9174 41.1465C21.763 41.1604 21.6244 41.1663 21.5353 41.3306C20.8326 42.6213 19.9972 43.8388 19.3597 45.1671C19.1341 45.3829 19.047 45.6858 18.8886 45.9411C18.7183 46.2757 18.5105 46.2282 18.2234 46.0579C16.7823 45.1948 15.3273 44.3574 13.8861 43.4963C13.609 43.33 13.3813 43.3142 13.1042 43.4785C12.3895 43.9021 11.6709 44.3179 10.9424 44.7158C10.6277 44.888 10.503 45.0958 10.5089 45.472C10.5327 47.1348 10.503 48.7977 10.5228 50.4606C10.5267 50.8605 10.4119 50.9674 10.016 50.9594C8.3353 50.9278 6.65263 50.9377 4.96996 50.9119C4.67104 50.908 4.49287 50.9891 4.32857 51.2485C3.86336 51.9829 3.42191 52.7272 3.00817 53.4933C2.85574 53.7745 2.86563 53.9942 3.0339 54.2753C3.65352 55.3126 4.24146 56.3677 4.84128 57.4169C5.06498 57.8089 5.25898 58.2226 5.52227 58.5869C5.78358 58.9491 5.72815 59.1511 5.32035 59.2956C5.21741 59.3312 5.13031 59.4064 5.03529 59.4639C4.92047 59.5411 4.80565 59.6183 4.68886 59.6974C4.34836 59.8815 4.00787 60.0656 3.66738 60.2498C3.59611 60.2973 3.52485 60.3448 3.45358 60.3923C3.11111 60.5803 2.77061 60.7684 2.42814 60.9565C2.19256 61.0931 1.95502 61.2396 1.72736 61.3801C1.33738 61.6216 0.769227 61.6513 0.598981 62.1997C0.565327 62.1937 0.531674 62.1977 0.5 62.2115C0.5 63.2726 0.5 64.3317 0.5 65.3928C0.535633 65.3928 0.571268 65.3948 0.606901 65.3987C0.694003 65.468 0.773189 65.5492 0.868211 65.6046C2.35292 66.4736 3.83564 67.3486 5.33223 68.1939C5.66084 68.378 5.69252 68.5146 5.50247 68.8314C4.66312 70.223 3.86732 71.6424 3.02005 73.0281C2.76864 73.4379 2.75675 73.7646 3.00421 74.1625C3.40211 74.8038 3.78219 75.4591 4.13654 76.1262C4.32461 76.4786 4.57799 76.5677 4.95808 76.5637C6.58532 76.5499 8.21454 76.5835 9.84178 76.5578C10.309 76.5499 10.3961 76.7181 10.3901 77.1378C10.3604 78.7848 10.3703 80.4319 10.3446 82.0769C10.3387 82.4214 10.4456 82.6273 10.7405 82.8074C11.4651 83.2528 12.1936 83.6883 12.9458 84.0882C13.217 84.2307 13.4031 84.2228 13.6644 84.0704C15.066 83.2489 16.4972 82.4748 17.8869 81.6335C18.368 81.3425 18.5659 81.4296 18.8193 81.8988C19.5735 83.2964 20.3951 84.6564 21.1513 86.052C21.3433 86.4063 21.567 86.5311 21.9451 86.5231C22.7548 86.5053 23.5684 86.5073 24.382 86.5271ZM9.79031 64.8603C9.16079 56.9794 15.4916 50.1419 23.3942 50.322C28.7094 50.4447 32.6687 52.9648 35.2481 57.6268C35.3213 57.7594 35.4025 57.8861 35.4797 58.0148C35.7806 58.8086 36.0835 59.6004 36.3844 60.3943C36.6219 61.8513 36.8318 63.3063 36.7288 64.7949C36.2894 71.1713 31.2889 76.4588 24.9521 77.2249C17.2198 78.1613 10.4099 72.6085 9.79031 64.8603Z" fill="#41B79B"/>
<path d="M96.4955 72.8656C96.4895 70.6505 96.5153 68.4353 96.4777 66.2201C96.4499 64.5592 95.1751 63.1992 93.5261 62.9894C92.6036 62.8726 91.6712 62.924 90.7467 62.9557C90.2043 62.9735 90.1132 62.7894 90.1132 62.2925C90.1271 50.3456 90.1271 38.3987 90.1152 26.4517C90.1152 25.7193 90.1924 25.0165 90.5032 24.3553C90.6418 24.0623 90.6437 23.7852 90.5745 23.4764C90.2676 22.1104 89.9707 20.7425 89.6836 19.3726C89.361 17.8265 89.3689 17.8404 87.7911 17.8364C87.4051 17.8345 87.2725 17.9671 87.1992 18.3195C86.9082 19.7468 86.6093 21.1721 86.2827 22.5915C86.0946 23.413 85.9283 24.2128 86.4034 24.9987C86.4866 25.1353 86.4786 25.3273 86.5143 25.4936C86.5064 25.5688 86.4905 25.644 86.4905 25.7173C86.4905 31.4463 86.4905 37.1753 86.4905 42.9042C86.4905 43.2091 86.5242 43.508 86.6073 43.801C86.3896 44.1692 86.542 44.5434 86.5895 44.9136C86.445 45.0818 86.4371 45.2521 86.5875 45.4203C86.4866 45.9627 86.4905 46.5091 86.4905 47.0575C86.4925 52.0896 86.4925 57.1198 86.4905 62.152C86.4905 62.9696 86.5875 62.8528 85.768 62.8864C84.9068 62.9221 84.0398 62.7617 83.1846 62.9755C81.3356 63.2843 80.2033 64.6008 80.1993 66.4636C80.1934 68.564 80.2013 70.6643 80.1934 72.7627C80.1914 73.0597 80.2627 73.2932 80.4567 73.5328C82.5749 76.1894 82.5947 79.0361 80.5042 81.7284C80.2805 82.0174 80.1914 82.2945 80.1914 82.6528C80.1993 88.9143 80.1954 95.1758 80.1993 101.437C80.1993 101.758 80.2429 102.077 80.2666 102.397C80.2033 102.607 80.3102 102.793 80.3518 102.987C80.3953 103.211 80.4369 103.435 80.4804 103.66C80.6744 104.393 80.9793 105.076 81.3693 105.723C83.3232 108.946 87.0151 110.427 90.5685 109.415C94.0883 108.413 96.4757 105.22 96.4777 101.499C96.4796 95.1758 96.4757 88.851 96.4836 82.5281C96.4836 82.2668 96.4203 82.0708 96.2559 81.863C94.0645 79.0717 94.0645 76.2844 96.252 73.4773C96.4084 73.2913 96.4975 73.1091 96.4955 72.8656ZM86.1718 104.492C85.865 104.486 85.5581 104.478 85.2513 104.472C85.1404 104.395 85.0276 104.316 84.9167 104.239C84.796 104.037 84.7702 103.819 84.7722 103.585C84.7861 99.3687 84.7999 95.1521 84.8039 90.9355C84.8059 88.4392 84.792 85.943 84.7861 83.4467C85.2553 82.738 86.2807 82.738 86.7439 83.4427C86.738 83.6882 86.7241 83.9336 86.7261 84.1771C86.734 90.6188 86.7419 97.0604 86.7617 103.502C86.7637 103.936 86.7063 104.28 86.2589 104.446C86.2272 104.462 86.1995 104.476 86.1718 104.492ZM89.7767 103.532C89.7905 102.894 89.7747 102.255 89.7707 101.616C89.7747 95.7717 89.7787 89.9279 89.7826 84.0841C89.7826 83.0705 90.3725 82.6568 91.3386 83.0052C91.6811 83.1279 91.8137 83.4051 91.8097 83.7654C91.8018 84.4642 91.8097 85.165 91.8097 85.8638C91.8097 90.9137 91.8097 95.9637 91.8117 101.012C91.8117 101.22 91.8295 101.425 91.8394 101.633C91.8335 102.255 91.8256 102.879 91.8256 103.5C91.8256 103.829 91.78 104.136 91.491 104.347C91.3841 104.393 91.2752 104.438 91.1683 104.484C90.8655 104.478 90.5626 104.472 90.2597 104.466C90.2162 104.434 90.1746 104.401 90.131 104.369C89.842 104.159 89.7688 103.874 89.7767 103.532Z" fill="#41B79B"/>
<path d="M67.3017 50.0228C67.7848 49.7259 68.248 49.3973 68.7191 49.0805C70.0316 48.1976 70.0217 48.1996 69.8257 46.6337C69.7881 46.3348 69.6832 46.1725 69.4041 46.0458C68.5786 45.6677 67.7768 45.2441 66.9533 44.862C66.6861 44.7373 66.6247 44.6264 66.7692 44.3572C67.0464 43.8405 67.2186 43.2546 67.563 42.7933C68.2915 41.8134 68.0203 41.0176 67.3057 40.1961C67.08 39.9367 66.89 39.8239 66.5534 39.8575C65.6884 39.9427 64.8173 39.9763 63.9502 40.0654C63.5959 40.101 63.4811 39.9763 63.4672 39.6457C63.4435 39.0796 63.3069 38.5015 63.3762 37.9492C63.5306 36.7278 62.8892 36.1755 61.8519 35.835C61.5529 35.736 61.3431 35.7182 61.0778 35.9082C60.3869 36.4051 59.6525 36.8426 58.9775 37.3573C58.5914 37.6503 58.4212 37.5414 58.2114 37.1831C57.9639 36.7595 57.5997 36.3932 57.4057 35.9518C56.9127 34.8293 56.111 34.5106 54.9589 34.8016C54.654 34.8788 54.462 34.958 54.3274 35.253C53.9671 36.0448 53.5533 36.8109 53.203 37.6067C53.0347 37.9868 52.8743 38.0106 52.5338 37.8126C52.0449 37.5295 51.4688 37.3751 51.0214 37.0445C50.0732 36.3457 49.315 36.6248 48.5212 37.3078C48.2203 37.5652 48.1252 37.7948 48.1648 38.1689C48.248 38.9786 48.2599 39.7962 48.3569 40.6019C48.4143 41.079 48.2262 41.1839 47.8065 41.1859C47.2958 41.1898 46.787 41.2472 46.2763 41.2809C44.7322 41.3858 44.7401 41.3898 44.1304 42.8111C44.0136 43.0843 44.0156 43.2823 44.1937 43.5337C44.7183 44.2741 45.2053 45.0421 45.722 45.7885C45.8922 46.0339 45.914 46.1765 45.6191 46.3487C45.1459 46.6239 44.7005 46.9505 44.2472 47.2573C42.9209 48.1541 42.9268 48.1521 43.1109 49.7477C43.1426 50.0268 43.2515 50.1812 43.5068 50.3C44.3125 50.6722 45.1044 51.08 45.9101 51.4521C46.2228 51.5966 46.3396 51.7332 46.1357 52.0777C45.8586 52.5488 45.6389 53.0536 45.3954 53.5446C44.6906 54.9659 44.6966 54.962 45.6824 56.219C45.8705 56.4586 46.0625 56.5278 46.3594 56.4981C47.2443 56.413 48.1332 56.3675 49.0181 56.2883C49.3269 56.2606 49.4615 56.3418 49.4654 56.6763C49.4753 57.2247 49.5288 57.771 49.5704 58.3194C49.7109 60.1446 49.3526 59.6299 51.061 60.5009C51.3718 60.6593 51.6034 60.6296 51.8865 60.4257C52.5912 59.9169 53.3336 59.4577 54.0403 58.9509C54.3274 58.745 54.4739 58.7787 54.6599 59.0776C55.1034 59.7823 55.6003 60.4514 56.0397 61.1562C56.2634 61.5145 56.497 61.752 56.788 61.659C57.2315 61.6135 57.5165 61.5462 57.7956 61.564C58.2965 61.5956 58.5202 61.3403 58.7043 60.9147C59.0349 60.1525 59.4387 59.422 59.7832 58.6638C59.9099 58.3867 60.0405 58.353 60.2919 58.4837C60.7948 58.747 61.3075 58.9885 61.8162 59.2439C63.1762 59.9268 63.1683 59.915 64.4075 59.0578C64.7362 58.8301 64.8213 58.5886 64.7797 58.2105C64.6926 57.383 64.6768 56.5476 64.5798 55.7202C64.5263 55.2688 64.6926 55.1738 65.0965 55.1718C65.625 55.1698 66.1654 55.0194 66.6801 55.0887C67.8956 55.253 68.4578 54.6294 68.8043 53.5861C68.9131 53.2595 68.9092 53.0358 68.7092 52.7567C68.1926 52.0341 67.7174 51.2819 67.2047 50.5554C67.0266 50.3099 67.0444 50.1812 67.3017 50.0228ZM56.3763 56.1755C51.9993 56.1398 48.4361 52.5073 48.4677 48.1145C48.4994 43.6782 52.1241 40.1426 56.6099 40.1782C60.9393 40.2119 64.4808 43.8465 64.455 48.2353C64.4313 52.6498 60.8066 56.2131 56.3763 56.1755Z" fill="#41B79B"/>
<path d="M34.154 40.9406C34.2015 41.485 35.3259 42.0116 35.7812 41.7087C36.2543 41.3939 36.7314 41.0851 37.1867 40.7466C37.4441 40.5546 37.5925 40.5704 37.7648 40.8515C38.0399 41.3048 38.3527 41.7324 38.6457 42.1739C39.0416 42.7697 40.2353 42.7163 40.554 42.0808C40.7817 41.6235 41.0331 41.1742 41.2152 40.6991C41.3756 40.2774 41.5755 40.2814 41.9219 40.4774C42.3812 40.7367 42.8682 40.9505 43.3453 41.1781C43.856 41.4216 44.8617 40.7664 44.8359 40.1982C44.8082 39.6123 44.7647 39.0263 44.7053 38.4443C44.6756 38.1513 44.7686 38.0325 45.0656 38.0226C45.5565 38.0068 46.0474 37.9712 46.5384 37.9276C46.8373 37.9019 47.1897 38.0108 47.3441 37.5851C47.4589 37.2684 47.6371 36.9754 47.7974 36.6488C47.7242 36.5162 47.6608 36.3796 47.5797 36.2588C47.2748 35.8035 46.9818 35.3383 46.6492 34.9028C46.4275 34.6137 46.4869 34.4653 46.7819 34.2911C47.2214 34.0317 47.6113 33.6853 48.0647 33.4577C48.6328 33.1726 48.419 32.7054 48.4408 32.2778C48.4606 31.8641 48.2923 31.6245 47.8944 31.4721C47.4193 31.29 46.9798 31.0188 46.5107 30.8188C46.2177 30.6941 46.1583 30.5575 46.3107 30.2725C46.58 29.7736 46.8254 29.2629 47.0709 28.7521C47.3283 28.2176 46.6572 27.2021 46.0633 27.2318C45.4971 27.2595 44.929 27.2951 44.3648 27.3525C44.054 27.3842 43.9253 27.2951 43.9174 26.9645C43.9055 26.3984 43.8521 25.8322 43.8085 25.266C43.7669 24.7117 42.69 24.1654 42.2228 24.4663C41.7299 24.783 41.235 25.0997 40.7619 25.4442C40.5243 25.6164 40.3996 25.6204 40.2353 25.3512C39.9304 24.8523 39.588 24.3752 39.2534 23.8922C39.1802 23.7873 39.099 23.6566 38.9901 23.6111C38.4834 23.4012 37.5826 23.7655 37.3391 24.2643C37.1313 24.688 36.9076 25.1057 36.7294 25.5432C36.5928 25.8817 36.4305 25.8975 36.1316 25.7332C35.6525 25.4699 35.1497 25.2462 34.6568 25.0087C34.1163 24.7493 33.0968 25.4105 33.1305 26.0064C33.1622 26.5924 33.1978 27.1783 33.2592 27.7603C33.2869 28.0315 33.2196 28.1305 32.9385 28.1384C32.4277 28.1523 31.917 28.2473 31.4102 28.2236C30.9331 28.2018 30.6797 28.4037 30.5134 28.8115C30.3452 29.2193 30.068 29.5855 30.4798 30.0448C30.8163 30.4209 31.0361 30.9 31.3469 31.3058C31.5547 31.577 31.4894 31.6998 31.2261 31.8621C30.7431 32.159 30.2838 32.4916 29.8127 32.8103C29.6899 32.8935 29.5137 32.9548 29.5197 33.129C29.5335 33.5448 29.5236 33.9704 29.6206 34.3683C29.684 34.6256 30.0383 34.6494 30.266 34.7701C30.65 34.974 31.038 35.172 31.4379 35.3422C31.7467 35.4749 31.8279 35.6214 31.6478 35.9361C31.3944 36.3776 31.1845 36.8448 30.9608 37.3021C30.6243 37.9949 31.2518 38.9669 32.014 38.9253C32.5049 38.8996 32.9979 38.8739 33.4848 38.8125C33.8728 38.765 34.0748 38.8224 34.0609 39.2916C34.0411 39.8439 34.1064 40.3942 34.154 40.9406ZM33.3601 33.1667C33.3839 29.9142 35.6723 27.5149 38.9248 27.4594C42.106 27.404 44.5924 29.9201 44.6102 33.133C44.6281 36.1935 42.108 38.7036 39.004 38.7175C35.9178 38.7313 33.3364 36.2251 33.3601 33.1667Z" fill="#41B79B"/>
<path d="M25.4819 74.3721C31.4029 73.119 35.1602 67.1901 33.7448 61.3403C32.3036 55.3876 26.2797 51.763 20.4141 53.4476C15.9501 54.7304 13.232 57.777 12.6045 62.3717C11.975 66.9901 13.8378 70.593 17.7634 73.117C18.3078 73.4318 18.8502 73.7446 19.4599 73.9207C21.4237 74.6611 23.433 74.8056 25.4819 74.3721ZM14.3426 63.7931C14.3466 58.9014 18.3295 54.9244 23.2271 54.9205C28.1524 54.9165 32.1631 58.9034 32.167 63.8069C32.171 68.746 28.1563 72.7548 23.2113 72.7508C18.3137 72.7449 14.3386 68.7302 14.3426 63.7931Z" fill="#41B79B"/>
<path d="M52.5466 43.1299C52.311 43.3477 52.0775 43.5674 51.8419 43.7852C50.4502 45.2739 49.9078 47.0377 50.1493 49.047C50.5809 52.6321 54.0353 55.1066 57.6797 54.4493C61.1738 53.8198 63.5414 50.1754 62.6882 46.7447C61.5439 42.156 56.4346 40.3347 52.5466 43.1299ZM57.0562 53.4239C54.3738 53.7684 51.8102 51.866 51.2836 49.1578C51.0223 47.8078 51.3311 46.5705 51.9527 45.3827C52.0002 45.3154 52.0497 45.2501 52.0992 45.1867C52.4912 44.676 52.9564 44.2346 53.4374 43.805C53.4394 43.803 53.4394 43.803 53.4414 43.801C54.3758 43.2824 55.3478 42.9023 56.4405 42.9023C59.2021 42.9023 61.5558 45.0561 61.7261 47.7543C61.9062 50.6386 59.9147 53.0557 57.0562 53.4239Z" fill="#41B79B"/>
<path d="M36.6035 36.9121C38.5297 38.0939 41.026 37.6921 42.4493 35.9718C43.8509 34.2772 43.8252 31.7572 42.3919 30.1359C40.8656 28.4117 38.4129 28.089 36.4907 29.3579C36.2333 29.5103 35.976 29.6628 35.8315 29.9439C35.8117 29.9538 35.7978 29.9696 35.786 29.9874C35.687 30.0844 35.588 30.1834 35.489 30.2804C35.2594 30.5199 35.099 30.807 34.9446 31.098C34.9149 31.1673 34.8832 31.2366 34.8536 31.3058C33.9766 33.3587 34.7249 35.758 36.6035 36.9121ZM35.4435 32.0126C35.5444 31.6919 35.7028 31.389 35.8354 31.0782C35.8374 31.0742 35.8414 31.0723 35.8434 31.0683C36.0611 30.8189 36.2789 30.5714 36.4966 30.322C36.5045 30.3121 36.5125 30.3042 36.5204 30.2943C38.6029 28.5799 41.2319 29.4331 42.2573 31.3375C43.0491 32.8104 42.7443 34.6672 41.509 35.8095C40.2717 36.9537 38.4307 37.12 36.9955 36.2173C35.586 35.3284 34.9387 33.5963 35.4435 32.0126Z" fill="#41B79B"/>
</svg>
