<svg width="78" height="79" viewBox="0 0 78 79" fill="none" xmlns="http://www.w3.org/2000/svg">
<path fill-rule="evenodd" clip-rule="evenodd" d="M42.9812 3.29468C35.3394 3.29468 28.7727 7.72487 25.7191 14.1374C25.5733 14.4435 25.3067 14.6751 24.9831 14.7764C24.6596 14.8778 24.3085 14.8398 24.0141 14.6716C21.9388 13.4857 19.5503 12.8822 16.9812 12.8822C8.87935 12.8822 2.4375 19.324 2.4375 27.4259C2.4375 35.5197 9.03365 41.9697 16.9812 41.9697H22.6687C23.3418 41.9697 23.8875 42.5153 23.8875 43.1884C23.8875 43.8615 23.3418 44.4072 22.6687 44.4072H16.9812C7.70384 44.4072 0 36.8822 0 27.4259C0 17.9778 7.53315 10.4447 16.9812 10.4447C19.4958 10.4447 21.9058 10.9487 24.0929 11.9697C27.7451 5.34184 34.8245 0.857178 42.9812 0.857178C53.4164 0.857178 62.1008 8.18896 64.1274 18.0943C64.3844 18.0821 64.6321 18.0821 64.883 18.0822L64.9187 18.0822C72.0919 18.0822 78 23.9903 78 31.1634C78 38.3365 72.0919 44.2447 64.9187 44.2447H55.6562C54.9831 44.2447 54.4375 43.699 54.4375 43.0259C54.4375 42.3528 54.9831 41.8072 55.6562 41.8072H64.9187C70.7457 41.8072 75.5625 36.9903 75.5625 31.1634C75.5625 25.3365 70.7457 20.5197 64.9187 20.5197C64.2672 20.5197 63.9158 20.5235 63.4268 20.6458C63.093 20.7292 62.7395 20.6677 62.4535 20.4764C62.1675 20.285 61.9758 19.9817 61.9255 19.6413C60.5502 10.3194 52.607 3.29468 42.9812 3.29468Z" fill="#41B79B"/>
<path fill-rule="evenodd" clip-rule="evenodd" d="M39.2422 44.7322C30.4919 44.7322 23.3984 51.8257 23.3984 60.5759C23.3984 69.3262 30.4919 76.4197 39.2422 76.4197C47.9925 76.4197 55.0859 69.3262 55.0859 60.5759C55.0859 51.8257 47.9925 44.7322 39.2422 44.7322ZM20.9609 60.5759C20.9609 50.4795 29.1457 42.2947 39.2422 42.2947C49.3386 42.2947 57.5234 50.4795 57.5234 60.5759C57.5234 70.6724 49.3386 78.8572 39.2422 78.8572C29.1457 78.8572 20.9609 70.6724 20.9609 60.5759Z" fill="#41B79B"/>
<path fill-rule="evenodd" clip-rule="evenodd" d="M64.9204 20.6822C62.4488 20.6822 60.1061 21.5543 58.1885 23.0295C57.6549 23.4398 56.8898 23.34 56.4794 22.8065C56.069 22.273 56.1688 21.5078 56.7023 21.0974C59.0096 19.3226 61.867 18.2447 64.9204 18.2447C65.5935 18.2447 66.1391 18.7903 66.1391 19.4634C66.1391 20.1365 65.5935 20.6822 64.9204 20.6822Z" fill="#41B79B"/>
<path fill-rule="evenodd" clip-rule="evenodd" d="M15.7617 11.6635C15.7617 10.9904 16.3074 10.4447 16.9805 10.4447C22.9356 10.4447 28.0101 13.429 31.145 17.9572C31.5281 18.5106 31.3901 19.2699 30.8367 19.653C30.2833 20.0361 29.5241 19.8981 29.1409 19.3447C26.4258 15.4229 22.0754 12.8822 16.9805 12.8822C16.3074 12.8822 15.7617 12.3365 15.7617 11.6635Z" fill="#41B79B"/>
<path d="M43.7945 65.6135C43.4695 66.101 42.8195 66.5885 42.1695 66.9135C41.5195 67.2385 40.707 67.5635 39.732 67.5635V69.026C39.732 69.1885 39.732 69.351 39.5695 69.5135C39.407 69.676 39.2445 69.676 39.082 69.676C38.9195 69.676 38.757 69.676 38.5945 69.5135C38.432 69.351 38.432 69.1885 38.432 69.026V67.5635C36.9695 67.401 35.6695 67.2385 34.532 66.5885C34.3695 66.5885 34.207 66.426 34.207 66.2635C34.207 66.101 34.207 65.9385 34.207 65.776C34.207 65.6135 34.207 65.2885 34.3695 65.126C34.532 64.9635 34.6945 64.801 35.0195 64.801H35.3445C36.3195 65.2885 37.457 65.451 38.5945 65.6135V61.0635C37.782 60.901 36.9695 60.576 36.3195 60.251C35.6695 59.926 35.182 59.601 34.857 59.1135C34.532 58.626 34.207 57.976 34.207 57.1635C34.207 56.5135 34.3695 55.8635 34.6945 55.2135C35.0195 54.5635 35.507 54.2385 36.157 53.751C36.807 53.2635 37.6195 53.101 38.5945 53.101V51.801C38.5945 51.6385 38.5945 51.476 38.757 51.3135C38.9195 51.151 39.082 51.151 39.2445 51.151C39.407 51.151 39.5695 51.151 39.732 51.3135C39.8945 51.476 39.8945 51.6385 39.8945 51.801V53.101C41.1945 53.101 42.332 53.426 43.307 53.751C43.632 53.9135 43.7945 54.076 43.7945 54.5635C43.7945 54.726 43.7945 54.8885 43.632 55.051C43.4695 55.2135 43.307 55.376 43.1445 55.376C43.1445 55.376 42.982 55.376 42.8195 55.376C42.007 55.051 41.032 54.8885 39.8945 54.8885V59.601C40.8695 59.7635 41.682 60.0885 42.1695 60.251C42.8195 60.576 43.307 60.901 43.7945 61.3885C44.282 61.876 44.4445 62.526 44.4445 63.501C44.282 64.476 44.1195 65.126 43.7945 65.6135ZM36.6445 58.7885C37.132 59.1135 37.782 59.4385 38.5945 59.601V55.376C37.782 55.5385 37.132 55.701 36.6445 56.026C36.157 56.351 35.9945 56.8385 35.9945 57.4885C35.9945 57.976 36.3195 58.4635 36.6445 58.7885ZM42.4945 63.6635C42.4945 63.176 42.332 62.6885 41.8445 62.526C41.357 62.201 40.707 62.0385 39.732 61.7135V65.9385C41.682 65.776 42.4945 64.9635 42.4945 63.6635Z" fill="#41B79B"/>
<path fill-rule="evenodd" clip-rule="evenodd" d="M27.3789 31.4071C28.052 31.4071 28.5977 31.9528 28.5977 32.6259V41.4009C28.5977 42.074 28.052 42.6196 27.3789 42.6196C26.7058 42.6196 26.1602 42.074 26.1602 41.4009V32.6259C26.1602 31.9528 26.7058 31.4071 27.3789 31.4071Z" fill="#41B79B"/>
<path fill-rule="evenodd" clip-rule="evenodd" d="M33.2305 28.1571C33.9036 28.1571 34.4492 28.7028 34.4492 29.3759V38.1509C34.4492 38.824 33.9036 39.3696 33.2305 39.3696C32.5574 39.3696 32.0117 38.824 32.0117 38.1509V29.3759C32.0117 28.7028 32.5574 28.1571 33.2305 28.1571Z" fill="#41B79B"/>
<path fill-rule="evenodd" clip-rule="evenodd" d="M39.2422 24.9071C39.9153 24.9071 40.4609 25.4528 40.4609 26.1259V34.9009C40.4609 35.574 39.9153 36.1196 39.2422 36.1196C38.5691 36.1196 38.0234 35.574 38.0234 34.9009V26.1259C38.0234 25.4528 38.5691 24.9071 39.2422 24.9071Z" fill="#41B79B"/>
<path fill-rule="evenodd" clip-rule="evenodd" d="M45.0898 28.1571C45.7629 28.1571 46.3086 28.7028 46.3086 29.3759V38.1509C46.3086 38.824 45.7629 39.3696 45.0898 39.3696C44.4167 39.3696 43.8711 38.824 43.8711 38.1509V29.3759C43.8711 28.7028 44.4167 28.1571 45.0898 28.1571Z" fill="#41B79B"/>
<path fill-rule="evenodd" clip-rule="evenodd" d="M51.1055 31.4071C51.7786 31.4071 52.3242 31.9528 52.3242 32.6259V41.4009C52.3242 42.074 51.7786 42.6196 51.1055 42.6196C50.4324 42.6196 49.8867 42.074 49.8867 41.4009V32.6259C49.8867 31.9528 50.4324 31.4071 51.1055 31.4071Z" fill="#41B79B"/>
</svg>
