<svg width="78" height="79" viewBox="0 0 78 79" fill="none" xmlns="http://www.w3.org/2000/svg">
<path fill-rule="evenodd" clip-rule="evenodd" d="M42.9812 3.41016C35.3394 3.41016 28.7727 7.84035 25.7191 14.2529C25.5733 14.559 25.3067 14.7905 24.9831 14.8919C24.6596 14.9933 24.3085 14.9553 24.0141 14.7871C21.9388 13.6012 19.5503 12.9977 16.9812 12.9977C8.87935 12.9977 2.4375 19.4395 2.4375 27.5414C2.4375 35.6351 9.03365 42.0852 16.9812 42.0852H22.6687C23.3418 42.0852 23.8875 42.6308 23.8875 43.3039C23.8875 43.977 23.3418 44.5227 22.6687 44.5227H16.9812C7.70384 44.5227 0 36.9977 0 27.5414C0 18.0933 7.53315 10.5602 16.9812 10.5602C19.4958 10.5602 21.9058 11.0642 24.0929 12.0852C27.7451 5.45732 34.8245 0.972656 42.9812 0.972656C53.4164 0.972656 62.1008 8.30444 64.1274 18.2098C64.3844 18.1976 64.6321 18.1976 64.883 18.1977L64.9187 18.1977C72.0919 18.1977 78 24.1058 78 31.2789C78 38.452 72.0919 44.3602 64.9187 44.3602H55.6562C54.9831 44.3602 54.4375 43.8145 54.4375 43.1414C54.4375 42.4683 54.9831 41.9227 55.6562 41.9227H64.9187C70.7457 41.9227 75.5625 37.1058 75.5625 31.2789C75.5625 25.452 70.7457 20.6352 64.9187 20.6352C64.2672 20.6352 63.9158 20.639 63.4268 20.7613C63.093 20.8447 62.7395 20.7832 62.4535 20.5918C62.1675 20.4005 61.9758 20.0972 61.9255 19.7568C60.5502 10.4349 52.607 3.41016 42.9812 3.41016Z" fill="#41B79B"/>
<path fill-rule="evenodd" clip-rule="evenodd" d="M39.2422 44.8477C30.4919 44.8477 23.3984 51.9411 23.3984 60.6914C23.3984 69.4417 30.4919 76.5352 39.2422 76.5352C47.9925 76.5352 55.0859 69.4417 55.0859 60.6914C55.0859 51.9411 47.9925 44.8477 39.2422 44.8477ZM20.9609 60.6914C20.9609 50.595 29.1457 42.4102 39.2422 42.4102C49.3386 42.4102 57.5234 50.595 57.5234 60.6914C57.5234 70.7879 49.3386 78.9727 39.2422 78.9727C29.1457 78.9727 20.9609 70.7879 20.9609 60.6914Z" fill="#41B79B"/>
<path fill-rule="evenodd" clip-rule="evenodd" d="M64.9204 20.7977C62.4488 20.7977 60.1061 21.6698 58.1885 23.1449C57.6549 23.5553 56.8898 23.4555 56.4794 22.922C56.069 22.3885 56.1688 21.6233 56.7023 21.2129C59.0096 19.438 61.867 18.3602 64.9204 18.3602C65.5935 18.3602 66.1391 18.9058 66.1391 19.5789C66.1391 20.252 65.5935 20.7977 64.9204 20.7977Z" fill="#41B79B"/>
<path fill-rule="evenodd" clip-rule="evenodd" d="M15.7617 11.7789C15.7617 11.1058 16.3074 10.5602 16.9805 10.5602C22.9356 10.5602 28.0101 13.5445 31.145 18.0727C31.5281 18.6261 31.3901 19.3853 30.8367 19.7685C30.2833 20.1516 29.5241 20.0136 29.1409 19.4602C26.4258 15.5384 22.0754 12.9977 16.9805 12.9977C16.3074 12.9977 15.7617 12.452 15.7617 11.7789Z" fill="#41B79B"/>
<path d="M43.7945 65.729C43.4695 66.2165 42.8195 66.704 42.1695 67.029C41.5195 67.354 40.707 67.679 39.732 67.679V69.1415C39.732 69.304 39.732 69.4665 39.5695 69.629C39.407 69.7915 39.2445 69.7915 39.082 69.7915C38.9195 69.7915 38.757 69.7915 38.5945 69.629C38.432 69.4665 38.432 69.304 38.432 69.1415V67.679C36.9695 67.5165 35.6695 67.354 34.532 66.704C34.3695 66.704 34.207 66.5415 34.207 66.379C34.207 66.2165 34.207 66.054 34.207 65.8915C34.207 65.729 34.207 65.404 34.3695 65.2415C34.532 65.079 34.6945 64.9165 35.0195 64.9165H35.3445C36.3195 65.404 37.457 65.5665 38.5945 65.729V61.179C37.782 61.0165 36.9695 60.6915 36.3195 60.3665C35.6695 60.0415 35.182 59.7165 34.857 59.229C34.532 58.7415 34.207 58.0915 34.207 57.279C34.207 56.629 34.3695 55.979 34.6945 55.329C35.0195 54.679 35.507 54.354 36.157 53.8665C36.807 53.379 37.6195 53.2165 38.5945 53.2165V51.9165C38.5945 51.754 38.5945 51.5915 38.757 51.429C38.9195 51.2665 39.082 51.2665 39.2445 51.2665C39.407 51.2665 39.5695 51.2665 39.732 51.429C39.8945 51.5915 39.8945 51.754 39.8945 51.9165V53.2165C41.1945 53.2165 42.332 53.5415 43.307 53.8665C43.632 54.029 43.7945 54.1915 43.7945 54.679C43.7945 54.8415 43.7945 55.004 43.632 55.1665C43.4695 55.329 43.307 55.4915 43.1445 55.4915C43.1445 55.4915 42.982 55.4915 42.8195 55.4915C42.007 55.1665 41.032 55.004 39.8945 55.004V59.7165C40.8695 59.879 41.682 60.204 42.1695 60.3665C42.8195 60.6915 43.307 61.0165 43.7945 61.504C44.282 61.9915 44.4445 62.6415 44.4445 63.6165C44.282 64.5915 44.1195 65.2415 43.7945 65.729ZM36.6445 58.904C37.132 59.229 37.782 59.554 38.5945 59.7165V55.4915C37.782 55.654 37.132 55.8165 36.6445 56.1415C36.157 56.4665 35.9945 56.954 35.9945 57.604C35.9945 58.0915 36.3195 58.579 36.6445 58.904ZM42.4945 63.779C42.4945 63.2915 42.332 62.804 41.8445 62.6415C41.357 62.3165 40.707 62.154 39.732 61.829V66.054C41.682 65.8915 42.4945 65.079 42.4945 63.779Z" fill="#41B79B"/>
<path fill-rule="evenodd" clip-rule="evenodd" d="M27.3789 31.5226C28.052 31.5226 28.5977 32.0682 28.5977 32.7413V41.5163C28.5977 42.1894 28.052 42.7351 27.3789 42.7351C26.7058 42.7351 26.1602 42.1894 26.1602 41.5163V32.7413C26.1602 32.0682 26.7058 31.5226 27.3789 31.5226Z" fill="#41B79B"/>
<path fill-rule="evenodd" clip-rule="evenodd" d="M33.2305 28.2726C33.9036 28.2726 34.4492 28.8182 34.4492 29.4913V38.2663C34.4492 38.9394 33.9036 39.4851 33.2305 39.4851C32.5574 39.4851 32.0117 38.9394 32.0117 38.2663V29.4913C32.0117 28.8182 32.5574 28.2726 33.2305 28.2726Z" fill="#41B79B"/>
<path fill-rule="evenodd" clip-rule="evenodd" d="M39.2422 25.0226C39.9153 25.0226 40.4609 25.5682 40.4609 26.2413V35.0163C40.4609 35.6894 39.9153 36.2351 39.2422 36.2351C38.5691 36.2351 38.0234 35.6894 38.0234 35.0163V26.2413C38.0234 25.5682 38.5691 25.0226 39.2422 25.0226Z" fill="#41B79B"/>
<path fill-rule="evenodd" clip-rule="evenodd" d="M45.0898 28.2726C45.7629 28.2726 46.3086 28.8182 46.3086 29.4913V38.2663C46.3086 38.9394 45.7629 39.4851 45.0898 39.4851C44.4167 39.4851 43.8711 38.9394 43.8711 38.2663V29.4913C43.8711 28.8182 44.4167 28.2726 45.0898 28.2726Z" fill="#41B79B"/>
<path fill-rule="evenodd" clip-rule="evenodd" d="M51.1055 31.5226C51.7786 31.5226 52.3242 32.0682 52.3242 32.7413V41.5163C52.3242 42.1894 51.7786 42.7351 51.1055 42.7351C50.4324 42.7351 49.8867 42.1894 49.8867 41.5163V32.7413C49.8867 32.0682 50.4324 31.5226 51.1055 31.5226Z" fill="#41B79B"/>
</svg>
