<svg width="19" height="19" viewBox="0 0 19 19" fill="none" xmlns="http://www.w3.org/2000/svg">
<path d="M11.2894 9.22306C11.2894 10.1184 10.5635 10.8443 9.66813 10.8443C8.77278 10.8443 8.04688 10.1184 8.04688 9.22306C8.04688 8.32771 8.77278 7.60181 9.66813 7.60181C10.5635 7.60181 11.2894 8.32771 11.2894 9.22306Z" fill="#F9FBFD"/>
<path d="M12.4074 4.32324H6.9312C5.73919 4.32324 4.76953 5.2929 4.76953 6.48492V11.9612C4.76953 13.1532 5.73919 14.1228 6.9312 14.1228H12.4074C13.5995 14.1228 14.5691 13.1532 14.5691 11.9612V6.48492C14.5691 5.2929 13.5995 4.32324 12.4074 4.32324ZM9.66932 11.9251C8.17937 11.9251 6.96723 10.713 6.96723 9.22304C6.96723 7.73309 8.17937 6.52094 9.66932 6.52094C11.1593 6.52094 12.3714 7.73309 12.3714 9.22304C12.3714 10.713 11.1593 11.9251 9.66932 11.9251ZM12.7677 6.66506C12.4692 6.66506 12.2273 6.42313 12.2273 6.12464C12.2273 5.82614 12.4692 5.58422 12.7677 5.58422C13.0662 5.58422 13.3081 5.82614 13.3081 6.12464C13.3081 6.42313 13.0662 6.66506 12.7677 6.66506Z" fill="#F9FBFD"/>
<path d="M14.0278 0H5.30908C2.62725 0 0.445312 2.18194 0.445312 4.86377V13.5825C0.445312 16.2643 2.62725 18.4463 5.30908 18.4463H14.0278C16.7097 18.4463 18.8916 16.2643 18.8916 13.5825V4.86377C18.8916 2.18194 16.7097 0 14.0278 0ZM15.6491 11.9613C15.6491 13.7491 14.1945 15.2038 12.4066 15.2038H6.93033C5.14245 15.2038 3.68782 13.7491 3.68782 11.9613V6.48502C3.68782 4.69714 5.14245 3.24251 6.93033 3.24251H12.4066C14.1945 3.24251 15.6491 4.69714 15.6491 6.48502V11.9613Z" fill="#F9FBFD"/>
</svg>
