<svg width="48" height="48" viewBox="0 0 48 48" fill="none" xmlns="http://www.w3.org/2000/svg">
<path d="M13.1229 30.7902V40.1432C13.1229 40.4884 12.843 40.7682 12.4979 40.7682C12.1527 40.7682 11.8729 40.4884 11.8729 40.1432V30.7902C11.8729 30.445 12.1527 30.1652 12.4979 30.1652C12.843 30.1652 13.1229 30.445 13.1229 30.7902ZM43.375 10.8101V25.1551C43.375 26.7683 42.0625 28.0808 40.4493 28.0808H31.9561V35.6363L36.094 39.6971C36.3403 39.9389 36.344 40.3346 36.1022 40.5809C35.9799 40.7056 35.818 40.7681 35.6561 40.7681C35.4982 40.7681 35.34 40.7086 35.2183 40.5892L31.3311 36.7743L27.4438 40.5892C27.1974 40.8309 26.8017 40.8272 26.56 40.5809C26.3182 40.3346 26.3219 39.9388 26.5682 39.6971L30.7061 35.6363V28.0808H22.2131C21.4327 28.0808 20.6976 27.775 20.1431 27.2196C19.59 26.6654 19.286 25.9319 19.2873 25.1541L19.2962 19.9602C18.6354 20.2482 17.994 20.4558 17.4129 20.5472L17.3784 40.1443C17.3778 40.4892 17.0981 40.7682 16.7534 40.7682C16.753 40.7682 16.7527 40.7682 16.7523 40.7682C16.4071 40.7676 16.1278 40.4873 16.1284 40.1422L16.1639 19.9732C16.1645 19.6284 16.4442 19.3493 16.7889 19.3493C16.79 19.3493 16.79 19.3493 16.7904 19.3493C18.261 19.3493 21.1013 17.8175 23.1229 15.9337C24.1672 14.9615 25.5646 13.1764 25.4727 12.353C25.4607 12.2448 25.4247 12.1612 25.2825 12.0783C24.6893 11.7329 24.4299 11.9165 24.215 12.1341C23.9208 12.4321 23.6217 12.7558 23.3051 13.0986C21.6846 14.8529 19.6677 17.0361 16.8314 17.0361H9.04919C7.73911 17.0361 5.9202 17.8508 5.91255 19.3804L5.87512 26.8665C5.87208 27.4576 6.10973 28.0238 6.54426 28.4605C6.89723 28.8153 7.35708 29.0565 7.85223 29.1546V19.7002C7.85223 19.355 8.13208 19.0752 8.47723 19.0752C8.82239 19.0752 9.10223 19.355 9.10223 19.7002V40.1432C9.10223 40.4883 8.82239 40.7682 8.47723 40.7682C8.13208 40.7682 7.85223 40.4883 7.85223 40.1432V30.4197C7.02387 30.3095 6.24387 29.931 5.65809 29.3422C4.98723 28.6679 4.62028 27.7865 4.62505 26.8601L4.66247 19.3741C4.67364 17.1579 6.94817 15.7861 9.04911 15.7861H11.1464C9.73591 15.0496 8.74059 13.2933 8.74059 11.248C8.74059 8.77067 10.229 7.23169 12.6247 7.23169C15.0205 7.23169 16.5088 8.77067 16.5088 11.248C16.5088 13.2933 15.5135 15.0496 14.1031 15.7861H16.8313C17.7281 15.7861 18.5395 15.4971 19.2873 15.0468V10.8101C19.2873 9.19692 20.5998 7.88442 22.2131 7.88442H40.4493C42.0625 7.88442 43.375 9.19692 43.375 10.8101ZM12.6247 14.9065C14.0772 14.9065 15.2588 13.2653 15.2588 11.2481C15.2588 8.84114 13.6085 8.48177 12.6247 8.48177C11.641 8.48177 9.99059 8.84122 9.99059 11.2481C9.99067 13.2653 11.1723 14.9065 12.6247 14.9065ZM42.125 10.8101C42.125 9.88614 41.3732 9.13442 40.4493 9.13442H22.2131C21.289 9.13442 20.5373 9.88614 20.5373 10.8101V14.117C21.196 13.5393 21.8062 12.879 22.3869 12.2504C22.7108 11.8998 23.0166 11.5687 23.3254 11.2559C24.0386 10.5337 24.957 10.4423 25.9117 10.9983C26.2279 11.1825 26.4569 11.4348 26.5903 11.7408H38.1675C38.5127 11.7408 38.7925 12.0207 38.7925 12.3658C38.7925 12.711 38.5127 12.9908 38.1675 12.9908H26.6504C26.4404 13.8443 25.8236 14.7599 25.2343 15.4854H38.1675C38.5126 15.4854 38.7925 15.7652 38.7925 16.1104C38.7925 16.4555 38.5126 16.7354 38.1675 16.7354H24.4948C24.3799 16.7354 24.2725 16.7038 24.18 16.6497C24.0666 16.7624 23.9922 16.8322 23.9747 16.8484C23.0308 17.7279 21.7994 18.6338 20.5473 19.335L20.5373 25.1562C20.5365 25.5997 20.7108 26.0189 21.0277 26.3365C21.346 26.6553 21.767 26.8308 22.2131 26.8308H40.4493C41.3732 26.8308 42.125 26.0791 42.125 25.1551V10.8101ZM38.1675 19.2299H24.4948C24.1497 19.2299 23.8698 19.5097 23.8698 19.8549C23.8698 20.2 24.1497 20.4799 24.4948 20.4799H38.1675C38.5126 20.4799 38.7925 20.2 38.7925 19.8549C38.7925 19.5097 38.5126 19.2299 38.1675 19.2299ZM38.1675 22.9745H24.4948C24.1497 22.9745 23.8698 23.2543 23.8698 23.5995C23.8698 23.9447 24.1497 24.2245 24.4948 24.2245H38.1675C38.5126 24.2245 38.7925 23.9447 38.7925 23.5995C38.7925 23.2543 38.5126 22.9745 38.1675 22.9745Z" fill="#41B79B" stroke="#41B79B"/>
</svg>
