<svg width="48" height="48" viewBox="0 0 48 48" fill="none" xmlns="http://www.w3.org/2000/svg">
<path d="M37.4375 26.9063V15.25C37.4379 15.1399 37.4093 15.0316 37.3544 14.9361C37.2995 14.8406 37.2204 14.7614 37.125 14.7063L21.9688 5.95629C21.8737 5.90144 21.766 5.87256 21.6563 5.87256C21.5465 5.87256 21.4388 5.90144 21.3438 5.95629L6.1875 14.7063C6.09213 14.7614 6.01299 14.8406 5.95812 14.9361C5.90324 15.0316 5.87457 15.1399 5.875 15.25V32.75C5.87457 32.8602 5.90324 32.9685 5.95812 33.0639C6.01299 33.1594 6.09213 33.2387 6.1875 33.2938L21.3438 42.0438C21.4388 42.0986 21.5465 42.1275 21.6563 42.1275C21.766 42.1275 21.8737 42.0986 21.9688 42.0438L27.6625 38.7563C28.3722 39.7506 29.3012 40.5683 30.3775 41.1461C31.4539 41.7239 32.6487 42.0463 33.8696 42.0883C35.0905 42.1303 36.3047 41.8908 37.4182 41.3884C38.5317 40.886 39.5147 40.1341 40.2911 39.191C41.0675 38.2478 41.6165 37.1386 41.8955 35.9493C42.1745 34.76 42.1762 33.5224 41.9003 32.3323C41.6244 31.1423 41.0784 30.0316 40.3046 29.0864C39.5307 28.1412 38.5497 27.3867 37.4375 26.8813V26.9063ZM21.6563 7.21879L35.5625 15.25L28.5875 19.275L15.675 10.675L21.6563 7.21879ZM21.6563 23.2813L7.75 15.25L14.4688 11.3688L27.375 19.975L21.6563 23.2813ZM7.125 16.3313L21.0313 24.3625V40.4188L7.125 32.3875V16.3313ZM22.2813 40.4188V24.3625L27.9063 21.0938V25.9625C27.9063 26.1283 27.9721 26.2873 28.0893 26.4045C28.2065 26.5217 28.3655 26.5875 28.5313 26.5875C28.697 26.5875 28.856 26.5217 28.9732 26.4045C29.0904 26.2873 29.1563 26.1283 29.1563 25.9625V20.375L36.1563 16.3313V26.4625C35.4943 26.2816 34.8113 26.1892 34.125 26.1875C32.7725 26.191 31.4432 26.5392 30.2626 27.1992C29.0821 27.8593 28.0893 28.8094 27.378 29.9598C26.6668 31.1102 26.2605 32.4229 26.1977 33.774C26.1348 35.125 26.4174 36.4698 27.0188 37.6813L22.2813 40.4188ZM34.1563 40.875C32.8274 40.875 31.5284 40.481 30.4235 39.7427C29.3186 39.0045 28.4575 37.9551 27.9489 36.7274C27.4404 35.4998 27.3074 34.1488 27.5666 32.8455C27.8258 31.5422 28.4657 30.3451 29.4054 29.4054C30.345 28.4658 31.5422 27.8259 32.8455 27.5666C34.1488 27.3074 35.4997 27.4404 36.7274 27.949C37.9551 28.4575 39.0044 29.3187 39.7427 30.4236C40.481 31.5284 40.875 32.8274 40.875 34.1563C40.8733 35.9377 40.1649 37.6457 38.9053 38.9053C37.6456 40.165 35.9377 40.8734 34.1563 40.875Z" fill="#41B79B" stroke="#41B79B" stroke-width="0.8"/>
<path d="M37.1243 30.9125L33.2493 36.025L31.2181 33.6375C31.1112 33.5091 30.9576 33.4283 30.7912 33.4131C30.6247 33.3979 30.459 33.4494 30.3306 33.5563C30.2021 33.6632 30.1214 33.8168 30.1061 33.9832C30.0909 34.1496 30.1424 34.3153 30.2493 34.4438L32.7493 37.4313C32.808 37.4999 32.8808 37.555 32.9628 37.5927C33.0448 37.6305 33.134 37.65 33.2243 37.65C33.3182 37.6472 33.4102 37.6232 33.4935 37.5799C33.5768 37.5367 33.6493 37.4752 33.7056 37.4L38.0493 31.6688C38.1307 31.6146 38.1983 31.5421 38.2466 31.457C38.2949 31.372 38.3225 31.2768 38.3273 31.1791C38.3321 31.0814 38.3139 30.984 38.2742 30.8946C38.2345 30.8053 38.1744 30.7265 38.0987 30.6646C38.023 30.6027 37.9338 30.5594 37.8383 30.5382C37.7428 30.5171 37.6437 30.5186 37.549 30.5427C37.4542 30.5669 37.3664 30.6129 37.2926 30.6771C37.2189 30.7413 37.1612 30.822 37.1243 30.9125Z" fill="#41B79B" stroke="#41B79B" stroke-width="0.4"/>
</svg>
