<svg width="48" height="48" viewBox="0 0 48 48" fill="none" xmlns="http://www.w3.org/2000/svg">
<path d="M36.3438 6.1918H31.9434C30.7822 4.8507 29.0709 4 27.1641 4H20.8359C18.9291 4 17.2178 4.8507 16.0566 6.1918H11.6562C9.71773 6.1918 8.14062 7.77203 8.14062 9.7143V40.4775C8.14062 42.4198 9.71773 44 11.6562 44H36.3438C38.2823 44 39.8594 42.4198 39.8594 40.4775V9.7143C39.8594 7.77195 38.2823 6.1918 36.3438 6.1918ZM20.8359 6.34836H27.1641C28.9748 6.34836 30.4785 7.56047 30.9727 9.16633H17.0273C17.5206 7.56328 19.0224 6.34836 20.8359 6.34836ZM37.5156 40.4775C37.5156 41.1249 36.9899 41.6516 36.3438 41.6516H11.6562C11.0101 41.6516 10.4844 41.1249 10.4844 40.4775V9.7143C10.4844 9.06687 11.0101 8.54016 11.6562 8.54016H14.7692C14.6001 9.11125 14.5078 9.71516 14.5078 10.3405C14.5078 10.989 15.0325 11.5147 15.6797 11.5147H32.3203C32.9675 11.5147 33.4922 10.989 33.4922 10.3405C33.4922 9.71516 33.3999 9.11125 33.2308 8.54016H36.3438C36.9899 8.54016 37.5156 9.06687 37.5156 9.7143V40.4775Z" fill="#41B79B"/>
<path d="M18.2235 27.3315L16.5 29.0582L16.0786 28.636C15.6211 28.1774 14.879 28.1774 14.4214 28.636C13.9637 29.0946 13.9637 29.838 14.4214 30.2965L15.6714 31.5489C16.1289 32.0074 16.871 32.0075 17.3286 31.5489L19.8807 28.9919C20.3383 28.5334 20.3383 27.7899 19.8807 27.3314C19.4231 26.8729 18.6811 26.8729 18.2235 27.3315Z" fill="#41B79B"/>
<path d="M32.6719 28.2661H23.2188C22.5716 28.2661 22.0469 28.7918 22.0469 29.4403C22.0469 30.0887 22.5716 30.6144 23.2188 30.6144H32.6719C33.3191 30.6144 33.8438 30.0887 33.8438 29.4403C33.8438 28.7918 33.3191 28.2661 32.6719 28.2661Z" fill="#41B79B"/>
<path d="M18.2235 34.0634L16.5 35.7902L16.0786 35.368C15.6211 34.9094 14.879 34.9094 14.4214 35.368C13.9637 35.8265 13.9637 36.5699 14.4214 37.0284L15.6714 38.2809C16.1289 38.7394 16.871 38.7395 17.3286 38.2809L19.8807 35.7238C20.3383 35.2653 20.3383 34.5219 19.8807 34.0634C19.4231 33.6048 18.6811 33.6048 18.2235 34.0634Z" fill="#41B79B"/>
<path d="M32.6719 34.998H23.2188C22.5716 34.998 22.0469 35.5237 22.0469 36.1722C22.0469 36.8206 22.5716 37.3463 23.2188 37.3463H32.6719C33.3191 37.3463 33.8438 36.8206 33.8438 36.1722C33.8438 35.5237 33.3191 34.998 32.6719 34.998Z" fill="#41B79B"/>
<path d="M26.2349 22.8342L29.8594 19.2027V19.3426C29.8594 19.991 30.3841 20.5167 31.0313 20.5167C31.6785 20.5167 32.2032 19.991 32.2032 19.3426C32.2032 16.0213 32.2086 16.3305 32.1897 16.1993C32.1068 15.6249 31.6153 15.1937 31.0309 15.1938H28.0625C27.4154 15.1938 26.8907 15.7196 26.8907 16.368C26.8907 17.0164 27.4154 17.5421 28.0625 17.5421H28.2021L25.4063 20.3435L21.8599 16.7902C21.4023 16.3316 20.6603 16.3316 20.2026 16.7902L15.9839 21.0172C15.5262 21.4757 15.5262 22.2192 15.9839 22.6777C16.4414 23.1363 17.1835 23.1363 17.6411 22.6777L21.0313 19.281L24.5777 22.8342C25.0352 23.2928 25.7773 23.2928 26.2349 22.8342Z" fill="#41B79B"/>
</svg>
