<svg width="48" height="48" viewBox="0 0 48 48" fill="none" xmlns="http://www.w3.org/2000/svg">
<path d="M38.796 29.3707C38.3358 28.9344 37.7311 28.6826 37.0972 28.6633C36.4632 28.6441 35.8444 28.8587 35.3585 29.2663L30.076 33.3157C29.7761 33.545 29.4443 33.7291 29.091 33.8623C29.2851 33.4843 29.3787 33.0629 29.3628 32.6383C29.347 32.2138 29.2222 31.8004 29.0005 31.438C28.7788 31.0756 28.4677 30.7762 28.097 30.5688C27.7262 30.3613 27.3084 30.2526 26.8835 30.2532H20.6073C20.1184 29.6545 19.5156 29.1588 18.8336 28.7949C18.1517 28.4311 17.4043 28.2062 16.6348 28.1335C15.6719 28.0489 14.7047 28.238 13.8445 28.6788V26.6392C13.8445 26.5673 13.8304 26.4962 13.8029 26.4298C13.7754 26.3635 13.7352 26.3032 13.6844 26.2524C13.6336 26.2016 13.5733 26.1613 13.5069 26.1338C13.4405 26.1064 13.3694 26.0922 13.2976 26.0923H8.93164C8.85981 26.0922 8.78868 26.1064 8.72231 26.1338C8.65594 26.1613 8.59564 26.2016 8.54485 26.2524C8.49406 26.3032 8.45378 26.3635 8.42631 26.4298C8.39884 26.4962 8.38472 26.5673 8.38477 26.6392V40.872C8.38472 40.9438 8.39884 41.0149 8.42631 41.0813C8.45378 41.1477 8.49406 41.208 8.54485 41.2588C8.59564 41.3096 8.65594 41.3498 8.72231 41.3773C8.78868 41.4048 8.85981 41.4189 8.93164 41.4188H13.2976C13.3694 41.4189 13.4405 41.4048 13.5069 41.3773C13.5733 41.3498 13.6336 41.3096 13.6844 41.2588C13.7352 41.208 13.7754 41.1477 13.8029 41.0813C13.8304 41.0149 13.8445 40.9438 13.8445 40.872V39.7373L22.7529 41.4957C24.3543 41.8163 26.0078 41.7671 27.5874 41.3518C29.1669 40.9366 30.6309 40.1662 31.8676 39.0995L38.7091 33.2332C38.9857 32.9959 39.2093 32.703 39.3652 32.3736C39.5211 32.0442 39.606 31.6857 39.6141 31.3214C39.6223 30.957 39.5537 30.595 39.4128 30.2589C39.2718 29.9228 39.0617 29.6202 38.796 29.3707ZM12.7507 40.3251H9.47852V27.186H12.7507V40.3251ZM37.9963 32.4038L31.1554 38.2695C30.0439 39.228 28.7284 39.9202 27.3089 40.2934C25.8895 40.6666 24.4036 40.7109 22.9645 40.4229L13.8445 38.6223V29.9688C14.6235 29.4001 15.5833 29.1349 16.5438 29.2232C17.437 29.2976 18.7495 29.692 19.9276 31.1442C19.9788 31.2074 20.0435 31.2584 20.117 31.2934C20.1905 31.3285 20.2709 31.3467 20.3523 31.3467H26.8835C27.2507 31.3467 27.6028 31.4925 27.8624 31.7521C28.122 32.0118 28.2679 32.3639 28.2679 32.731C28.2679 33.0982 28.122 33.4503 27.8624 33.7099C27.6028 33.9696 27.2507 34.1154 26.8835 34.1154C26.8782 34.1154 26.8735 34.1154 26.8682 34.1154H20.3498C20.2047 34.1154 20.0656 34.173 19.9631 34.2756C19.8605 34.3781 19.8029 34.5172 19.8029 34.6623C19.8029 34.8073 19.8605 34.9464 19.9631 35.049C20.0656 35.1515 20.2047 35.2092 20.3498 35.2092H27.7085C28.8038 35.2076 29.8685 34.8475 30.7398 34.1838L36.0426 30.1163C36.3459 29.8575 36.7396 29.7297 37.1371 29.7611C37.5346 29.7925 37.9034 29.9805 38.1623 30.2838C38.4211 30.5871 38.5489 30.9809 38.5175 31.3784C38.4861 31.7759 38.2981 32.1447 37.9948 32.4035L37.9963 32.4038Z" fill="#41B79B" stroke="#41B79B"/>
<path d="M21.5436 24.7419H23.9811C23.9977 24.7419 24.0136 24.7485 24.0253 24.7602C24.037 24.7719 24.0436 24.7878 24.0436 24.8044V27.2419C24.0436 27.5486 24.1654 27.8426 24.3823 28.0595C24.5991 28.2763 24.8932 28.3981 25.1998 28.3981H26.4842C26.6361 28.3981 26.7864 28.3682 26.9267 28.3101C27.067 28.252 27.1944 28.1669 27.3018 28.0595C27.4092 27.9521 27.4943 27.8247 27.5525 27.6844C27.6106 27.5441 27.6405 27.3937 27.6405 27.2419V24.8044C27.6405 24.7878 27.6471 24.7719 27.6588 24.7602C27.6705 24.7485 27.6864 24.7419 27.703 24.7419H30.1405C30.4471 24.7419 30.7412 24.6201 30.9581 24.4032C31.1749 24.1864 31.2967 23.8923 31.2967 23.5856V22.3013C31.2967 21.9946 31.1749 21.7005 30.9581 21.4837C30.7412 21.2668 30.4471 21.145 30.1405 21.145H27.703C27.6864 21.145 27.6705 21.1384 27.6588 21.1267C27.6471 21.115 27.6405 21.0991 27.6405 21.0825V18.645C27.6405 18.4932 27.6106 18.3428 27.5525 18.2025C27.4943 18.0623 27.4092 17.9348 27.3018 17.8274C27.1944 17.7201 27.067 17.6349 26.9267 17.5768C26.7864 17.5187 26.6361 17.4888 26.4842 17.4888H25.1992C24.8926 17.4888 24.5985 17.6106 24.3816 17.8274C24.1648 18.0443 24.043 18.3384 24.043 18.645V21.0825C24.043 21.0991 24.0364 21.115 24.0247 21.1267C24.0129 21.1384 23.997 21.145 23.9805 21.145H21.543C21.2363 21.145 20.9422 21.2668 20.7254 21.4837C20.5085 21.7005 20.3867 21.9946 20.3867 22.3013V23.5856C20.3867 23.7375 20.4166 23.8879 20.4748 24.0283C20.5329 24.1686 20.6182 24.2961 20.7256 24.4035C20.833 24.5108 20.9606 24.596 21.1009 24.6541C21.2413 24.7121 21.3917 24.742 21.5436 24.7419ZM21.4811 22.3016C21.4811 22.285 21.4877 22.2691 21.4994 22.2574C21.5111 22.2457 21.527 22.2391 21.5436 22.2391H23.9811C24.2878 22.2391 24.5818 22.1173 24.7987 21.9004C25.0155 21.6836 25.1373 21.3895 25.1373 21.0828V18.6453C25.1373 18.6288 25.1439 18.6129 25.1556 18.6011C25.1674 18.5894 25.1833 18.5828 25.1998 18.5828H26.4842C26.5008 18.5828 26.5167 18.5894 26.5284 18.6011C26.5401 18.6129 26.5467 18.6288 26.5467 18.6453V21.0828C26.5467 21.3895 26.6685 21.6836 26.8854 21.9004C27.1022 22.1173 27.3963 22.2391 27.703 22.2391H30.1405C30.157 22.2391 30.1729 22.2457 30.1847 22.2574C30.1964 22.2691 30.203 22.285 30.203 22.3016V23.586C30.203 23.6025 30.1964 23.6184 30.1847 23.6302C30.1729 23.6419 30.157 23.6485 30.1405 23.6485H27.703C27.3963 23.6485 27.1022 23.7703 26.8854 23.9871C26.6685 24.204 26.5467 24.498 26.5467 24.8047V27.2422C26.5467 27.2588 26.5401 27.2747 26.5284 27.2864C26.5167 27.2981 26.5008 27.3047 26.4842 27.3047H25.1992C25.1826 27.3047 25.1667 27.2981 25.155 27.2864C25.1433 27.2747 25.1367 27.2588 25.1367 27.2422V24.8047C25.1367 24.498 25.0149 24.204 24.7981 23.9871C24.5812 23.7703 24.2871 23.6485 23.9805 23.6485H21.543C21.5264 23.6485 21.5105 23.6419 21.4988 23.6302C21.4871 23.6184 21.4805 23.6025 21.4805 23.586L21.4811 22.3016Z" fill="#41B79B" stroke="#41B79B"/>
<path d="M10.2617 17.7188H12.6992C12.7158 17.7188 12.7317 17.7253 12.7434 17.7371C12.7551 17.7488 12.7617 17.7647 12.7617 17.7812V20.2188C12.7617 20.5254 12.8835 20.8195 13.1004 21.0363C13.3172 21.2532 13.6113 21.375 13.918 21.375H15.2023C15.3542 21.375 15.5045 21.3451 15.6448 21.287C15.7851 21.2289 15.9126 21.1437 16.0199 21.0363C16.1273 20.929 16.2125 20.8015 16.2706 20.6612C16.3287 20.5209 16.3586 20.3706 16.3586 20.2188V17.7812C16.3586 17.7647 16.3652 17.7488 16.3769 17.7371C16.3886 17.7253 16.4045 17.7188 16.4211 17.7188H18.8586C19.0104 17.7188 19.1608 17.6888 19.3011 17.6307C19.4414 17.5726 19.5688 17.4875 19.6762 17.3801C19.7836 17.2727 19.8687 17.1453 19.9268 17.005C19.9849 16.8647 20.0148 16.7143 20.0148 16.5625V15.2781C20.0148 14.9715 19.893 14.6774 19.6762 14.4605C19.4593 14.2437 19.1652 14.1219 18.8586 14.1219H16.4211C16.4045 14.1219 16.3886 14.1153 16.3769 14.1036C16.3652 14.0918 16.3586 14.076 16.3586 14.0594V11.625C16.3586 11.4732 16.3287 11.3228 16.2706 11.1825C16.2125 11.0422 16.1273 10.9148 16.0199 10.8074C15.9126 10.7 15.7851 10.6149 15.6448 10.5568C15.5045 10.4987 15.3542 10.4688 15.2023 10.4688H13.918C13.6113 10.4687 13.3172 10.5906 13.1004 10.8074C12.8835 11.0242 12.7617 11.3183 12.7617 11.625V14.0625C12.7617 14.0707 12.7601 14.0788 12.757 14.0864C12.7538 14.094 12.7492 14.1009 12.7434 14.1067C12.7376 14.1125 12.7307 14.1171 12.7231 14.1202C12.7156 14.1234 12.7074 14.125 12.6992 14.125H10.2617C10.1099 14.125 9.95952 14.1549 9.81924 14.213C9.67896 14.2711 9.55149 14.3563 9.44413 14.4637C9.33676 14.571 9.25159 14.6985 9.19348 14.8388C9.13538 14.9791 9.10547 15.1294 9.10547 15.2812V16.5625C9.10547 16.8692 9.22729 17.1633 9.44413 17.3801C9.66097 17.5969 9.95506 17.7188 10.2617 17.7188ZM10.1992 15.2787C10.1992 15.2622 10.2058 15.2463 10.2175 15.2346C10.2292 15.2228 10.2451 15.2162 10.2617 15.2162H12.6992C13.0059 15.2162 13.3 15.0944 13.5168 14.8776C13.7336 14.6608 13.8555 14.3667 13.8555 14.06V11.625C13.8555 11.6084 13.8621 11.5925 13.8738 11.5808C13.8855 11.5691 13.9014 11.5625 13.918 11.5625H15.2023C15.2189 11.5625 15.2348 11.5691 15.2465 11.5808C15.2583 11.5925 15.2648 11.6084 15.2648 11.625V14.0625C15.2648 14.2143 15.2948 14.3647 15.3529 14.505C15.411 14.6453 15.4961 14.7727 15.6035 14.8801C15.7109 14.9875 15.8383 15.0726 15.9786 15.1307C16.1189 15.1888 16.2693 15.2188 16.4211 15.2188H18.8586C18.8752 15.2188 18.8911 15.2253 18.9028 15.2371C18.9145 15.2488 18.9211 15.2647 18.9211 15.2812V16.5625C18.9211 16.5791 18.9145 16.595 18.9028 16.6067C18.8911 16.6184 18.8752 16.625 18.8586 16.625H16.4211C16.2693 16.625 16.1189 16.6549 15.9786 16.713C15.8383 16.7711 15.7109 16.8563 15.6035 16.9637C15.4961 17.071 15.411 17.1985 15.3529 17.3388C15.2948 17.4791 15.2648 17.6294 15.2648 17.7812V20.2188C15.2648 20.2353 15.2583 20.2512 15.2465 20.2629C15.2348 20.2747 15.2189 20.2812 15.2023 20.2812H13.918C13.9014 20.2812 13.8855 20.2747 13.8738 20.2629C13.8621 20.2512 13.8555 20.2353 13.8555 20.2188V17.7812C13.8555 17.4746 13.7336 17.1805 13.5168 16.9637C13.3 16.7468 13.0059 16.625 12.6992 16.625H10.2617C10.2535 16.625 10.2454 16.6234 10.2378 16.6202C10.2302 16.6171 10.2233 16.6125 10.2175 16.6067C10.2117 16.6009 10.2071 16.594 10.204 16.5864C10.2008 16.5788 10.1992 16.5707 10.1992 16.5625V15.2787Z" fill="#41B79B" stroke="#41B79B"/>
<path d="M29.1406 13.551H31.5781C31.5947 13.551 31.6106 13.5576 31.6223 13.5693C31.634 13.581 31.6406 13.5969 31.6406 13.6135V16.051C31.6406 16.3576 31.7624 16.6517 31.9793 16.8686C32.1961 17.0854 32.4902 17.2072 32.7969 17.2072H34.0813C34.3879 17.2072 34.682 17.0854 34.8988 16.8686C35.1157 16.6517 35.2375 16.3576 35.2375 16.051V13.6135C35.2375 13.5969 35.2441 13.581 35.2558 13.5693C35.2675 13.5576 35.2834 13.551 35.3 13.551H37.7375C37.8893 13.551 38.0397 13.5211 38.18 13.463C38.3203 13.4049 38.4477 13.3197 38.5551 13.2123C38.6625 13.105 38.7476 12.9775 38.8057 12.8372C38.8638 12.6969 38.8938 12.5466 38.8938 12.3947V11.1104C38.8938 10.8037 38.7719 10.5096 38.5551 10.2928C38.3383 10.0759 38.0442 9.9541 37.7375 9.9541H35.3C35.2834 9.9541 35.2675 9.94752 35.2558 9.9358C35.2441 9.92407 35.2375 9.90818 35.2375 9.8916V7.4541C35.2375 7.14745 35.1157 6.85335 34.8988 6.63651C34.682 6.41967 34.3879 6.29785 34.0813 6.29785H32.7969C32.4902 6.29785 32.1961 6.41967 31.9793 6.63651C31.7624 6.85335 31.6406 7.14745 31.6406 7.4541V9.8916C31.6406 9.90818 31.634 9.92407 31.6223 9.9358C31.6106 9.94752 31.5947 9.9541 31.5781 9.9541H29.1406C28.9888 9.9541 28.8384 9.98401 28.6981 10.0421C28.5579 10.1002 28.4304 10.1854 28.323 10.2928C28.2157 10.4001 28.1305 10.5276 28.0724 10.6679C28.0143 10.8082 27.9844 10.9585 27.9844 11.1104V12.3947C27.9844 12.5466 28.0143 12.6969 28.0724 12.8372C28.1305 12.9775 28.2157 13.105 28.323 13.2123C28.4304 13.3197 28.5579 13.4049 28.6981 13.463C28.8384 13.5211 28.9888 13.551 29.1406 13.551ZM29.0781 11.1107C29.0781 11.0941 29.0847 11.0782 29.0964 11.0665C29.1082 11.0547 29.1241 11.0482 29.1406 11.0482H31.5781C31.8848 11.0482 32.1789 10.9263 32.3957 10.7095C32.6126 10.4927 32.7344 10.1986 32.7344 9.89191V7.45441C32.7344 7.43784 32.741 7.42194 32.7527 7.41022C32.7644 7.3985 32.7803 7.39191 32.7969 7.39191H34.0813C34.0978 7.39191 34.1137 7.3985 34.1254 7.41022C34.1372 7.42194 34.1437 7.43784 34.1437 7.45441V9.89191C34.1437 10.1986 34.2656 10.4927 34.4824 10.7095C34.6992 10.9263 34.9933 11.0482 35.3 11.0482H37.7375C37.7541 11.0482 37.77 11.0547 37.7817 11.0665C37.7934 11.0782 37.8 11.0941 37.8 11.1107V12.395C37.8 12.4116 37.7934 12.4275 37.7817 12.4392C37.77 12.451 37.7541 12.4575 37.7375 12.4575H35.3C34.9933 12.4575 34.6992 12.5794 34.4824 12.7962C34.2656 13.013 34.1437 13.3071 34.1437 13.6138V16.0513C34.1437 16.0595 34.1421 16.0676 34.139 16.0752C34.1359 16.0828 34.1312 16.0897 34.1254 16.0955C34.1196 16.1013 34.1128 16.1059 34.1052 16.109C34.0976 16.1122 34.0895 16.1138 34.0813 16.1138H32.7969C32.7887 16.1138 32.7805 16.1122 32.773 16.109C32.7654 16.1059 32.7585 16.1013 32.7527 16.0955C32.7469 16.0897 32.7423 16.0828 32.7391 16.0752C32.736 16.0676 32.7344 16.0595 32.7344 16.0513V13.6138C32.7344 13.3071 32.6126 13.013 32.3957 12.7962C32.1789 12.5794 31.8848 12.4575 31.5781 12.4575H29.1406C29.1241 12.4575 29.1082 12.451 29.0964 12.4392C29.0847 12.4275 29.0781 12.4116 29.0781 12.395V11.1107Z" fill="#41B79B" stroke="#41B79B"/>
</svg>
