<svg width="48" height="48" viewBox="0 0 48 48" fill="none" xmlns="http://www.w3.org/2000/svg">
<g clip-path="url(#clip0_705_1212)">
<path d="M42.8609 23.2366L39.0212 22.5439V22.0894L39.7467 22.2323C39.7869 22.2401 39.8272 22.244 39.8674 22.244C40.0109 22.244 40.1516 22.1944 40.2645 22.1017C40.4088 21.983 40.4924 21.8059 40.4924 21.619V18.4284C40.4924 18.1366 40.2905 17.8837 40.006 17.819L23.0469 13.9625C22.7907 9.10733 18.7603 5.23608 13.8425 5.23608C8.76 5.23608 4.625 9.37108 4.625 14.4536C4.625 18.1899 6.85969 21.4141 10.0626 22.86L4.89883 26.3673C4.7275 26.4835 4.625 26.6772 4.625 26.8842V38.546C4.625 38.8188 4.80195 39.0601 5.06211 39.1421L16.4595 42.7348C16.5203 42.754 16.5837 42.7637 16.6474 42.7637H42.75C43.0952 42.7637 43.375 42.4839 43.375 42.1387V23.8516C43.375 23.5493 43.1585 23.2902 42.8609 23.2366ZM37.7712 22.3185L36.8316 22.1491V21.6587L37.7712 21.8436V22.3185ZM22.0007 18.7398L22.2984 18.7984V19.5275L21.6146 19.4041C21.7523 19.1887 21.8809 18.9669 22.0007 18.7398ZM23.5484 19.0444L25.0533 19.3406V20.0244L23.5484 19.753V19.0444ZM26.3033 19.5866L35.5816 21.4126V21.9236L26.3033 20.2499V19.5866ZM39.2423 20.8591L22.5181 17.5676C22.7836 16.8304 22.9573 16.0498 23.0262 15.2397L39.2423 18.9273V20.8591ZM5.875 14.4536C5.875 10.0603 9.44922 6.48608 13.8425 6.48608C18.2358 6.48608 21.81 10.0603 21.81 14.4536C21.81 18.8469 18.2358 22.4211 13.8425 22.4211C9.44922 22.4211 5.875 18.8469 5.875 14.4536ZM5.875 27.2152L11.527 23.3764C12.2671 23.5686 13.0431 23.6711 13.8426 23.6711C14.5934 23.6711 15.3233 23.5801 16.0225 23.41V41.2864L13.6529 40.5394V31.4709C13.843 31.3618 13.967 31.1577 13.967 30.9294V29.1005C13.967 28.9049 13.8754 28.7206 13.7195 28.6024C13.5637 28.4842 13.3614 28.4459 13.1732 28.4987L7.60523 30.0599C7.33539 30.1355 7.14898 30.3815 7.14898 30.6617V32.1809C7.14898 32.3359 7.20734 32.4835 7.30922 32.5973V38.5398L5.875 38.0876V27.2152ZM12.717 30.4292L8.39898 31.3998V31.1355L12.717 29.9248V30.4292ZM8.55922 32.6449L9.44984 32.4448V39.2146L8.55922 38.9338V32.6449ZM10.6998 32.1638L12.4028 31.781V40.1455L10.6998 39.6087V32.1638ZM36.5134 32.2258V41.5137H31.8123V31.7653L36.5134 32.2258ZM37.0068 31.0181L24.5374 29.7967V29.0651L37.0068 30.4123V31.0181ZM30.5623 31.6429V41.5137H25.16V31.1137L30.5623 31.6429ZM42.125 41.5137H37.7634V32.3177C37.8697 32.2948 37.9695 32.2448 38.0516 32.1703C38.1823 32.0518 38.2568 31.8837 38.2568 31.7073V29.8512C38.2568 29.532 38.0163 29.2641 37.6989 29.2298L23.9795 27.7476C23.8033 27.7281 23.6269 27.7853 23.4948 27.9038C23.3628 28.0224 23.2873 28.1915 23.2873 28.3689V30.3634C23.2873 30.685 23.5314 30.9541 23.8514 30.9855L23.9099 30.9912V41.5136H17.2723V23.0089C18.6281 22.4634 19.8252 21.6047 20.7738 20.5227L42.125 24.374V41.5137ZM24.3806 16.739C24.4523 16.4014 24.7837 16.1858 25.1217 16.2573L29.0945 17.0999C29.4322 17.1716 29.6479 17.5034 29.5763 17.841C29.5139 18.1349 29.2544 18.3364 28.9655 18.3364C28.9225 18.3364 28.8789 18.3319 28.8352 18.3226L24.8623 17.48C24.5247 17.4084 24.309 17.0766 24.3806 16.739ZM32.7141 18.5066C32.7858 18.169 33.1174 17.9531 33.4552 18.0248L36.8996 18.7555C37.2373 18.8271 37.453 19.1589 37.3813 19.4966C37.319 19.7905 37.0595 19.9919 36.7705 19.9919C36.7276 19.9919 36.684 19.9875 36.6402 19.9782L33.1958 19.2476C32.8581 19.1761 32.6425 18.8443 32.7141 18.5066ZM18.72 18.7971C18.72 18.4519 18.4402 18.1721 18.095 18.1721H11.6242C11.5326 18.1721 11.4552 18.0947 11.4552 18.003C11.4552 17.9114 11.5326 17.834 11.6242 17.834H17.9427C18.2353 17.834 18.4887 17.6309 18.5526 17.3454L19.467 13.2559C19.5597 12.8416 19.4713 12.4394 19.2182 12.1234C18.9597 11.8006 18.5342 11.5921 18.1342 11.5921H11.0087L10.6469 9.97374C10.583 9.68819 10.3295 9.48515 10.037 9.48515H8.80695C8.4618 9.48515 8.18195 9.76499 8.18195 10.1101C8.18195 10.4553 8.4618 10.7351 8.80695 10.7351H9.53617L9.89797 12.3531C9.89797 12.3533 9.89805 12.3534 9.89805 12.3536L10.8902 16.7908C10.4804 17.0399 10.2051 17.4894 10.2051 18.003C10.2051 18.7855 10.8416 19.4221 11.6241 19.4221H18.0949C18.4402 19.4221 18.72 19.1423 18.72 18.7971ZM18.1294 12.842C18.1551 12.8444 18.2184 12.8713 18.2449 12.9079C18.2493 12.9139 18.2595 12.928 18.2472 12.9831L17.442 16.584H12.1249L11.3182 12.9761C11.3182 12.976 11.3182 12.9758 11.3181 12.9758L11.2882 12.8421L18.1294 12.842Z" fill="#41B79B" stroke="#41B79B" stroke-width="0.6"/>
</g>
<defs>
<clipPath id="clip0_705_1212">
<rect width="40" height="40" fill="white" transform="translate(4 4)"/>
</clipPath>
</defs>
</svg>
