<svg width="48" height="48" viewBox="0 0 48 48" fill="none" xmlns="http://www.w3.org/2000/svg">
<path d="M31.9492 33.7039C32.467 33.7039 32.8867 33.2841 32.8867 32.7664C32.8867 32.2486 32.467 31.8289 31.9492 31.8289C31.4315 31.8289 31.0117 32.2486 31.0117 32.7664C31.0117 33.2841 31.4315 33.7039 31.9492 33.7039Z" fill="#41B79B"/>
<path d="M31.9492 23.9836C32.467 23.9836 32.8867 23.5639 32.8867 23.0461C32.8867 22.5284 32.467 22.1086 31.9492 22.1086C31.4315 22.1086 31.0117 22.5284 31.0117 23.0461C31.0117 23.5639 31.4315 23.9836 31.9492 23.9836Z" fill="#41B79B"/>
<path d="M35.0781 33.7039C35.5959 33.7039 36.0156 33.2841 36.0156 32.7664C36.0156 32.2486 35.5959 31.8289 35.0781 31.8289C34.5604 31.8289 34.1406 32.2486 34.1406 32.7664C34.1406 33.2841 34.5604 33.7039 35.0781 33.7039Z" fill="#41B79B"/>
<path d="M32.1823 18.6787H27.8086C27.2908 18.6787 26.8711 19.0984 26.8711 19.6162C26.8711 20.134 27.2908 20.5537 27.8086 20.5537H32.1823C32.7001 20.5537 33.1198 20.134 33.1198 19.6162C33.1198 19.0984 32.7001 18.6787 32.1823 18.6787Z" fill="#41B79B"/>
<path d="M17.4556 35.6676C15.6044 36.2826 13.7156 35.3526 12.9681 33.8414C12.6456 33.1901 13.1044 32.4226 13.8319 32.4214H14.0281C14.4069 32.4214 14.7069 32.6801 14.8544 33.0289C15.0919 33.5901 15.6481 33.9851 16.2944 33.9851C17.1556 33.9851 17.8569 33.2839 17.8569 32.4226C17.8569 31.5964 17.2131 30.9189 16.4019 30.8639C14.8694 30.7601 13.4319 29.9164 13.0044 28.4401C12.3306 26.1126 14.0681 23.9851 16.2931 23.9851C17.7669 23.9851 19.0856 24.9176 19.5994 26.2214C19.8269 26.7976 19.3756 27.4226 18.7556 27.4214H18.5594C18.1806 27.4214 17.8819 27.1614 17.7344 26.8139C17.4969 26.2539 16.9419 25.8601 16.2956 25.8601C15.4344 25.8601 14.7331 26.5614 14.7331 27.4214C14.7331 28.2814 15.4344 28.9851 16.2956 28.9851C18.5319 28.9851 20.2744 31.1301 19.5769 33.4701C19.2731 34.4889 18.4669 35.3326 17.4581 35.6676H17.4556Z" fill="#41B79B"/>
<path d="M15.3574 24.9213V23.4575C15.3562 22.94 15.7749 22.52 16.2937 22.5188C16.8112 22.5188 17.2312 22.9375 17.2312 23.455V24.9188H15.3574V24.9213Z" fill="#41B79B"/>
<path d="M16.293 37.4214C15.7755 37.4214 15.3555 37.0014 15.3555 36.4839V34.9214H17.2305V36.4839C17.2305 37.0014 16.8105 37.4214 16.293 37.4214Z" fill="#41B79B"/>
<path d="M16.3072 42.4363C15.8422 42.4363 15.3722 42.4063 14.901 42.3425C10.0835 41.7013 6.38473 37.5675 6.10223 32.5125L5.61848 23.8163C5.56473 22.8413 6.18223 21.9738 7.15723 21.66C8.05723 21.37 8.76723 20.6263 9.00848 19.72C9.27223 18.7275 10.1085 18.0613 11.0872 18.0613H21.496C22.4747 18.0613 23.3097 18.7275 23.5747 19.72C23.816 20.6263 24.526 21.3688 25.4272 21.66C26.3985 21.9738 27.0172 22.8388 26.9647 23.8138L26.4647 32.815C26.3072 35.64 24.966 38.295 22.7847 40.1C20.936 41.63 18.6772 42.4363 16.3072 42.4363ZM11.0885 19.9363C10.9447 19.9363 10.8547 20.08 10.8222 20.2038C10.4122 21.7413 9.25848 22.9538 7.73473 23.445C7.64098 23.475 7.48473 23.565 7.49348 23.7113L7.97723 32.4075C8.20848 36.565 11.2247 39.9625 15.151 40.485C17.4997 40.7975 19.786 40.1475 21.5897 38.655C23.3697 37.1825 24.4647 35.0163 24.5922 32.71L25.0922 23.7113C25.0997 23.575 24.9672 23.4825 24.851 23.445C23.3272 22.9538 22.1722 21.7425 21.7622 20.2038C21.7297 20.08 21.6397 19.9363 21.496 19.9363H11.0885Z" fill="#41B79B"/>
<path d="M32.7443 29.9375L29.313 29.935C28.7955 29.935 28.3755 29.5138 28.3768 28.9963C28.3768 28.4788 28.798 28.06 29.3155 28.06L32.7468 28.0625C34.2955 28.0638 35.5618 26.7988 35.5618 25.25V10.25C35.5618 8.69625 34.303 7.4375 32.7493 7.4375H10.248C8.6943 7.4375 7.43555 8.69625 7.43555 10.25V18.3775C7.43555 18.895 7.01555 19.315 6.49805 19.315C5.98055 19.315 5.56055 18.895 5.56055 18.3775V10.25C5.56055 7.66125 7.6593 5.5625 10.248 5.5625H32.748C35.3368 5.5625 37.4355 7.66125 37.4355 10.25V25.25C37.4355 27.83 35.3243 29.94 32.7443 29.9375Z" fill="#41B79B"/>
<path d="M37.748 37.4375H28.6855C28.168 37.4375 27.748 37.0175 27.748 36.5C27.748 35.9825 28.168 35.5625 28.6855 35.5625H37.748C39.3018 35.5625 40.5605 34.3037 40.5605 32.75V17.75C40.5605 16.1962 39.3018 14.9375 37.748 14.9375H36.498V13.0625H37.748C40.3368 13.0625 42.4355 15.1612 42.4355 17.75V32.75C42.4355 35.3388 40.3368 37.4375 37.748 37.4375Z" fill="#41B79B"/>
<path d="M6.52344 11.8137H36.4684V13.6887H6.52344V11.8137Z" fill="#41B79B"/>
<path d="M36.4688 19.855H41.4975V21.73H36.4688V19.855Z" fill="#41B79B"/>
</svg>
