<svg width="620" height="606" viewBox="0 0 620 606" fill="none" xmlns="http://www.w3.org/2000/svg">
<path d="M69.9766 507.001C81.3084 518.931 92.0316 526.625 100.505 532.704C200.09 604.157 317.927 583.33 342.972 578.244C379.953 570.733 451.438 556.213 503.121 495.436C581.31 403.485 569.134 258.618 508.485 162.991C497.392 145.499 438.79 48.4143 319.684 32.8458C247.602 23.4235 163.579 42.4272 102.731 93.4053C-24.996 200.414 -15.9019 416.589 69.9766 507.001Z" fill="#DEF5F0"/>
<path d="M166.71 454.097C83.2619 370.648 83.2619 235.352 166.71 151.903C250.159 68.4551 385.455 68.4551 468.903 151.903C552.352 235.352 552.352 370.648 468.903 454.097C385.455 537.545 250.159 537.545 166.71 454.097Z" fill="#77D6BF"/>
<path d="M317.801 485.372C217.08 485.372 135.43 403.721 135.43 303.001C135.43 202.28 217.08 120.63 317.801 120.63C418.522 120.63 500.172 202.28 500.172 303.001C500.172 403.721 418.522 485.372 317.801 485.372Z" fill="#41B79B"/>
<path d="M317.802 494.507C423.398 494.507 509.307 408.599 509.307 303.001C509.307 197.402 423.396 111.494 317.802 111.494C212.208 111.494 126.297 197.402 126.297 303.001C126.297 408.599 212.206 494.507 317.802 494.507ZM317.802 120.63C418.362 120.63 500.173 202.441 500.173 303.001C500.173 403.561 418.362 485.372 317.802 485.372C217.242 485.372 135.431 403.561 135.431 303.001C135.431 202.441 217.242 120.63 317.802 120.63Z" fill="white"/>
<path d="M317.803 414.182C256.399 414.182 206.621 364.404 206.621 303.001C206.621 241.597 256.399 191.819 317.803 191.819C379.207 191.819 428.984 241.597 428.984 303.001C428.984 364.404 379.207 414.182 317.803 414.182Z" fill="#41B79B"/>
<path d="M317.804 423.318C384.145 423.318 438.121 369.344 438.121 303.001C438.121 236.657 384.147 182.685 317.804 182.685C251.46 182.685 197.486 236.659 197.486 303.001C197.486 369.342 251.46 423.318 317.804 423.318ZM317.804 200.953C374.073 200.953 419.851 246.732 419.851 303.001C419.851 359.27 374.073 405.05 317.804 405.05C261.535 405.05 215.756 359.27 215.756 303.001C215.756 246.732 261.533 200.953 317.804 200.953Z" fill="white"/>
<path d="M317.801 346.076C294.011 346.076 274.726 326.791 274.726 303.001C274.726 279.211 294.011 259.925 317.801 259.925C341.591 259.925 360.877 279.211 360.877 303.001C360.877 326.791 341.591 346.076 317.801 346.076Z" fill="#41B79B"/>
<path d="M317.802 355.212C346.59 355.212 370.012 331.791 370.012 303.003C370.012 274.215 346.59 250.793 317.802 250.793C289.014 250.793 265.593 274.215 265.593 303.003C265.593 331.791 289.012 355.212 317.802 355.212ZM317.802 269.059C336.518 269.059 351.744 284.285 351.744 303.001C351.744 321.716 336.518 336.942 317.802 336.942C299.087 336.942 283.861 321.716 283.861 303.001C283.861 284.285 299.087 269.059 317.802 269.059Z" fill="white"/>
<path d="M113.91 99.6589L109.371 104.196L281.178 276.003L285.715 271.466L113.91 99.6589Z" fill="url(#paint0_linear_581_26500)"/>
<path d="M282.503 260.518C279.899 257.914 267.628 270.187 270.232 272.788L315.744 308.568C317.425 309.891 319.605 307.711 318.282 306.03L282.503 260.518Z" fill="url(#paint1_linear_581_26500)"/>
<path d="M109.469 104.296L86.3563 106.593L118.086 138.323C128.483 148.72 142.993 153.903 157.623 152.449L109.469 104.296Z" fill="#77D6BF"/>
<path d="M114.008 99.7584L116.305 76.6453L148.035 108.375C158.432 118.772 163.616 133.282 162.162 147.912L114.008 99.7584Z" fill="#77D6BF"/>
<g opacity="0.3">
<path d="M431.195 67.7641C431.842 68.4105 432.888 68.4085 433.534 67.7641C434.789 66.509 436.116 65.2897 437.479 64.14C438.169 63.5592 438.264 62.5328 437.698 61.8346C437.692 61.8267 437.684 61.8187 437.678 61.8088C437.089 61.1106 436.047 61.0211 435.348 61.6098C433.912 62.8192 432.516 64.1022 431.195 65.4249C430.591 66.0296 430.553 66.9843 431.08 67.6328C431.116 67.6785 431.153 67.7223 431.195 67.7641ZM444.5 59.0022C446.008 58.0494 447.569 57.1523 449.145 56.3368C449.954 55.9171 450.271 54.9186 449.851 54.107C449.425 53.2955 448.433 52.9812 447.621 53.4009C445.964 54.2602 444.319 55.205 442.734 56.2055C441.962 56.6928 441.731 57.7152 442.219 58.487C442.255 58.5427 442.292 58.5964 442.334 58.6461C442.855 59.2886 443.784 59.4537 444.5 59.0022ZM457.123 52.8778C458.8 52.287 460.522 51.7599 462.243 51.3164C463.126 51.0876 463.659 50.1846 463.43 49.3014C463.202 48.4183 462.3 47.8872 461.415 48.1139C459.601 48.5834 457.787 49.1363 456.023 49.7589C455.162 50.0632 454.71 51.0081 455.012 51.8673C455.078 52.0503 455.172 52.2154 455.287 52.3586C455.717 52.8877 456.447 53.1165 457.123 52.8778ZM470.8 49.7291C472.568 49.5262 474.366 49.3989 476.142 49.3492C477.055 49.3233 477.776 48.5635 477.75 47.6505C477.724 46.7375 476.962 46.0194 476.051 46.0433C474.179 46.095 472.288 46.2303 470.426 46.4411C469.519 46.5446 468.866 47.3641 468.97 48.2711C469.008 48.5953 469.135 48.8877 469.328 49.1244C469.672 49.552 470.217 49.7967 470.8 49.7291ZM484.837 49.7072C486.601 49.9021 488.383 50.1766 490.132 50.5207C491.029 50.6978 491.898 50.115 492.073 49.2179C492.25 48.3208 491.667 47.4516 490.77 47.2765C488.93 46.9125 487.057 46.6261 485.199 46.4192C484.292 46.3178 483.474 46.9722 483.373 47.8812C483.321 48.3387 483.462 48.7723 483.731 49.1045C483.997 49.4327 484.385 49.6575 484.837 49.7072ZM498.528 52.7923C500.208 53.3731 501.883 54.0354 503.51 54.7575C504.346 55.1274 505.322 54.7515 505.692 53.9181C506.062 53.0827 505.688 52.106 504.853 51.736C503.142 50.9762 501.378 50.2801 499.61 49.6674C498.746 49.3691 497.806 49.8265 497.507 50.6898C497.312 51.2507 497.438 51.8435 497.786 52.2731C497.973 52.5038 498.225 52.6868 498.528 52.7923ZM540.7 97.4133C541.583 97.1826 542.114 96.2795 541.884 95.3964C541.412 93.5863 540.855 91.7723 540.227 90.004C539.92 89.1427 538.976 88.6932 538.116 88.9995C537.257 89.3038 536.805 90.2506 537.112 91.1099C537.707 92.7887 538.236 94.5112 538.683 96.2298C538.745 96.4665 538.854 96.6753 538.997 96.8544C539.395 97.3417 540.054 97.5824 540.7 97.4133ZM511.186 58.8311C512.694 59.7719 514.18 60.7884 515.602 61.8545C516.332 62.4015 517.37 62.2543 517.917 61.5243C518.466 60.7943 518.313 59.76 517.587 59.209C516.089 58.0872 514.526 57.0151 512.936 56.0245C512.161 55.5412 511.142 55.7779 510.659 56.5536C510.275 57.1682 510.345 57.936 510.778 58.4691C510.888 58.6083 511.027 58.7297 511.186 58.8311ZM535.869 83.8378C536.678 83.4161 536.992 82.4176 536.571 81.6081C535.705 79.9492 534.759 78.3062 533.754 76.7249C533.269 75.9511 532.242 75.7263 531.473 76.2137C530.701 76.703 530.474 77.7254 530.962 78.4952C531.916 79.9989 532.817 81.5603 533.639 83.1357C533.691 83.2371 533.752 83.3286 533.822 83.4141C534.305 84.0129 535.16 84.2078 535.869 83.8378ZM522.176 67.5453C523.435 68.7984 524.656 70.1231 525.806 71.4817C526.395 72.1798 527.439 72.2653 528.135 71.6766C528.823 71.0938 528.917 70.0714 528.352 69.3732C528.344 69.3633 528.338 69.3553 528.33 69.3454C527.121 67.9152 525.834 66.5209 524.509 65.2001C523.861 64.5557 522.814 64.5577 522.17 65.2061C521.567 65.8108 521.531 66.7636 522.056 67.412C522.094 67.4577 522.134 67.5015 522.176 67.5453Z" fill="#77D6BF"/>
<path d="M540.897 108.307C540.693 108.055 540.559 107.739 540.533 107.389C540.472 106.539 540.388 105.676 540.293 104.823C540.189 103.916 540.84 103.096 541.747 102.991C542.654 102.885 543.475 103.538 543.579 104.445C543.682 105.342 543.768 106.249 543.833 107.144C543.901 108.055 543.217 108.847 542.306 108.914C541.743 108.958 541.226 108.715 540.897 108.307Z" fill="#77D6BF"/>
</g>
<g opacity="0.3">
<path d="M524.681 156.038C524.178 155.417 524.185 154.508 524.734 153.893C525.303 153.259 525.868 152.6 526.413 151.94C526.994 151.236 528.036 151.134 528.74 151.715C529.449 152.298 529.546 153.338 528.965 154.042C528.39 154.739 527.796 155.431 527.197 156.099C526.588 156.779 525.542 156.837 524.862 156.226C524.794 156.169 524.734 156.103 524.681 156.038Z" fill="#77D6BF"/>
<path d="M428.822 156.183C429.43 156.863 430.477 156.921 431.157 156.312C431.837 155.703 431.895 154.659 431.286 153.977C430.127 152.682 429.005 151.317 427.937 149.905C427.392 149.179 426.349 149.034 425.619 149.585C424.891 150.136 424.748 151.172 425.299 151.9C425.763 152.511 426.232 153.114 426.711 153.704C427.394 154.548 428.104 155.381 428.822 156.183ZM422.614 144.994C423.409 144.547 423.692 143.538 423.244 142.742C422.385 141.215 421.581 139.634 420.857 138.042C420.482 137.211 419.497 136.845 418.667 137.225C417.838 137.603 417.47 138.585 417.85 139.415C418.614 141.09 419.459 142.754 420.364 144.362C420.412 144.445 420.464 144.523 420.523 144.594C421.019 145.209 421.9 145.394 422.614 144.994ZM435.278 162.468C436.681 163.658 438.154 164.803 439.656 165.874C440.4 166.403 441.433 166.23 441.962 165.486C442.491 164.742 442.318 163.711 441.574 163.18C440.146 162.164 438.747 161.076 437.417 159.946C436.72 159.355 435.676 159.441 435.085 160.137C434.562 160.754 434.57 161.641 435.061 162.245C435.125 162.325 435.197 162.399 435.278 162.468ZM416.736 132.089C417.611 131.828 418.109 130.905 417.846 130.032C417.345 128.355 416.909 126.637 416.551 124.924C416.364 124.029 415.489 123.456 414.594 123.643C413.701 123.83 413.128 124.706 413.313 125.599C413.689 127.401 414.148 129.211 414.675 130.977C414.739 131.19 414.842 131.381 414.974 131.544C415.387 132.051 416.076 132.286 416.736 132.089ZM447.332 170.58C448.961 171.431 450.65 172.225 452.351 172.939C453.192 173.293 454.161 172.897 454.515 172.056C454.869 171.214 454.473 170.244 453.63 169.891C452.014 169.213 450.409 168.459 448.862 167.65C448.052 167.226 447.054 167.54 446.63 168.35C446.316 168.953 446.409 169.661 446.811 170.158C446.952 170.327 447.125 170.472 447.332 170.58ZM460.874 175.851C462.654 176.326 464.476 176.734 466.286 177.058C467.185 177.219 468.044 176.623 468.206 175.723C468.367 174.822 467.77 173.965 466.871 173.804C465.15 173.494 463.42 173.108 461.727 172.656C460.844 172.42 459.939 172.945 459.702 173.826C459.561 174.357 459.694 174.898 460.016 175.296C460.229 175.558 460.524 175.757 460.874 175.851ZM475.241 178.047C477.083 178.124 478.951 178.124 480.788 178.047C481.701 178.009 482.41 177.237 482.372 176.326C482.334 175.413 481.562 174.705 480.651 174.743C478.905 174.816 477.133 174.816 475.38 174.743C474.467 174.705 473.697 175.413 473.66 176.326C473.642 176.746 473.781 177.134 474.028 177.436C474.314 177.792 474.748 178.027 475.241 178.047ZM489.747 177.056C491.561 176.728 493.383 176.32 495.162 175.841C496.043 175.604 496.566 174.695 496.327 173.814C496.09 172.933 495.181 172.412 494.3 172.648C492.612 173.104 490.883 173.492 489.158 173.802C488.259 173.965 487.663 174.824 487.826 175.723C487.878 176.008 487.997 176.26 488.168 176.469C488.536 176.923 489.133 177.167 489.747 177.056ZM503.687 172.901C505.381 172.183 507.066 171.383 508.697 170.524C509.505 170.098 509.815 169.098 509.389 168.29C508.964 167.485 507.963 167.172 507.156 167.598C505.606 168.416 504.005 169.175 502.398 169.858C501.556 170.214 501.165 171.184 501.521 172.026C501.582 172.173 501.664 172.304 501.759 172.424C502.211 172.979 502.993 173.195 503.687 172.901ZM516.361 165.792C517.465 165.004 518.557 164.173 519.607 163.32C519.987 163.011 520.363 162.699 520.735 162.385C521.431 161.794 521.539 160.748 520.928 160.055C520.337 159.359 519.295 159.272 518.597 159.863C518.243 160.163 517.885 160.459 517.525 160.752C516.526 161.561 515.488 162.353 514.44 163.101C513.696 163.632 513.525 164.664 514.056 165.406C514.076 165.434 514.096 165.462 514.117 165.488C514.664 166.164 515.647 166.303 516.361 165.792Z" fill="#77D6BF"/>
<path d="M412.443 117.557C412.236 117.302 412.103 116.982 412.079 116.63C412.017 115.737 411.973 114.826 411.95 113.921C411.924 113.008 412.644 112.248 413.557 112.222C414.47 112.198 415.23 112.916 415.255 113.829C415.279 114.688 415.321 115.554 415.379 116.401C415.442 117.312 414.754 118.102 413.843 118.163C413.282 118.203 412.769 117.961 412.443 117.557Z" fill="#77D6BF"/>
</g>
<path d="M431.044 96.1661C431.111 95.8439 431.376 95.5992 431.702 95.5574L441.031 94.366C442.883 90.3838 445.383 86.6663 448.498 83.3922L446.188 74.2803C446.107 73.96 446.238 73.6258 446.515 73.4448L455.949 67.2588C456.225 67.0778 456.585 67.0917 456.846 67.2946L464.281 73.045C468.526 71.4935 472.932 70.684 477.323 70.5726L482.135 62.491C482.304 62.2085 482.634 62.0633 482.957 62.129L494.002 64.4263C494.324 64.494 494.569 64.7585 494.611 65.0847L495.802 74.4135C499.784 76.2654 503.502 78.7656 506.776 81.8805L515.888 79.5712C516.208 79.4897 516.542 79.6209 516.723 79.8974L522.909 89.3316C523.09 89.6081 523.076 89.9681 522.873 90.2287L517.123 97.6639C518.674 101.909 519.484 106.314 519.595 110.706L527.677 115.518C527.96 115.687 528.105 116.017 528.039 116.339L525.742 127.385C525.674 127.707 525.409 127.952 525.083 127.993L515.753 129.185C513.901 133.167 511.4 136.885 508.286 140.159L510.595 149.271C510.676 149.591 510.545 149.927 510.269 150.106L500.834 156.292C500.558 156.473 500.198 156.459 499.937 156.256L492.502 150.506C488.257 152.057 483.852 152.867 479.46 152.978L474.648 161.06C474.479 161.342 474.149 161.488 473.827 161.422L462.781 159.124C462.459 159.057 462.214 158.792 462.173 158.466L460.981 149.137C456.999 147.285 453.281 144.785 450.007 141.67L440.895 143.98C440.575 144.061 440.241 143.93 440.06 143.653L433.874 134.219C433.693 133.943 433.707 133.583 433.91 133.322L439.66 125.887C438.109 121.64 437.299 117.236 437.188 112.845L429.106 108.033C428.824 107.864 428.679 107.534 428.744 107.211L431.044 96.1661Z" fill="#77D6BF"/>
<path d="M470.716 120.127C475.321 124.357 482.508 124.055 486.738 119.45C488.789 117.221 489.847 114.325 489.718 111.299C489.591 108.274 488.292 105.477 486.06 103.428C481.455 99.1975 474.269 99.4999 470.038 104.105C466.189 108.294 466.094 114.621 469.575 118.913C469.921 119.339 470.301 119.745 470.716 120.127ZM487.076 111.409C487.174 113.73 486.362 115.948 484.791 117.658C481.547 121.187 476.035 121.422 472.506 118.177C468.974 114.933 468.743 109.421 471.987 105.893C475.231 102.364 480.743 102.129 484.272 105.374C484.592 105.668 484.886 105.982 485.155 106.312C486.323 107.755 486.997 109.523 487.076 111.409Z" fill="#77D6BF"/>
<path d="M457.002 129.408C456.404 128.67 455.841 127.898 455.312 127.094C455.144 126.842 454.983 126.585 454.826 126.327C454.048 125.052 453.372 123.717 452.809 122.342C452.801 122.324 452.793 122.305 452.785 122.287C452.764 122.233 452.742 122.179 452.722 122.128C452.68 122.024 452.64 121.919 452.598 121.815C452.493 121.541 452.582 121.24 452.797 121.063C452.849 121.022 452.911 120.986 452.976 120.96C453.316 120.829 453.698 121 453.832 121.34C454.508 123.094 455.377 124.785 456.417 126.37C461.577 134.243 470.234 138.472 479.011 138.358C483.895 138.297 488.814 136.891 493.192 134.02C493.959 133.517 494.695 132.978 495.399 132.409C500.133 128.57 503.376 123.265 504.633 117.219C506.077 110.273 504.73 103.18 500.842 97.2462C492.806 84.9934 476.314 81.5663 464.065 89.5962C463.31 90.0915 462.584 90.6225 461.885 91.1874C458.866 93.636 456.415 96.7191 454.723 100.222C454.679 100.311 454.617 100.389 454.544 100.447C454.351 100.604 454.078 100.644 453.84 100.528C453.511 100.369 453.372 99.9752 453.531 99.645C455.31 95.9672 457.881 92.731 461.052 90.1611C461.784 89.5683 462.546 89.0094 463.339 88.4902C476.199 80.0585 493.52 83.6667 501.948 96.5202C506.031 102.748 507.445 110.195 505.928 117.487C504.607 123.836 501.204 129.406 496.235 133.435C495.497 134.034 494.723 134.599 493.918 135.128C487.688 139.212 480.243 140.626 472.951 139.108C466.604 137.784 461.032 134.378 457.002 129.408Z" fill="#77D6BF"/>
<g opacity="0.3">
<path d="M361.703 51.2487C361.424 50.9046 361.392 50.4073 361.657 50.0254C362.148 49.3113 362.669 48.6032 363.204 47.921C363.553 47.4774 364.193 47.3978 364.639 47.7459C365.084 48.092 365.162 48.7345 364.814 49.1801C364.304 49.8305 363.807 50.5068 363.338 51.187C363.017 51.6505 362.381 51.7678 361.918 51.4476C361.832 51.3899 361.762 51.3223 361.703 51.2487Z" fill="#77D6BF"/>
<path d="M366.809 45.2974C367.207 45.6972 367.853 45.6992 368.253 45.3014C369.261 44.2969 370.336 43.3342 371.439 42.4371C371.672 42.2481 371.909 42.0612 372.148 41.8762C372.593 41.5301 372.673 40.8896 372.327 40.444C371.982 40.0363 371.34 39.9189 370.892 40.265C370.642 40.46 370.395 40.6549 370.153 40.8518C368.993 41.7907 367.869 42.8011 366.811 43.8553C366.437 44.2273 366.411 44.82 366.737 45.2218C366.759 45.2457 366.783 45.2715 366.809 45.2974ZM376.43 38.9502C377.912 38.0651 379.461 37.2635 381.037 36.5693C381.554 36.3406 381.787 35.7399 381.56 35.2227C381.333 34.7095 380.73 34.4728 380.213 34.6996C378.562 35.4276 376.937 36.267 375.384 37.1959C374.9 37.4843 374.741 38.1128 375.03 38.5962C375.056 38.638 375.083 38.6797 375.115 38.7155C375.428 39.1054 375.989 39.2128 376.43 38.9502ZM385.902 34.7772C387.553 34.2839 389.252 33.888 390.952 33.6016C391.507 33.5081 391.883 32.981 391.79 32.4261C391.696 31.8691 391.171 31.4952 390.614 31.5887C388.83 31.889 387.048 32.3047 385.317 32.8219C384.776 32.983 384.47 33.5539 384.631 34.0929C384.671 34.2242 384.734 34.3415 384.816 34.443C385.069 34.7533 385.494 34.8985 385.902 34.7772ZM396.112 33.0586C397.837 32.985 399.581 33.0168 401.296 33.1541C401.858 33.1998 402.35 32.7801 402.396 32.2172C402.441 31.6563 402.022 31.163 401.461 31.1172C399.661 30.972 397.833 30.9382 396.025 31.0158C395.462 31.0397 395.024 31.517 395.048 32.08C395.058 32.3067 395.141 32.5136 395.275 32.6787C395.47 32.9233 395.776 33.0725 396.112 33.0586ZM406.429 33.8841C408.12 34.2302 409.803 34.6857 411.434 35.2366C411.967 35.4176 412.548 35.1292 412.727 34.5942C412.908 34.0591 412.621 33.4803 412.084 33.3013C410.374 32.7244 408.609 32.249 406.839 31.883C406.286 31.7697 405.747 32.1257 405.634 32.6767C405.57 32.989 405.656 33.2973 405.841 33.526C405.986 33.705 406.189 33.8343 406.429 33.8841ZM416.236 37.1899C417.789 37.9358 419.309 38.7871 420.755 39.72C421.228 40.0263 421.861 39.8891 422.167 39.4157C422.471 38.9423 422.336 38.3117 421.863 38.0034C420.347 37.0268 418.75 36.1337 417.121 35.35C416.611 35.1054 416.003 35.3202 415.758 35.8274C415.581 36.1954 415.645 36.617 415.885 36.9134C415.977 37.0268 416.094 37.1223 416.236 37.1899ZM424.932 42.7912C426.251 43.8931 427.516 45.0925 428.695 46.3556C429.081 46.7673 429.725 46.7892 430.139 46.4053C430.551 46.0214 430.569 45.3809 430.189 44.9612C428.952 43.6365 427.625 42.3794 426.243 41.2238C425.809 40.8617 425.165 40.9194 424.805 41.3531C424.486 41.733 424.492 42.278 424.795 42.6499C424.834 42.6997 424.88 42.7474 424.932 42.7912ZM436.166 55.1334C436.659 54.8609 436.838 54.2403 436.566 53.745C435.81 52.3785 434.967 51.0299 434.062 49.741C433.924 49.5441 433.787 49.3511 433.646 49.1582C433.33 48.6948 432.675 48.6013 432.22 48.9334C431.764 49.2656 431.663 49.9041 431.995 50.3596C432.126 50.5406 432.258 50.7236 432.387 50.9106C433.254 52.1438 434.06 53.4307 434.78 54.7336C434.81 54.7873 434.843 54.837 434.881 54.8828C435.186 55.2627 435.727 55.3761 436.166 55.1334Z" fill="#77D6BF"/>
</g>
<g opacity="0.3">
<path d="M364.091 103.337C365.229 104.705 366.462 106.014 367.753 107.231C368.163 107.617 368.809 107.599 369.197 107.188C369.585 106.776 369.559 106.131 369.153 105.744C367.922 104.584 366.747 103.335 365.661 102.03C365.301 101.596 364.656 101.539 364.223 101.899C363.793 102.257 363.731 102.893 364.081 103.327C364.085 103.331 364.089 103.335 364.091 103.337ZM362.335 99.3307C362.808 99.0244 362.944 98.3919 362.637 97.9185C361.716 96.4943 360.871 94.9985 360.127 93.4749C359.88 92.9716 359.268 92.7568 358.761 93.0054C358.253 93.2521 358.044 93.8627 358.291 94.3699C359.071 95.9672 359.956 97.5326 360.923 99.0264C360.943 99.0582 360.964 99.088 360.988 99.1159C361.313 99.5177 361.893 99.6171 362.335 99.3307ZM371.867 110.655C373.303 111.707 374.816 112.681 376.362 113.549C376.853 113.825 377.478 113.65 377.752 113.157C378.029 112.666 377.854 112.045 377.362 111.766C375.887 110.939 374.444 110.01 373.072 109.006C372.616 108.671 371.978 108.771 371.646 109.224C371.365 109.606 371.391 110.119 371.676 110.472C371.729 110.541 371.793 110.601 371.867 110.655ZM357.543 90.0616C358.076 89.8786 358.361 89.2978 358.176 88.7627C357.625 87.1595 357.165 85.5046 356.813 83.8477C356.696 83.2967 356.153 82.9447 355.602 83.06C355.051 83.1774 354.697 83.7204 354.814 84.2714C355.182 86.0098 355.664 87.7463 356.242 89.4271C356.282 89.5424 356.342 89.6479 356.415 89.7374C356.68 90.0636 357.126 90.2048 357.543 90.0616ZM381.173 115.874C382.816 116.548 384.519 117.129 386.234 117.602C386.777 117.752 387.34 117.431 387.489 116.888C387.638 116.345 387.32 115.782 386.775 115.633C385.14 115.184 383.517 114.629 381.949 113.986C381.428 113.771 380.831 114.022 380.617 114.543C380.469 114.901 380.541 115.293 380.768 115.576C380.873 115.701 381.01 115.806 381.173 115.874ZM391.465 118.708C393.225 118.971 395.017 119.128 396.792 119.176C397.355 119.192 397.824 118.748 397.84 118.183C397.856 117.62 397.412 117.149 396.847 117.135C395.157 117.089 393.446 116.938 391.765 116.687C391.208 116.604 390.687 116.99 390.606 117.547C390.562 117.841 390.649 118.126 390.823 118.34C390.978 118.533 391.202 118.671 391.465 118.708ZM402.138 118.999C403.913 118.832 405.691 118.553 407.425 118.173C407.976 118.052 408.324 117.509 408.205 116.956C408.084 116.405 407.539 116.057 406.99 116.176C405.337 116.538 403.64 116.803 401.949 116.962C401.389 117.016 400.975 117.513 401.028 118.074C401.048 118.283 401.128 118.47 401.251 118.621C401.456 118.879 401.784 119.031 402.138 118.999Z" fill="#77D6BF"/>
<path d="M354.243 79.4876C354.12 79.3345 354.038 79.1435 354.02 78.9327C353.944 78.0615 353.895 77.1843 353.871 76.327C353.855 75.7641 354.301 75.2927 354.863 75.2788C355.426 75.2648 355.896 75.7084 355.912 76.2713C355.934 77.0908 355.981 77.9262 356.053 78.7577C356.101 79.3206 355.685 79.8139 355.124 79.8636C354.774 79.8934 354.45 79.7423 354.243 79.4876Z" fill="#77D6BF"/>
</g>
<path d="M366.564 64.4482C366.609 64.2314 366.786 64.0683 367.005 64.0405L373.249 63.2429C374.488 60.5775 376.161 58.0911 378.246 55.8992L376.7 49.8026C376.646 49.5878 376.734 49.365 376.917 49.2437L383.23 45.1044C383.415 44.9831 383.656 44.993 383.831 45.1283L388.806 48.9772C391.646 47.9389 394.594 47.3958 397.532 47.3223L400.752 41.9159C400.865 41.727 401.086 41.6295 401.301 41.6733L408.692 43.2108C408.909 43.2566 409.072 43.4336 409.1 43.6524L409.898 49.8961C412.563 51.1353 415.049 52.8081 417.241 54.8927L423.338 53.3472C423.553 53.2935 423.776 53.381 423.897 53.564L428.036 59.8773C428.158 60.0623 428.148 60.303 428.012 60.478L424.163 65.4527C425.202 68.2931 425.745 71.2409 425.816 74.1788L431.225 77.3991C431.414 77.5125 431.511 77.7333 431.465 77.9481L429.928 85.3395C429.882 85.5564 429.705 85.7195 429.486 85.7473L423.243 86.5449C422.003 89.2103 420.331 91.6967 418.246 93.8886L419.791 99.9851C419.845 100.198 419.758 100.423 419.575 100.544L413.261 104.683C413.076 104.805 412.836 104.795 412.661 104.659L407.686 100.811C404.846 101.849 401.898 102.392 398.96 102.464L395.74 107.87C395.626 108.059 395.405 108.156 395.191 108.113L387.799 106.575C387.582 106.529 387.419 106.352 387.391 106.133L386.594 99.8897C383.928 98.6505 381.442 96.9777 379.25 94.8931L373.153 96.4386C372.941 96.4923 372.716 96.4048 372.595 96.2218L368.455 89.9085C368.334 89.7235 368.344 89.4828 368.479 89.3078L372.328 84.3331C371.29 81.4927 370.749 78.5448 370.675 75.607L365.267 72.3867C365.078 72.2733 364.98 72.0525 365.026 71.8377L366.564 64.4482Z" fill="#77D6BF"/>
<path d="M393.021 80.5796C394.541 81.976 396.512 82.698 398.575 82.6105C400.636 82.523 402.541 81.6398 403.935 80.1202C406.818 76.9854 406.611 72.0962 403.474 69.2061C400.337 66.3239 395.442 66.5328 392.56 69.6676C391.164 71.1872 390.441 73.1584 390.529 75.2191C390.601 76.8939 391.197 78.4672 392.236 79.7462C392.474 80.0406 392.737 80.3191 393.021 80.5796ZM402.432 78.7378C401.405 79.8556 400.003 80.5061 398.487 80.5697C396.972 80.6334 395.522 80.1023 394.404 79.0759C393.288 78.0476 392.635 76.6472 392.572 75.1316C392.508 73.6159 393.039 72.1658 394.066 71.048C396.186 68.7406 399.786 68.5895 402.094 70.7078C402.302 70.8988 402.491 71.1017 402.664 71.3165C404.409 73.4687 404.361 76.6393 402.432 78.7378Z" fill="#77D6BF"/>
<path d="M383.472 87.0402C383.065 86.5389 382.681 86.0118 382.319 85.4608C381.601 84.3648 380.992 83.1973 380.511 81.9819C380.489 81.9262 380.469 81.8725 380.447 81.8168C380.284 81.3932 380.421 80.9277 380.755 80.6572C380.837 80.5916 380.93 80.5359 381.032 80.4981C381.559 80.2952 382.148 80.5597 382.351 81.0829C382.788 82.2206 383.353 83.3166 384.023 84.339C384.059 84.3947 384.097 84.4504 384.135 84.5061C385.746 86.9129 387.896 88.8283 390.396 90.1372C391.753 90.8473 393.215 91.3803 394.751 91.7145C394.762 91.7165 394.776 91.7205 394.788 91.7225C394.826 91.7304 394.864 91.7384 394.904 91.7463C399.401 92.6812 403.992 91.81 407.833 89.2918C408.33 88.9656 408.807 88.6175 409.263 88.2495C412.326 85.7652 414.427 82.33 415.24 78.4155C416.175 73.9182 415.302 69.3274 412.786 65.4865C410.267 61.6495 406.405 59.016 401.907 58.0791C397.41 57.1443 392.819 58.0155 388.978 60.5337C388.489 60.8539 388.019 61.198 387.568 61.564C385.613 63.1493 384.027 65.1444 382.931 67.4119C382.864 67.5511 382.768 67.6685 382.655 67.76C382.357 68.0007 381.935 68.0643 381.567 67.8873C381.06 67.6407 380.847 67.032 381.092 66.5228C382.319 63.9847 384.093 61.753 386.279 59.9787C386.784 59.569 387.309 59.1851 387.856 58.8251C392.155 56.0065 397.291 55.0319 402.323 56.0781C407.353 57.1244 411.678 60.0623 414.492 64.3646C417.311 68.6611 418.285 73.7989 417.239 78.8292C416.328 83.2092 413.981 87.0521 410.552 89.8328C410.043 90.2446 409.509 90.6364 408.955 91.0004C400.634 96.4545 389.607 94.6066 383.472 87.0402Z" fill="#77D6BF"/>
<path d="M486.3 569.406C486.3 569.406 487.45 575.572 488.042 581.681C488.275 584.068 486.451 586.16 484.056 586.284C475.917 586.699 458.509 587.527 452.257 587.306C451.316 587.272 450.694 586.317 451.034 585.44C451.318 584.706 451.875 584.108 452.587 583.771L481.228 570.275L486.3 569.406Z" fill="url(#paint2_linear_581_26500)"/>
<path d="M487.158 565.768L486.353 573.164C486.353 573.164 481.336 575.558 477.869 572.949L479.878 564.696L487.158 565.768Z" fill="#2E3646"/>
<path d="M485.173 426.887C485.571 428.812 488.123 523.14 478.442 565.516C478.285 566.208 478.641 566.914 479.3 567.176C480.853 567.793 483.894 568.68 487.528 568.768C488.654 568.796 489.657 568.054 489.963 566.97C492.752 557.134 506.096 507.854 507.451 460.888C508.965 408.408 507.433 459.102 507.433 459.102L505.943 426.686L485.173 426.887Z" fill="url(#paint3_linear_581_26500)"/>
<path d="M519.421 572.312C519.421 572.312 521.188 575.413 522.948 583.684C523.266 585.178 522.234 586.62 520.716 586.783C518.031 587.073 513.896 587.453 510.58 587.461C509.052 587.465 507.847 586.146 508.016 584.627C508.354 581.599 509.45 576.627 512.949 572.726L519.421 572.312Z" fill="url(#paint4_linear_581_26500)"/>
<path d="M520.855 562.796L518.914 573.989C518.914 573.989 516.903 575.515 512.887 574.46L513.75 562.43L520.855 562.796Z" fill="url(#paint5_linear_581_26500)"/>
<path d="M525.118 429.401C533.84 479.098 524.503 552.445 521.255 566.814C521.056 567.694 520.354 568.374 519.467 568.529C517.959 568.794 515.473 569.022 513.012 568.332C512.165 568.095 511.564 567.337 511.521 566.458C510.956 554.872 511.095 483.707 503.141 455.659C502.737 454.236 501.856 453.003 500.642 452.158L485.625 441.695L484.318 424.565L525.118 429.401Z" fill="url(#paint6_linear_581_26500)"/>
<path d="M471.662 335.586C496.376 334.941 523.714 341.579 523.714 341.579C531.491 384.499 525.886 434.143 525.886 434.143C506.799 439.344 485.136 431.464 485.136 431.464C481.784 413.524 466.462 363.095 466.462 363.095C454.371 361.71 444.389 358.321 436.153 353.794C442.333 346.49 445.191 337.245 446.418 331.785C455.182 334.418 464.04 335.785 471.662 335.586Z" fill="#2E3646"/>
<path d="M398.302 299.874C400.703 296.918 403.788 298.277 403.788 298.277C407.571 313.607 426.762 325.883 446.414 331.785C445.187 337.245 442.329 346.492 436.148 353.794C403.458 335.823 398.302 299.874 398.302 299.874Z" fill="url(#paint7_linear_581_26500)"/>
<path d="M398.899 300.614C398.653 301.423 401.606 302.627 403.307 299.305C403.353 297.722 404.25 290.929 403.293 289.648C398.189 282.827 388.339 274.31 388.339 274.31C386.704 275.955 388.079 277.542 388.079 277.542L392.864 282.434C391.89 284.234 390.696 285.757 390.149 287.929C389.735 289.574 390.016 291.325 390.857 292.811C391.703 294.3 392.856 296.238 393.944 297.753C396.003 300.62 398.899 300.614 398.899 300.614Z" fill="url(#paint8_linear_581_26500)"/>
<path d="M394.966 285.618L399.321 289.238L400.711 292.87L396.902 297.179C396.902 297.179 395.537 289.958 394.561 288.403C393.584 286.845 394.075 286.084 394.966 285.618Z" fill="url(#paint9_linear_581_26500)"/>
<path d="M514.46 365.603L523.711 341.579C523.711 341.579 546.947 357.046 550.936 376.899C546.575 377.261 538.649 378.472 530.917 382.47C529.119 373.094 514.46 365.603 514.46 365.603Z" fill="#2E3646"/>
<path d="M494.5 388.316C494.5 388.316 520.561 402.719 529.188 390.126C530.978 387.511 531.388 384.927 530.918 382.47C538.65 378.472 546.578 377.263 550.936 376.899C552.138 382.884 551.595 389.267 548.132 395.746C533.078 423.917 491.131 394.741 491.131 394.741L494.5 388.316Z" fill="url(#paint10_linear_581_26500)"/>
<path d="M496.507 315.279L504.589 337.949C504.722 338.325 504.571 338.742 504.225 338.939C502.092 340.145 494.401 343.646 485.036 337.831C484.061 337.227 483.391 336.23 483.232 335.093L480.497 315.432L496.507 315.279Z" fill="url(#paint11_linear_581_26500)"/>
<path d="M479.189 294.382C479.189 294.382 470.708 310.72 471.877 317.278C473.047 323.834 483.746 323.261 493.041 317.839L499.404 300.224L479.189 294.382Z" fill="url(#paint12_linear_581_26500)"/>
<path d="M492.549 309.221C492.167 309.055 492.024 308.592 492.246 308.242C492.929 307.178 494.206 305.01 494.601 303.118C494.601 303.118 496.145 302.11 490.627 300.845C485.112 299.579 476.883 297.612 475.112 292.944C473.386 288.393 477.696 276.862 484.835 285.948C485.106 286.294 485.633 286.296 485.897 285.946C487.039 284.431 490.048 281.28 494.285 283.132C498.249 284.866 498.723 287.754 498.683 289.214C498.671 289.644 499.057 289.974 499.479 289.889C501.472 289.489 506.257 289.117 508.541 294.008C510.421 298.038 509.245 300.341 508.167 301.471C507.817 301.837 507.978 302.434 508.463 302.577C509.78 302.967 511.483 304.063 511.344 307.138C511.149 311.389 506.395 311.06 505.04 310.879C504.817 310.85 504.595 310.927 504.447 311.096C503.3 312.391 498.126 317.891 492.477 318.601C491.988 318.663 491.604 318.183 491.759 317.716L494.138 310.577C494.249 310.245 494.086 309.885 493.766 309.746L492.549 309.221Z" fill="url(#paint13_linear_581_26500)"/>
<path d="M491.576 310.239C491.576 310.239 497.684 305.962 498.168 309.511C498.651 313.059 492.68 314.71 489.702 313.414L491.576 310.239Z" fill="url(#paint14_linear_581_26500)"/>
<path d="M499.828 411.077L485.632 361.5C485.471 360.937 484.992 360.527 484.409 360.459C481.837 360.159 474.384 359.318 465.777 358.59C455.412 357.712 443.374 357.002 436.182 357.607C435.159 357.692 434.541 358.774 434.996 359.693C439.086 367.968 455.911 401.631 464.337 412.659C464.616 413.025 465.047 413.238 465.509 413.234L498.448 412.927C499.405 412.919 500.091 411.998 499.828 411.077Z" fill="url(#paint15_linear_581_26500)"/>
<path d="M496.398 399.099C496.398 399.099 498.376 390.968 497.578 388.082C496.78 385.197 495.235 381.488 490.083 382.311C484.931 383.135 478.855 385.305 478.855 385.305C478.855 385.305 479.161 389.062 483.078 387.851L480.649 389.731C480.649 389.731 480.997 392.74 484.303 391.133L482.045 393.625C482.045 393.625 483.465 396.096 485.898 394.512C488.333 392.925 489.498 400.078 496.398 399.099Z" fill="url(#paint16_linear_581_26500)"/>
<path d="M466.725 373.388C466.725 375.69 464.859 377.555 462.557 377.555C460.256 377.555 458.39 375.69 458.39 373.388C458.39 371.087 460.256 369.221 462.557 369.221C464.859 369.221 466.725 371.087 466.725 373.388Z" fill="#77D6BF"/>
<path d="M484.026 376.135L481.136 366.331C480.781 365.128 479.813 364.223 478.609 363.972C469.549 362.082 444.753 361.68 444.505 361.676L444.521 360.569C445.543 360.585 469.672 360.976 478.836 362.888C480.439 363.222 481.728 364.421 482.2 366.019L485.09 375.823L484.026 376.135Z" fill="#77D6BF"/>
<path d="M115.058 302.404C114.664 301.652 113.55 301.769 113.323 302.589C112.482 305.618 110.443 310.907 106.169 312.785C105.954 312.88 105.749 312.976 105.552 313.071C105.357 312.49 105.355 311.814 105.821 311.104C107.149 309.073 104.75 306.298 104.75 306.298C104.75 306.298 104.591 308.743 102.733 310.281C101.134 311.605 100.366 314.555 101.458 316.974C103.772 325.962 107.239 337.851 93.7389 346.536C80.241 355.22 61.2313 330.146 61.2313 330.146L70.6655 360.055C70.6655 360.055 85.2276 370.802 102.167 355.691C119.106 340.58 107.877 318.591 107.877 318.591C107.877 318.591 120.796 313.38 115.058 302.404Z" fill="url(#paint17_linear_581_26500)"/>
<path d="M58.8649 286.201C58.8649 286.201 62.7754 268.659 42.6817 273.304C42.6817 273.304 32.9273 271.71 32.432 280.916C32.432 280.916 26.1445 285.059 30.7473 293.025C30.7473 293.025 12.0619 285.809 3.92056 302.185C-4.22075 318.563 3.26215 327.574 11.1071 329.921C11.1071 329.921 4.752 333.111 7.75949 340.318C10.767 347.524 26.0033 352.602 35.0039 343.84C35.0039 343.84 60.6133 347.224 60.1001 329.135C60.1001 329.135 72.0107 321.443 59.5014 306.495C46.9921 291.545 58.8649 286.201 58.8649 286.201Z" fill="url(#paint18_linear_581_26500)"/>
<path d="M59.9693 326.86C55.9315 325.648 44.176 323.415 32.9934 333.734C31.0978 335.484 30.322 338.144 30.9983 340.634C34.0018 351.691 41.9263 384.362 34.9785 398.496C34.9785 398.496 47.2233 411.994 60.5819 401.116C60.5819 401.116 66.575 374.993 74.4259 363.526C79.8462 355.61 65.7834 333.796 62.2249 328.526C61.6859 327.727 60.8903 327.138 59.9693 326.86Z" fill="#2E3646"/>
<path d="M48.8223 304.892C48.8223 304.892 42.8511 321.783 42.4016 329.235C42.4016 329.235 49.0013 332.236 55.2192 327.17C55.2192 327.17 55.8716 310.299 56.8145 307.277L48.8223 304.892Z" fill="url(#paint19_linear_581_26500)"/>
<path d="M57.1159 281.863C57.1159 281.863 72.7341 303.721 63.3974 310.07C54.0607 316.419 42.9417 300.886 42.9417 300.886C42.9417 300.886 39.3176 288.922 43.1068 284.864C46.898 280.802 57.1159 281.863 57.1159 281.863Z" fill="url(#paint20_linear_581_26500)"/>
<path d="M49.8879 276.637C49.8879 276.637 57.0625 278.338 58.069 281.584C59.0755 284.83 47.8929 287.842 44.7601 287.989L42.2359 301.089C42.2359 301.089 34.7729 288.765 37.7286 281.648C40.6844 274.531 49.8879 276.637 49.8879 276.637Z" fill="url(#paint21_linear_581_26500)"/>
<path d="M45.9707 299.275C45.9707 299.275 39.8921 292.234 37.4734 296.824C35.0546 301.415 42.9453 304.86 45.6763 302.607L45.9707 299.275Z" fill="#2E3646"/>
<path d="M76.1751 455.963C76.1293 457.148 78.2119 466.555 79.3437 471.573C79.7992 473.592 79.4829 475.704 78.4546 477.501L39.212 543.55C38.7366 544.35 38.3925 545.215 38.1817 546.12C37.4616 549.219 35.9718 556.815 36.7495 563.725L38.7804 567.942L30.0006 565.949L28.0911 542.371L30.5774 540.855C32.7256 539.546 34.3965 537.589 35.3532 535.264C38.9017 526.645 47.7133 504.703 49.9848 494.01C52.5667 481.857 66.0606 471.987 66.0606 471.987L63.6896 466.382L76.1751 455.963Z" fill="#2E3646"/>
<path d="M20.2428 557.836C20.2428 557.836 24.9847 550.319 25.5416 547.393C26.0986 544.467 27.6521 539.299 30.576 540.855C30.576 540.855 31.9545 555.069 31.4791 560.622C31.0037 566.176 37.7566 565.997 37.7566 565.997C37.7566 565.997 39.6184 566.259 40.9809 567.622C41.9217 568.563 41.2494 570.196 39.9207 570.281C37.7108 570.424 34.2001 570.46 30.5143 569.748C29.2254 569.5 28.2707 568.404 28.1931 567.093L27.2204 550.735L21.2393 558.287L20.2428 557.836Z" fill="url(#paint22_linear_581_26500)"/>
<path d="M52.7333 466.483C52.7333 466.483 51.3489 525.563 51.1619 533.955C50.9749 542.347 52.4866 560.941 60.8984 566.498L57.2385 569.207C57.2385 569.207 52.6636 565.318 48.1961 557.838C43.1757 549.432 41.6581 547.896 41.6581 547.896L43.3249 544.485C44.0549 542.991 44.2677 541.302 43.9336 539.673C42.1175 530.876 36.0548 501.612 34.3999 495.311C32.4466 487.872 32.3094 477.938 39.1021 469.622C45.8928 461.309 52.7333 466.483 52.7333 466.483Z" fill="#2E3646"/>
<path d="M44.9645 571.872C44.7039 571.874 44.4812 571.688 44.4454 571.429C44.1649 569.46 42.9993 561.563 42.0465 559.518C40.9545 557.177 37.3861 547.321 42.0485 546.484C42.0485 546.484 53.6389 563.419 55.8647 565.702C58.0904 567.986 60.897 566.5 60.897 566.5C60.897 566.5 63.0652 567.141 64.7002 569.229C65.4779 570.224 64.7539 571.684 63.4908 571.695L55.6837 571.769C53.4161 571.791 51.3773 570.413 50.5339 568.308C49.1595 564.875 46.7984 559.841 44.0475 557.607L45.4777 571.296C45.5095 571.602 45.2708 571.869 44.9645 571.872Z" fill="url(#paint23_linear_581_26500)"/>
<path d="M62.43 394.747C62.43 394.747 60.6717 400.354 63.3728 409.591L80.1388 468.142C80.4014 469.063 79.9061 470.026 79.005 470.348C73.9906 472.148 57.5031 477.236 34.9966 475.685C33.8629 475.607 32.9141 474.803 32.6674 473.696C31.1836 467.02 26.1253 444.247 25.083 439.567C21.1128 421.737 16.6812 402.508 36.1801 390.88C45.1668 394.727 53.5488 396.997 62.43 394.747Z" fill="url(#paint24_linear_581_26500)"/>
<path d="M31.3947 335.942C31.3947 335.942 12.3174 351.795 7.58344 373.46C2.84943 395.123 35.4604 397.426 35.4604 397.426C35.4604 397.426 39.8881 392.483 45.1433 394.246C50.3984 396.008 45.551 385.617 39.4008 385.645C33.2505 385.673 36.1009 390.534 27.4007 386.594C18.9272 382.755 13.688 370.884 35.3093 352.889C36.5624 351.846 37.5629 350.516 38.1655 349C42.3645 338.426 39.0348 331.496 31.3947 335.942Z" fill="url(#paint25_linear_581_26500)"/>
<path d="M150.77 497.801H157.574V571.389H150.77V497.801Z" fill="#77D6BF"/>
<path d="M124.374 572.807H183.973V568.869C183.973 568.597 183.752 568.378 183.481 568.378H124.867C124.595 568.378 124.376 568.599 124.376 568.869V572.807H124.374Z" fill="#77D6BF"/>
<path d="M113.101 495.088C113.101 499.365 116.6 502.865 120.879 502.865H184.961C189.237 502.865 192.738 499.367 192.738 495.088V488.057C192.738 483.78 189.239 480.279 184.961 480.279H120.879C116.602 480.279 113.101 483.778 113.101 488.057V495.088Z" fill="#77D6BF"/>
<path d="M214.491 549.042C214.491 549.042 236.49 558.518 235.229 568.433C235.229 568.433 212.49 564.073 208.42 557.573C204.351 551.073 206.592 547.309 206.592 547.309L214.491 549.042Z" fill="url(#paint26_linear_581_26500)"/>
<path d="M209.102 538.211L207.986 547.866C207.817 549.322 208.627 550.76 210.007 551.258C210.698 551.506 211.605 551.677 212.794 551.683C214.473 551.691 215.959 550.589 216.406 548.97L218.57 541.161L209.102 538.211Z" fill="url(#paint27_linear_581_26500)"/>
<path d="M161.046 464.176C161.046 464.176 201.507 462.304 221.641 474.044C241.774 485.785 220.62 542.136 220.62 542.136C220.62 542.136 215.361 543.266 207.789 539.22C207.789 539.22 218.596 497.968 199.825 490.792C178.721 482.724 156.89 484.685 156.89 484.685L160.934 465.449L161.046 464.176Z" fill="url(#paint28_linear_581_26500)"/>
<path d="M230.808 564.081C226.207 563.073 212.564 557.42 210.491 557.496C208.419 557.571 205.483 560.676 205.483 560.676C205.483 560.676 204.978 562.373 206.46 564.809C209.974 567.55 217.547 572.583 226.352 573.134C232.829 573.539 236.725 570.962 238.953 568.463C237.002 566.566 233.871 564.752 230.808 564.081Z" fill="url(#paint29_linear_581_26500)"/>
<path d="M226.351 573.136C217.547 572.585 209.975 567.552 206.458 564.811C207.46 566.458 209.368 568.441 212.954 570.468C221.851 575.495 236.557 574.763 239.471 573.631C241.806 572.724 241.084 570.542 238.949 568.465C236.722 570.964 232.825 573.541 226.351 573.136Z" fill="#41B79B"/>
<path d="M200.652 555.624C200.953 556.764 204.177 560.185 206.039 562.094C206.924 563.001 208.209 563.389 209.448 563.121C210.234 562.95 211.121 562.681 211.887 562.265C213.038 561.641 213.438 560.177 212.808 559.029L208.095 550.46L200.652 555.624Z" fill="url(#paint30_linear_581_26500)"/>
<path d="M120.946 460.782C120.946 460.782 117.414 485.839 127.626 490.959C137.838 496.081 160.235 499.432 167.95 512.429C175.664 525.424 189.52 550.932 202.129 558.259C202.129 558.259 209.329 555.918 211.434 552.376C211.434 552.376 196.468 513.032 190.224 503.468C184.818 495.186 176.911 483.255 165.677 478.095C162.46 476.618 162.21 473.206 162.775 469.713L163.805 463.352L120.946 460.782Z" fill="url(#paint31_linear_581_26500)"/>
<path d="M215.59 432.378C201.272 436.466 194.866 396.173 194.923 395.194L172.974 420.86C172.974 420.86 186.052 443.873 205.802 446.324C210.798 446.944 215.049 446.079 218.613 444.446C215.986 440.142 215.387 435.893 215.59 432.378Z" fill="#2E3646"/>
<path d="M242.103 419.191C235.863 416.627 230.57 421.743 230.57 421.743C224.388 428.072 219.483 431.266 215.59 432.378C215.386 435.893 215.986 440.142 218.614 444.444C226.327 440.91 230.825 433.767 232.677 430.2C233.343 428.917 234.906 428.374 236.209 429.003C237.532 429.643 238.895 430.618 238.98 431.943C239.149 434.556 242.258 434.71 242.276 433.745C242.294 432.78 239.867 427.618 239.867 427.618C239.867 427.618 247.036 432.217 249.826 433.976C252.617 435.734 254.994 432.832 254.994 432.832C254.994 432.832 248.343 421.755 242.103 419.191Z" fill="url(#paint32_linear_581_26500)"/>
<path d="M126.462 378.616C126.462 378.616 145.7 365.49 192.165 389.227C192.165 389.227 196.951 395.294 194.709 402.13C192.467 408.969 164.879 445.978 163.807 463.35C163.807 463.35 144.948 474.451 120.466 463.446C120.466 463.448 112.258 417.572 126.462 378.616Z" fill="#2E3646"/>
<path d="M166.523 361.834L158.921 376.732C158.165 378.212 158.324 380.002 159.36 381.299C161.455 383.922 165.825 387.447 173.284 385.175C175.504 384.499 177.2 382.695 177.735 380.437L181.676 363.809L166.523 361.834Z" fill="url(#paint33_linear_581_26500)"/>
<path d="M112.214 430.638C110.911 421.582 134.842 404.03 134.842 404.03L126.46 378.616C126.46 378.616 80.7945 411.205 90.3978 437.817C91.7742 441.632 93.8269 444.41 96.3312 446.382C101.171 436.464 107.729 432.343 112.214 430.638Z" fill="#2E3646"/>
<path d="M145.6 433.15C145.6 433.15 118.529 440.711 112.913 432.47C112.533 431.911 112.309 431.294 112.213 430.636C107.726 432.341 101.168 436.462 96.3324 446.38C109.186 456.49 133.968 445.156 140.701 441.759C141.809 441.2 143.082 441.091 144.267 441.461C146.662 442.208 150.811 443.368 153.125 443.241C156.508 443.056 160.138 455.279 165.895 452.184C165.895 452.186 163.279 431.3 145.6 433.15Z" fill="url(#paint34_linear_581_26500)"/>
<path d="M176.27 337.487C176.51 337.696 186.539 355.212 191.645 364.141C193.205 366.866 192.037 370.337 189.151 371.574L186.939 372.521C183.918 373.816 177.419 374.9 174.861 372.835L158.74 355.817C158.738 355.819 170.848 332.793 176.27 337.487Z" fill="url(#paint35_linear_581_26500)"/>
<path d="M154.198 351.174C152.22 350.064 149.843 347.815 151.693 343.834C153.575 339.791 157.293 339.439 159.687 339.697C160.656 339.801 161.531 339.186 161.814 338.253C161.975 337.722 162.367 337.253 163.216 337.119C164.36 336.938 165.07 335.771 164.772 334.651C164.199 332.501 164.296 329.581 167.753 327.488C173.889 323.773 179.626 329.169 181.223 333.859C182.82 338.549 175.938 342.199 171.544 342.945C168.205 343.512 166.574 347.365 165.985 349.179C165.798 349.754 165.887 350.381 166.22 350.884L171.121 358.331C169.772 360.028 168.579 361.82 167.401 363.632C166.96 363.156 166.574 362.761 166.273 362.484C164.145 360.533 160.358 361.541 158.798 362.076C158.287 362.251 157.732 362.212 157.251 361.963C155.554 361.086 152.125 358.621 154.936 353.959C155.524 352.99 155.19 351.733 154.198 351.174Z" fill="url(#paint36_linear_581_26500)"/>
<path d="M169.184 366.82C169.184 366.82 166.051 358.766 162.488 359.216C158.926 359.666 156.261 363.343 160.859 367.162C166.576 371.91 169.184 366.82 169.184 366.82Z" fill="#2E3646"/>
<path d="M180.164 450.388C180.212 450.39 180.262 450.391 180.31 450.391L243.552 450.322C245.116 450.32 246.381 449.051 246.381 447.487C246.379 445.924 245.106 444.631 243.546 444.659L180.304 444.729C178.74 444.731 177.475 446 177.475 447.561C177.477 449.077 178.669 450.312 180.164 450.388Z" fill="url(#paint37_linear_581_26500)"/>
<path d="M300.404 392.967H247.735C243.85 392.967 240.314 395.208 238.655 398.723L214.306 450.354H279.759C282.263 450.354 284.513 448.824 285.432 446.495L304.314 398.719C305.406 395.958 303.373 392.967 300.404 392.967Z" fill="url(#paint38_linear_581_26500)"/>
<path d="M263.301 419.439C262.159 422.986 263.003 426.429 265.185 427.131C267.367 427.833 270.06 425.528 271.202 421.981C272.344 418.435 271.5 414.992 269.318 414.29C267.136 413.588 264.441 415.893 263.301 419.439Z" fill="#77D6BF"/>
<path d="M291.867 586.031C292.217 586.031 292.573 585.963 292.916 585.82C294.264 585.259 294.887 583.745 294.306 582.441L238.57 456.999C237.991 455.694 236.428 455.092 235.079 455.653C233.73 456.213 233.108 457.727 233.689 459.032L289.425 584.473C289.856 585.446 290.837 586.031 291.867 586.031Z" fill="#77D6BF"/>
<path d="M229.077 586.031C230.107 586.031 231.088 585.448 231.519 584.473L287.255 459.032C287.836 457.727 287.212 456.213 285.865 455.653C284.518 455.092 282.953 455.694 282.374 456.999L226.638 582.441C226.057 583.745 226.682 585.259 228.029 585.82C228.371 585.963 228.727 586.031 229.077 586.031Z" fill="#77D6BF"/>
<path d="M119.336 586.031C119.686 586.031 120.042 585.963 120.384 585.82C121.733 585.259 122.356 583.745 121.775 582.441L66.0387 456.999C65.4579 455.694 63.8964 455.092 62.5478 455.653C61.1992 456.213 60.5767 457.727 61.1575 459.032L116.893 584.473C117.327 585.446 118.306 586.031 119.336 586.031Z" fill="#77D6BF"/>
<path d="M56.5456 586.031C57.5759 586.031 58.5545 585.448 58.9882 584.473L114.724 459.032C115.305 457.727 114.68 456.213 113.334 455.653C111.987 455.092 110.422 455.694 109.843 456.999L54.107 582.441C53.5262 583.745 54.1507 585.259 55.4974 585.82C55.8395 585.963 56.1955 586.031 56.5456 586.031Z" fill="#77D6BF"/>
<path d="M50.0101 453.126C49.8689 452.303 50.0618 451.454 50.5372 450.807C51.0126 450.161 51.7227 449.787 52.4706 449.787H306.035C307.019 449.787 307.936 450.348 308.465 451.277C308.996 452.206 309.066 453.371 308.654 454.372L305.907 461.029C305.279 462.555 303.914 463.529 302.414 463.529H54.213C52.8167 463.529 51.6173 462.421 51.3527 460.888L50.0101 453.126Z" fill="#77D6BF"/>
<defs>
<linearGradient id="paint0_linear_581_26500" x1="366.324" y1="289.933" x2="182.574" y2="178.775" gradientUnits="userSpaceOnUse">
<stop stop-color="#09005D"/>
<stop offset="1" stop-color="#1A0F91"/>
</linearGradient>
<linearGradient id="paint1_linear_581_26500" x1="304.381" y1="289.887" x2="174.313" y2="182.001" gradientUnits="userSpaceOnUse">
<stop stop-color="#09005D"/>
<stop offset="1" stop-color="#1A0F91"/>
</linearGradient>
<linearGradient id="paint2_linear_581_26500" x1="452.92" y1="561.188" x2="559.349" y2="674.769" gradientUnits="userSpaceOnUse">
<stop stop-color="#09005D"/>
<stop offset="1" stop-color="#1A0F91"/>
</linearGradient>
<linearGradient id="paint3_linear_581_26500" x1="443.387" y1="431.679" x2="534.183" y2="552.325" gradientUnits="userSpaceOnUse">
<stop stop-color="#09005D"/>
<stop offset="1" stop-color="#1A0F91"/>
</linearGradient>
<linearGradient id="paint4_linear_581_26500" x1="476.344" y1="539.234" x2="582.778" y2="652.82" gradientUnits="userSpaceOnUse">
<stop stop-color="#09005D"/>
<stop offset="1" stop-color="#1A0F91"/>
</linearGradient>
<linearGradient id="paint5_linear_581_26500" x1="520.91" y1="568.571" x2="512.832" y2="568.648" gradientUnits="userSpaceOnUse">
<stop stop-color="#FEBBBA"/>
<stop offset="1" stop-color="#FF928E"/>
</linearGradient>
<linearGradient id="paint6_linear_581_26500" x1="459.254" y1="419.74" x2="550.048" y2="540.384" gradientUnits="userSpaceOnUse">
<stop stop-color="#09005D"/>
<stop offset="1" stop-color="#1A0F91"/>
</linearGradient>
<linearGradient id="paint7_linear_581_26500" x1="446.358" y1="325.621" x2="398.552" y2="326.075" gradientUnits="userSpaceOnUse">
<stop stop-color="#FEBBBA"/>
<stop offset="1" stop-color="#FF928E"/>
</linearGradient>
<linearGradient id="paint8_linear_581_26500" x1="409.125" y1="317.962" x2="441.897" y2="390.642" gradientUnits="userSpaceOnUse">
<stop stop-color="#FEBBBA"/>
<stop offset="1" stop-color="#FF928E"/>
</linearGradient>
<linearGradient id="paint9_linear_581_26500" x1="398.474" y1="293.754" x2="384.893" y2="273.302" gradientUnits="userSpaceOnUse">
<stop stop-color="#FEBBBA"/>
<stop offset="1" stop-color="#FF928E"/>
</linearGradient>
<linearGradient id="paint10_linear_581_26500" x1="551.61" y1="392.337" x2="491.113" y2="392.911" gradientUnits="userSpaceOnUse">
<stop stop-color="#FEBBBA"/>
<stop offset="1" stop-color="#FF928E"/>
</linearGradient>
<linearGradient id="paint11_linear_581_26500" x1="507.133" y1="358.93" x2="484.275" y2="314.559" gradientUnits="userSpaceOnUse">
<stop stop-color="#FEBBBA"/>
<stop offset="1" stop-color="#FF928E"/>
</linearGradient>
<linearGradient id="paint12_linear_581_26500" x1="474.784" y1="313.169" x2="500.931" y2="296.879" gradientUnits="userSpaceOnUse">
<stop stop-color="#FEBBBA"/>
<stop offset="1" stop-color="#FF928E"/>
</linearGradient>
<linearGradient id="paint13_linear_581_26500" x1="514.691" y1="279.839" x2="480.972" y2="306.995" gradientUnits="userSpaceOnUse">
<stop stop-color="#09005D"/>
<stop offset="1" stop-color="#1A0F91"/>
</linearGradient>
<linearGradient id="paint14_linear_581_26500" x1="481.751" y1="319.085" x2="505.275" y2="304.429" gradientUnits="userSpaceOnUse">
<stop stop-color="#FEBBBA"/>
<stop offset="1" stop-color="#FF928E"/>
</linearGradient>
<linearGradient id="paint15_linear_581_26500" x1="474.892" y1="353.897" x2="441.51" y2="492.989" gradientUnits="userSpaceOnUse">
<stop stop-color="#09005D"/>
<stop offset="1" stop-color="#1A0F91"/>
</linearGradient>
<linearGradient id="paint16_linear_581_26500" x1="497.768" y1="390.694" x2="478.855" y2="390.694" gradientUnits="userSpaceOnUse">
<stop stop-color="#FEBBBA"/>
<stop offset="1" stop-color="#FF928E"/>
</linearGradient>
<linearGradient id="paint17_linear_581_26500" x1="120.821" y1="281.347" x2="70.0746" y2="362.677" gradientUnits="userSpaceOnUse">
<stop stop-color="#FEBBBA"/>
<stop offset="1" stop-color="#FF928E"/>
</linearGradient>
<linearGradient id="paint18_linear_581_26500" x1="-20.0535" y1="273.862" x2="31.2043" y2="308.037" gradientUnits="userSpaceOnUse">
<stop stop-color="#09005D"/>
<stop offset="1" stop-color="#1A0F91"/>
</linearGradient>
<linearGradient id="paint19_linear_581_26500" x1="58.3216" y1="337.607" x2="48.8075" y2="316.477" gradientUnits="userSpaceOnUse">
<stop stop-color="#FEBBBA"/>
<stop offset="1" stop-color="#FF928E"/>
</linearGradient>
<linearGradient id="paint20_linear_581_26500" x1="58.8104" y1="286.258" x2="39.5022" y2="328.06" gradientUnits="userSpaceOnUse">
<stop stop-color="#FEBBBA"/>
<stop offset="1" stop-color="#FF928E"/>
</linearGradient>
<linearGradient id="paint21_linear_581_26500" x1="-6.27667" y1="253.202" x2="44.9824" y2="287.378" gradientUnits="userSpaceOnUse">
<stop stop-color="#09005D"/>
<stop offset="1" stop-color="#1A0F91"/>
</linearGradient>
<linearGradient id="paint22_linear_581_26500" x1="20.2212" y1="555.593" x2="41.2943" y2="555.393" gradientUnits="userSpaceOnUse">
<stop stop-color="#09005D"/>
<stop offset="1" stop-color="#1A0F91"/>
</linearGradient>
<linearGradient id="paint23_linear_581_26500" x1="39.7943" y1="559.213" x2="64.9154" y2="558.975" gradientUnits="userSpaceOnUse">
<stop stop-color="#09005D"/>
<stop offset="1" stop-color="#1A0F91"/>
</linearGradient>
<linearGradient id="paint24_linear_581_26500" x1="-35.0737" y1="371.249" x2="25.4328" y2="417.637" gradientUnits="userSpaceOnUse">
<stop stop-color="#09005D"/>
<stop offset="1" stop-color="#1A0F91"/>
</linearGradient>
<linearGradient id="paint25_linear_581_26500" x1="11.7413" y1="403.344" x2="113.344" y2="252.7" gradientUnits="userSpaceOnUse">
<stop stop-color="#FEBBBA"/>
<stop offset="1" stop-color="#FF928E"/>
</linearGradient>
<linearGradient id="paint26_linear_581_26500" x1="227.61" y1="531.68" x2="220.987" y2="557.34" gradientUnits="userSpaceOnUse">
<stop stop-color="#09005D"/>
<stop offset="1" stop-color="#1A0F91"/>
</linearGradient>
<linearGradient id="paint27_linear_581_26500" x1="207.339" y1="545.794" x2="219.022" y2="543.209" gradientUnits="userSpaceOnUse">
<stop stop-color="#FEBBBA"/>
<stop offset="1" stop-color="#FF928E"/>
</linearGradient>
<linearGradient id="paint28_linear_581_26500" x1="184.328" y1="518.459" x2="218.575" y2="437.884" gradientUnits="userSpaceOnUse">
<stop stop-color="#09005D"/>
<stop offset="1" stop-color="#1A0F91"/>
</linearGradient>
<linearGradient id="paint29_linear_581_26500" x1="225.966" y1="556.506" x2="197.074" y2="618.675" gradientUnits="userSpaceOnUse">
<stop stop-color="#09005D"/>
<stop offset="1" stop-color="#1A0F91"/>
</linearGradient>
<linearGradient id="paint30_linear_581_26500" x1="201.277" y1="558.446" x2="212.242" y2="556.019" gradientUnits="userSpaceOnUse">
<stop stop-color="#FEBBBA"/>
<stop offset="1" stop-color="#FF928E"/>
</linearGradient>
<linearGradient id="paint31_linear_581_26500" x1="174.107" y1="557.097" x2="156.251" y2="463.449" gradientUnits="userSpaceOnUse">
<stop stop-color="#09005D"/>
<stop offset="1" stop-color="#1A0F91"/>
</linearGradient>
<linearGradient id="paint32_linear_581_26500" x1="215.196" y1="434.297" x2="253.446" y2="425.831" gradientUnits="userSpaceOnUse">
<stop stop-color="#FEBBBA"/>
<stop offset="1" stop-color="#FF928E"/>
</linearGradient>
<linearGradient id="paint33_linear_581_26500" x1="157.799" y1="376.213" x2="183.177" y2="370.596" gradientUnits="userSpaceOnUse">
<stop stop-color="#FEBBBA"/>
<stop offset="1" stop-color="#FF928E"/>
</linearGradient>
<linearGradient id="paint34_linear_581_26500" x1="137.645" y1="439.65" x2="36.8574" y2="580.783" gradientUnits="userSpaceOnUse">
<stop stop-color="#FEBBBA"/>
<stop offset="1" stop-color="#FF928E"/>
</linearGradient>
<linearGradient id="paint35_linear_581_26500" x1="171.847" y1="343.686" x2="184.597" y2="403.496" gradientUnits="userSpaceOnUse">
<stop stop-color="#FEBBBA"/>
<stop offset="1" stop-color="#FF928E"/>
</linearGradient>
<linearGradient id="paint36_linear_581_26500" x1="154.216" y1="359.653" x2="179.62" y2="330.306" gradientUnits="userSpaceOnUse">
<stop stop-color="#09005D"/>
<stop offset="1" stop-color="#1A0F91"/>
</linearGradient>
<linearGradient id="paint37_linear_581_26500" x1="169.435" y1="433.583" x2="219.638" y2="450.049" gradientUnits="userSpaceOnUse">
<stop stop-color="#09005D"/>
<stop offset="1" stop-color="#1A0F91"/>
</linearGradient>
<linearGradient id="paint38_linear_581_26500" x1="238.399" y1="400.666" x2="274.554" y2="438.879" gradientUnits="userSpaceOnUse">
<stop stop-color="#09005D"/>
<stop offset="1" stop-color="#1A0F91"/>
</linearGradient>
</defs>
</svg>
