<svg width="555" height="458" viewBox="0 0 555 458" fill="none" xmlns="http://www.w3.org/2000/svg">
<path d="M444.111 447.29C469.051 447.29 486.102 444.61 502.692 424.768C509.482 416.66 514.492 406.728 515.261 396.18C516.733 376.206 501.901 363.726 498.078 345.751C494.057 326.788 502.319 311.231 508.01 293.784C514.426 274.14 513.437 251.551 503.989 233.028C489.992 205.561 446.001 199.452 440.705 168.668C439.167 159.769 439.629 150.54 437.409 141.772C431.037 116.657 402.428 102.33 378.147 109.647C365.82 113.361 353.603 116.876 341.166 119.953C325.828 123.732 306.382 123.996 291.22 119.206C261.358 109.757 236.858 85.1908 206.425 78.0714C183.045 72.622 157.776 78.445 137.912 92.7057C118.048 106.966 103.633 129.313 97.0633 153.902C90.4494 178.666 93.4158 214.46 68.9813 229.82C50.304 241.576 28.792 252.848 14.9488 268.954C4.68718 280.908 -1.37748 295.52 1.06157 314.967C3.30285 332.919 10.0487 351.069 21.0574 365.483C31.6046 379.305 45.9313 390.929 51.6883 407.848C55.9291 420.307 55.8632 435.974 66.7401 443.401C77.3093 450.608 95.1736 447.312 107.193 447.312C123.234 447.312 139.274 447.312 155.315 447.312C187.396 447.312 219.477 447.312 251.558 447.29C315.787 447.29 379.949 447.29 444.111 447.29Z" fill="#DEF5F0"/>
<path d="M417.301 338.968C414.275 338.968 411.176 338.773 407.981 338.358L408.175 336.893C420.762 338.504 432.212 336.844 441.266 332.06C453.418 325.639 460.268 313.897 460.559 298.957C460.777 287.068 458.041 276.986 452.643 269.785C449.956 266.22 446.494 263.145 443.13 260.166C438.022 255.65 432.745 250.963 430.155 244.518C427.468 237.829 427.807 228.064 433.641 222.377C436.594 219.496 439.547 215.859 439.111 210.805C438.53 204.238 433.955 197.208 427.419 192.862C418.584 186.979 407.449 184.904 397.717 183.659C390.77 182.78 383.338 180.778 381.063 172.698C380.167 169.525 380.071 166.205 379.998 163.007C379.974 162.006 379.95 160.956 379.901 159.955C379.49 152.07 378.884 142.745 377.48 133.273C376.149 124.289 370.581 114.549 362.254 106.566C361.213 105.59 360.148 104.613 359.01 103.71C340.976 88.9894 306.191 82.6667 285.107 97.143C278.014 102.001 273.269 109.251 271.72 117.576C270.607 123.606 268.791 125.021 263.103 126.804C261.335 127.365 259.52 127.878 257.753 128.39C249.232 130.856 240.421 133.419 233.957 139.449C228.075 144.942 225.073 153.315 225.896 161.908C226.598 169.158 230.375 173.87 234.345 178.826C236.136 181.071 238 183.415 239.67 186.076C245.577 195.499 240.517 206.924 234.417 213.857C232.747 215.761 230.835 217.494 228.971 219.179C225.243 222.547 221.733 225.721 219.966 230.115C217.085 237.268 220.111 245.153 222.144 249.23C222.604 250.157 223.113 251.061 223.597 251.964C224.42 253.453 225.267 255.015 225.969 256.627C229.382 264.487 229.019 274.081 225.025 281.649L223.742 280.965C227.518 273.764 227.857 264.683 224.638 257.212C223.96 255.674 223.137 254.137 222.338 252.672C221.854 251.769 221.321 250.841 220.861 249.889C218.707 245.592 215.536 237.268 218.634 229.554C220.523 224.842 224.347 221.4 228.027 218.056C229.842 216.396 231.755 214.687 233.352 212.856C239.113 206.313 243.931 195.572 238.46 186.833C236.838 184.245 234.998 181.95 233.231 179.729C229.116 174.578 225.219 169.72 224.468 162.03C223.573 152.998 226.768 144.161 232.989 138.35C239.694 132.101 248.675 129.489 257.366 126.974C259.133 126.462 260.948 125.925 262.691 125.388C267.871 123.776 269.3 122.751 270.316 117.283C271.938 108.592 276.901 101 284.308 95.9224C294.208 89.1359 307.91 86.2797 322.918 87.9397C336.982 89.4776 350.465 94.8239 359.955 102.562C361.092 103.49 362.206 104.491 363.271 105.492C371.84 113.694 377.529 123.752 378.933 133.053C380.361 142.574 380.966 151.948 381.378 159.882C381.426 160.907 381.45 161.957 381.475 162.982C381.547 166.082 381.644 169.305 382.491 172.308C384.549 179.533 391.133 181.34 397.935 182.219C407.836 183.488 419.165 185.588 428.242 191.642C435.117 196.231 439.959 203.701 440.564 210.683C441.072 216.396 437.659 220.497 434.657 223.426C429.283 228.675 428.993 237.732 431.486 243.981C433.955 250.133 438.869 254.478 444.074 259.092C447.487 262.119 451.021 265.244 453.781 268.93C459.372 276.376 462.205 286.775 461.987 299.006C461.842 306.476 460.099 313.238 456.807 319.072C453.345 325.175 448.334 330.009 441.919 333.378C434.899 337.064 426.524 338.968 417.301 338.968Z" fill="#755846"/>
<path d="M136.55 252.452C132.386 250.499 127.957 249.181 123.478 248.229C120.38 247.57 116.337 247.008 114.086 249.864C113.674 250.377 113.529 251.158 113.917 251.671C114.086 251.891 114.304 252.062 114.546 252.208C118.976 254.942 124.834 255.259 128.489 258.97C127.424 257.896 124.543 257.334 123.115 256.846C121.203 256.187 119.242 255.626 117.281 255.137C114.086 254.356 110.552 253.526 107.235 254.429C106.34 254.674 105.468 255.211 105.033 256.065C104.379 257.359 104.936 258.994 105.952 259.995C106.969 260.996 108.373 261.533 109.705 262.022C110.77 262.412 111.835 262.803 112.9 263.193C110.818 262.632 107.937 261.948 105.831 262.583C104.04 263.12 102.515 265.073 103.144 266.855C103.701 268.466 105.371 268.906 106.727 269.614C108.809 270.737 111.157 271.396 113.142 272.665C111.907 271.908 109.85 272.909 108.688 273.788C107.55 274.667 106.921 276.132 106.945 277.596C106.945 278.182 107.066 278.793 107.405 279.281C107.816 279.891 108.543 280.257 109.22 280.575C113.674 282.699 118.104 284.798 122.558 286.922C129.457 290.193 136.526 292.732 143.159 296.613C145.507 297.98 148.073 299.348 150.179 301.081C153.664 303.961 158.869 306.427 161.217 310.455C163.202 313.873 167.777 321.489 171.335 323.174C176.346 325.542 176.153 324.394 179.057 320.757C182.737 316.143 177.411 306.183 175.765 300.934C174.676 297.468 176.855 292.976 176.613 289.363C176.395 285.994 175.789 282.65 174.87 279.403C174.168 276.962 172.933 274.74 171.577 272.592C170.367 270.639 168.794 269.492 167.365 267.758C164.63 264.414 163.347 260.093 161.653 256.187C160.442 253.38 159.159 250.182 155.674 249.864C153.737 249.694 151.752 250.597 150.59 252.184C149.21 254.088 150.106 255.137 150.905 257.066C151.486 258.433 152.236 261.973 153.35 262.852C148.242 258.726 142.578 255.284 136.55 252.452Z" fill="#F9AE8F"/>
<path d="M141.66 265.659C140.619 264.731 139.481 263.901 138.343 263.12C137.181 262.339 135.995 261.631 134.761 260.972C133.526 260.337 132.267 259.727 130.96 259.214C130.307 258.97 129.653 258.726 128.999 258.506C128.346 258.311 127.668 258.091 126.99 257.921C127.62 258.189 128.273 258.458 128.903 258.751C129.532 259.019 130.161 259.312 130.791 259.605C132.049 260.191 133.284 260.801 134.494 261.436C135.729 262.071 136.915 262.754 138.101 263.462C139.312 264.17 140.473 264.902 141.66 265.659Z" fill="#F58F70"/>
<path d="M136.648 271.371C134.736 270.126 132.703 269.077 130.621 268.173C128.515 267.27 126.36 266.538 124.182 265.879C121.979 265.268 119.776 264.707 117.549 264.243C116.436 264.023 115.322 263.804 114.209 263.584C113.095 263.389 111.981 263.193 110.844 263.022L117.476 264.609C119.679 265.146 121.882 265.683 124.061 266.342C126.239 266.953 128.394 267.685 130.5 268.491C132.557 269.345 134.639 270.297 136.648 271.371Z" fill="#F58F70"/>
<path d="M132.047 279.574C131.684 279.305 131.345 279.037 130.982 278.793L129.869 278.06L128.707 277.401L127.521 276.791C125.923 276.01 124.277 275.399 122.582 274.862C120.888 274.35 119.193 273.91 117.451 273.544C116.579 273.373 115.732 273.202 114.86 273.031C113.989 272.885 113.118 272.738 112.246 272.616C113.093 272.86 113.941 273.056 114.812 273.275L117.378 273.91C119.072 274.35 120.767 274.813 122.437 275.326C124.108 275.839 125.754 276.449 127.351 277.133C128.973 277.84 130.547 278.646 132.047 279.574Z" fill="#F58F70"/>
<path d="M412.46 339.676C395.806 345.608 375.714 345.022 360.56 335.209C345.673 325.566 332.093 318.609 313.744 318.95C297.356 319.243 283.824 328.178 267.945 330.082C255.357 331.596 242.576 326.054 233.45 317.193C224.542 308.526 218.635 295.32 222.508 283.48C224.542 277.279 228.971 272.153 231.489 266.147C237.323 252.281 221.976 243.908 225.776 229.31C229.02 216.884 242.527 208.047 242.334 195.206C242.188 185.807 234.975 178.533 232.433 169.842C229.867 161.078 230.448 151.24 234.951 143.233C238.267 137.35 243.617 132.516 249.789 129.855C255.333 127.463 261.554 127.414 265.839 122.532C273.488 113.816 276.296 104.345 286.802 97.9731C295.686 92.578 307.426 92.2362 317.642 93.1639C340.299 95.2633 362.303 107.323 375.06 126.535C379.587 133.346 382.855 140.303 382.952 148.408C383.073 157.245 383.073 166.156 388.447 173.675C392.949 179.997 400.211 183.684 407.377 186.54C414.566 189.396 422.094 191.691 428.388 196.183C434.706 200.674 439.693 207.998 438.967 215.736C438.362 222.23 433.907 227.869 433.302 234.338C432.213 246.129 443.493 254.698 450.441 264.268C460.172 277.645 461.77 296.565 454.459 311.407C446.035 328.52 430.712 332.377 414.663 338.797C414.009 339.115 413.235 339.408 412.46 339.676Z" fill="#755846"/>
<path d="M371.551 261.314C372.132 275.814 368.815 286.702 355.671 293.879C345.189 299.592 332.65 301.471 321.103 301.74C301.714 302.228 280.121 297.175 265.621 283.455C262.983 280.965 260.465 277.914 260.271 274.276C260.102 270.981 261.893 267.856 262.063 264.56C262.329 258.994 258.044 254.381 256.108 249.132C253.566 242.223 255.285 234.509 257.584 227.503C259.86 220.497 262.716 213.442 262.377 206.069C261.942 196.524 256.253 188.175 251.678 179.802C247.127 171.429 243.544 161.224 247.417 152.509C249.983 146.773 256.108 142.354 262.353 141.646C268.962 140.914 274.892 148.506 279.129 152.705C284.817 158.344 291.159 163.324 297.986 167.498C307.427 173.284 317.787 177.532 326.647 184.147C332.021 188.151 337.782 193.644 340.348 200.015C343.229 207.192 338.169 214.15 344.294 220.765C348.239 225.037 354.291 226.478 359.084 229.773C369.299 236.853 371.067 249.864 371.551 261.314Z" fill="#5E4130"/>
<path d="M295.469 118.674C300.504 115.721 306.338 114.354 312.147 114.134C317.981 113.914 323.815 114.671 329.455 116.087C340.808 118.967 351.121 125.778 358.334 135.128C361.893 139.84 364.652 145.186 366.274 150.898C367.92 156.635 368.259 162.616 368.186 168.475C368.138 174.358 367.702 180.193 367.896 185.978C368.017 188.859 368.38 191.715 369.227 194.4C370.075 197.061 371.551 199.527 373.73 201.138C375.884 202.798 378.668 203.482 381.452 203.823C384.26 204.165 387.189 204.165 390.118 204.58C395.903 205.361 401.81 206.753 406.845 210.097C409.314 211.757 411.565 214.101 412.63 217.03C413.744 219.96 413.526 223.182 412.776 226.112C411.904 229.065 410.234 231.555 409.072 234.143C407.91 236.731 407.16 239.538 406.918 242.37C406.385 248.082 407.837 253.819 409.847 259.239C411.832 264.707 414.204 270.102 415.584 275.839C416.261 278.695 416.673 281.649 416.625 284.627C416.6 287.581 416.044 290.535 415.099 293.318C413.187 298.884 409.605 303.839 404.957 307.33C409.532 303.717 412.969 298.713 414.712 293.196C416.552 287.654 416.31 281.649 414.785 276.059C413.332 270.444 410.912 265.122 408.854 259.629C406.748 254.185 405.15 248.278 405.635 242.272C405.852 239.294 406.603 236.34 407.789 233.582C408.999 230.848 410.621 228.406 411.372 225.721C412.049 223.011 412.219 220.131 411.226 217.567C410.258 215.004 408.273 212.905 405.973 211.367C401.277 208.266 395.516 206.899 389.9 206.167C387.068 205.801 384.187 205.801 381.234 205.459C378.329 205.117 375.231 204.385 372.713 202.481C370.196 200.601 368.55 197.794 367.654 194.913C366.734 192.008 366.395 189.005 366.274 186.052C366.105 180.144 366.54 174.285 366.637 168.475C366.734 162.665 366.419 156.83 364.846 151.289C363.272 145.747 360.658 140.523 357.269 135.885C350.37 126.657 340.324 119.846 329.213 116.844C323.67 115.306 317.884 114.427 312.123 114.524C306.386 114.622 300.576 115.843 295.469 118.674Z" fill="#8E6751"/>
<path d="M334.489 278.915C325.775 288.899 309.048 289.68 297.332 285.603C289.368 282.82 283.727 276.473 283.558 267.783C283.364 258.042 291.837 251.109 293.991 242.028C295.201 236.877 295.08 231.58 294.959 226.331C294.814 220.228 294.766 214.101 294.475 207.998C300.479 206.728 305.344 206.069 311.711 206.338C316.988 206.557 322.241 205.996 327.518 206.313C327.953 206.338 328.413 206.387 328.704 206.655C328.994 206.948 329.067 207.387 329.091 207.802C329.793 216.054 329.115 224.403 329.648 232.678C330.156 240.27 331.851 247.936 336.256 254.21C341.655 261.899 340.323 272.226 334.489 278.915Z" fill="#F9AE8F"/>
<path d="M218.513 384.301C217.423 382.08 216.334 379.883 215.293 377.686C209.532 365.602 203.02 353.908 197.259 341.824C193.386 333.72 189.682 325.566 185.833 317.461C182.565 310.577 180.387 302.301 175.545 296.369C174.359 294.929 172.907 293.513 171.067 293.269C168.501 292.903 166.25 294.856 164.386 296.662C162.014 298.957 159.472 301.618 159.303 304.938C159.254 306.158 159.52 307.355 159.787 308.551C162.546 320.659 164.846 333.012 167.944 345.071C171.551 359.328 175.691 373.438 180.556 387.304C183.292 395.067 186.414 402.683 189.319 410.398C192.272 418.332 195.129 427.12 201.253 433.247C206.458 438.471 214.059 440.278 220.764 436.86C226.235 434.077 230.907 428.389 231.439 422.115C231.754 418.502 231.004 414.865 229.963 411.374C227.203 402.073 222.822 393.09 218.513 384.301Z" fill="#F9AE8F"/>
<path d="M248.944 391.551C251.558 383.276 254.1 374.976 257.15 366.871C265.526 344.583 277.798 323.271 280.316 299.567C281.405 289.314 280.364 278.207 274.167 270.004C266.784 260.191 251.776 259.824 243.062 269.052C232.991 279.72 227.69 291.682 223.962 305.719C218.976 324.467 215.248 338.358 207.671 362.404C204.04 373.877 200.99 384.179 197.746 395.799C194.672 406.809 191.622 418.966 196.076 430.049C199.368 438.276 207.671 444.94 216.385 443.891C225.608 442.792 231.926 434.077 236.09 425.704C241.488 414.792 245.264 403.196 248.944 391.551Z" fill="#4F4F4F"/>
<mask id="mask0_674_2055" style="mask-type:luminance" maskUnits="userSpaceOnUse" x="193" y="262" width="88" height="182">
<path d="M248.944 391.552C251.558 383.276 254.1 374.976 257.15 366.871C265.526 344.583 277.798 323.271 280.316 299.567C281.405 289.314 280.364 278.207 274.167 270.004C266.784 260.191 251.776 259.824 243.062 269.052C232.991 279.72 227.69 291.682 223.962 305.719C218.976 324.467 215.248 338.358 207.671 362.404C204.04 373.877 200.99 384.179 197.746 395.799C194.672 406.809 191.622 418.966 196.076 430.049C199.368 438.276 207.671 444.941 216.385 443.891C225.608 442.792 231.926 434.077 236.09 425.704C241.488 414.792 245.264 403.196 248.944 391.552Z" fill="white"/>
</mask>
<g mask="url(#mask0_674_2055)">
<g opacity="0.5">
<path d="M237.419 374.219C238.363 386.181 239.597 398.167 240.227 410.129C240.493 415.329 242.309 422.97 241.074 427.974C242.744 421.212 245.334 411.838 246.714 406.785C249.474 396.727 253.783 385.4 255.743 375.025C257.68 364.747 259.883 346.975 260.44 336.38C260.682 331.693 261.166 326.445 260.585 321.831C259.907 316.46 258.019 310.894 256.639 305.719C255.525 301.496 254.315 297.272 253.081 293.098C252.064 289.68 247.44 285.433 248.869 281.136C244.971 292.805 241.074 304.572 238.726 316.949C235.119 336.039 235.894 355.129 237.419 374.219Z" fill="#4F4F4F"/>
</g>
</g>
<path d="M418.609 315.63C425.023 329.399 430.978 343.387 436.134 357.668C439.717 367.555 443.76 377.319 446.253 387.548C448.335 396.141 452.982 407.444 447.366 415.182C442.307 422.115 430.325 424.142 422.554 421.066C413.452 417.453 406.311 409.763 401.034 401.658C395.733 393.529 391.787 384.521 388.18 375.513C382.419 361.134 375.811 346.951 368.379 333.378C360.415 318.828 353.516 302.472 353.758 285.555C353.928 273.69 362.327 262.559 374.867 262.852C382.564 263.022 389.342 266.66 394.426 272.275C400.09 278.548 403.842 286.287 407.764 293.733C411.564 300.934 415.171 308.233 418.609 315.63Z" fill="#4F4F4F"/>
<path d="M294.33 240.807C295.274 236.023 295.177 231.116 295.056 226.282C294.911 220.179 294.863 214.052 294.572 207.949C300.575 206.68 305.441 206.02 311.807 206.289C317.085 206.509 322.338 205.947 327.615 206.264C328.05 206.289 328.51 206.338 328.801 206.606C329.091 206.899 329.164 207.339 329.188 207.754C329.89 216.005 329.212 224.354 329.745 232.629C329.914 234.997 330.205 237.365 330.64 239.709C329.817 240.441 328.97 241.149 328.099 241.784C321.587 246.642 312.824 248.253 305.03 246.032C301.108 244.884 297.55 243.078 294.33 240.807Z" fill="#F58F70"/>
<path d="M248.121 373.414C248.678 382.861 248.073 392.43 246.959 401.78C245.967 410.276 244.563 418.82 245.507 427.315C245.821 430.171 246.427 433.076 248 435.469C253.834 444.306 270.706 442.548 279.881 442.768C290.12 442.988 300.287 441.914 310.502 441.914C334.056 441.914 357.367 441.352 380.848 440.449C383.123 440.351 385.617 440.18 387.214 438.545C388.691 437.031 388.957 434.736 389.078 432.637C389.756 420.577 388.449 408.396 385.253 396.751C382.542 386.889 380.727 377.368 380.073 367.164C379.153 352.907 379.323 338.553 380.557 324.321C381.671 311.554 385.544 299.25 385.496 286.458C385.471 278.866 388.425 267.124 382.712 264.292C375.208 260.581 360.49 256.456 352.574 253.722C345.239 251.183 337.759 248.986 330.062 247.96C318.975 246.496 307.67 247.252 296.753 249.547C286.755 251.647 277.048 254.869 267.487 258.433C263.977 259.751 258.53 260.606 252.527 263.047C248.557 264.658 248.412 271.616 246.79 275.473C241.343 288.411 240.811 302.424 239.746 316.436C238.608 331.278 242.166 342.386 245.604 356.398C247.008 361.989 247.782 367.677 248.121 373.414Z" fill="#2E3646"/>
<mask id="mask1_674_2055" style="mask-type:luminance" maskUnits="userSpaceOnUse" x="239" y="247" width="151" height="196">
<path d="M248.119 373.413C248.676 382.861 248.071 392.43 246.957 401.78C245.965 410.275 244.561 418.82 245.505 427.315C245.819 430.171 246.425 433.076 247.998 435.469C253.832 444.306 270.704 442.548 279.879 442.768C290.118 442.987 300.285 441.913 310.5 441.913C334.054 441.913 357.365 441.352 380.846 440.449C383.121 440.351 385.615 440.18 387.212 438.545C388.689 437.031 388.955 434.736 389.076 432.637C389.754 420.577 388.447 408.396 385.252 396.751C382.54 386.889 380.725 377.368 380.071 367.164C379.151 352.907 379.321 338.553 380.555 324.321C381.669 311.553 385.542 299.25 385.494 286.458C385.469 278.866 388.423 267.124 382.71 264.292C375.206 260.581 360.488 256.455 352.572 253.721C345.237 251.182 337.757 248.985 330.06 247.96C318.973 246.495 307.668 247.252 296.751 249.547C286.753 251.646 277.046 254.869 267.485 258.433C263.975 259.751 258.528 260.606 252.525 263.047C248.555 264.658 248.41 271.615 246.788 275.472C241.341 288.411 240.809 302.423 239.744 316.436C238.606 331.278 242.164 342.386 245.602 356.398C247.006 361.988 247.78 367.677 248.119 373.413Z" fill="white"/>
</mask>
<g mask="url(#mask1_674_2055)">
<path d="M304.91 196.109C308.88 195.523 312.753 195.499 316.093 195.596C326.236 195.865 336.476 198.892 344.464 205.508C350.879 210.805 357.657 218.617 357.778 230.091C357.85 237.024 354.849 243.175 352.016 249.474C342.358 270.956 327.18 287.776 309.122 285.848C286.101 283.406 271.843 250.231 280.703 219.056C282.3 213.393 284.794 207.754 288.57 203.823C293.121 199.087 299.1 196.988 304.91 196.109Z" fill="#F9AE8F"/>
</g>
<mask id="mask2_674_2055" style="mask-type:luminance" maskUnits="userSpaceOnUse" x="239" y="247" width="151" height="196">
<path d="M248.119 373.413C248.676 382.861 248.071 392.43 246.957 401.78C245.965 410.275 244.561 418.82 245.505 427.315C245.819 430.171 246.425 433.076 247.998 435.469C253.832 444.306 270.704 442.548 279.879 442.768C290.118 442.987 300.285 441.913 310.5 441.913C334.054 441.913 357.365 441.352 380.846 440.449C383.121 440.351 385.615 440.18 387.212 438.545C388.689 437.031 388.955 434.736 389.076 432.637C389.754 420.577 388.447 408.396 385.252 396.751C382.54 386.889 380.725 377.368 380.071 367.164C379.151 352.907 379.321 338.553 380.555 324.321C381.669 311.553 385.542 299.25 385.494 286.458C385.469 278.866 388.423 267.124 382.71 264.292C375.206 260.581 360.488 256.455 352.572 253.721C345.237 251.182 337.757 248.985 330.06 247.96C318.973 246.495 307.668 247.252 296.751 249.547C286.753 251.646 277.046 254.869 267.485 258.433C263.975 259.751 258.528 260.606 252.525 263.047C248.555 264.658 248.41 271.615 246.788 275.472C241.341 288.411 240.809 302.423 239.744 316.436C238.606 331.278 242.164 342.386 245.602 356.398C247.006 361.988 247.78 367.677 248.119 373.413Z" fill="white"/>
</mask>
<g mask="url(#mask2_674_2055)">
<path opacity="0.5" d="M434.15 390.746C428.8 384.814 420.885 383.935 413.332 383.276C396.581 381.811 379.176 384.887 362.498 386.864C346.182 388.793 329.286 391.088 313.479 395.824C311.155 396.532 308.855 397.557 307.693 399.632C307.088 400.706 306.894 401.902 306.87 403.147C305.176 403.269 303.457 403.245 301.932 402.512C292.201 397.801 281.719 394.749 271.044 393.553C269.398 393.358 267.727 393.236 266.106 393.553C264.29 393.895 262.62 394.798 260.974 395.702C251.702 400.73 240.785 407.078 235.193 416.671C234.056 418.624 233.16 420.773 233.015 423.043C232.966 423.702 233.015 424.386 233.281 424.972C233.886 426.217 235.508 426.632 236.815 426.265C238.122 425.899 239.187 424.947 240.204 424.019C239.502 424.996 239.986 426.558 241.003 427.193C243.496 428.731 246.014 425.826 247.829 424.41C246.885 425.557 247.878 427.462 249.258 427.901C250.637 428.34 252.114 427.803 253.47 427.291C259.473 424.947 266.227 421.041 272.641 420.431C275.086 420.187 277.919 422.091 280.073 423.092C282.833 424.386 285.592 425.289 288.255 426.68C291.16 428.218 294.452 429.122 297.72 428.511C301.569 427.803 304.934 425.118 308.613 424.019C308.758 425.289 309.024 426.558 309.726 427.584C311.615 430.318 315.294 430.171 318.272 430.196C323.016 430.22 327.761 430.196 332.505 430.074C343.858 429.781 355.599 429.024 367.073 428.511C376.296 428.096 385.882 428.218 395.25 428.145C404.666 428.072 414.591 427.169 423.669 424.019C430.616 421.603 437.055 417.599 438.992 410.471C440.88 403.562 438.846 395.946 434.15 390.746Z" fill="#2E3646"/>
</g>
<path d="M253.178 176.628C241.825 188.395 252.113 217.177 270.22 213.002C289.658 208.535 286.729 177.971 269.155 172.942C262.28 170.989 256.833 172.845 253.178 176.628Z" fill="white"/>
<path d="M342.673 175.969C342.625 167.327 341.439 159.125 339.236 152.339C329.722 122.971 293.412 115.721 271.553 136.813C247.177 160.321 256.496 216.493 282.18 236.243C289.055 241.516 298.374 243.371 306.726 241.125C331.949 234.29 342.843 202.969 342.673 175.969Z" fill="#F9AE8F"/>
<mask id="mask3_674_2055" style="mask-type:luminance" maskUnits="userSpaceOnUse" x="257" y="124" width="86" height="119">
<path d="M342.671 175.969C342.623 167.327 341.437 159.125 339.234 152.338C329.72 122.971 293.41 115.72 271.551 136.812C247.175 160.321 256.494 216.493 282.178 236.242C289.053 241.515 298.372 243.371 306.724 241.125C331.947 234.29 342.841 202.969 342.671 175.969Z" fill="white"/>
</mask>
<g mask="url(#mask3_674_2055)">
<path d="M343.784 152.436C334.707 120.09 295.54 110.594 270.849 132.565C265.402 137.423 261.335 141.036 258.527 148.213C259.036 149.067 259.592 149.922 260.27 150.776C263.393 154.731 267.193 157.978 271.647 160.272C284.647 166.986 299.364 170.843 313.598 174.114C314.639 174.358 315.704 174.602 316.745 174.846C320.667 175.798 324.54 177.019 327.904 179.216C337.418 185.392 332.722 200.308 339.645 206.191C340.274 206.728 340.904 207.07 341.557 207.339C344.583 197.94 346.205 187.882 346.544 178.288C346.834 168.89 345.89 159.931 343.784 152.436Z" fill="#F58F70"/>
<path d="M261.89 207.159C265.72 206.05 267.933 202.02 266.833 198.158C265.734 194.296 261.738 192.065 257.908 193.174C254.079 194.283 251.866 198.312 252.966 202.174C254.065 206.036 258.061 208.268 261.89 207.159Z" fill="#FB806D"/>
<path d="M289.752 184.025C289.558 185.417 289.243 186.759 288.856 188.078C288.662 188.737 288.469 189.396 288.226 190.031L287.863 190.983L287.476 191.935C286.919 193.155 286.363 194.4 285.636 195.548C285.322 196.134 284.91 196.671 284.571 197.256L283.385 198.917C282.949 199.502 282.562 200.162 282.247 200.869C281.957 201.577 281.739 202.407 281.836 203.286C281.836 203.506 281.908 203.726 281.957 203.921C282.029 204.141 282.102 204.336 282.199 204.531C282.417 204.922 282.683 205.264 282.998 205.557C283.627 206.118 284.353 206.46 285.08 206.655C286.532 207.07 288.009 207.021 289.413 206.728C290.115 206.557 290.792 206.338 291.422 205.972C292.051 205.63 292.632 205.166 292.995 204.556C292.487 205.044 291.882 205.337 291.252 205.557C290.623 205.752 289.969 205.874 289.292 205.923C287.984 206.02 286.629 205.874 285.467 205.435C284.886 205.215 284.353 204.897 283.99 204.507C283.603 204.116 283.385 203.652 283.385 203.14C283.361 202.627 283.506 202.066 283.748 201.504C284.014 200.943 284.329 200.406 284.716 199.893L285.322 199.039C285.515 198.746 285.733 198.453 285.927 198.16L286.484 197.256L286.75 196.793L286.992 196.329L287.476 195.377L287.912 194.4C288.202 193.766 288.444 193.082 288.662 192.399C289.122 191.056 289.413 189.664 289.63 188.273C289.824 186.833 289.921 185.417 289.752 184.025Z" fill="#F58F70"/>
<path d="M314.566 189.419C315.695 187.539 315.098 185.092 313.234 183.954C311.37 182.816 308.944 183.418 307.815 185.298C306.686 187.178 307.283 189.624 309.147 190.763C311.011 191.901 313.438 191.299 314.566 189.419Z" fill="#242A30"/>
<path d="M303.936 187.711C305.097 186.466 306.308 185.417 307.663 184.733C309.019 184.05 310.471 183.683 311.924 183.683C313.376 183.683 314.853 184.025 316.184 184.709C317.516 185.392 318.702 186.418 319.646 187.858C319.501 186.125 318.484 184.465 317.032 183.366C315.579 182.243 313.739 181.633 311.9 181.657C310.06 181.657 308.22 182.292 306.792 183.39C305.364 184.489 304.371 186.076 303.936 187.711Z" fill="#242A30"/>
<path d="M276.629 187.43C277.312 185.343 276.188 183.093 274.118 182.404C272.049 181.716 269.818 182.849 269.135 184.936C268.452 187.023 269.576 189.273 271.645 189.961C273.715 190.65 275.946 189.517 276.629 187.43Z" fill="#242A30"/>
<path d="M265.666 186.515C266.828 185.27 268.038 184.221 269.394 183.537C270.749 182.853 272.202 182.487 273.654 182.487C275.107 182.487 276.583 182.829 277.915 183.513C279.246 184.196 280.432 185.221 281.376 186.662C281.231 184.928 280.214 183.268 278.762 182.17C277.31 181.047 275.47 180.437 273.63 180.461C271.79 180.461 269.951 181.096 268.522 182.194C267.094 183.293 266.102 184.855 265.666 186.515Z" fill="#242A30"/>
<path d="M269.754 173.031C274.771 171.162 278.214 167.946 277.446 165.846C276.677 163.747 271.987 163.559 266.97 165.427C261.954 167.296 258.51 170.512 259.279 172.611C260.047 174.711 264.737 174.899 269.754 173.031Z" fill="#5E4130"/>
<path d="M330.363 175.223C330.906 173.053 326.765 170.128 321.113 168.689C315.461 167.25 310.439 167.842 309.896 170.012C309.353 172.182 313.494 175.108 319.145 176.547C324.797 177.986 329.819 177.393 330.363 175.223Z" fill="#5E4130"/>
<path d="M323.22 209.522C327.73 208.952 331.04 205.703 330.612 202.265C330.185 198.827 326.182 196.502 321.672 197.073C317.162 197.643 313.852 200.892 314.28 204.33C314.707 207.768 318.71 210.093 323.22 209.522Z" fill="#FB806D"/>
<path d="M305.95 214.174C301.399 221.62 287.746 227.454 280.121 213.808C280.121 213.808 286.149 216.884 291.426 216.566C300.14 216.054 305.95 214.174 305.95 214.174Z" fill="white"/>
</g>
<path d="M337.902 176.702C349.085 170.55 352.523 186.149 350.586 193.912C349.787 197.11 348.529 200.235 346.568 202.896C343.905 206.46 336.304 212.343 331.923 208.462C329.938 206.704 329.72 203.701 329.671 201.04C329.502 193.839 330.325 180.876 337.902 176.702Z" fill="#F8A17A"/>
<path d="M317.546 170.11C321.201 171.502 326.454 174.871 328.754 177.995C335.289 186.955 331.223 199.087 337.202 205.532C342.479 211.245 350.516 203.701 352.622 198.428C356.495 188.712 356.277 177.898 355.986 167.425C355.817 161.591 355.647 155.658 353.953 150.068C352.113 143.965 348.506 138.546 344.198 133.859C331.804 120.359 313.092 113.352 294.961 114.5C280.8 115.403 255.939 127.414 267.05 145.601C269.592 149.751 273.513 152.827 277.507 155.561C289.199 163.519 302.126 164.251 317.546 170.11Z" fill="#755846"/>
<path d="M351.896 174.358L344.053 173.87C346.353 151.923 340.011 123.166 321.396 112.742C314.424 108.836 283.56 102.489 272.014 114.793C270.44 116.575 269.375 118.088 269.375 118.088C275.814 96.3862 310.72 99.1203 326.77 106.419C351.17 117.503 354.196 151.02 351.896 174.358Z" fill="#FAC9C8"/>
<path d="M342.598 172.259C326.815 176.335 320.739 206.289 338.338 212.27C357.244 218.69 370.557 191.056 358.139 177.532C353.274 172.259 347.658 170.94 342.598 172.259Z" fill="white"/>
<path d="M347.755 176.116C336.862 177.873 330.156 201.211 341.388 207.632C353.444 214.54 364.748 193.766 357.656 181.804C354.896 177.117 351.265 175.53 347.755 176.116Z" fill="#FAC9C8"/>
<path d="M316.577 426.851C311.905 427.34 307.936 431.026 303.264 431.905C299.923 432.539 296.51 431.661 293.508 430.171C290.749 428.804 287.892 427.925 285.06 426.68C282.833 425.704 279.904 423.824 277.386 424.093C270.802 424.801 263.903 428.755 257.73 431.172C256.351 431.709 254.825 432.271 253.421 431.831C251.993 431.416 250.977 429.512 251.921 428.365C250.081 429.781 247.539 432.735 244.949 431.221C243.884 430.611 243.376 429.048 244.078 428.048C243.037 428.975 241.947 429.952 240.616 430.342C239.285 430.733 237.614 430.318 236.961 429.073C236.67 428.487 236.622 427.803 236.646 427.144C236.767 424.874 237.663 422.701 238.8 420.748C244.416 411.081 255.6 404.612 265.065 399.485C266.735 398.582 268.454 397.655 270.318 397.288C271.988 396.947 273.707 397.069 275.401 397.24C286.391 398.314 297.236 401.219 307.282 405.833C309.461 406.834 312.002 406.418 314.302 406.223C315.996 406.077 317.764 405.955 319.337 406.589C321.104 407.322 322.363 408.909 323.307 410.569C325.05 413.62 326.236 417.55 325.631 421.115C325.171 423.824 324.687 426.729 321.443 426.973C320.136 427.071 318.829 426.803 317.521 426.803C317.231 426.803 316.916 426.803 316.577 426.851Z" fill="#F9AE8F"/>
<path d="M319.118 398.997C316.745 399.73 314.373 400.779 313.211 402.879C312.17 404.734 312.364 406.98 312.558 409.08C313.139 414.792 313.72 420.504 314.301 426.241C314.47 427.852 314.664 429.561 315.608 430.855C317.593 433.565 321.369 433.369 324.419 433.345C329.309 433.321 334.199 433.247 339.064 433.052C350.756 432.613 362.811 431.734 374.624 431.075C384.113 430.538 393.99 430.562 403.6 430.367C413.307 430.171 423.498 429.171 432.794 425.899C439.91 423.409 446.495 419.308 448.407 412.18C450.271 405.247 448.068 397.655 443.178 392.504C437.611 386.645 429.453 385.839 421.658 385.278C404.399 384.008 386.51 387.304 369.371 389.477C352.693 391.601 335.336 394.091 319.118 398.997Z" fill="#4F4F4F"/>
<path d="M189.467 308.722C188.232 306.549 186.707 304.449 184.407 303.766C182.374 303.156 180.244 303.839 178.259 304.498C172.861 306.329 167.463 308.185 162.064 310.015C160.539 310.528 158.942 311.09 157.877 312.335C155.698 314.873 156.715 318.56 157.417 321.562C158.53 326.371 159.692 331.156 160.951 335.917C163.953 347.317 167.463 358.986 170.73 370.459C173.345 379.663 175.499 389.379 177.823 398.802C180.147 408.298 183.366 418.112 188.595 426.534C192.589 432.979 197.987 438.569 205.322 438.862C212.439 439.155 219.314 435.322 223.211 429.366C227.641 422.604 226.6 414.401 225.438 406.589C222.848 389.354 215.707 372.461 209.825 356.105C204.039 340.091 197.794 323.588 189.467 308.722Z" fill="#4F4F4F"/>
<g opacity="0.5">
<path d="M379.83 355.641C377.845 350.735 376.368 345.657 375.11 340.506C374.819 339.212 374.48 337.943 374.214 336.625L373.415 332.743C373.173 331.449 372.979 330.131 372.737 328.837C372.616 328.178 372.544 327.519 372.447 326.884L372.181 324.907L371.914 322.929L371.721 320.952L371.527 318.975L371.43 317.998L371.382 317.51L371.358 317.022C371.212 314.385 370.97 311.749 370.97 309.088C370.801 303.79 371.091 298.493 371.6 293.244C371.672 298.542 371.721 303.79 372.108 309.039C372.253 311.675 372.495 314.288 372.737 316.9C372.858 318.218 373.028 319.512 373.173 320.83L373.391 322.783L373.657 324.736C374.311 329.96 375.207 335.135 376.223 340.286C377.24 345.413 378.426 350.564 379.83 355.641Z" fill="#F37B83"/>
</g>
<path d="M43.4507 83.5648H26.8828C19.8293 83.5648 14.0723 89.3218 14.0723 96.3753C14.0723 100.726 16.2696 104.593 19.6315 106.923V115.932L28.8604 109.186H43.4727C50.5261 109.186 56.2832 103.429 56.2832 96.3753C56.2612 89.3218 50.5042 83.5648 43.4507 83.5648Z" fill="#6FCF97"/>
<path d="M27.8294 96.3856C27.8358 95.3179 26.9756 94.4471 25.9079 94.4406C24.8402 94.4342 23.9694 95.2944 23.9629 96.3621C23.9564 97.4298 24.8167 98.3006 25.8844 98.3071C26.9521 98.3136 27.8229 97.4533 27.8294 96.3856Z" fill="white"/>
<path d="M35.1656 98.3081C36.2333 98.3081 37.0989 97.4426 37.0989 96.3749C37.0989 95.3072 36.2333 94.4417 35.1656 94.4417C34.098 94.4417 33.2324 95.3072 33.2324 96.3749C33.2324 97.4426 34.098 98.3081 35.1656 98.3081Z" fill="white"/>
<path d="M46.3859 96.4109C46.4057 95.3434 45.5564 94.462 44.4889 94.4422C43.4214 94.4224 42.54 95.2717 42.5202 96.3392C42.5004 97.4067 43.3497 98.2881 44.4172 98.3079C45.4847 98.3277 46.3661 97.4784 46.3859 96.4109Z" fill="white"/>
<path d="M204.491 7.49291C201.942 3.12021 195.482 0.922866 189.241 8.21803C183.001 0.922866 176.563 3.12021 173.992 7.49291C167.685 18.2599 189.241 30.9385 189.241 30.9385C189.241 30.9385 210.797 18.2599 204.491 7.49291Z" fill="#6FCF97"/>
<path d="M424.709 74.0944H391.793C390.343 74.0944 389.156 72.9078 389.156 71.4576V51.242C389.156 49.7918 390.343 48.6052 391.793 48.6052H424.709C426.159 48.6052 427.346 49.7918 427.346 51.242V71.4576C427.346 72.9078 426.159 74.0944 424.709 74.0944Z" fill="#6FCF97"/>
<path d="M408.252 66.7772C407.505 66.7772 406.758 66.5135 406.187 65.9642L389.465 49.7478L390.08 49.1106L406.802 65.327C407.593 66.0961 408.911 66.0961 409.702 65.327L426.424 49.1106L427.039 49.7478L410.318 65.9642C409.746 66.5135 408.999 66.7772 408.252 66.7772Z" fill="white"/>
<path d="M403.196 62.407L389.484 72.9437L390.02 73.6406L403.732 63.1039L403.196 62.407Z" fill="white"/>
<path d="M413.283 62.3987L412.748 63.0957L426.461 73.6306L426.997 72.9336L413.283 62.3987Z" fill="white"/>
<path d="M100.162 194.223H61.3126C59.8623 194.223 58.6758 193.036 58.6758 191.586V166.207C58.6758 164.757 59.8623 163.57 61.3126 163.57H100.162C101.612 163.57 102.798 164.757 102.798 166.207V191.586C102.798 193.036 101.634 194.223 100.162 194.223Z" fill="#6FCF97"/>
<path d="M80.7385 203.891L88.4732 193.476H73.0039L80.7385 203.891Z" fill="#6FCF97"/>
<path d="M82.8031 174.249C81.5506 172.096 78.3865 171.019 75.3322 174.601C72.2779 171.019 69.1137 172.096 67.8612 174.249C64.7849 179.523 75.3322 185.741 75.3322 185.741C75.3322 185.741 85.9014 179.523 82.8031 174.249Z" fill="white"/>
<path d="M92.3634 182.841H90.4517V177.611L90.4737 176.754L90.4957 175.809C90.1881 176.117 89.9683 176.337 89.8365 176.424L88.8037 177.259L87.8809 176.117L90.7813 173.81H92.3415V182.841H92.3634Z" fill="white"/>
<path d="M330.82 30.6309H291.971C290.521 30.6309 289.334 29.4444 289.334 27.9941V2.63681C289.334 1.18656 290.521 0 291.971 0H330.82C332.27 0 333.457 1.18656 333.457 2.63681V28.0161C333.457 29.4663 332.292 30.6309 330.82 30.6309Z" fill="#6FCF97"/>
<path d="M311.393 40.3212L319.127 29.8838H303.658L311.393 40.3212Z" fill="#6FCF97"/>
<path d="M323.018 19.2487H321.106V14.019L321.128 13.162L321.15 12.2172C320.842 12.5248 320.623 12.7445 320.491 12.8324L319.458 13.6674L318.535 12.5248L321.436 10.2176H322.996V19.2487H323.018Z" fill="white"/>
<path d="M308.866 9.90997H302.604C299.945 9.90997 297.77 12.0853 297.77 14.7441C297.77 16.3921 298.605 17.8424 299.857 18.7213V22.1272L303.351 19.5783H308.866C311.525 19.5783 313.7 17.4029 313.7 14.7441C313.7 12.1073 311.525 9.90997 308.866 9.90997Z" fill="white"/>
<path d="M268.069 74.1115C274.797 67.3839 274.797 56.4764 268.069 49.7488C261.342 43.0213 250.434 43.0213 243.707 49.7488C236.979 56.4764 236.979 67.3839 243.707 74.1115C250.434 80.839 261.342 80.839 268.069 74.1115Z" fill="#FFC73C"/>
<path d="M267.909 62.3826C267.909 69.0185 262.526 74.3801 255.912 74.3801C249.276 74.3801 243.914 68.9966 243.914 62.3826H267.909Z" fill="white"/>
<path d="M252.968 50.9783C252.067 49.4402 249.782 48.6491 247.584 51.242C245.387 48.6711 243.102 49.4402 242.201 50.9783C239.982 54.8017 247.584 59.2843 247.584 59.2843C247.584 59.2843 255.187 54.8017 252.968 50.9783Z" fill="#EA394A"/>
<path d="M269.624 50.9783C268.723 49.4402 266.438 48.6491 264.241 51.242C262.043 48.6711 259.758 49.4402 258.857 50.9783C256.638 54.8017 264.241 59.2843 264.241 59.2843C264.241 59.2843 271.843 54.8017 269.624 50.9783Z" fill="#EA394A"/>
<path d="M498.54 128.885C505.268 122.157 505.268 111.25 498.54 104.522C491.812 97.7945 480.905 97.7945 474.177 104.522C467.45 111.25 467.45 122.157 474.177 128.885C480.905 135.612 491.812 135.612 498.54 128.885Z" fill="#FFC73C"/>
<path d="M490.65 107.142C491.112 106.857 491.639 106.769 492.145 106.747C492.65 106.725 493.177 106.813 493.661 107.011C494.144 107.186 494.606 107.472 494.979 107.845C495.353 108.219 495.638 108.68 495.748 109.23C495.243 109.032 494.825 108.878 494.408 108.702L493.199 108.241C492.804 108.087 492.386 107.933 491.969 107.78C491.573 107.582 491.134 107.406 490.65 107.142Z" fill="#0B2D4E"/>
<path d="M481.51 107.164C481.027 107.428 480.61 107.604 480.17 107.78C479.753 107.955 479.335 108.087 478.94 108.241L477.731 108.68C477.314 108.834 476.896 109.01 476.391 109.186C476.479 108.637 476.786 108.175 477.16 107.802C477.533 107.428 477.995 107.164 478.478 106.967C478.962 106.791 479.489 106.703 479.994 106.725C480.522 106.769 481.049 106.879 481.51 107.164Z" fill="#0B2D4E"/>
<path d="M477.27 120.48C477.775 125.051 481.664 128.588 486.366 128.588C491.069 128.588 494.936 125.029 495.464 120.48H477.27Z" fill="#0B2D4E"/>
<path d="M480.082 126.105C481.73 127.643 483.927 128.61 486.366 128.61C488.696 128.61 490.827 127.731 492.431 126.303L492.343 126.105C486.235 123.117 480.17 126.061 480.082 126.105Z" fill="#EA394A"/>
<path d="M492.232 114.81C493.106 114.81 493.814 113.935 493.814 112.855C493.814 111.775 493.106 110.9 492.232 110.9C491.359 110.9 490.65 111.775 490.65 112.855C490.65 113.935 491.359 114.81 492.232 114.81Z" fill="#0B2D4E"/>
<path d="M479.927 114.81C480.801 114.81 481.509 113.935 481.509 112.855C481.509 111.775 480.801 110.9 479.927 110.9C479.054 110.9 478.346 111.775 478.346 112.855C478.346 113.935 479.054 114.81 479.927 114.81Z" fill="#0B2D4E"/>
<path d="M285.082 430.098H201.803V442.315H285.082V430.098Z" fill="#D7E2E3"/>
<path d="M214.768 430.867L193.739 323.856C193.19 321.022 190.707 319 187.828 319H48.0995C46.0779 319 43.9685 319.747 42.3864 321.483L38.0137 325.922L42.4963 327.833L63.1952 433.196C63.7445 436.03 66.2275 438.052 69.106 438.052H208.835C212.658 438.052 215.493 434.602 214.768 430.867Z" fill="#D7E2E3"/>
<path d="M64.0531 442.293H203.782C207.583 442.293 210.418 438.821 209.693 435.107L188.664 328.097C188.115 325.262 185.632 323.241 182.753 323.241H43.0245C39.2231 323.241 36.3886 326.713 37.1137 330.426L58.1422 437.437C58.6916 440.271 61.1746 442.293 64.0531 442.293Z" fill="white"/>
<path d="M108.001 380.108C109.298 387.337 116.197 393.182 123.405 393.182C130.634 393.182 135.336 387.337 133.952 380.108C132.568 372.879 125.668 367.034 118.548 367.034C111.429 367.056 106.705 372.901 108.001 380.108Z" fill="#D7E2E3"/>
<path d="M484.321 357.452C484.277 357.43 484.233 357.408 484.211 357.408C484.584 357.561 481.948 359.319 481.662 359.385C480.761 359.627 479.223 359.693 478.454 359.012C477.575 358.221 477.333 356.111 476.982 354.991C476.454 353.255 475.927 351.519 475.443 349.783C473.554 343.147 471.972 336.401 470.697 329.611C466.478 307.067 465.863 283.028 474.872 261.933C473.949 285.489 477.97 308.912 482.277 332.094C482.519 333.347 482.848 334.753 483.969 335.368C487.529 310.209 497.241 286.39 503.767 261.823C504.47 279.644 505.042 297.684 501.328 315.131C498.252 329.655 492.209 343.696 491.967 358.55C491.945 359.561 491.945 360.616 491.572 361.561C491.198 362.505 490.341 363.34 489.309 363.34C487.924 363.34 487.001 361.956 486.496 360.682C485.991 359.451 485.485 358.045 484.321 357.452Z" fill="#71B167"/>
<path d="M551.582 319.811C548.33 324.206 544.77 328.359 541.298 332.578C534.992 340.29 529.037 348.333 521.808 355.188C517.106 359.649 511.92 363.56 506.756 367.449C505.921 368.087 505.042 368.724 504.01 368.944C499.132 369.932 500.867 362.681 501.988 360.44C503.131 358.133 504.845 356.177 506.537 354.221C513.326 346.377 520.116 338.466 527.873 331.589C535.651 324.711 544.507 318.844 554.417 315.746C553.516 317.13 552.549 318.471 551.582 319.811Z" fill="#71B167"/>
<path d="M520.928 349.277C516.972 357.43 512.028 365.076 505.964 371.888C505.063 372.899 504.096 373.91 502.822 374.327C501.547 374.745 499.899 374.327 499.372 373.097C498.91 371.998 499.262 370.328 498.141 369.888C497.702 369.713 497.196 369.844 496.735 369.888C495.043 370.02 493.373 368.658 493.153 366.966C493.329 368.328 489.198 368.153 488.561 367.845C486.935 367.032 486.385 364.417 485.726 362.791C483.946 358.462 482.408 354.046 481.134 349.563C478.563 340.576 477.025 331.303 476.541 321.986C475.465 301.441 479.75 280.259 491.066 263.076C490.033 281.182 489 299.376 490.516 317.46C491.286 326.491 492.692 335.456 494.076 344.421C494.933 349.827 495.768 355.254 496.625 360.66C511.743 339.323 521.587 314.779 533.628 291.553C533.321 311.329 529.497 331.567 520.928 349.277Z" fill="#8CC783"/>
<path d="M492.934 387.555C492.516 387.555 492.077 387.533 491.659 387.489C487.198 387.116 482.87 385.643 479.068 383.27C475.245 380.897 472.718 377.535 469.62 374.437C463.028 367.801 458.062 358.814 454.304 350.332C446.877 333.676 443.823 315.175 444.592 297.003C455.93 318.141 464.258 340.884 476.959 361.231C480.738 367.296 484.913 373.119 489.066 378.941C489.725 379.842 490.429 380.809 491.439 381.249C493.263 382.018 495.746 381.051 497.108 382.501C498.207 383.666 497.592 385.731 496.273 386.654C495.329 387.357 494.142 387.555 492.934 387.555Z" fill="#8CC783"/>
<path d="M488.76 356.265C493.045 326.403 505.416 298.365 518.116 270.986C518.292 302.672 513.634 334.401 504.405 364.703C518.863 352.617 535.695 341.521 554.548 340.949C535.739 354.573 518.006 369.669 501.57 386.083C499.812 387.841 496.956 389.642 495.176 387.929C494.715 387.489 494.451 386.896 494.033 386.412C492.891 385.138 491.001 385.006 489.441 384.655C487.595 384.215 486.672 383.6 485.574 382.062C482.695 377.997 480.146 373.624 477.773 369.251C472.983 360.462 469.028 351.211 465.951 341.675C459.799 322.624 457.14 302.408 458.327 282.412C458.524 279.204 458.81 276.018 459.184 272.832C468.522 300.804 478.388 328.622 488.76 356.265Z" fill="#ABE1A3"/>
<mask id="mask4_674_2055" style="mask-type:luminance" maskUnits="userSpaceOnUse" x="458" y="270" width="97" height="119">
<path d="M488.756 356.265C493.041 326.403 505.412 298.365 518.112 270.986C518.288 302.672 513.63 334.401 504.401 364.703C518.859 352.617 535.691 341.521 554.544 340.949C535.735 354.573 518.003 369.669 501.566 386.083C499.809 387.841 496.952 389.642 495.172 387.929C494.711 387.489 494.447 386.896 494.03 386.412C492.887 385.138 490.997 385.006 489.437 384.655C487.591 384.215 486.668 383.6 485.57 382.062C482.691 377.997 480.142 373.624 477.769 369.251C472.979 360.462 469.024 351.211 465.948 341.675C459.795 322.624 457.136 302.408 458.323 282.412C458.521 279.204 458.806 276.018 459.18 272.832C468.518 300.804 478.384 328.622 488.756 356.265Z" fill="white"/>
</mask>
<g mask="url(#mask4_674_2055)">
<path opacity="0.5" d="M488.647 400.146C481.682 400.3 475.133 400.519 468.454 398.366C466.827 397.839 465.553 396.344 464.015 395.487C462.301 394.521 460.719 393.334 459.357 391.928C456.72 389.247 454.852 385.775 454.456 381.996C454.127 378.832 455.291 375.799 458.258 374.371C461.993 372.569 464.235 374.525 467.531 375.711C475.727 378.656 486.977 375.645 494.404 371.888C502.402 367.823 507.346 361.539 512.884 354.727C521.3 344.377 533.385 337.082 546.481 334.467C549.579 333.852 552.787 333.479 555.908 334.006C559.028 334.533 562.082 336.005 563.994 338.51C565.906 341.015 566.499 344.267 566.631 347.41C566.828 352.112 566.059 356.858 564.411 361.253C562.456 366.439 559.314 371.119 555.776 375.382C548.81 383.798 540.087 390.939 529.891 394.85C523.167 397.443 515.96 398.564 508.775 399.201C502.073 399.816 495.371 399.992 488.647 400.146Z" fill="#ABE1A3"/>
</g>
<path d="M478.082 391.291C476.456 391.357 474.786 390.895 473.314 390.148C467.601 387.226 464.195 381.183 460.965 375.909C457.559 370.306 454.416 364.549 450.725 359.122C443.671 348.75 434.706 339.851 425.697 331.127C432.575 332.534 438.969 335.808 444.616 339.983C450.263 344.136 455.208 349.19 459.866 354.419C464.81 359.957 469.468 365.758 474.105 371.58C476.785 374.942 479.444 378.304 482.081 381.666C482.828 382.633 483.619 383.622 483.905 384.808C484.52 387.226 482.828 389.818 480.543 390.785C479.752 391.093 478.917 391.269 478.082 391.291Z" fill="#ABE1A3"/>
<mask id="mask5_674_2055" style="mask-type:luminance" maskUnits="userSpaceOnUse" x="425" y="331" width="60" height="61">
<path d="M478.08 391.291C476.454 391.357 474.784 390.895 473.312 390.148C467.599 387.226 464.193 381.183 460.963 375.909C457.557 370.306 454.415 364.549 450.723 359.122C443.67 348.75 434.704 339.851 425.695 331.127C432.573 332.534 438.967 335.808 444.614 339.983C450.262 344.136 455.206 349.19 459.864 354.419C464.808 359.957 469.466 365.758 474.103 371.58C476.783 374.942 479.442 378.304 482.079 381.666C482.826 382.633 483.617 383.622 483.903 384.808C484.518 387.226 482.826 389.818 480.541 390.785C479.75 391.093 478.915 391.269 478.08 391.291Z" fill="white"/>
</mask>
<g mask="url(#mask5_674_2055)">
<path opacity="0.5" d="M474.52 366.307C480.804 359.561 484.781 350.706 485.638 341.521C489.747 350.816 493.483 361.121 490.89 370.943C489.945 374.525 488.187 377.821 486.122 380.897C483.024 385.512 479.178 389.643 474.674 392.917C469.4 396.74 463.006 399.377 456.48 399.135C449.954 398.893 443.384 395.4 440.483 389.555C439.077 386.698 439.143 383.446 441.428 381.095C444.306 378.107 447.097 379.183 450.591 379.161C459.336 379.095 468.851 372.393 474.52 366.307Z" fill="#ABE1A3"/>
</g>
<path d="M518.181 380.524H457.469V396.652H518.181V380.524Z" fill="#828282"/>
<path d="M488.189 396.652H463.205C463.205 396.652 465.051 440.379 475.093 440.379C485.135 440.379 488.189 440.379 488.189 440.379C488.189 440.379 491.243 440.379 501.285 440.379C511.327 440.379 513.173 396.652 513.173 396.652H488.189Z" fill="#828282"/>
<mask id="mask6_674_2055" style="mask-type:luminance" maskUnits="userSpaceOnUse" x="463" y="396" width="51" height="45">
<path d="M488.193 396.652H463.209C463.209 396.652 465.055 440.379 475.097 440.379C485.138 440.379 488.193 440.379 488.193 440.379C488.193 440.379 491.247 440.379 501.289 440.379C511.331 440.379 513.176 396.652 513.176 396.652H488.193Z" fill="white"/>
</mask>
<g mask="url(#mask6_674_2055)">
<g opacity="0.5">
<path d="M521.503 396.696H454.154V401.684H521.503V396.696Z" fill="#828282"/>
<path d="M505.109 416.89C511.02 409.638 514.733 400.366 517.568 391.313C522.578 401.706 525.72 413.835 521.919 424.734C519.436 431.81 514.294 437.567 509.042 442.906C503.725 448.29 497.858 453.607 490.563 455.651C481.729 458.112 472.369 455.343 463.799 452.091C457.932 449.872 451.736 447.213 447.561 442.313C444.353 438.533 442.397 430.843 447.956 427.986C450.835 426.514 454.307 427.613 457.427 428.536C470.699 432.447 485.992 432.117 497.352 424.207C500.297 422.097 502.868 419.636 505.109 416.89Z" fill="#828282"/>
<path d="M495.728 417.483C496.256 416.296 496.695 415 496.453 413.725C496.102 411.99 494.41 410.693 492.652 410.671C490.894 410.649 489.224 411.836 488.521 413.44C487.378 411.418 484.851 410.276 482.588 410.759C479.38 411.418 479.754 415.395 480.918 417.571C482.72 420.955 485.335 423.987 488.279 426.426C491.487 423.833 493.992 421.328 495.728 417.483Z" fill="#FFCBC5"/>
</g>
</g>
<g opacity="0.5">
<path d="M303.734 381.359C305.14 378.436 304.899 375.36 303.998 372.591C303.141 369.735 301.603 367.296 299.955 364.615C298.285 361.978 296.571 359.1 295.538 355.628C294.483 352.112 294.791 348.179 295.758 344.861C297.867 338.071 302.174 333.083 305.14 327.963C306.634 325.371 307.843 322.756 308.326 319.833C308.876 316.955 308.678 313.879 307.272 311C309.733 313.153 310.919 316.625 311.073 319.987C311.227 323.393 310.37 326.843 309.052 329.875C306.481 336.028 302.613 341.038 301.097 346.443C300.24 349.124 300.042 351.717 300.636 354.31C301.141 356.968 302.525 359.649 303.778 362.572C305.096 365.406 306.371 368.702 306.656 372.086C306.986 375.426 306.217 379.183 303.734 381.359Z" fill="white"/>
</g>
<path d="M315.313 439.919H294.789C289.933 439.919 286 435.986 286 431.129V385.359H324.102V431.129C324.102 435.986 320.169 439.919 315.313 439.919Z" fill="#FFC73C"/>
<path d="M326.761 397.708C317.62 397.708 310.215 405.223 310.215 414.495C310.215 423.768 317.62 431.283 326.761 431.283C335.902 431.283 343.307 423.768 343.307 414.495C343.285 405.223 335.88 397.708 326.761 397.708ZM326.761 425.284C320.894 425.284 316.126 420.45 316.126 414.495C316.126 408.541 320.894 403.707 326.761 403.707C332.628 403.707 337.396 408.541 337.396 414.495C337.396 420.45 332.628 425.284 326.761 425.284Z" fill="#FFC73C"/>
<path opacity="0.2" d="M291.692 419.22C290.55 419.22 289.627 418.297 289.627 417.154V390.61C289.627 389.468 290.55 388.545 291.692 388.545C292.835 388.545 293.758 389.468 293.758 390.61V417.154C293.758 418.275 292.835 419.22 291.692 419.22Z" fill="white"/>
<path d="M315.291 385.359V430.272C315.291 435.59 310.962 439.919 305.645 439.919H314.434C319.751 439.919 324.08 435.59 324.08 430.272V385.359H315.291Z" fill="#FFC73C"/>
<path d="M539.667 458H33.3331C28.1705 458 24 453.747 24 448.5C24 443.253 28.1908 439 33.3331 439H539.667C544.829 439 549 443.253 549 448.5C549 453.747 544.829 458 539.667 458Z" fill="#494F5F"/>
<path d="M106.753 129.577H196.69C201.656 129.577 205.699 125.512 205.699 120.568V73.0176C205.699 68.0736 201.634 64.0085 196.69 64.0085H106.753C101.809 64.0085 97.7441 68.0736 97.7441 73.0176V120.546C97.7441 125.512 101.809 129.577 106.753 129.577Z" fill="#6FCF97"/>
<path d="M191.504 146.826V116.701L167.904 129.577L191.504 146.826Z" fill="#6FCF97"/>
<path d="M165.663 99.7373H116.157C115.059 99.7373 114.18 98.8584 114.18 97.7597V96.0018C114.18 94.9032 115.059 94.0242 116.157 94.0242H165.641C166.74 94.0242 167.619 94.9032 167.619 96.0018V97.7597C167.641 98.8584 166.74 99.7373 165.663 99.7373Z" fill="white"/>
<path d="M187.285 99.7373H173.728C172.651 99.7373 171.75 98.8584 171.75 97.7597V96.0018C171.75 94.9032 172.651 94.0242 173.728 94.0242H187.285C188.384 94.0242 189.263 94.9032 189.263 96.0018V97.7597C189.263 98.8584 188.362 99.7373 187.285 99.7373Z" fill="white"/>
<path d="M137.802 81.0379H187.286C188.385 81.0379 189.264 81.9168 189.264 83.0155V84.7734C189.264 85.8721 188.385 86.751 187.286 86.751H137.802C136.725 86.751 135.824 85.8721 135.824 84.7734V83.0155C135.824 81.9388 136.703 81.0379 137.802 81.0379Z" fill="white"/>
<path d="M116.157 81.0379H129.715C130.814 81.0379 131.692 81.9168 131.692 83.0155V84.7734C131.692 85.8721 130.814 86.751 129.715 86.751H116.157C115.059 86.751 114.18 85.8721 114.18 84.7734V83.0155C114.18 81.9388 115.081 81.0379 116.157 81.0379Z" fill="white"/>
<path d="M149.755 111.625H116.157C115.059 111.625 114.18 110.746 114.18 109.647V107.889C114.18 106.791 115.059 105.912 116.157 105.912H149.755C150.853 105.912 151.732 106.791 151.732 107.889V109.647C151.732 110.724 150.831 111.625 149.755 111.625Z" fill="white"/>
<path d="M59.1605 225.139C63.2696 222.239 68.3454 216.636 67.2028 211.12C65.3131 202.067 51.7775 203.056 45.6908 206.638C37.7145 211.318 32.0454 228.26 45.4272 229.402C49.8878 229.776 55.0076 228.062 59.1605 225.139Z" fill="url(#paint0_radial_674_2055)"/>
<path d="M483.928 201.694C488.959 203.847 496.804 205.232 500.386 200.705C506.296 193.278 496.474 180.929 489.597 177.303C480.588 172.557 463.36 177.655 471.381 191.147C474.061 195.695 478.83 199.519 483.928 201.694Z" fill="url(#paint1_radial_674_2055)"/>
<path d="M462.612 177.633C463.206 176.952 463.623 176.117 463.975 175.26C464.348 174.403 464.678 173.458 464.546 172.535C463.733 165.965 453.274 165.987 452.439 172.777C451.846 177.787 459.053 181.698 462.612 177.633Z" fill="url(#paint2_radial_674_2055)"/>
<defs>
<radialGradient id="paint0_radial_674_2055" cx="0" cy="0" r="1" gradientUnits="userSpaceOnUse" gradientTransform="translate(52.3775 216.905) rotate(10.2065) scale(13.8829 13.8829)">
<stop stop-color="#FEEEEF"/>
<stop offset="1" stop-color="#FEEEEF"/>
</radialGradient>
<radialGradient id="paint1_radial_674_2055" cx="0" cy="0" r="1" gradientUnits="userSpaceOnUse" gradientTransform="translate(485.926 190.09) rotate(63.8678) scale(16.2737 13.8827)">
<stop stop-color="#FEEEEF"/>
<stop offset="1" stop-color="#FEEEEF"/>
</radialGradient>
<radialGradient id="paint2_radial_674_2055" cx="0" cy="0" r="1" gradientUnits="userSpaceOnUse" gradientTransform="translate(458.441 173.429) rotate(10.7189) scale(5.91677 5.91677)">
<stop stop-color="#FEEEEF"/>
<stop offset="1" stop-color="#FEEEEF"/>
</radialGradient>
</defs>
</svg>
