<svg width="210" height="130" viewBox="0 0 210 130" fill="none" xmlns="http://www.w3.org/2000/svg">
<path d="M209.909 14.9065V115.431C209.909 119.661 208.031 123.518 205.027 126.255C202.399 128.619 199.019 129.987 195.264 129.987H15.2753C11.5203 129.987 8.14085 128.619 5.51237 126.255C2.50838 123.642 0.630859 119.785 0.630859 115.431V14.9065C0.630859 10.6765 2.50834 6.81978 5.38715 4.20714C5.51232 4.08273 5.63755 3.9583 5.76271 3.9583C8.26604 1.71889 11.6455 0.474792 15.2753 0.474792H195.264C198.894 0.474792 202.273 1.8433 204.777 3.9583C204.902 4.08271 205.027 4.20714 205.152 4.20714C208.031 6.81978 209.909 10.6765 209.909 14.9065Z" fill="#41B79B"/>
<path d="M5.51172 126.255L105.269 42.277L205.026 126.255H5.51172Z" fill="#FFEBEB"/>
<path d="M205.026 126.255C202.398 128.619 199.018 129.987 195.263 129.987H15.2747C11.5197 129.987 8.14021 128.619 5.51172 126.255L105.269 49.4928L205.026 126.255Z" fill="#33A78C"/>
<path d="M205.154 4.20705L104.771 84.3281L5.38867 4.20705C8.01716 1.84323 11.3967 0.350281 15.2768 0.350281H195.266C199.021 0.350281 202.525 1.84323 205.154 4.20705Z" fill="#FFE6E6"/>
<path d="M204.778 3.95843L104.645 72.8825L5.63867 3.95843C8.14199 1.71902 11.5215 0.474923 15.1513 0.474923H195.14C198.895 0.350512 202.275 1.71902 204.778 3.95843Z" fill="#33A78C"/>
</svg>
