<svg width="20" height="19" viewBox="0 0 20 19" fill="none" xmlns="http://www.w3.org/2000/svg">
<path d="M16.8215 0H3.40603C2.7389 0 2.0991 0.265015 1.62737 0.736744C1.15564 1.20847 0.890625 1.84828 0.890625 2.5154L0.890625 15.9309C0.890625 16.598 1.15564 17.2378 1.62737 17.7095C2.0991 18.1813 2.7389 18.4463 3.40603 18.4463H16.8215C17.4886 18.4463 18.1284 18.1813 18.6002 17.7095C19.0719 17.2378 19.3369 16.598 19.3369 15.9309V2.5154C19.3369 1.84828 19.0719 1.20847 18.6002 0.736744C18.1284 0.265015 17.4886 0 16.8215 0ZM7.17913 14.5977C7.17927 14.6489 7.16931 14.6995 7.14983 14.7468C7.13035 14.7941 7.10173 14.8371 7.06561 14.8733C7.02949 14.9096 6.98658 14.9383 6.93934 14.9579C6.89209 14.9775 6.84144 14.9876 6.79029 14.9876H5.13327C5.08203 14.9877 5.03127 14.9778 4.9839 14.9582C4.93654 14.9387 4.8935 14.9099 4.85727 14.8737C4.82104 14.8375 4.79232 14.7944 4.77278 14.7471C4.75323 14.6997 4.74324 14.649 4.74338 14.5977V7.65101C4.74338 7.54761 4.78446 7.44844 4.85758 7.37532C4.9307 7.3022 5.02987 7.26113 5.13327 7.26113H6.79029C6.89351 7.2614 6.99241 7.3026 7.06531 7.37569C7.1382 7.44878 7.17913 7.54779 7.17913 7.65101V14.5977ZM5.96126 6.60293C5.65032 6.60293 5.34636 6.51073 5.08783 6.33798C4.8293 6.16523 4.62779 5.9197 4.5088 5.63243C4.38981 5.34516 4.35868 5.02906 4.41934 4.7241C4.48 4.41914 4.62973 4.13901 4.8496 3.91914C5.06946 3.69928 5.34959 3.54955 5.65455 3.48889C5.95951 3.42822 6.27561 3.45936 6.56288 3.57835C6.85015 3.69734 7.09568 3.89884 7.26843 4.15738C7.44118 4.41591 7.53338 4.71987 7.53338 5.0308C7.53338 5.44776 7.36775 5.84763 7.07292 6.14247C6.77809 6.4373 6.37821 6.60293 5.96126 6.60293ZM15.8405 14.625C15.8406 14.6721 15.8315 14.7188 15.8135 14.7623C15.7955 14.8059 15.7691 14.8454 15.7358 14.8787C15.7025 14.912 15.6629 14.9384 15.6194 14.9564C15.5758 14.9744 15.5292 14.9836 15.4821 14.9834H13.7003C13.6532 14.9836 13.6065 14.9744 13.563 14.9564C13.5194 14.9384 13.4799 14.912 13.4465 14.8787C13.4132 14.8454 13.3868 14.8059 13.3689 14.7623C13.3509 14.7188 13.3417 14.6721 13.3419 14.625V11.3707C13.3419 10.8844 13.4844 9.24096 12.0705 9.24096C10.9753 9.24096 10.752 10.3656 10.708 10.8707V14.6292C10.708 14.7233 10.671 14.8137 10.6049 14.8808C10.5388 14.9479 10.449 14.9862 10.3548 14.9876H8.63387C8.58685 14.9876 8.54029 14.9783 8.49686 14.9603C8.45343 14.9423 8.41398 14.9159 8.38078 14.8826C8.34758 14.8493 8.32128 14.8097 8.30338 14.7663C8.28548 14.7228 8.27634 14.6762 8.27647 14.6292V7.62062C8.27634 7.5736 8.28548 7.52701 8.30338 7.48353C8.32128 7.44005 8.34758 7.40052 8.38078 7.36722C8.41398 7.33393 8.45343 7.30751 8.49686 7.28948C8.54029 7.27145 8.58685 7.26218 8.63387 7.26218H10.3548C10.4499 7.26218 10.5411 7.29994 10.6083 7.36716C10.6755 7.43438 10.7133 7.52555 10.7133 7.62062V8.22641C11.1199 7.61538 11.7226 7.14584 13.0086 7.14584C15.8573 7.14584 15.8384 9.80588 15.8384 11.2669L15.8405 14.625Z" fill="#F9FBFD"/>
</svg>
