<svg width="20" height="19" viewBox="0 0 20 19" fill="none" xmlns="http://www.w3.org/2000/svg">
<path d="M16.8235 0H3.40798C2.74085 0 2.10105 0.265015 1.62932 0.736744C1.15759 1.20847 0.892578 1.84828 0.892578 2.5154L0.892578 15.9309C0.892578 16.598 1.15759 17.2378 1.62932 17.7095C2.10105 18.1813 2.74085 18.4463 3.40798 18.4463H16.8235C17.4906 18.4463 18.1304 18.1813 18.6021 17.7095C19.0738 17.2378 19.3389 16.598 19.3389 15.9309V2.5154C19.3389 1.84828 19.0738 1.20847 18.6021 0.736744C18.1304 0.265015 17.4906 0 16.8235 0ZM7.18108 14.5977C7.18122 14.6489 7.17127 14.6995 7.15179 14.7468C7.13231 14.7941 7.10369 14.8371 7.06757 14.8733C7.03145 14.9096 6.98853 14.9383 6.94129 14.9579C6.89404 14.9775 6.8434 14.9876 6.79224 14.9876H5.13522C5.08398 14.9877 5.03322 14.9778 4.98586 14.9582C4.93849 14.9387 4.89545 14.9099 4.85922 14.8737C4.82299 14.8375 4.79428 14.7944 4.77473 14.7471C4.75519 14.6997 4.7452 14.649 4.74534 14.5977V7.65101C4.74534 7.54761 4.78641 7.44844 4.85953 7.37532C4.93265 7.3022 5.03182 7.26113 5.13522 7.26113H6.79224C6.89547 7.2614 6.99437 7.3026 7.06726 7.37569C7.14015 7.44878 7.18108 7.54779 7.18108 7.65101V14.5977ZM5.96321 6.60293C5.65227 6.60293 5.34832 6.51073 5.08978 6.33798C4.83125 6.16523 4.62974 5.9197 4.51075 5.63243C4.39176 5.34516 4.36063 5.02906 4.42129 4.7241C4.48195 4.41914 4.63168 4.13901 4.85155 3.91914C5.07141 3.69928 5.35154 3.54955 5.6565 3.48889C5.96147 3.42822 6.27757 3.45936 6.56484 3.57835C6.8521 3.69734 7.09764 3.89884 7.27038 4.15738C7.44313 4.41591 7.53534 4.71987 7.53534 5.0308C7.53534 5.44776 7.3697 5.84763 7.07487 6.14247C6.78004 6.4373 6.38016 6.60293 5.96321 6.60293ZM15.8425 14.625C15.8426 14.6721 15.8334 14.7188 15.8154 14.7623C15.7975 14.8059 15.7711 14.8454 15.7378 14.8787C15.7045 14.912 15.6649 14.9384 15.6213 14.9564C15.5778 14.9744 15.5311 14.9836 15.484 14.9834H13.7023C13.6552 14.9836 13.6085 14.9744 13.5649 14.9564C13.5214 14.9384 13.4818 14.912 13.4485 14.8787C13.4152 14.8454 13.3888 14.8059 13.3708 14.7623C13.3529 14.7188 13.3437 14.6721 13.3438 14.625V11.3707C13.3438 10.8844 13.4864 9.24096 12.0725 9.24096C10.9772 9.24096 10.754 10.3656 10.71 10.8707V14.6292C10.71 14.7233 10.6729 14.8137 10.6069 14.8808C10.5408 14.9479 10.4509 14.9862 10.3568 14.9876H8.63582C8.5888 14.9876 8.54224 14.9783 8.49881 14.9603C8.45538 14.9423 8.41594 14.9159 8.38274 14.8826C8.34953 14.8493 8.32323 14.8097 8.30533 14.7663C8.28743 14.7228 8.27829 14.6762 8.27843 14.6292V7.62062C8.27829 7.5736 8.28743 7.52701 8.30533 7.48353C8.32323 7.44005 8.34953 7.40052 8.38274 7.36722C8.41594 7.33393 8.45538 7.30751 8.49881 7.28948C8.54224 7.27145 8.5888 7.26218 8.63582 7.26218H10.3568C10.4518 7.26218 10.543 7.29994 10.6102 7.36716C10.6775 7.43438 10.7152 7.52555 10.7152 7.62062V8.22641C11.1219 7.61538 11.7245 7.14584 13.0105 7.14584C15.8592 7.14584 15.8404 9.80588 15.8404 11.2669L15.8425 14.625Z" fill="#F9FBFD"/>
</svg>
