<svg width="84" height="212" viewBox="0 0 84 212" fill="none" xmlns="http://www.w3.org/2000/svg">
<path d="M18.7754 188.187L19.7768 191.049L22.1549 197.767L27.4119 197.518L29.1642 195.776L27.4119 190.675L26.5357 185.948L18.7754 188.187Z" fill="#FDB9CD"/>
<path d="M57.7032 186.072L57.3277 189.058L56.2012 196.149L61.0827 198.389L63.3357 197.642L64.2118 192.168L65.5886 187.565L57.7032 186.072Z" fill="#FDB9CD"/>
<path d="M27.4115 190.675C26.4101 192.79 21.9041 192.293 20.0266 190.302C17.1478 190.551 16.0214 193.412 16.0214 193.412C16.0214 193.412 12.6419 201.002 11.6406 203.739C10.3889 205.605 9.38759 206.973 8.51143 207.72C7.63526 208.466 7.25977 209.337 7.25977 209.959C7.38493 210.581 7.76043 212.199 9.76309 211.95C11.8909 211.576 19.2757 209.959 20.4022 209.337C21.6539 208.591 22.1545 208.342 24.1572 205.48C26.285 202.743 28.538 201.748 29.1638 201.25C29.7897 200.753 31.4168 199.757 31.4168 199.011C31.4168 198.016 30.04 194.532 29.289 193.412C28.6631 192.168 27.4115 190.675 27.4115 190.675Z" fill="#231F20"/>
<path d="M76.3526 122.373L56.2009 101.97L30.7922 101.597L8.26233 120.507C2.50469 123.866 -0.999977 133.446 1.12785 139.667L4.88283 151.859C6.25966 156.338 7.76166 160.692 9.51399 164.922L17.9001 190.178L28.9147 189.058L26.4114 164.549C25.6604 157.457 24.2836 150.242 20.9041 143.897C20.1531 142.528 22.9067 137.303 26.5365 135.934C34.422 133.197 40.0545 131.704 40.0545 131.704C40.0545 131.704 50.0678 134.939 57.9533 137.8C61.5831 139.045 64.2115 144.27 63.4605 145.638C60.2062 151.983 58.7043 159.075 57.9533 166.166L55.45 190.675L65.9639 191.795L74.8507 166.539C76.603 162.185 78.1049 157.831 79.4818 153.476L83.2368 141.284C85.6149 135.312 81.9851 125.733 76.3526 122.373Z" fill="#4A6B96"/>
<path d="M54.8214 195.154C54.8214 195.154 53.5698 202.992 53.9453 203.49C54.3208 203.987 57.7003 206.351 57.9506 206.849C58.2009 207.346 58.4513 209.959 60.2036 210.332C61.9559 210.706 71.844 210.83 72.4698 210.332C73.0957 209.835 73.5964 208.217 72.9705 207.098C72.3447 205.978 69.9665 204.112 68.4645 201.001C66.9625 198.016 66.2116 194.656 65.4606 193.661C64.8347 192.79 61.5804 191.173 59.5777 192.541C57.5751 193.91 56.6989 194.656 56.0731 194.905C55.4473 195.154 54.8214 195.154 54.8214 195.154Z" fill="#231F20"/>
<path d="M7.63171 62.2827C6.63038 71.3647 7.13101 85.6721 7.13101 94.132C7.13101 97.9888 12.6383 103.09 14.5158 107.817C15.1417 109.31 16.143 110.554 17.5198 111.425L30.9126 124.862L33.2907 124.986L19.147 99.4817C19.2722 93.7588 21.2748 69.4985 21.2748 69.4985V45.2383C13.0138 48.3486 8.50787 53.4495 7.63171 62.2827Z" fill="#05C0DE"/>
<path d="M79.3542 62.2827C80.3556 71.3647 79.8549 85.6721 79.8549 94.132C79.8549 97.9888 74.3476 103.09 72.4701 107.817C71.8443 109.31 70.8429 110.554 69.4661 111.425L56.1985 124.862L53.8203 124.986L67.9641 99.4817C67.839 93.7588 65.8363 69.4985 65.8363 69.4985V45.2383C73.9721 48.3486 78.4781 53.4495 79.3542 62.2827Z" fill="#05C0DE"/>
<path d="M65.8309 69.3743V45.114C65.4554 44.9896 65.0799 44.8652 64.8296 44.7408C59.8229 42.999 53.4394 41.5061 45.9294 41.0084C45.1784 41.0084 44.3023 41.1328 43.5513 41.2572C42.8003 41.1328 41.9241 41.1328 41.1731 41.0084C33.6632 41.6305 27.4049 42.999 22.2731 44.7408C21.8976 44.8652 21.522 44.9896 21.2717 45.114V69.3743C22.8989 80.3225 19.2691 105.702 16.6406 125.608H70.5872C67.8335 105.702 64.2037 80.1981 65.8309 69.3743Z" fill="#05D7DE"/>
<path d="M70.4645 124.24H16.6431L11.8867 92.3903C11.8867 90.6486 13.2635 89.28 15.0159 89.28H72.0916C73.844 89.28 75.2208 90.6486 75.2208 92.3903L70.4645 124.24Z" fill="#E4E7F5"/>
<path d="M70.3407 124.24H16.6445V125.607H70.3407V124.24Z" fill="#CBCEDB"/>
<path d="M55.6961 42.377C52.6921 41.7549 49.4378 41.2572 45.9332 41.0084C45.1822 41.0084 44.306 41.1328 43.5551 41.2572C42.8041 41.1328 41.9279 41.1328 41.1769 41.0084C37.6722 41.2572 34.4179 41.7549 31.5391 42.377L35.4193 44.8652H35.5444C37.9225 46.2337 40.551 46.9802 43.1795 46.9802C45.808 46.9802 48.5617 46.2337 50.8147 44.8652L55.6961 42.377Z" fill="#05C0DE"/>
<path d="M35.7947 45.1139C37.9225 46.3581 40.4258 47.1045 43.0543 47.1045C45.5576 47.1045 48.061 46.4825 50.1888 45.1139L53.1927 43.621C51.3152 42.0037 51.4404 36.9028 51.4404 36.9028L43.0543 35.7831L33.6668 36.9028L34.0423 40.8839C34.1675 41.8792 33.792 42.7501 33.041 43.3722L35.7947 45.1139Z" fill="#ED9DB4"/>
<path d="M55.0729 27.6962C55.0729 25.5812 54.4471 23.8395 53.6961 23.4662V20.8536C53.6961 16.8724 50.3166 13.5133 46.3113 13.5133H38.551C34.5457 13.5133 31.1662 16.8724 31.1662 20.8536V23.3418C30.29 23.3418 29.5391 25.3324 29.5391 27.6962C29.5391 30.0601 30.29 32.0506 31.1662 32.0506H31.2913C31.5417 33.7924 32.1675 35.4098 33.1688 36.7783L36.298 41.0083C37.6748 42.75 39.8026 43.9941 42.1808 43.9941H42.6815C45.0597 43.9941 47.1875 42.8744 48.5643 41.0083L51.6935 36.7783C52.6948 35.4098 53.3206 33.7924 53.571 32.0506C54.4471 31.8018 55.0729 29.9356 55.0729 27.6962Z" fill="#FDB9CD"/>
<path d="M31.1656 32.0508C31.2908 31.6776 30.665 30.1846 30.5398 29.8114C30.1643 28.4429 29.7888 27.1987 29.4133 25.8302C28.6623 23.7152 28.5371 21.6002 28.1616 19.4852C27.5358 16.7482 27.2855 13.0158 27.9114 10.1544C28.7875 6.42201 32.167 0.823486 34.0445 0.823486C34.5451 3.68495 35.6716 4.43143 37.4239 4.92907C41.4293 6.04878 48.6889 5.3023 50.316 9.78111C53.8207 8.28818 58.3267 16.6238 55.0723 26.3279C54.5717 27.6964 54.5717 30.5578 53.5704 31.9264C54.0711 27.8208 52.0684 23.7152 52.0684 23.7152C52.0684 23.7152 53.0697 16.1261 46.4359 15.2552C39.8021 14.3844 32.7928 13.8867 31.9166 22.9687C32.2921 29.8114 31.1656 32.0508 31.1656 32.0508Z" fill="#1D117F"/>
<path d="M55.5755 42.377L50.5689 44.8652C48.1907 46.2337 45.5623 46.9802 42.9338 46.9802C40.1801 46.9802 37.5516 46.2337 35.2986 44.8652H35.1735L31.4185 42.377C30.7927 42.5014 30.1668 42.6258 29.541 42.7502C33.4212 46.1093 38.3026 49.0952 42.1828 49.0952C46.1881 49.0952 53.3226 46.2337 57.453 42.7502C56.9524 42.6258 56.3265 42.5014 55.5755 42.377Z" fill="#05A8DE"/>
</svg>
