<svg width="35" height="34" viewBox="0 0 35 34" fill="none" xmlns="http://www.w3.org/2000/svg">
<path fill-rule="evenodd" clip-rule="evenodd" d="M16.3345 0.0156745C12.7248 0.338934 9.76144 1.48028 7.01969 3.60332C6.32803 4.13891 5.02311 5.40205 4.46312 6.07802C1.76177 9.33897 0.382284 13.3143 0.507873 17.4759C0.584293 20.0075 1.13313 22.233 2.23464 24.4772C4.01207 28.0989 6.99712 30.9629 10.6763 32.5768C14.7818 34.3776 19.5325 34.4739 23.6826 32.8405C28.378 30.9924 31.9923 27.202 33.6057 22.4341C34.4671 19.8886 34.7129 17.1301 34.314 14.4859C33.8572 11.4586 32.6736 8.75255 30.7502 6.33844C30.1894 5.63462 28.8698 4.31462 28.1661 3.75366C25.6363 1.73692 22.7643 0.518129 19.5727 0.106917C18.9793 0.0304745 16.8419 -0.0297224 16.3345 0.0156745ZM18.3521 2.6767C22.6233 2.94678 26.3929 4.97868 28.9823 8.40646C30.4092 10.2953 31.3404 12.5487 31.7081 15.0022C31.8152 15.7162 31.8551 17.5178 31.7813 18.3028C31.314 23.275 28.3596 27.5989 23.9068 29.8275C22.3006 30.6314 20.6133 31.1127 18.8052 31.2827C18.022 31.3564 16.2198 31.3167 15.5095 31.2101C10.7612 30.4976 6.84209 27.6886 4.69322 23.4575C2.47615 19.0922 2.66461 13.8343 5.18881 9.62734C7.60734 5.59654 11.8484 2.99607 16.5191 2.68013C17.3821 2.62178 17.48 2.62158 18.3521 2.6767ZM23.7573 11.2407C23.3801 11.3648 23.0241 11.6997 19.2002 15.5281L15.1661 19.5668L13.3965 17.8055C11.7567 16.1735 11.6071 16.0378 11.3584 15.9564C10.6694 15.7311 9.94033 16.0747 9.68427 16.7455C9.57622 17.0285 9.59953 17.5626 9.7314 17.8251C9.77947 17.9208 10.8421 19.024 12.0928 20.2768C14.6 22.7881 14.5706 22.7643 15.1638 22.7643C15.7805 22.7643 15.5165 22.9997 20.5518 17.9598C23.7558 14.7529 25.1777 13.297 25.2584 13.1405C25.4115 12.8436 25.4218 12.2644 25.2791 11.9743C25.1577 11.7275 24.9066 11.4755 24.6533 11.3462C24.4343 11.2344 23.9498 11.1774 23.7573 11.2407Z" fill="#F9FBFD"/>
</svg>
