<svg width="116" height="79" viewBox="0 0 116 79" fill="none" xmlns="http://www.w3.org/2000/svg">
<path d="M58.9782 78.8571C57.6727 78.8571 56.371 78.5346 55.219 77.901L52.6694 76.5225C51.7363 76.0195 51.3907 74.8522 51.8976 73.9191C52.4006 72.9861 53.5679 72.6405 54.501 73.1473L57.0583 74.5297C57.9645 75.025 59.1011 75.1479 60.0994 74.856C60.6793 74.6871 61.4626 74.3031 61.931 73.4507C62.6376 72.1605 62.3841 70.6015 61.7314 69.8412C61.0901 69.0925 61.1208 67.9828 61.8005 67.2686C62.3957 66.6504 63.4017 66.4123 64.1581 66.8116L69.8257 69.7798C71.5613 70.7244 73.727 70.1676 74.5948 68.5779C75.2706 67.3377 74.9173 65.7787 74.3721 64.9916L69.1269 61.3437C68.2898 60.7601 68.0555 59.6235 68.5893 58.7557C69.123 57.884 70.2404 57.5884 71.1428 58.0799L81.1225 63.5324C82.0478 64.0393 82.9118 63.951 83.4724 63.782C84.3517 63.5247 85.1235 62.8912 85.5843 62.0426C86.5059 60.3607 86.0182 58.5099 84.4324 57.6421L78.066 53.5028C77.2135 52.946 76.9447 51.8248 77.4477 50.9416C77.9508 50.0623 79.0605 49.7206 79.9667 50.1737L92.9414 56.6131C94.5887 57.5077 96.547 56.8588 97.4801 55.1616C98.3594 53.5374 97.7143 51.3986 96.0593 50.4962C95.1263 49.9894 94.7845 48.8221 95.2914 47.8928C95.7982 46.9636 96.9694 46.6142 97.8948 47.1249C101.374 49.0217 102.725 53.5451 100.851 57.0009C98.8855 60.5873 94.6425 61.9159 91.1713 60.019L89.8196 59.3509C90.0347 60.8753 89.7352 62.4611 88.9518 63.8857C88.0072 65.6213 86.4022 66.9268 84.5514 67.4682C82.7697 67.9905 80.8959 67.7869 79.2755 66.9038L78.7763 66.635C78.8493 67.8906 78.615 69.2077 77.9546 70.4172C76.0884 73.8308 71.5383 75.0941 68.0056 73.1627L66.1702 72.2027C66.1088 73.2702 65.8208 74.3377 65.2986 75.2899C64.4461 76.8566 62.9831 78.0085 61.1784 78.5423C60.4604 78.7535 59.7193 78.8571 58.9782 78.8571Z" fill="#41B79B"/>
<path d="M19.263 44.0338C18.9712 44.0338 18.6793 43.9685 18.399 43.8265L12.0173 40.6087C11.0688 40.1326 10.6887 38.9768 11.1687 38.0322C11.6448 37.0838 12.7967 36.6959 13.7452 37.1836L20.127 40.4014C21.0754 40.8775 21.4555 42.0333 20.9756 42.9779C20.6415 43.646 19.9657 44.0338 19.263 44.0338Z" fill="#41B79B"/>
<path d="M34.5918 19.0212C34.4689 19.0212 34.3422 19.0097 34.2155 18.9828L21.1832 16.4063C20.1426 16.199 19.4668 15.1929 19.6741 14.1523C19.8815 13.1118 20.8913 12.4206 21.9281 12.6433L34.9604 15.2198C36.001 15.4272 36.6768 16.4332 36.4695 17.4738C36.2929 18.3877 35.4903 19.0212 34.5918 19.0212Z" fill="#41B79B"/>
<path d="M96.9275 50.7074C96.6088 50.7074 96.29 50.6268 96.0059 50.4694L83.4228 43.5846L66.2703 32.9406C65.368 32.3838 65.0838 31.205 65.6406 30.2988C66.1935 29.3926 67.3762 29.1123 68.2824 29.6691L85.3504 40.267L95.883 46.0267C96.5435 43.7266 96.4936 42.0333 96.4897 42.0141C96.4552 41.2231 96.9044 40.4935 97.6263 40.171L101.597 38.4047C102.568 37.9823 103.705 38.4123 104.131 39.38C104.561 40.3476 104.127 41.4842 103.156 41.9142L100.283 43.1929C100.176 44.5944 99.8188 46.9406 98.6899 49.5516C98.4749 50.047 98.0602 50.431 97.5533 50.6038C97.3498 50.6729 97.1386 50.7074 96.9275 50.7074Z" fill="#41B79B"/>
<path d="M42.6803 40.4666C39.9809 40.4666 37.3775 39.2916 35.2502 37.0914C34.7626 36.5846 34.5898 35.855 34.7971 35.183C35.4499 33.0827 36.1564 31.1205 36.8092 29.3043C37.8613 26.3707 38.7752 23.8402 39.0478 21.8857C39.1246 21.3443 39.4241 20.8605 39.8772 20.5572L41.847 19.2132C46.2897 16.1567 53.7274 11.0344 57.7708 9.36793C60.1899 8.37342 72.9765 10.8386 83.2749 13.0887C83.5475 13.1463 83.8048 13.2653 84.0236 13.4343C84.4614 13.7645 84.8645 14.1063 85.2447 14.4557L92.6056 12.4283C93.627 12.1441 94.6868 12.747 94.9671 13.7684C95.2474 14.7898 94.6484 15.8495 93.627 16.1299L85.214 18.4491C84.5458 18.6373 83.8278 18.4453 83.3363 17.9461C82.9331 17.5391 82.5031 17.1359 82.0269 16.7481C72.0741 14.5862 60.9002 12.6126 59.1109 12.9582C55.5667 14.4288 48.056 19.601 44.0204 22.3772L42.7033 23.2758C42.2848 25.4184 41.4131 27.8451 40.4225 30.606C39.9079 32.0382 39.3588 33.5626 38.8289 35.1754C40.553 36.5654 42.2118 36.719 43.3446 36.5884C45.0379 36.3849 46.6123 35.3597 47.4532 33.9197C48.1136 32.7831 49.0045 30.5215 49.615 28.4173C49.8262 27.6877 50.4521 27.1501 51.2085 27.0503C52.3835 26.8929 57.0566 25.906 59.8212 25.2494C60.8503 24.9922 61.8909 25.6449 62.1328 26.674C62.3786 27.7069 61.7411 28.7398 60.7082 28.9856C58.6079 29.4847 55.0291 30.2642 52.948 30.6521C52.3874 32.38 51.5848 34.4611 50.7746 35.8512C49.3232 38.347 46.7159 40.0481 43.813 40.4014C43.4329 40.4474 43.0566 40.4666 42.6803 40.4666Z" fill="#41B79B"/>
<path d="M48.6187 78.6037C46.9139 78.6037 45.3165 77.9394 44.1185 76.7376L42.8667 75.4743C41.6764 74.2724 41.0274 72.675 41.0313 70.9817C41.0351 69.2806 41.6994 67.691 42.9013 66.5006L45.4317 64.0124C47.8277 61.6394 52.0323 61.6586 54.4054 64.0623L55.6495 65.3103C58.1146 67.8062 58.0954 71.8341 55.6149 74.2916L53.0845 76.7798C51.8941 77.951 50.3083 78.6037 48.6187 78.6037ZM49.8974 66.0206C49.2293 66.0206 48.5996 66.2779 48.1311 66.7425L45.6045 69.2269C45.1399 69.6877 44.8788 70.3174 44.8749 70.9894C44.8749 71.6652 45.1284 72.2949 45.5968 72.7672L46.8448 74.0267C47.7778 74.9674 49.4405 74.9713 50.3889 74.0343L52.9155 71.55C53.8908 70.5862 53.8947 68.9888 52.9193 68.0058L51.6791 66.7617C51.2068 66.2818 50.5771 66.0206 49.8974 66.0206Z" fill="#41B79B"/>
<path d="M22.066 55.5878C20.3611 55.5878 18.7599 54.9235 17.5619 53.7178L16.314 52.4622C13.8488 49.9702 13.868 45.9461 16.3485 43.4847L18.879 40.9965C21.275 38.6274 25.4719 38.6389 27.8488 41.0388L29.0967 42.2982C30.2871 43.5001 30.936 45.0936 30.9283 46.7946C30.9206 48.4918 30.2525 50.0815 29.0545 51.2719L26.5279 53.7562C25.3414 54.9351 23.7555 55.5878 22.066 55.5878ZM23.3447 43.0047C22.6766 43.0047 22.0468 43.262 21.5745 43.7266L19.0479 46.211C18.0726 47.1786 18.0688 48.7722 19.0402 49.7551L20.2843 51.0069C21.2251 51.9554 22.8839 51.9592 23.8285 51.0223L26.3589 48.5341C26.8274 48.0733 27.0847 47.4474 27.0885 46.7755C27.0923 46.1035 26.8389 45.4738 26.3705 45.0015L25.1225 43.742C24.6541 43.2659 24.0243 43.0047 23.3447 43.0047Z" fill="#41B79B"/>
<path d="M28.6656 65.6251C26.9568 65.6251 25.3556 64.9609 24.1615 63.7475L22.9135 62.4918C21.7232 61.2977 21.0704 59.7041 21.0742 58.0108C21.0781 56.3097 21.7462 54.7162 22.9519 53.522L27.9782 48.5341C30.3781 46.1534 34.5674 46.1726 36.9519 48.5725L38.1998 49.8358C39.3902 51.0338 40.0391 52.6274 40.0314 54.3246C40.0237 56.0256 39.3595 57.6153 38.1538 58.8056L33.1313 63.7859C31.9409 64.9724 30.3512 65.6251 28.6656 65.6251ZM32.4439 50.5385C31.7758 50.5385 31.1499 50.7919 30.6815 51.2604L25.6551 56.2483C25.179 56.7206 24.9179 57.3503 24.9141 58.0223C24.9141 58.6904 25.1675 59.3163 25.6359 59.7848L26.8877 61.0442C27.8246 61.9965 29.4834 61.9927 30.428 61.0596L35.4544 56.0755C35.9305 55.6071 36.1916 54.9773 36.1916 54.3054C36.1954 53.6334 35.942 53.0075 35.4736 52.539L34.2256 51.2757C33.7533 50.8034 33.1197 50.5385 32.4439 50.5385Z" fill="#41B79B"/>
<path d="M38.6421 72.1145C36.9334 72.1145 35.3322 71.4463 34.1342 70.2368L32.8901 68.9773C31.6997 67.7831 31.047 66.1858 31.0508 64.4924C31.0546 62.7914 31.7189 61.2017 32.9208 60.0113L36.703 56.2752C39.1029 53.8984 43.2998 53.9176 45.6767 56.3213L46.9208 57.5769C49.3783 60.0574 49.3591 64.0816 46.8862 66.5467L43.1078 70.2829C41.9175 71.4617 40.3316 72.1145 38.6421 72.1145ZM41.1687 58.2796C40.5006 58.2796 39.8747 58.5369 39.4062 59.0015L35.624 62.7376C35.1517 63.2061 34.8945 63.832 34.8906 64.5039C34.8868 65.1759 35.144 65.8018 35.6125 66.2703L36.8643 67.5336C37.8012 68.4858 39.46 68.4858 40.4046 67.5528L44.183 63.8166C45.1583 62.8451 45.166 61.2555 44.1945 60.2725L42.9504 59.0168C42.4819 58.5407 41.8484 58.2796 41.1687 58.2796Z" fill="#41B79B"/>
<path d="M104.788 48.5418C104.511 48.5418 104.231 48.4804 103.977 48.3613C103.509 48.1425 103.148 47.7431 102.979 47.2555L90.5841 11.8485C90.2462 10.8808 90.73 9.81338 91.6823 9.43324L112.54 1.07395C113.527 0.68229 114.641 1.15843 115.036 2.14142C115.432 3.12441 114.952 4.2418 113.969 4.6373L94.8117 12.3131L105.947 44.1298L112.924 41.4996C113.919 41.1271 115.025 41.6263 115.397 42.6208C115.773 43.6115 115.27 44.7212 114.276 45.0936L105.46 48.4151C105.248 48.4996 105.018 48.5418 104.788 48.5418Z" fill="#41B79B"/>
<path d="M9.51195 48.4189C9.30844 48.4189 9.10493 48.3882 8.90141 48.3191L1.31009 45.7771C0.304059 45.4392 -0.237355 44.3526 0.100549 43.3465C0.438453 42.3405 1.5328 41.8029 2.53115 42.137L8.32544 44.0761L19.4993 12.1595L1.42145 4.54131C0.442293 4.13045 -0.0146455 3.00538 0.396215 2.02623C0.810916 1.05091 1.93598 0.601657 2.9113 1.00484L22.648 9.32573C23.581 9.72123 24.0495 10.7733 23.7154 11.7295L11.3205 47.1364C11.0479 47.9236 10.3029 48.4189 9.51195 48.4189Z" fill="#41B79B"/>
</svg>
