<svg width="116" height="79" viewBox="0 0 116 79" fill="none" xmlns="http://www.w3.org/2000/svg">
<path d="M58.9782 78.9726C57.6727 78.9726 56.371 78.6501 55.219 78.0165L52.6694 76.638C51.7363 76.135 51.3907 74.9677 51.8976 74.0346C52.4006 73.1015 53.5679 72.756 54.501 73.2628L57.0583 74.6451C57.9645 75.1405 59.1011 75.2634 60.0994 74.9715C60.6793 74.8026 61.4626 74.4186 61.931 73.5661C62.6376 72.276 62.3841 70.717 61.7314 69.9567C61.0901 69.208 61.1208 68.0983 61.8005 67.384C62.3957 66.7658 63.4017 66.5278 64.1581 66.9271L69.8257 69.8953C71.5613 70.8399 73.727 70.2831 74.5948 68.6934C75.2706 67.4532 74.9173 65.8942 74.3721 65.107L69.1269 61.4592C68.2898 60.8755 68.0555 59.739 68.5893 58.8712C69.123 57.9995 70.2404 57.7039 71.1428 58.1954L81.1225 63.6479C82.0478 64.1548 82.9118 64.0664 83.4724 63.8975C84.3517 63.6402 85.1235 63.0066 85.5843 62.158C86.5059 60.4762 86.0182 58.6254 84.4324 57.7576L78.066 53.6183C77.2135 53.0615 76.9447 51.9403 77.4477 51.0571C77.9508 50.1778 79.0605 49.8361 79.9667 50.2892L92.9414 56.7285C94.5887 57.6232 96.547 56.9743 97.4801 55.2771C98.3594 53.6528 97.7143 51.5141 96.0593 50.6117C95.1263 50.1049 94.7845 48.9375 95.2914 48.0083C95.7982 47.0791 96.9694 46.7297 97.8948 47.2403C101.374 49.1372 102.725 53.6605 100.851 57.1164C98.8855 60.7028 94.6425 62.0313 91.1713 60.1345L89.8196 59.4663C90.0347 60.9907 89.7352 62.5766 88.9518 64.0012C88.0072 65.7368 86.4022 67.0423 84.5514 67.5837C82.7697 68.1059 80.8959 67.9024 79.2755 67.0193L78.7763 66.7505C78.8493 68.0061 78.615 69.3232 77.9546 70.5327C76.0884 73.9463 71.5383 75.2096 68.0056 73.2782L66.1702 72.3182C66.1088 73.3857 65.8208 74.4531 65.2986 75.4054C64.4461 76.9721 62.9831 78.124 61.1784 78.6577C60.4604 78.8689 59.7193 78.9726 58.9782 78.9726Z" fill="#41B79B"/>
<path d="M19.263 44.1493C18.9712 44.1493 18.6793 44.084 18.399 43.9419L12.0173 40.7242C11.0688 40.248 10.6887 39.0923 11.1687 38.1477C11.6448 37.1992 12.7967 36.8114 13.7452 37.2991L20.127 40.5168C21.0754 40.993 21.4555 42.1488 20.9756 43.0934C20.6415 43.7615 19.9657 44.1493 19.263 44.1493Z" fill="#41B79B"/>
<path d="M34.5918 19.1367C34.4689 19.1367 34.3422 19.1252 34.2155 19.0983L21.1832 16.5218C20.1426 16.3144 19.4668 15.3084 19.6741 14.2678C19.8815 13.2272 20.8913 12.5361 21.9281 12.7588L34.9604 15.3353C36.001 15.5426 36.6768 16.5487 36.4695 17.5893C36.2929 18.5031 35.4903 19.1367 34.5918 19.1367Z" fill="#41B79B"/>
<path d="M96.9275 50.8229C96.6088 50.8229 96.29 50.7423 96.0059 50.5848L83.4228 43.7L66.2703 33.0561C65.368 32.4993 65.0838 31.3205 65.6406 30.4143C66.1935 29.5081 67.3762 29.2278 68.2824 29.7845L85.3504 40.3824L95.883 46.1422C96.5435 43.8421 96.4936 42.1488 96.4897 42.1296C96.4552 41.3386 96.9044 40.609 97.6263 40.2864L101.597 38.5201C102.568 38.0978 103.705 38.5278 104.131 39.4954C104.561 40.4631 104.127 41.5997 103.156 42.0297L100.283 43.3084C100.176 44.7099 99.8188 47.056 98.6899 49.6671C98.4749 50.1625 98.0602 50.5464 97.5533 50.7192C97.3498 50.7884 97.1386 50.8229 96.9275 50.8229Z" fill="#41B79B"/>
<path d="M42.6803 40.5821C39.9809 40.5821 37.3775 39.4071 35.2502 37.2069C34.7626 36.7 34.5898 35.9705 34.7971 35.2985C35.4499 33.1981 36.1564 31.236 36.8092 29.4198C37.8613 26.4861 38.7752 23.9557 39.0478 22.0012C39.1246 21.4598 39.4241 20.976 39.8772 20.6726L41.847 19.3287C46.2897 16.2722 53.7274 11.1499 57.7708 9.48341C60.1899 8.4889 72.9765 10.9541 83.2749 13.2042C83.5475 13.2618 83.8048 13.3808 84.0236 13.5498C84.4614 13.88 84.8645 14.2217 85.2447 14.5712L92.6056 12.5437C93.627 12.2596 94.6868 12.8625 94.9671 13.8838C95.2474 14.9052 94.6484 15.965 93.627 16.2453L85.214 18.5646C84.5458 18.7527 83.8278 18.5607 83.3363 18.0616C82.9331 17.6545 82.5031 17.2514 82.0269 16.8635C72.0741 14.7017 60.9002 12.7281 59.1109 13.0736C55.5667 14.5443 48.056 19.7165 44.0204 22.4927L42.7033 23.3912C42.2848 25.5339 41.4131 27.9606 40.4225 30.7215C39.9079 32.1537 39.3588 33.6781 38.8289 35.2908C40.553 36.6808 42.2118 36.8344 43.3446 36.7039C45.0379 36.5004 46.6123 35.4751 47.4532 34.0352C48.1136 32.8986 49.0045 30.637 49.615 28.5328C49.8262 27.8032 50.4521 27.2656 51.2085 27.1658C52.3835 27.0083 57.0566 26.0215 59.8212 25.3649C60.8503 25.1076 61.8909 25.7604 62.1328 26.7895C62.3786 27.8224 61.7411 28.8553 60.7082 29.101C58.6079 29.6002 55.0291 30.3797 52.948 30.7675C52.3874 32.4954 51.5848 34.5766 50.7746 35.9666C49.3232 38.4625 46.7159 40.1636 43.813 40.5168C43.4329 40.5629 43.0566 40.5821 42.6803 40.5821Z" fill="#41B79B"/>
<path d="M48.6187 78.7192C46.9139 78.7192 45.3165 78.0549 44.1185 76.8531L42.8667 75.5898C41.6764 74.3879 41.0274 72.7905 41.0313 71.0972C41.0351 69.3961 41.6994 67.8064 42.9013 66.6161L45.4317 64.1279C47.8277 61.7549 52.0323 61.7741 54.4054 64.1778L55.6495 65.4258C58.1146 67.9216 58.0954 71.9496 55.6149 74.4071L53.0845 76.8953C51.8941 78.0664 50.3083 78.7192 48.6187 78.7192ZM49.8974 66.1361C49.2293 66.1361 48.5996 66.3934 48.1311 66.858L45.6045 69.3424C45.1399 69.8031 44.8788 70.4329 44.8749 71.1048C44.8749 71.7807 45.1284 72.4104 45.5968 72.8827L46.8448 74.1421C47.7778 75.0829 49.4405 75.0867 50.3889 74.1498L52.9155 71.6655C53.8908 70.7017 53.8947 69.1043 52.9193 68.1213L51.6791 66.8772C51.2068 66.3972 50.5771 66.1361 49.8974 66.1361Z" fill="#41B79B"/>
<path d="M22.066 55.7033C20.3611 55.7033 18.7599 55.039 17.5619 53.8333L16.314 52.5777C13.8488 50.0857 13.868 46.0615 16.3485 43.6002L18.879 41.112C21.275 38.7428 25.4719 38.7543 27.8488 41.1542L29.0967 42.4137C30.2871 43.6156 30.936 45.2091 30.9283 46.9101C30.9206 48.6073 30.2525 50.197 29.0545 51.3874L26.5279 53.8717C25.3414 55.0505 23.7555 55.7033 22.066 55.7033ZM23.3447 43.1202C22.6766 43.1202 22.0468 43.3775 21.5745 43.8421L19.0479 46.3265C18.0726 47.2941 18.0688 48.8876 19.0402 49.8706L20.2843 51.1224C21.2251 52.0708 22.8839 52.0747 23.8285 51.1378L26.3589 48.6496C26.8274 48.1888 27.0847 47.5629 27.0885 46.8909C27.0923 46.219 26.8389 45.5892 26.3705 45.1169L25.1225 43.8575C24.6541 43.3813 24.0243 43.1202 23.3447 43.1202Z" fill="#41B79B"/>
<path d="M28.6656 65.7406C26.9568 65.7406 25.3556 65.0763 24.1615 63.863L22.9135 62.6073C21.7232 61.4131 21.0704 59.8196 21.0742 58.1263C21.0781 56.4252 21.7462 54.8317 22.9519 53.6375L27.9782 48.6496C30.3781 46.2689 34.5674 46.2881 36.9519 48.688L38.1998 49.9513C39.3902 51.1493 40.0391 52.7428 40.0314 54.44C40.0237 56.1411 39.3595 57.7308 38.1538 58.9211L33.1313 63.9014C31.9409 65.0879 30.3512 65.7406 28.6656 65.7406ZM32.4439 50.654C31.7758 50.654 31.1499 50.9074 30.6815 51.3759L25.6551 56.3638C25.179 56.8361 24.9179 57.4658 24.9141 58.1378C24.9141 58.8059 25.1675 59.4318 25.6359 59.9003L26.8877 61.1597C27.8246 62.112 29.4834 62.1082 30.428 61.1751L35.4544 56.191C35.9305 55.7225 36.1916 55.0928 36.1916 54.4208C36.1954 53.7489 35.942 53.123 35.4736 52.6545L34.2256 51.3912C33.7533 50.9189 33.1197 50.654 32.4439 50.654Z" fill="#41B79B"/>
<path d="M38.6421 72.2299C36.9334 72.2299 35.3322 71.5618 34.1342 70.3523L32.8901 69.0928C31.6997 67.8986 31.047 66.3013 31.0508 64.6079C31.0546 62.9069 31.7189 61.3172 32.9208 60.1268L36.703 56.3907C39.1029 54.0138 43.2998 54.033 45.6767 56.4368L46.9208 57.6924C49.3783 60.1729 49.3591 64.197 46.8862 66.6622L43.1078 70.3983C41.9175 71.5772 40.3316 72.2299 38.6421 72.2299ZM41.1687 58.3951C40.5006 58.3951 39.8747 58.6523 39.4062 59.117L35.624 62.8531C35.1517 63.3216 34.8945 63.9474 34.8906 64.6194C34.8868 65.2914 35.144 65.9173 35.6125 66.3857L36.8643 67.649C37.8012 68.6013 39.46 68.6013 40.4046 67.6682L44.183 63.9321C45.1583 62.9606 45.166 61.3709 44.1945 60.3879L42.9504 59.1323C42.4819 58.6562 41.8484 58.3951 41.1687 58.3951Z" fill="#41B79B"/>
<path d="M104.788 48.6573C104.511 48.6573 104.231 48.5958 103.977 48.4768C103.509 48.2579 103.148 47.8586 102.979 47.3709L90.5841 11.964C90.2462 10.9963 90.73 9.92886 91.6823 9.54872L112.54 1.18943C113.527 0.797768 114.641 1.27391 115.036 2.2569C115.432 3.23989 114.952 4.35728 113.969 4.75278L94.8117 12.4286L105.947 44.2453L112.924 41.6151C113.919 41.2426 115.025 41.7418 115.397 42.7363C115.773 43.727 115.27 44.8367 114.276 45.2091L105.46 48.5306C105.248 48.615 105.018 48.6573 104.788 48.6573Z" fill="#41B79B"/>
<path d="M9.51195 48.5344C9.30844 48.5344 9.10493 48.5037 8.90141 48.4346L1.31009 45.8926C0.304059 45.5547 -0.237355 44.468 0.100549 43.462C0.438453 42.456 1.5328 41.9184 2.53115 42.2525L8.32544 44.1916L19.4993 12.275L1.42145 4.65679C0.442293 4.24593 -0.0146455 3.12086 0.396215 2.14171C0.810916 1.16639 1.93598 0.717135 2.9113 1.12032L22.648 9.44121C23.581 9.83671 24.0495 10.8888 23.7154 11.8449L11.3205 47.2519C11.0479 48.0391 10.3029 48.5344 9.51195 48.5344Z" fill="#41B79B"/>
</svg>
