<svg width="213" height="151" viewBox="0 0 213 151" fill="none" xmlns="http://www.w3.org/2000/svg">
<path d="M21.5422 27.3219C6.1468 32.174 -2.11415 49.5916 1.766 67.3824L61.0947 48.5963C53.8351 31.9251 36.9376 22.4699 21.5422 27.3219Z" fill="#2E3646"/>
<path d="M191.767 27.3219C176.372 22.4699 159.474 31.9251 152.215 48.5963L211.544 67.3824C215.549 49.716 207.163 32.174 191.767 27.3219Z" fill="#2E3646"/>
<path d="M212.169 53.5727C207.663 32.5472 195.522 0.200195 106.654 0.200195C17.7857 0.200195 5.64465 32.5472 1.13867 53.5727L58.0892 43.1222C51.7058 26.8243 72.8588 17.2446 106.654 17.2446C140.448 17.2446 161.602 26.8243 155.218 43.1222L212.169 53.5727Z" fill="#41B79B"/>
<path d="M106.654 17.2447C140.324 17.2447 161.602 26.8244 155.219 43.1223L202.156 51.7067C198.401 24.9582 157.096 3.80823 106.654 3.80823C56.2121 3.80823 14.9073 24.8338 11.1523 51.7067L58.0896 43.1223C51.8313 26.7 72.9844 17.2447 106.654 17.2447Z" fill="#33A78C"/>
<path d="M150.965 52.3287C157.098 33.2937 175.373 22.0967 191.894 27.322C208.416 32.5473 216.803 52.2043 210.669 71.2393C210.669 71.2393 210.669 71.2393 210.669 71.3637C209.418 75.2205 205.162 77.3354 201.157 76.0913L155.972 61.784C151.966 60.5399 149.588 56.3099 150.965 52.3287Z" fill="#2E3646"/>
<path d="M62.4718 52.3287C56.3387 33.2937 38.0644 22.0967 21.5425 27.322C5.02056 32.5473 -3.36556 52.2043 2.76757 71.2393V71.3637C4.01924 75.2205 8.14972 77.3354 12.155 76.0913L57.4652 61.784C61.3453 60.5399 63.7235 56.3099 62.4718 52.3287Z" fill="#41B79B"/>
<path d="M60.9693 48.5964L1.64062 67.3825C1.89096 68.6266 2.26648 69.8708 2.64198 71.2393C2.64198 71.2393 2.64198 71.2393 2.64198 71.3637C3.89364 75.2205 8.14925 77.3354 12.1546 76.0913L57.3395 61.784C61.2197 60.5399 63.5978 56.3099 62.3462 52.4531C62.3462 52.4531 62.3462 52.4531 62.3462 52.3287C61.9707 51.0846 61.5952 49.8405 60.9693 48.5964Z" fill="#33A78C"/>
<path d="M152.34 48.5964C151.839 49.8405 151.339 51.0846 150.963 52.3287C150.963 52.3287 150.963 52.3287 150.963 52.4531C149.712 56.3099 151.964 60.5399 155.97 61.784L201.155 76.0913C205.035 77.3354 209.416 75.2205 210.667 71.3637C210.667 71.3637 210.667 71.3637 210.667 71.2393C211.043 69.9952 211.418 68.7511 211.669 67.3825L152.34 48.5964Z" fill="#B5203D"/>
<path d="M172.367 110.553C158.975 91.6427 150.213 69.8707 146.708 47.1034C146.082 43.371 142.953 40.634 139.198 40.634H74.2372C70.4822 40.634 67.2279 43.371 66.7272 47.1034C63.2225 69.8707 54.4609 91.6427 41.0681 110.553L30.9297 124.861H182.631L172.367 110.553Z" fill="#33A78C"/>
<path d="M182.633 124.861H30.8066V150.863H182.633V124.861Z" fill="#41B79B"/>
<path d="M106.654 60.7888C126.68 60.7888 142.952 73.9764 142.952 90.15C142.952 106.323 126.68 119.511 106.654 119.511C86.6271 119.511 70.3555 106.323 70.3555 90.15C70.3555 73.852 86.6271 60.7888 106.654 60.7888Z" fill="#2E3646"/>
<path d="M106.658 63.7748C109.411 63.7748 111.79 65.2677 112.04 67.3827C112.04 67.2583 112.165 67.0095 112.165 66.885C112.165 64.6456 109.662 62.7795 106.658 62.7795C103.654 62.7795 101.15 64.6456 101.15 66.885C101.15 67.0095 101.15 67.2583 101.276 67.3827C101.651 65.2677 103.904 63.7748 106.658 63.7748Z" fill="#A9B2C7"/>
<path d="M78.4925 78.8284C79.2435 77.0867 81.3713 75.967 83.7495 75.967C84.2502 75.967 84.876 76.0914 85.5018 76.2158C87.6296 76.7134 89.0065 78.082 89.2568 79.5749C89.6323 77.7087 88.1303 75.8426 85.5018 75.2205C84.876 75.0961 84.3753 74.9717 83.7495 74.9717C81.3713 74.9717 79.2435 76.0914 78.4925 77.8331C78.2422 78.4552 78.2422 79.0773 78.2422 79.5749C78.2422 79.3261 78.3673 79.0773 78.4925 78.8284Z" fill="#A9B2C7"/>
<path d="M127.931 76.2158C128.557 76.0914 129.058 75.967 129.684 75.967C132.062 75.967 134.19 77.0867 134.941 78.8284C135.066 79.0773 135.066 79.3261 135.191 79.5749C135.316 78.9529 135.191 78.4552 134.941 77.8331C134.19 76.0914 132.062 74.9717 129.684 74.9717C129.183 74.9717 128.557 75.0961 127.931 75.2205C125.303 75.8426 123.801 77.7087 124.176 79.5749C124.427 78.082 125.803 76.7134 127.931 76.2158Z" fill="#A9B2C7"/>
<path d="M124.43 89.9011C125.181 88.1594 127.309 87.0397 129.687 87.0397C130.313 87.0397 130.814 87.1641 131.439 87.2885C133.567 87.7861 134.944 89.1547 135.194 90.6476C135.57 88.7814 134.068 86.9153 131.439 86.2932C130.814 86.1688 130.313 86.0444 129.687 86.0444C127.309 86.0444 125.181 87.1641 124.43 88.9059C124.18 89.5279 124.18 90.15 124.18 90.6476C124.305 90.3988 124.305 90.15 124.43 89.9011Z" fill="#A9B2C7"/>
<path d="M89.2586 67.8803C90.2599 67.3826 91.3864 67.1338 92.5129 67.1338C94.2652 67.1338 95.8924 67.7559 97.0189 68.7512C97.6447 69.3732 97.895 69.9953 98.0202 70.6173C98.2705 69.622 97.895 68.5024 97.0189 67.6315C95.8924 66.5118 94.2652 66.0141 92.5129 66.0141C91.3864 66.0141 90.2599 66.2629 89.2586 66.7606C87.6314 67.6315 86.8804 69.1244 87.0056 70.4929C87.2559 69.622 88.0069 68.6267 89.2586 67.8803Z" fill="#A9B2C7"/>
<path d="M116.418 68.8755C117.545 67.7558 119.172 67.2581 120.924 67.2581C122.051 67.2581 123.177 67.5069 124.179 68.0046C125.43 68.6266 126.181 69.6219 126.432 70.7416C126.682 69.3731 125.931 67.8802 124.179 67.0093C123.177 66.5116 122.051 66.2628 120.924 66.2628C119.172 66.2628 117.545 66.8849 116.418 67.8802C115.542 68.751 115.292 69.8708 115.417 70.8661C115.542 70.1196 115.792 69.3731 116.418 68.8755Z" fill="#A9B2C7"/>
<path d="M81.9963 87.2885C82.6221 87.1641 83.1227 87.0397 83.7486 87.0397C86.1267 87.0397 88.2546 88.1594 89.0056 89.9011C89.1307 90.15 89.1307 90.3988 89.2559 90.6476C89.381 90.0256 89.2559 89.5279 89.0056 88.9059C88.2546 87.1641 86.1267 86.0444 83.7486 86.0444C83.2479 86.0444 82.6221 86.1688 81.9963 86.2932C79.4929 86.9153 77.8658 88.7814 78.2413 90.6476C78.4916 89.1547 79.8684 87.7861 81.9963 87.2885Z" fill="#A9B2C7"/>
<path d="M88.0052 97.7391C89.1317 96.6194 90.7588 96.1217 92.5112 96.1217C93.6377 96.1217 94.7642 96.3706 95.7655 96.8682C97.0172 97.4903 97.7681 98.4855 98.0185 99.6053C98.2688 98.2367 97.5178 96.7438 95.7655 95.8729C94.7642 95.3753 93.6377 95.1265 92.5112 95.1265C90.7588 95.1265 89.1317 95.7485 88.0052 96.7438C87.129 97.6147 86.7535 98.7344 87.0039 99.7297C87.129 98.9832 87.5045 98.2367 88.0052 97.7391Z" fill="#A9B2C7"/>
<path d="M117.669 96.7436C118.67 96.246 119.797 95.9971 120.923 95.9971C122.675 95.9971 124.303 96.6192 125.429 97.6145C126.055 98.2366 126.305 98.8586 126.43 99.4807C126.681 98.4854 126.305 97.3657 125.429 96.4948C124.303 95.3751 122.675 94.8774 120.923 94.8774C119.797 94.8774 118.67 95.1263 117.669 95.6239C116.042 96.4948 115.291 97.9877 115.416 99.3563C115.666 98.4854 116.417 97.4901 117.669 96.7436Z" fill="#A9B2C7"/>
<path d="M106.658 99.4808C109.411 99.4808 111.79 100.974 112.04 102.964C112.04 102.84 112.165 102.591 112.165 102.467C112.165 100.227 109.662 98.3611 106.658 98.3611C103.654 98.3611 101.15 100.227 101.15 102.467C101.15 102.591 101.15 102.84 101.276 102.964C101.651 100.974 103.904 99.4808 106.658 99.4808Z" fill="#A9B2C7"/>
<path d="M106.653 58.0516C126.555 58.0516 142.576 69.8708 142.576 84.5513C142.576 99.2319 126.429 111.051 106.653 111.051C86.7517 111.051 70.7305 99.1075 70.7305 84.5513C70.7305 69.8708 86.7517 58.0516 106.653 58.0516ZM121.673 84.5513C121.673 78.4552 114.914 73.4787 106.653 73.4787C98.3921 73.4787 91.6332 78.4552 91.6332 84.5513C91.6332 90.6475 98.3921 95.6239 106.653 95.6239C114.914 95.6239 121.673 90.7719 121.673 84.5513ZM89.255 66.8849C86.7517 68.2534 86.251 70.7416 88.0034 72.6078C89.1299 73.7275 90.757 74.2251 92.5094 74.2251C93.6359 74.2251 94.7624 73.9763 95.7637 73.4787C98.267 72.1101 98.7677 69.6219 97.0153 67.7558C95.8888 66.6361 94.2617 66.1384 92.5094 66.1384C91.3829 66.1384 90.2564 66.3872 89.255 66.8849ZM116.416 67.7558C114.664 69.6219 115.164 72.1101 117.668 73.4787C118.669 73.9763 119.796 74.2251 120.922 74.2251C122.674 74.2251 124.302 73.6031 125.428 72.6078C127.18 70.7416 126.68 68.2534 124.176 66.8849C123.175 66.3872 122.049 66.1384 120.922 66.1384C119.17 66.1384 117.543 66.6361 116.416 67.7558ZM96.8902 101.471C98.6425 99.6051 98.1418 97.1169 95.6385 95.7484C94.6372 95.2507 93.5107 95.0019 92.3842 95.0019C90.6319 95.0019 89.0047 95.6239 87.8782 96.6192C86.1259 98.361 86.6265 100.974 89.1299 102.342C90.1312 102.84 91.2577 103.089 92.3842 103.089C94.1365 103.089 95.8888 102.467 96.8902 101.471ZM124.051 102.342C126.555 100.974 127.055 98.4854 125.303 96.6192C124.176 95.4995 122.549 95.0019 120.797 95.0019C119.67 95.0019 118.544 95.2507 117.543 95.7484C115.039 97.1169 114.539 99.6051 116.291 101.471C117.417 102.591 119.045 103.089 120.797 103.089C122.049 103.089 123.175 102.84 124.051 102.342ZM83.7477 94.131C84.2484 94.131 84.8742 94.0066 85.5 93.8822C88.3789 93.1357 90.0061 90.8963 89.0047 88.7813C88.2537 87.0395 86.1259 85.9198 83.7477 85.9198C83.2471 85.9198 82.6212 86.0442 81.9954 86.1687C79.1166 86.9151 77.4894 89.1545 78.4907 91.2695C79.2417 93.1357 81.3696 94.131 83.7477 94.131ZM134.815 91.394C135.817 89.279 134.19 86.9151 131.311 86.2931C130.685 86.1687 130.184 86.0442 129.559 86.0442C127.18 86.0442 125.053 87.164 124.302 88.9057C123.3 91.0207 124.927 93.3845 127.806 94.0066C128.432 94.131 128.933 94.2554 129.559 94.2554C131.937 94.131 134.064 93.1357 134.815 91.394ZM78.4907 77.8331C77.4894 79.9481 79.1166 82.3119 81.9954 82.9339C82.6212 83.0584 83.1219 83.1828 83.7477 83.1828C86.1259 83.1828 88.2537 82.0631 89.0047 80.3213C90.0061 78.2063 88.3789 75.8425 85.5 75.2205C84.8742 75.096 84.3736 74.9716 83.7477 74.9716C81.3696 74.9716 79.2417 76.0913 78.4907 77.8331ZM129.684 74.9716C129.183 74.9716 128.557 75.096 127.931 75.2205C125.053 75.9669 123.425 78.2063 124.427 80.3213C125.178 82.0631 127.306 83.1828 129.684 83.1828C130.31 83.1828 130.81 83.0584 131.436 82.9339C134.315 82.1875 135.942 79.9481 134.941 77.8331C134.064 76.0913 131.937 74.9716 129.684 74.9716ZM106.653 62.6549C103.649 62.6549 101.146 64.521 101.146 66.7604C101.146 68.9999 103.649 70.866 106.653 70.866C109.657 70.866 112.16 68.9999 112.16 66.7604C112.16 64.521 109.657 62.6549 106.653 62.6549ZM106.653 106.448C109.657 106.448 112.16 104.582 112.16 102.342C112.16 100.103 109.657 98.2366 106.653 98.2366C103.649 98.2366 101.146 100.103 101.146 102.342C101.146 104.706 103.649 106.448 106.653 106.448Z" fill="#E8EEFE"/>
<path d="M106.651 73.4787C114.912 73.4787 121.671 78.4552 121.671 84.5514C121.671 90.6475 114.912 95.624 106.651 95.624C98.3898 95.624 91.6309 90.6475 91.6309 84.5514C91.6309 78.4552 98.3898 73.4787 106.651 73.4787Z" fill="#33A78C"/>
<path d="M93.7587 85.6711C93.7587 79.5749 100.518 74.5984 108.779 74.5984C111.532 74.5984 114.161 75.2205 116.414 76.0913C113.785 74.474 110.406 73.4787 106.651 73.4787C98.3898 73.4787 91.6309 78.4552 91.6309 84.5514C91.6309 88.6569 94.6349 92.1404 99.0157 94.131C95.7614 92.1404 93.7587 89.0302 93.7587 85.6711Z" fill="#2E3646"/>
<path d="M142.576 84.5513V88.2837C142.576 93.8822 140.198 98.983 136.317 103.337C135.441 104.333 134.44 105.204 133.314 106.075C126.68 111.424 117.292 114.783 106.653 114.783C86.8769 114.783 70.7305 102.84 70.7305 88.2837V84.5513C70.7305 99.2319 86.8769 111.051 106.653 111.051C117.292 111.051 126.68 107.692 133.314 102.342C134.44 101.471 135.441 100.476 136.317 99.6051C140.323 95.3751 142.576 90.1499 142.576 84.5513Z" fill="#BCC4D6"/>
<path d="M128.182 95.9973C128.307 95.9973 128.433 95.9973 128.683 96.1217L136.318 99.7296L133.314 102.591L127.306 97.4902C126.68 96.7437 127.306 95.9973 128.182 95.9973Z" fill="#414042"/>
<path d="M136.318 99.6052V103.213C135.442 104.208 134.441 105.079 133.314 105.95V102.342L136.318 99.6052Z" fill="#231F20"/>
<path d="M120.674 18.6131V31.6763C120.674 34.5378 118.421 36.7771 115.542 36.7771H97.7689C94.8901 36.7771 92.6371 34.5378 92.6371 31.6763V18.6131C92.6371 16.3737 90.8848 14.6319 88.6318 14.6319H83.1245C80.8715 14.6319 79.1191 16.3737 79.1191 18.6131V40.5095H134.192V18.6131C134.192 16.3737 132.44 14.6319 130.187 14.6319H124.68C122.552 14.6319 120.674 16.3737 120.674 18.6131Z" fill="#33A78C"/>
<path d="M134.192 38.27H79.1191V40.5094H134.192V38.27Z" fill="#41B79B"/>
</svg>
