<svg width="465" height="518" viewBox="0 0 465 518" fill="none" xmlns="http://www.w3.org/2000/svg">
<path d="M395.994 280.426L312.474 248.842C306.697 246.66 303.791 240.205 305.974 234.439L349.697 118.83C351.88 113.053 358.334 110.147 364.1 112.329L417.069 132.36L442.095 190.13L410.408 273.925C408.214 279.702 401.76 282.608 395.994 280.426Z" fill="#F5F5F5"/>
<path d="M417.07 132.36L404.769 164.897C402.736 170.261 405.447 176.267 410.811 178.289L442.096 190.13L417.07 132.36Z" fill="#EBEBEB"/>
<path d="M404.108 167.917C404.108 167.917 400.708 175.658 408.713 181.642C409.012 181.872 409.333 182.067 409.655 182.262C413.468 184.536 438.552 199.49 438.781 198.87C439.034 198.204 442.089 190.13 442.089 190.13L410.804 178.3C410.804 178.3 403.097 175.084 404.108 167.917Z" fill="#E0E0E0"/>
<path d="M398.257 160.924C398.097 161.337 389.322 158.408 378.652 154.377C367.983 150.346 359.461 146.728 359.621 146.314C359.782 145.901 368.557 148.83 379.226 152.861C389.896 156.892 398.418 160.51 398.257 160.924Z" fill="#E0E0E0"/>
<path d="M416.256 188.763C416.096 189.177 401.728 184.135 384.167 177.496C366.606 170.858 352.491 165.127 352.652 164.713C352.813 164.3 367.169 169.342 384.741 175.98C402.302 182.619 416.417 188.338 416.256 188.763Z" fill="#E0E0E0"/>
<path d="M416.163 206.289C416.003 206.703 400.36 201.179 381.214 193.943C362.068 186.707 346.678 180.494 346.839 180.08C347 179.667 362.643 185.191 381.788 192.438C400.934 199.663 416.324 205.864 416.163 206.289Z" fill="#E0E0E0"/>
<path d="M410.702 220.784C410.542 221.197 394.899 215.673 375.753 208.437C356.607 201.201 341.217 194.988 341.378 194.575C341.539 194.161 357.182 199.685 376.327 206.932C395.462 214.157 410.863 220.359 410.702 220.784Z" fill="#E0E0E0"/>
<path d="M405.208 235.278C405.047 235.692 389.405 230.167 370.259 222.932C351.113 215.684 335.723 209.482 335.884 209.069C336.045 208.656 351.688 214.18 370.833 221.427C389.968 228.651 405.358 234.853 405.208 235.278Z" fill="#E0E0E0"/>
<path d="M399.728 249.772C399.567 250.186 383.924 244.661 364.779 237.426C345.633 230.179 330.243 223.977 330.404 223.563C330.564 223.15 346.207 228.674 365.353 235.921C384.499 243.145 399.889 249.347 399.728 249.772Z" fill="#E0E0E0"/>
<path d="M177.554 331.971L67.446 370.526C63.6329 371.859 59.4638 369.849 58.1315 366.047L2.88809 208.276C1.55581 204.463 3.56571 200.294 7.36729 198.961L117.475 160.406C121.288 159.074 125.457 161.084 126.79 164.885L182.033 322.656C183.365 326.469 181.367 330.638 177.554 331.971Z" fill="#EBEBEB"/>
<path d="M118.904 170.216L12.3828 207.518L67.1415 363.891L173.663 326.589L118.904 170.216Z" fill="#E0E0E0"/>
<path d="M116.994 169.471L10.4727 206.773L64.1875 360.165L170.709 322.863L116.994 169.471Z" fill="#FAFAFA"/>
<path d="M170.694 322.863C170.246 321.577 148.619 260.005 116.84 169.525L117.035 169.617C84.7274 180.93 48.5837 193.598 10.5335 206.921H10.522L10.6253 206.702C30.7013 264.323 49.3876 317.534 64.3068 360.098L64.1345 360.017C128.922 337.438 169.648 323.231 170.694 322.863C169.648 323.231 128.957 337.53 64.2264 360.293L64.1001 360.339L64.0541 360.213C49.135 317.637 30.4946 264.427 10.3152 206.829L10.2578 206.668L10.4186 206.611H10.4301C48.4803 193.288 84.6355 180.643 116.943 169.33L117.092 169.284L117.138 169.433C148.734 259.959 170.246 321.588 170.694 322.863Z" fill="#E0E0E0"/>
<path d="M132.916 336.094C132.916 336.094 156.633 316.087 160.744 295.253C160.744 295.253 154.164 305.578 140.462 307.462C140.462 307.462 139.991 329.341 132.916 336.094Z" fill="#E0E0E0"/>
<path d="M51.4353 253.976L45.8306 255.94C43.7862 256.652 41.5466 255.584 40.8231 253.528L38.8591 247.923C38.147 245.879 39.2151 243.639 41.271 242.916L46.8757 240.952C48.9201 240.24 51.1597 241.308 51.8832 243.364L53.8472 248.968C54.5593 251.013 53.4911 253.264 51.4353 253.976Z" fill="#EBEBEB"/>
<path d="M46.1971 250.611C46.1052 250.645 46.0018 250.634 45.9329 250.588L43.3603 249.095C43.211 249.003 43.1535 248.807 43.2454 248.658C43.3373 248.509 43.5325 248.451 43.6819 248.543L45.9444 249.853L48.6549 244.053C48.7353 243.892 48.9191 243.823 49.0799 243.903C49.2406 243.984 49.3096 244.167 49.2292 244.328L46.3694 250.45C46.3464 250.519 46.2775 250.588 46.1971 250.611Z" fill="white"/>
<path d="M119.753 217.212C119.787 217.304 105.947 222.219 88.8576 228.203C71.7562 234.187 57.8822 238.976 57.8477 238.884C57.8133 238.793 71.6528 233.877 88.7427 227.893C105.844 221.909 119.73 217.132 119.753 217.212Z" fill="#E0E0E0"/>
<path d="M87.2649 239.286C87.2763 239.309 86.9203 239.459 86.2657 239.711C85.5536 239.976 84.6233 240.32 83.4863 240.745C81.1318 241.595 77.8815 242.755 74.2867 244.018C70.6803 245.282 67.4186 246.407 65.0526 247.2C63.9041 247.579 62.9623 247.889 62.2388 248.13C61.5726 248.337 61.2051 248.452 61.1936 248.429C61.1821 248.406 61.5382 248.256 62.1928 248.004C62.9049 247.74 63.8352 247.395 64.9722 246.97C67.3267 246.12 70.577 244.96 74.1833 243.697C77.7781 242.433 81.0514 241.308 83.4173 240.515C84.5659 240.136 85.5076 239.826 86.2312 239.585C86.8859 239.367 87.2534 239.263 87.2649 239.286Z" fill="#E0E0E0"/>
<path d="M121.229 221.438C121.264 221.53 107.424 226.446 90.3341 232.43C73.2328 238.413 59.3587 243.203 59.3243 243.111C59.2898 243.019 73.1294 238.103 90.2193 232.119C107.321 226.136 121.195 221.346 121.229 221.438Z" fill="#E0E0E0"/>
<path d="M59.4392 276.831L53.8345 278.795C51.7901 279.507 49.5505 278.439 48.827 276.383L46.863 270.778C46.1509 268.734 47.2191 266.494 49.2749 265.77L54.8796 263.806C56.924 263.094 59.1636 264.163 59.8871 266.218L61.8511 271.823C62.5632 273.867 61.4836 276.107 59.4392 276.831Z" fill="#EBEBEB"/>
<path d="M54.2088 273.466C54.1973 273.466 54.1973 273.466 54.2088 273.466C54.1169 273.5 54.0136 273.488 53.9447 273.443L51.372 271.949C51.2227 271.858 51.1653 271.662 51.2571 271.513C51.349 271.364 51.5443 271.306 51.6936 271.398L53.9561 272.707L56.6666 266.908C56.747 266.747 56.9308 266.678 57.0916 266.747C57.2524 266.827 57.3213 267.011 57.2409 267.172L54.3811 273.293C54.3581 273.374 54.2892 273.431 54.2088 273.466Z" fill="white"/>
<path d="M127.743 240.067C127.777 240.159 113.938 245.074 96.8478 251.058C79.7464 257.042 65.8724 261.831 65.838 261.739C65.8035 261.647 79.6431 256.732 96.7329 250.748C113.834 244.764 127.72 239.987 127.743 240.067Z" fill="#E0E0E0"/>
<path d="M95.2785 262.141C95.29 262.164 94.934 262.314 94.2793 262.566C93.5673 262.831 92.637 263.175 91.4999 263.6C89.1455 264.45 85.8952 265.61 82.3003 266.873C78.694 268.137 75.4322 269.262 73.0663 270.055C71.9178 270.434 70.976 270.744 70.2524 270.985C69.5863 271.192 69.2188 271.307 69.2073 271.284C69.1958 271.261 69.5518 271.111 70.2065 270.859C70.9186 270.594 71.8489 270.25 72.9859 269.825C75.3404 268.975 78.5906 267.815 82.197 266.552C85.7918 265.288 89.0651 264.163 91.431 263.37C92.5795 262.991 93.5213 262.681 94.2449 262.44C94.8995 262.222 95.267 262.118 95.2785 262.141Z" fill="#E0E0E0"/>
<path d="M129.223 244.293C129.258 244.385 115.418 249.301 98.3283 255.285C81.2269 261.268 67.3529 266.058 67.3184 265.966C67.284 265.874 81.1236 260.958 98.2134 254.974C115.303 248.979 129.189 244.201 129.223 244.293Z" fill="#E0E0E0"/>
<path d="M67.4373 299.686L61.8325 301.65C59.7882 302.363 57.5486 301.294 56.825 299.239L54.8611 293.634C54.149 291.589 55.2171 289.35 57.2729 288.626L62.8777 286.662C64.922 285.95 67.1616 287.018 67.8852 289.074L69.8491 294.679C70.5612 296.723 69.4816 298.963 67.4373 299.686Z" fill="#EBEBEB"/>
<path d="M62.2069 296.321C62.1954 296.321 62.1954 296.321 62.2069 296.321C62.115 296.356 62.0116 296.344 61.9427 296.298L59.37 294.805C59.2207 294.714 59.1633 294.518 59.2552 294.369C59.3471 294.22 59.5423 294.162 59.6916 294.254L61.9542 295.563L64.6647 289.763C64.7451 289.603 64.9288 289.534 65.0896 289.614C65.2504 289.695 65.3193 289.878 65.2389 290.039L62.3791 296.161C62.3447 296.23 62.2873 296.287 62.2069 296.321Z" fill="white"/>
<path d="M135.764 262.923C135.799 263.015 121.959 267.93 104.869 273.914C87.7679 279.898 73.8939 284.687 73.8594 284.595C73.825 284.503 87.6646 279.588 104.754 273.604C121.856 267.62 135.73 262.842 135.764 262.923Z" fill="#E0E0E0"/>
<path d="M103.273 284.985C103.284 285.008 102.928 285.158 102.273 285.41C101.561 285.674 100.631 286.019 99.4941 286.444C97.1396 287.294 93.8893 288.454 90.2945 289.717C86.6881 290.981 83.4264 292.106 81.0604 292.899C79.9119 293.278 78.9701 293.588 78.2466 293.829C77.5804 294.036 77.2129 294.15 77.2014 294.128C77.19 294.105 77.546 293.955 78.2006 293.703C78.9127 293.438 79.843 293.094 80.98 292.669C83.3345 291.819 86.5848 290.659 90.1911 289.396C93.786 288.132 97.0592 287.007 99.4251 286.214C100.574 285.835 101.515 285.525 102.239 285.284C102.882 285.077 103.261 284.974 103.273 284.985Z" fill="#E0E0E0"/>
<path d="M137.237 267.149C137.271 267.241 123.432 272.156 106.342 278.14C89.2406 284.124 75.3666 288.913 75.3321 288.821C75.2976 288.729 89.1372 283.814 106.227 277.83C123.317 271.835 137.202 267.057 137.237 267.149Z" fill="#E0E0E0"/>
<path d="M75.4509 322.542L69.8462 324.506C67.8018 325.218 65.5622 324.15 64.8387 322.094L62.8747 316.489C62.1626 314.445 63.2308 312.205 65.2866 311.482L70.8913 309.518C72.9357 308.805 75.1753 309.874 75.8989 311.929L77.8628 317.534C78.5749 319.579 77.4953 321.818 75.4509 322.542Z" fill="#EBEBEB"/>
<path d="M70.2049 319.176C70.113 319.211 70.0097 319.199 69.9408 319.153L67.3681 317.66C67.2188 317.568 67.1613 317.373 67.2532 317.224C67.3451 317.075 67.5404 317.017 67.6897 317.109L69.9522 318.418L72.6627 312.618C72.7431 312.458 72.9269 312.389 73.0877 312.469C73.2485 312.549 73.3174 312.733 73.237 312.894L70.3772 319.016C70.3542 319.084 70.2853 319.142 70.2049 319.176Z" fill="white"/>
<path d="M143.762 285.778C143.797 285.87 129.957 290.785 112.867 296.769C95.766 302.753 81.8919 307.542 81.8575 307.45C81.823 307.358 95.6626 302.443 112.752 296.459C129.842 290.475 143.728 285.686 143.762 285.778Z" fill="#E0E0E0"/>
<path d="M111.275 307.841C111.286 307.864 110.93 308.013 110.275 308.266C109.563 308.53 108.633 308.874 107.496 309.299C105.142 310.149 101.891 311.309 98.2964 312.573C94.6901 313.836 91.4283 314.961 89.0624 315.754C87.9139 316.133 86.9721 316.443 86.2485 316.684C85.5824 316.891 85.2149 317.006 85.2034 316.983C85.1919 316.96 85.5479 316.811 86.2026 316.558C86.9147 316.294 87.845 315.949 88.982 315.524C91.3365 314.674 94.5867 313.514 98.1931 312.251C101.788 310.988 105.061 309.862 107.427 309.07C108.576 308.691 109.517 308.38 110.241 308.139C110.896 307.933 111.275 307.818 111.275 307.841Z" fill="#E0E0E0"/>
<path d="M145.249 290.004C145.283 290.096 131.444 295.012 114.354 300.995C97.2523 306.979 83.3783 311.768 83.3438 311.677C83.3094 311.585 97.1489 306.669 114.239 300.685C131.329 294.69 145.214 289.912 145.249 290.004Z" fill="#E0E0E0"/>
<path d="M22.5469 191.829L25.3607 199.858C26.9916 204.521 32.091 206.967 36.754 205.336L95.6727 184.709C100.336 183.078 102.782 177.978 101.151 173.315L98.3487 165.299L22.5469 191.829Z" fill="#E0E0E0"/>
<path d="M61.2169 180.942C56.8526 182.469 52.0633 180.161 50.5358 175.797C49.0083 171.432 51.3168 166.643 55.6811 165.115C60.0455 163.588 64.8348 165.896 66.3623 170.261C67.8783 174.625 65.5698 179.414 61.2169 180.942ZM56.7377 168.159C54.0502 169.101 52.6261 172.052 53.5679 174.74C54.5096 177.427 57.4613 178.852 60.1488 177.91C62.8363 176.968 64.2605 174.016 63.3187 171.329C62.3769 168.641 59.4253 167.217 56.7377 168.159Z" fill="#E0E0E0"/>
<path d="M108.315 201.776C108.373 201.925 92.8331 207.507 73.6185 214.237C54.4039 220.967 38.7841 226.296 38.7267 226.147C38.6693 225.998 54.2087 220.416 73.4233 213.686C92.6379 206.955 108.258 201.626 108.315 201.776Z" fill="#E0E0E0"/>
<path d="M88.4101 204.635C88.4675 204.785 81.6224 207.323 73.1349 210.298C64.6474 213.272 57.7218 215.558 57.6644 215.409C57.607 215.259 64.4521 212.721 72.9396 209.746C81.4386 206.772 88.3642 204.486 88.4101 204.635Z" fill="#E0E0E0"/>
<path d="M394.499 437.359C398.622 435.234 403.48 434.958 408.063 435.716C410.52 436.118 413.093 436.853 414.758 438.703C416.435 440.552 416.745 443.802 414.827 445.387C413.679 446.329 412.082 446.478 410.601 446.455C407.017 446.409 403.044 445.777 400.172 447.937C398.541 449.166 397.45 451.21 395.498 451.819C393.591 452.416 391.432 451.279 390.421 449.556C389.411 447.833 389.376 445.674 389.847 443.733C389.847 443.745 390.341 439.507 394.499 437.359Z" fill="#41B79B"/>
<path d="M385.047 419.121C387.574 422.727 392.466 421.532 394.741 419.327C397.015 417.134 397.979 413.941 398.852 410.897C400.851 403.949 402.861 396.667 401.379 389.592C400.931 387.479 400.139 385.366 398.657 383.804C397.175 382.23 394.89 381.3 392.8 381.851C390.33 382.506 388.791 384.929 387.677 387.226C384.415 393.991 382.681 401.502 382.658 409.014C382.658 412.54 383.072 416.215 385.047 419.121Z" fill="#41B79B"/>
<path d="M378.115 424.289C380.848 421.039 381.377 416.295 380.159 412.23C378.942 408.152 376.185 404.695 373.016 401.87C369.294 398.551 364.919 395.978 360.221 394.324C358.372 393.67 356.42 393.164 354.467 393.348C352.515 393.532 350.551 394.531 349.643 396.265C348.3 398.838 349.586 401.95 350.987 404.489C353.445 408.968 356.259 413.252 359.394 417.283C361.91 420.533 364.804 423.738 368.64 425.196C372.476 426.666 376.461 426.494 378.505 423.83" fill="#41B79B"/>
<path d="M384.884 473.457C384.93 473.457 385.01 472.871 385.114 471.814C385.229 470.62 385.378 469.127 385.55 467.347C385.757 465.463 386.032 463.235 386.561 460.789C387.078 458.354 387.893 455.724 388.938 453.059C390.018 450.406 391.339 447.994 392.889 446.065C394.417 444.124 396.208 442.723 397.885 441.919C399.55 441.092 401.055 440.759 402.089 440.609C403.134 440.506 403.72 440.414 403.72 440.368C403.72 440.322 403.134 440.311 402.066 440.345C400.998 440.414 399.447 440.69 397.678 441.482C395.91 442.263 394.015 443.687 392.407 445.674C390.787 447.65 389.421 450.108 388.318 452.818C387.25 455.54 386.446 458.193 385.952 460.674C385.458 463.155 385.229 465.417 385.079 467.312C384.941 469.207 384.884 470.746 384.861 471.803C384.815 472.871 384.838 473.457 384.884 473.457Z" fill="#263238"/>
<path d="M385.17 470.023C385.193 470.023 385.204 469.758 385.216 469.265C385.216 468.69 385.216 467.978 385.204 467.094C385.204 465.21 385.204 462.477 385.296 459.112C385.468 452.37 386.043 445.123 387.168 434.901C388.225 425.288 389.649 414.101 391.154 406.831C391.475 405.178 391.797 403.684 392.107 402.387C392.394 401.077 392.647 399.952 392.888 399.044C393.095 398.183 393.267 397.483 393.393 396.931C393.497 396.449 393.554 396.185 393.531 396.185C393.508 396.173 393.416 396.426 393.267 396.897C393.106 397.448 392.888 398.137 392.635 398.976C392.36 399.883 392.072 400.997 391.739 402.295C391.395 403.593 391.039 405.074 390.683 406.728C389.201 413.32 387.616 422.532 386.491 432.776C385.365 443.021 384.86 452.347 384.814 459.1C384.779 462.477 384.848 465.21 384.929 467.094C384.986 467.978 385.032 468.69 385.066 469.265C385.124 469.758 385.147 470.023 385.17 470.023Z" fill="#263238"/>
<path d="M385.211 452.037C385.257 452.037 385.245 451.233 385.2 449.763C385.119 448.304 384.912 446.202 384.51 443.618C384.074 441.045 383.465 437.979 382.512 434.66C382.099 433.144 381.122 429.503 378.768 424.059C375.667 416.685 371.44 410.667 367.765 406.935C366.904 405.947 365.95 405.235 365.181 404.534C364.779 404.201 364.434 403.868 364.078 403.604C363.722 403.351 363.389 403.122 363.079 402.915C361.873 402.088 361.196 401.651 361.173 401.697C361.069 401.847 363.883 403.501 367.432 407.279C370.969 411.058 375.07 417.042 378.159 424.346C379.882 428.308 381.076 431.846 381.926 434.843C382.914 438.14 383.557 441.16 384.051 443.71C384.522 446.271 384.786 448.35 384.958 449.797C385.073 451.233 385.165 452.037 385.211 452.037Z" fill="#263238"/>
<path d="M367.844 483.77L369.647 508.463H401.38L403.184 483.77H367.844Z" fill="#263238"/>
<path d="M406.99 474.031H364.805V483.77H406.99V474.031Z" fill="#263238"/>
<path d="M364.805 507.51V510.209H366.78H406.278V507.51H364.805Z" fill="#455A64"/>
<path d="M368.693 514.964L366.752 510.209H404.745L402.482 514.964H368.693Z" fill="#455A64"/>
<path d="M402.595 491.833C402.606 491.833 402.549 491.913 402.445 492.062C402.319 492.235 402.158 492.441 401.975 492.694C401.527 493.268 400.906 494.061 400.125 495.06L400.045 495.163L399.965 495.048C398.805 493.441 397.254 491.293 395.428 488.766H395.692C394.337 490.684 392.832 492.809 391.225 495.094L391.087 495.29L390.926 495.106C389.272 493.142 387.48 491.017 385.62 488.801H385.93C385.838 488.915 385.735 489.042 385.643 489.168C384 491.224 382.404 493.222 380.899 495.106L380.739 495.301L380.589 495.094C378.981 492.82 377.477 490.684 376.122 488.766L376.386 488.778C374.181 491.293 372.309 493.418 370.873 495.048L370.77 495.163L370.701 495.037C369.977 493.82 369.391 492.843 368.978 492.143C368.794 491.833 368.656 491.568 368.53 491.373C368.438 491.201 368.381 491.098 368.392 491.098C368.404 491.098 368.461 491.178 368.576 491.339C368.702 491.534 368.863 491.775 369.07 492.085C369.506 492.774 370.115 493.728 370.884 494.934L370.712 494.922C372.125 493.268 373.962 491.109 376.133 488.571L376.271 488.41L376.397 488.582C377.764 490.5 379.291 492.614 380.911 494.888L380.612 494.876C382.117 492.981 383.702 490.994 385.344 488.927C385.448 488.801 385.539 488.674 385.631 488.559L385.781 488.376L385.941 488.559C387.802 490.776 389.582 492.912 391.225 494.876L390.926 494.888C392.557 492.614 394.073 490.489 395.44 488.594L395.577 488.41L395.704 488.594C397.495 491.144 399.011 493.314 400.148 494.945H399.988C400.803 493.969 401.446 493.199 401.906 492.637C402.112 492.395 402.285 492.2 402.423 492.039C402.526 491.902 402.595 491.833 402.595 491.833Z" fill="#E0E0E0"/>
<path d="M403.629 483.598C403.629 483.713 395.681 483.793 385.873 483.793C376.065 483.793 368.117 483.701 368.117 483.598C368.117 483.494 376.065 483.403 385.873 483.403C395.681 483.403 403.629 483.494 403.629 483.598Z" fill="#455A64"/>
<path d="M405.233 510.485C405.233 510.599 396.596 510.68 385.938 510.68C375.279 510.68 366.643 510.588 366.643 510.485C366.643 510.381 375.279 510.289 385.938 510.289C396.584 510.278 405.233 510.37 405.233 510.485Z" fill="#263238"/>
<path d="M92.2646 431.696C92.1727 431.8 91.4492 431.375 90.6452 430.72C89.8412 430.077 89.2555 429.468 89.3474 429.353C89.4393 429.25 90.1628 429.686 90.9668 430.329C91.7707 430.973 92.345 431.581 92.2646 431.696Z" fill="#263238"/>
<path d="M114.262 398.814C114.4 395.736 114.481 392.589 113.516 389.672C112.551 386.755 110.3 384.067 107.279 383.447C103.845 382.735 100.319 384.906 98.3899 387.835C96.4604 390.763 95.8058 394.335 95.2315 397.792C91.3151 421.658 89.868 445.926 90.9246 470.091L104.994 472.066C111.173 446.834 113.148 424.771 114.262 398.814Z" fill="#455A64"/>
<path d="M105.331 383.332C105.342 383.332 105.319 383.413 105.262 383.562C105.204 383.734 105.124 383.941 105.032 384.205C104.802 384.802 104.492 385.606 104.09 386.64C103.895 387.168 103.631 387.743 103.424 388.397C103.217 389.052 102.988 389.764 102.746 390.522C102.505 391.292 102.241 392.107 101.954 392.968C101.724 393.853 101.483 394.783 101.23 395.759C100.174 399.653 99.2894 404.396 98.5084 409.679C97.7503 414.974 97.245 420.831 96.8545 426.987C96.1309 439.311 96.0276 450.497 95.706 458.583C95.5567 462.626 95.4189 465.899 95.2581 468.162C95.1892 469.253 95.1202 470.125 95.0858 470.757C95.0628 471.033 95.0399 471.251 95.0284 471.435C95.0169 471.584 95.0054 471.665 94.9939 471.665C94.9824 471.665 94.9824 471.584 94.9824 471.435C94.9824 471.251 94.9824 471.033 94.9939 470.757C95.0169 470.125 95.0398 469.253 95.0743 468.15C95.1662 465.887 95.2581 462.614 95.3614 458.571C95.5911 450.486 95.6486 439.299 96.3606 426.953C96.7511 420.785 97.268 414.917 98.0604 409.61C98.8644 404.316 99.7832 399.572 100.897 395.667C101.161 394.691 101.414 393.761 101.655 392.877C101.942 392.015 102.23 391.2 102.482 390.43C102.746 389.672 102.988 388.96 103.206 388.305C103.424 387.651 103.7 387.088 103.918 386.56C104.354 385.549 104.699 384.745 104.94 384.159C105.055 383.907 105.147 383.711 105.216 383.539C105.285 383.401 105.319 383.332 105.331 383.332Z" fill="#263238"/>
<path d="M106.63 383.344C106.63 383.344 107.491 384.228 108.352 386.25C109.237 388.26 109.788 391.453 109.639 395.346C109.26 403.121 108.571 413.826 107.64 425.655C106.71 437.485 105.676 448.166 104.849 455.896C104.436 459.755 104.08 462.879 103.816 465.038C103.678 466.083 103.574 466.91 103.494 467.519C103.46 467.771 103.425 467.989 103.402 468.162C103.379 468.311 103.356 468.38 103.356 468.38C103.345 468.38 103.345 468.299 103.356 468.162C103.368 467.989 103.379 467.771 103.402 467.507C103.46 466.898 103.529 466.06 103.632 465.015C103.839 462.81 104.149 459.686 104.516 455.85C105.251 448.12 106.228 437.427 107.158 425.598C108.077 413.78 108.835 403.064 109.294 395.323C109.489 391.453 109.007 388.317 108.18 386.307C107.376 384.309 106.572 383.378 106.63 383.344Z" fill="#263238"/>
<path d="M116.387 419.74C116.341 419.866 115.146 419.568 113.722 419.051C112.298 418.534 111.184 418.017 111.23 417.891C111.276 417.765 112.47 418.063 113.894 418.58C115.319 419.085 116.433 419.614 116.387 419.74Z" fill="#263238"/>
<path d="M118.074 405.407C118.132 405.533 116.995 406.165 115.536 406.82C114.077 407.474 112.849 407.899 112.791 407.773C112.734 407.646 113.871 407.015 115.329 406.36C116.788 405.705 118.017 405.281 118.074 405.407Z" fill="#263238"/>
<path d="M117.198 393.703C117.187 393.841 116.245 393.887 115.097 393.807C113.948 393.726 113.029 393.554 113.029 393.416C113.041 393.278 113.983 393.232 115.131 393.313C116.28 393.393 117.21 393.565 117.198 393.703Z" fill="#263238"/>
<path d="M102.68 386.215C102.565 386.284 101.945 385.526 101.302 384.504C100.659 383.482 100.234 382.597 100.349 382.517C100.464 382.448 101.084 383.206 101.727 384.228C102.382 385.25 102.807 386.135 102.68 386.215Z" fill="#263238"/>
<path d="M97.8935 393.29C97.8935 393.428 96.9977 393.52 95.8951 393.497C94.7926 393.474 93.9082 393.347 93.9082 393.198C93.9082 393.06 94.804 392.968 95.9066 392.991C97.0092 393.014 97.8935 393.152 97.8935 393.29Z" fill="#263238"/>
<path d="M94.4415 407.44C94.3841 407.566 93.4538 407.314 92.3397 406.866C91.2257 406.418 90.3758 405.947 90.4217 405.82C90.4791 405.694 91.4094 405.947 92.5235 406.395C93.6375 406.843 94.4874 407.314 94.4415 407.44Z" fill="#263238"/>
<path d="M94.0818 419.338C94.1047 419.476 93.3122 419.752 92.2901 419.97C91.2679 420.188 90.4295 420.246 90.395 420.108C90.372 419.97 91.1645 419.694 92.1867 419.476C93.2089 419.269 94.0473 419.212 94.0818 419.338Z" fill="#263238"/>
<path d="M92.4527 438.817C92.4757 438.955 91.6258 439.219 90.5577 439.414C89.4781 439.61 88.5937 439.656 88.5708 439.518C88.5478 439.38 89.3977 439.116 90.4658 438.92C91.5339 438.725 92.4298 438.679 92.4527 438.817Z" fill="#263238"/>
<path d="M91.3671 449.567C91.436 449.693 90.7239 450.187 89.7822 450.693C88.8404 451.187 88.0249 451.497 87.9675 451.37C87.8986 451.244 88.6107 450.75 89.5524 450.245C90.4942 449.739 91.2982 449.441 91.3671 449.567Z" fill="#263238"/>
<path d="M100.153 461.764C100.038 461.833 99.4177 460.983 98.7746 459.858C98.1314 458.732 97.7065 457.768 97.8328 457.699C97.9476 457.63 98.5679 458.48 99.211 459.605C99.8542 460.731 100.279 461.695 100.153 461.764Z" fill="#263238"/>
<path d="M102.687 441.493C102.778 441.596 102.101 442.423 101.148 443.354C100.206 444.284 99.3558 444.95 99.2525 444.858C99.1606 444.755 99.8382 443.928 100.791 442.998C101.745 442.067 102.583 441.39 102.687 441.493Z" fill="#263238"/>
<path d="M102.124 430.846C102.021 430.938 101.389 430.421 100.7 429.675C100.011 428.94 99.5398 428.262 99.6431 428.159C99.7465 428.067 100.378 428.584 101.067 429.33C101.756 430.077 102.227 430.754 102.124 430.846Z" fill="#263238"/>
<path d="M103.866 417.259C103.97 417.351 103.395 418.167 102.58 419.063C101.764 419.97 101.029 420.624 100.926 420.533C100.823 420.441 101.397 419.625 102.212 418.729C103.016 417.822 103.763 417.167 103.866 417.259Z" fill="#263238"/>
<path d="M104.855 407.394C104.764 407.497 103.96 406.866 103.064 405.993C102.168 405.12 101.525 404.327 101.628 404.224C101.72 404.121 102.524 404.752 103.42 405.625C104.304 406.51 104.947 407.302 104.855 407.394Z" fill="#263238"/>
<path d="M106.779 394.059C106.894 394.128 106.492 395.024 105.883 396.058C105.263 397.091 104.677 397.872 104.551 397.792C104.436 397.723 104.838 396.827 105.447 395.794C106.055 394.771 106.653 393.99 106.779 394.059Z" fill="#263238"/>
<path d="M110.4 381.701C110.526 381.77 110.17 382.666 109.608 383.7C109.045 384.733 108.494 385.526 108.367 385.457C108.241 385.388 108.597 384.492 109.16 383.458C109.723 382.425 110.274 381.644 110.4 381.701Z" fill="#263238"/>
<path d="M114.511 387.318C114.569 387.444 114.006 387.835 113.259 388.202C112.501 388.558 111.847 388.753 111.789 388.627C111.732 388.501 112.295 388.11 113.041 387.743C113.788 387.387 114.454 387.191 114.511 387.318Z" fill="#263238"/>
<path d="M114.598 431.696C114.575 431.823 113.3 431.65 111.841 431.03C110.394 430.41 109.384 429.617 109.453 429.503C109.533 429.376 110.636 429.973 112.037 430.571C113.449 431.168 114.632 431.558 114.598 431.696Z" fill="#263238"/>
<path d="M112.923 441.091C112.946 441.229 112.108 441.505 111.028 441.711C109.96 441.918 109.064 441.976 109.041 441.838C109.019 441.7 109.857 441.424 110.937 441.218C112.005 441.011 112.9 440.953 112.923 441.091Z" fill="#263238"/>
<path d="M110.85 457.205C110.77 457.308 109.69 456.573 108.714 455.321C107.727 454.081 107.256 452.863 107.37 452.806C107.497 452.737 108.151 453.805 109.105 455.011C110.058 456.217 110.954 457.101 110.85 457.205Z" fill="#263238"/>
<path d="M88.2597 464.578C88.1678 464.475 88.742 463.831 89.5345 463.154C90.327 462.476 91.0505 462.005 91.1424 462.109C91.2343 462.212 90.6601 462.855 89.8676 463.533C89.0636 464.222 88.3515 464.681 88.2597 464.578Z" fill="#263238"/>
<path d="M81.7628 429.411C80.844 426.551 79.1328 423.22 76.1236 423.174C74.3435 423.152 72.7355 424.426 71.9086 426C71.0702 427.573 70.7142 429.399 70.7716 431.18C71.1161 442.94 73.149 456.389 77.2262 468.644H88.206C88.0567 455.023 85.909 442.366 81.7628 429.411Z" fill="#455A64"/>
<path d="M61.9072 411.414C60.3682 405.269 55.7971 401.961 50.4795 401.651C45.6213 402.501 43.7377 407.279 43.1635 412.172C42.5892 417.064 44.1053 421.934 45.6098 426.632C50.4336 441.7 55.2458 456.768 60.0696 471.848C64.6177 471.355 69.1773 470.849 73.7254 470.355C69.3955 450.165 66.9147 431.444 61.9072 411.414Z" fill="#455A64"/>
<path d="M76.1332 423.174C76.1791 423.209 75.6852 423.668 75.2029 424.725C74.732 425.793 74.5023 427.493 74.686 429.583C74.9043 431.673 75.134 434.189 75.49 436.933C75.846 439.69 76.3399 442.71 76.9601 445.869C78.2005 452.174 79.6017 457.836 80.486 461.96C80.934 464.027 81.2785 465.692 81.4852 466.852C81.5771 467.381 81.6575 467.828 81.7149 468.196C81.7609 468.506 81.7839 468.667 81.7609 468.667C81.7379 468.667 81.692 468.518 81.6116 468.219C81.5197 467.863 81.4163 467.426 81.29 466.898C81.0029 465.669 80.6124 464.038 80.13 462.04C79.1538 457.94 77.6951 452.289 76.4547 445.961C75.8346 442.802 75.3522 439.759 75.0191 436.991C74.8468 435.601 74.732 434.28 74.6171 433.04C74.5138 431.811 74.3874 430.663 74.3185 429.594C74.1692 427.481 74.4563 425.713 75.0076 424.633C75.5704 423.576 76.1332 423.174 76.1332 423.174Z" fill="#263238"/>
<path d="M50.6762 401.261C50.7221 401.307 49.9526 401.95 49.0223 403.477C48.1035 404.982 47.1273 407.44 46.9435 410.621C46.7368 413.802 47.4489 417.57 48.6318 421.624C49.8263 425.69 51.1471 430.146 52.5253 434.832C55.2473 444.192 57.7166 452.668 59.5197 458.87C60.3811 461.914 61.0817 464.395 61.5871 466.175C61.8053 467.002 61.989 467.668 62.1269 468.162C62.2417 468.621 62.2991 468.862 62.2762 468.862C62.2647 468.862 62.1728 468.633 62.0235 468.185C61.8627 467.691 61.656 467.036 61.3918 466.221C60.852 464.452 60.094 461.994 59.1752 458.962C57.3376 452.772 54.8223 444.318 52.0429 434.97C50.6762 430.284 49.3669 425.816 48.1839 421.739C47.0124 417.673 46.3233 413.825 46.5875 410.587C46.8172 407.348 47.8623 404.856 48.85 403.363C49.8492 401.858 50.6762 401.261 50.6762 401.261Z" fill="#263238"/>
<path d="M70.7258 468.897C70.7143 468.908 70.5994 468.679 70.4157 468.242C70.2319 467.806 69.9448 467.162 69.6347 466.324C68.98 464.647 68.1531 462.178 67.2802 459.066C66.4074 455.965 65.5575 452.22 64.7305 448.051C63.9381 443.871 63.0652 439.277 62.1579 434.464C61.2046 429.652 60.148 425.104 58.919 421.038C57.6901 416.972 56.3234 413.401 54.9337 410.506C53.5555 407.612 52.2347 405.373 51.247 403.868C50.7761 403.098 50.3511 402.547 50.0985 402.145C49.8343 401.755 49.708 401.537 49.7195 401.525C49.731 401.514 49.8917 401.709 50.1789 402.076C50.4545 402.455 50.9139 402.995 51.4078 403.742C52.4529 405.212 53.8197 407.44 55.2438 410.334C56.6795 413.228 58.0921 416.8 59.344 420.877C60.6074 424.955 61.6755 429.514 62.6287 434.338C63.5246 439.162 64.386 443.756 65.167 447.936C65.9709 452.106 66.7749 455.85 67.6018 458.951C68.4173 462.052 69.1982 464.532 69.7955 466.232C70.0711 467.082 70.3353 467.737 70.4846 468.185C70.6683 468.644 70.7487 468.885 70.7258 468.897Z" fill="#263238"/>
<path d="M45.851 424.381C45.8854 424.518 45.1389 424.817 44.1856 425.047C43.2324 425.276 42.4399 425.357 42.4054 425.219C42.371 425.081 43.1175 424.782 44.0708 424.553C45.0241 424.323 45.8165 424.243 45.851 424.381Z" fill="#263238"/>
<path d="M44.4043 415.054C44.3928 415.192 43.3591 415.25 42.0958 415.307C40.8324 415.353 39.7987 415.376 39.7758 415.238C39.7528 415.1 40.7865 414.848 42.0728 414.802C43.3706 414.744 44.4158 414.917 44.4043 415.054Z" fill="#263238"/>
<path d="M45.9447 406.533C45.8528 406.636 45.1177 406.154 44.2908 405.453C43.4639 404.752 42.8667 404.098 42.9585 403.994C43.0504 403.891 43.7855 404.373 44.6124 405.074C45.4393 405.775 46.0366 406.429 45.9447 406.533Z" fill="#263238"/>
<path d="M50.1064 398.654C50.2442 398.688 50.2098 399.354 50.1868 400.147C50.1638 400.951 50.1638 401.617 50.026 401.64C49.8882 401.663 49.6585 400.997 49.6929 400.135C49.7044 399.274 49.9686 398.619 50.1064 398.654Z" fill="#263238"/>
<path d="M58.6245 402.364C58.7393 402.444 58.4063 403.122 57.878 403.868C57.3496 404.615 56.8328 405.166 56.718 405.086C56.6031 405.005 56.9362 404.327 57.4645 403.581C57.9928 402.834 58.5096 402.283 58.6245 402.364Z" fill="#263238"/>
<path d="M64.1401 411.965C64.1975 412.091 63.4855 412.505 62.5552 412.884C61.6249 413.263 60.8324 413.458 60.7864 413.332C60.729 413.205 61.4411 412.792 62.3714 412.413C63.3017 412.045 64.0942 411.838 64.1401 411.965Z" fill="#263238"/>
<path d="M67.5055 421.842C67.5629 421.969 66.6211 422.497 65.3348 422.784C64.0484 423.083 62.9803 423.002 62.9688 422.864C62.9574 422.727 63.991 422.577 65.2199 422.29C66.4603 422.026 67.448 421.716 67.5055 421.842Z" fill="#263238"/>
<path d="M52.1083 419.04C51.9705 418.994 52.0738 418.316 52.3265 417.513C52.5792 416.709 52.8893 416.1 53.0156 416.134C53.1534 416.18 53.0501 416.858 52.7974 417.662C52.5562 418.466 52.2461 419.086 52.1083 419.04Z" fill="#263238"/>
<path d="M54.2513 431.444C54.125 431.386 54.4006 430.467 54.8715 429.388C55.3424 428.308 55.8248 427.481 55.9511 427.539C56.0775 427.596 55.8018 428.515 55.3309 429.595C54.8601 430.674 54.3777 431.501 54.2513 431.444Z" fill="#263238"/>
<path d="M48.9525 434.843C48.8951 434.97 48.0337 434.74 46.9886 434.407C45.9434 434.074 45.0935 433.775 45.128 433.638C45.1509 433.5 46.0697 433.592 47.1379 433.925C48.206 434.258 49.0099 434.717 48.9525 434.843Z" fill="#263238"/>
<path d="M52.0088 444.95C52.0892 445.065 51.5035 445.616 50.6995 446.19C49.8956 446.765 49.1835 447.132 49.1031 447.017C49.0227 446.903 49.6084 446.351 50.4124 445.777C51.2163 445.214 51.9284 444.835 52.0088 444.95Z" fill="#263238"/>
<path d="M54.4681 455.034C54.5026 455.172 53.779 455.459 52.8487 455.689C51.9184 455.919 51.1489 455.987 51.1145 455.85C51.08 455.712 51.8036 455.425 52.7339 455.195C53.6527 454.965 54.4337 454.896 54.4681 455.034Z" fill="#263238"/>
<path d="M67.7644 430.272C67.8333 430.387 67.2131 430.881 66.3173 431.226C65.4215 431.57 64.629 431.605 64.606 431.467C64.583 431.329 65.2836 431.076 66.145 430.755C66.9949 430.422 67.6955 430.146 67.7644 430.272Z" fill="#263238"/>
<path d="M69.6695 445.949C69.612 446.076 68.877 445.857 68.0271 445.456C67.1772 445.054 66.534 444.629 66.5915 444.502C66.6489 444.376 67.3839 444.594 68.2338 444.996C69.0952 445.398 69.7384 445.823 69.6695 445.949Z" fill="#263238"/>
<path d="M73.0333 457.182C72.9873 457.308 72.0111 457.056 70.8626 456.596C69.7141 456.148 68.8182 455.678 68.8757 455.551C68.9216 455.425 69.8978 455.678 71.0463 456.137C72.1834 456.573 73.0792 457.044 73.0333 457.182Z" fill="#263238"/>
<path d="M55.0115 465.968C54.9426 465.842 55.8385 465.245 56.8721 464.418C57.9058 463.602 58.7098 462.879 58.8131 462.971C58.9165 463.063 58.2618 463.97 57.1822 464.808C56.1026 465.67 55.069 466.095 55.0115 465.968Z" fill="#263238"/>
<path d="M63.8747 460.26C63.7369 460.271 63.5416 459.525 63.1971 458.652C62.864 457.768 62.4965 457.09 62.6113 456.998C62.7147 456.918 63.3004 457.515 63.668 458.468C64.0355 459.41 64.0125 460.248 63.8747 460.26Z" fill="#263238"/>
<path d="M61.526 446.765C61.4456 446.88 60.8714 446.604 60.2512 446.156C59.6195 445.708 59.183 445.249 59.2634 445.134C59.3438 445.019 59.9181 445.295 60.5383 445.743C61.1585 446.191 61.6064 446.65 61.526 446.765Z" fill="#263238"/>
<path d="M82.2125 425.609C82.2929 425.724 81.7416 426.275 80.9606 426.838C80.1911 427.412 79.502 427.78 79.4101 427.665C79.3297 427.55 79.881 426.999 80.662 426.436C81.4315 425.873 82.1321 425.494 82.2125 425.609Z" fill="#263238"/>
<path d="M85.3222 434.132C85.3336 434.269 84.4608 434.453 83.3812 434.327C82.3016 434.212 81.4861 433.844 81.5206 433.718C81.5665 433.58 82.4049 433.718 83.4271 433.833C84.4608 433.948 85.3107 433.994 85.3222 434.132Z" fill="#263238"/>
<path d="M71.921 436.049C71.9554 436.187 71.14 436.474 70.0948 436.543C69.0497 436.612 68.2113 436.44 68.2228 436.302C68.2343 436.164 69.0612 436.118 70.0604 436.049C71.0711 435.969 71.898 435.911 71.921 436.049Z" fill="#263238"/>
<path d="M73.0814 427.987C73.0699 428.124 72.2545 428.136 71.3586 427.722C70.4628 427.309 69.946 426.677 70.0378 426.585C70.1297 426.482 70.7499 426.896 71.5654 427.263C72.3808 427.654 73.0929 427.849 73.0814 427.987Z" fill="#263238"/>
<path d="M86.4709 443.285C86.402 443.4 85.5636 443.009 84.5989 442.401C83.6341 441.792 82.922 441.218 82.9909 441.091C83.0598 440.977 83.8983 441.367 84.863 441.976C85.8278 442.585 86.5513 443.17 86.4709 443.285Z" fill="#263238"/>
<path d="M119.167 467.197H47.6719V479.865H119.167V467.197Z" fill="#41B79B"/>
<path d="M53.0117 477.361L61.706 515.228H104.316L113.837 477.361H53.0117Z" fill="#41B79B"/>
<path d="M119.132 479.888C119.132 480.026 103.007 480.14 83.115 480.14C63.2228 480.14 47.0977 480.026 47.0977 479.888C47.0977 479.75 63.2228 479.635 83.115 479.635C103.007 479.635 119.132 479.75 119.132 479.888Z" fill="#263238"/>
<path d="M79.3756 436.325C79.2607 436.394 78.7668 435.831 78.2845 435.05C77.8021 434.269 77.5035 433.58 77.6183 433.511C77.7332 433.442 78.227 434.005 78.7094 434.786C79.1918 435.556 79.4904 436.245 79.3756 436.325Z" fill="#263238"/>
<path d="M79.3964 446.512C79.27 446.466 79.4308 445.605 79.7754 444.583C80.1085 443.561 80.499 442.768 80.6253 442.814C80.7516 442.86 80.5908 443.722 80.2463 444.744C79.9132 445.766 79.5342 446.558 79.3964 446.512Z" fill="#263238"/>
<path d="M82.884 457.217C82.7577 457.274 82.2294 456.424 81.6896 455.31C81.1613 454.196 80.8282 453.243 80.9545 453.185C81.0809 453.128 81.6092 453.978 82.149 455.092C82.6773 456.206 83.0104 457.159 82.884 457.217Z" fill="#263238"/>
<path d="M75.3377 465.83C75.2344 465.738 75.6593 465.072 76.291 464.349C76.9227 463.625 77.5199 463.108 77.6233 463.2C77.7267 463.292 77.3017 463.958 76.67 464.682C76.0383 465.405 75.4411 465.922 75.3377 465.83Z" fill="#263238"/>
<path d="M73.7543 450.199C73.7313 450.337 73.0422 450.325 72.2153 450.187C71.3884 450.038 70.7452 449.808 70.7682 449.682C70.7911 449.544 71.4802 449.556 72.3072 449.694C73.1226 449.831 73.7773 450.061 73.7543 450.199Z" fill="#263238"/>
<path d="M322.5 380.117H152.957V515.319H322.5V380.117Z" fill="#E0E0E0"/>
<g opacity="0.3">
<path d="M165.301 380.392C185.262 387.513 207.279 389.029 228.699 389.431C233.132 389.512 237.623 389.512 241.918 390.626C246.213 391.74 250.371 394.152 252.576 397.999C254.977 402.191 254.724 407.44 253.357 412.068C251.991 416.697 249.636 420.969 247.925 425.495C244.927 433.419 243.997 442.125 245.249 450.498C245.777 454.058 246.73 457.641 248.786 460.605C250.842 463.556 254.161 465.807 257.768 465.865C264.211 465.957 268.621 459.628 271.814 454.024C284.918 431.065 299.091 404.971 307.475 379.91L165.301 380.392Z" fill="black"/>
</g>
<path d="M210.73 514.596C210.569 514.596 210.432 484.631 210.432 447.672C210.432 410.702 210.569 380.737 210.73 380.737C210.891 380.737 211.029 410.702 211.029 447.672C211.029 484.631 210.891 514.596 210.73 514.596Z" fill="#455A64"/>
<path d="M280.192 280.196C279.687 276.831 269.614 265.679 269.614 265.679C269.614 265.679 264.573 245.453 263.068 239.493C262.689 238 261.885 236.311 260.874 234.611C257.36 228.651 252.203 223.815 246.162 220.416L232.219 212.572L228.877 205.152L195.375 187.936L186.29 203.958C186.29 203.958 164.227 210.975 161.31 215.983C158.393 220.99 162.757 288.109 162.757 288.109C162.757 288.109 153.523 326.837 151.57 334.854C149.629 342.87 152.202 352.426 152.202 352.426L168.637 331.799C173.748 325.39 184.958 322.45 193.009 322.565L261.816 322.863L259.083 303.591L314.717 314.41C314.717 314.41 324.295 295.747 325.042 295.368C325.788 295 280.192 280.196 280.192 280.196Z" fill="#41B79B"/>
<path d="M193.939 210.263C193.456 209.769 197.832 224.539 203.311 239.573C206.262 247.67 207.744 256.261 207.744 264.921V298.021V319.36L240.741 317.121L235.813 281.264C235.813 281.264 231.794 258.133 230.668 249.335C229.635 241.284 226.097 219.44 226.097 219.44C226.097 219.44 207.755 224.332 193.939 210.263Z" fill="white"/>
<path d="M267.144 293.725C267.109 293.725 267.098 293.427 267.144 292.898C267.19 292.37 267.316 291.601 267.58 290.682C268.085 288.844 269.268 286.375 271.347 284.285C273.437 282.194 275.907 281.011 277.744 280.495C278.663 280.23 279.433 280.104 279.961 280.058C280.489 280.012 280.788 280.024 280.788 280.058C280.799 280.161 279.628 280.288 277.871 280.897C276.113 281.494 273.77 282.688 271.772 284.698C269.774 286.708 268.579 289.051 267.982 290.808C267.373 292.565 267.247 293.737 267.144 293.725Z" fill="#263238"/>
<path d="M268.851 280.656C268.782 280.529 270.941 279.427 273.893 279.197C276.833 278.944 279.153 279.668 279.096 279.817C279.061 280.001 276.764 279.553 273.939 279.794C271.102 280.012 268.92 280.828 268.851 280.656Z" fill="#263238"/>
<g opacity="0.3">
<path d="M159.436 310.368L156.576 313.618C159.643 317.19 163.628 320.176 168.199 321.301C172.77 322.427 177.514 322.553 182.222 322.576C184.129 322.576 186.058 322.565 187.896 322.036C189.768 321.497 191.502 320.44 193.443 320.325C194.741 320.245 196.016 320.601 197.291 320.876C198.566 321.152 199.91 321.336 201.15 320.934C202.39 320.532 203.47 319.383 203.39 318.086C189.079 313.905 174.309 311.309 159.436 310.368Z" fill="black"/>
</g>
<path d="M253.608 314.525L245.511 305.923L228.857 301.708C228.857 301.708 213.594 306.279 213.238 306.267C212.87 306.256 199.961 302.741 199.961 302.741L195.447 319.291L218.705 320.888L245.258 319.82C245.258 319.82 246.648 318.533 245.821 317.649C245.006 316.765 250.266 319.142 250.886 319.165C251.495 319.188 252.712 319.67 253.528 318.683C254.09 318.017 254.848 315.846 253.608 314.525Z" fill="#FFBE9D"/>
<path d="M245.821 317.66C245.787 317.741 244.788 317.419 243.18 316.902C241.56 316.386 239.332 315.708 236.84 315.065C234.336 314.422 232.051 313.951 230.397 313.618C228.731 313.285 227.709 313.078 227.721 312.997C227.732 312.917 228.789 312.975 230.466 313.204C232.154 313.434 234.474 313.847 236.989 314.491C239.505 315.134 241.744 315.892 243.329 316.512C244.903 317.121 245.856 317.592 245.821 317.66Z" fill="#EB996E"/>
<path d="M253.612 314.525C253.578 314.605 252.188 314.088 249.914 313.33C247.651 312.561 244.481 311.631 240.955 310.643C237.441 309.598 234.306 308.553 231.928 308.415C229.562 308.219 228.115 308.679 228.092 308.564C228.081 308.53 228.425 308.392 229.091 308.231C229.746 308.07 230.734 307.955 231.951 307.99C234.409 308.024 237.636 309.035 241.116 310.069C244.642 311.056 247.812 312.055 250.052 312.928C251.177 313.353 252.073 313.744 252.682 314.019C253.302 314.307 253.623 314.49 253.612 314.525Z" fill="#EB996E"/>
<path d="M161.299 215.983C161.299 215.983 149.297 224.332 146.38 236.346C143.462 248.371 130.806 297.447 133.401 304.797C135.997 312.148 186.474 319.349 186.474 319.349L192.458 294.116L166.823 287.099C166.823 287.099 167.145 263.726 167.478 254.044C167.811 244.362 161.299 215.983 161.299 215.983Z" fill="#41B79B"/>
<path d="M192.109 297.883L200.367 299.916L195.394 318.958L187.285 317.661L192.109 297.883Z" fill="white"/>
<path d="M133.202 302.202C133.248 302.202 133.179 302.627 133.328 303.396C133.489 304.154 133.983 305.257 135.085 306.256C137.279 308.3 141.471 310 146.777 310.953H146.8L146.823 310.965C149.247 311.757 152.015 312.4 154.978 313.067C157.941 313.733 161.122 314.41 164.476 315.088C171.195 316.466 178.626 317.902 186.493 319.383L186.148 319.602C186.723 317.259 187.32 314.789 187.929 312.274C189.341 306.486 190.719 300.869 192.017 295.552L192.224 295.896C183.748 293.473 176.007 291.268 169.449 289.396H169.438H169.426C165.946 287.972 162.489 287.455 159.491 287.65C156.482 287.788 153.956 288.592 151.992 289.407C150.028 290.246 148.626 291.165 147.685 291.796C147.248 292.118 146.904 292.359 146.64 292.554C146.398 292.726 146.272 292.807 146.272 292.795C146.261 292.784 146.375 292.681 146.594 292.497C146.823 292.313 147.145 292.026 147.604 291.681C148.523 291.015 149.913 290.05 151.888 289.166C153.852 288.305 156.402 287.443 159.468 287.271C162.512 287.03 166.049 287.524 169.61 288.948L169.587 288.936C176.168 290.786 183.909 292.956 192.396 295.334L192.66 295.414L192.592 295.69C191.294 301.007 189.927 306.624 188.526 312.412C187.917 314.916 187.308 317.397 186.734 319.74L186.665 320.015L186.39 319.958C178.511 318.476 171.08 317.006 164.373 315.605C161.019 314.904 157.838 314.204 154.874 313.526C151.911 312.837 149.166 312.182 146.697 311.344L146.731 311.355C141.356 310.333 137.164 308.564 134.948 306.417C133.834 305.36 133.363 304.2 133.225 303.408C133.099 302.615 133.202 302.202 133.202 302.202Z" fill="#263238"/>
<path d="M168.201 288.775C168.132 288.856 167.271 288.063 165.732 287.03C164.193 285.996 161.919 284.778 159.22 283.986C156.509 283.205 153.936 283.01 152.087 283.056C150.238 283.102 149.09 283.297 149.078 283.205C149.067 283.148 150.181 282.792 152.076 282.642C153.959 282.481 156.612 282.619 159.392 283.423C162.171 284.239 164.48 285.548 165.984 286.696C167.489 287.834 168.247 288.729 168.201 288.775Z" fill="#263238"/>
<path d="M171.566 247.659C171.612 247.659 171.612 248.21 171.578 249.198C171.555 250.185 171.475 251.621 171.337 253.378C171.05 256.904 170.533 261.774 169.603 267.092C168.695 272.421 167.535 277.187 166.421 280.552C166.134 281.39 165.847 282.149 165.606 282.803C165.33 283.423 165.089 283.975 164.871 284.457C164.4 285.33 164.124 285.801 164.09 285.789C164.055 285.766 164.262 285.261 164.664 284.365C164.848 283.871 165.066 283.309 165.296 282.688C165.514 282.022 165.766 281.276 166.019 280.426C167.03 277.049 168.109 272.294 169.017 266.988C169.936 261.682 170.521 256.847 170.912 253.332C171.084 251.667 171.233 250.277 171.348 249.175C171.44 248.198 171.521 247.659 171.566 247.659Z" fill="#263238"/>
<path d="M200.828 234.646C200.793 234.657 200.713 234.336 200.426 233.796C200.139 233.268 199.633 232.521 198.703 231.912C197.796 231.315 196.406 230.879 194.97 231.361C193.558 231.821 192.168 233.141 191.823 234.933L191.663 235.748L191.307 234.99C190.101 232.383 188.86 229.386 187.792 226.124C185.851 220.209 185.013 214.547 185.197 210.458C185.197 209.436 185.346 208.517 185.403 207.713C185.541 206.909 185.645 206.22 185.771 205.669C186.058 204.566 186.242 203.958 186.276 203.969C186.425 203.992 185.599 206.415 185.622 210.47C185.553 214.501 186.437 220.083 188.366 225.94C189.423 229.168 190.629 232.165 191.801 234.761L191.284 234.818C191.709 232.808 193.271 231.396 194.833 230.925C196.441 230.431 197.957 230.948 198.887 231.637C199.852 232.326 200.345 233.153 200.587 233.716C200.702 234.003 200.782 234.232 200.805 234.393C200.839 234.554 200.851 234.634 200.828 234.646Z" fill="#263238"/>
<path d="M228.836 237.23C228.802 237.23 228.721 236.748 228.572 235.864C228.446 234.979 228.159 233.681 228.331 232.016C228.561 230.385 229.33 228.398 231.099 226.928C231.972 226.205 233.166 225.722 234.441 225.734C235.693 225.734 237.06 226.216 237.955 227.307L237.45 227.594C237.106 226.71 236.738 225.791 236.359 224.849C234.211 219.44 232.305 214.524 230.961 210.964C230.329 209.264 229.801 207.84 229.388 206.737C229.032 205.738 228.848 205.175 228.882 205.152C228.917 205.141 229.169 205.669 229.606 206.645C230.065 207.736 230.651 209.138 231.352 210.814C232.81 214.34 234.774 219.222 236.922 224.643C237.289 225.584 237.657 226.503 238.001 227.387L238.702 229.156L237.496 227.675C236.75 226.756 235.555 226.308 234.441 226.296C233.304 226.285 232.247 226.687 231.432 227.342C229.79 228.651 228.986 230.546 228.733 232.073C228.515 233.647 228.744 234.956 228.802 235.841C228.871 236.736 228.882 237.23 228.836 237.23Z" fill="#263238"/>
<path d="M250.137 240.078C250.298 240.055 252.893 257.513 255.937 279.07C258.98 300.639 261.3 318.131 261.139 318.154C260.979 318.177 258.383 300.72 255.34 279.151C252.307 257.605 249.976 240.101 250.137 240.078Z" fill="#263238"/>
<g opacity="0.3">
<path d="M188.148 226.308C188.286 230.764 189.263 235.197 191.008 239.274C192.26 237.735 193.65 236.093 195.545 235.645C197.922 235.082 200.311 236.541 202.034 238.321C201.666 236.541 201.069 234.772 199.967 233.371C198.864 231.958 197.176 230.948 195.419 230.994C193.65 231.04 191.904 232.337 191.582 234.118L188.286 226.388" fill="black"/>
</g>
<path d="M168.758 238.93C168.643 238.93 168.689 237.724 168.333 235.852C167.988 233.98 167.15 231.442 165.542 229.018C164.726 227.812 163.819 226.779 162.912 225.894C161.981 225.044 161.097 224.344 160.282 223.85C158.674 222.828 157.537 222.437 157.571 222.334C157.583 222.299 157.87 222.368 158.398 222.541C158.662 222.621 158.972 222.736 159.328 222.897C159.684 223.058 160.086 223.23 160.511 223.482C161.373 223.942 162.326 224.642 163.302 225.492C164.255 226.377 165.209 227.445 166.047 228.685C167.712 231.189 168.516 233.842 168.758 235.783C168.884 236.748 168.918 237.54 168.872 238.092C168.838 238.631 168.804 238.93 168.758 238.93Z" fill="#263238"/>
<path d="M235.426 156.972C234.07 144.223 223.137 134.656 210.319 134.989L209.044 135.024C195.331 136.184 188.647 148.473 190.186 162.152L193.953 210.263L195.549 212.215C202.923 221.266 215.465 224.229 226.111 219.417L225.055 203.935C225.055 203.935 238.205 201.546 238.033 188.338C237.929 181.952 236.689 168.836 235.426 156.972Z" fill="#FFBE9D"/>
<path d="M225.145 203.923C225.145 203.923 216.727 204.646 207.711 199.306C207.711 199.306 212.029 208.701 225.168 207.173L225.145 203.923Z" fill="#EB996E"/>
<path d="M231.241 167.895C231.298 168.895 230.506 169.767 229.472 169.848C228.439 169.928 227.543 169.193 227.485 168.194C227.428 167.195 228.22 166.322 229.254 166.241C230.288 166.161 231.184 166.896 231.241 167.895Z" fill="#263238"/>
<path d="M232.121 160.716C231.972 160.946 230.478 161.107 228.687 162.072C226.895 163.025 225.827 164.242 225.574 164.219C225.459 164.219 225.563 163.886 226.022 163.347C226.482 162.818 227.332 162.072 228.446 161.474C229.56 160.877 230.605 160.602 231.248 160.544C231.914 160.487 232.201 160.602 232.121 160.716Z" fill="#263238"/>
<path d="M212.19 168.893C212.248 169.892 211.455 170.765 210.422 170.846C209.388 170.926 208.492 170.191 208.435 169.192C208.377 168.193 209.17 167.32 210.203 167.239C211.237 167.159 212.133 167.894 212.19 168.893Z" fill="#263238"/>
<path d="M211.905 163.484C211.641 163.542 210.412 162.715 208.448 162.221C206.484 161.727 204.887 161.853 204.704 161.681C204.612 161.601 204.91 161.451 205.611 161.394C206.3 161.325 207.426 161.383 208.655 161.681C209.883 161.991 210.837 162.462 211.365 162.83C211.893 163.209 212.031 163.461 211.905 163.484Z" fill="#263238"/>
<path d="M219.837 179.253C219.826 179.138 221.078 178.885 223.122 178.575C223.639 178.506 224.121 178.391 224.202 178.035C224.316 177.656 224.087 177.105 223.811 176.508C223.294 175.267 222.743 173.969 222.18 172.603C219.906 167.044 218.252 162.461 218.471 162.369C218.7 162.278 220.722 166.711 222.996 172.281C223.547 173.648 224.064 174.957 224.569 176.209C224.776 176.795 225.132 177.449 224.891 178.23C224.764 178.621 224.385 178.908 224.064 179.011C223.731 179.126 223.444 179.138 223.191 179.161C221.124 179.333 219.849 179.367 219.837 179.253Z" fill="#263238"/>
<path d="M211.938 155.651C211.708 156.191 209.698 155.835 207.309 156.007C204.909 156.133 202.957 156.731 202.669 156.225C202.543 155.984 202.899 155.479 203.703 154.985C204.496 154.491 205.747 154.043 207.183 153.951C208.619 153.859 209.917 154.158 210.766 154.549C211.616 154.939 212.03 155.387 211.938 155.651Z" fill="#263238"/>
<path d="M232.043 156.099C231.606 156.57 229.849 156.099 227.759 156.099C225.657 156.042 223.888 156.444 223.475 155.973C223.291 155.743 223.567 155.272 224.336 154.836C225.094 154.388 226.369 154.02 227.816 154.043C229.252 154.066 230.515 154.468 231.239 154.939C231.985 155.399 232.238 155.869 232.043 156.099Z" fill="#263238"/>
<path d="M239.269 145.292C239.016 144.097 237.833 143.075 236.627 143.259C237.27 143.029 237.936 142.788 238.453 142.328C238.97 141.869 239.291 141.134 239.073 140.491C238.74 139.469 237.431 139.262 236.397 138.963C235.042 138.584 233.825 137.769 232.952 136.666C231.7 135.081 231.217 133.014 230.126 131.314C228.725 129.109 226.279 127.582 223.683 127.294C221.076 127.007 218.366 127.961 216.516 129.81C214.495 127.742 211.452 126.72 208.592 127.157C205.732 127.593 203.136 129.477 201.827 132.049C198.324 130.591 194.052 131.188 191.077 133.565C188.114 135.931 186.586 139.974 187.229 143.718L195.453 148.76C195.591 146.222 198.427 144.201 200.874 144.901C203.355 145.613 204.939 148.496 207.524 148.691C209.534 148.841 211.233 147.29 213.186 146.773C215.54 146.142 218.033 147.083 220.157 148.289C222.282 149.484 224.303 150.977 226.669 151.574C229.449 152.275 232.4 151.666 235.053 150.575C236.19 150.115 237.316 149.541 238.154 148.657C238.993 147.749 239.521 146.486 239.269 145.292Z" fill="#263238"/>
<path d="M196.883 144.867L234.554 144.649C233.314 142.088 231.166 140.066 228.846 138.401C223.85 134.829 217.775 132.681 211.63 132.739C205.485 132.796 193.196 140.629 188.866 144.982C185.398 148.473 185.501 151.402 185.501 151.402C185.076 156.295 187.959 161.773 189.177 166.528C189.808 168.986 191.095 176.428 191.095 176.428C193.173 176.359 193.897 174.694 193.518 172.649L192.909 164.61C192.909 164.61 199.823 159.396 196.228 150.322C195.677 149.622 194.437 146.303 196.883 144.867Z" fill="#263238"/>
<path d="M192.337 164.092C190.419 157.42 188.661 150.276 190.694 143.637C190.327 143.626 189.948 143.603 189.58 143.592L189.109 143.936C187.008 143.224 184.481 144.028 183.172 145.831C181.862 147.623 181.874 150.276 183.183 152.068C180.955 151.964 178.807 153.825 178.612 156.053C178.474 157.592 179.14 159.073 179.829 160.452C180.519 161.83 181.254 163.266 181.265 164.805C181.277 166.344 180.289 168.02 178.761 168.204C179.45 169.789 181.357 170.719 183.022 170.271C182.494 171.581 181.587 172.718 180.438 173.533C182.896 175.199 186.261 174.636 188.926 173.338C190.511 172.569 192.061 171.466 192.704 169.835C193.416 168.009 192.865 165.976 192.337 164.092Z" fill="#263238"/>
<path d="M191.721 171.868C191.491 171.776 182.579 169.422 183.096 178.438C183.613 187.454 192.56 185.076 192.571 184.812C192.571 184.559 191.721 171.868 191.721 171.868Z" fill="#FFBE9D"/>
<path d="M190.413 181.539C190.367 181.516 190.264 181.654 190 181.791C189.747 181.929 189.311 182.033 188.828 181.883C187.852 181.585 186.968 180.126 186.83 178.495C186.761 177.68 186.887 176.887 187.14 176.221C187.381 175.543 187.772 175.061 188.254 174.946C188.725 174.808 189.081 175.073 189.207 175.325C189.345 175.566 189.299 175.75 189.345 175.762C189.368 175.785 189.529 175.601 189.437 175.233C189.391 175.061 189.276 174.854 189.047 174.694C188.817 174.533 188.495 174.464 188.162 174.51C187.473 174.602 186.876 175.279 186.6 176.003C186.279 176.738 186.118 177.634 186.198 178.553C186.359 180.367 187.393 182.01 188.713 182.32C189.357 182.446 189.873 182.228 190.138 181.998C190.413 181.757 190.448 181.55 190.413 181.539Z" fill="#EB996E"/>
<path d="M182.354 164.392C182.331 164.415 182.102 164.047 182.193 163.347C182.274 162.657 182.779 161.658 183.882 160.992C184.973 160.326 186.477 160.165 188.016 159.993C189.532 159.832 191.267 159.396 192.14 157.903C193.012 156.444 193.035 154.664 192.84 153.171C192.622 151.655 192.22 150.277 192.025 149.094C191.542 146.705 192.002 145.177 192.082 145.223C192.186 145.235 191.921 146.705 192.507 148.99C192.76 150.139 193.208 151.482 193.472 153.079C193.69 154.652 193.725 156.559 192.725 158.27C192.22 159.109 191.428 159.752 190.578 160.085C189.728 160.429 188.878 160.544 188.085 160.636C186.512 160.774 185.122 160.889 184.123 161.429C183.135 161.945 182.618 162.795 182.469 163.393C182.297 164.001 182.412 164.38 182.354 164.392Z" fill="#455A64"/>
<path d="M180.178 160.452C180.143 160.464 179.982 160.2 179.902 159.637C179.833 159.086 179.868 158.224 180.35 157.317C180.591 156.869 180.936 156.41 181.418 156.031C181.889 155.64 182.532 155.387 183.152 155.227C183.761 155.043 184.404 154.893 184.864 154.526C185.323 154.158 185.53 153.561 185.541 152.872C185.564 152.183 185.461 151.459 185.484 150.736C185.495 150.024 185.576 149.335 185.713 148.692C185.989 147.405 186.46 146.314 187.011 145.464C187.551 144.591 188.424 144.166 189.01 144.189C189.607 144.189 189.86 144.465 189.825 144.488C189.802 144.545 189.527 144.385 189.021 144.465C188.516 144.522 187.873 144.913 187.425 145.728C186.977 146.532 186.575 147.6 186.345 148.818C186.23 149.427 186.173 150.07 186.173 150.747C186.161 151.413 186.276 152.114 186.253 152.907C186.253 153.676 185.966 154.572 185.3 155.066C184.645 155.56 183.933 155.686 183.336 155.858C182.096 156.099 181.269 156.789 180.786 157.581C179.822 159.177 180.315 160.464 180.178 160.452Z" fill="#455A64"/>
<path d="M232.955 136.667C233.012 136.678 232.277 137.16 231.094 136.598C230.52 136.345 229.946 135.794 229.394 135.151C228.843 134.496 228.211 133.795 227.304 133.29C225.547 132.291 222.687 132.027 220.505 133.738C219.391 134.542 218.403 135.679 217.105 136.621C216.462 137.08 215.704 137.493 214.843 137.666C213.993 137.838 213.085 137.712 212.27 137.425C210.639 136.839 209.364 135.84 207.963 135.334C206.562 134.794 205.103 134.553 203.725 134.576C200.946 134.588 198.534 135.633 196.891 136.931C195.214 138.229 194.238 139.676 193.664 140.709C193.101 141.754 192.894 142.398 192.837 142.375C192.814 142.363 192.849 142.202 192.929 141.892C193.009 141.582 193.17 141.134 193.423 140.583C193.94 139.492 194.881 137.941 196.581 136.54C198.247 135.139 200.773 133.968 203.713 133.933C205.172 133.899 206.711 134.128 208.204 134.703C209.72 135.254 211.029 136.253 212.5 136.77C213.235 137.034 213.981 137.126 214.705 136.988C215.428 136.85 216.083 136.494 216.692 136.069C217.909 135.208 218.92 134.071 220.114 133.221C221.297 132.337 222.744 131.9 224.054 131.912C225.374 131.923 226.58 132.291 227.545 132.853C228.521 133.416 229.187 134.22 229.693 134.886C230.221 135.553 230.704 136.069 231.22 136.345C232.254 136.942 232.955 136.598 232.955 136.667Z" fill="#455A64"/>
<path d="M214.832 181.619C215.119 181.55 215.44 183.48 217.324 184.571C219.207 185.662 221.217 185.099 221.286 185.375C221.332 185.49 220.896 185.823 220.023 185.995C219.173 186.167 217.887 186.098 216.738 185.432C215.59 184.766 214.969 183.721 214.774 182.94C214.556 182.148 214.694 181.631 214.832 181.619Z" fill="#263238"/>
<path d="M333.689 361.074C330.278 358.031 325.558 356.618 320.998 356.882L313.234 381.552C318.92 381.805 324.593 384.734 330.083 383.229C334.493 382.023 337.836 377.877 338.444 373.352C339.076 368.827 337.112 364.118 333.689 361.074Z" fill="#41B79B"/>
<path d="M321.151 356.308C321.162 356.113 321.989 355.952 323.505 355.975C324.998 356.021 327.226 356.182 329.856 357.169C332.498 358.146 335.369 360.144 337.586 363.176C338.7 364.692 339.63 366.495 340.17 368.528C340.721 370.549 340.813 372.812 340.365 374.994C339.917 377.188 338.952 379.244 337.54 380.886C336.127 382.54 334.324 383.677 332.532 384.355C328.914 385.71 325.434 385.492 322.77 384.986C320.082 384.458 318.061 383.677 316.683 383.103C315.316 382.517 314.604 382.081 314.661 381.885C314.719 381.69 315.557 381.747 317.016 381.989C318.475 382.218 320.542 382.666 323.069 382.896C325.572 383.126 328.604 383.045 331.499 381.805C332.934 381.185 334.267 380.266 335.3 379.003C336.345 377.739 337.08 376.131 337.436 374.397C338.183 370.894 337.115 367.391 335.335 364.749C333.543 362.085 331.212 360.178 329.006 359.099C326.79 357.996 324.745 357.502 323.344 357.123C321.932 356.756 321.128 356.515 321.151 356.308Z" fill="#F5F5F5"/>
<path d="M249.223 448.821L232.34 496.128L291.086 517.433C292.775 511.702 266.474 489.409 266.474 489.409L278.533 459.548L249.223 448.821Z" fill="#41B79B"/>
<g opacity="0.6">
<path d="M249.236 480.278C247.984 480.175 246.732 481.174 246.583 482.414C246.434 483.655 247.433 484.941 248.673 485.056C249.925 485.182 251.453 484.034 251.464 482.782C251.476 481.53 250.224 480.094 248.984 480.267" fill="white"/>
</g>
<path d="M232.34 496.129L234.04 491.351L289.846 513.609C289.846 513.609 292.051 515.699 291.086 517.434L232.34 496.129Z" fill="white"/>
<path d="M267.576 489.455C267.461 489.742 265.979 489.352 264.234 489.754C262.476 490.121 261.293 491.098 261.075 490.891C260.834 490.742 261.879 489.18 264.004 488.72C266.117 488.249 267.725 489.214 267.576 489.455Z" fill="#263238"/>
<path d="M272.743 494.244C272.708 494.543 271.284 494.577 269.871 495.439C268.436 496.254 267.712 497.483 267.425 497.368C267.138 497.311 267.551 495.565 269.332 494.531C271.1 493.475 272.835 493.969 272.743 494.244Z" fill="#263238"/>
<path d="M273.568 502.881C273.281 502.846 273.408 501.273 274.717 499.964C276.015 498.654 277.588 498.517 277.623 498.804C277.703 499.102 276.52 499.631 275.464 500.71C274.384 501.778 273.867 502.961 273.568 502.881Z" fill="#263238"/>
<path d="M269.534 482.346C269.315 482.564 268.144 481.691 266.49 481.209C264.836 480.692 263.378 480.784 263.32 480.486C263.228 480.221 264.848 479.601 266.8 480.198C268.741 480.773 269.763 482.174 269.534 482.346Z" fill="#263238"/>
<path d="M270.674 474.87C270.64 474.984 269.434 474.755 267.734 473.79C266.884 473.308 265.931 472.63 265.001 471.723C264.53 471.275 264.07 470.769 263.634 470.218C263.427 469.943 263.175 469.655 263.002 469.207C262.795 468.794 262.887 467.967 263.427 467.634C263.887 467.289 264.495 467.289 264.92 467.439C265.357 467.577 265.678 467.795 265.965 467.99C266.563 468.381 267.102 468.828 267.562 469.276C268.504 470.195 269.181 471.171 269.629 472.044C270.536 473.802 270.605 475.042 270.491 475.065C270.33 475.111 269.985 473.974 268.975 472.423C268.469 471.654 267.78 470.792 266.884 469.988C266.436 469.586 265.931 469.207 265.38 468.851C264.817 468.461 264.289 468.266 264.024 468.484C263.933 468.564 263.91 468.61 263.967 468.84C264.036 469.058 264.231 469.311 264.438 469.587C264.84 470.115 265.253 470.597 265.667 471.034C266.505 471.918 267.367 472.619 268.113 473.158C269.664 474.238 270.743 474.72 270.674 474.87Z" fill="#263238"/>
<path d="M270.126 475.145C270.011 475.156 269.816 473.916 270.379 472.021C270.666 471.079 271.16 469.999 271.952 468.943C272.343 468.414 272.814 467.909 273.354 467.427C273.905 466.967 274.605 466.347 275.765 466.623C276.351 466.806 276.673 467.438 276.696 467.886C276.742 468.357 276.661 468.713 276.604 469.069C276.466 469.792 276.202 470.459 275.892 471.056C275.249 472.239 274.364 473.089 273.537 473.64C271.838 474.743 270.517 474.651 270.528 474.547C270.482 474.364 271.688 474.18 273.089 473.031C273.779 472.468 274.514 471.653 275.019 470.608C275.272 470.08 275.478 469.505 275.582 468.885C275.72 468.23 275.662 467.633 275.409 467.622C275.122 467.507 274.456 467.806 274.031 468.207C273.537 468.621 273.101 469.08 272.722 469.54C271.964 470.47 271.436 471.423 271.091 472.273C270.379 473.973 270.299 475.156 270.126 475.145Z" fill="#263238"/>
<path d="M192.309 322.484C183.396 322.691 174.943 323.954 168.81 330.409C160.667 338.977 150.606 351.197 150.032 359.662C149.182 372.318 156.808 376.085 162.39 379.163C164.859 380.53 167.673 381.139 170.487 381.036L273.486 380.255L276.725 362.809L210.111 346.396L212.879 321.324L192.309 322.484Z" fill="#263238"/>
<path d="M212.854 321.324L245.254 319.831C245.254 319.831 301.221 322.944 313.165 333.889C325.11 344.834 323.617 357.273 319.631 369.206C315.646 381.15 280.582 457.503 280.582 457.503C280.582 457.503 283.43 462.362 281.822 467.208C279.341 474.708 272.68 475.914 272.68 475.914L241.532 464.463C241.532 464.463 237.306 462.97 240.292 458.997C243.278 455.011 245.265 454.276 245.265 454.276V446.317C245.265 446.317 256.21 426.413 257.21 423.68C258.209 420.946 268.695 380.45 268.695 380.45L275.666 368.471C275.666 368.471 258.818 360.546 244.208 354.804L210.098 346.396L212.854 321.324Z" fill="#263238"/>
<path d="M265.413 463.028C265.356 463.108 264.368 462.327 262.68 461.236C260.991 460.145 258.568 458.79 255.708 457.699C252.848 456.619 250.126 456.01 248.14 455.712C246.153 455.402 244.901 455.333 244.912 455.241C244.912 455.172 246.176 455.092 248.197 455.298C250.218 455.494 253.009 456.045 255.926 457.147C258.844 458.261 261.278 459.697 262.932 460.892C264.563 462.086 265.459 462.982 265.413 463.028Z" fill="#455A64"/>
<path d="M280.978 457.561C280.921 457.607 280.22 456.883 279.164 455.654C278.119 454.426 276.717 452.668 275.247 450.681C273.777 448.694 272.525 446.834 271.664 445.467C270.803 444.1 270.32 443.216 270.378 443.17C270.447 443.124 271.055 443.917 272.009 445.226C273.1 446.719 274.34 448.43 275.718 450.325C277.119 452.209 278.383 453.909 279.485 455.39C280.462 456.688 281.047 457.504 280.978 457.561Z" fill="#455A64"/>
<path d="M292.396 357.537C292.419 357.629 291.248 357.881 289.445 358.479C287.641 359.076 285.207 360.087 282.737 361.626C280.279 363.165 278.292 364.91 276.972 366.265C275.639 367.621 274.904 368.563 274.824 368.505C274.767 368.471 275.387 367.437 276.662 365.978C277.925 364.52 279.912 362.682 282.427 361.109C284.942 359.547 287.458 358.57 289.33 358.065C291.19 357.571 292.385 357.468 292.396 357.537Z" fill="#455A64"/>
<path d="M260.527 411.609C260.504 411.609 260.55 411.368 260.654 410.932C260.78 410.438 260.941 409.806 261.136 409.037C261.595 407.314 262.227 404.959 262.997 402.088C264.65 396.162 266.89 388.111 269.371 379.221C270.669 374.765 271.771 370.504 273.023 366.656C274.47 362.832 276.767 359.892 278.892 357.709C281.028 355.527 283.038 354.057 284.462 353.115C285.186 352.656 285.749 352.311 286.139 352.105C286.53 351.887 286.748 351.783 286.748 351.806C286.771 351.852 285.967 352.334 284.589 353.311C283.21 354.298 281.269 355.803 279.191 357.997C277.135 360.179 274.918 363.107 273.54 366.84C272.345 370.642 271.231 374.937 269.945 379.382C267.395 388.26 265.098 396.288 263.399 402.203C262.549 405.063 261.86 407.394 261.354 409.105C261.113 409.863 260.918 410.484 260.768 410.977C260.631 411.391 260.55 411.621 260.527 411.609Z" fill="#455A64"/>
<path d="M231.87 353.276C231.709 353.288 231.02 347.235 230.354 339.747C229.676 332.258 229.263 326.171 229.423 326.16C229.584 326.148 230.273 332.201 230.939 339.689C231.617 347.177 232.03 353.265 231.87 353.276Z" fill="#455A64"/>
<path d="M177.939 369.447C177.847 369.493 177.353 368.517 176.331 367.069C175.32 365.634 173.735 363.773 171.622 362.131C169.509 360.488 167.326 359.386 165.684 358.766C164.042 358.134 162.973 357.881 162.996 357.778C163.008 357.721 164.122 357.812 165.833 358.364C167.545 358.904 169.819 359.972 172.001 361.66C174.171 363.36 175.756 365.312 176.687 366.84C177.629 368.367 177.996 369.424 177.939 369.447Z" fill="#455A64"/>
<path d="M197.798 347.453C197.74 347.545 196.362 346.661 193.985 345.581C191.607 344.49 188.173 343.307 184.234 342.733C180.283 342.17 176.654 342.354 174.07 342.721C171.485 343.089 169.912 343.548 169.889 343.445C169.877 343.41 170.256 343.261 170.957 343.043C171.658 342.802 172.703 342.549 174.001 342.308C176.596 341.825 180.294 341.573 184.314 342.136C188.323 342.721 191.803 343.996 194.157 345.202C195.34 345.799 196.259 346.339 196.867 346.764C197.488 347.177 197.809 347.419 197.798 347.453Z" fill="#455A64"/>
<path d="M275.377 362.797C275.377 362.82 275.09 362.774 274.573 362.66C273.987 362.533 273.229 362.372 272.287 362.166C270.243 361.706 267.383 361.063 263.892 360.282C256.805 358.697 246.997 356.561 236.121 354.413C225.244 352.265 215.367 350.497 208.2 349.256C204.674 348.648 201.792 348.154 199.724 347.798C198.771 347.625 198.002 347.488 197.416 347.384C196.888 347.281 196.612 347.223 196.623 347.201C196.635 347.178 196.911 347.201 197.439 347.269C198.025 347.35 198.794 347.442 199.759 347.568C201.769 347.844 204.686 348.269 208.269 348.831C215.448 349.957 225.348 351.657 236.236 353.816C247.112 355.975 256.92 358.169 263.984 359.857C267.521 360.707 270.369 361.408 272.333 361.924C273.264 362.177 274.022 362.372 274.596 362.533C275.113 362.694 275.377 362.774 275.377 362.797Z" fill="#455A64"/>
<path d="M210.084 349.348C209.969 349.382 209.728 347.981 208.66 346.052C208.12 345.098 207.339 344.03 206.306 343.008C205.284 341.975 204.032 340.929 202.699 339.884C200.012 337.828 197.278 336.37 195.326 335.302C193.35 334.245 192.133 333.59 192.179 333.51C192.213 333.441 193.5 333.958 195.521 334.923C197.531 335.899 200.333 337.312 203.067 339.402C204.422 340.459 205.674 341.515 206.708 342.606C207.753 343.686 208.534 344.823 209.039 345.834C209.545 346.856 209.82 347.74 209.958 348.349C210.096 348.992 210.119 349.348 210.084 349.348Z" fill="#455A64"/>
<path d="M324.815 364.933C324.952 365.06 323.23 366.806 321.886 369.447C320.519 372.077 320.106 374.501 319.922 374.466C319.773 374.466 319.933 371.916 321.346 369.183C322.747 366.415 324.723 364.807 324.815 364.933Z" fill="#263238"/>
<g opacity="0.3">
<path d="M251.086 247.234L258.459 299.17L258.827 299.996C260.561 282.126 257.885 263.841 251.086 247.234Z" fill="black"/>
</g>
<path d="M290.796 277.072L266.827 319.005L207.759 320.291L207.609 322.967L264.805 322.542L266.62 322.485L327.02 322.6L339.229 301.547L354.826 279.197C355.848 277.727 354.791 275.729 353.011 275.729L292.726 275.958C291.91 275.97 291.187 276.395 290.796 277.072Z" fill="#E0E0E0"/>
<path d="M339.217 301.547C339.217 301.547 342.318 304.396 341.836 306.808C341.342 309.22 341.514 311.023 339.217 311.184C339.217 311.184 339.378 314.285 336.116 314.778C336.116 314.778 336.817 318.568 332.406 319.223C332.406 319.223 331.051 323.277 328.272 322.29C325.492 321.313 323.701 320.165 323.701 320.165L322.885 318.695C322.885 318.695 318.796 317.156 319.807 314.847C320.416 313.446 322.541 313.079 322.541 313.079C322.541 313.079 321.656 311.023 322.805 309.484C323.781 308.163 326.985 309.254 326.985 309.254C326.985 309.254 326.802 307.554 327.996 306.13C329.087 304.844 334.164 308.347 334.164 308.347L336.943 305.039L339.217 301.547Z" fill="#FFBE9D"/>
<path d="M332.411 319.223C332.319 319.361 330.045 318.098 327.312 316.409C324.578 314.709 322.442 313.228 322.534 313.09C322.626 312.952 324.9 314.204 327.634 315.904C330.355 317.592 332.492 319.085 332.411 319.223Z" fill="#EB996E"/>
<path d="M336.115 314.778C336.035 314.916 333.91 313.802 331.383 312.275C328.856 310.747 326.881 309.403 326.961 309.265C327.042 309.128 329.166 310.242 331.693 311.769C334.22 313.285 336.195 314.64 336.115 314.778Z" fill="#EB996E"/>
<path d="M331.063 306.463C331.154 306.291 333.049 307.29 335.255 308.692C337.46 310.104 339.24 311.195 339.194 311.31C339.114 311.505 337.138 310.61 334.933 309.197C332.716 307.796 330.994 306.59 331.063 306.463Z" fill="#EB996E"/>
<path d="M354.822 277.325C354.822 277.337 354.719 277.348 354.535 277.359C354.305 277.371 354.03 277.382 353.685 277.394C352.893 277.405 351.801 277.428 350.423 277.451C347.54 277.474 343.452 277.509 338.433 277.543C328.257 277.566 314.291 277.601 298.867 277.635C297.902 277.635 296.937 277.635 295.984 277.635C295.076 277.566 294.261 277.968 293.79 278.669C292.883 280.311 291.987 281.919 291.103 283.516C289.334 286.697 287.634 289.775 286.015 292.704C282.764 298.55 279.836 303.81 277.366 308.243C274.909 312.619 272.899 316.179 271.486 318.694C270.797 319.889 270.257 320.831 269.867 321.52C269.694 321.818 269.545 322.048 269.43 322.243C269.327 322.404 269.269 322.485 269.269 322.485C269.258 322.485 269.304 322.393 269.384 322.22C269.488 322.014 269.614 321.773 269.763 321.462C270.131 320.762 270.648 319.797 271.291 318.58C272.669 316.041 274.61 312.458 276.999 308.036C279.434 303.58 282.328 298.297 285.544 292.428C287.152 289.488 288.851 286.41 290.609 283.217C291.493 281.62 292.389 279.99 293.308 278.336C293.87 277.44 294.996 276.946 295.995 277.026C296.949 277.026 297.913 277.026 298.878 277.026C314.314 277.061 328.28 277.095 338.444 277.118C343.475 277.153 347.552 277.187 350.435 277.21C351.813 277.233 352.904 277.256 353.697 277.268C354.041 277.279 354.317 277.291 354.546 277.302C354.73 277.302 354.822 277.314 354.822 277.325Z" fill="#263238"/>
<path d="M312.313 298.4C311.245 299.583 311.222 301.295 312.256 302.236C313.289 303.167 315.001 302.972 316.069 301.789C317.137 300.606 317.16 298.894 316.126 297.953C315.081 297.022 313.37 297.217 312.313 298.4Z" fill="white"/>
<g opacity="0.3">
<path d="M144.632 282.183C144.115 282.39 143.541 282.734 143.529 283.286C143.529 283.734 143.943 284.09 144.379 284.181C144.816 284.273 146.401 283.619 146.837 283.527C153.05 282.16 158.161 283.469 164.076 285.789L164.271 285.594C161.917 280.621 151.316 279.496 144.632 282.183Z" fill="black"/>
</g>
<path d="M464.645 515.32C464.645 515.48 360.75 515.618 232.634 515.618C104.46 515.618 0.599609 515.48 0.599609 515.32C0.599609 515.159 104.471 515.021 232.634 515.021C360.762 515.021 464.645 515.147 464.645 515.32Z" fill="#263238"/>
<path d="M112.504 149.231C112.699 149.427 150.841 136.322 150.841 136.322L136.175 102.671L102.225 115.649L120.899 126.376L112.504 149.231Z" fill="#455A64"/>
<path d="M130.393 112.8V66.9863C130.393 66.9863 183.006 57.3732 220.907 57.936C258.808 58.4988 297.846 64.7237 297.846 64.7237V108.712C297.857 108.712 179.055 98.0995 130.393 112.8Z" fill="#455A64"/>
<path d="M130.125 112.846L150.844 136.517V108.712C150.844 108.712 133.513 110.779 130.125 112.846Z" fill="#263238"/>
<path d="M130.388 66.9747C130.549 66.9747 130.629 77.2424 130.549 89.9105C130.468 102.579 130.273 112.846 130.112 112.846C129.951 112.846 129.871 102.579 129.951 89.9105C130.032 77.2424 130.227 66.9747 130.388 66.9747Z" fill="#263238"/>
<path d="M315.683 145.717C315.488 145.912 277.346 132.807 277.346 132.807L292.012 99.156L325.962 112.134L307.287 122.861L315.683 145.717Z" fill="#455A64"/>
<path d="M298.065 109.332L277.346 133.003V107.207C284.26 107.437 291.162 108.149 298.065 109.332Z" fill="#263238"/>
<path d="M297.848 64.7239C298.009 64.7239 298.193 74.7045 298.25 87.028C298.308 99.3515 298.227 109.332 298.055 109.332C297.894 109.332 297.711 99.3515 297.653 87.028C297.596 74.7159 297.676 64.7239 297.848 64.7239Z" fill="#263238"/>
<path d="M160.84 71.7642H163.941V93.919H160.84V71.7642ZM162.195 81.6069H169.752C170.338 81.6069 170.866 81.4691 171.326 81.182C171.785 80.8948 172.13 80.4929 172.382 79.976C172.635 79.4477 172.75 78.8505 172.75 78.1729C172.75 77.4952 172.624 76.8865 172.382 76.3697C172.13 75.8414 171.785 75.4394 171.326 75.1638C170.878 74.8766 170.35 74.7388 169.752 74.7388H162.195V71.7871H169.626C170.901 71.7871 172.026 72.0513 173.003 72.5796C173.967 73.1079 174.725 73.8545 175.254 74.8307C175.782 75.7954 176.058 76.921 176.058 78.1843C176.058 79.4477 175.793 80.5732 175.254 81.538C174.714 82.5027 173.956 83.2608 172.991 83.7891C172.026 84.3174 170.901 84.5816 169.637 84.5816H162.207V81.6069H162.195ZM168.225 83.8695L171.314 83.1689L176.976 93.919H173.29L168.225 83.8695Z" fill="white"/>
<path d="M181.168 71.787H184.269V93.9303H181.168V71.787ZM182.673 71.787H195.387V74.7387H182.673V71.787ZM182.673 81.4575H193.71V84.4091H182.673V81.4575ZM182.673 90.9672H195.387V93.9188H182.673V90.9672Z" fill="white"/>
<path d="M203.43 93.85C202.476 93.6433 201.581 93.3447 200.754 92.9312C199.927 92.5177 199.157 92.0124 198.434 91.4037L200.363 89.0262C201.202 89.7613 202.132 90.3011 203.154 90.6686C204.165 91.0361 205.267 91.2199 206.462 91.2199C208.07 91.2199 209.31 90.9213 210.194 90.3241C211.079 89.7268 211.515 88.8884 211.515 87.8088V87.7973C211.515 87.0278 211.32 86.4191 210.918 85.9597C210.516 85.5118 209.999 85.1787 209.367 84.949C208.736 84.7308 207.909 84.5356 206.91 84.3518C206.875 84.3403 206.841 84.3403 206.806 84.3403C206.772 84.3403 206.737 84.3403 206.703 84.3288L206.473 84.2829C204.992 84.0302 203.786 83.7431 202.855 83.4215C201.925 83.0999 201.133 82.5142 200.478 81.6758C199.823 80.8259 199.49 79.6199 199.49 78.058V78.0465C199.49 76.6797 199.8 75.5083 200.409 74.532C201.018 73.5673 201.914 72.8207 203.097 72.3154C204.28 71.81 205.692 71.5574 207.346 71.5574C208.139 71.5574 208.92 71.6492 209.689 71.8215C210.459 71.9938 211.217 72.2465 211.963 72.591C212.71 72.9356 213.445 73.3605 214.168 73.8774L212.4 76.3467C211.561 75.7265 210.711 75.2671 209.884 74.957C209.046 74.6469 208.207 74.4976 207.369 74.4976C205.853 74.4976 204.682 74.7962 203.843 75.4049C203.005 76.0136 202.591 76.8635 202.591 77.9661V77.9776C202.591 78.7356 202.809 79.3328 203.234 79.7692C203.671 80.2057 204.199 80.5273 204.854 80.734C205.497 80.9407 206.393 81.1589 207.541 81.3772C207.587 81.3886 207.622 81.4001 207.656 81.4001C207.691 81.4001 207.725 81.4116 207.771 81.4231C207.817 81.4346 207.874 81.4461 207.943 81.4575C208.012 81.469 208.058 81.4805 208.116 81.492C209.459 81.7677 210.573 82.0892 211.469 82.4682C212.365 82.8473 213.123 83.4445 213.72 84.2829C214.329 85.1213 214.628 86.2698 214.628 87.7169V87.7514C214.628 89.1066 214.306 90.2552 213.663 91.2199C213.02 92.1847 212.101 92.9082 210.883 93.4136C209.666 93.9189 208.207 94.1716 206.496 94.1716C205.394 94.1486 204.383 94.0452 203.43 93.85Z" fill="white"/>
<path d="M221.67 93.1838C220.51 92.5406 219.625 91.5988 219.016 90.3699C218.408 89.141 218.098 87.648 218.098 85.9137V71.787H221.199V86.0285C221.199 87.6479 221.601 88.8883 222.416 89.7727C223.232 90.6571 224.38 91.0935 225.862 91.0935C227.355 91.0935 228.503 90.6571 229.33 89.7727C230.146 88.8883 230.559 87.6365 230.559 86.0285V71.787H233.671V85.9137C233.671 87.648 233.361 89.1295 232.753 90.3699C232.144 91.6103 231.26 92.5406 230.088 93.1838C228.917 93.827 227.515 94.1485 225.873 94.1485C224.231 94.1485 222.83 93.827 221.67 93.1838Z" fill="white"/>
<path d="M238.527 71.787H241.628V93.9303H238.527V71.787ZM240.078 90.9672H252.746V93.9188H240.078V90.9672Z" fill="white"/>
<path d="M252.445 71.787H268.065V74.7387H252.445V71.787ZM258.705 73.5902H261.817V93.9188H258.705V73.5902Z" fill="white"/>
<path d="M321.383 68.8928L324.392 72.4187L332.868 68.8928L330.387 65.1831L321.383 68.8928Z" fill="#455A64"/>
<path d="M317.506 52.1132C317.506 54.548 315.531 56.5235 313.096 56.5235C310.661 56.5235 308.686 54.548 308.686 52.1132C308.686 49.6783 310.661 47.7029 313.096 47.7029C315.531 47.7029 317.506 49.6783 317.506 52.1132Z" fill="#41B79B"/>
<path d="M218.709 117.9C218.709 119.117 217.721 120.105 216.504 120.105C215.287 120.105 214.299 119.117 214.299 117.9C214.299 116.682 215.287 115.695 216.504 115.695C217.721 115.695 218.709 116.682 218.709 117.9Z" fill="#41B79B"/>
<path d="M115.979 84.7537C115.979 85.684 115.232 86.4306 114.302 86.4306C113.383 86.4306 112.625 85.684 112.625 84.7537C112.625 83.8234 113.372 83.0769 114.302 83.0769C115.221 83.0769 115.979 83.8234 115.979 84.7537Z" fill="#41B79B"/>
<path d="M109.75 66.2973L114.689 66.5959L117.032 56.8795L112.426 57.0748L109.75 66.2973Z" fill="#455A64"/>
<path d="M264.109 143.856L265.775 148.519L275.629 146.865L273.642 142.696L264.109 143.856Z" fill="#41B79B"/>
<path d="M164.444 116.947L161.4 120.851L168.073 128.282L170.531 124.366L164.444 116.947Z" fill="#455A64"/>
<path d="M152.631 25.2035L164.3 37.1021L180.724 30.9001L181.367 34.9773L174.258 49.529L180.816 60.3939L180.264 63.6442L164.381 60.9682L154.986 71.2703L152.781 69.605L150.84 56.5005L136.024 48.7825L135.369 45.7963L150.288 41.7076L152.631 25.2035Z" fill="#41B79B"/>
<g opacity="0.3">
<path d="M152.631 25.2035L164.3 37.1021L180.724 30.9001L181.367 34.9773L174.258 49.529L180.816 60.3939L180.264 63.6442L164.381 60.9682L154.986 71.2703L152.781 69.605L150.84 56.5005L136.024 48.7825L135.369 45.7963L150.288 41.7076L152.631 25.2035Z" fill="black"/>
</g>
<path d="M152.631 21.8729L164.3 33.7715L180.724 30.9002L173.006 45.6701L180.816 60.394L164.381 57.6376L152.781 69.6051L150.334 53.124L135.369 45.7964L150.288 38.3656L152.631 21.8729Z" fill="#41B79B"/>
<path d="M273.525 25.2035L261.856 37.1021L245.444 30.9001L244.789 34.9773L251.898 49.529L245.34 60.3939L245.892 63.6442L261.776 60.9682L271.17 71.2703L273.376 69.605L275.317 56.5005L290.132 48.7825L290.787 45.7963L275.868 41.7076L273.525 25.2035Z" fill="#41B79B"/>
<g opacity="0.3">
<path d="M273.525 25.2035L261.856 37.1021L245.444 30.9001L244.789 34.9773L251.898 49.529L245.34 60.3939L245.892 63.6442L261.776 60.9682L271.17 71.2703L273.376 69.605L275.317 56.5005L290.132 48.7825L290.787 45.7963L275.868 41.7076L273.525 25.2035Z" fill="black"/>
</g>
<path d="M273.528 21.8729L261.859 33.7715L245.447 30.9002L253.154 45.6701L245.344 60.394L261.779 57.6376L273.379 69.6051L275.825 53.124L290.79 45.7964L275.871 38.3656L273.528 21.8729Z" fill="#41B79B"/>
<path d="M212.704 4.34656L222.409 23.3085L244.793 21.9877L244.035 27.202L229.817 42.259L233.676 58.0166L231.769 61.7607L213.404 52.4463L198.026 61.4506L195.97 58.5678L198.589 41.834L183.451 26.777L183.796 22.8836L203.55 23.5841L212.704 4.34656Z" fill="#41B79B"/>
<g opacity="0.3">
<path d="M212.704 4.34656L222.409 23.3085L244.793 21.9877L244.035 27.202L229.817 42.259L233.676 58.0166L231.769 61.7607L213.404 52.4463L198.026 61.4506L195.97 58.5678L198.589 41.834L183.451 26.777L183.796 22.8836L203.55 23.5841L212.704 4.34656Z" fill="black"/>
</g>
<path d="M213.972 0.280762L223.677 19.2312L244.798 21.9876L229.764 37.0791L233.681 58.0165L214.684 48.3805L195.975 58.5678L199.271 37.527L183.801 22.8835L204.83 19.5069L213.972 0.280762Z" fill="#41B79B"/>
<path d="M252.641 170.387L268.858 172.179C272.763 166.62 278.207 162.037 284.902 159.154C304.163 150.862 326.49 159.763 334.782 179.024C343.075 198.284 334.174 220.611 314.913 228.904C295.652 237.196 273.325 228.295 265.033 209.034C261.576 200.995 261.117 192.415 263.15 184.548L263.138 184.571L252.641 170.387Z" fill="#FAFAFA"/>
<path d="M252.639 170.387C253.27 171.237 256.555 175.578 263.262 184.479L263.01 184.491L263.021 184.468C263.056 184.399 263.148 184.364 263.228 184.41C263.285 184.445 263.32 184.514 263.297 184.582C261.953 189.831 261.436 196.734 263.55 204.188C264.089 206.037 264.744 207.932 265.651 209.769C266.111 210.688 266.547 211.63 267.053 212.56C267.615 213.456 268.178 214.363 268.752 215.282C271.222 218.843 274.426 222.196 278.342 224.907C282.247 227.629 286.864 229.719 291.883 230.81C296.902 231.913 302.335 232.039 307.687 230.879C313.027 229.719 318.265 227.365 322.813 223.873C327.338 220.382 331.266 215.811 333.781 210.413C336.377 204.934 337.755 198.939 337.548 193.081C337.387 187.236 335.848 181.573 333.299 176.635C330.749 171.696 327.189 167.435 323.031 164.254C318.896 161.049 314.245 158.844 309.582 157.592C304.908 156.341 300.233 156.053 295.869 156.49C291.493 156.949 287.53 158.259 283.982 159.775C276.918 163.013 272.049 167.906 268.971 172.236C268.936 172.282 268.89 172.305 268.833 172.293C258.576 171.099 253.638 170.513 252.639 170.387C253.649 170.49 258.588 170.984 268.879 172.029L268.741 172.087C271.796 167.699 276.677 162.726 283.809 159.407C287.381 157.845 291.401 156.501 295.823 156.03C300.233 155.571 304.976 155.847 309.72 157.11C314.452 158.362 319.161 160.59 323.376 163.829C327.591 167.045 331.208 171.363 333.816 176.371C336.423 181.378 337.985 187.121 338.157 193.07C338.375 199.019 336.974 205.106 334.344 210.677C331.783 216.167 327.797 220.807 323.192 224.355C318.575 227.904 313.246 230.293 307.825 231.453C302.392 232.613 296.868 232.475 291.78 231.35C286.681 230.224 282.018 228.1 278.055 225.332C274.093 222.564 270.854 219.164 268.373 215.546C267.799 214.616 267.225 213.697 266.662 212.79C266.157 211.848 265.72 210.895 265.261 209.965C264.354 208.104 263.699 206.186 263.159 204.314C261.057 196.768 261.632 189.797 263.021 184.514L263.297 184.628L263.285 184.651C263.251 184.72 263.159 184.755 263.079 184.709C263.056 184.697 263.044 184.686 263.033 184.663C256.463 175.647 253.259 171.237 252.639 170.387Z" fill="#263238"/>
<path d="M285.919 180.505C285.93 180.516 285.942 180.689 285.953 181.033C285.965 181.412 285.976 181.895 285.988 182.503C285.999 183.824 286.022 185.685 286.057 188.028C286.091 192.794 286.137 199.501 286.183 207.541L285.919 207.277C293.786 207.265 303.054 207.254 312.943 207.231C313.012 207.162 312.38 207.794 312.645 207.53V207.518V207.507V207.472V207.415V207.3V207.07V206.611V205.692C312.645 205.083 312.645 204.463 312.645 203.854C312.645 202.637 312.645 201.431 312.645 200.236C312.645 197.848 312.645 195.516 312.656 193.253C312.668 188.717 312.679 184.433 312.691 180.505L312.955 180.769C304.915 180.712 298.208 180.666 293.441 180.643C291.099 180.608 289.249 180.597 287.917 180.574C287.308 180.562 286.826 180.551 286.447 180.539C286.114 180.528 285.93 180.516 285.919 180.505C285.907 180.494 286.068 180.482 286.39 180.471C286.757 180.459 287.228 180.448 287.814 180.436C289.123 180.425 290.961 180.402 293.281 180.367C298.081 180.333 304.858 180.287 312.955 180.241H313.207V180.505C313.219 184.433 313.23 188.717 313.242 193.253C313.242 195.528 313.242 197.859 313.253 200.236C313.253 201.431 313.253 202.637 313.253 203.854C313.253 204.463 313.253 205.072 313.253 205.692V206.611V207.07V207.3V207.415V207.472V207.507V207.518V207.53C313.517 207.265 312.886 207.897 312.955 207.828C303.066 207.817 293.797 207.805 285.93 207.782H285.666V207.518C285.723 199.41 285.769 192.645 285.792 187.844C285.815 185.535 285.838 183.698 285.861 182.377C285.873 181.791 285.884 181.32 285.896 180.953C285.896 180.654 285.907 180.505 285.919 180.505Z" fill="#263238"/>
<path d="M310.022 184.973C310.412 185.283 306.772 190.52 301.902 196.665C300.926 197.894 299.984 199.065 299.099 200.133L298.525 200.834L297.882 200.248C293.655 196.447 290.796 193.529 291.06 193.231C291.324 192.932 294.62 195.344 298.996 198.962L297.767 199.077C298.606 197.974 299.524 196.78 300.501 195.551C305.37 189.406 309.643 184.674 310.022 184.973Z" fill="#41B79B"/>
</svg>
