<svg width="465" height="518" viewBox="0 0 465 518" fill="none" xmlns="http://www.w3.org/2000/svg">
<path d="M395.996 280.926L312.476 249.342C306.699 247.16 303.793 240.705 305.975 234.939L349.699 119.33C351.882 113.553 358.336 110.647 364.102 112.829L417.071 132.86L442.097 190.63L410.41 274.425C408.216 280.202 401.761 283.108 395.996 280.926Z" fill="#F5F5F5"/>
<path d="M417.074 132.86L404.773 165.397C402.74 170.761 405.451 176.767 410.814 178.789L442.1 190.63L417.074 132.86Z" fill="#EBEBEB"/>
<path d="M404.112 168.417C404.112 168.417 400.712 176.158 408.717 182.142C409.016 182.372 409.337 182.567 409.659 182.762C413.472 185.036 438.556 199.99 438.785 199.37C439.038 198.704 442.093 190.63 442.093 190.63L410.807 178.8C410.807 178.8 403.101 175.584 404.112 168.417Z" fill="#E0E0E0"/>
<path d="M398.259 161.424C398.099 161.837 389.324 158.908 378.654 154.877C367.985 150.846 359.463 147.228 359.623 146.814C359.784 146.401 368.559 149.33 379.228 153.361C389.898 157.392 398.42 161.01 398.259 161.424Z" fill="#E0E0E0"/>
<path d="M416.258 189.263C416.098 189.677 401.73 184.635 384.169 177.996C366.608 171.358 352.493 165.627 352.654 165.213C352.814 164.8 367.171 169.842 384.743 176.48C402.304 183.119 416.419 188.838 416.258 189.263Z" fill="#E0E0E0"/>
<path d="M416.165 206.789C416.005 207.203 400.362 201.679 381.216 194.443C362.07 187.207 346.68 180.994 346.841 180.58C347.002 180.167 362.645 185.691 381.79 192.938C400.936 200.163 416.326 206.364 416.165 206.789Z" fill="#E0E0E0"/>
<path d="M410.704 221.284C410.544 221.697 394.901 216.173 375.755 208.937C356.609 201.701 341.219 195.488 341.38 195.075C341.541 194.661 357.184 200.185 376.329 207.432C395.464 214.657 410.865 220.859 410.704 221.284Z" fill="#E0E0E0"/>
<path d="M405.212 235.778C405.051 236.192 389.409 230.667 370.263 223.432C351.117 216.184 335.727 209.982 335.888 209.569C336.049 209.156 351.691 214.68 370.837 221.927C389.971 229.151 405.361 235.353 405.212 235.778Z" fill="#E0E0E0"/>
<path d="M399.728 250.272C399.567 250.686 383.924 245.161 364.779 237.926C345.633 230.679 330.243 224.477 330.404 224.063C330.564 223.65 346.207 229.174 365.353 236.421C384.499 243.645 399.889 249.847 399.728 250.272Z" fill="#E0E0E0"/>
<path d="M177.554 332.471L67.446 371.026C63.6329 372.359 59.4638 370.349 58.1315 366.547L2.88809 208.776C1.55581 204.963 3.56571 200.794 7.36729 199.461L117.475 160.906C121.288 159.574 125.457 161.584 126.79 165.385L182.033 323.156C183.365 326.969 181.367 331.138 177.554 332.471Z" fill="#EBEBEB"/>
<path d="M118.904 170.716L12.3828 208.018L67.1415 364.391L173.663 327.089L118.904 170.716Z" fill="#E0E0E0"/>
<path d="M116.994 169.971L10.4727 207.273L64.1875 360.665L170.709 323.363L116.994 169.971Z" fill="#FAFAFA"/>
<path d="M170.694 323.363C170.246 322.077 148.619 260.505 116.84 170.025L117.035 170.117C84.7274 181.43 48.5837 194.098 10.5335 207.421H10.522L10.6253 207.202C30.7013 264.823 49.3876 318.034 64.3068 360.598L64.1345 360.517C128.922 337.938 169.648 323.731 170.694 323.363C169.648 323.731 128.957 338.03 64.2264 360.793L64.1001 360.839L64.0541 360.713C49.135 318.137 30.4946 264.927 10.3152 207.329L10.2578 207.168L10.4186 207.111H10.4301C48.4803 193.788 84.6355 181.143 116.943 169.83L117.092 169.784L117.138 169.933C148.734 260.459 170.246 322.088 170.694 323.363Z" fill="#E0E0E0"/>
<path d="M132.914 336.594C132.914 336.594 156.631 316.587 160.743 295.753C160.743 295.753 154.162 306.078 140.46 307.962C140.46 307.962 139.989 329.841 132.914 336.594Z" fill="#E0E0E0"/>
<path d="M51.4373 254.476L45.8325 256.44C43.7882 257.152 41.5486 256.084 40.825 254.028L38.8611 248.423C38.149 246.379 39.2171 244.139 41.2729 243.416L46.8777 241.452C48.922 240.74 51.1616 241.808 51.8852 243.864L53.8491 249.468C54.5612 251.513 53.4931 253.764 51.4373 254.476Z" fill="#EBEBEB"/>
<path d="M46.1991 251.111C46.1072 251.145 46.0038 251.134 45.9349 251.088L43.3622 249.595C43.2129 249.503 43.1555 249.307 43.2474 249.158C43.3393 249.009 43.5345 248.951 43.6838 249.043L45.9464 250.353L48.6569 244.553C48.7373 244.392 48.921 244.323 49.0818 244.403C49.2426 244.484 49.3115 244.667 49.2311 244.828L46.3713 250.95C46.3484 251.019 46.2794 251.088 46.1991 251.111Z" fill="white"/>
<path d="M119.753 217.712C119.787 217.804 105.947 222.719 88.8576 228.703C71.7562 234.687 57.8822 239.476 57.8477 239.384C57.8133 239.293 71.6528 234.377 88.7427 228.393C105.844 222.409 119.73 217.632 119.753 217.712Z" fill="#E0E0E0"/>
<path d="M87.2668 239.786C87.2783 239.809 86.9223 239.959 86.2676 240.211C85.5555 240.476 84.6252 240.82 83.4882 241.245C81.1338 242.095 77.8835 243.255 74.2886 244.518C70.6823 245.782 67.4205 246.907 65.0546 247.7C63.9061 248.079 62.9643 248.389 62.2407 248.63C61.5746 248.837 61.2071 248.952 61.1956 248.929C61.1841 248.906 61.5401 248.756 62.1948 248.504C62.9069 248.24 63.8372 247.895 64.9742 247.47C67.3286 246.62 70.5789 245.46 74.1853 244.197C77.7801 242.933 81.0534 241.808 83.4193 241.015C84.5678 240.636 85.5096 240.326 86.2332 240.085C86.8878 239.867 87.2553 239.763 87.2668 239.786Z" fill="#E0E0E0"/>
<path d="M121.229 221.938C121.264 222.03 107.424 226.946 90.3341 232.93C73.2328 238.913 59.3587 243.703 59.3243 243.611C59.2898 243.519 73.1294 238.603 90.2193 232.619C107.321 226.636 121.195 221.846 121.229 221.938Z" fill="#E0E0E0"/>
<path d="M59.4412 277.331L53.8364 279.295C51.7921 280.007 49.5525 278.939 48.8289 276.883L46.865 271.278C46.1529 269.234 47.221 266.994 49.2768 266.27L54.8816 264.306C56.9259 263.594 59.1655 264.663 59.8891 266.718L61.8531 272.323C62.5651 274.367 61.4855 276.607 59.4412 277.331Z" fill="#EBEBEB"/>
<path d="M54.2108 273.966C54.1993 273.966 54.1993 273.966 54.2108 273.966C54.1189 274 54.0155 273.988 53.9466 273.943L51.3739 272.449C51.2246 272.358 51.1672 272.162 51.2591 272.013C51.351 271.864 51.5462 271.806 51.6955 271.898L53.9581 273.207L56.6686 267.408C56.749 267.247 56.9327 267.178 57.0935 267.247C57.2543 267.327 57.3232 267.511 57.2428 267.672L54.383 273.793C54.3601 273.874 54.2912 273.931 54.2108 273.966Z" fill="white"/>
<path d="M127.745 240.567C127.779 240.659 113.94 245.574 96.8498 251.558C79.7484 257.542 65.8744 262.331 65.8399 262.239C65.8055 262.147 79.645 257.232 96.7349 251.248C113.836 245.264 127.722 240.487 127.745 240.567Z" fill="#E0E0E0"/>
<path d="M95.2785 262.641C95.29 262.664 94.934 262.814 94.2793 263.066C93.5673 263.331 92.637 263.675 91.4999 264.1C89.1455 264.95 85.8952 266.11 82.3003 267.373C78.694 268.637 75.4322 269.762 73.0663 270.555C71.9178 270.934 70.976 271.244 70.2524 271.485C69.5863 271.692 69.2188 271.807 69.2073 271.784C69.1958 271.761 69.5518 271.611 70.2065 271.359C70.9186 271.094 71.8489 270.75 72.9859 270.325C75.3404 269.475 78.5906 268.315 82.197 267.052C85.7918 265.788 89.0651 264.663 91.431 263.87C92.5795 263.491 93.5213 263.181 94.2449 262.94C94.8995 262.722 95.267 262.618 95.2785 262.641Z" fill="#E0E0E0"/>
<path d="M129.225 244.793C129.26 244.885 115.42 249.801 98.3302 255.785C81.2289 261.768 67.3548 266.558 67.3204 266.466C67.2859 266.374 81.1255 261.458 98.2154 255.474C115.305 249.479 129.191 244.701 129.225 244.793Z" fill="#E0E0E0"/>
<path d="M67.4373 300.186L61.8325 302.15C59.7882 302.863 57.5486 301.794 56.825 299.739L54.8611 294.134C54.149 292.089 55.2171 289.85 57.2729 289.126L62.8777 287.162C64.922 286.45 67.1616 287.518 67.8852 289.574L69.8491 295.179C70.5612 297.223 69.4816 299.463 67.4373 300.186Z" fill="#EBEBEB"/>
<path d="M62.2069 296.821C62.1954 296.821 62.1954 296.821 62.2069 296.821C62.115 296.856 62.0116 296.844 61.9427 296.798L59.37 295.305C59.2207 295.214 59.1633 295.018 59.2552 294.869C59.3471 294.72 59.5423 294.662 59.6916 294.754L61.9542 296.063L64.6647 290.263C64.7451 290.103 64.9288 290.034 65.0896 290.114C65.2504 290.195 65.3193 290.378 65.2389 290.539L62.3791 296.661C62.3447 296.73 62.2873 296.787 62.2069 296.821Z" fill="white"/>
<path d="M135.764 263.423C135.799 263.515 121.959 268.43 104.869 274.414C87.7679 280.398 73.8939 285.187 73.8594 285.095C73.825 285.003 87.6646 280.088 104.754 274.104C121.856 268.12 135.73 263.342 135.764 263.423Z" fill="#E0E0E0"/>
<path d="M103.275 285.485C103.286 285.508 102.93 285.658 102.275 285.91C101.563 286.174 100.633 286.519 99.496 286.944C97.1416 287.794 93.8913 288.954 90.2964 290.217C86.6901 291.481 83.4283 292.606 81.0624 293.399C79.9139 293.778 78.9721 294.088 78.2485 294.329C77.5824 294.536 77.2149 294.65 77.2034 294.628C77.1919 294.605 77.5479 294.455 78.2026 294.203C78.9147 293.938 79.845 293.594 80.982 293.169C83.3365 292.319 86.5867 291.159 90.1931 289.896C93.7879 288.632 97.0612 287.507 99.4271 286.714C100.576 286.335 101.517 286.025 102.241 285.784C102.884 285.577 103.263 285.474 103.275 285.485Z" fill="#E0E0E0"/>
<path d="M137.237 267.649C137.271 267.741 123.432 272.656 106.342 278.64C89.2406 284.624 75.3666 289.413 75.3321 289.321C75.2976 289.229 89.1372 284.314 106.227 278.33C123.317 272.335 137.202 267.557 137.237 267.649Z" fill="#E0E0E0"/>
<path d="M75.449 323.042L69.8442 325.006C67.7999 325.718 65.5603 324.65 64.8367 322.594L62.8728 316.989C62.1607 314.945 63.2288 312.705 65.2846 311.982L70.8894 310.018C72.9337 309.305 75.1733 310.374 75.8969 312.429L77.8609 318.034C78.5729 320.079 77.4933 322.318 75.449 323.042Z" fill="#EBEBEB"/>
<path d="M70.203 319.676C70.1111 319.711 70.0077 319.699 69.9388 319.653L67.3661 318.16C67.2168 318.068 67.1594 317.873 67.2513 317.724C67.3432 317.575 67.5384 317.517 67.6877 317.609L69.9503 318.918L72.6608 313.118C72.7412 312.958 72.9249 312.889 73.0857 312.969C73.2465 313.049 73.3154 313.233 73.235 313.394L70.3752 319.516C70.3523 319.584 70.2834 319.642 70.203 319.676Z" fill="white"/>
<path d="M143.76 286.278C143.795 286.37 129.955 291.285 112.865 297.269C95.764 303.253 81.89 308.042 81.8555 307.95C81.8211 307.858 95.6607 302.943 112.751 296.959C129.84 290.975 143.726 286.186 143.76 286.278Z" fill="#E0E0E0"/>
<path d="M111.275 308.341C111.286 308.364 110.93 308.513 110.275 308.766C109.563 309.03 108.633 309.374 107.496 309.799C105.142 310.649 101.891 311.809 98.2964 313.073C94.6901 314.336 91.4283 315.461 89.0624 316.254C87.9139 316.633 86.9721 316.943 86.2485 317.184C85.5824 317.391 85.2149 317.506 85.2034 317.483C85.1919 317.46 85.5479 317.311 86.2026 317.058C86.9147 316.794 87.845 316.449 88.982 316.024C91.3365 315.174 94.5867 314.014 98.1931 312.751C101.788 311.488 105.061 310.362 107.427 309.57C108.576 309.191 109.517 308.88 110.241 308.639C110.896 308.433 111.275 308.318 111.275 308.341Z" fill="#E0E0E0"/>
<path d="M145.245 290.504C145.279 290.596 131.44 295.512 114.35 301.495C97.2484 307.479 83.3744 312.268 83.3399 312.177C83.3055 312.085 97.145 307.169 114.235 301.185C131.325 295.19 145.21 290.412 145.245 290.504Z" fill="#E0E0E0"/>
<path d="M22.5469 192.329L25.3607 200.358C26.9916 205.021 32.091 207.467 36.754 205.836L95.6727 185.209C100.336 183.578 102.782 178.478 101.151 173.815L98.3487 165.799L22.5469 192.329Z" fill="#E0E0E0"/>
<path d="M61.2189 181.442C56.8545 182.969 52.0653 180.661 50.5377 176.297C49.0102 171.932 51.3187 167.143 55.6831 165.615C60.0474 164.088 64.8367 166.396 66.3642 170.761C67.8803 175.125 65.5718 179.914 61.2189 181.442ZM56.7397 168.659C54.0522 169.601 52.628 172.552 53.5698 175.24C54.5116 177.927 57.4633 179.352 60.1508 178.41C62.8383 177.468 64.2625 174.516 63.3207 171.829C62.3789 169.141 59.4272 167.717 56.7397 168.659Z" fill="#E0E0E0"/>
<path d="M108.315 202.276C108.373 202.425 92.8331 208.007 73.6185 214.737C54.4039 221.467 38.7841 226.796 38.7267 226.647C38.6693 226.498 54.2087 220.916 73.4233 214.186C92.6379 207.455 108.258 202.126 108.315 202.276Z" fill="#E0E0E0"/>
<path d="M88.4101 205.135C88.4675 205.285 81.6224 207.823 73.1349 210.798C64.6474 213.772 57.7218 216.058 57.6644 215.909C57.607 215.759 64.4521 213.221 72.9396 210.246C81.4386 207.272 88.3642 204.986 88.4101 205.135Z" fill="#E0E0E0"/>
<path d="M394.503 437.859C398.626 435.734 403.484 435.458 408.066 436.216C410.524 436.618 413.097 437.353 414.762 439.203C416.439 441.052 416.749 444.302 414.831 445.887C413.683 446.829 412.086 446.978 410.605 446.955C407.021 446.909 403.047 446.277 400.176 448.437C398.545 449.666 397.454 451.71 395.502 452.319C393.595 452.916 391.436 451.779 390.425 450.056C389.415 448.333 389.38 446.174 389.851 444.233C389.851 444.245 390.345 440.007 394.503 437.859Z" fill="#41B79B"/>
<path d="M385.049 419.621C387.576 423.227 392.468 422.032 394.742 419.827C397.017 417.634 397.981 414.441 398.854 411.397C400.853 404.449 402.862 397.167 401.381 390.092C400.933 387.979 400.141 385.866 398.659 384.304C397.177 382.73 394.892 381.8 392.802 382.351C390.332 383.006 388.793 385.429 387.679 387.726C384.417 394.491 382.683 402.002 382.66 409.514C382.66 413.04 383.074 416.715 385.049 419.621Z" fill="#41B79B"/>
<path d="M378.117 424.789C380.85 421.539 381.379 416.795 380.161 412.73C378.944 408.652 376.187 405.195 373.018 402.37C369.296 399.051 364.921 396.478 360.223 394.824C358.374 394.17 356.422 393.664 354.469 393.848C352.517 394.032 350.553 395.031 349.645 396.765C348.302 399.338 349.588 402.45 350.989 404.989C353.447 409.468 356.261 413.752 359.396 417.783C361.911 421.033 364.806 424.238 368.642 425.696C372.478 427.166 376.463 426.994 378.507 424.33" fill="#41B79B"/>
<path d="M384.888 473.957C384.934 473.957 385.014 473.371 385.118 472.314C385.232 471.12 385.382 469.627 385.554 467.847C385.761 465.963 386.036 463.735 386.565 461.289C387.082 458.854 387.897 456.224 388.942 453.559C390.022 450.906 391.342 448.494 392.893 446.565C394.421 444.624 396.212 443.223 397.889 442.419C399.554 441.592 401.059 441.259 402.093 441.109C403.138 441.006 403.723 440.914 403.723 440.868C403.723 440.822 403.138 440.811 402.07 440.845C401.002 440.914 399.451 441.19 397.682 441.982C395.914 442.763 394.019 444.187 392.411 446.174C390.791 448.15 389.424 450.608 388.322 453.318C387.254 456.04 386.45 458.693 385.956 461.174C385.462 463.655 385.232 465.917 385.083 467.812C384.945 469.707 384.888 471.246 384.865 472.303C384.819 473.371 384.842 473.957 384.888 473.957Z" fill="#263238"/>
<path d="M385.17 470.523C385.193 470.523 385.204 470.258 385.216 469.765C385.216 469.19 385.216 468.478 385.204 467.594C385.204 465.71 385.204 462.977 385.296 459.612C385.468 452.87 386.043 445.623 387.168 435.401C388.225 425.788 389.649 414.601 391.154 407.331C391.475 405.678 391.797 404.184 392.107 402.887C392.394 401.577 392.647 400.452 392.888 399.544C393.095 398.683 393.267 397.983 393.393 397.431C393.497 396.949 393.554 396.685 393.531 396.685C393.508 396.673 393.416 396.926 393.267 397.397C393.106 397.948 392.888 398.637 392.635 399.476C392.36 400.383 392.072 401.497 391.739 402.795C391.395 404.093 391.039 405.574 390.683 407.228C389.201 413.82 387.616 423.032 386.491 433.276C385.365 443.521 384.86 452.847 384.814 459.6C384.779 462.977 384.848 465.71 384.929 467.594C384.986 468.478 385.032 469.19 385.066 469.765C385.124 470.258 385.147 470.523 385.17 470.523Z" fill="#263238"/>
<path d="M385.213 452.537C385.259 452.537 385.247 451.733 385.202 450.263C385.121 448.804 384.914 446.702 384.512 444.118C384.076 441.545 383.467 438.479 382.514 435.16C382.101 433.644 381.124 430.003 378.77 424.559C375.669 417.185 371.442 411.167 367.767 407.435C366.906 406.447 365.952 405.735 365.183 405.034C364.781 404.701 364.436 404.368 364.08 404.104C363.724 403.851 363.391 403.622 363.081 403.415C361.875 402.588 361.198 402.151 361.175 402.197C361.071 402.347 363.885 404.001 367.434 407.779C370.971 411.558 375.072 417.542 378.161 424.846C379.884 428.808 381.078 432.346 381.928 435.343C382.916 438.64 383.559 441.66 384.053 444.21C384.524 446.771 384.788 448.85 384.96 450.297C385.075 451.733 385.167 452.537 385.213 452.537Z" fill="#263238"/>
<path d="M367.844 484.27L369.647 508.963H401.38L403.184 484.27H367.844Z" fill="#263238"/>
<path d="M406.99 474.531H364.805V484.27H406.99V474.531Z" fill="#263238"/>
<path d="M364.805 508.01V510.709H366.78H406.278V508.01H364.805Z" fill="#455A64"/>
<path d="M368.695 515.464L366.754 510.709H404.747L402.484 515.464H368.695Z" fill="#455A64"/>
<path d="M402.599 492.333C402.61 492.333 402.553 492.413 402.449 492.562C402.323 492.735 402.162 492.941 401.979 493.194C401.531 493.768 400.91 494.561 400.129 495.56L400.049 495.663L399.969 495.548C398.809 493.941 397.258 491.793 395.432 489.266H395.696C394.341 491.184 392.836 493.309 391.228 495.594L391.091 495.79L390.93 495.606C389.276 493.642 387.484 491.517 385.624 489.301H385.934C385.842 489.415 385.739 489.542 385.647 489.668C384.004 491.724 382.408 493.722 380.903 495.606L380.742 495.801L380.593 495.594C378.985 493.32 377.481 491.184 376.125 489.266L376.39 489.278C374.185 491.793 372.312 493.918 370.877 495.548L370.773 495.663L370.705 495.537C369.981 494.32 369.395 493.343 368.982 492.643C368.798 492.333 368.66 492.068 368.534 491.873C368.442 491.701 368.385 491.598 368.396 491.598C368.407 491.598 368.465 491.678 368.58 491.839C368.706 492.034 368.867 492.275 369.074 492.585C369.51 493.274 370.119 494.228 370.888 495.434L370.716 495.422C372.129 493.768 373.966 491.609 376.137 489.071L376.275 488.91L376.401 489.082C377.768 491 379.295 493.114 380.915 495.388L380.616 495.376C382.121 493.481 383.706 491.494 385.348 489.427C385.451 489.301 385.543 489.174 385.635 489.059L385.784 488.876L385.945 489.059C387.806 491.276 389.586 493.412 391.228 495.376L390.93 495.388C392.561 493.114 394.077 490.989 395.443 489.094L395.581 488.91L395.708 489.094C397.499 491.644 399.015 493.814 400.152 495.445H399.992C400.807 494.469 401.45 493.699 401.91 493.137C402.116 492.895 402.289 492.7 402.426 492.539C402.53 492.402 402.599 492.333 402.599 492.333Z" fill="#E0E0E0"/>
<path d="M403.629 484.098C403.629 484.213 395.681 484.293 385.873 484.293C376.065 484.293 368.117 484.201 368.117 484.098C368.117 483.994 376.065 483.903 385.873 483.903C395.681 483.903 403.629 483.994 403.629 484.098Z" fill="#455A64"/>
<path d="M405.235 510.985C405.235 511.099 396.598 511.18 385.94 511.18C375.281 511.18 366.645 511.088 366.645 510.985C366.645 510.881 375.281 510.789 385.94 510.789C396.586 510.778 405.235 510.87 405.235 510.985Z" fill="#263238"/>
<path d="M92.2666 432.196C92.1747 432.3 91.4511 431.875 90.6472 431.22C89.8432 430.577 89.2575 429.968 89.3493 429.853C89.4412 429.75 90.1648 430.186 90.9687 430.829C91.7727 431.473 92.347 432.081 92.2666 432.196Z" fill="#263238"/>
<path d="M114.262 399.314C114.4 396.236 114.481 393.089 113.516 390.172C112.551 387.255 110.3 384.567 107.279 383.947C103.845 383.235 100.319 385.406 98.3899 388.335C96.4604 391.263 95.8058 394.835 95.2315 398.292C91.3151 422.158 89.868 446.426 90.9246 470.591L104.994 472.566C111.173 447.334 113.148 425.271 114.262 399.314Z" fill="#455A64"/>
<path d="M105.332 383.832C105.344 383.832 105.321 383.913 105.264 384.062C105.206 384.234 105.126 384.441 105.034 384.705C104.804 385.302 104.494 386.106 104.092 387.14C103.897 387.668 103.633 388.243 103.426 388.897C103.219 389.552 102.99 390.264 102.748 391.022C102.507 391.792 102.243 392.607 101.956 393.468C101.726 394.353 101.485 395.283 101.232 396.259C100.176 400.153 99.2913 404.896 98.5103 410.179C97.7523 415.474 97.247 421.331 96.8565 427.487C96.1329 439.811 96.0295 450.997 95.7079 459.083C95.5586 463.126 95.4208 466.399 95.26 468.662C95.1911 469.753 95.1222 470.625 95.0877 471.257C95.0648 471.533 95.0418 471.751 95.0303 471.935C95.0188 472.084 95.0073 472.165 94.9959 472.165C94.9844 472.165 94.9844 472.084 94.9844 471.935C94.9844 471.751 94.9844 471.533 94.9959 471.257C95.0188 470.625 95.0418 469.753 95.0763 468.65C95.1681 466.387 95.26 463.114 95.3634 459.071C95.5931 450.986 95.6505 439.799 96.3626 427.453C96.7531 421.285 97.2699 415.417 98.0624 410.11C98.8664 404.816 99.7852 400.072 100.899 396.167C101.163 395.191 101.416 394.261 101.657 393.377C101.944 392.515 102.231 391.7 102.484 390.93C102.748 390.172 102.99 389.46 103.208 388.805C103.426 388.151 103.702 387.588 103.92 387.06C104.356 386.049 104.701 385.245 104.942 384.659C105.057 384.407 105.149 384.211 105.218 384.039C105.287 383.901 105.321 383.832 105.332 383.832Z" fill="#263238"/>
<path d="M106.633 383.844C106.633 383.844 107.495 384.728 108.356 386.75C109.241 388.76 109.792 391.953 109.643 395.846C109.264 403.621 108.574 414.326 107.644 426.155C106.714 437.985 105.68 448.666 104.853 456.396C104.44 460.255 104.084 463.379 103.82 465.538C103.682 466.583 103.578 467.41 103.498 468.019C103.464 468.271 103.429 468.489 103.406 468.662C103.383 468.811 103.36 468.88 103.36 468.88C103.349 468.88 103.349 468.799 103.36 468.662C103.372 468.489 103.383 468.271 103.406 468.007C103.464 467.398 103.532 466.56 103.636 465.515C103.843 463.31 104.153 460.186 104.52 456.35C105.255 448.62 106.231 437.927 107.162 426.098C108.081 414.28 108.839 403.564 109.298 395.823C109.493 391.953 109.011 388.817 108.184 386.807C107.38 384.809 106.576 383.878 106.633 383.844Z" fill="#263238"/>
<path d="M116.389 420.24C116.343 420.366 115.148 420.068 113.724 419.551C112.3 419.034 111.186 418.517 111.232 418.391C111.278 418.265 112.472 418.563 113.896 419.08C115.321 419.585 116.435 420.114 116.389 420.24Z" fill="#263238"/>
<path d="M118.078 405.907C118.136 406.033 116.999 406.665 115.54 407.32C114.081 407.974 112.852 408.399 112.795 408.273C112.738 408.146 113.875 407.515 115.333 406.86C116.792 406.205 118.021 405.781 118.078 405.907Z" fill="#263238"/>
<path d="M117.2 394.203C117.189 394.341 116.247 394.387 115.099 394.307C113.95 394.226 113.031 394.054 113.031 393.916C113.043 393.778 113.985 393.732 115.133 393.813C116.282 393.893 117.212 394.065 117.2 394.203Z" fill="#263238"/>
<path d="M102.682 386.715C102.567 386.784 101.947 386.026 101.304 385.004C100.661 383.982 100.236 383.097 100.351 383.017C100.466 382.948 101.086 383.706 101.729 384.728C102.384 385.75 102.809 386.635 102.682 386.715Z" fill="#263238"/>
<path d="M97.8955 393.79C97.8955 393.928 96.9997 394.02 95.8971 393.997C94.7945 393.974 93.9102 393.847 93.9102 393.698C93.9102 393.56 94.806 393.468 95.9086 393.491C97.0111 393.514 97.8955 393.652 97.8955 393.79Z" fill="#263238"/>
<path d="M94.4434 407.94C94.386 408.066 93.4557 407.814 92.3417 407.366C91.2276 406.918 90.3777 406.447 90.4237 406.32C90.4811 406.194 91.4114 406.447 92.5254 406.895C93.6395 407.343 94.4894 407.814 94.4434 407.94Z" fill="#263238"/>
<path d="M94.0857 419.838C94.1086 419.976 93.3161 420.252 92.294 420.47C91.2718 420.688 90.4334 420.746 90.3989 420.608C90.376 420.47 91.1684 420.194 92.1906 419.976C93.2128 419.769 94.0512 419.712 94.0857 419.838Z" fill="#263238"/>
<path d="M92.4527 439.317C92.4757 439.455 91.6258 439.719 90.5577 439.914C89.4781 440.11 88.5937 440.156 88.5708 440.018C88.5478 439.88 89.3977 439.616 90.4658 439.42C91.5339 439.225 92.4298 439.179 92.4527 439.317Z" fill="#263238"/>
<path d="M91.369 450.067C91.438 450.193 90.7259 450.687 89.7841 451.193C88.8423 451.687 88.0269 451.997 87.9695 451.87C87.9005 451.744 88.6126 451.25 89.5544 450.745C90.4962 450.239 91.3001 449.941 91.369 450.067Z" fill="#263238"/>
<path d="M100.155 462.264C100.04 462.333 99.4197 461.483 98.7765 460.358C98.1334 459.232 97.7084 458.268 97.8347 458.199C97.9496 458.13 98.5698 458.98 99.213 460.105C99.8561 461.231 100.281 462.195 100.155 462.264Z" fill="#263238"/>
<path d="M102.688 441.993C102.78 442.096 102.103 442.923 101.149 443.854C100.208 444.784 99.3578 445.45 99.2544 445.358C99.1625 445.255 99.8402 444.428 100.793 443.498C101.747 442.567 102.585 441.89 102.688 441.993Z" fill="#263238"/>
<path d="M102.124 431.346C102.021 431.438 101.389 430.921 100.7 430.175C100.011 429.44 99.5398 428.762 99.6431 428.659C99.7465 428.567 100.378 429.084 101.067 429.83C101.756 430.577 102.227 431.254 102.124 431.346Z" fill="#263238"/>
<path d="M103.866 417.759C103.97 417.851 103.395 418.667 102.58 419.563C101.764 420.47 101.029 421.124 100.926 421.033C100.823 420.941 101.397 420.125 102.212 419.229C103.016 418.322 103.763 417.667 103.866 417.759Z" fill="#263238"/>
<path d="M104.859 407.894C104.767 407.997 103.963 407.366 103.068 406.493C102.172 405.62 101.529 404.827 101.632 404.724C101.724 404.621 102.528 405.252 103.424 406.125C104.308 407.01 104.951 407.802 104.859 407.894Z" fill="#263238"/>
<path d="M106.779 394.559C106.894 394.628 106.492 395.524 105.883 396.558C105.263 397.591 104.677 398.372 104.551 398.292C104.436 398.223 104.838 397.327 105.447 396.294C106.055 395.271 106.653 394.49 106.779 394.559Z" fill="#263238"/>
<path d="M110.402 382.201C110.528 382.27 110.172 383.166 109.61 384.2C109.047 385.233 108.496 386.026 108.369 385.957C108.243 385.888 108.599 384.992 109.162 383.958C109.724 382.925 110.276 382.144 110.402 382.201Z" fill="#263238"/>
<path d="M114.511 387.818C114.569 387.944 114.006 388.335 113.259 388.702C112.501 389.058 111.847 389.253 111.789 389.127C111.732 389.001 112.295 388.61 113.041 388.243C113.788 387.887 114.454 387.691 114.511 387.818Z" fill="#263238"/>
<path d="M114.598 432.196C114.575 432.323 113.3 432.15 111.841 431.53C110.394 430.91 109.384 430.117 109.453 430.003C109.533 429.876 110.636 430.473 112.037 431.071C113.449 431.668 114.632 432.058 114.598 432.196Z" fill="#263238"/>
<path d="M112.925 441.591C112.948 441.729 112.11 442.005 111.03 442.211C109.962 442.418 109.066 442.476 109.043 442.338C109.02 442.2 109.859 441.924 110.938 441.718C112.007 441.511 112.902 441.453 112.925 441.591Z" fill="#263238"/>
<path d="M110.852 457.705C110.772 457.808 109.692 457.073 108.716 455.821C107.728 454.581 107.258 453.363 107.372 453.306C107.499 453.237 108.153 454.305 109.107 455.511C110.06 456.717 110.956 457.601 110.852 457.705Z" fill="#263238"/>
<path d="M88.2636 465.078C88.1717 464.975 88.7459 464.331 89.5384 463.654C90.3309 462.976 91.0545 462.505 91.1463 462.609C91.2382 462.712 90.664 463.355 89.8715 464.033C89.0675 464.722 88.3554 465.181 88.2636 465.078Z" fill="#263238"/>
<path d="M81.7628 429.911C80.844 427.051 79.1328 423.72 76.1236 423.674C74.3435 423.652 72.7355 424.926 71.9086 426.5C71.0702 428.073 70.7142 429.899 70.7716 431.68C71.1161 443.44 73.149 456.889 77.2262 469.144H88.206C88.0567 455.523 85.909 442.866 81.7628 429.911Z" fill="#455A64"/>
<path d="M61.9111 411.914C60.3721 405.769 55.801 402.461 50.4834 402.151C45.6252 403.001 43.7417 407.779 43.1674 412.672C42.5931 417.564 44.1092 422.434 45.6137 427.132C50.4375 442.2 55.2498 457.268 60.0735 472.348C64.6216 471.855 69.1812 471.349 73.7293 470.855C69.3994 450.665 66.9186 431.944 61.9111 411.914Z" fill="#455A64"/>
<path d="M76.1351 423.674C76.1811 423.709 75.6872 424.168 75.2048 425.225C74.7339 426.293 74.5042 427.993 74.688 430.083C74.9062 432.173 75.1359 434.689 75.492 437.433C75.848 440.19 76.3419 443.21 76.9621 446.369C78.2024 452.674 79.6036 458.336 80.488 462.46C80.9359 464.527 81.2805 466.192 81.4872 467.352C81.5791 467.881 81.6595 468.328 81.7169 468.696C81.7628 469.006 81.7858 469.167 81.7628 469.167C81.7399 469.167 81.6939 469.018 81.6135 468.719C81.5216 468.363 81.4183 467.926 81.2919 467.398C81.0048 466.169 80.6143 464.538 80.1319 462.54C79.1557 458.44 77.6971 452.789 76.4567 446.461C75.8365 443.302 75.3541 440.259 75.0211 437.491C74.8488 436.101 74.7339 434.78 74.6191 433.54C74.5157 432.311 74.3894 431.163 74.3205 430.094C74.1712 427.981 74.4583 426.213 75.0096 425.133C75.5723 424.076 76.1351 423.674 76.1351 423.674Z" fill="#263238"/>
<path d="M50.6801 401.761C50.726 401.807 49.9565 402.45 49.0262 403.977C48.1074 405.482 47.1312 407.94 46.9474 411.121C46.7407 414.302 47.4528 418.07 48.6357 422.124C49.8302 426.19 51.151 430.646 52.5292 435.332C55.2512 444.692 57.7205 453.168 59.5236 459.37C60.385 462.414 61.0856 464.895 61.591 466.675C61.8092 467.502 61.9929 468.168 62.1308 468.662C62.2456 469.121 62.303 469.362 62.2801 469.362C62.2686 469.362 62.1767 469.133 62.0274 468.685C61.8666 468.191 61.6599 467.536 61.3957 466.721C60.8559 464.952 60.0979 462.494 59.1791 459.462C57.3415 453.272 54.8262 444.818 52.0468 435.47C50.6801 430.784 49.3708 426.316 48.1878 422.239C47.0163 418.173 46.3272 414.325 46.5914 411.087C46.8211 407.848 47.8662 405.356 48.8539 403.863C49.8532 402.358 50.6801 401.761 50.6801 401.761Z" fill="#263238"/>
<path d="M70.7297 469.397C70.7182 469.408 70.6033 469.179 70.4196 468.742C70.2358 468.306 69.9487 467.662 69.6386 466.824C68.9839 465.147 68.157 462.678 67.2841 459.566C66.4113 456.465 65.5614 452.72 64.7344 448.551C63.942 444.371 63.0691 439.777 62.1618 434.964C61.2085 430.152 60.1519 425.604 58.923 421.538C57.694 417.472 56.3273 413.901 54.9376 411.006C53.5594 408.112 52.2386 405.873 51.2509 404.368C50.78 403.598 50.355 403.047 50.1024 402.645C49.8382 402.255 49.7119 402.037 49.7234 402.025C49.7349 402.014 49.8957 402.209 50.1828 402.576C50.4584 402.955 50.9178 403.495 51.4117 404.242C52.4568 405.712 53.8236 407.94 55.2477 410.834C56.6834 413.728 58.096 417.3 59.3479 421.377C60.6113 425.455 61.6794 430.014 62.6327 434.838C63.5285 439.662 64.3899 444.256 65.1709 448.436C65.9748 452.606 66.7788 456.35 67.6057 459.451C68.4212 462.552 69.2021 465.032 69.7994 466.732C70.075 467.582 70.3392 468.237 70.4885 468.685C70.6722 469.144 70.7526 469.385 70.7297 469.397Z" fill="#263238"/>
<path d="M45.8529 424.881C45.8874 425.018 45.1409 425.317 44.1876 425.547C43.2343 425.776 42.4419 425.857 42.4074 425.719C42.3729 425.581 43.1195 425.282 44.0727 425.053C45.026 424.823 45.8185 424.743 45.8529 424.881Z" fill="#263238"/>
<path d="M44.4062 415.554C44.3947 415.692 43.3611 415.75 42.0977 415.807C40.8344 415.853 39.8007 415.876 39.7777 415.738C39.7547 415.6 40.7884 415.348 42.0747 415.302C43.3726 415.244 44.4177 415.417 44.4062 415.554Z" fill="#263238"/>
<path d="M45.9486 407.033C45.8567 407.136 45.1217 406.654 44.2947 405.953C43.4678 405.252 42.8706 404.598 42.9625 404.494C43.0543 404.391 43.7894 404.873 44.6163 405.574C45.4432 406.275 46.0405 406.929 45.9486 407.033Z" fill="#263238"/>
<path d="M50.1083 399.154C50.2462 399.188 50.2117 399.854 50.1887 400.647C50.1658 401.451 50.1658 402.117 50.0279 402.14C49.8901 402.163 49.6604 401.497 49.6949 400.635C49.7064 399.774 49.9705 399.119 50.1083 399.154Z" fill="#263238"/>
<path d="M58.6284 402.864C58.7433 402.944 58.4102 403.622 57.8819 404.368C57.3536 405.115 56.8367 405.666 56.7219 405.586C56.607 405.505 56.9401 404.827 57.4684 404.081C57.9967 403.334 58.5136 402.783 58.6284 402.864Z" fill="#263238"/>
<path d="M64.1421 412.465C64.1995 412.591 63.4874 413.005 62.5571 413.384C61.6268 413.763 60.8343 413.958 60.7884 413.832C60.731 413.705 61.443 413.292 62.3733 412.913C63.3036 412.545 64.0961 412.338 64.1421 412.465Z" fill="#263238"/>
<path d="M67.5055 422.342C67.5629 422.469 66.6211 422.997 65.3348 423.284C64.0484 423.583 62.9803 423.502 62.9688 423.364C62.9574 423.227 63.991 423.077 65.2199 422.79C66.4603 422.526 67.448 422.216 67.5055 422.342Z" fill="#263238"/>
<path d="M52.1083 419.54C51.9705 419.494 52.0738 418.816 52.3265 418.013C52.5792 417.209 52.8893 416.6 53.0156 416.634C53.1534 416.68 53.0501 417.358 52.7974 418.162C52.5562 418.966 52.2461 419.586 52.1083 419.54Z" fill="#263238"/>
<path d="M54.2533 431.944C54.127 431.886 54.4026 430.967 54.8735 429.888C55.3444 428.808 55.8268 427.981 55.9531 428.039C56.0794 428.096 55.8038 429.015 55.3329 430.095C54.862 431.174 54.3796 432.001 54.2533 431.944Z" fill="#263238"/>
<path d="M48.9545 435.343C48.897 435.47 48.0357 435.24 46.9905 434.907C45.9454 434.574 45.0955 434.275 45.1299 434.138C45.1529 434 46.0717 434.092 47.1398 434.425C48.2079 434.758 49.0119 435.217 48.9545 435.343Z" fill="#263238"/>
<path d="M52.0108 445.45C52.0912 445.565 51.5054 446.116 50.7015 446.69C49.8975 447.265 49.1854 447.632 49.105 447.517C49.0246 447.403 49.6104 446.851 50.4143 446.277C51.2183 445.714 51.9304 445.335 52.0108 445.45Z" fill="#263238"/>
<path d="M54.472 455.534C54.5065 455.672 53.7829 455.959 52.8526 456.189C51.9223 456.419 51.1528 456.487 51.1184 456.35C51.0839 456.212 51.8075 455.925 52.7378 455.695C53.6566 455.465 54.4376 455.396 54.472 455.534Z" fill="#263238"/>
<path d="M67.7644 430.772C67.8333 430.887 67.2131 431.381 66.3173 431.726C65.4215 432.07 64.629 432.105 64.606 431.967C64.583 431.829 65.2836 431.576 66.145 431.255C66.9949 430.922 67.6955 430.646 67.7644 430.772Z" fill="#263238"/>
<path d="M69.6714 446.449C69.614 446.576 68.8789 446.357 68.029 445.956C67.1792 445.554 66.536 445.129 66.5934 445.002C66.6508 444.876 67.3859 445.094 68.2358 445.496C69.0972 445.898 69.7403 446.323 69.6714 446.449Z" fill="#263238"/>
<path d="M73.0352 457.682C72.9893 457.808 72.0131 457.556 70.8645 457.096C69.716 456.648 68.8202 456.178 68.8776 456.051C68.9236 455.925 69.8998 456.178 71.0483 456.637C72.1853 457.073 73.0812 457.544 73.0352 457.682Z" fill="#263238"/>
<path d="M55.0154 466.468C54.9465 466.342 55.8424 465.745 56.876 464.918C57.9097 464.102 58.7137 463.379 58.817 463.471C58.9204 463.563 58.2657 464.47 57.1861 465.308C56.1065 466.17 55.0729 466.595 55.0154 466.468Z" fill="#263238"/>
<path d="M63.8747 460.76C63.7369 460.771 63.5416 460.025 63.1971 459.152C62.864 458.268 62.4965 457.59 62.6113 457.498C62.7147 457.418 63.3004 458.015 63.668 458.968C64.0355 459.91 64.0125 460.748 63.8747 460.76Z" fill="#263238"/>
<path d="M61.5299 447.265C61.4495 447.38 60.8753 447.104 60.2551 446.656C59.6234 446.208 59.187 445.749 59.2673 445.634C59.3477 445.519 59.922 445.795 60.5422 446.243C61.1624 446.691 61.6103 447.15 61.5299 447.265Z" fill="#263238"/>
<path d="M82.2125 426.109C82.2929 426.224 81.7416 426.775 80.9606 427.338C80.1911 427.912 79.502 428.28 79.4101 428.165C79.3297 428.05 79.881 427.499 80.662 426.936C81.4315 426.373 82.1321 425.994 82.2125 426.109Z" fill="#263238"/>
<path d="M85.3261 434.632C85.3375 434.769 84.4647 434.953 83.3851 434.827C82.3055 434.712 81.49 434.344 81.5245 434.218C81.5704 434.08 82.4088 434.218 83.431 434.333C84.4647 434.448 85.3146 434.494 85.3261 434.632Z" fill="#263238"/>
<path d="M71.921 436.549C71.9554 436.687 71.14 436.974 70.0948 437.043C69.0497 437.112 68.2113 436.94 68.2228 436.802C68.2343 436.664 69.0612 436.618 70.0604 436.549C71.0711 436.469 71.898 436.411 71.921 436.549Z" fill="#263238"/>
<path d="M73.0853 428.487C73.0738 428.624 72.2584 428.636 71.3625 428.222C70.4667 427.809 69.9499 427.177 70.0418 427.085C70.1336 426.982 70.7538 427.396 71.5693 427.763C72.3847 428.154 73.0968 428.349 73.0853 428.487Z" fill="#263238"/>
<path d="M86.4729 443.785C86.404 443.9 85.5656 443.509 84.6008 442.901C83.6361 442.292 82.924 441.718 82.9929 441.591C83.0618 441.477 83.9002 441.867 84.865 442.476C85.8297 443.085 86.5533 443.67 86.4729 443.785Z" fill="#263238"/>
<path d="M119.171 467.697H47.6758V480.365H119.171V467.697Z" fill="#41B79B"/>
<path d="M53.0156 477.861L61.7099 515.728H104.32L113.841 477.861H53.0156Z" fill="#41B79B"/>
<path d="M119.136 480.388C119.136 480.526 103.011 480.64 83.1189 480.64C63.2267 480.64 47.1016 480.526 47.1016 480.388C47.1016 480.25 63.2267 480.135 83.1189 480.135C103.011 480.135 119.136 480.25 119.136 480.388Z" fill="#263238"/>
<path d="M79.3756 436.825C79.2607 436.894 78.7668 436.331 78.2845 435.55C77.8021 434.769 77.5035 434.08 77.6183 434.011C77.7332 433.942 78.227 434.505 78.7094 435.286C79.1918 436.056 79.4904 436.745 79.3756 436.825Z" fill="#263238"/>
<path d="M79.3983 447.012C79.272 446.966 79.4328 446.105 79.7773 445.083C80.1104 444.061 80.5009 443.268 80.6272 443.314C80.7536 443.36 80.5928 444.222 80.2482 445.244C79.9152 446.266 79.5362 447.058 79.3983 447.012Z" fill="#263238"/>
<path d="M82.886 457.717C82.7596 457.774 82.2313 456.924 81.6915 455.81C81.1632 454.696 80.8301 453.743 80.9565 453.685C81.0828 453.628 81.6111 454.478 82.1509 455.592C82.6792 456.706 83.0123 457.659 82.886 457.717Z" fill="#263238"/>
<path d="M75.3397 466.33C75.2363 466.238 75.6613 465.572 76.293 464.849C76.9247 464.125 77.5219 463.608 77.6252 463.7C77.7286 463.792 77.3037 464.458 76.672 465.182C76.0403 465.905 75.4431 466.422 75.3397 466.33Z" fill="#263238"/>
<path d="M73.7563 450.699C73.7333 450.837 73.0442 450.825 72.2172 450.687C71.3903 450.538 70.7472 450.308 70.7701 450.182C70.7931 450.044 71.4822 450.056 72.3091 450.194C73.1246 450.331 73.7792 450.561 73.7563 450.699Z" fill="#263238"/>
<path d="M322.5 380.617H152.957V515.819H322.5V380.617Z" fill="#E0E0E0"/>
<g opacity="0.3">
<path d="M165.301 380.892C185.262 388.013 207.279 389.529 228.699 389.931C233.132 390.012 237.623 390.012 241.918 391.126C246.213 392.24 250.371 394.652 252.576 398.499C254.977 402.691 254.724 407.94 253.357 412.568C251.991 417.197 249.636 421.469 247.925 425.995C244.927 433.919 243.997 442.625 245.249 450.998C245.777 454.558 246.73 458.141 248.786 461.105C250.842 464.056 254.161 466.307 257.768 466.365C264.211 466.457 268.621 460.128 271.814 454.524C284.918 431.565 299.091 405.471 307.475 380.41L165.301 380.892Z" fill="black"/>
</g>
<path d="M210.732 515.096C210.571 515.096 210.434 485.131 210.434 448.172C210.434 411.202 210.571 381.237 210.732 381.237C210.893 381.237 211.031 411.202 211.031 448.172C211.031 485.131 210.893 515.096 210.732 515.096Z" fill="#455A64"/>
<path d="M280.194 280.696C279.689 277.331 269.616 266.179 269.616 266.179C269.616 266.179 264.574 245.953 263.07 239.993C262.691 238.5 261.887 236.811 260.876 235.111C257.362 229.151 252.205 224.315 246.164 220.916L232.221 213.072L228.879 205.652L195.377 188.436L186.292 204.458C186.292 204.458 164.229 211.475 161.312 216.483C158.394 221.49 162.759 288.609 162.759 288.609C162.759 288.609 153.525 327.337 151.572 335.354C149.631 343.37 152.204 352.926 152.204 352.926L168.639 332.299C173.75 325.89 184.96 322.95 193.011 323.065L261.818 323.363L259.085 304.091L314.719 314.91C314.719 314.91 324.297 296.247 325.044 295.868C325.79 295.5 280.194 280.696 280.194 280.696Z" fill="#41B79B"/>
<path d="M193.943 210.763C193.46 210.269 197.836 225.039 203.314 240.073C206.266 248.17 207.748 256.761 207.748 265.421V298.521V319.86L240.745 317.621L235.817 281.764C235.817 281.764 231.798 258.633 230.672 249.835C229.638 241.784 226.101 219.94 226.101 219.94C226.101 219.94 207.759 224.832 193.943 210.763Z" fill="white"/>
<path d="M267.144 294.225C267.109 294.225 267.098 293.927 267.144 293.398C267.19 292.87 267.316 292.101 267.58 291.182C268.085 289.344 269.268 286.875 271.347 284.785C273.437 282.694 275.907 281.511 277.744 280.995C278.663 280.73 279.433 280.604 279.961 280.558C280.489 280.512 280.788 280.524 280.788 280.558C280.799 280.661 279.628 280.788 277.871 281.397C276.113 281.994 273.77 283.188 271.772 285.198C269.774 287.208 268.579 289.551 267.982 291.308C267.373 293.065 267.247 294.237 267.144 294.225Z" fill="#263238"/>
<path d="M268.853 281.156C268.784 281.029 270.943 279.927 273.895 279.697C276.835 279.444 279.155 280.168 279.098 280.317C279.063 280.501 276.766 280.053 273.941 280.294C271.104 280.512 268.922 281.328 268.853 281.156Z" fill="#263238"/>
<g opacity="0.3">
<path d="M159.438 310.868L156.578 314.118C159.645 317.69 163.63 320.676 168.201 321.801C172.772 322.927 177.516 323.053 182.224 323.076C184.131 323.076 186.06 323.065 187.898 322.536C189.77 321.997 191.504 320.94 193.445 320.825C194.743 320.745 196.018 321.101 197.293 321.376C198.568 321.652 199.912 321.836 201.152 321.434C202.392 321.032 203.472 319.883 203.391 318.586C189.081 314.405 174.311 311.809 159.438 310.868Z" fill="black"/>
</g>
<path d="M253.61 315.025L245.513 306.423L228.859 302.208C228.859 302.208 213.596 306.779 213.24 306.767C212.872 306.756 199.963 303.241 199.963 303.241L195.449 319.791L218.707 321.388L245.26 320.32C245.26 320.32 246.65 319.033 245.823 318.149C245.008 317.265 250.268 319.642 250.888 319.665C251.497 319.688 252.714 320.17 253.53 319.183C254.092 318.517 254.85 316.346 253.61 315.025Z" fill="#FFBE9D"/>
<path d="M245.823 318.16C245.789 318.241 244.79 317.919 243.182 317.402C241.562 316.886 239.334 316.208 236.842 315.565C234.338 314.922 232.053 314.451 230.399 314.118C228.733 313.785 227.711 313.578 227.723 313.497C227.734 313.417 228.791 313.475 230.468 313.704C232.156 313.934 234.476 314.347 236.991 314.991C239.506 315.634 241.746 316.392 243.331 317.012C244.905 317.621 245.858 318.092 245.823 318.16Z" fill="#EB996E"/>
<path d="M253.614 315.025C253.58 315.105 252.19 314.588 249.916 313.83C247.653 313.061 244.483 312.131 240.957 311.143C237.443 310.098 234.307 309.053 231.93 308.915C229.564 308.719 228.117 309.179 228.094 309.064C228.083 309.03 228.427 308.892 229.093 308.731C229.748 308.57 230.736 308.455 231.953 308.49C234.411 308.524 237.638 309.535 241.118 310.569C244.644 311.556 247.814 312.555 250.054 313.428C251.179 313.853 252.075 314.244 252.684 314.519C253.304 314.807 253.625 314.99 253.614 315.025Z" fill="#EB996E"/>
<path d="M161.301 216.483C161.301 216.483 149.299 224.832 146.381 236.846C143.464 248.871 130.808 297.947 133.403 305.297C135.999 312.648 186.476 319.849 186.476 319.849L192.46 294.616L166.825 287.599C166.825 287.599 167.147 264.226 167.48 254.544C167.813 244.862 161.301 216.483 161.301 216.483Z" fill="#41B79B"/>
<path d="M192.113 298.383L200.371 300.416L195.398 319.458L187.289 318.161L192.113 298.383Z" fill="white"/>
<path d="M133.204 302.702C133.25 302.702 133.181 303.127 133.33 303.896C133.491 304.654 133.985 305.757 135.087 306.756C137.281 308.8 141.473 310.5 146.779 311.453H146.802L146.825 311.465C149.249 312.257 152.017 312.9 154.98 313.567C157.943 314.233 161.124 314.91 164.478 315.588C171.197 316.966 178.628 318.402 186.495 319.883L186.15 320.102C186.725 317.759 187.322 315.289 187.931 312.774C189.343 306.986 190.721 301.369 192.019 296.052L192.226 296.396C183.75 293.973 176.009 291.768 169.451 289.896H169.439H169.428C165.948 288.472 162.491 287.955 159.493 288.15C156.484 288.288 153.958 289.092 151.994 289.907C150.03 290.746 148.628 291.665 147.687 292.296C147.25 292.618 146.906 292.859 146.641 293.054C146.4 293.226 146.274 293.307 146.274 293.295C146.262 293.284 146.377 293.181 146.596 292.997C146.825 292.813 147.147 292.526 147.606 292.181C148.525 291.515 149.915 290.55 151.89 289.666C153.854 288.805 156.404 287.943 159.47 287.771C162.514 287.53 166.051 288.024 169.612 289.448L169.589 289.436C176.17 291.286 183.911 293.456 192.398 295.834L192.662 295.914L192.593 296.19C191.296 301.507 189.929 307.124 188.528 312.912C187.919 315.416 187.31 317.897 186.736 320.24L186.667 320.515L186.392 320.458C178.513 318.976 171.082 317.506 164.375 316.105C161.021 315.404 157.839 314.704 154.876 314.026C151.913 313.337 149.168 312.682 146.699 311.844L146.733 311.855C141.358 310.833 137.166 309.064 134.95 306.917C133.836 305.86 133.365 304.7 133.227 303.908C133.101 303.115 133.204 302.702 133.204 302.702Z" fill="#263238"/>
<path d="M168.201 289.275C168.132 289.356 167.271 288.563 165.732 287.53C164.193 286.496 161.919 285.278 159.22 284.486C156.509 283.705 153.936 283.51 152.087 283.556C150.238 283.602 149.09 283.797 149.078 283.705C149.067 283.648 150.181 283.292 152.076 283.142C153.959 282.981 156.612 283.119 159.392 283.923C162.171 284.739 164.48 286.048 165.984 287.196C167.489 288.334 168.247 289.229 168.201 289.275Z" fill="#263238"/>
<path d="M171.57 248.159C171.616 248.159 171.616 248.71 171.582 249.698C171.559 250.685 171.478 252.121 171.341 253.878C171.054 257.404 170.537 262.274 169.606 267.592C168.699 272.921 167.539 277.687 166.425 281.052C166.138 281.89 165.851 282.649 165.61 283.303C165.334 283.923 165.093 284.475 164.875 284.957C164.404 285.83 164.128 286.301 164.094 286.289C164.059 286.266 164.266 285.761 164.668 284.865C164.852 284.371 165.07 283.809 165.299 283.188C165.518 282.522 165.77 281.776 166.023 280.926C167.034 277.549 168.113 272.794 169.021 267.488C169.939 262.182 170.525 257.347 170.916 253.832C171.088 252.167 171.237 250.777 171.352 249.675C171.444 248.698 171.524 248.159 171.57 248.159Z" fill="#263238"/>
<path d="M200.832 235.146C200.797 235.157 200.717 234.836 200.43 234.296C200.143 233.768 199.637 233.021 198.707 232.412C197.8 231.815 196.41 231.379 194.974 231.861C193.562 232.321 192.172 233.641 191.827 235.433L191.667 236.248L191.311 235.49C190.105 232.883 188.864 229.886 187.796 226.624C185.855 220.709 185.017 215.047 185.201 210.958C185.201 209.936 185.35 209.017 185.407 208.213C185.545 207.409 185.648 206.72 185.775 206.169C186.062 205.066 186.246 204.458 186.28 204.469C186.429 204.492 185.602 206.915 185.625 210.97C185.557 215.001 186.441 220.583 188.37 226.44C189.427 229.668 190.633 232.665 191.804 235.261L191.288 235.318C191.713 233.308 193.275 231.896 194.837 231.425C196.444 230.931 197.96 231.448 198.891 232.137C199.856 232.826 200.349 233.653 200.591 234.216C200.705 234.503 200.786 234.732 200.809 234.893C200.843 235.054 200.855 235.134 200.832 235.146Z" fill="#263238"/>
<path d="M228.836 237.73C228.802 237.73 228.721 237.248 228.572 236.364C228.446 235.479 228.159 234.181 228.331 232.516C228.561 230.885 229.33 228.898 231.099 227.428C231.972 226.705 233.166 226.222 234.441 226.234C235.693 226.234 237.06 226.716 237.955 227.807L237.45 228.094C237.106 227.21 236.738 226.291 236.359 225.349C234.211 219.94 232.305 215.024 230.961 211.464C230.329 209.764 229.801 208.34 229.388 207.237C229.032 206.238 228.848 205.675 228.882 205.652C228.917 205.641 229.169 206.169 229.606 207.145C230.065 208.236 230.651 209.638 231.352 211.314C232.81 214.84 234.774 219.722 236.922 225.143C237.289 226.084 237.657 227.003 238.001 227.887L238.702 229.656L237.496 228.175C236.75 227.256 235.555 226.808 234.441 226.796C233.304 226.785 232.247 227.187 231.432 227.842C229.79 229.151 228.986 231.046 228.733 232.573C228.515 234.147 228.744 235.456 228.802 236.341C228.871 237.236 228.882 237.73 228.836 237.73Z" fill="#263238"/>
<path d="M250.137 240.578C250.298 240.555 252.893 258.013 255.937 279.57C258.98 301.139 261.3 318.631 261.139 318.654C260.979 318.677 258.383 301.22 255.34 279.651C252.307 258.105 249.976 240.601 250.137 240.578Z" fill="#263238"/>
<g opacity="0.3">
<path d="M188.148 226.808C188.286 231.264 189.263 235.697 191.008 239.774C192.26 238.235 193.65 236.593 195.545 236.145C197.922 235.582 200.311 237.041 202.034 238.821C201.666 237.041 201.069 235.272 199.967 233.871C198.864 232.458 197.176 231.448 195.419 231.494C193.65 231.54 191.904 232.837 191.582 234.618L188.286 226.888" fill="black"/>
</g>
<path d="M168.758 239.43C168.643 239.43 168.689 238.224 168.333 236.352C167.988 234.48 167.15 231.942 165.542 229.518C164.726 228.312 163.819 227.279 162.912 226.394C161.981 225.544 161.097 224.844 160.282 224.35C158.674 223.328 157.537 222.937 157.571 222.834C157.583 222.799 157.87 222.868 158.398 223.041C158.662 223.121 158.972 223.236 159.328 223.397C159.684 223.558 160.086 223.73 160.511 223.982C161.373 224.442 162.326 225.142 163.302 225.992C164.255 226.877 165.209 227.945 166.047 229.185C167.712 231.689 168.516 234.342 168.758 236.283C168.884 237.248 168.918 238.04 168.872 238.592C168.838 239.131 168.804 239.43 168.758 239.43Z" fill="#263238"/>
<path d="M235.43 157.472C234.074 144.723 223.14 135.156 210.323 135.489L209.048 135.524C195.335 136.684 188.651 148.973 190.19 162.652L193.957 210.763L195.553 212.715C202.927 221.766 215.468 224.729 226.115 219.917L225.059 204.435C225.059 204.435 238.209 202.046 238.037 188.838C237.933 182.452 236.693 169.336 235.43 157.472Z" fill="#FFBE9D"/>
<path d="M225.149 204.423C225.149 204.423 216.731 205.146 207.715 199.806C207.715 199.806 212.033 209.201 225.172 207.673L225.149 204.423Z" fill="#EB996E"/>
<path d="M231.247 168.395C231.304 169.395 230.512 170.267 229.478 170.348C228.444 170.428 227.549 169.693 227.491 168.694C227.434 167.695 228.226 166.822 229.26 166.741C230.294 166.661 231.189 167.396 231.247 168.395Z" fill="#263238"/>
<path d="M232.125 161.216C231.975 161.446 230.482 161.607 228.691 162.572C226.899 163.525 225.831 164.742 225.578 164.719C225.463 164.719 225.567 164.386 226.026 163.847C226.486 163.318 227.335 162.572 228.45 161.974C229.564 161.377 230.609 161.102 231.252 161.044C231.918 160.987 232.205 161.102 232.125 161.216Z" fill="#263238"/>
<path d="M212.192 169.393C212.25 170.392 211.457 171.265 210.423 171.346C209.39 171.426 208.494 170.691 208.437 169.692C208.379 168.693 209.172 167.82 210.205 167.739C211.239 167.659 212.135 168.394 212.192 169.393Z" fill="#263238"/>
<path d="M211.909 163.984C211.645 164.042 210.416 163.215 208.452 162.721C206.488 162.227 204.891 162.353 204.708 162.181C204.616 162.101 204.914 161.951 205.615 161.894C206.304 161.825 207.43 161.883 208.658 162.181C209.887 162.491 210.841 162.962 211.369 163.33C211.897 163.709 212.035 163.961 211.909 163.984Z" fill="#263238"/>
<path d="M219.843 179.753C219.832 179.638 221.083 179.385 223.128 179.075C223.645 179.006 224.127 178.891 224.207 178.535C224.322 178.156 224.093 177.605 223.817 177.008C223.3 175.767 222.749 174.469 222.186 173.103C219.912 167.544 218.258 162.961 218.476 162.869C218.706 162.778 220.727 167.211 223.002 172.781C223.553 174.148 224.07 175.457 224.575 176.709C224.782 177.295 225.138 177.949 224.897 178.73C224.77 179.121 224.391 179.408 224.07 179.511C223.737 179.626 223.449 179.638 223.197 179.661C221.129 179.833 219.855 179.867 219.843 179.753Z" fill="#263238"/>
<path d="M211.942 156.151C211.712 156.691 209.702 156.335 207.313 156.507C204.913 156.633 202.96 157.231 202.673 156.725C202.547 156.484 202.903 155.979 203.707 155.485C204.499 154.991 205.751 154.543 207.187 154.451C208.623 154.359 209.92 154.658 210.77 155.049C211.62 155.439 212.034 155.887 211.942 156.151Z" fill="#263238"/>
<path d="M232.049 156.599C231.612 157.07 229.855 156.599 227.765 156.599C225.663 156.542 223.894 156.944 223.481 156.473C223.297 156.243 223.573 155.772 224.342 155.336C225.1 154.888 226.375 154.52 227.822 154.543C229.258 154.566 230.521 154.968 231.245 155.439C231.991 155.899 232.244 156.369 232.049 156.599Z" fill="#263238"/>
<path d="M239.27 145.792C239.018 144.597 237.835 143.575 236.629 143.759C237.272 143.529 237.938 143.288 238.455 142.828C238.972 142.369 239.293 141.634 239.075 140.991C238.742 139.969 237.433 139.762 236.399 139.463C235.044 139.084 233.827 138.269 232.954 137.166C231.702 135.581 231.219 133.514 230.128 131.814C228.727 129.609 226.281 128.082 223.685 127.794C221.078 127.507 218.368 128.461 216.518 130.31C214.497 128.242 211.453 127.22 208.594 127.657C205.734 128.093 203.138 129.977 201.829 132.549C198.326 131.091 194.054 131.688 191.079 134.065C188.116 136.431 186.588 140.474 187.231 144.218L195.455 149.26C195.593 146.722 198.429 144.701 200.876 145.401C203.356 146.113 204.941 148.996 207.526 149.191C209.535 149.341 211.235 147.79 213.188 147.273C215.542 146.642 218.034 147.583 220.159 148.789C222.284 149.984 224.305 151.477 226.671 152.074C229.451 152.775 232.402 152.166 235.055 151.075C236.192 150.615 237.318 150.041 238.156 149.157C238.995 148.249 239.523 146.986 239.27 145.792Z" fill="#263238"/>
<path d="M196.885 145.367L234.556 145.149C233.316 142.588 231.168 140.566 228.848 138.901C223.852 135.329 217.777 133.181 211.632 133.239C205.487 133.296 193.198 141.129 188.868 145.482C185.4 148.973 185.503 151.902 185.503 151.902C185.078 156.795 187.961 162.273 189.179 167.028C189.81 169.486 191.097 176.928 191.097 176.928C193.175 176.859 193.899 175.194 193.52 173.149L192.911 165.11C192.911 165.11 199.825 159.896 196.23 150.822C195.679 150.122 194.439 146.803 196.885 145.367Z" fill="#263238"/>
<path d="M192.341 164.592C190.423 157.92 188.665 150.776 190.698 144.137C190.331 144.126 189.952 144.103 189.584 144.092L189.113 144.436C187.012 143.724 184.485 144.528 183.175 146.331C181.866 148.123 181.878 150.776 183.187 152.568C180.959 152.464 178.811 154.325 178.616 156.553C178.478 158.092 179.144 159.573 179.833 160.952C180.522 162.33 181.257 163.766 181.269 165.305C181.28 166.844 180.293 168.52 178.765 168.704C179.454 170.289 181.361 171.219 183.026 170.771C182.498 172.081 181.591 173.218 180.442 174.033C182.9 175.699 186.265 175.136 188.93 173.838C190.514 173.069 192.065 171.966 192.708 170.335C193.42 168.509 192.869 166.476 192.341 164.592Z" fill="#263238"/>
<path d="M191.725 172.368C191.495 172.276 182.583 169.922 183.1 178.938C183.617 187.954 192.564 185.576 192.575 185.312C192.575 185.059 191.725 172.368 191.725 172.368Z" fill="#FFBE9D"/>
<path d="M190.415 182.039C190.369 182.016 190.266 182.154 190.002 182.291C189.749 182.429 189.313 182.533 188.83 182.383C187.854 182.085 186.97 180.626 186.832 178.995C186.763 178.18 186.889 177.387 187.142 176.721C187.383 176.043 187.774 175.561 188.256 175.446C188.727 175.308 189.083 175.573 189.209 175.825C189.347 176.066 189.301 176.25 189.347 176.262C189.37 176.285 189.531 176.101 189.439 175.733C189.393 175.561 189.278 175.354 189.048 175.194C188.819 175.033 188.497 174.964 188.164 175.01C187.475 175.102 186.878 175.779 186.602 176.503C186.281 177.238 186.12 178.134 186.2 179.053C186.361 180.867 187.395 182.51 188.715 182.82C189.359 182.946 189.875 182.728 190.14 182.498C190.415 182.257 190.45 182.05 190.415 182.039Z" fill="#EB996E"/>
<path d="M182.358 164.892C182.335 164.915 182.105 164.547 182.197 163.847C182.278 163.157 182.783 162.158 183.886 161.492C184.977 160.826 186.481 160.665 188.02 160.493C189.536 160.332 191.271 159.896 192.143 158.403C193.016 156.944 193.039 155.164 192.844 153.671C192.626 152.155 192.224 150.777 192.029 149.594C191.546 147.205 192.006 145.677 192.086 145.723C192.189 145.735 191.925 147.205 192.511 149.49C192.764 150.639 193.212 151.982 193.476 153.579C193.694 155.152 193.728 157.059 192.729 158.77C192.224 159.609 191.431 160.252 190.582 160.585C189.732 160.929 188.882 161.044 188.089 161.136C186.516 161.274 185.126 161.389 184.127 161.929C183.139 162.445 182.622 163.295 182.473 163.893C182.301 164.501 182.416 164.88 182.358 164.892Z" fill="#455A64"/>
<path d="M180.182 160.952C180.147 160.964 179.986 160.7 179.906 160.137C179.837 159.586 179.871 158.724 180.354 157.817C180.595 157.369 180.94 156.91 181.422 156.531C181.893 156.14 182.536 155.887 183.156 155.727C183.765 155.543 184.408 155.393 184.867 155.026C185.327 154.658 185.534 154.061 185.545 153.372C185.568 152.683 185.465 151.959 185.488 151.236C185.499 150.524 185.58 149.835 185.717 149.192C185.993 147.905 186.464 146.814 187.015 145.964C187.555 145.091 188.428 144.666 189.014 144.689C189.611 144.689 189.864 144.965 189.829 144.988C189.806 145.045 189.53 144.885 189.025 144.965C188.52 145.022 187.877 145.413 187.429 146.228C186.981 147.032 186.579 148.1 186.349 149.318C186.234 149.927 186.177 150.57 186.177 151.247C186.165 151.913 186.28 152.614 186.257 153.407C186.257 154.176 185.97 155.072 185.304 155.566C184.649 156.06 183.937 156.186 183.34 156.358C182.1 156.599 181.273 157.289 180.79 158.081C179.826 159.677 180.319 160.964 180.182 160.952Z" fill="#455A64"/>
<path d="M232.96 137.167C233.018 137.178 232.283 137.66 231.1 137.098C230.526 136.845 229.951 136.294 229.4 135.651C228.849 134.996 228.217 134.295 227.31 133.79C225.553 132.791 222.693 132.527 220.511 134.238C219.397 135.042 218.409 136.179 217.111 137.121C216.468 137.58 215.71 137.993 214.848 138.166C213.999 138.338 213.091 138.212 212.276 137.925C210.645 137.339 209.37 136.34 207.969 135.834C206.568 135.294 205.109 135.053 203.731 135.076C200.951 135.088 198.54 136.133 196.897 137.431C195.22 138.729 194.244 140.176 193.67 141.209C193.107 142.254 192.9 142.898 192.843 142.875C192.82 142.863 192.854 142.702 192.935 142.392C193.015 142.082 193.176 141.634 193.429 141.083C193.945 139.992 194.887 138.441 196.587 137.04C198.252 135.639 200.779 134.468 203.719 134.433C205.178 134.399 206.717 134.628 208.21 135.203C209.726 135.754 211.035 136.753 212.505 137.27C213.241 137.534 213.987 137.626 214.711 137.488C215.434 137.35 216.089 136.994 216.698 136.569C217.915 135.708 218.926 134.571 220.12 133.721C221.303 132.837 222.75 132.4 224.059 132.412C225.38 132.423 226.586 132.791 227.551 133.353C228.527 133.916 229.193 134.72 229.699 135.386C230.227 136.053 230.709 136.569 231.226 136.845C232.26 137.442 232.96 137.098 232.96 137.167Z" fill="#455A64"/>
<path d="M214.836 182.119C215.123 182.05 215.444 183.98 217.328 185.071C219.211 186.162 221.221 185.599 221.29 185.875C221.336 185.99 220.9 186.323 220.027 186.495C219.177 186.667 217.891 186.598 216.742 185.932C215.594 185.266 214.973 184.221 214.778 183.44C214.56 182.648 214.698 182.131 214.836 182.119Z" fill="#263238"/>
<path d="M333.689 361.574C330.278 358.531 325.558 357.118 320.998 357.382L313.234 382.052C318.92 382.305 324.593 385.234 330.083 383.729C334.493 382.523 337.836 378.377 338.444 373.852C339.076 369.327 337.112 364.618 333.689 361.574Z" fill="#41B79B"/>
<path d="M321.152 356.808C321.164 356.613 321.991 356.452 323.507 356.475C325 356.521 327.228 356.682 329.858 357.669C332.5 358.646 335.371 360.644 337.588 363.676C338.702 365.192 339.632 366.995 340.172 369.028C340.723 371.049 340.815 373.312 340.367 375.494C339.919 377.688 338.954 379.744 337.542 381.386C336.129 383.04 334.326 384.177 332.534 384.855C328.916 386.21 325.436 385.992 322.772 385.486C320.084 384.958 318.063 384.177 316.685 383.603C315.318 383.017 314.606 382.581 314.663 382.385C314.721 382.19 315.559 382.247 317.018 382.489C318.476 382.718 320.544 383.166 323.07 383.396C325.574 383.626 328.606 383.545 331.501 382.305C332.936 381.685 334.268 380.766 335.302 379.503C336.347 378.239 337.082 376.631 337.438 374.897C338.185 371.394 337.117 367.891 335.337 365.249C333.545 362.585 331.213 360.678 329.008 359.599C326.792 358.496 324.747 358.002 323.346 357.623C321.933 357.256 321.129 357.015 321.152 356.808Z" fill="#F5F5F5"/>
<path d="M249.223 449.321L232.34 496.628L291.086 517.933C292.775 512.202 266.474 489.909 266.474 489.909L278.533 460.048L249.223 449.321Z" fill="#41B79B"/>
<g opacity="0.6">
<path d="M249.234 480.778C247.982 480.675 246.731 481.674 246.581 482.914C246.432 484.155 247.431 485.441 248.672 485.556C249.923 485.682 251.451 484.534 251.462 483.282C251.474 482.03 250.222 480.594 248.982 480.767" fill="white"/>
</g>
<path d="M232.34 496.629L234.04 491.851L289.846 514.109C289.846 514.109 292.051 516.199 291.086 517.934L232.34 496.629Z" fill="white"/>
<path d="M267.578 489.955C267.463 490.242 265.981 489.852 264.235 490.254C262.478 490.621 261.295 491.598 261.077 491.391C260.836 491.242 261.881 489.68 264.006 489.22C266.119 488.749 267.727 489.714 267.578 489.955Z" fill="#263238"/>
<path d="M272.745 494.744C272.71 495.043 271.286 495.077 269.873 495.939C268.438 496.754 267.714 497.983 267.427 497.868C267.14 497.811 267.553 496.065 269.334 495.031C271.102 493.975 272.836 494.469 272.745 494.744Z" fill="#263238"/>
<path d="M273.568 503.381C273.281 503.346 273.408 501.773 274.717 500.464C276.015 499.154 277.588 499.017 277.623 499.304C277.703 499.602 276.52 500.131 275.464 501.21C274.384 502.278 273.867 503.461 273.568 503.381Z" fill="#263238"/>
<path d="M269.534 482.846C269.315 483.064 268.144 482.191 266.49 481.709C264.836 481.192 263.378 481.284 263.32 480.986C263.228 480.721 264.848 480.101 266.8 480.698C268.741 481.273 269.763 482.674 269.534 482.846Z" fill="#263238"/>
<path d="M270.676 475.37C270.642 475.484 269.436 475.255 267.736 474.29C266.886 473.808 265.933 473.13 265.003 472.223C264.532 471.775 264.072 471.269 263.636 470.718C263.429 470.443 263.176 470.155 263.004 469.707C262.797 469.294 262.889 468.467 263.429 468.134C263.889 467.789 264.497 467.789 264.922 467.939C265.359 468.077 265.68 468.295 265.967 468.49C266.565 468.881 267.104 469.328 267.564 469.776C268.506 470.695 269.183 471.671 269.631 472.544C270.538 474.302 270.607 475.542 270.493 475.565C270.332 475.611 269.987 474.474 268.976 472.923C268.471 472.154 267.782 471.292 266.886 470.488C266.438 470.086 265.933 469.707 265.382 469.351C264.819 468.961 264.291 468.766 264.026 468.984C263.934 469.064 263.912 469.11 263.969 469.34C264.038 469.558 264.233 469.811 264.44 470.087C264.842 470.615 265.255 471.097 265.669 471.534C266.507 472.418 267.369 473.119 268.115 473.658C269.666 474.738 270.745 475.22 270.676 475.37Z" fill="#263238"/>
<path d="M270.124 475.645C270.009 475.656 269.814 474.416 270.377 472.521C270.664 471.579 271.158 470.499 271.95 469.443C272.341 468.914 272.812 468.409 273.352 467.927C273.903 467.467 274.604 466.847 275.764 467.123C276.349 467.306 276.671 467.938 276.694 468.386C276.74 468.857 276.659 469.213 276.602 469.569C276.464 470.292 276.2 470.959 275.89 471.556C275.247 472.739 274.362 473.589 273.535 474.14C271.836 475.243 270.515 475.151 270.526 475.047C270.48 474.864 271.686 474.68 273.087 473.531C273.777 472.968 274.512 472.153 275.017 471.108C275.27 470.58 275.476 470.005 275.58 469.385C275.718 468.73 275.66 468.133 275.407 468.122C275.12 468.007 274.454 468.306 274.029 468.707C273.535 469.121 273.099 469.58 272.72 470.04C271.962 470.97 271.434 471.923 271.089 472.773C270.377 474.473 270.297 475.656 270.124 475.645Z" fill="#263238"/>
<path d="M192.311 322.984C183.398 323.191 174.945 324.454 168.812 330.909C160.669 339.477 150.608 351.697 150.034 360.162C149.184 372.818 156.81 376.585 162.392 379.663C164.861 381.03 167.675 381.639 170.489 381.536L273.488 380.755L276.726 363.309L210.113 346.896L212.881 321.824L192.311 322.984Z" fill="#263238"/>
<path d="M212.854 321.824L245.254 320.331C245.254 320.331 301.221 323.444 313.165 334.389C325.11 345.334 323.617 357.773 319.631 369.706C315.646 381.65 280.582 458.003 280.582 458.003C280.582 458.003 283.43 462.862 281.822 467.708C279.341 475.208 272.68 476.414 272.68 476.414L241.532 464.963C241.532 464.963 237.306 463.47 240.292 459.497C243.278 455.511 245.265 454.776 245.265 454.776V446.817C245.265 446.817 256.21 426.913 257.21 424.18C258.209 421.446 268.695 380.95 268.695 380.95L275.666 368.971C275.666 368.971 258.818 361.046 244.208 355.304L210.098 346.896L212.854 321.824Z" fill="#263238"/>
<path d="M265.415 463.528C265.358 463.608 264.37 462.827 262.682 461.736C260.993 460.645 258.57 459.29 255.71 458.199C252.85 457.119 250.128 456.51 248.141 456.212C246.155 455.902 244.903 455.833 244.914 455.741C244.914 455.672 246.177 455.592 248.199 455.798C250.22 455.994 253.011 456.545 255.928 457.647C258.846 458.761 261.28 460.197 262.934 461.392C264.565 462.586 265.461 463.482 265.415 463.528Z" fill="#455A64"/>
<path d="M280.98 458.061C280.923 458.107 280.222 457.383 279.166 456.154C278.121 454.926 276.719 453.168 275.249 451.181C273.779 449.194 272.527 447.334 271.666 445.967C270.805 444.6 270.322 443.716 270.38 443.67C270.449 443.624 271.057 444.417 272.011 445.726C273.102 447.219 274.342 448.93 275.72 450.825C277.121 452.709 278.385 454.409 279.487 455.89C280.464 457.188 281.049 458.004 280.98 458.061Z" fill="#455A64"/>
<path d="M292.396 358.037C292.419 358.129 291.248 358.381 289.445 358.979C287.641 359.576 285.207 360.587 282.737 362.126C280.279 363.665 278.292 365.41 276.972 366.765C275.639 368.121 274.904 369.063 274.824 369.005C274.767 368.971 275.387 367.937 276.662 366.478C277.925 365.02 279.912 363.182 282.427 361.609C284.942 360.047 287.458 359.07 289.33 358.565C291.19 358.071 292.385 357.968 292.396 358.037Z" fill="#455A64"/>
<path d="M260.529 412.109C260.506 412.109 260.552 411.868 260.656 411.432C260.782 410.938 260.943 410.306 261.138 409.537C261.597 407.814 262.229 405.459 262.999 402.588C264.652 396.662 266.892 388.611 269.373 379.721C270.671 375.265 271.773 371.004 273.025 367.156C274.472 363.332 276.769 360.392 278.894 358.209C281.03 356.027 283.04 354.557 284.464 353.615C285.188 353.156 285.751 352.811 286.141 352.605C286.532 352.387 286.75 352.283 286.75 352.306C286.773 352.352 285.969 352.834 284.591 353.811C283.212 354.798 281.271 356.303 279.193 358.497C277.137 360.679 274.92 363.607 273.542 367.34C272.347 371.142 271.233 375.437 269.947 379.882C267.397 388.76 265.1 396.788 263.401 402.703C262.551 405.563 261.862 407.894 261.356 409.605C261.115 410.363 260.92 410.984 260.77 411.477C260.633 411.891 260.552 412.121 260.529 412.109Z" fill="#455A64"/>
<path d="M231.872 353.776C231.711 353.788 231.022 347.735 230.356 340.247C229.678 332.758 229.265 326.671 229.425 326.66C229.586 326.648 230.275 332.701 230.941 340.189C231.619 347.677 232.032 353.765 231.872 353.776Z" fill="#455A64"/>
<path d="M177.939 369.947C177.847 369.993 177.353 369.017 176.331 367.569C175.32 366.134 173.735 364.273 171.622 362.631C169.509 360.988 167.326 359.886 165.684 359.266C164.042 358.634 162.973 358.381 162.996 358.278C163.008 358.221 164.122 358.312 165.833 358.864C167.545 359.404 169.819 360.472 172.001 362.16C174.171 363.86 175.756 365.812 176.687 367.34C177.629 368.867 177.996 369.924 177.939 369.947Z" fill="#455A64"/>
<path d="M197.8 347.953C197.742 348.045 196.364 347.161 193.987 346.081C191.609 344.99 188.175 343.807 184.236 343.233C180.285 342.67 176.656 342.854 174.071 343.221C171.487 343.589 169.914 344.048 169.891 343.945C169.879 343.91 170.258 343.761 170.959 343.543C171.66 343.302 172.705 343.049 174.003 342.808C176.598 342.325 180.296 342.073 184.316 342.636C188.325 343.221 191.804 344.496 194.159 345.702C195.342 346.299 196.261 346.839 196.869 347.264C197.49 347.677 197.811 347.919 197.8 347.953Z" fill="#455A64"/>
<path d="M275.379 363.297C275.379 363.32 275.092 363.274 274.575 363.16C273.989 363.033 273.231 362.872 272.289 362.666C270.245 362.206 267.385 361.563 263.894 360.782C256.807 359.197 246.999 357.061 236.123 354.913C225.246 352.765 215.369 350.997 208.202 349.756C204.676 349.148 201.794 348.654 199.726 348.298C198.773 348.125 198.004 347.988 197.418 347.884C196.89 347.781 196.614 347.723 196.625 347.701C196.637 347.678 196.912 347.701 197.441 347.769C198.027 347.85 198.796 347.942 199.761 348.068C201.771 348.344 204.688 348.769 208.271 349.331C215.449 350.457 225.35 352.157 236.238 354.316C247.114 356.475 256.922 358.669 263.986 360.357C267.523 361.207 270.371 361.908 272.335 362.424C273.266 362.677 274.024 362.872 274.598 363.033C275.115 363.194 275.379 363.274 275.379 363.297Z" fill="#455A64"/>
<path d="M210.086 349.848C209.971 349.882 209.73 348.481 208.662 346.552C208.122 345.598 207.341 344.53 206.308 343.508C205.285 342.475 204.034 341.429 202.701 340.384C200.014 338.328 197.28 336.87 195.328 335.802C193.352 334.745 192.135 334.09 192.181 334.01C192.215 333.941 193.502 334.458 195.523 335.423C197.533 336.399 200.335 337.812 203.069 339.902C204.424 340.959 205.676 342.015 206.71 343.106C207.755 344.186 208.536 345.323 209.041 346.334C209.546 347.356 209.822 348.24 209.96 348.849C210.098 349.492 210.121 349.848 210.086 349.848Z" fill="#455A64"/>
<path d="M324.817 365.433C324.954 365.56 323.232 367.306 321.888 369.947C320.521 372.577 320.108 375.001 319.924 374.966C319.775 374.966 319.935 372.416 321.348 369.683C322.749 366.915 324.725 365.307 324.817 365.433Z" fill="#263238"/>
<g opacity="0.3">
<path d="M251.09 247.734L258.463 299.67L258.831 300.496C260.565 282.626 257.889 264.341 251.09 247.734Z" fill="black"/>
</g>
<path d="M290.796 277.572L266.827 319.505L207.759 320.791L207.609 323.467L264.805 323.042L266.62 322.985L327.02 323.1L339.229 302.047L354.826 279.697C355.848 278.227 354.791 276.229 353.011 276.229L292.726 276.458C291.91 276.47 291.187 276.895 290.796 277.572Z" fill="#E0E0E0"/>
<path d="M339.215 302.047C339.215 302.047 342.316 304.896 341.834 307.308C341.34 309.72 341.512 311.523 339.215 311.684C339.215 311.684 339.376 314.785 336.114 315.278C336.114 315.278 336.815 319.068 332.404 319.723C332.404 319.723 331.049 323.777 328.27 322.79C325.49 321.813 323.699 320.665 323.699 320.665L322.883 319.195C322.883 319.195 318.794 317.656 319.805 315.347C320.414 313.946 322.539 313.579 322.539 313.579C322.539 313.579 321.654 311.523 322.803 309.984C323.779 308.663 326.983 309.754 326.983 309.754C326.983 309.754 326.8 308.054 327.994 306.63C329.085 305.344 334.162 308.847 334.162 308.847L336.941 305.539L339.215 302.047Z" fill="#FFBE9D"/>
<path d="M332.407 319.723C332.316 319.861 330.041 318.598 327.308 316.909C324.575 315.209 322.438 313.728 322.53 313.59C322.622 313.452 324.896 314.704 327.63 316.404C330.352 318.092 332.488 319.585 332.407 319.723Z" fill="#EB996E"/>
<path d="M336.113 315.278C336.033 315.416 333.908 314.302 331.381 312.775C328.854 311.247 326.879 309.903 326.959 309.765C327.04 309.628 329.165 310.742 331.691 312.269C334.218 313.785 336.193 315.14 336.113 315.278Z" fill="#EB996E"/>
<path d="M331.061 306.963C331.152 306.791 333.048 307.79 335.253 309.192C337.458 310.604 339.238 311.695 339.192 311.81C339.112 312.005 337.136 311.11 334.931 309.697C332.714 308.296 330.992 307.09 331.061 306.963Z" fill="#EB996E"/>
<path d="M354.82 277.825C354.82 277.837 354.717 277.848 354.533 277.859C354.303 277.871 354.028 277.882 353.683 277.894C352.891 277.905 351.799 277.928 350.421 277.951C347.539 277.974 343.45 278.009 338.431 278.043C328.255 278.066 314.289 278.101 298.865 278.135C297.9 278.135 296.935 278.135 295.982 278.135C295.074 278.066 294.259 278.468 293.788 279.169C292.881 280.811 291.985 282.419 291.101 284.016C289.332 287.197 287.632 290.275 286.013 293.204C282.762 299.05 279.834 304.31 277.364 308.743C274.907 313.119 272.897 316.679 271.484 319.194C270.795 320.389 270.255 321.331 269.865 322.02C269.692 322.318 269.543 322.548 269.428 322.743C269.325 322.904 269.267 322.985 269.267 322.985C269.256 322.985 269.302 322.893 269.382 322.72C269.486 322.514 269.612 322.273 269.761 321.962C270.129 321.262 270.646 320.297 271.289 319.08C272.667 316.541 274.608 312.958 276.997 308.536C279.432 304.08 282.326 298.797 285.542 292.928C287.15 289.988 288.85 286.91 290.607 283.717C291.491 282.12 292.387 280.49 293.306 278.836C293.869 277.94 294.994 277.446 295.993 277.526C296.947 277.526 297.911 277.526 298.876 277.526C314.312 277.561 328.278 277.595 338.442 277.618C343.473 277.653 347.55 277.687 350.433 277.71C351.811 277.733 352.902 277.756 353.695 277.768C354.039 277.779 354.315 277.791 354.544 277.802C354.728 277.802 354.82 277.814 354.82 277.825Z" fill="#263238"/>
<path d="M312.313 298.9C311.245 300.083 311.222 301.795 312.256 302.736C313.289 303.667 315.001 303.472 316.069 302.289C317.137 301.106 317.16 299.394 316.126 298.453C315.081 297.522 313.37 297.717 312.313 298.9Z" fill="white"/>
<g opacity="0.3">
<path d="M144.634 282.683C144.117 282.89 143.543 283.234 143.531 283.786C143.531 284.234 143.945 284.59 144.381 284.681C144.818 284.773 146.403 284.119 146.839 284.027C153.052 282.66 158.163 283.969 164.078 286.289L164.273 286.094C161.919 281.121 151.318 279.996 144.634 282.683Z" fill="black"/>
</g>
<path d="M464.647 515.82C464.647 515.98 360.752 516.118 232.636 516.118C104.462 516.118 0.601562 515.98 0.601562 515.82C0.601562 515.659 104.473 515.521 232.636 515.521C360.764 515.521 464.647 515.647 464.647 515.82Z" fill="#263238"/>
<path d="M112.506 149.731C112.701 149.927 150.843 136.822 150.843 136.822L136.177 103.171L102.227 116.149L120.901 126.876L112.506 149.731Z" fill="#455A64"/>
<path d="M130.395 113.3V67.4863C130.395 67.4863 183.008 57.8732 220.909 58.436C258.81 58.9988 297.848 65.2237 297.848 65.2237V109.212C297.859 109.212 179.057 98.5995 130.395 113.3Z" fill="#455A64"/>
<path d="M130.125 113.346L150.844 137.017V109.212C150.844 109.212 133.513 111.279 130.125 113.346Z" fill="#263238"/>
<path d="M130.39 67.4747C130.551 67.4747 130.631 77.7424 130.551 90.4105C130.47 103.079 130.275 113.346 130.114 113.346C129.953 113.346 129.873 103.079 129.953 90.4105C130.034 77.7424 130.229 67.4747 130.39 67.4747Z" fill="#263238"/>
<path d="M315.685 146.217C315.49 146.412 277.348 133.307 277.348 133.307L292.014 99.656L325.964 112.634L307.289 123.361L315.685 146.217Z" fill="#455A64"/>
<path d="M298.067 109.832L277.348 133.503V107.707C284.262 107.937 291.164 108.649 298.067 109.832Z" fill="#263238"/>
<path d="M297.85 65.2239C298.011 65.2239 298.195 75.2045 298.252 87.528C298.31 99.8515 298.229 109.832 298.057 109.832C297.896 109.832 297.713 99.8515 297.655 87.528C297.598 75.2159 297.678 65.2239 297.85 65.2239Z" fill="#263238"/>
<path d="M160.84 72.2642H163.941V94.419H160.84V72.2642ZM162.195 82.1069H169.752C170.338 82.1069 170.866 81.9691 171.326 81.682C171.785 81.3948 172.13 80.9929 172.382 80.476C172.635 79.9477 172.75 79.3505 172.75 78.6729C172.75 77.9952 172.624 77.3865 172.382 76.8697C172.13 76.3414 171.785 75.9394 171.326 75.6638C170.878 75.3766 170.35 75.2388 169.752 75.2388H162.195V72.2871H169.626C170.901 72.2871 172.026 72.5513 173.003 73.0796C173.967 73.6079 174.725 74.3545 175.254 75.3307C175.782 76.2954 176.058 77.421 176.058 78.6843C176.058 79.9477 175.793 81.0732 175.254 82.038C174.714 83.0027 173.956 83.7608 172.991 84.2891C172.026 84.8174 170.901 85.0816 169.637 85.0816H162.207V82.1069H162.195ZM168.225 84.3695L171.314 83.6689L176.976 94.419H173.29L168.225 84.3695Z" fill="white"/>
<path d="M181.168 72.287H184.269V94.4303H181.168V72.287ZM182.673 72.287H195.387V75.2387H182.673V72.287ZM182.673 81.9575H193.71V84.9091H182.673V81.9575ZM182.673 91.4672H195.387V94.4188H182.673V91.4672Z" fill="white"/>
<path d="M203.43 94.35C202.476 94.1433 201.581 93.8447 200.754 93.4312C199.927 93.0177 199.157 92.5124 198.434 91.9037L200.363 89.5262C201.202 90.2613 202.132 90.8011 203.154 91.1686C204.165 91.5361 205.267 91.7199 206.462 91.7199C208.07 91.7199 209.31 91.4213 210.194 90.8241C211.079 90.2268 211.515 89.3884 211.515 88.3088V88.2973C211.515 87.5278 211.32 86.9191 210.918 86.4597C210.516 86.0118 209.999 85.6787 209.367 85.449C208.736 85.2308 207.909 85.0356 206.91 84.8518C206.875 84.8403 206.841 84.8403 206.806 84.8403C206.772 84.8403 206.737 84.8403 206.703 84.8288L206.473 84.7829C204.992 84.5302 203.786 84.2431 202.855 83.9215C201.925 83.5999 201.133 83.0142 200.478 82.1758C199.823 81.3259 199.49 80.1199 199.49 78.558V78.5465C199.49 77.1797 199.8 76.0083 200.409 75.032C201.018 74.0673 201.914 73.3207 203.097 72.8154C204.28 72.31 205.692 72.0574 207.346 72.0574C208.139 72.0574 208.92 72.1492 209.689 72.3215C210.459 72.4938 211.217 72.7465 211.963 73.091C212.71 73.4356 213.445 73.8605 214.168 74.3774L212.4 76.8467C211.561 76.2265 210.711 75.7671 209.884 75.457C209.046 75.1469 208.207 74.9976 207.369 74.9976C205.853 74.9976 204.682 75.2962 203.843 75.9049C203.005 76.5136 202.591 77.3635 202.591 78.4661V78.4776C202.591 79.2356 202.809 79.8328 203.234 80.2692C203.671 80.7057 204.199 81.0273 204.854 81.234C205.497 81.4407 206.393 81.6589 207.541 81.8772C207.587 81.8886 207.622 81.9001 207.656 81.9001C207.691 81.9001 207.725 81.9116 207.771 81.9231C207.817 81.9346 207.874 81.9461 207.943 81.9575C208.012 81.969 208.058 81.9805 208.116 81.992C209.459 82.2677 210.573 82.5892 211.469 82.9682C212.365 83.3473 213.123 83.9445 213.72 84.7829C214.329 85.6213 214.628 86.7698 214.628 88.2169V88.2514C214.628 89.6066 214.306 90.7552 213.663 91.7199C213.02 92.6847 212.101 93.4082 210.883 93.9136C209.666 94.4189 208.207 94.6716 206.496 94.6716C205.394 94.6486 204.383 94.5452 203.43 94.35Z" fill="white"/>
<path d="M221.67 93.6838C220.51 93.0406 219.625 92.0988 219.016 90.8699C218.408 89.641 218.098 88.148 218.098 86.4137V72.287H221.199V86.5285C221.199 88.1479 221.601 89.3883 222.416 90.2727C223.232 91.1571 224.38 91.5935 225.862 91.5935C227.355 91.5935 228.503 91.1571 229.33 90.2727C230.146 89.3883 230.559 88.1365 230.559 86.5285V72.287H233.671V86.4137C233.671 88.148 233.361 89.6295 232.753 90.8699C232.144 92.1103 231.26 93.0406 230.088 93.6838C228.917 94.327 227.515 94.6485 225.873 94.6485C224.231 94.6485 222.83 94.327 221.67 93.6838Z" fill="white"/>
<path d="M238.527 72.287H241.628V94.4303H238.527V72.287ZM240.078 91.4672H252.746V94.4188H240.078V91.4672Z" fill="white"/>
<path d="M252.445 72.287H268.065V75.2387H252.445V72.287ZM258.705 74.0902H261.817V94.4188H258.705V74.0902Z" fill="white"/>
<path d="M321.387 69.3928L324.396 72.9187L332.872 69.3928L330.391 65.6831L321.387 69.3928Z" fill="#455A64"/>
<path d="M317.508 52.6132C317.508 55.048 315.533 57.0235 313.098 57.0235C310.663 57.0235 308.688 55.048 308.688 52.6132C308.688 50.1783 310.663 48.2029 313.098 48.2029C315.533 48.2029 317.508 50.1783 317.508 52.6132Z" fill="#41B79B"/>
<path d="M218.711 118.4C218.711 119.617 217.723 120.605 216.506 120.605C215.289 120.605 214.301 119.617 214.301 118.4C214.301 117.182 215.289 116.195 216.506 116.195C217.723 116.195 218.711 117.182 218.711 118.4Z" fill="#41B79B"/>
<path d="M115.979 85.2537C115.979 86.184 115.232 86.9306 114.302 86.9306C113.383 86.9306 112.625 86.184 112.625 85.2537C112.625 84.3234 113.372 83.5769 114.302 83.5769C115.221 83.5769 115.979 84.3234 115.979 85.2537Z" fill="#41B79B"/>
<path d="M109.75 66.7973L114.689 67.0959L117.032 57.3795L112.426 57.5748L109.75 66.7973Z" fill="#455A64"/>
<path d="M264.113 144.356L265.779 149.019L275.633 147.365L273.646 143.196L264.113 144.356Z" fill="#41B79B"/>
<path d="M164.446 117.447L161.402 121.351L168.075 128.782L170.533 124.866L164.446 117.447Z" fill="#455A64"/>
<path d="M152.633 25.7035L164.302 37.6021L180.726 31.4001L181.369 35.4773L174.26 50.029L180.818 60.8939L180.266 64.1442L164.383 61.4682L154.988 71.7703L152.783 70.105L150.842 57.0005L136.026 49.2825L135.371 46.2963L150.29 42.2076L152.633 25.7035Z" fill="#41B79B"/>
<g opacity="0.3">
<path d="M152.633 25.7035L164.302 37.6021L180.726 31.4001L181.369 35.4773L174.26 50.029L180.818 60.8939L180.266 64.1442L164.383 61.4682L154.988 71.7703L152.783 70.105L150.842 57.0005L136.026 49.2825L135.371 46.2963L150.29 42.2076L152.633 25.7035Z" fill="black"/>
</g>
<path d="M152.633 22.3729L164.302 34.2715L180.726 31.4002L173.008 46.1701L180.818 60.894L164.383 58.1376L152.783 70.1051L150.336 53.624L135.371 46.2964L150.29 38.8656L152.633 22.3729Z" fill="#41B79B"/>
<path d="M273.529 25.7035L261.86 37.6021L245.448 31.4001L244.793 35.4773L251.902 50.029L245.344 60.8939L245.896 64.1442L261.779 61.4682L271.174 71.7703L273.379 70.105L275.32 57.0005L290.136 49.2825L290.791 46.2963L275.872 42.2076L273.529 25.7035Z" fill="#41B79B"/>
<g opacity="0.3">
<path d="M273.529 25.7035L261.86 37.6021L245.448 31.4001L244.793 35.4773L251.902 50.029L245.344 60.8939L245.896 64.1442L261.779 61.4682L271.174 71.7703L273.379 70.105L275.32 57.0005L290.136 49.2825L290.791 46.2963L275.872 42.2076L273.529 25.7035Z" fill="black"/>
</g>
<path d="M273.532 22.3729L261.863 34.2715L245.451 31.4002L253.158 46.1701L245.348 60.894L261.783 58.1376L273.383 70.1051L275.829 53.624L290.794 46.2964L275.875 38.8656L273.532 22.3729Z" fill="#41B79B"/>
<path d="M212.706 4.84656L222.411 23.8085L244.795 22.4877L244.037 27.702L229.819 42.759L233.678 58.5166L231.771 62.2607L213.406 52.9463L198.028 61.9506L195.972 59.0678L198.591 42.334L183.453 27.277L183.798 23.3836L203.552 24.0841L212.706 4.84656Z" fill="#41B79B"/>
<g opacity="0.3">
<path d="M212.706 4.84656L222.411 23.8085L244.795 22.4877L244.037 27.702L229.819 42.759L233.678 58.5166L231.771 62.2607L213.406 52.9463L198.028 61.9506L195.972 59.0678L198.591 42.334L183.453 27.277L183.798 23.3836L203.552 24.0841L212.706 4.84656Z" fill="black"/>
</g>
<path d="M213.976 0.780762L223.681 19.7312L244.802 22.4876L229.768 37.5791L233.685 58.5165L214.688 48.8805L195.979 59.0678L199.275 38.027L183.805 23.3835L204.834 20.0069L213.976 0.780762Z" fill="#41B79B"/>
<path d="M252.641 170.887L268.858 172.679C272.763 167.12 278.207 162.537 284.902 159.654C304.163 151.362 326.49 160.263 334.782 179.524C343.075 198.784 334.174 221.111 314.913 229.404C295.652 237.696 273.325 228.795 265.033 209.534C261.576 201.495 261.117 192.915 263.15 185.048L263.138 185.071L252.641 170.887Z" fill="#FAFAFA"/>
<path d="M252.641 170.887C253.272 171.737 256.557 176.078 263.264 184.979L263.012 184.991L263.023 184.968C263.058 184.899 263.15 184.864 263.23 184.91C263.287 184.945 263.322 185.014 263.299 185.082C261.955 190.331 261.438 197.234 263.551 204.688C264.091 206.537 264.746 208.432 265.653 210.269C266.113 211.188 266.549 212.13 267.054 213.06C267.617 213.956 268.18 214.863 268.754 215.782C271.224 219.343 274.428 222.696 278.344 225.407C282.249 228.129 286.866 230.219 291.885 231.31C296.904 232.413 302.337 232.539 307.689 231.379C313.029 230.219 318.267 227.865 322.815 224.373C327.34 220.882 331.268 216.311 333.783 210.913C336.379 205.434 337.757 199.439 337.55 193.581C337.389 187.736 335.85 182.073 333.301 177.135C330.751 172.196 327.191 167.935 323.033 164.754C318.898 161.549 314.247 159.344 309.584 158.092C304.909 156.841 300.235 156.553 295.871 156.99C291.495 157.449 287.532 158.759 283.984 160.275C276.92 163.513 272.05 168.406 268.972 172.736C268.938 172.782 268.892 172.805 268.835 172.793C258.578 171.599 253.64 171.013 252.641 170.887C253.651 170.99 258.59 171.484 268.881 172.529L268.743 172.587C271.798 168.199 276.679 163.226 283.811 159.907C287.383 158.345 291.403 157.001 295.825 156.53C300.235 156.071 304.978 156.347 309.722 157.61C314.454 158.862 319.162 161.09 323.378 164.329C327.593 167.545 331.21 171.863 333.817 176.871C336.425 181.878 337.987 187.621 338.159 193.57C338.377 199.519 336.976 205.606 334.346 211.177C331.785 216.667 327.799 221.307 323.194 224.855C318.577 228.404 313.248 230.793 307.827 231.953C302.394 233.113 296.87 232.975 291.782 231.85C286.683 230.724 282.02 228.6 278.057 225.832C274.095 223.064 270.856 219.664 268.375 216.046C267.801 215.116 267.227 214.197 266.664 213.29C266.159 212.348 265.722 211.395 265.263 210.465C264.355 208.604 263.701 206.686 263.161 204.814C261.059 197.268 261.633 190.297 263.023 185.014L263.299 185.128L263.287 185.151C263.253 185.22 263.161 185.255 263.081 185.209C263.058 185.197 263.046 185.186 263.035 185.163C256.465 176.147 253.261 171.737 252.641 170.887Z" fill="#263238"/>
<path d="M285.921 181.005C285.932 181.016 285.944 181.189 285.955 181.533C285.967 181.912 285.978 182.395 285.99 183.003C286.001 184.324 286.024 186.185 286.058 188.528C286.093 193.294 286.139 200.001 286.185 208.041L285.921 207.777C293.788 207.765 303.056 207.754 312.945 207.731C313.014 207.662 312.382 208.294 312.647 208.03V208.018V208.007V207.972V207.915V207.8V207.57V207.111V206.192C312.647 205.583 312.647 204.963 312.647 204.354C312.647 203.137 312.647 201.931 312.647 200.736C312.647 198.348 312.647 196.016 312.658 193.753C312.67 189.217 312.681 184.933 312.692 181.005L312.957 181.269C304.917 181.212 298.21 181.166 293.443 181.143C291.1 181.108 289.251 181.097 287.919 181.074C287.31 181.062 286.828 181.051 286.449 181.039C286.116 181.028 285.932 181.016 285.921 181.005C285.909 180.994 286.07 180.982 286.392 180.971C286.759 180.959 287.23 180.948 287.816 180.936C289.125 180.925 290.963 180.902 293.283 180.867C298.083 180.833 304.86 180.787 312.957 180.741H313.209V181.005C313.221 184.933 313.232 189.217 313.244 193.753C313.244 196.028 313.244 198.359 313.255 200.736C313.255 201.931 313.255 203.137 313.255 204.354C313.255 204.963 313.255 205.572 313.255 206.192V207.111V207.57V207.8V207.915V207.972V208.007V208.018V208.03C313.519 207.765 312.888 208.397 312.957 208.328C303.068 208.317 293.799 208.305 285.932 208.282H285.668V208.018C285.725 199.91 285.771 193.145 285.794 188.344C285.817 186.035 285.84 184.198 285.863 182.877C285.875 182.291 285.886 181.82 285.898 181.453C285.898 181.154 285.909 181.005 285.921 181.005Z" fill="#263238"/>
<path d="M310.022 185.473C310.412 185.783 306.772 191.02 301.902 197.165C300.926 198.394 299.984 199.565 299.099 200.633L298.525 201.334L297.882 200.748C293.655 196.947 290.796 194.029 291.06 193.731C291.324 193.432 294.62 195.844 298.996 199.462L297.767 199.577C298.606 198.474 299.524 197.28 300.501 196.051C305.37 189.906 309.643 185.174 310.022 185.473Z" fill="#41B79B"/>
</svg>
