<svg width="465" height="518" viewBox="0 0 465 518" fill="none" xmlns="http://www.w3.org/2000/svg">
<path d="M395.992 280.541L312.472 248.957C306.695 246.775 303.789 240.32 305.972 234.555L349.695 118.946C351.878 113.169 358.332 110.263 364.098 112.445L417.067 132.475L442.093 190.245L410.406 274.041C408.212 279.818 401.758 282.723 395.992 280.541Z" fill="#F5F5F5"/>
<path d="M417.07 132.475L404.769 165.013C402.736 170.376 405.447 176.383 410.811 178.404L442.096 190.245L417.07 132.475Z" fill="#EBEBEB"/>
<path d="M404.108 168.033C404.108 168.033 400.708 175.774 408.713 181.758C409.012 181.987 409.333 182.183 409.655 182.378C413.468 184.652 438.552 199.606 438.781 198.985C439.034 198.319 442.089 190.245 442.089 190.245L410.804 178.416C410.804 178.416 403.097 175.2 404.108 168.033Z" fill="#E0E0E0"/>
<path d="M398.255 161.039C398.095 161.452 389.32 158.524 378.65 154.492C367.981 150.461 359.459 146.843 359.619 146.43C359.78 146.016 368.555 148.945 379.225 152.976C389.894 157.008 398.416 160.626 398.255 161.039Z" fill="#E0E0E0"/>
<path d="M416.254 188.879C416.094 189.292 401.726 184.25 384.165 177.612C366.604 170.973 352.489 165.242 352.65 164.829C352.811 164.415 367.167 169.457 384.739 176.096C402.3 182.734 416.415 188.454 416.254 188.879Z" fill="#E0E0E0"/>
<path d="M416.161 206.405C416.001 206.818 400.358 201.294 381.212 194.058C362.066 186.823 346.676 180.609 346.837 180.196C346.998 179.782 362.641 185.307 381.786 192.554C400.932 199.778 416.322 205.98 416.161 206.405Z" fill="#E0E0E0"/>
<path d="M410.7 220.899C410.54 221.313 394.897 215.788 375.751 208.553C356.606 201.317 341.215 195.103 341.376 194.69C341.537 194.277 357.18 199.801 376.325 207.048C395.46 214.272 410.861 220.474 410.7 220.899Z" fill="#E0E0E0"/>
<path d="M405.208 235.394C405.047 235.807 389.405 230.283 370.259 223.047C351.113 215.8 335.723 209.598 335.884 209.184C336.045 208.771 351.688 214.295 370.833 221.543C389.968 228.767 405.358 234.969 405.208 235.394Z" fill="#E0E0E0"/>
<path d="M399.724 249.888C399.563 250.301 383.92 244.777 364.775 237.541C345.629 230.294 330.239 224.092 330.4 223.679C330.56 223.265 346.203 228.79 365.349 236.037C384.495 243.261 399.885 249.463 399.724 249.888Z" fill="#E0E0E0"/>
<path d="M177.554 332.086L67.446 370.642C63.6329 371.974 59.4638 369.964 58.1315 366.163L2.88809 208.391C1.55581 204.578 3.56571 200.409 7.36729 199.077L117.475 160.521C121.288 159.189 125.457 161.199 126.79 165.001L182.033 322.772C183.365 326.585 181.367 330.754 177.554 332.086Z" fill="#EBEBEB"/>
<path d="M118.904 170.332L12.3828 207.633L67.1415 364.006L173.663 326.704L118.904 170.332Z" fill="#E0E0E0"/>
<path d="M116.994 169.587L10.4727 206.888L64.1875 360.28L170.709 322.979L116.994 169.587Z" fill="#FAFAFA"/>
<path d="M170.694 322.979C170.246 321.692 148.619 260.12 116.84 169.641L117.035 169.732C84.7274 181.045 48.5837 193.713 10.5335 207.036H10.522L10.6253 206.818C30.7013 264.439 49.3876 317.649 64.3068 360.213L64.1345 360.133C128.922 337.553 169.648 323.346 170.694 322.979C169.648 323.346 128.957 337.645 64.2264 360.409L64.1001 360.454L64.0541 360.328C49.135 317.753 30.4946 264.542 10.3152 206.944L10.2578 206.784L10.4186 206.726H10.4301C48.4803 193.403 84.6355 180.758 116.943 169.445L117.092 169.399L117.138 169.549C148.734 260.074 170.246 321.704 170.694 322.979Z" fill="#E0E0E0"/>
<path d="M132.916 336.21C132.916 336.21 156.633 316.203 160.744 295.369C160.744 295.369 154.164 305.694 140.462 307.577C140.462 307.577 139.991 329.457 132.916 336.21Z" fill="#E0E0E0"/>
<path d="M51.4353 254.091L45.8306 256.055C43.7862 256.767 41.5466 255.699 40.8231 253.643L38.8591 248.039C38.147 245.994 39.2151 243.755 41.271 243.031L46.8757 241.067C48.9201 240.355 51.1597 241.423 51.8832 243.479L53.8472 249.084C54.5593 251.128 53.4911 253.379 51.4353 254.091Z" fill="#EBEBEB"/>
<path d="M46.1971 250.726C46.1052 250.761 46.0018 250.749 45.9329 250.703L43.3603 249.21C43.211 249.118 43.1535 248.923 43.2454 248.774C43.3373 248.624 43.5325 248.567 43.6819 248.659L45.9444 249.968L48.6549 244.168C48.7353 244.007 48.9191 243.938 49.0799 244.019C49.2406 244.099 49.3096 244.283 49.2292 244.444L46.3694 250.565C46.3464 250.634 46.2775 250.703 46.1971 250.726Z" fill="white"/>
<path d="M119.753 217.327C119.787 217.419 105.947 222.335 88.8576 228.319C71.7562 234.302 57.8822 239.092 57.8477 239C57.8133 238.908 71.6528 233.992 88.7427 228.009C105.844 222.025 119.73 217.247 119.753 217.327Z" fill="#E0E0E0"/>
<path d="M87.2649 239.402C87.2763 239.425 86.9203 239.574 86.2657 239.827C85.5536 240.091 84.6233 240.436 83.4863 240.861C81.1318 241.71 77.8815 242.87 74.2867 244.134C70.6803 245.397 67.4186 246.523 65.0526 247.315C63.9041 247.694 62.9623 248.004 62.2388 248.246C61.5726 248.452 61.2051 248.567 61.1936 248.544C61.1821 248.521 61.5382 248.372 62.1928 248.119C62.9049 247.855 63.8352 247.51 64.9722 247.085C67.3267 246.236 70.577 245.076 74.1833 243.812C77.7781 242.549 81.0514 241.423 83.4173 240.631C84.5659 240.252 85.5076 239.942 86.2312 239.701C86.8859 239.482 87.2534 239.379 87.2649 239.402Z" fill="#E0E0E0"/>
<path d="M121.229 221.554C121.264 221.646 107.424 226.561 90.3341 232.545C73.2328 238.529 59.3587 243.318 59.3243 243.226C59.2898 243.134 73.1294 238.219 90.2193 232.235C107.321 226.251 121.195 221.462 121.229 221.554Z" fill="#E0E0E0"/>
<path d="M59.4392 276.946L53.8345 278.91C51.7901 279.622 49.5505 278.554 48.827 276.498L46.863 270.893C46.1509 268.849 47.2191 266.609 49.2749 265.886L54.8796 263.922C56.924 263.21 59.1636 264.278 59.8871 266.334L61.8511 271.939C62.5632 273.983 61.4836 276.223 59.4392 276.946Z" fill="#EBEBEB"/>
<path d="M54.2088 273.581C54.1973 273.581 54.1973 273.581 54.2088 273.581C54.1169 273.615 54.0136 273.604 53.9447 273.558L51.372 272.065C51.2227 271.973 51.1653 271.778 51.2571 271.628C51.349 271.479 51.5443 271.422 51.6936 271.514L53.9561 272.823L56.6666 267.023C56.747 266.862 56.9308 266.793 57.0916 266.862C57.2524 266.943 57.3213 267.126 57.2409 267.287L54.3811 273.409C54.3581 273.489 54.2892 273.547 54.2088 273.581Z" fill="white"/>
<path d="M127.743 240.182C127.777 240.274 113.938 245.19 96.8478 251.174C79.7464 257.157 65.8724 261.947 65.838 261.855C65.8035 261.763 79.6431 256.847 96.7329 250.864C113.834 244.88 127.72 240.102 127.743 240.182Z" fill="#E0E0E0"/>
<path d="M95.2785 262.257C95.29 262.28 94.934 262.429 94.2793 262.682C93.5673 262.946 92.637 263.291 91.4999 263.716C89.1455 264.565 85.8952 265.725 82.3003 266.989C78.694 268.252 75.4322 269.378 73.0663 270.17C71.9178 270.549 70.976 270.859 70.2524 271.1C69.5863 271.307 69.2188 271.422 69.2073 271.399C69.1958 271.376 69.5518 271.227 70.2065 270.974C70.9186 270.71 71.8489 270.365 72.9859 269.94C75.3404 269.091 78.5906 267.931 82.197 266.667C85.7918 265.404 89.0651 264.278 91.431 263.486C92.5795 263.107 93.5213 262.797 94.2449 262.556C94.8995 262.337 95.267 262.234 95.2785 262.257Z" fill="#E0E0E0"/>
<path d="M129.223 244.409C129.258 244.501 115.418 249.416 98.3283 255.4C81.2269 261.384 67.3529 266.173 67.3184 266.081C67.284 265.989 81.1236 261.074 98.2134 255.09C115.303 249.095 129.189 244.317 129.223 244.409Z" fill="#E0E0E0"/>
<path d="M67.4373 299.802L61.8325 301.766C59.7882 302.478 57.5486 301.41 56.825 299.354L54.8611 293.749C54.149 291.705 55.2171 289.465 57.2729 288.742L62.8777 286.778C64.922 286.066 67.1616 287.134 67.8852 289.19L69.8491 294.794C70.5612 296.839 69.4816 299.078 67.4373 299.802Z" fill="#EBEBEB"/>
<path d="M62.2069 296.437C62.1954 296.437 62.1954 296.437 62.2069 296.437C62.115 296.471 62.0116 296.46 61.9427 296.414L59.37 294.921C59.2207 294.829 59.1633 294.634 59.2552 294.484C59.3471 294.335 59.5423 294.278 59.6916 294.37L61.9542 295.679L64.6647 289.879C64.7451 289.718 64.9288 289.649 65.0896 289.73C65.2504 289.81 65.3193 289.994 65.2389 290.155L62.3791 296.276C62.3447 296.345 62.2873 296.402 62.2069 296.437Z" fill="white"/>
<path d="M135.764 263.038C135.799 263.13 121.959 268.046 104.869 274.029C87.7679 280.013 73.8939 284.802 73.8594 284.711C73.825 284.619 87.6646 279.703 104.754 273.719C121.856 267.736 135.73 262.958 135.764 263.038Z" fill="#E0E0E0"/>
<path d="M103.273 285.101C103.284 285.124 102.928 285.273 102.273 285.526C101.561 285.79 100.631 286.134 99.4941 286.559C97.1396 287.409 93.8893 288.569 90.2945 289.833C86.6881 291.096 83.4264 292.222 81.0604 293.014C79.9119 293.393 78.9701 293.703 78.2466 293.944C77.5804 294.151 77.2129 294.266 77.2014 294.243C77.19 294.22 77.546 294.071 78.2006 293.818C78.9127 293.554 79.843 293.209 80.98 292.784C83.3345 291.934 86.5848 290.774 90.1911 289.511C93.786 288.248 97.0592 287.122 99.4251 286.33C100.574 285.951 101.515 285.641 102.239 285.399C102.882 285.193 103.261 285.089 103.273 285.101Z" fill="#E0E0E0"/>
<path d="M137.237 267.264C137.271 267.356 123.432 272.272 106.342 278.256C89.2406 284.239 75.3666 289.029 75.3321 288.937C75.2976 288.845 89.1372 283.929 106.227 277.946C123.317 271.95 137.202 267.172 137.237 267.264Z" fill="#E0E0E0"/>
<path d="M75.4509 322.657L69.8462 324.621C67.8018 325.333 65.5622 324.265 64.8387 322.209L62.8747 316.605C62.1626 314.56 63.2308 312.321 65.2866 311.597L70.8913 309.633C72.9357 308.921 75.1753 309.989 75.8989 312.045L77.8628 317.65C78.5749 319.694 77.4953 321.934 75.4509 322.657Z" fill="#EBEBEB"/>
<path d="M70.2049 319.292C70.113 319.326 70.0097 319.315 69.9408 319.269L67.3681 317.776C67.2188 317.684 67.1613 317.489 67.2532 317.339C67.3451 317.19 67.5404 317.133 67.6897 317.224L69.9522 318.534L72.6627 312.734C72.7431 312.573 72.9269 312.504 73.0877 312.584C73.2485 312.665 73.3174 312.849 73.237 313.009L70.3772 319.131C70.3542 319.2 70.2853 319.257 70.2049 319.292Z" fill="white"/>
<path d="M143.762 285.893C143.797 285.985 129.957 290.901 112.867 296.885C95.766 302.868 81.8919 307.658 81.8575 307.566C81.823 307.474 95.6626 302.558 112.752 296.575C129.842 290.591 143.728 285.802 143.762 285.893Z" fill="#E0E0E0"/>
<path d="M111.275 307.956C111.286 307.979 110.93 308.128 110.275 308.381C109.563 308.645 108.633 308.99 107.496 309.415C105.142 310.265 101.891 311.425 98.2964 312.688C94.6901 313.951 91.4283 315.077 89.0624 315.869C87.9139 316.248 86.9721 316.559 86.2485 316.8C85.5824 317.006 85.2149 317.121 85.2034 317.098C85.1919 317.075 85.5479 316.926 86.2026 316.673C86.9147 316.409 87.845 316.065 88.982 315.64C91.3365 314.79 94.5867 313.63 98.1931 312.366C101.788 311.103 105.061 309.978 107.427 309.185C108.576 308.806 109.517 308.496 110.241 308.255C110.896 308.048 111.275 307.933 111.275 307.956Z" fill="#E0E0E0"/>
<path d="M145.249 290.12C145.283 290.211 131.444 295.127 114.354 301.111C97.2523 307.095 83.3783 311.884 83.3438 311.792C83.3094 311.7 97.1489 306.784 114.239 300.801C131.329 294.806 145.214 290.028 145.249 290.12Z" fill="#E0E0E0"/>
<path d="M22.5469 191.945L25.3607 199.973C26.9916 204.636 32.091 207.082 36.754 205.451L95.6727 184.824C100.336 183.193 102.782 178.094 101.151 173.431L98.3487 165.414L22.5469 191.945Z" fill="#E0E0E0"/>
<path d="M61.2169 181.057C56.8526 182.585 52.0633 180.276 50.5358 175.912C49.0083 171.548 51.3168 166.758 55.6811 165.231C60.0455 163.703 64.8348 166.012 66.3623 170.376C67.8783 174.741 65.5698 179.53 61.2169 181.057ZM56.7377 168.274C54.0502 169.216 52.6261 172.168 53.5679 174.855C54.5096 177.543 57.4613 178.967 60.1488 178.025C62.8363 177.083 64.2605 174.132 63.3187 171.444C62.3769 168.757 59.4253 167.333 56.7377 168.274Z" fill="#E0E0E0"/>
<path d="M108.315 201.891C108.373 202.04 92.8331 207.622 73.6185 214.352C54.4039 221.083 38.7841 226.412 38.7267 226.263C38.6693 226.113 54.2087 220.531 73.4233 213.801C92.6379 207.071 108.258 201.742 108.315 201.891Z" fill="#E0E0E0"/>
<path d="M88.4101 204.751C88.4675 204.9 81.6224 207.438 73.1349 210.413C64.6474 213.388 57.7218 215.673 57.6644 215.524C57.607 215.375 64.4521 212.836 72.9396 209.862C81.4386 206.887 88.3642 204.602 88.4101 204.751Z" fill="#E0E0E0"/>
<path d="M394.499 437.474C398.622 435.35 403.48 435.074 408.063 435.832C410.52 436.234 413.093 436.969 414.758 438.818C416.435 440.667 416.745 443.917 414.827 445.502C413.679 446.444 412.082 446.593 410.601 446.571C407.017 446.525 403.044 445.893 400.172 448.052C398.541 449.281 397.45 451.325 395.498 451.934C393.591 452.531 391.432 451.394 390.421 449.671C389.411 447.949 389.376 445.79 389.847 443.849C389.847 443.86 390.341 439.622 394.499 437.474Z" fill="#41B79B"/>
<path d="M385.045 419.236C387.572 422.842 392.465 421.648 394.739 419.443C397.013 417.249 397.977 414.056 398.85 411.013C400.849 404.064 402.859 396.783 401.377 389.708C400.929 387.595 400.137 385.481 398.655 383.919C397.173 382.346 394.888 381.416 392.798 381.967C390.328 382.622 388.789 385.045 387.675 387.342C384.413 394.107 382.679 401.618 382.656 409.129C382.656 412.655 383.07 416.33 385.045 419.236Z" fill="#41B79B"/>
<path d="M378.113 424.404C380.847 421.154 381.375 416.411 380.157 412.345C378.94 408.268 376.184 404.811 373.014 401.986C369.292 398.666 364.917 396.094 360.219 394.44C358.37 393.785 356.418 393.28 354.465 393.464C352.513 393.647 350.549 394.647 349.641 396.381C348.298 398.953 349.584 402.066 350.985 404.604C353.443 409.083 356.257 413.367 359.392 417.399C361.908 420.649 364.802 423.853 368.638 425.312C372.474 426.782 376.459 426.61 378.504 423.945" fill="#41B79B"/>
<path d="M384.884 473.572C384.93 473.572 385.01 472.987 385.114 471.93C385.229 470.735 385.378 469.242 385.55 467.462C385.757 465.579 386.032 463.351 386.561 460.904C387.078 458.469 387.893 455.839 388.938 453.175C390.018 450.522 391.339 448.11 392.889 446.18C394.417 444.239 396.208 442.838 397.885 442.034C399.55 441.207 401.055 440.874 402.089 440.725C403.134 440.622 403.72 440.53 403.72 440.484C403.72 440.438 403.134 440.426 402.066 440.461C400.998 440.53 399.447 440.805 397.678 441.598C395.91 442.379 394.015 443.803 392.407 445.79C390.787 447.765 389.421 450.223 388.318 452.934C387.25 455.656 386.446 458.309 385.952 460.789C385.458 463.27 385.229 465.533 385.079 467.428C384.941 469.323 384.884 470.862 384.861 471.918C384.815 472.987 384.838 473.572 384.884 473.572Z" fill="#263238"/>
<path d="M385.166 470.138C385.189 470.138 385.2 469.874 385.212 469.38C385.212 468.806 385.212 468.094 385.2 467.209C385.2 465.326 385.2 462.592 385.292 459.227C385.465 452.485 386.039 445.238 387.164 435.017C388.221 425.403 389.645 414.217 391.15 406.947C391.471 405.293 391.793 403.8 392.103 402.502C392.39 401.193 392.643 400.067 392.884 399.16C393.091 398.299 393.263 397.598 393.389 397.047C393.493 396.564 393.55 396.3 393.527 396.3C393.504 396.289 393.412 396.541 393.263 397.012C393.102 397.564 392.884 398.253 392.631 399.091C392.356 399.998 392.068 401.112 391.735 402.41C391.391 403.708 391.035 405.19 390.679 406.844C389.197 413.436 387.612 422.647 386.487 432.892C385.361 443.137 384.856 452.462 384.81 459.216C384.775 462.592 384.844 465.326 384.925 467.209C384.982 468.094 385.028 468.806 385.063 469.38C385.12 469.874 385.143 470.138 385.166 470.138Z" fill="#263238"/>
<path d="M385.209 452.152C385.255 452.152 385.244 451.348 385.198 449.878C385.117 448.42 384.91 446.318 384.508 443.734C384.072 441.161 383.463 438.094 382.51 434.775C382.097 433.259 381.12 429.618 378.766 424.174C375.665 416.801 371.438 410.783 367.763 407.05C366.902 406.062 365.949 405.35 365.179 404.65C364.777 404.317 364.433 403.984 364.076 403.719C363.72 403.467 363.387 403.237 363.077 403.03C361.871 402.203 361.194 401.767 361.171 401.813C361.067 401.962 363.881 403.616 367.43 407.395C370.968 411.173 375.068 417.157 378.157 424.462C379.88 428.424 381.074 431.961 381.924 434.959C382.912 438.255 383.555 441.276 384.049 443.825C384.52 446.387 384.784 448.465 384.956 449.913C385.071 451.348 385.163 452.152 385.209 452.152Z" fill="#263238"/>
<path d="M367.84 483.886L369.643 508.579H401.376L403.18 483.886H367.84Z" fill="#263238"/>
<path d="M406.986 474.146H364.801V483.886H406.986V474.146Z" fill="#263238"/>
<path d="M364.801 507.625V510.324H366.776H406.274V507.625H364.801Z" fill="#455A64"/>
<path d="M368.691 515.079L366.75 510.324H404.743L402.48 515.079H368.691Z" fill="#455A64"/>
<path d="M402.595 491.948C402.606 491.948 402.549 492.028 402.445 492.178C402.319 492.35 402.158 492.557 401.975 492.81C401.527 493.384 400.906 494.176 400.125 495.175L400.045 495.279L399.965 495.164C398.805 493.556 397.254 491.408 395.428 488.882H395.692C394.337 490.8 392.832 492.924 391.225 495.21L391.087 495.405L390.926 495.221C389.272 493.257 387.48 491.133 385.62 488.916H385.93C385.838 489.031 385.735 489.157 385.643 489.284C384 491.339 382.404 493.338 380.899 495.221L380.739 495.417L380.589 495.21C378.981 492.936 377.477 490.8 376.122 488.882L376.386 488.893C374.181 491.408 372.309 493.533 370.873 495.164L370.77 495.279L370.701 495.152C369.977 493.935 369.391 492.959 368.978 492.258C368.794 491.948 368.656 491.684 368.53 491.489C368.438 491.316 368.381 491.213 368.392 491.213C368.404 491.213 368.461 491.293 368.576 491.454C368.702 491.649 368.863 491.891 369.07 492.201C369.506 492.89 370.115 493.843 370.884 495.049L370.712 495.038C372.125 493.384 373.962 491.225 376.133 488.686L376.271 488.526L376.397 488.698C377.764 490.616 379.291 492.729 380.911 495.003L380.612 494.992C382.117 493.097 383.702 491.11 385.344 489.042C385.448 488.916 385.539 488.79 385.631 488.675L385.781 488.491L385.941 488.675C387.802 490.891 389.582 493.028 391.225 494.992L390.926 495.003C392.557 492.729 394.073 490.604 395.44 488.709L395.577 488.526L395.704 488.709C397.495 491.259 399.011 493.43 400.148 495.061H399.988C400.803 494.084 401.446 493.315 401.906 492.752C402.112 492.511 402.285 492.316 402.423 492.155C402.526 492.017 402.595 491.948 402.595 491.948Z" fill="#E0E0E0"/>
<path d="M403.625 483.713C403.625 483.828 395.678 483.909 385.869 483.909C376.061 483.909 368.113 483.817 368.113 483.713C368.113 483.61 376.061 483.518 385.869 483.518C395.678 483.518 403.625 483.61 403.625 483.713Z" fill="#455A64"/>
<path d="M405.231 510.6C405.231 510.715 396.594 510.795 385.936 510.795C375.277 510.795 366.641 510.703 366.641 510.6C366.641 510.497 375.277 510.405 385.936 510.405C396.582 510.393 405.231 510.485 405.231 510.6Z" fill="#263238"/>
<path d="M92.2646 431.812C92.1727 431.915 91.4492 431.49 90.6452 430.835C89.8412 430.192 89.2555 429.583 89.3474 429.469C89.4393 429.365 90.1628 429.802 90.9668 430.445C91.7707 431.088 92.345 431.697 92.2646 431.812Z" fill="#263238"/>
<path d="M114.262 398.93C114.4 395.852 114.481 392.705 113.516 389.788C112.551 386.87 110.3 384.183 107.279 383.563C103.845 382.851 100.319 385.021 98.3899 387.95C96.4604 390.879 95.8058 394.451 95.2315 397.908C91.3151 421.774 89.868 446.042 90.9246 470.206L104.994 472.182C111.173 446.949 113.148 424.886 114.262 398.93Z" fill="#455A64"/>
<path d="M105.331 383.448C105.342 383.448 105.319 383.528 105.262 383.678C105.204 383.85 105.124 384.057 105.032 384.321C104.802 384.918 104.492 385.722 104.09 386.756C103.895 387.284 103.631 387.858 103.424 388.513C103.217 389.167 102.988 389.88 102.746 390.638C102.505 391.407 102.241 392.222 101.954 393.084C101.724 393.968 101.483 394.899 101.23 395.875C100.174 399.768 99.2894 404.512 98.5084 409.795C97.7503 415.089 97.245 420.947 96.8545 427.103C96.1309 439.426 96.0276 450.613 95.706 458.698C95.5567 462.741 95.4189 466.014 95.2581 468.277C95.1892 469.368 95.1202 470.241 95.0858 470.873C95.0628 471.148 95.0399 471.367 95.0284 471.55C95.0169 471.7 95.0054 471.78 94.9939 471.78C94.9824 471.78 94.9824 471.7 94.9824 471.55C94.9824 471.367 94.9824 471.148 94.9939 470.873C95.0169 470.241 95.0398 469.368 95.0743 468.266C95.1662 466.003 95.2581 462.73 95.3614 458.687C95.5911 450.601 95.6486 439.415 96.3606 427.068C96.7511 420.901 97.268 415.032 98.0604 409.726C98.8644 404.431 99.7832 399.688 100.897 395.783C101.161 394.807 101.414 393.876 101.655 392.992C101.942 392.131 102.23 391.315 102.482 390.546C102.746 389.788 102.988 389.076 103.206 388.421C103.424 387.766 103.7 387.204 103.918 386.675C104.354 385.665 104.699 384.861 104.94 384.275C105.055 384.022 105.147 383.827 105.216 383.655C105.285 383.517 105.319 383.448 105.331 383.448Z" fill="#263238"/>
<path d="M106.63 383.459C106.63 383.459 107.491 384.344 108.352 386.365C109.237 388.375 109.788 391.568 109.639 395.461C109.26 403.237 108.571 413.941 107.64 425.771C106.71 437.6 105.676 448.282 104.849 456.011C104.436 459.87 104.08 462.994 103.816 465.153C103.678 466.198 103.574 467.025 103.494 467.634C103.46 467.887 103.425 468.105 103.402 468.277C103.379 468.426 103.356 468.495 103.356 468.495C103.345 468.495 103.345 468.415 103.356 468.277C103.368 468.105 103.379 467.887 103.402 467.622C103.46 467.014 103.529 466.175 103.632 465.13C103.839 462.925 104.149 459.801 104.516 455.965C105.251 448.236 106.228 437.543 107.158 425.713C108.077 413.895 108.835 403.179 109.294 395.438C109.489 391.568 109.007 388.433 108.18 386.423C107.376 384.424 106.572 383.494 106.63 383.459Z" fill="#263238"/>
<path d="M116.387 419.856C116.341 419.982 115.146 419.683 113.722 419.166C112.298 418.65 111.184 418.133 111.23 418.006C111.276 417.88 112.47 418.179 113.894 418.696C115.319 419.201 116.433 419.729 116.387 419.856Z" fill="#263238"/>
<path d="M118.074 405.522C118.132 405.649 116.995 406.28 115.536 406.935C114.077 407.59 112.849 408.015 112.791 407.888C112.734 407.762 113.871 407.13 115.329 406.476C116.788 405.821 118.017 405.396 118.074 405.522Z" fill="#263238"/>
<path d="M117.198 393.819C117.187 393.957 116.245 394.002 115.097 393.922C113.948 393.842 113.029 393.669 113.029 393.532C113.041 393.394 113.983 393.348 115.131 393.428C116.28 393.509 117.21 393.681 117.198 393.819Z" fill="#263238"/>
<path d="M102.68 386.33C102.565 386.399 101.945 385.641 101.302 384.619C100.659 383.597 100.234 382.713 100.349 382.632C100.464 382.563 101.084 383.321 101.727 384.344C102.382 385.366 102.807 386.25 102.68 386.33Z" fill="#263238"/>
<path d="M97.8935 393.406C97.8935 393.543 96.9977 393.635 95.8951 393.612C94.7926 393.589 93.9082 393.463 93.9082 393.314C93.9082 393.176 94.804 393.084 95.9066 393.107C97.0092 393.13 97.8935 393.268 97.8935 393.406Z" fill="#263238"/>
<path d="M94.4415 407.555C94.3841 407.682 93.4538 407.429 92.3397 406.981C91.2257 406.533 90.3758 406.062 90.4217 405.936C90.4791 405.81 91.4094 406.062 92.5235 406.51C93.6375 406.958 94.4874 407.429 94.4415 407.555Z" fill="#263238"/>
<path d="M94.0818 419.454C94.1047 419.592 93.3122 419.867 92.2901 420.085C91.2679 420.304 90.4295 420.361 90.395 420.223C90.372 420.085 91.1645 419.81 92.1867 419.592C93.2089 419.385 94.0473 419.327 94.0818 419.454Z" fill="#263238"/>
<path d="M92.4527 438.933C92.4757 439.07 91.6258 439.335 90.5577 439.53C89.4781 439.725 88.5937 439.771 88.5708 439.633C88.5478 439.495 89.3977 439.231 90.4658 439.036C91.5339 438.841 92.4298 438.795 92.4527 438.933Z" fill="#263238"/>
<path d="M91.3671 449.683C91.436 449.809 90.7239 450.303 89.7822 450.808C88.8404 451.302 88.0249 451.612 87.9675 451.486C87.8986 451.359 88.6107 450.866 89.5524 450.36C90.4942 449.855 91.2982 449.556 91.3671 449.683Z" fill="#263238"/>
<path d="M100.153 461.88C100.038 461.949 99.4177 461.099 98.7746 459.973C98.1314 458.848 97.7065 457.883 97.8328 457.814C97.9476 457.745 98.5679 458.595 99.211 459.721C99.8542 460.846 100.279 461.811 100.153 461.88Z" fill="#263238"/>
<path d="M102.687 441.608C102.778 441.712 102.101 442.539 101.148 443.469C100.206 444.399 99.3558 445.065 99.2525 444.974C99.1606 444.87 99.8382 444.043 100.791 443.113C101.745 442.183 102.583 441.505 102.687 441.608Z" fill="#263238"/>
<path d="M102.124 430.962C102.021 431.054 101.389 430.537 100.7 429.79C100.011 429.055 99.5398 428.377 99.6431 428.274C99.7465 428.182 100.378 428.699 101.067 429.446C101.756 430.192 102.227 430.87 102.124 430.962Z" fill="#263238"/>
<path d="M103.866 417.375C103.97 417.467 103.395 418.282 102.58 419.178C101.764 420.085 101.029 420.74 100.926 420.648C100.823 420.556 101.397 419.741 102.212 418.845C103.016 417.938 103.763 417.283 103.866 417.375Z" fill="#263238"/>
<path d="M104.855 407.509C104.764 407.613 103.96 406.981 103.064 406.108C102.168 405.235 101.525 404.443 101.628 404.339C101.72 404.236 102.524 404.868 103.42 405.741C104.304 406.625 104.947 407.417 104.855 407.509Z" fill="#263238"/>
<path d="M106.779 394.175C106.894 394.244 106.492 395.14 105.883 396.173C105.263 397.207 104.677 397.988 104.551 397.907C104.436 397.839 104.838 396.943 105.447 395.909C106.055 394.887 106.653 394.106 106.779 394.175Z" fill="#263238"/>
<path d="M110.4 381.817C110.526 381.886 110.17 382.781 109.608 383.815C109.045 384.849 108.494 385.641 108.367 385.572C108.241 385.503 108.597 384.608 109.16 383.574C109.723 382.54 110.274 381.759 110.4 381.817Z" fill="#263238"/>
<path d="M114.511 387.433C114.569 387.56 114.006 387.95 113.259 388.318C112.501 388.674 111.847 388.869 111.789 388.742C111.732 388.616 112.295 388.226 113.041 387.858C113.788 387.502 114.454 387.307 114.511 387.433Z" fill="#263238"/>
<path d="M114.598 431.812C114.575 431.938 113.3 431.766 111.841 431.146C110.394 430.525 109.384 429.733 109.453 429.618C109.533 429.492 110.636 430.089 112.037 430.686C113.449 431.283 114.632 431.674 114.598 431.812Z" fill="#263238"/>
<path d="M112.923 441.207C112.946 441.345 112.108 441.62 111.028 441.827C109.96 442.034 109.064 442.091 109.041 441.953C109.019 441.815 109.857 441.54 110.937 441.333C112.005 441.126 112.9 441.069 112.923 441.207Z" fill="#263238"/>
<path d="M110.85 457.32C110.77 457.424 109.69 456.689 108.714 455.437C107.727 454.196 107.256 452.979 107.37 452.921C107.497 452.853 108.151 453.921 109.105 455.127C110.058 456.333 110.954 457.217 110.85 457.32Z" fill="#263238"/>
<path d="M88.2597 464.693C88.1678 464.59 88.742 463.947 89.5345 463.269C90.327 462.592 91.0505 462.121 91.1424 462.224C91.2343 462.328 90.6601 462.971 89.8676 463.648C89.0636 464.337 88.3515 464.797 88.2597 464.693Z" fill="#263238"/>
<path d="M81.7628 429.526C80.844 426.667 79.1328 423.336 76.1236 423.29C74.3435 423.267 72.7355 424.542 71.9086 426.115C71.0702 427.689 70.7142 429.515 70.7716 431.295C71.1161 443.056 73.149 456.505 77.2262 468.76H88.206C88.0567 455.138 85.909 442.482 81.7628 429.526Z" fill="#455A64"/>
<path d="M61.9072 411.529C60.3682 405.385 55.7971 402.077 50.4795 401.767C45.6213 402.617 43.7377 407.395 43.1635 412.287C42.5892 417.18 44.1053 422.05 45.6098 426.747C50.4336 441.815 55.2458 456.884 60.0696 471.964C64.6177 471.47 69.1773 470.965 73.7254 470.471C69.3955 450.28 66.9147 431.559 61.9072 411.529Z" fill="#455A64"/>
<path d="M76.1332 423.29C76.1791 423.324 75.6852 423.784 75.2029 424.84C74.732 425.908 74.5023 427.608 74.686 429.698C74.9043 431.789 75.134 434.304 75.49 437.049C75.846 439.805 76.3399 442.826 76.9601 445.984C78.2005 452.29 79.6017 457.952 80.486 462.075C80.934 464.142 81.2785 465.808 81.4852 466.968C81.5771 467.496 81.6575 467.944 81.7149 468.311C81.7609 468.622 81.7839 468.782 81.7609 468.782C81.7379 468.782 81.692 468.633 81.6116 468.334C81.5197 467.978 81.4163 467.542 81.29 467.014C81.0029 465.785 80.6124 464.154 80.13 462.155C79.1538 458.055 77.6951 452.405 76.4547 446.076C75.8346 442.918 75.3522 439.874 75.0191 437.106C74.8468 435.717 74.732 434.396 74.6171 433.156C74.5138 431.927 74.3874 430.778 74.3185 429.71C74.1692 427.597 74.4563 425.828 75.0076 424.748C75.5704 423.692 76.1332 423.29 76.1332 423.29Z" fill="#263238"/>
<path d="M50.6762 401.376C50.7221 401.422 49.9526 402.065 49.0223 403.593C48.1035 405.097 47.1273 407.555 46.9435 410.737C46.7368 413.918 47.4489 417.685 48.6318 421.739C49.8263 425.805 51.1471 430.261 52.5253 434.947C55.2473 444.308 57.7166 452.784 59.5197 458.986C60.3811 462.029 61.0817 464.51 61.5871 466.29C61.8053 467.117 61.989 467.783 62.1269 468.277C62.2417 468.736 62.2991 468.978 62.2762 468.978C62.2647 468.978 62.1728 468.748 62.0235 468.3C61.8627 467.806 61.656 467.152 61.3918 466.336C60.852 464.567 60.094 462.11 59.1752 459.078C57.3376 452.887 54.8223 444.434 52.0429 435.085C50.6762 430.399 49.3669 425.931 48.1839 421.854C47.0124 417.788 46.3233 413.941 46.5875 410.702C46.8172 407.463 47.8623 404.971 48.85 403.478C49.8492 401.973 50.6762 401.376 50.6762 401.376Z" fill="#263238"/>
<path d="M70.7258 469.012C70.7143 469.024 70.5994 468.794 70.4157 468.358C70.2319 467.921 69.9448 467.278 69.6347 466.44C68.98 464.763 68.1531 462.293 67.2802 459.181C66.4074 456.08 65.5575 452.336 64.7305 448.167C63.9381 443.986 63.0652 439.392 62.1579 434.58C61.2046 429.768 60.148 425.219 58.919 421.154C57.6901 417.088 56.3234 413.516 54.9337 410.622C53.5555 407.728 52.2347 405.488 51.247 403.983C50.7761 403.214 50.3511 402.663 50.0985 402.261C49.8343 401.87 49.708 401.652 49.7195 401.64C49.731 401.629 49.8917 401.824 50.1789 402.192C50.4545 402.571 50.9139 403.111 51.4078 403.857C52.4529 405.327 53.8197 407.555 55.2438 410.45C56.6795 413.344 58.0921 416.916 59.344 420.993C60.6074 425.07 61.6755 429.63 62.6287 434.454C63.5246 439.277 64.386 443.871 65.167 448.052C65.9709 452.221 66.7749 455.965 67.6018 459.066C68.4173 462.167 69.1982 464.648 69.7955 466.348C70.0711 467.198 70.3353 467.852 70.4846 468.3C70.6683 468.76 70.7487 469.001 70.7258 469.012Z" fill="#263238"/>
<path d="M45.851 424.496C45.8854 424.634 45.1389 424.932 44.1856 425.162C43.2324 425.392 42.4399 425.472 42.4054 425.334C42.371 425.197 43.1175 424.898 44.0708 424.668C45.0241 424.439 45.8165 424.358 45.851 424.496Z" fill="#263238"/>
<path d="M44.4043 415.17C44.3928 415.308 43.3591 415.365 42.0958 415.423C40.8324 415.469 39.7987 415.491 39.7758 415.354C39.7528 415.216 40.7865 414.963 42.0728 414.917C43.3706 414.86 44.4158 415.032 44.4043 415.17Z" fill="#263238"/>
<path d="M45.9447 406.648C45.8528 406.751 45.1177 406.269 44.2908 405.568C43.4639 404.868 42.8667 404.213 42.9585 404.11C43.0504 404.007 43.7855 404.489 44.6124 405.189C45.4393 405.89 46.0366 406.545 45.9447 406.648Z" fill="#263238"/>
<path d="M50.1064 398.769C50.2442 398.804 50.2098 399.47 50.1868 400.262C50.1638 401.066 50.1638 401.732 50.026 401.755C49.8882 401.778 49.6585 401.112 49.6929 400.251C49.7044 399.389 49.9686 398.735 50.1064 398.769Z" fill="#263238"/>
<path d="M58.6245 402.479C58.7393 402.559 58.4063 403.237 57.878 403.984C57.3496 404.73 56.8328 405.281 56.718 405.201C56.6031 405.121 56.9362 404.443 57.4645 403.696C57.9928 402.95 58.5096 402.399 58.6245 402.479Z" fill="#263238"/>
<path d="M64.1401 412.08C64.1975 412.207 63.4855 412.62 62.5552 412.999C61.6249 413.378 60.8324 413.573 60.7864 413.447C60.729 413.321 61.4411 412.907 62.3714 412.528C63.3017 412.161 64.0942 411.954 64.1401 412.08Z" fill="#263238"/>
<path d="M67.5055 421.958C67.5629 422.084 66.6211 422.612 65.3348 422.899C64.0484 423.198 62.9803 423.118 62.9688 422.98C62.9574 422.842 63.991 422.693 65.2199 422.406C66.4603 422.141 67.448 421.831 67.5055 421.958Z" fill="#263238"/>
<path d="M52.1083 419.156C51.9705 419.11 52.0738 418.432 52.3265 417.628C52.5792 416.824 52.8893 416.215 53.0156 416.25C53.1534 416.296 53.0501 416.973 52.7974 417.777C52.5562 418.581 52.2461 419.201 52.1083 419.156Z" fill="#263238"/>
<path d="M54.2513 431.559C54.125 431.502 54.4006 430.583 54.8715 429.503C55.3424 428.424 55.8248 427.597 55.9511 427.654C56.0775 427.712 55.8018 428.63 55.3309 429.71C54.8601 430.79 54.3777 431.617 54.2513 431.559Z" fill="#263238"/>
<path d="M48.9525 434.959C48.8951 435.085 48.0337 434.856 46.9886 434.523C45.9434 434.189 45.0935 433.891 45.128 433.753C45.1509 433.615 46.0697 433.707 47.1379 434.04C48.206 434.373 49.0099 434.833 48.9525 434.959Z" fill="#263238"/>
<path d="M52.0088 445.066C52.0892 445.18 51.5035 445.732 50.6995 446.306C49.8956 446.88 49.1835 447.248 49.1031 447.133C49.0227 447.018 49.6084 446.467 50.4124 445.893C51.2163 445.33 51.9284 444.951 52.0088 445.066Z" fill="#263238"/>
<path d="M54.4681 455.15C54.5026 455.288 53.779 455.575 52.8487 455.804C51.9184 456.034 51.1489 456.103 51.1145 455.965C51.08 455.827 51.8036 455.54 52.7339 455.31C53.6527 455.081 54.4337 455.012 54.4681 455.15Z" fill="#263238"/>
<path d="M67.7644 430.388C67.8333 430.503 67.2131 430.997 66.3173 431.341C65.4215 431.686 64.629 431.72 64.606 431.582C64.583 431.444 65.2836 431.192 66.145 430.87C66.9949 430.537 67.6955 430.262 67.7644 430.388Z" fill="#263238"/>
<path d="M69.6695 446.065C69.612 446.191 68.877 445.973 68.0271 445.571C67.1772 445.169 66.534 444.744 66.5915 444.618C66.6489 444.491 67.3839 444.71 68.2338 445.112C69.0952 445.514 69.7384 445.939 69.6695 446.065Z" fill="#263238"/>
<path d="M73.0333 457.298C72.9873 457.424 72.0111 457.171 70.8626 456.712C69.7141 456.264 68.8182 455.793 68.8757 455.667C68.9216 455.54 69.8978 455.793 71.0463 456.252C72.1834 456.689 73.0792 457.16 73.0333 457.298Z" fill="#263238"/>
<path d="M55.0115 466.084C54.9426 465.957 55.8385 465.36 56.8721 464.533C57.9058 463.718 58.7098 462.994 58.8131 463.086C58.9165 463.178 58.2618 464.085 57.1822 464.924C56.1026 465.785 55.069 466.21 55.0115 466.084Z" fill="#263238"/>
<path d="M63.8747 460.375C63.7369 460.387 63.5416 459.64 63.1971 458.768C62.864 457.883 62.4965 457.206 62.6113 457.114C62.7147 457.033 63.3004 457.63 63.668 458.584C64.0355 459.526 64.0125 460.364 63.8747 460.375Z" fill="#263238"/>
<path d="M61.526 446.881C61.4456 446.995 60.8714 446.72 60.2512 446.272C59.6195 445.824 59.183 445.365 59.2634 445.25C59.3438 445.135 59.9181 445.41 60.5383 445.858C61.1585 446.306 61.6064 446.766 61.526 446.881Z" fill="#263238"/>
<path d="M82.2125 425.725C82.2929 425.84 81.7416 426.391 80.9606 426.954C80.1911 427.528 79.502 427.895 79.4101 427.781C79.3297 427.666 79.881 427.114 80.662 426.552C81.4315 425.989 82.1321 425.61 82.2125 425.725Z" fill="#263238"/>
<path d="M85.3222 434.247C85.3336 434.385 84.4608 434.569 83.3812 434.442C82.3016 434.327 81.4861 433.96 81.5206 433.834C81.5665 433.696 82.4049 433.834 83.4271 433.948C84.4608 434.063 85.3107 434.109 85.3222 434.247Z" fill="#263238"/>
<path d="M71.921 436.165C71.9554 436.302 71.14 436.59 70.0948 436.658C69.0497 436.727 68.2113 436.555 68.2228 436.417C68.2343 436.279 69.0612 436.234 70.0604 436.165C71.0711 436.084 71.898 436.027 71.921 436.165Z" fill="#263238"/>
<path d="M73.0814 428.102C73.0699 428.24 72.2545 428.251 71.3586 427.838C70.4628 427.424 69.946 426.793 70.0378 426.701C70.1297 426.598 70.7499 427.011 71.5654 427.379C72.3808 427.769 73.0929 427.964 73.0814 428.102Z" fill="#263238"/>
<path d="M86.4709 443.401C86.402 443.515 85.5636 443.125 84.5989 442.516C83.6341 441.908 82.922 441.333 82.9909 441.207C83.0598 441.092 83.8983 441.483 84.863 442.091C85.8278 442.7 86.5513 443.286 86.4709 443.401Z" fill="#263238"/>
<path d="M119.167 467.312H47.6719V479.98H119.167V467.312Z" fill="#41B79B"/>
<path d="M53.0117 477.477L61.706 515.343H104.316L113.837 477.477H53.0117Z" fill="#41B79B"/>
<path d="M119.132 480.003C119.132 480.141 103.007 480.256 83.115 480.256C63.2228 480.256 47.0977 480.141 47.0977 480.003C47.0977 479.865 63.2228 479.751 83.115 479.751C103.007 479.751 119.132 479.865 119.132 480.003Z" fill="#263238"/>
<path d="M79.3756 436.441C79.2607 436.509 78.7668 435.947 78.2845 435.166C77.8021 434.385 77.5035 433.696 77.6183 433.627C77.7332 433.558 78.227 434.121 78.7094 434.902C79.1918 435.671 79.4904 436.36 79.3756 436.441Z" fill="#263238"/>
<path d="M79.3964 446.628C79.27 446.582 79.4308 445.721 79.7754 444.698C80.1085 443.676 80.499 442.884 80.6253 442.93C80.7516 442.976 80.5908 443.837 80.2463 444.859C79.9132 445.881 79.5342 446.674 79.3964 446.628Z" fill="#263238"/>
<path d="M82.884 457.332C82.7577 457.389 82.2294 456.54 81.6896 455.425C81.1613 454.311 80.8282 453.358 80.9545 453.301C81.0809 453.243 81.6092 454.093 82.149 455.207C82.6773 456.321 83.0104 457.275 82.884 457.332Z" fill="#263238"/>
<path d="M75.3377 465.946C75.2344 465.854 75.6593 465.188 76.291 464.464C76.9227 463.74 77.5199 463.224 77.6233 463.316C77.7267 463.407 77.3017 464.074 76.67 464.797C76.0383 465.521 75.4411 466.037 75.3377 465.946Z" fill="#263238"/>
<path d="M73.7543 450.314C73.7313 450.452 73.0422 450.441 72.2153 450.303C71.3884 450.154 70.7452 449.924 70.7682 449.798C70.7911 449.66 71.4802 449.671 72.3072 449.809C73.1226 449.947 73.7773 450.177 73.7543 450.314Z" fill="#263238"/>
<path d="M322.5 380.232H152.957V515.435H322.5V380.232Z" fill="#E0E0E0"/>
<g opacity="0.3">
<path d="M165.301 380.508C185.262 387.629 207.279 389.145 228.699 389.547C233.132 389.627 237.623 389.627 241.918 390.741C246.213 391.855 250.371 394.267 252.576 398.115C254.977 402.307 254.724 407.555 253.357 412.184C251.991 416.812 249.636 421.085 247.925 425.61C244.927 433.535 243.997 442.24 245.249 450.613C245.777 454.173 246.73 457.757 248.786 460.72C250.842 463.672 254.161 465.923 257.768 465.98C264.211 466.072 268.621 459.744 271.814 454.139C284.918 431.18 299.091 405.086 307.475 380.026L165.301 380.508Z" fill="black"/>
</g>
<path d="M210.73 514.712C210.569 514.712 210.432 484.747 210.432 447.788C210.432 410.817 210.569 380.852 210.73 380.852C210.891 380.852 211.029 410.817 211.029 447.788C211.029 484.747 210.891 514.712 210.73 514.712Z" fill="#455A64"/>
<path d="M280.192 280.311C279.687 276.946 269.614 265.794 269.614 265.794C269.614 265.794 264.573 245.569 263.068 239.608C262.689 238.115 261.885 236.427 260.874 234.727C257.36 228.766 252.203 223.931 246.162 220.531L232.219 212.687L228.877 205.268L195.375 188.051L186.29 204.073C186.29 204.073 164.227 211.091 161.31 216.098C158.393 221.106 162.757 288.225 162.757 288.225C162.757 288.225 153.523 326.952 151.57 334.969C149.629 342.986 152.202 352.541 152.202 352.541L168.637 331.914C173.748 325.505 184.958 322.565 193.009 322.68L261.816 322.979L259.083 303.707L314.717 314.526C314.717 314.526 324.295 295.862 325.042 295.483C325.788 295.116 280.192 280.311 280.192 280.311Z" fill="#41B79B"/>
<path d="M193.939 210.379C193.456 209.885 197.832 224.655 203.311 239.689C206.262 247.786 207.744 256.376 207.744 265.036V298.136V319.476L240.741 317.236L235.813 281.38C235.813 281.38 231.794 258.249 230.668 249.451C229.635 241.4 226.097 219.555 226.097 219.555C226.097 219.555 207.755 224.448 193.939 210.379Z" fill="white"/>
<path d="M267.144 293.841C267.109 293.841 267.098 293.542 267.144 293.014C267.19 292.486 267.316 291.716 267.58 290.797C268.085 288.96 269.268 286.49 271.347 284.4C273.437 282.31 275.907 281.127 277.744 280.61C278.663 280.346 279.433 280.22 279.961 280.174C280.489 280.128 280.788 280.139 280.788 280.174C280.799 280.277 279.628 280.403 277.871 281.012C276.113 281.609 273.77 282.804 271.772 284.814C269.774 286.824 268.579 289.166 267.982 290.924C267.373 292.681 267.247 293.852 267.144 293.841Z" fill="#263238"/>
<path d="M268.849 280.771C268.78 280.645 270.94 279.542 273.891 279.312C276.831 279.06 279.151 279.783 279.094 279.933C279.06 280.116 276.763 279.669 273.937 279.91C271.1 280.128 268.918 280.943 268.849 280.771Z" fill="#263238"/>
<g opacity="0.3">
<path d="M159.436 310.483L156.576 313.733C159.643 317.305 163.628 320.291 168.199 321.417C172.77 322.542 177.514 322.669 182.222 322.692C184.129 322.692 186.058 322.68 187.896 322.152C189.768 321.612 191.502 320.555 193.443 320.441C194.741 320.36 196.016 320.716 197.291 320.992C198.566 321.268 199.91 321.451 201.15 321.049C202.39 320.647 203.47 319.499 203.39 318.201C189.079 314.02 174.309 311.425 159.436 310.483Z" fill="black"/>
</g>
<path d="M253.608 314.641L245.511 306.038L228.857 301.823C228.857 301.823 213.594 306.394 213.238 306.383C212.87 306.371 199.961 302.857 199.961 302.857L195.447 319.407L218.705 321.003L245.258 319.935C245.258 319.935 246.648 318.649 245.821 317.764C245.006 316.88 250.266 319.258 250.886 319.281C251.495 319.303 252.712 319.786 253.528 318.798C254.09 318.132 254.848 315.961 253.608 314.641Z" fill="#FFBE9D"/>
<path d="M245.823 317.776C245.789 317.856 244.79 317.535 243.182 317.018C241.562 316.501 239.334 315.823 236.842 315.18C234.338 314.537 232.053 314.066 230.399 313.733C228.733 313.4 227.711 313.193 227.723 313.113C227.734 313.033 228.791 313.09 230.468 313.32C232.156 313.549 234.476 313.963 236.991 314.606C239.506 315.249 241.746 316.007 243.331 316.627C244.905 317.236 245.858 317.707 245.823 317.776Z" fill="#EB996E"/>
<path d="M253.61 314.64C253.576 314.721 252.186 314.204 249.912 313.446C247.649 312.676 244.479 311.746 240.953 310.758C237.439 309.713 234.304 308.668 231.926 308.53C229.56 308.335 228.113 308.794 228.09 308.68C228.079 308.645 228.423 308.507 229.089 308.346C229.744 308.186 230.732 308.071 231.949 308.105C234.407 308.14 237.634 309.15 241.114 310.184C244.64 311.172 247.81 312.171 250.05 313.044C251.175 313.469 252.071 313.859 252.68 314.135C253.3 314.422 253.622 314.606 253.61 314.64Z" fill="#EB996E"/>
<path d="M161.299 216.098C161.299 216.098 149.297 224.448 146.38 236.461C143.462 248.486 130.806 297.562 133.401 304.913C135.997 312.263 186.474 319.464 186.474 319.464L192.458 294.231L166.823 287.214C166.823 287.214 167.145 263.842 167.478 254.16C167.811 244.478 161.299 216.098 161.299 216.098Z" fill="#41B79B"/>
<path d="M192.109 297.999L200.367 300.032L195.394 319.074L187.285 317.776L192.109 297.999Z" fill="white"/>
<path d="M133.202 302.317C133.248 302.317 133.179 302.742 133.328 303.512C133.489 304.27 133.983 305.372 135.085 306.371C137.279 308.416 141.471 310.116 146.777 311.069H146.8L146.823 311.08C149.247 311.873 152.015 312.516 154.978 313.182C157.941 313.848 161.122 314.526 164.476 315.204C171.195 316.582 178.626 318.017 186.493 319.499L186.148 319.717C186.723 317.374 187.32 314.905 187.929 312.39C189.341 306.601 190.719 300.985 192.017 295.667L192.224 296.012C183.748 293.589 176.007 291.383 169.449 289.511H169.438H169.426C165.946 288.087 162.489 287.57 159.491 287.766C156.482 287.903 153.956 288.707 151.992 289.523C150.028 290.361 148.626 291.28 147.685 291.912C147.248 292.233 146.904 292.474 146.64 292.67C146.398 292.842 146.272 292.922 146.272 292.911C146.261 292.899 146.375 292.796 146.594 292.612C146.823 292.429 147.145 292.141 147.604 291.797C148.523 291.131 149.913 290.166 151.888 289.282C153.852 288.42 156.402 287.559 159.468 287.387C162.512 287.145 166.049 287.639 169.61 289.063L169.587 289.052C176.168 290.901 183.909 293.072 192.396 295.449L192.66 295.529L192.592 295.805C191.294 301.123 189.927 306.739 188.526 312.527C187.917 315.031 187.308 317.512 186.734 319.855L186.665 320.131L186.39 320.073C178.511 318.592 171.08 317.122 164.373 315.72C161.019 315.02 157.838 314.319 154.874 313.642C151.911 312.952 149.166 312.298 146.697 311.459L146.731 311.471C141.356 310.449 137.164 308.68 134.948 306.532C133.834 305.476 133.363 304.316 133.225 303.523C133.099 302.731 133.202 302.317 133.202 302.317Z" fill="#263238"/>
<path d="M168.201 288.891C168.132 288.971 167.271 288.179 165.732 287.145C164.193 286.111 161.919 284.894 159.22 284.102C156.509 283.321 153.936 283.125 152.087 283.171C150.238 283.217 149.09 283.412 149.078 283.32C149.067 283.263 150.181 282.907 152.076 282.758C153.959 282.597 156.612 282.735 159.392 283.539C162.171 284.354 164.48 285.663 165.984 286.812C167.489 287.949 168.247 288.845 168.201 288.891Z" fill="#263238"/>
<path d="M171.566 247.774C171.612 247.774 171.612 248.325 171.578 249.313C171.555 250.301 171.475 251.737 171.337 253.494C171.05 257.02 170.533 261.889 169.603 267.207C168.695 272.536 167.535 277.302 166.421 280.668C166.134 281.506 165.847 282.264 165.606 282.919C165.33 283.539 165.089 284.09 164.871 284.573C164.4 285.445 164.124 285.916 164.09 285.905C164.055 285.882 164.262 285.376 164.664 284.481C164.848 283.987 165.066 283.424 165.296 282.804C165.514 282.138 165.766 281.391 166.019 280.541C167.03 277.165 168.109 272.41 169.017 267.104C169.936 261.797 170.521 256.962 170.912 253.448C171.084 251.782 171.233 250.393 171.348 249.29C171.44 248.314 171.521 247.774 171.566 247.774Z" fill="#263238"/>
<path d="M200.828 234.761C200.793 234.773 200.713 234.451 200.426 233.912C200.139 233.383 199.633 232.637 198.703 232.028C197.796 231.431 196.406 230.994 194.97 231.477C193.558 231.936 192.168 233.257 191.823 235.049L191.663 235.864L191.307 235.106C190.101 232.499 188.86 229.501 187.792 226.239C185.851 220.325 185.013 214.662 185.197 210.574C185.197 209.552 185.346 208.633 185.403 207.829C185.541 207.025 185.645 206.336 185.771 205.784C186.058 204.682 186.242 204.073 186.276 204.085C186.425 204.108 185.599 206.531 185.622 210.585C185.553 214.616 186.437 220.198 188.366 226.056C189.423 229.283 190.629 232.281 191.801 234.876L191.284 234.934C191.709 232.924 193.271 231.511 194.833 231.04C196.441 230.546 197.957 231.063 198.887 231.752C199.852 232.441 200.345 233.268 200.587 233.831C200.702 234.118 200.782 234.348 200.805 234.509C200.839 234.67 200.851 234.75 200.828 234.761Z" fill="#263238"/>
<path d="M228.836 237.346C228.802 237.346 228.721 236.863 228.572 235.979C228.446 235.095 228.159 233.797 228.331 232.131C228.561 230.501 229.33 228.514 231.099 227.044C231.972 226.32 233.166 225.838 234.441 225.849C235.693 225.849 237.06 226.331 237.955 227.423L237.45 227.71C237.106 226.825 236.738 225.907 236.359 224.965C234.211 219.555 232.305 214.64 230.961 211.079C230.329 209.379 229.801 207.955 229.388 206.853C229.032 205.854 228.848 205.291 228.882 205.268C228.917 205.256 229.169 205.785 229.606 206.761C230.065 207.852 230.651 209.253 231.352 210.93C232.81 214.456 234.774 219.337 236.922 224.758C237.289 225.7 237.657 226.619 238.001 227.503L238.702 229.272L237.496 227.79C236.75 226.871 235.555 226.423 234.441 226.412C233.304 226.4 232.247 226.802 231.432 227.457C229.79 228.766 228.986 230.661 228.733 232.189C228.515 233.762 228.744 235.072 228.802 235.956C228.871 236.852 228.882 237.346 228.836 237.346Z" fill="#263238"/>
<path d="M250.137 240.194C250.298 240.171 252.893 257.628 255.937 279.186C258.98 300.755 261.3 318.247 261.139 318.27C260.979 318.293 258.383 300.835 255.34 279.266C252.307 257.72 249.976 240.217 250.137 240.194Z" fill="#263238"/>
<g opacity="0.3">
<path d="M188.148 226.423C188.286 230.879 189.263 235.313 191.008 239.39C192.26 237.851 193.65 236.209 195.545 235.761C197.922 235.198 200.311 236.656 202.034 238.437C201.666 236.656 201.069 234.888 199.967 233.487C198.864 232.074 197.176 231.063 195.419 231.109C193.65 231.155 191.904 232.453 191.582 234.233L188.286 226.504" fill="black"/>
</g>
<path d="M168.758 239.045C168.643 239.045 168.689 237.839 168.333 235.967C167.988 234.095 167.15 231.557 165.542 229.134C164.726 227.928 163.819 226.894 162.912 226.01C161.981 225.16 161.097 224.459 160.282 223.965C158.674 222.943 157.537 222.553 157.571 222.449C157.583 222.415 157.87 222.484 158.398 222.656C158.662 222.737 158.972 222.851 159.328 223.012C159.684 223.173 160.086 223.345 160.511 223.598C161.373 224.057 162.326 224.758 163.302 225.608C164.255 226.492 165.209 227.56 166.047 228.801C167.712 231.304 168.516 233.958 168.758 235.899C168.884 236.863 168.918 237.656 168.872 238.207C168.838 238.747 168.804 239.045 168.758 239.045Z" fill="#263238"/>
<path d="M235.426 157.087C234.07 144.339 223.137 134.772 210.319 135.105L209.044 135.139C195.331 136.299 188.647 148.588 190.186 162.267L193.953 210.378L195.549 212.331C202.923 221.381 215.465 224.344 226.111 219.532L225.055 204.05C225.055 204.05 238.205 201.661 238.033 188.453C237.929 182.068 236.689 168.952 235.426 157.087Z" fill="#FFBE9D"/>
<path d="M225.145 204.038C225.145 204.038 216.727 204.762 207.711 199.421C207.711 199.421 212.029 208.816 225.168 207.289L225.145 204.038Z" fill="#EB996E"/>
<path d="M231.243 168.011C231.3 169.01 230.508 169.883 229.474 169.963C228.441 170.044 227.545 169.309 227.487 168.309C227.43 167.31 228.222 166.437 229.256 166.357C230.29 166.277 231.186 167.012 231.243 168.011Z" fill="#263238"/>
<path d="M232.121 160.832C231.972 161.062 230.478 161.222 228.687 162.187C226.895 163.14 225.827 164.358 225.574 164.335C225.459 164.335 225.563 164.002 226.022 163.462C226.482 162.934 227.332 162.187 228.446 161.59C229.56 160.993 230.605 160.717 231.248 160.66C231.914 160.602 232.201 160.717 232.121 160.832Z" fill="#263238"/>
<path d="M212.19 169.009C212.248 170.008 211.455 170.881 210.422 170.961C209.388 171.042 208.492 170.307 208.435 169.307C208.377 168.308 209.17 167.435 210.203 167.355C211.237 167.274 212.133 168.01 212.19 169.009Z" fill="#263238"/>
<path d="M211.905 163.6C211.641 163.657 210.412 162.83 208.448 162.336C206.484 161.843 204.887 161.969 204.704 161.797C204.612 161.716 204.91 161.567 205.611 161.509C206.3 161.441 207.426 161.498 208.655 161.797C209.883 162.107 210.837 162.578 211.365 162.945C211.893 163.324 212.031 163.577 211.905 163.6Z" fill="#263238"/>
<path d="M219.839 179.368C219.828 179.253 221.08 179.001 223.124 178.69C223.641 178.622 224.123 178.507 224.204 178.151C224.318 177.772 224.089 177.22 223.813 176.623C223.296 175.383 222.745 174.085 222.182 172.718C219.908 167.159 218.254 162.577 218.472 162.485C218.702 162.393 220.724 166.826 222.998 172.397C223.549 173.763 224.066 175.073 224.571 176.325C224.778 176.91 225.134 177.565 224.893 178.346C224.766 178.736 224.387 179.024 224.066 179.127C223.733 179.242 223.446 179.253 223.193 179.276C221.126 179.448 219.851 179.483 219.839 179.368Z" fill="#263238"/>
<path d="M211.938 155.767C211.708 156.306 209.698 155.95 207.309 156.123C204.909 156.249 202.957 156.846 202.669 156.341C202.543 156.1 202.899 155.594 203.703 155.1C204.496 154.607 205.747 154.159 207.183 154.067C208.619 153.975 209.917 154.274 210.766 154.664C211.616 155.054 212.03 155.502 211.938 155.767Z" fill="#263238"/>
<path d="M232.045 156.215C231.608 156.685 229.851 156.215 227.761 156.215C225.659 156.157 223.89 156.559 223.477 156.088C223.293 155.859 223.569 155.388 224.338 154.951C225.096 154.503 226.371 154.136 227.818 154.159C229.254 154.182 230.517 154.584 231.241 155.055C231.987 155.514 232.24 155.985 232.045 156.215Z" fill="#263238"/>
<path d="M239.269 145.407C239.016 144.213 237.833 143.19 236.627 143.374C237.27 143.145 237.936 142.903 238.453 142.444C238.97 141.985 239.291 141.249 239.073 140.606C238.74 139.584 237.431 139.377 236.397 139.079C235.042 138.7 233.825 137.884 232.952 136.782C231.7 135.197 231.217 133.13 230.126 131.43C228.725 129.225 226.279 127.697 223.683 127.41C221.076 127.123 218.366 128.076 216.516 129.925C214.495 127.858 211.452 126.836 208.592 127.272C205.732 127.709 203.136 129.592 201.827 132.165C198.324 130.706 194.052 131.303 191.077 133.681C188.114 136.047 186.586 140.089 187.229 143.834L195.453 148.876C195.591 146.337 198.427 144.316 200.874 145.017C203.355 145.729 204.939 148.611 207.524 148.807C209.534 148.956 211.233 147.406 213.186 146.889C215.54 146.257 218.033 147.199 220.157 148.405C222.282 149.599 224.303 151.092 226.669 151.689C229.449 152.39 232.4 151.781 235.053 150.69C236.19 150.231 237.316 149.657 238.154 148.772C238.993 147.865 239.521 146.602 239.269 145.407Z" fill="#263238"/>
<path d="M196.883 144.982L234.554 144.764C233.314 142.203 231.166 140.182 228.846 138.516C223.85 134.944 217.775 132.797 211.63 132.854C205.485 132.912 193.196 140.744 188.866 145.097C185.398 148.589 185.501 151.517 185.501 151.517C185.076 156.41 187.959 161.889 189.177 166.643C189.808 169.101 191.095 176.544 191.095 176.544C193.173 176.475 193.897 174.809 193.518 172.765L192.909 164.725C192.909 164.725 199.823 159.511 196.228 150.438C195.677 149.737 194.437 146.418 196.883 144.982Z" fill="#263238"/>
<path d="M192.337 164.208C190.419 157.535 188.661 150.391 190.694 143.753C190.327 143.741 189.948 143.719 189.58 143.707L189.109 144.052C187.008 143.34 184.481 144.143 183.172 145.947C181.862 147.738 181.874 150.391 183.183 152.183C180.955 152.08 178.807 153.94 178.612 156.168C178.474 157.707 179.14 159.189 179.829 160.567C180.519 161.945 181.254 163.381 181.265 164.92C181.277 166.459 180.289 168.136 178.761 168.32C179.45 169.905 181.357 170.835 183.022 170.387C182.494 171.696 181.587 172.833 180.438 173.649C182.896 175.314 186.261 174.751 188.926 173.454C190.511 172.684 192.061 171.581 192.704 169.951C193.416 168.124 192.865 166.092 192.337 164.208Z" fill="#263238"/>
<path d="M191.721 171.984C191.491 171.892 182.579 169.537 183.096 178.553C183.613 187.569 192.56 185.192 192.571 184.927C192.571 184.675 191.721 171.984 191.721 171.984Z" fill="#FFBE9D"/>
<path d="M190.413 181.654C190.367 181.631 190.264 181.769 190 181.907C189.747 182.045 189.311 182.148 188.828 181.999C187.852 181.7 186.968 180.242 186.83 178.611C186.761 177.795 186.887 177.003 187.14 176.337C187.381 175.659 187.772 175.177 188.254 175.062C188.725 174.924 189.081 175.188 189.207 175.441C189.345 175.682 189.299 175.866 189.345 175.877C189.368 175.9 189.529 175.716 189.437 175.349C189.391 175.177 189.276 174.97 189.047 174.809C188.817 174.648 188.495 174.579 188.162 174.625C187.473 174.717 186.876 175.395 186.6 176.118C186.279 176.853 186.118 177.749 186.198 178.668C186.359 180.483 187.393 182.125 188.713 182.435C189.357 182.562 189.873 182.343 190.138 182.114C190.413 181.872 190.448 181.666 190.413 181.654Z" fill="#EB996E"/>
<path d="M182.354 164.507C182.331 164.53 182.102 164.163 182.193 163.462C182.274 162.773 182.779 161.774 183.882 161.108C184.973 160.441 186.477 160.281 188.016 160.108C189.532 159.948 191.267 159.511 192.14 158.018C193.012 156.559 193.035 154.779 192.84 153.286C192.622 151.77 192.22 150.392 192.025 149.209C191.542 146.82 192.002 145.293 192.082 145.339C192.186 145.35 191.921 146.82 192.507 149.106C192.76 150.254 193.208 151.598 193.472 153.194C193.69 154.768 193.725 156.674 192.725 158.386C192.22 159.224 191.428 159.867 190.578 160.2C189.728 160.545 188.878 160.66 188.085 160.752C186.512 160.889 185.122 161.004 184.123 161.544C183.135 162.061 182.618 162.911 182.469 163.508C182.297 164.117 182.412 164.496 182.354 164.507Z" fill="#455A64"/>
<path d="M180.178 160.568C180.143 160.579 179.982 160.315 179.902 159.752C179.833 159.201 179.868 158.34 180.35 157.432C180.591 156.984 180.936 156.525 181.418 156.146C181.889 155.756 182.532 155.503 183.152 155.342C183.761 155.158 184.404 155.009 184.864 154.641C185.323 154.274 185.53 153.677 185.541 152.988C185.564 152.298 185.461 151.575 185.484 150.851C185.495 150.139 185.576 149.45 185.713 148.807C185.989 147.521 186.46 146.43 187.011 145.58C187.551 144.707 188.424 144.282 189.01 144.305C189.607 144.305 189.86 144.58 189.825 144.603C189.802 144.661 189.527 144.5 189.021 144.58C188.516 144.638 187.873 145.028 187.425 145.844C186.977 146.648 186.575 147.716 186.345 148.933C186.23 149.542 186.173 150.185 186.173 150.863C186.161 151.529 186.276 152.23 186.253 153.022C186.253 153.792 185.966 154.687 185.3 155.181C184.645 155.675 183.933 155.801 183.336 155.974C182.096 156.215 181.269 156.904 180.786 157.696C179.822 159.293 180.315 160.579 180.178 160.568Z" fill="#455A64"/>
<path d="M232.955 136.782C233.012 136.794 232.277 137.276 231.094 136.713C230.52 136.46 229.946 135.909 229.394 135.266C228.843 134.611 228.211 133.911 227.304 133.405C225.547 132.406 222.687 132.142 220.505 133.853C219.391 134.657 218.403 135.794 217.105 136.736C216.462 137.195 215.704 137.609 214.843 137.781C213.993 137.954 213.085 137.827 212.27 137.54C210.639 136.954 209.364 135.955 207.963 135.45C206.562 134.91 205.103 134.669 203.725 134.692C200.946 134.703 198.534 135.748 196.891 137.046C195.214 138.344 194.238 139.791 193.664 140.825C193.101 141.87 192.894 142.513 192.837 142.49C192.814 142.479 192.849 142.318 192.929 142.008C193.009 141.698 193.17 141.25 193.423 140.698C193.94 139.607 194.881 138.057 196.581 136.656C198.247 135.255 200.773 134.083 203.713 134.049C205.172 134.014 206.711 134.244 208.204 134.818C209.72 135.369 211.029 136.369 212.5 136.885C213.235 137.15 213.981 137.241 214.705 137.104C215.428 136.966 216.083 136.61 216.692 136.185C217.909 135.323 218.92 134.186 220.114 133.337C221.297 132.452 222.744 132.016 224.054 132.027C225.374 132.039 226.58 132.406 227.545 132.969C228.521 133.532 229.187 134.336 229.693 135.002C230.221 135.668 230.704 136.185 231.22 136.46C232.254 137.058 232.955 136.713 232.955 136.782Z" fill="#455A64"/>
<path d="M214.832 181.735C215.119 181.666 215.44 183.595 217.324 184.686C219.207 185.777 221.217 185.215 221.286 185.49C221.332 185.605 220.896 185.938 220.023 186.111C219.173 186.283 217.887 186.214 216.738 185.548C215.59 184.882 214.969 183.836 214.774 183.055C214.556 182.263 214.694 181.746 214.832 181.735Z" fill="#263238"/>
<path d="M333.689 361.19C330.278 358.146 325.558 356.734 320.998 356.998L313.234 381.668C318.92 381.921 324.593 384.849 330.083 383.345C334.493 382.139 337.836 377.993 338.444 373.468C339.076 368.942 337.112 364.234 333.689 361.19Z" fill="#41B79B"/>
<path d="M321.152 356.423C321.164 356.228 321.991 356.067 323.507 356.09C325 356.136 327.228 356.297 329.858 357.285C332.5 358.261 335.371 360.259 337.588 363.291C338.702 364.808 339.632 366.611 340.172 368.644C340.723 370.665 340.815 372.928 340.367 375.11C339.919 377.303 338.954 379.359 337.542 381.002C336.129 382.655 334.326 383.792 332.534 384.47C328.916 385.825 325.436 385.607 322.772 385.102C320.084 384.573 318.063 383.792 316.685 383.218C315.318 382.632 314.606 382.196 314.663 382.001C314.721 381.806 315.559 381.863 317.018 382.104C318.476 382.334 320.544 382.782 323.07 383.011C325.574 383.241 328.606 383.161 331.501 381.92C332.936 381.3 334.268 380.381 335.302 379.118C336.347 377.855 337.082 376.247 337.438 374.512C338.185 371.01 337.117 367.507 335.337 364.865C333.545 362.2 331.213 360.294 329.008 359.214C326.792 358.112 324.747 357.618 323.346 357.239C321.933 356.871 321.129 356.63 321.152 356.423Z" fill="#F5F5F5"/>
<path d="M249.223 448.936L232.34 496.244L291.086 517.549C292.775 511.817 266.474 489.525 266.474 489.525L278.533 459.664L249.223 448.936Z" fill="#41B79B"/>
<g opacity="0.6">
<path d="M249.234 480.394C247.982 480.29 246.731 481.289 246.581 482.53C246.432 483.77 247.431 485.057 248.672 485.171C249.923 485.298 251.451 484.149 251.462 482.897C251.474 481.646 250.222 480.21 248.982 480.382" fill="white"/>
</g>
<path d="M232.34 496.244L234.04 491.466L289.846 513.725C289.846 513.725 292.051 515.815 291.086 517.549L232.34 496.244Z" fill="white"/>
<path d="M267.578 489.571C267.463 489.858 265.981 489.467 264.235 489.869C262.478 490.237 261.295 491.213 261.077 491.006C260.836 490.857 261.881 489.295 264.006 488.836C266.119 488.365 267.727 489.33 267.578 489.571Z" fill="#263238"/>
<path d="M272.745 494.36C272.71 494.658 271.286 494.693 269.873 495.554C268.438 496.37 267.714 497.599 267.427 497.484C267.14 497.426 267.553 495.681 269.334 494.647C271.102 493.59 272.836 494.084 272.745 494.36Z" fill="#263238"/>
<path d="M273.568 502.996C273.281 502.962 273.408 501.388 274.717 500.079C276.015 498.77 277.588 498.632 277.623 498.919C277.703 499.218 276.52 499.746 275.464 500.826C274.384 501.894 273.867 503.077 273.568 502.996Z" fill="#263238"/>
<path d="M269.534 482.462C269.315 482.68 268.144 481.807 266.49 481.325C264.836 480.808 263.378 480.9 263.32 480.601C263.228 480.337 264.848 479.717 266.8 480.314C268.741 480.888 269.763 482.289 269.534 482.462Z" fill="#263238"/>
<path d="M270.676 474.985C270.642 475.1 269.436 474.87 267.736 473.906C266.886 473.423 265.933 472.746 265.003 471.838C264.532 471.39 264.072 470.885 263.636 470.334C263.429 470.058 263.176 469.771 263.004 469.323C262.797 468.909 262.889 468.083 263.429 467.749C263.889 467.405 264.497 467.405 264.922 467.554C265.359 467.692 265.68 467.91 265.967 468.106C266.565 468.496 267.104 468.944 267.564 469.392C268.506 470.311 269.183 471.287 269.631 472.16C270.538 473.917 270.607 475.157 270.493 475.18C270.332 475.226 269.987 474.089 268.976 472.539C268.471 471.769 267.782 470.908 266.886 470.104C266.438 469.702 265.933 469.323 265.382 468.967C264.819 468.576 264.291 468.381 264.026 468.599C263.934 468.68 263.912 468.726 263.969 468.955C264.038 469.174 264.233 469.426 264.44 469.702C264.842 470.23 265.255 470.713 265.669 471.149C266.507 472.033 267.369 472.734 268.115 473.274C269.666 474.353 270.745 474.836 270.676 474.985Z" fill="#263238"/>
<path d="M270.124 475.26C270.009 475.271 269.814 474.031 270.377 472.136C270.664 471.194 271.158 470.115 271.95 469.058C272.341 468.53 272.812 468.024 273.352 467.542C273.903 467.083 274.604 466.462 275.764 466.738C276.349 466.922 276.671 467.553 276.694 468.001C276.74 468.472 276.659 468.828 276.602 469.184C276.464 469.908 276.2 470.574 275.89 471.171C275.247 472.354 274.362 473.204 273.535 473.755C271.836 474.858 270.515 474.766 270.526 474.663C270.48 474.479 271.686 474.295 273.087 473.147C273.777 472.584 274.512 471.769 275.017 470.723C275.27 470.195 275.476 469.621 275.58 469.001C275.718 468.346 275.66 467.749 275.407 467.737C275.12 467.622 274.454 467.921 274.029 468.323C273.535 468.736 273.099 469.196 272.72 469.655C271.962 470.586 271.434 471.539 271.089 472.389C270.377 474.089 270.297 475.271 270.124 475.26Z" fill="#263238"/>
<path d="M192.309 322.6C183.396 322.807 174.943 324.07 168.81 330.525C160.667 339.092 150.606 351.313 150.032 359.777C149.182 372.434 156.808 376.201 162.39 379.279C164.859 380.646 167.673 381.254 170.487 381.151L273.486 380.37L276.725 362.924L210.111 346.512L212.879 321.44L192.309 322.6Z" fill="#263238"/>
<path d="M212.854 321.44L245.254 319.947C245.254 319.947 301.221 323.059 313.165 334.005C325.11 344.95 323.617 357.388 319.631 369.321C315.646 381.266 280.582 457.619 280.582 457.619C280.582 457.619 283.43 462.477 281.822 467.324C279.341 474.824 272.68 476.03 272.68 476.03L241.532 464.579C241.532 464.579 237.306 463.086 240.292 459.112C243.278 455.127 245.265 454.392 245.265 454.392V446.432C245.265 446.432 256.21 426.529 257.21 423.795C258.209 421.062 268.695 380.565 268.695 380.565L275.666 368.586C275.666 368.586 258.818 360.662 244.208 354.919L210.098 346.512L212.854 321.44Z" fill="#263238"/>
<path d="M265.411 463.143C265.354 463.224 264.366 462.443 262.678 461.352C260.989 460.26 258.566 458.905 255.706 457.814C252.846 456.735 250.124 456.126 248.138 455.827C246.151 455.517 244.899 455.448 244.91 455.356C244.91 455.287 246.174 455.207 248.195 455.414C250.216 455.609 253.007 456.16 255.924 457.263C258.842 458.377 261.277 459.813 262.93 461.007C264.561 462.201 265.457 463.097 265.411 463.143Z" fill="#455A64"/>
<path d="M280.976 457.676C280.919 457.722 280.218 456.999 279.162 455.77C278.117 454.541 276.715 452.784 275.245 450.797C273.775 448.81 272.523 446.949 271.662 445.583C270.801 444.216 270.318 443.332 270.376 443.286C270.445 443.24 271.053 444.032 272.007 445.341C273.098 446.834 274.338 448.546 275.716 450.441C277.117 452.324 278.381 454.024 279.483 455.506C280.46 456.804 281.045 457.619 280.976 457.676Z" fill="#455A64"/>
<path d="M292.396 357.652C292.419 357.744 291.248 357.997 289.445 358.594C287.641 359.191 285.207 360.202 282.737 361.741C280.279 363.28 278.292 365.026 276.972 366.381C275.639 367.736 274.904 368.678 274.824 368.621C274.767 368.586 275.387 367.552 276.662 366.094C277.925 364.635 279.912 362.798 282.427 361.224C284.942 359.662 287.458 358.686 289.33 358.181C291.19 357.687 292.385 357.583 292.396 357.652Z" fill="#455A64"/>
<path d="M260.529 411.725C260.506 411.725 260.552 411.483 260.656 411.047C260.782 410.553 260.943 409.922 261.138 409.152C261.597 407.429 262.229 405.075 262.999 402.203C264.652 396.277 266.892 388.226 269.373 379.337C270.671 374.88 271.773 370.619 273.025 366.772C274.472 362.947 276.769 360.007 278.894 357.825C281.03 355.643 283.04 354.173 284.464 353.231C285.188 352.772 285.751 352.427 286.141 352.22C286.532 352.002 286.75 351.899 286.75 351.922C286.773 351.968 285.969 352.45 284.591 353.426C283.212 354.414 281.271 355.918 279.193 358.112C277.137 360.294 274.92 363.223 273.542 366.956C272.347 370.757 271.233 375.053 269.947 379.497C267.397 388.375 265.1 396.404 263.401 402.318C262.551 405.178 261.862 407.51 261.356 409.221C261.115 409.979 260.92 410.599 260.77 411.093C260.633 411.506 260.552 411.736 260.529 411.725Z" fill="#455A64"/>
<path d="M231.872 353.392C231.711 353.403 231.022 347.35 230.356 339.862C229.678 332.374 229.265 326.287 229.425 326.275C229.586 326.264 230.275 332.316 230.941 339.805C231.619 347.293 232.032 353.38 231.872 353.392Z" fill="#455A64"/>
<path d="M177.939 369.562C177.847 369.608 177.353 368.632 176.331 367.185C175.32 365.749 173.735 363.889 171.622 362.246C169.509 360.604 167.326 359.501 165.684 358.881C164.042 358.25 162.973 357.997 162.996 357.894C163.008 357.836 164.122 357.928 165.833 358.479C167.545 359.019 169.819 360.087 172.001 361.775C174.171 363.475 175.756 365.428 176.687 366.955C177.629 368.483 177.996 369.539 177.939 369.562Z" fill="#455A64"/>
<path d="M197.798 347.569C197.74 347.66 196.362 346.776 193.985 345.697C191.607 344.605 188.173 343.422 184.234 342.848C180.283 342.285 176.654 342.469 174.07 342.837C171.485 343.204 169.912 343.664 169.889 343.56C169.877 343.526 170.256 343.377 170.957 343.158C171.658 342.917 172.703 342.664 174.001 342.423C176.596 341.941 180.294 341.688 184.314 342.251C188.323 342.837 191.803 344.112 194.157 345.317C195.34 345.915 196.259 346.455 196.867 346.879C197.488 347.293 197.809 347.534 197.798 347.569Z" fill="#455A64"/>
<path d="M275.377 362.913C275.377 362.936 275.09 362.89 274.573 362.775C273.987 362.649 273.229 362.488 272.287 362.281C270.243 361.822 267.383 361.179 263.892 360.398C256.805 358.813 246.997 356.676 236.121 354.529C225.244 352.381 215.367 350.612 208.2 349.372C204.674 348.763 201.792 348.269 199.724 347.913C198.771 347.741 198.002 347.603 197.416 347.5C196.888 347.396 196.612 347.339 196.623 347.316C196.635 347.293 196.911 347.316 197.439 347.385C198.025 347.465 198.794 347.557 199.759 347.684C201.769 347.959 204.686 348.384 208.269 348.947C215.448 350.072 225.348 351.772 236.236 353.931C247.112 356.091 256.92 358.284 263.984 359.973C267.521 360.823 270.369 361.523 272.333 362.04C273.264 362.293 274.022 362.488 274.596 362.649C275.113 362.809 275.377 362.89 275.377 362.913Z" fill="#455A64"/>
<path d="M210.084 349.463C209.969 349.498 209.728 348.097 208.66 346.167C208.12 345.214 207.339 344.146 206.306 343.124C205.284 342.09 204.032 341.045 202.699 340C200.012 337.944 197.278 336.485 195.326 335.417C193.35 334.361 192.133 333.706 192.179 333.625C192.213 333.557 193.5 334.073 195.521 335.038C197.531 336.014 200.333 337.427 203.067 339.517C204.422 340.574 205.674 341.631 206.708 342.722C207.753 343.801 208.534 344.938 209.039 345.949C209.545 346.971 209.82 347.856 209.958 348.464C210.096 349.107 210.119 349.463 210.084 349.463Z" fill="#455A64"/>
<path d="M324.817 365.049C324.954 365.175 323.232 366.921 321.888 369.563C320.521 372.193 320.108 374.616 319.924 374.582C319.775 374.582 319.935 372.032 321.348 369.298C322.749 366.531 324.725 364.923 324.817 365.049Z" fill="#263238"/>
<g opacity="0.3">
<path d="M251.086 247.349L258.459 299.285L258.827 300.112C260.561 282.241 257.885 263.957 251.086 247.349Z" fill="black"/>
</g>
<path d="M290.796 277.188L266.827 319.12L207.759 320.407L207.609 323.083L264.805 322.658L266.62 322.6L327.02 322.715L339.229 301.663L354.826 279.313C355.848 277.843 354.791 275.844 353.011 275.844L292.726 276.074C291.91 276.085 291.187 276.51 290.796 277.188Z" fill="#E0E0E0"/>
<path d="M339.215 301.663C339.215 301.663 342.316 304.511 341.834 306.923C341.34 309.335 341.512 311.138 339.215 311.299C339.215 311.299 339.376 314.4 336.114 314.894C336.114 314.894 336.815 318.684 332.404 319.339C332.404 319.339 331.049 323.393 328.27 322.405C325.49 321.429 323.699 320.28 323.699 320.28L322.883 318.81C322.883 318.81 318.794 317.271 319.805 314.963C320.414 313.562 322.539 313.194 322.539 313.194C322.539 313.194 321.654 311.138 322.803 309.599C323.779 308.278 326.983 309.37 326.983 309.37C326.983 309.37 326.8 307.67 327.994 306.246C329.085 304.959 334.162 308.462 334.162 308.462L336.941 305.154L339.215 301.663Z" fill="#FFBE9D"/>
<path d="M332.407 319.339C332.316 319.476 330.041 318.213 327.308 316.525C324.575 314.825 322.438 313.343 322.53 313.206C322.622 313.068 324.896 314.32 327.63 316.019C330.352 317.708 332.488 319.201 332.407 319.339Z" fill="#EB996E"/>
<path d="M336.113 314.894C336.033 315.032 333.908 313.918 331.381 312.39C328.854 310.863 326.879 309.519 326.959 309.381C327.04 309.243 329.165 310.357 331.691 311.885C334.218 313.401 336.193 314.756 336.113 314.894Z" fill="#EB996E"/>
<path d="M331.061 306.579C331.152 306.407 333.048 307.406 335.253 308.807C337.458 310.22 339.238 311.311 339.192 311.426C339.112 311.621 337.136 310.725 334.931 309.312C332.714 307.911 330.992 306.705 331.061 306.579Z" fill="#EB996E"/>
<path d="M354.82 277.441C354.82 277.452 354.717 277.463 354.533 277.475C354.303 277.486 354.028 277.498 353.683 277.509C352.891 277.521 351.799 277.544 350.421 277.567C347.539 277.59 343.45 277.624 338.431 277.659C328.255 277.682 314.289 277.716 298.865 277.751C297.9 277.751 296.935 277.751 295.982 277.751C295.074 277.682 294.259 278.084 293.788 278.784C292.881 280.427 291.985 282.035 291.101 283.631C289.332 286.812 287.632 289.89 286.013 292.819C282.762 298.665 279.834 303.925 277.364 308.358C274.907 312.734 272.897 316.295 271.484 318.81C270.795 320.004 270.255 320.946 269.865 321.635C269.692 321.934 269.543 322.164 269.428 322.359C269.325 322.52 269.267 322.6 269.267 322.6C269.256 322.6 269.302 322.508 269.382 322.336C269.486 322.129 269.612 321.888 269.761 321.578C270.129 320.877 270.646 319.913 271.289 318.695C272.667 316.157 274.608 312.574 276.997 308.152C279.432 303.696 282.326 298.412 285.542 292.543C287.15 289.603 288.85 286.525 290.607 283.332C291.491 281.736 292.387 280.105 293.306 278.451C293.869 277.555 294.994 277.062 295.993 277.142C296.947 277.142 297.911 277.142 298.876 277.142C314.312 277.176 328.278 277.211 338.442 277.234C343.473 277.268 347.55 277.303 350.433 277.326C351.811 277.349 352.902 277.372 353.695 277.383C354.039 277.395 354.315 277.406 354.544 277.418C354.728 277.418 354.82 277.429 354.82 277.441Z" fill="#263238"/>
<path d="M312.313 298.516C311.245 299.699 311.222 301.41 312.256 302.352C313.289 303.282 315.001 303.087 316.069 301.904C317.137 300.721 317.16 299.01 316.126 298.068C315.081 297.138 313.37 297.333 312.313 298.516Z" fill="white"/>
<g opacity="0.3">
<path d="M144.632 282.299C144.115 282.505 143.541 282.85 143.529 283.401C143.529 283.849 143.943 284.205 144.379 284.297C144.816 284.389 146.401 283.734 146.837 283.642C153.05 282.276 158.161 283.585 164.076 285.905L164.271 285.71C161.917 280.737 151.316 279.611 144.632 282.299Z" fill="black"/>
</g>
<path d="M464.645 515.435C464.645 515.596 360.75 515.734 232.634 515.734C104.46 515.734 0.599609 515.596 0.599609 515.435C0.599609 515.274 104.471 515.136 232.634 515.136C360.762 515.136 464.645 515.263 464.645 515.435Z" fill="#263238"/>
<path d="M112.504 149.347C112.699 149.542 150.841 136.438 150.841 136.438L136.175 102.786L102.225 115.764L120.899 126.491L112.504 149.347Z" fill="#455A64"/>
<path d="M130.393 112.916V67.1018C130.393 67.1018 183.006 57.4887 220.907 58.0515C258.808 58.6143 297.846 64.8392 297.846 64.8392V108.827C297.857 108.827 179.055 98.215 130.393 112.916Z" fill="#455A64"/>
<path d="M130.125 112.962L150.844 136.633V108.827C150.844 108.827 133.513 110.895 130.125 112.962Z" fill="#263238"/>
<path d="M130.388 67.0902C130.549 67.0902 130.629 77.3579 130.549 90.026C130.468 102.694 130.273 112.962 130.112 112.962C129.951 112.962 129.871 102.694 129.951 90.026C130.032 77.3579 130.227 67.0902 130.388 67.0902Z" fill="#263238"/>
<path d="M315.685 145.832C315.49 146.027 277.348 132.923 277.348 132.923L292.014 99.2715L325.964 112.25L307.289 122.977L315.685 145.832Z" fill="#455A64"/>
<path d="M298.067 109.448L277.348 133.118V107.323C284.262 107.552 291.164 108.265 298.067 109.448Z" fill="#263238"/>
<path d="M297.85 64.8394C298.011 64.8394 298.195 74.8199 298.252 87.1435C298.31 99.467 298.229 109.448 298.057 109.448C297.896 109.448 297.713 99.467 297.655 87.1435C297.598 74.8314 297.678 64.8394 297.85 64.8394Z" fill="#263238"/>
<path d="M160.84 71.8796H163.941V94.0344H160.84V71.8796ZM162.195 81.7224H169.752C170.338 81.7224 170.866 81.5846 171.326 81.2974C171.785 81.0103 172.13 80.6083 172.382 80.0915C172.635 79.5632 172.75 78.966 172.75 78.2883C172.75 77.6107 172.624 77.002 172.382 76.4852C172.13 75.9569 171.785 75.5549 171.326 75.2792C170.878 74.9921 170.35 74.8543 169.752 74.8543H162.195V71.9026H169.626C170.901 71.9026 172.026 72.1668 173.003 72.6951C173.967 73.2234 174.725 73.9699 175.254 74.9462C175.782 75.9109 176.058 77.0365 176.058 78.2998C176.058 79.5632 175.793 80.6887 175.254 81.6535C174.714 82.6182 173.956 83.3763 172.991 83.9046C172.026 84.4329 170.901 84.697 169.637 84.697H162.207V81.7224H162.195ZM168.225 83.985L171.314 83.2844L176.976 94.0344H173.29L168.225 83.985Z" fill="white"/>
<path d="M181.168 71.9025H184.269V94.0458H181.168V71.9025ZM182.673 71.9025H195.387V74.8541H182.673V71.9025ZM182.673 81.5729H193.71V84.5246H182.673V81.5729ZM182.673 91.0826H195.387V94.0343H182.673V91.0826Z" fill="white"/>
<path d="M203.43 93.9655C202.476 93.7587 201.581 93.4601 200.754 93.0467C199.927 92.6332 199.157 92.1279 198.434 91.5191L200.363 89.1417C201.202 89.8768 202.132 90.4166 203.154 90.7841C204.165 91.1516 205.267 91.3354 206.462 91.3354C208.07 91.3354 209.31 91.0368 210.194 90.4395C211.079 89.8423 211.515 89.0039 211.515 87.9243V87.9128C211.515 87.1433 211.32 86.5346 210.918 86.0752C210.516 85.6273 209.999 85.2942 209.367 85.0645C208.736 84.8463 207.909 84.651 206.91 84.4673C206.875 84.4558 206.841 84.4558 206.806 84.4558C206.772 84.4558 206.737 84.4558 206.703 84.4443L206.473 84.3984C204.992 84.1457 203.786 83.8586 202.855 83.537C201.925 83.2154 201.133 82.6297 200.478 81.7912C199.823 80.9413 199.49 79.7354 199.49 78.1734V78.1619C199.49 76.7952 199.8 75.6237 200.409 74.6475C201.018 73.6827 201.914 72.9362 203.097 72.4309C204.28 71.9255 205.692 71.6729 207.346 71.6729C208.139 71.6729 208.92 71.7647 209.689 71.937C210.459 72.1093 211.217 72.362 211.963 72.7065C212.71 73.0511 213.445 73.476 214.168 73.9928L212.4 76.4621C211.561 75.842 210.711 75.3825 209.884 75.0724C209.046 74.7623 208.207 74.613 207.369 74.613C205.853 74.613 204.682 74.9117 203.843 75.5204C203.005 76.1291 202.591 76.979 202.591 78.0816V78.093C202.591 78.8511 202.809 79.4483 203.234 79.8847C203.671 80.3212 204.199 80.6427 204.854 80.8495C205.497 81.0562 206.393 81.2744 207.541 81.4926C207.587 81.5041 207.622 81.5156 207.656 81.5156C207.691 81.5156 207.725 81.5271 207.771 81.5386C207.817 81.5501 207.874 81.5615 207.943 81.573C208.012 81.5845 208.058 81.596 208.116 81.6075C209.459 81.8831 210.573 82.2047 211.469 82.5837C212.365 82.9627 213.123 83.56 213.72 84.3984C214.329 85.2368 214.628 86.3853 214.628 87.8324V87.8669C214.628 89.2221 214.306 90.3706 213.663 91.3354C213.02 92.3001 212.101 93.0237 210.883 93.529C209.666 94.0344 208.207 94.2871 206.496 94.2871C205.394 94.2641 204.383 94.1607 203.43 93.9655Z" fill="white"/>
<path d="M221.67 93.2993C220.51 92.6561 219.625 91.7143 219.016 90.4854C218.408 89.2565 218.098 87.7634 218.098 86.0292V71.9025H221.199V86.144C221.199 87.7634 221.601 89.0038 222.416 89.8882C223.232 90.7725 224.38 91.209 225.862 91.209C227.355 91.209 228.503 90.7725 229.33 89.8882C230.146 89.0038 230.559 87.7519 230.559 86.144V71.9025H233.671V86.0292C233.671 87.7634 233.361 89.245 232.753 90.4854C232.144 91.7258 231.26 92.6561 230.088 93.2993C228.917 93.9424 227.515 94.264 225.873 94.264C224.231 94.264 222.83 93.9424 221.67 93.2993Z" fill="white"/>
<path d="M238.527 71.9025H241.628V94.0458H238.527V71.9025ZM240.078 91.0826H252.746V94.0343H240.078V91.0826Z" fill="white"/>
<path d="M252.445 71.9025H268.065V74.8541H252.445V71.9025ZM258.705 73.7056H261.817V94.0343H258.705V73.7056Z" fill="white"/>
<path d="M321.383 69.0083L324.392 72.5342L332.868 69.0083L330.387 65.2986L321.383 69.0083Z" fill="#455A64"/>
<path d="M317.504 52.2287C317.504 54.6635 315.529 56.6389 313.094 56.6389C310.659 56.6389 308.684 54.6635 308.684 52.2287C308.684 49.7938 310.659 47.8184 313.094 47.8184C315.529 47.8184 317.504 49.7938 317.504 52.2287Z" fill="#41B79B"/>
<path d="M218.709 118.015C218.709 119.233 217.721 120.22 216.504 120.22C215.287 120.22 214.299 119.233 214.299 118.015C214.299 116.798 215.287 115.81 216.504 115.81C217.721 115.81 218.709 116.798 218.709 118.015Z" fill="#41B79B"/>
<path d="M115.979 84.8692C115.979 85.7995 115.232 86.546 114.302 86.546C113.383 86.546 112.625 85.7995 112.625 84.8692C112.625 83.9389 113.372 83.1924 114.302 83.1924C115.221 83.1924 115.979 83.9389 115.979 84.8692Z" fill="#41B79B"/>
<path d="M109.75 66.4128L114.689 66.7114L117.032 56.995L112.426 57.1902L109.75 66.4128Z" fill="#455A64"/>
<path d="M264.109 143.972L265.775 148.635L275.629 146.981L273.642 142.812L264.109 143.972Z" fill="#41B79B"/>
<path d="M164.444 117.062L161.4 120.967L168.073 128.398L170.531 124.481L164.444 117.062Z" fill="#455A64"/>
<path d="M152.631 25.319L164.3 37.2176L180.724 31.0156L181.367 35.0928L174.258 49.6445L180.816 60.5094L180.264 63.7597L164.381 61.0837L154.986 71.3858L152.781 69.7205L150.84 56.6159L136.024 48.8979L135.369 45.9118L150.288 41.8231L152.631 25.319Z" fill="#41B79B"/>
<g opacity="0.3">
<path d="M152.631 25.319L164.3 37.2176L180.724 31.0156L181.367 35.0928L174.258 49.6445L180.816 60.5094L180.264 63.7597L164.381 61.0837L154.986 71.3858L152.781 69.7205L150.84 56.6159L136.024 48.8979L135.369 45.9118L150.288 41.8231L152.631 25.319Z" fill="black"/>
</g>
<path d="M152.631 21.9884L164.3 33.887L180.724 31.0157L173.006 45.7856L180.816 60.5095L164.381 57.7531L152.781 69.7206L150.334 53.2394L135.369 45.9119L150.288 38.481L152.631 21.9884Z" fill="#41B79B"/>
<path d="M273.525 25.319L261.856 37.2176L245.444 31.0156L244.789 35.0928L251.898 49.6445L245.34 60.5094L245.892 63.7597L261.776 61.0837L271.17 71.3858L273.376 69.7205L275.317 56.6159L290.132 48.8979L290.787 45.9118L275.868 41.8231L273.525 25.319Z" fill="#41B79B"/>
<g opacity="0.3">
<path d="M273.525 25.319L261.856 37.2176L245.444 31.0156L244.789 35.0928L251.898 49.6445L245.34 60.5094L245.892 63.7597L261.776 61.0837L271.17 71.3858L273.376 69.7205L275.317 56.6159L290.132 48.8979L290.787 45.9118L275.868 41.8231L273.525 25.319Z" fill="black"/>
</g>
<path d="M273.528 21.9884L261.859 33.887L245.447 31.0157L253.154 45.7856L245.344 60.5095L261.779 57.7531L273.379 69.7206L275.825 53.2394L290.79 45.9119L275.871 38.481L273.528 21.9884Z" fill="#41B79B"/>
<path d="M212.704 4.46204L222.409 23.424L244.793 22.1032L244.035 27.3174L229.817 42.3744L233.676 58.132L231.769 61.8762L213.404 52.5617L198.026 61.5661L195.97 58.6833L198.589 41.9495L183.451 26.8925L183.796 22.999L203.55 23.6996L212.704 4.46204Z" fill="#41B79B"/>
<g opacity="0.3">
<path d="M212.704 4.46204L222.409 23.424L244.793 22.1032L244.035 27.3174L229.817 42.3744L233.676 58.132L231.769 61.8762L213.404 52.5617L198.026 61.5661L195.97 58.6833L198.589 41.9495L183.451 26.8925L183.796 22.999L203.55 23.6996L212.704 4.46204Z" fill="black"/>
</g>
<path d="M213.972 0.39624L223.677 19.3467L244.798 22.1031L229.764 37.1946L233.681 58.132L214.684 48.496L195.975 58.6833L199.271 37.6425L183.801 22.999L204.83 19.6223L213.972 0.39624Z" fill="#41B79B"/>
<path d="M252.641 170.502L268.858 172.294C272.763 166.735 278.207 162.153 284.902 159.27C304.163 150.978 326.49 159.879 334.782 179.139C343.075 198.4 334.174 220.727 314.913 229.019C295.652 237.311 273.325 228.41 265.033 209.15C261.576 201.11 261.117 192.531 263.15 184.664L263.138 184.687L252.641 170.502Z" fill="#FAFAFA"/>
<path d="M252.641 170.502C253.272 171.352 256.557 175.694 263.264 184.595L263.012 184.606L263.023 184.583C263.058 184.514 263.15 184.48 263.23 184.526C263.287 184.56 263.322 184.629 263.299 184.698C261.955 189.947 261.438 196.849 263.551 204.303C264.091 206.152 264.746 208.047 265.653 209.885C266.113 210.804 266.549 211.745 267.054 212.676C267.617 213.572 268.18 214.479 268.754 215.398C271.224 218.958 274.428 222.312 278.344 225.022C282.249 227.744 286.866 229.835 291.885 230.926C296.904 232.028 302.337 232.155 307.689 230.995C313.029 229.835 318.267 227.48 322.815 223.989C327.34 220.497 331.268 215.926 333.783 210.528C336.379 205.05 337.757 199.054 337.55 193.197C337.389 187.351 335.85 181.689 333.301 176.75C330.751 171.812 327.191 167.551 323.033 164.369C318.898 161.165 314.247 158.96 309.584 157.708C304.909 156.456 300.235 156.169 295.871 156.605C291.495 157.065 287.532 158.374 283.984 159.89C276.92 163.129 272.05 168.022 268.972 172.351C268.938 172.397 268.892 172.42 268.835 172.409C258.578 171.214 253.64 170.629 252.641 170.502C253.651 170.606 258.59 171.1 268.881 172.145L268.743 172.202C271.798 167.815 276.679 162.842 283.811 159.523C287.383 157.961 291.403 156.617 295.825 156.146C300.235 155.687 304.978 155.962 309.722 157.226C314.454 158.477 319.162 160.706 323.378 163.944C327.593 167.16 331.21 171.479 333.817 176.486C336.425 181.494 337.987 187.236 338.159 193.185C338.377 199.135 336.976 205.222 334.346 210.792C331.785 216.282 327.799 220.922 323.194 224.471C318.577 228.02 313.248 230.409 307.827 231.569C302.394 232.729 296.87 232.591 291.782 231.465C286.683 230.34 282.02 228.215 278.057 225.447C274.095 222.679 270.856 219.28 268.375 215.662C267.801 214.732 267.227 213.813 266.664 212.905C266.159 211.964 265.722 211.01 265.263 210.08C264.355 208.219 263.701 206.301 263.161 204.429C261.059 196.884 261.633 189.912 263.023 184.629L263.299 184.744L263.287 184.767C263.253 184.836 263.161 184.87 263.081 184.824C263.058 184.813 263.046 184.801 263.035 184.778C256.465 175.763 253.261 171.352 252.641 170.502Z" fill="#263238"/>
<path d="M285.921 180.62C285.932 180.632 285.944 180.804 285.955 181.149C285.967 181.528 285.978 182.01 285.99 182.619C286.001 183.94 286.024 185.8 286.058 188.143C286.093 192.91 286.139 199.617 286.185 207.656L285.921 207.392C293.788 207.381 303.056 207.369 312.945 207.346C313.014 207.277 312.382 207.909 312.647 207.645V207.634V207.622V207.588V207.53V207.415V207.186V206.726V205.807C312.647 205.199 312.647 204.578 312.647 203.97C312.647 202.752 312.647 201.546 312.647 200.352C312.647 197.963 312.647 195.632 312.658 193.369C312.67 188.832 312.681 184.548 312.692 180.62L312.957 180.885C304.917 180.827 298.21 180.781 293.443 180.758C291.1 180.724 289.251 180.712 287.919 180.689C287.31 180.678 286.828 180.666 286.449 180.655C286.116 180.643 285.932 180.632 285.921 180.62C285.909 180.609 286.07 180.598 286.392 180.586C286.759 180.575 287.23 180.563 287.816 180.552C289.125 180.54 290.963 180.517 293.283 180.483C298.083 180.448 304.86 180.402 312.957 180.356H313.209V180.62C313.221 184.548 313.232 188.832 313.244 193.369C313.244 195.643 313.244 197.974 313.255 200.352C313.255 201.546 313.255 202.752 313.255 203.97C313.255 204.578 313.255 205.187 313.255 205.807V206.726V207.186V207.415V207.53V207.588V207.622V207.634V207.645C313.519 207.381 312.888 208.012 312.957 207.944C303.068 207.932 293.799 207.921 285.932 207.898H285.668V207.634C285.725 199.525 285.771 192.76 285.794 187.959C285.817 185.651 285.84 183.813 285.863 182.493C285.875 181.907 285.886 181.436 285.898 181.068C285.898 180.77 285.909 180.62 285.921 180.62Z" fill="#263238"/>
<path d="M310.022 185.088C310.412 185.398 306.772 190.636 301.902 196.78C300.926 198.009 299.984 199.181 299.099 200.249L298.525 200.949L297.882 200.364C293.655 196.562 290.796 193.645 291.06 193.346C291.324 193.048 294.62 195.459 298.996 199.077L297.767 199.192C298.606 198.09 299.524 196.895 300.501 195.666C305.37 189.522 309.643 184.79 310.022 185.088Z" fill="#41B79B"/>
</svg>
