<svg width="137" height="89" viewBox="0 0 137 89" fill="none" xmlns="http://www.w3.org/2000/svg">
<g clip-path="url(#clip0_687_2809)">
<path d="M34.5764 54.9711H55.0535C55.3904 54.9711 55.6869 54.7487 55.7813 54.4185L61.7175 33.0789C61.8523 32.6005 61.4884 32.1221 60.9898 32.1221H19.611C19.2808 32.1221 18.9843 32.3377 18.89 32.6611L6.2762 74.8149C6.1347 75.2865 6.47835 75.7717 6.97697 75.7852L28.0606 76.4253C28.4177 76.4388 28.7277 76.1962 28.8153 75.8525L33.8486 55.5438C33.9295 55.2069 34.2327 54.9711 34.5764 54.9711Z" stroke="#303030" stroke-width="3.5" stroke-miterlimit="10"/>
<path d="M40.5724 32.1221L33.9893 54.9711H12.8652" stroke="#303030" stroke-width="3.5" stroke-miterlimit="10"/>
<path d="M98.2847 32.1223L77.073 31.6304C76.5744 31.6169 76.2308 31.1318 76.3857 30.6533L83.1171 10.2435C83.2182 9.94033 83.5012 9.73145 83.8246 9.73145H103.278C103.763 9.73145 104.12 10.1896 103.992 10.6613L86.8635 75.8595C86.7759 76.1829 86.4862 76.412 86.1493 76.412H65.2746C64.7759 76.412 64.4188 75.9336 64.5671 75.4552L70.7594 54.8028C70.8537 54.4861 71.1502 54.2705 71.4804 54.2772L114.166 54.9578C114.517 54.9645 114.827 54.7219 114.901 54.3783L119.611 33.0252C119.712 32.5602 119.362 32.1223 118.883 32.1223H98.2847Z" stroke="#303030" stroke-width="3.5" stroke-miterlimit="10"/>
<path d="M133.159 23.8543H124.043V21.9339L127.317 18.6255C127.978 17.945 128.51 17.379 128.908 16.9275C129.312 16.4693 129.602 16.0583 129.783 15.6809C129.965 15.3036 130.053 14.9061 130.053 14.4748C130.053 13.956 129.911 13.5719 129.622 13.3091C129.332 13.0531 128.948 12.9183 128.47 12.9183C127.964 12.9183 127.472 13.0329 127.001 13.2687C126.522 13.4978 126.03 13.828 125.511 14.2592L124.016 12.4871C124.393 12.1636 124.784 11.8604 125.208 11.5774C125.626 11.2944 126.118 11.0586 126.67 10.8834C127.23 10.7082 127.897 10.6206 128.672 10.6206C129.527 10.6206 130.262 10.7756 130.882 11.0855C131.495 11.3955 131.973 11.8133 132.304 12.3456C132.634 12.8779 132.802 13.4776 132.802 14.1514C132.802 14.8724 132.661 15.526 132.371 16.1257C132.088 16.7186 131.67 17.3116 131.124 17.891C130.579 18.4705 129.925 19.1174 129.157 19.8249L127.479 21.4016V21.5296H133.159V23.8543Z" fill="#303030"/>
</g>
<defs>
<clipPath id="clip0_687_2809">
<rect width="136.4" height="88" fill="white" transform="translate(0 0.5)"/>
</clipPath>
</defs>
</svg>
