<svg width="81" height="78" viewBox="0 0 81 78" fill="none" xmlns="http://www.w3.org/2000/svg">
<path d="M79.6897 45.9557C78.9217 44.6758 75.7692 40.8761 67.4468 45.7142L52.7665 54.249C52.0259 54.6795 51.2729 54.9829 50.4862 55.1627C50.7803 54.6982 51.0102 54.1711 51.1669 53.5871C51.9168 50.7933 50.2533 47.8766 47.3795 46.9468C47.324 46.9288 47.2672 46.9146 47.2096 46.9042C42.9899 46.1446 38.8257 44.6417 35.4794 43.4343C34.3169 43.0148 33.2189 42.6186 32.2854 42.3164C28.5263 41.0992 25.1305 42.6058 22.3045 44.2402L11.3812 50.5571L10.5897 49.161C10.1357 48.3602 9.39413 47.7834 8.50196 47.5365C7.60963 47.2897 6.67639 47.4034 5.87415 47.8565L1.75517 50.1833C0.094852 51.1213 -0.491487 53.2327 0.448084 54.8902L12.5578 76.2478C13.0118 77.0485 13.7534 77.6255 14.6455 77.8723C14.9541 77.9577 15.2676 78 15.5788 78C16.1675 78 16.7484 77.8488 17.2732 77.5523L21.3923 75.2255C23.0526 74.2875 23.639 72.176 22.6994 70.5186L21.2068 67.8862L23.7013 66.4487L42.5054 71.478C43.567 71.762 44.6089 71.9038 45.6285 71.9038C47.6612 71.9038 49.6046 71.3401 51.4334 70.2162L78.0746 53.842C80.5015 52.3505 81.2713 48.5916 79.6897 45.9557ZM20.113 72.9692L15.9938 75.2962C15.7955 75.4081 15.5629 75.436 15.3393 75.3741C15.1156 75.3122 14.9304 75.169 14.8182 74.9708L2.7087 53.6132C2.47835 53.2068 2.62754 52.6693 3.03466 52.4394L7.15364 50.1125C7.28286 50.0395 7.42652 50.0023 7.57278 50.0023C7.65102 50.0023 7.73024 50.013 7.80832 50.0347C8.03201 50.0966 8.21707 50.2398 8.3294 50.4378L20.4391 71.7954C20.6693 72.202 20.52 72.7393 20.113 72.9692ZM76.713 51.6343L50.0718 68.0087C47.9581 69.3076 45.6387 69.6324 43.1777 68.9739L23.8541 63.8057C23.5213 63.7169 23.1669 63.7633 22.8686 63.9352L19.9274 65.6301L12.6605 52.8134L23.6065 46.4834C26.0545 45.0677 28.7029 43.8816 31.4841 44.7824C32.3768 45.0713 33.4053 45.4425 34.5963 45.8724C38.01 47.1043 42.253 48.6354 46.6547 49.4386C48.1912 49.9741 49.0501 51.4556 48.658 52.9163C48.1486 54.8142 46.5481 55.048 45.2754 54.9015C42.982 54.4417 40.8999 53.8522 38.7218 53.2356C37.7465 52.9595 36.7381 52.674 35.6776 52.3905C34.9852 52.2058 34.2728 52.6156 34.0871 53.3071C33.9015 53.9987 34.3125 54.7093 35.0054 54.8947C36.0475 55.1734 37.0468 55.4563 38.013 55.7298C40.2582 56.3655 42.4041 56.9729 44.8037 57.4516C44.8089 57.4526 44.814 57.4537 44.8194 57.4548C45.4187 57.5741 46.034 57.6854 46.6705 57.7872C49.3999 58.2232 51.8214 57.7985 54.0736 56.4894L68.7541 47.9547C72.982 45.4966 76.2374 45.2474 77.4615 47.2877C78.3053 48.6942 77.9277 50.8878 76.713 51.6343ZM8.10847 53.8143C8.226 54.6165 7.66969 55.3619 6.86599 55.479C6.06229 55.5963 5.31557 55.041 5.19821 54.239C5.08068 53.4367 5.63699 52.6914 6.44068 52.5741C7.24422 52.4569 7.99094 53.012 8.10847 53.8143ZM34.3747 32.3285L51.6746 42.2984C51.8756 42.4141 52.0998 42.4721 52.324 42.4721C52.5481 42.4721 52.7723 42.4143 52.9733 42.2984L70.2733 32.3285C70.6751 32.097 70.9227 31.669 70.9227 31.2059V11.2661C70.9227 10.803 70.6751 10.3751 70.2733 10.1436L52.9733 0.173659C52.5713 -0.0578864 52.0766 -0.0578864 51.6746 0.173659L34.3747 10.1436C33.973 10.3751 33.7254 10.803 33.7254 11.2661V31.2058C33.7254 31.6689 33.973 32.0968 34.3747 32.3285ZM36.3227 13.5113L39.8669 15.5539V22.6574C39.8669 23.1205 40.1144 23.5484 40.5162 23.78L45.5332 26.6711C45.7341 26.7868 45.9583 26.8448 46.1825 26.8448C46.4067 26.8448 46.6309 26.787 46.8318 26.6711C47.2336 26.4396 47.4811 26.0116 47.4811 25.5485V19.9419L51.0253 21.9843V38.9304L36.3227 30.4573V13.5113ZM52.324 19.7392L48.7798 17.6967L63.4824 9.2237L67.0266 11.2661L52.324 19.7392ZM42.4641 17.0506L44.8838 18.445V23.3033L42.4641 21.909V17.0506ZM46.1825 16.1999L43.7628 14.8054L58.4654 6.33238L60.8851 7.72684L46.1825 16.1999ZM53.6226 38.9305V21.9843L68.3254 13.5113V30.4575L53.6226 38.9305ZM52.324 2.79309L55.8681 4.83552L41.1655 13.3086L37.6213 11.2661L52.324 2.79309Z" fill="#41B79B"/>
</svg>
