<svg width="471" height="564" viewBox="0 0 471 564" fill="none" xmlns="http://www.w3.org/2000/svg">
<path fill-rule="evenodd" clip-rule="evenodd" d="M167.003 64.9544C132.774 77.7245 105.884 102.616 80.1236 135.82C61.8313 159.398 51.9076 191.608 51.9076 236.78C46.8832 317.509 109.587 374.051 158.41 429.722L231.974 509.753L245.034 496.366C253.051 488.15 266.39 488.525 273.93 497.177L278.483 502.4C285.104 510 284.878 521.367 277.965 528.697L254.513 553.563C241.168 567.713 218.547 567.438 205.55 552.965L125.452 463.766C55.9488 386.113 6.14438 339.372 0.305176 239.793C-2.42537 193.23 13.3969 148.774 38.573 107.081C57.1706 76.2819 104.89 31.4152 150.382 14.4431C196.014 -2.5818 247.877 -5.14917 308.274 9.92028C408.75 37.814 475.185 148.217 470.795 236.884C468.9 275.123 460.333 317.183 432.927 360.295C401.995 400.451 377.159 429.829 341.463 463.343C326.049 477.816 302.161 478.27 287.953 462.617L234.24 403.454C232.074 405.734 230.273 407.641 228.591 409.441C219.35 419.339 203.633 419.486 194.59 409.41L192.478 407.061C184.835 398.544 184.667 385.596 192.434 377.195C194.624 374.831 197.166 372.119 200.997 368.02L165.491 328.064C119.408 279.059 97.1304 215.553 139.699 155.314C162.946 122.417 201.082 107.081 237.22 107.081C273.337 107.081 310.153 123.478 332.451 156.929C344.55 175.082 352.09 193.117 353.603 216.042C356.625 239.104 349.787 264.561 336.982 285.845C316.586 315.248 292.939 337.596 268.166 365.584L301.901 403.457C310.181 412.757 324.17 412.397 333.282 403.908C356.364 382.399 375.047 360.32 390.62 337.111C414.675 301.267 419.563 256.004 421.716 231.216C427.38 166.002 375.511 82.294 290.608 58.9231C238.394 45.8956 201.088 52.2368 167.003 64.9544ZM234.993 328.775C262.929 298.173 269.054 291.876 286.365 273.029C302.986 254.936 305.657 231.564 303.743 217.241C302.23 205.934 296.915 193.922 290.608 184.462C279.751 168.173 259.681 158.664 237.22 158.664C214.785 158.664 193.846 168.197 181.942 185.041C158.262 218.553 160.959 250.411 200.997 291.876L234.993 328.775Z" fill="#33A78C"/>
</svg>
