<svg width="78" height="79" viewBox="0 0 78 79" fill="none" xmlns="http://www.w3.org/2000/svg">
<path d="M77.995 62.9511C77.9957 63.931 77.8478 64.9053 77.5562 65.8408L73.8279 77.8285C73.7251 78.1602 73.5188 78.4502 73.2392 78.6561C72.9596 78.862 72.6214 78.9729 72.2742 78.9727C72.1112 78.9725 71.9491 78.9485 71.7931 78.9011C71.5893 78.8378 71.3999 78.7349 71.2359 78.5983C71.0718 78.4618 70.9362 78.2942 70.8369 78.1053C70.7376 77.9163 70.6765 77.7096 70.6571 77.4971C70.6377 77.2845 70.6603 77.0702 70.7237 76.8663L74.452 64.8754C74.7246 64.0006 74.8081 63.0778 74.6972 62.1683C74.5863 61.2588 74.2834 60.3832 73.8086 59.5995C73.3338 58.8158 72.6979 58.142 71.943 57.6226C71.1882 57.1032 70.3316 56.7501 69.43 56.5867L56.3534 54.2138C55.9786 54.146 55.6396 53.9488 55.3954 53.6565C55.1512 53.3642 55.0175 52.9954 55.0174 52.6146V33.6578C54.993 32.9462 54.693 32.2718 54.1809 31.777C53.6688 31.2822 52.9845 31.0057 52.2724 31.0057C51.5603 31.0057 50.8761 31.2822 50.3639 31.777C49.8518 32.2718 49.5519 32.9462 49.5274 33.6578V67.1767C49.5273 67.4979 49.4321 67.8119 49.2537 68.079C49.0753 68.3461 48.8218 68.5543 48.5251 68.6775C48.2285 68.8006 47.902 68.833 47.5869 68.7707C47.2718 68.7084 46.9822 68.5541 46.7548 68.3274L40.6959 62.2652C40.4246 61.978 40.0984 61.7482 39.7367 61.5892C39.375 61.4303 38.9851 61.3455 38.59 61.3399C38.195 61.3342 37.8028 61.4079 37.4368 61.5565C37.0707 61.7051 36.7381 61.9256 36.4588 62.205C36.1794 62.4843 35.9589 62.8169 35.8103 63.183C35.6617 63.5491 35.588 63.9412 35.5936 64.3363C35.5993 64.7313 35.6841 65.1212 35.843 65.4829C36.0019 65.8446 36.2318 66.1708 36.519 66.4421L46.2704 76.1935C46.5756 76.4983 46.7472 76.9117 46.7475 77.343C46.7478 77.7743 46.5768 78.188 46.2721 78.4932C45.9673 78.7984 45.5538 78.97 45.1225 78.9703C44.6913 78.9706 44.2775 78.7996 43.9724 78.4948L34.2209 68.7434C33.6447 68.1672 33.1876 67.483 32.8757 66.7301C32.5638 65.9772 32.4033 65.1702 32.4033 64.3553C32.4033 63.5403 32.5638 62.7334 32.8757 61.9804C33.1876 61.2275 33.6447 60.5434 34.2209 59.9672C34.7972 59.3909 35.4813 58.9338 36.2342 58.6219C36.9872 58.31 37.7941 58.1495 38.6091 58.1495C39.424 58.1495 40.231 58.31 40.9839 58.6219C41.7368 58.9338 42.421 59.3909 42.9972 59.9672L46.2802 63.2501V33.6708C46.3167 32.1049 46.9643 30.6154 48.0847 29.5208C49.2051 28.4262 50.7093 27.8133 52.2757 27.8133C53.842 27.8133 55.3462 28.4262 56.4666 29.5208C57.587 30.6154 58.2347 32.1049 58.2712 33.6708V51.2721L70.0151 53.4012C72.2523 53.8081 74.276 54.9865 75.7341 56.7314C77.1921 58.4763 77.9922 60.6772 77.995 62.9511ZM45.1263 22.4405C44.8215 22.1358 44.4082 21.9646 43.9772 21.9646C43.5463 21.9646 43.133 22.1358 42.8282 22.4405L27.4795 37.7924L20.3284 30.6414C20.1785 30.4862 19.9992 30.3624 19.8009 30.2772C19.6026 30.192 19.3893 30.1472 19.1735 30.1453C18.9577 30.1434 18.7437 30.1845 18.544 30.2663C18.3443 30.348 18.1628 30.4687 18.0102 30.6213C17.8576 30.7739 17.7369 30.9553 17.6552 31.1551C17.5735 31.3548 17.5324 31.5688 17.5342 31.7846C17.5361 32.0004 17.581 32.2137 17.6661 32.4119C17.7513 32.6102 17.8751 32.7896 18.0303 32.9395L26.345 41.2574C26.6498 41.5621 27.0631 41.7333 27.4941 41.7333C27.925 41.7333 28.3384 41.5621 28.6431 41.2574L45.1425 24.7548C45.2948 24.6025 45.4153 24.4215 45.497 24.2223C45.5787 24.0231 45.62 23.8096 45.6184 23.5942C45.6169 23.3789 45.5726 23.166 45.4881 22.968C45.4037 22.7699 45.2806 22.5906 45.1263 22.4405ZM23.9495 58.5955C19.2991 57.3911 15.0431 54.9951 11.6014 51.6438C8.15969 48.2925 5.65124 44.1018 4.32355 39.4851C2.99586 34.8684 2.8948 29.9854 4.03036 25.3177C5.16592 20.6501 7.49884 16.3591 10.7989 12.8683C14.099 9.37753 18.2523 6.80747 22.8488 5.41175C27.4454 4.01603 32.3264 3.84288 37.0103 4.90938C41.6942 5.97589 46.0191 8.2452 49.5583 11.4934C53.0975 14.7416 55.7286 18.8564 57.192 23.4319C57.3235 23.8426 57.6127 24.1844 57.9962 24.3819C58.3796 24.5794 58.8258 24.6165 59.2366 24.485C59.6473 24.3535 59.9891 24.0643 60.1866 23.6809C60.3841 23.2974 60.4212 22.8512 60.2897 22.4405C58.6534 17.3272 55.7122 12.7289 51.7564 9.09922C47.8006 5.46955 42.9668 2.93395 37.732 1.74257C32.4971 0.551202 27.0421 0.745228 21.9051 2.30551C16.7681 3.8658 12.1267 6.73842 8.43875 10.64C4.7508 14.5415 2.14377 19.3372 0.874878 24.5538C-0.394016 29.7704 -0.280929 35.2277 1.20298 40.3872C2.6869 45.5468 5.49036 50.2303 9.33677 53.9757C13.1832 57.7211 17.9396 60.399 23.1368 61.7452C23.2695 61.7798 23.406 61.7973 23.5431 61.7972C23.9407 61.7999 24.3255 61.6569 24.6247 61.3951C24.9239 61.1333 25.1168 60.771 25.1668 60.3766C25.2169 59.9822 25.1206 59.5831 24.8963 59.2549C24.672 58.9267 24.3351 58.6921 23.9495 58.5955Z" fill="#41B79B"/>
</svg>
