<svg width="78" height="79" viewBox="0 0 78 79" fill="none" xmlns="http://www.w3.org/2000/svg">
<path d="M77.995 62.8356C77.9957 63.8155 77.8478 64.7898 77.5562 65.7253L73.8279 77.713C73.7251 78.0447 73.5188 78.3347 73.2392 78.5406C72.9596 78.7465 72.6214 78.8575 72.2742 78.8572C72.1112 78.8571 71.9491 78.833 71.7931 78.7857C71.5893 78.7223 71.3999 78.6194 71.2359 78.4828C71.0718 78.3463 70.9362 78.1787 70.8369 77.9898C70.7376 77.8008 70.6765 77.5942 70.6571 77.3816C70.6377 77.169 70.6603 76.9547 70.7237 76.7509L74.452 64.7599C74.7246 63.8851 74.8081 62.9624 74.6972 62.0528C74.5863 61.1433 74.2834 60.2677 73.8086 59.484C73.3338 58.7004 72.6979 58.0265 71.943 57.5071C71.1882 56.9877 70.3316 56.6346 69.43 56.4712L56.3534 54.0983C55.9786 54.0305 55.6396 53.8333 55.3954 53.541C55.1512 53.2487 55.0175 52.88 55.0174 52.4991V33.5424C54.993 32.8307 54.693 32.1563 54.1809 31.6615C53.6688 31.1668 52.9845 30.8902 52.2724 30.8902C51.5603 30.8902 50.8761 31.1668 50.3639 31.6615C49.8518 32.1563 49.5519 32.8307 49.5274 33.5424V67.0612C49.5273 67.3824 49.4321 67.6964 49.2537 67.9635C49.0753 68.2306 48.8218 68.4389 48.5251 68.562C48.2285 68.6851 47.902 68.7175 47.5869 68.6552C47.2718 68.5929 46.9822 68.4387 46.7548 68.2119L40.6959 62.1498C40.4246 61.8626 40.0984 61.6327 39.7367 61.4737C39.375 61.3148 38.9851 61.23 38.59 61.2244C38.195 61.2188 37.8028 61.2924 37.4368 61.441C37.0707 61.5896 36.7381 61.8101 36.4588 62.0895C36.1794 62.3689 35.9589 62.7014 35.8103 63.0675C35.6617 63.4336 35.588 63.8257 35.5936 64.2208C35.5993 64.6158 35.6841 65.0057 35.843 65.3674C36.0019 65.7291 36.2318 66.0553 36.519 66.3266L46.2704 76.078C46.5756 76.3828 46.7472 76.7963 46.7475 77.2275C46.7478 77.6588 46.5768 78.0726 46.2721 78.3777C45.9673 78.6829 45.5538 78.8545 45.1225 78.8548C44.6913 78.8551 44.2775 78.6841 43.9724 78.3794L34.2209 68.6279C33.6447 68.0517 33.1876 67.3676 32.8757 66.6146C32.5638 65.8617 32.4033 65.0548 32.4033 64.2398C32.4033 63.4249 32.5638 62.6179 32.8757 61.865C33.1876 61.112 33.6447 60.4279 34.2209 59.8517C34.7972 59.2754 35.4813 58.8183 36.2342 58.5064C36.9872 58.1946 37.7941 58.034 38.6091 58.034C39.424 58.034 40.231 58.1946 40.9839 58.5064C41.7368 58.8183 42.421 59.2754 42.9972 59.8517L46.2802 63.1347V33.5554C46.3167 31.9894 46.9643 30.4999 48.0847 29.4053C49.2051 28.3107 50.7093 27.6979 52.2757 27.6979C53.842 27.6979 55.3462 28.3107 56.4666 29.4053C57.587 30.4999 58.2347 31.9894 58.2712 33.5554V51.1567L70.0151 53.2857C72.2523 53.6926 74.276 54.871 75.7341 56.6159C77.1921 58.3608 77.9922 60.5617 77.995 62.8356ZM45.1263 22.325C44.8215 22.0203 44.4082 21.8491 43.9772 21.8491C43.5463 21.8491 43.133 22.0203 42.8282 22.325L27.4795 37.677L20.3284 30.5259C20.1785 30.3707 19.9992 30.2469 19.8009 30.1617C19.6026 30.0765 19.3893 30.0317 19.1735 30.0298C18.9577 30.0279 18.7437 30.0691 18.544 30.1508C18.3443 30.2325 18.1628 30.3532 18.0102 30.5058C17.8576 30.6584 17.7369 30.8398 17.6552 31.0396C17.5735 31.2393 17.5324 31.4533 17.5342 31.6691C17.5361 31.8849 17.581 32.0982 17.6661 32.2965C17.7513 32.4948 17.8751 32.6741 18.0303 32.824L26.345 41.142C26.6498 41.4467 27.0631 41.6178 27.4941 41.6178C27.925 41.6178 28.3384 41.4467 28.6431 41.142L45.1425 24.6393C45.2948 24.4871 45.4153 24.306 45.497 24.1068C45.5787 23.9076 45.62 23.6941 45.6184 23.4788C45.6169 23.2634 45.5726 23.0505 45.4881 22.8525C45.4037 22.6544 45.2806 22.4751 45.1263 22.325ZM23.9495 58.48C19.2991 57.2756 15.0431 54.8796 11.6014 51.5283C8.15969 48.177 5.65124 43.9863 4.32355 39.3696C2.99586 34.7529 2.8948 29.8699 4.03036 25.2022C5.16592 20.5346 7.49884 16.2437 10.7989 12.7529C14.099 9.26205 18.2523 6.69199 22.8488 5.29627C27.4454 3.90055 32.3264 3.7274 37.0103 4.79391C41.6942 5.86041 46.0191 8.12972 49.5583 11.3779C53.0975 14.6261 55.7286 18.7409 57.192 23.3164C57.3235 23.7272 57.6127 24.0689 57.9962 24.2664C58.3796 24.4639 58.8258 24.501 59.2366 24.3695C59.6473 24.2381 59.9891 23.9488 60.1866 23.5654C60.3841 23.182 60.4212 22.7358 60.2897 22.325C58.6534 17.2117 55.7122 12.6134 51.7564 8.98374C47.8006 5.35407 42.9668 2.81847 37.732 1.6271C32.4971 0.435723 27.0421 0.62975 21.9051 2.19003C16.7681 3.75032 12.1267 6.62294 8.43875 10.5245C4.7508 14.426 2.14377 19.2217 0.874878 24.4383C-0.394016 29.6549 -0.280929 35.1122 1.20298 40.2717C2.6869 45.4313 5.49036 50.1148 9.33677 53.8602C13.1832 57.6057 17.9396 60.2836 23.1368 61.6297C23.2695 61.6643 23.406 61.6818 23.5431 61.6817C23.9407 61.6845 24.3255 61.5414 24.6247 61.2797C24.9239 61.0179 25.1168 60.6555 25.1668 60.2611C25.2169 59.8667 25.1206 59.4676 24.8963 59.1394C24.672 58.8112 24.3351 58.5766 23.9495 58.48Z" fill="#41B79B"/>
</svg>
