<svg width="66" height="79" viewBox="0 0 66 79" fill="none" xmlns="http://www.w3.org/2000/svg">
<path d="M54.5742 7.67685V10.5971C54.5742 11.1542 54.1184 11.61 53.5614 11.61C53.0043 11.61 52.5486 11.1542 52.5486 10.5971V7.67685H47.9571V18.9023H59.1826V7.67685H54.5742ZM46.9274 5.6512H50.4892V1.87C50.4892 1.31295 50.9449 0.857178 51.502 0.857178H64.7531C65.3101 0.857178 65.7659 1.31295 65.7659 1.87V15.1211C65.7659 15.6781 65.3101 16.1339 64.7531 16.1339H61.1913V19.9151C61.1913 20.4722 60.7356 20.9279 60.1785 20.9279H46.9274C46.3704 20.9279 45.9146 20.4722 45.9146 19.9151V6.66402C45.9146 6.10697 46.3704 5.6512 46.9274 5.6512ZM52.5148 5.6512H60.1785C60.7356 5.6512 61.1913 6.10697 61.1913 6.66402V14.1083H63.7403V2.88282H52.5148V5.6512ZM41.8971 16.0664C41.8971 15.5093 42.3528 15.0536 42.9099 15.0536C43.4669 15.0536 43.9227 15.5093 43.9227 16.0664C43.9227 19.4087 43.3319 22.0758 40.3947 24.304C39.23 25.1987 37.8289 25.8908 36.3772 26.4816C41.0193 28.0683 45.0199 30.0433 45.003 34.9555C45.8639 34.8036 46.5223 35.732 46.0496 36.4916L44.733 38.5848C44.3447 39.2094 43.3994 39.2431 42.9943 38.5342L41.7283 36.4916C41.2219 35.6645 42.0659 34.6685 42.9605 35.023C42.893 30.6848 38.234 29.1824 33.4906 27.6632C33.3218 27.6126 33.3725 27.6126 33.2543 27.6463C28.9498 29.1655 24.7466 30.651 24.6622 34.9724C25.5231 34.753 26.2321 35.6645 25.7932 36.441L24.6285 38.5004C24.2402 39.2262 23.2443 39.2094 22.856 38.5342L21.6575 36.4579C21.2524 35.7489 21.8094 34.888 22.6197 34.9386C22.6028 30.1277 26.1308 28.1358 30.2665 26.566C26.9073 25.3337 23.7 23.6625 22.4002 20.4215C21.8432 19.0204 21.725 17.5519 21.7926 16.0157C21.8094 15.4587 22.2821 15.0198 22.8391 15.0367C23.3962 15.0536 23.8351 15.5262 23.8182 16.0833C23.7169 18.9192 24.2908 20.8942 26.8229 22.6497C28.5616 23.8651 30.9248 24.6754 33.3218 25.4688C35.4994 24.6923 37.6263 23.882 39.1962 22.6835C41.5426 20.8942 41.8971 18.8179 41.8971 16.0664ZM15.1248 17.0792C15.6819 17.0792 16.1376 17.535 16.1376 18.092C16.1376 18.6491 15.6819 19.1049 15.1248 19.1049H11.6306C11.0735 19.1049 10.6177 18.6491 10.6177 18.092C10.6177 17.535 11.0735 17.0792 11.6306 17.0792H15.1248ZM15.1248 13.9395C15.6819 13.9395 16.1376 14.3952 16.1376 14.9523C16.1376 15.5093 15.6819 15.9651 15.1248 15.9651H11.6306C11.0735 15.9651 10.6177 15.5093 10.6177 14.9523C10.6177 14.3952 11.0735 13.9395 11.6306 13.9395H15.1248ZM7.88313 4.58774V8.5715L9.25044 7.38988C9.63869 7.05227 10.2126 7.06915 10.584 7.40676L11.9344 8.5715V4.58774H7.88313ZM13.9432 4.58774V10.7997C13.9432 11.6606 12.9304 12.1333 12.272 11.5593L9.90877 9.49992L7.59616 11.5087C6.87031 12.1839 5.85749 11.6437 5.85749 10.7997V4.58774H2.02564V20.3371H17.775V4.58774H13.9432ZM1.01282 2.56209H18.7878C19.3449 2.56209 19.8007 3.01786 19.8007 3.57492V21.3499C19.8007 21.907 19.3449 22.3628 18.7878 22.3628H1.01282C0.455769 22.3628 0 21.907 0 21.3499V3.57492C0 3.01786 0.455769 2.56209 1.01282 2.56209ZM18.619 42.0284H52.4642C53.1563 42.0284 53.6796 42.7205 53.3926 43.4463L46.3535 62.5887V66.1336C46.3535 66.6906 45.8977 67.1464 45.3407 67.1464H20.2733C19.4293 67.1464 19.1423 67.7709 19.3618 68.2436C19.4799 68.4968 19.7669 68.6825 20.2733 68.6825H46.421C46.8599 68.6825 47.265 68.7838 47.6195 68.9526C47.9402 69.1045 48.2272 69.3239 48.4635 69.594C48.7167 69.7628 48.9362 69.9654 49.1556 70.168C51.1475 72.143 51.1475 75.3671 49.1556 77.359C46.6067 79.9079 42.2516 79.0639 40.8674 75.7047C40.6648 75.2321 40.5466 74.7257 40.496 74.2192H30.3678C30.0639 77.6291 26.5359 79.7729 23.3624 78.4731C21.6069 77.7472 20.4084 76.1098 20.2396 74.2192C19.5643 74.2024 19.328 74.2192 18.6528 74.0504C14.5846 73.1051 12.5928 68.5812 14.5171 64.935C15.4962 63.0951 16.9816 62.5549 17.3193 61.8459C17.3699 61.7278 17.3361 61.5421 17.2686 61.2551L12.846 41.2857C12.7278 40.7455 12.2889 40.4079 11.7319 40.4079H7.14039C4.67586 40.4079 3.44359 37.42 5.18227 35.6814C5.6718 35.175 6.38078 34.8711 7.14039 34.8711H11.7319C14.6015 34.8711 17.1505 36.7111 18.0451 39.4288L18.619 42.0284ZM22.1133 63.4158C21.59 63.4158 21.168 63.0276 21.1005 62.538L16.087 40.0365C15.8675 39.26 15.243 38.3991 14.6015 37.8927C13.7744 37.2344 12.7616 36.8799 11.6812 36.8799H7.08975C6.11069 36.8799 6.11069 38.3653 7.08975 38.3653H11.6812C13.1836 38.3653 14.4496 39.3782 14.7703 40.8468L19.2099 60.8162C19.3618 61.5083 19.4462 62.0147 19.1255 62.69C18.8722 63.247 18.3658 63.7872 17.3868 64.5637C14.6353 66.7412 15.5806 71.2652 19.0917 72.0923C19.6656 72.2274 19.9357 72.2105 20.459 72.2105C20.6278 71.6703 20.8979 71.1639 21.2355 70.725H20.2733C16.2389 70.725 16.3233 65.1376 20.2733 65.1376H44.3278V63.4496H22.1133V63.4158ZM51.0125 44.054H19.0579L22.9235 61.3902H44.6317L51.0125 44.054ZM40.7323 72.1767C40.9011 71.6365 41.1712 71.1301 41.5088 70.6912H29.3718C29.7094 71.147 29.9626 71.6365 30.1483 72.1767H40.7323ZM46.7417 70.9276C44.7498 70.1004 42.5048 71.569 42.5048 73.7635C42.5048 76.4812 45.7964 77.8485 47.7377 75.9242C49.2907 74.3543 48.7167 71.7547 46.7417 70.9276ZM26.4684 70.9276C24.4765 70.1004 22.2314 71.569 22.2314 73.7635C22.2314 76.4812 25.54 77.8485 27.4644 75.9242C29.0173 74.3712 28.4772 71.7547 26.4684 70.9276Z" fill="#41B79B"/>
</svg>
