<svg width="106" height="102" viewBox="0 0 106 102" fill="none" xmlns="http://www.w3.org/2000/svg">
<mask id="path-1-outside-1_674_2323" maskUnits="userSpaceOnUse" x="0" y="0" width="106" height="102" fill="black">
<rect fill="white" width="106" height="102"/>
<path d="M5 20.5335C5 19.8064 5 19.0776 5 18.3505C5.15952 17.3037 5.61657 16.4266 6.48406 15.7817C6.52708 15.7477 6.57189 15.7174 6.61849 15.6888C7.59532 15.001 8.70658 14.8563 9.86264 14.8795C10.2928 14.8885 10.723 14.8795 11.1531 14.8777C11.7267 14.9028 12.2769 15.0385 12.8236 15.2011C13.3398 15.3297 13.8399 15.5244 14.365 15.6209C15.41 15.8871 16.3904 16.314 17.3547 16.7856C18.5233 17.2715 19.5897 17.9522 20.7046 18.5417C21.7764 19.0865 22.7747 19.7564 23.8125 20.362C24.5778 20.923 25.4364 21.332 26.2357 21.8394C26.9455 22.2896 27.6589 22.7451 28.4009 23.1506C29.4853 23.7544 30.5266 24.4225 31.5554 25.1157C32.0035 25.4033 32.4749 25.6623 32.88 26.0089C33.2618 26.334 33.6399 26.4269 34.0952 26.1536C34.2691 26.0482 34.459 25.9624 34.6401 25.8624C35.2011 25.6426 35.7603 25.4158 36.298 25.1425C36.8662 24.9817 37.3644 24.6476 37.9237 24.4636C38.5994 24.2403 39.2446 23.9402 39.8863 23.6383C40.2788 23.4543 40.6857 23.3096 41.08 23.1292C42.1052 22.6397 43.1394 22.1734 44.2005 21.7679C45.2526 21.3499 46.2868 20.889 47.3299 20.4496C47.8013 20.187 48.2852 19.9547 48.8086 19.8082C49.8356 19.3348 50.8967 18.9418 51.9165 18.4541C52.9937 17.9468 54.1014 17.5109 55.184 17.0179C56.3795 16.5998 57.5284 16.0693 58.6826 15.5548C60.1058 14.9206 61.5594 14.3561 62.9646 13.6808C63.9719 13.245 64.963 12.768 65.999 12.3982C67.1139 11.9337 68.209 11.4264 69.3274 10.9709C69.7414 10.7583 70.1662 10.5743 70.6054 10.4189C71.7112 9.94189 72.8171 9.46135 73.9266 8.98973C74.9195 8.48239 75.9501 8.06437 76.9861 7.65529C78.0382 7.24798 79.0634 6.77459 80.094 6.31905C80.5977 6.06717 81.1193 5.8528 81.6444 5.64736C82.2001 5.46157 82.7109 5.16146 83.2862 5.02748C83.5533 4.96495 83.7809 5.01319 84.03 5.13109C84.842 5.51338 85.6037 5.98857 86.4121 6.37622C87.9678 7.18546 89.52 8.00185 91.031 8.89327C91.4844 9.18267 91.9988 9.35952 92.4415 9.66678C92.852 9.95261 92.861 10.0133 92.4595 10.3295C92.0257 10.6725 91.5257 10.9262 91.126 11.3156C89.0468 12.8662 86.9856 14.4436 84.8581 15.9299C83.2629 17.1054 81.6516 18.2594 80.0761 19.4617C78.1977 20.8729 76.2907 22.2431 74.4159 23.6597C74.2635 23.7741 74.1058 23.8812 73.9409 23.9741C71.7596 25.5319 69.6178 27.1397 67.4616 28.7296C67.1515 29.035 66.7876 29.2726 66.4328 29.5192C64.687 30.7357 63.0452 32.0916 61.2941 33.301C59.1755 34.7658 57.1269 36.3272 55.0728 37.8796C54.6266 38.2351 54.1444 38.5441 53.6712 38.9514C55.2449 39.9464 56.7845 40.9325 58.3546 41.8722C59.301 42.5492 60.3262 43.103 61.312 43.7175C62.8982 44.6626 64.4612 45.6415 66.0187 46.6312C66.7088 47.1171 67.4401 47.5369 68.1606 47.9781C69.0281 48.5087 69.8794 49.0643 70.7702 49.5573C71.8672 50.1915 72.8996 50.9346 74.009 51.5492C74.7313 52.1172 75.5433 52.5495 76.3194 53.0301C77.0829 53.5017 77.8285 54.0037 78.6154 54.4378C79.2552 54.8165 79.9274 55.1416 80.5152 55.6025C80.7393 55.7776 80.9472 55.7597 81.1856 55.6329C81.8882 55.2578 82.6141 54.9326 83.3472 54.6218C85.9461 53.3784 88.579 52.2083 91.1439 50.8989C92.3555 50.3469 93.5546 49.7681 94.7519 49.1857C95.0351 49.0482 95.3129 49.0393 95.5961 49.2C96.693 49.8271 97.8347 50.3737 98.9316 51.0025C99.5966 51.4563 100.392 51.6921 101 52.2405C101 52.4138 101 52.5871 101 52.7603C100.417 53.6339 99.6683 54.352 98.885 55.0398C98.3993 55.4328 97.9656 55.8812 97.5587 56.3528C97.487 56.4529 97.401 56.5368 97.3024 56.6083C96.8077 56.9584 96.503 57.4854 96.089 57.9106C95.9796 58.0338 95.8613 58.1482 95.7377 58.2589C95.3057 58.6358 94.9024 59.0414 94.5242 59.4701C94.4149 59.5934 94.2966 59.7077 94.1747 59.8167C93.732 60.2079 93.3072 60.6188 92.9291 61.0743C91.8626 62.2783 90.6868 63.3752 89.5433 64.5006C89.0146 65.0205 88.6651 65.5868 88.5808 66.3299C88.536 66.7211 88.3819 67.0963 88.2743 67.4786C87.8872 68.4504 87.8083 69.5044 87.466 70.4869C87.362 70.9585 87.3011 71.439 87.1236 71.8928C86.9569 72.4823 86.7508 73.0611 86.6415 73.6667C86.326 74.9065 86.0464 76.157 85.6754 77.3807C85.4334 78.1756 85.3582 79.0134 85.0373 79.7869C84.876 80.3997 84.6538 80.9928 84.5462 81.6216C84.4512 82.1789 84.2093 82.2826 83.7182 82.0182C83.5676 81.936 83.4206 81.8449 83.2683 81.7681C81.7394 80.8731 80.207 79.9817 78.705 79.0402C78.4756 78.8884 78.1995 78.783 78.1368 78.4686C78.1081 77.9398 77.9701 77.4182 77.9988 76.884C78.0364 76.2856 77.902 75.7032 77.8339 75.1155C77.6744 73.2898 77.3535 71.4784 77.2603 69.6491C77.1833 68.1449 76.9198 66.6622 76.8553 65.1616C76.7872 64.8347 76.9538 64.4917 76.7854 64.1701C76.7119 64.0487 76.6563 63.9129 76.676 63.7771C76.771 63.1394 76.4054 62.85 75.8766 62.6285C75.174 62.3355 74.5252 61.9282 73.8495 61.5781C72.8315 60.9796 71.7381 60.5259 70.7057 59.956C69.6895 59.4755 68.6893 58.9646 67.6892 58.4519C66.6299 57.7623 65.4488 57.3085 64.3393 56.7172C63.3625 56.2296 62.3928 55.7294 61.4142 55.2452C60.371 54.6343 59.3028 54.0734 58.1897 53.5964C57.1591 53.1051 56.1751 52.5228 55.1499 52.0208C54.0924 51.4384 53.0278 50.8721 51.9273 50.3737C50.8483 49.92 49.8697 49.2697 48.805 48.7892C48.5828 48.707 48.391 48.389 48.1759 48.5123C47.9465 48.6427 48.0433 48.9821 48.0289 49.2358C48.0218 49.3733 48.0397 49.5127 48.0379 49.652C48.0522 50.5452 47.8479 51.4188 47.7995 52.3066C47.7135 52.6246 47.7475 52.9551 47.6902 53.2766C47.6203 53.8036 47.554 54.3324 47.5145 54.863C47.4607 55.59 47.2618 56.3046 47.3209 57.0424C47.2887 58.1267 47.1453 59.2004 47.0091 60.2722C46.8101 61.846 46.8191 63.4342 46.5968 65.0062C46.5395 65.4135 46.4463 65.819 46.4606 66.237C46.3746 66.5961 46.3871 66.9659 46.3352 67.3303C46.147 68.4147 46.2276 69.5204 46.0609 70.6048C46.052 70.9621 45.9444 71.3104 45.9498 71.6695C45.9498 71.791 45.9355 71.9107 45.9122 72.0303C45.7903 73.263 45.5662 74.4849 45.525 75.7264C45.5071 77.3378 45.2203 78.9241 45.0733 80.5229C45.0196 81.1071 44.9515 81.6913 44.8762 82.2754C44.783 82.9346 44.7113 83.5974 44.7095 84.2637C44.7328 84.8478 44.6235 85.4213 44.5661 86.0001C44.4801 86.5289 44.4639 87.0666 44.3887 87.5971C44.3403 88.0473 44.2865 88.4975 44.2453 88.9477C44.1736 89.8373 44.0033 90.7162 43.9872 91.6148C43.9603 93.1511 43.6771 94.666 43.5409 96.1933C43.5248 96.3755 43.4387 96.5202 43.3025 96.6364C43.1985 96.6364 43.0946 96.6364 42.9888 96.6364C42.3095 96.4023 41.7593 95.9164 41.0907 95.661C39.4776 94.6767 37.834 93.7442 36.2191 92.7616C35.8087 92.4401 35.3391 92.2114 34.8838 91.972C34.4089 91.7219 34.1454 91.3861 34.1185 90.8502C34.1077 90.6465 34.0809 90.4393 34.0145 90.241C33.9751 89.8712 33.8945 89.5068 33.8586 89.137C33.6023 87.8812 33.6041 86.5932 33.3693 85.3337C33.1883 84.3655 33.0485 83.3901 32.889 82.4183C32.8388 82.1093 32.8119 81.8002 32.8173 81.4894C32.8155 80.9285 32.6595 80.3872 32.6129 79.8334C32.5233 79.3207 32.4283 78.8062 32.4014 78.2846C32.3495 76.9358 32.0197 75.6264 31.8512 74.2937C31.7329 73.3541 31.7203 72.4037 31.5142 71.4748C31.473 71.1354 31.3888 70.8031 31.3655 70.4601C31.0984 68.897 30.8331 67.3321 30.7292 65.7475C30.5356 64.4542 30.2542 63.1769 30.1986 61.8621C30.1664 61.0725 29.9692 60.2972 29.8366 59.5183C29.7756 58.8341 29.79 58.1428 29.6376 57.4675C29.5857 57.121 29.4853 56.7798 29.4853 56.4261C29.4243 55.9705 29.3186 55.5203 29.272 55.0612C28.9332 53.1927 28.8311 51.2919 28.4887 49.4233C28.4511 49.2179 28.4368 49.0125 28.4386 48.8052C28.4887 48.1568 28.227 47.5422 28.2181 46.9009C28.098 46.3972 28.0604 45.8791 27.9618 45.37C27.8076 44.7644 27.8668 44.1338 27.7503 43.5246C27.5621 42.2813 27.4133 41.0326 27.2126 39.791C27.1212 39.2301 26.9957 38.6727 26.9706 38.1011C26.9581 37.7956 26.7555 37.6616 26.5207 37.5241C25.103 36.697 23.6924 35.8591 22.3033 34.9838C20.7386 33.9977 19.138 33.0705 17.5626 32.1023C16.4872 31.5146 15.4601 30.8518 14.426 30.198C12.8881 29.2423 11.3736 28.249 9.77303 27.3951C8.21727 26.4715 6.99309 25.2175 6.0557 23.6776C5.53771 22.6861 5.1183 21.659 5 20.5335Z"/>
</mask>
<path d="M5 20.5335C5 19.8064 5 19.0776 5 18.3505C5.15952 17.3037 5.61657 16.4266 6.48406 15.7817C6.52708 15.7477 6.57189 15.7174 6.61849 15.6888C7.59532 15.001 8.70658 14.8563 9.86264 14.8795C10.2928 14.8885 10.723 14.8795 11.1531 14.8777C11.7267 14.9028 12.2769 15.0385 12.8236 15.2011C13.3398 15.3297 13.8399 15.5244 14.365 15.6209C15.41 15.8871 16.3904 16.314 17.3547 16.7856C18.5233 17.2715 19.5897 17.9522 20.7046 18.5417C21.7764 19.0865 22.7747 19.7564 23.8125 20.362C24.5778 20.923 25.4364 21.332 26.2357 21.8394C26.9455 22.2896 27.6589 22.7451 28.4009 23.1506C29.4853 23.7544 30.5266 24.4225 31.5554 25.1157C32.0035 25.4033 32.4749 25.6623 32.88 26.0089C33.2618 26.334 33.6399 26.4269 34.0952 26.1536C34.2691 26.0482 34.459 25.9624 34.6401 25.8624C35.2011 25.6426 35.7603 25.4158 36.298 25.1425C36.8662 24.9817 37.3644 24.6476 37.9237 24.4636C38.5994 24.2403 39.2446 23.9402 39.8863 23.6383C40.2788 23.4543 40.6857 23.3096 41.08 23.1292C42.1052 22.6397 43.1394 22.1734 44.2005 21.7679C45.2526 21.3499 46.2868 20.889 47.3299 20.4496C47.8013 20.187 48.2852 19.9547 48.8086 19.8082C49.8356 19.3348 50.8967 18.9418 51.9165 18.4541C52.9937 17.9468 54.1014 17.5109 55.184 17.0179C56.3795 16.5998 57.5284 16.0693 58.6826 15.5548C60.1058 14.9206 61.5594 14.3561 62.9646 13.6808C63.9719 13.245 64.963 12.768 65.999 12.3982C67.1139 11.9337 68.209 11.4264 69.3274 10.9709C69.7414 10.7583 70.1662 10.5743 70.6054 10.4189C71.7112 9.94189 72.8171 9.46135 73.9266 8.98973C74.9195 8.48239 75.9501 8.06437 76.9861 7.65529C78.0382 7.24798 79.0634 6.77459 80.094 6.31905C80.5977 6.06717 81.1193 5.8528 81.6444 5.64736C82.2001 5.46157 82.7109 5.16146 83.2862 5.02748C83.5533 4.96495 83.7809 5.01319 84.03 5.13109C84.842 5.51338 85.6037 5.98857 86.4121 6.37622C87.9678 7.18546 89.52 8.00185 91.031 8.89327C91.4844 9.18267 91.9988 9.35952 92.4415 9.66678C92.852 9.95261 92.861 10.0133 92.4595 10.3295C92.0257 10.6725 91.5257 10.9262 91.126 11.3156C89.0468 12.8662 86.9856 14.4436 84.8581 15.9299C83.2629 17.1054 81.6516 18.2594 80.0761 19.4617C78.1977 20.8729 76.2907 22.2431 74.4159 23.6597C74.2635 23.7741 74.1058 23.8812 73.9409 23.9741C71.7596 25.5319 69.6178 27.1397 67.4616 28.7296C67.1515 29.035 66.7876 29.2726 66.4328 29.5192C64.687 30.7357 63.0452 32.0916 61.2941 33.301C59.1755 34.7658 57.1269 36.3272 55.0728 37.8796C54.6266 38.2351 54.1444 38.5441 53.6712 38.9514C55.2449 39.9464 56.7845 40.9325 58.3546 41.8722C59.301 42.5492 60.3262 43.103 61.312 43.7175C62.8982 44.6626 64.4612 45.6415 66.0187 46.6312C66.7088 47.1171 67.4401 47.5369 68.1606 47.9781C69.0281 48.5087 69.8794 49.0643 70.7702 49.5573C71.8672 50.1915 72.8996 50.9346 74.009 51.5492C74.7313 52.1172 75.5433 52.5495 76.3194 53.0301C77.0829 53.5017 77.8285 54.0037 78.6154 54.4378C79.2552 54.8165 79.9274 55.1416 80.5152 55.6025C80.7393 55.7776 80.9472 55.7597 81.1856 55.6329C81.8882 55.2578 82.6141 54.9326 83.3472 54.6218C85.9461 53.3784 88.579 52.2083 91.1439 50.8989C92.3555 50.3469 93.5546 49.7681 94.7519 49.1857C95.0351 49.0482 95.3129 49.0393 95.5961 49.2C96.693 49.8271 97.8347 50.3737 98.9316 51.0025C99.5966 51.4563 100.392 51.6921 101 52.2405C101 52.4138 101 52.5871 101 52.7603C100.417 53.6339 99.6683 54.352 98.885 55.0398C98.3993 55.4328 97.9656 55.8812 97.5587 56.3528C97.487 56.4529 97.401 56.5368 97.3024 56.6083C96.8077 56.9584 96.503 57.4854 96.089 57.9106C95.9796 58.0338 95.8613 58.1482 95.7377 58.2589C95.3057 58.6358 94.9024 59.0414 94.5242 59.4701C94.4149 59.5934 94.2966 59.7077 94.1747 59.8167C93.732 60.2079 93.3072 60.6188 92.9291 61.0743C91.8626 62.2783 90.6868 63.3752 89.5433 64.5006C89.0146 65.0205 88.6651 65.5868 88.5808 66.3299C88.536 66.7211 88.3819 67.0963 88.2743 67.4786C87.8872 68.4504 87.8083 69.5044 87.466 70.4869C87.362 70.9585 87.3011 71.439 87.1236 71.8928C86.9569 72.4823 86.7508 73.0611 86.6415 73.6667C86.326 74.9065 86.0464 76.157 85.6754 77.3807C85.4334 78.1756 85.3582 79.0134 85.0373 79.7869C84.876 80.3997 84.6538 80.9928 84.5462 81.6216C84.4512 82.1789 84.2093 82.2826 83.7182 82.0182C83.5676 81.936 83.4206 81.8449 83.2683 81.7681C81.7394 80.8731 80.207 79.9817 78.705 79.0402C78.4756 78.8884 78.1995 78.783 78.1368 78.4686C78.1081 77.9398 77.9701 77.4182 77.9988 76.884C78.0364 76.2856 77.902 75.7032 77.8339 75.1155C77.6744 73.2898 77.3535 71.4784 77.2603 69.6491C77.1833 68.1449 76.9198 66.6622 76.8553 65.1616C76.7872 64.8347 76.9538 64.4917 76.7854 64.1701C76.7119 64.0487 76.6563 63.9129 76.676 63.7771C76.771 63.1394 76.4054 62.85 75.8766 62.6285C75.174 62.3355 74.5252 61.9282 73.8495 61.5781C72.8315 60.9796 71.7381 60.5259 70.7057 59.956C69.6895 59.4755 68.6893 58.9646 67.6892 58.4519C66.6299 57.7623 65.4488 57.3085 64.3393 56.7172C63.3625 56.2296 62.3928 55.7294 61.4142 55.2452C60.371 54.6343 59.3028 54.0734 58.1897 53.5964C57.1591 53.1051 56.1751 52.5228 55.1499 52.0208C54.0924 51.4384 53.0278 50.8721 51.9273 50.3737C50.8483 49.92 49.8697 49.2697 48.805 48.7892C48.5828 48.707 48.391 48.389 48.1759 48.5123C47.9465 48.6427 48.0433 48.9821 48.0289 49.2358C48.0218 49.3733 48.0397 49.5127 48.0379 49.652C48.0522 50.5452 47.8479 51.4188 47.7995 52.3066C47.7135 52.6246 47.7475 52.9551 47.6902 53.2766C47.6203 53.8036 47.554 54.3324 47.5145 54.863C47.4607 55.59 47.2618 56.3046 47.3209 57.0424C47.2887 58.1267 47.1453 59.2004 47.0091 60.2722C46.8101 61.846 46.8191 63.4342 46.5968 65.0062C46.5395 65.4135 46.4463 65.819 46.4606 66.237C46.3746 66.5961 46.3871 66.9659 46.3352 67.3303C46.147 68.4147 46.2276 69.5204 46.0609 70.6048C46.052 70.9621 45.9444 71.3104 45.9498 71.6695C45.9498 71.791 45.9355 71.9107 45.9122 72.0303C45.7903 73.263 45.5662 74.4849 45.525 75.7264C45.5071 77.3378 45.2203 78.9241 45.0733 80.5229C45.0196 81.1071 44.9515 81.6913 44.8762 82.2754C44.783 82.9346 44.7113 83.5974 44.7095 84.2637C44.7328 84.8478 44.6235 85.4213 44.5661 86.0001C44.4801 86.5289 44.4639 87.0666 44.3887 87.5971C44.3403 88.0473 44.2865 88.4975 44.2453 88.9477C44.1736 89.8373 44.0033 90.7162 43.9872 91.6148C43.9603 93.1511 43.6771 94.666 43.5409 96.1933C43.5248 96.3755 43.4387 96.5202 43.3025 96.6364C43.1985 96.6364 43.0946 96.6364 42.9888 96.6364C42.3095 96.4023 41.7593 95.9164 41.0907 95.661C39.4776 94.6767 37.834 93.7442 36.2191 92.7616C35.8087 92.4401 35.3391 92.2114 34.8838 91.972C34.4089 91.7219 34.1454 91.3861 34.1185 90.8502C34.1077 90.6465 34.0809 90.4393 34.0145 90.241C33.9751 89.8712 33.8945 89.5068 33.8586 89.137C33.6023 87.8812 33.6041 86.5932 33.3693 85.3337C33.1883 84.3655 33.0485 83.3901 32.889 82.4183C32.8388 82.1093 32.8119 81.8002 32.8173 81.4894C32.8155 80.9285 32.6595 80.3872 32.6129 79.8334C32.5233 79.3207 32.4283 78.8062 32.4014 78.2846C32.3495 76.9358 32.0197 75.6264 31.8512 74.2937C31.7329 73.3541 31.7203 72.4037 31.5142 71.4748C31.473 71.1354 31.3888 70.8031 31.3655 70.4601C31.0984 68.897 30.8331 67.3321 30.7292 65.7475C30.5356 64.4542 30.2542 63.1769 30.1986 61.8621C30.1664 61.0725 29.9692 60.2972 29.8366 59.5183C29.7756 58.8341 29.79 58.1428 29.6376 57.4675C29.5857 57.121 29.4853 56.7798 29.4853 56.4261C29.4243 55.9705 29.3186 55.5203 29.272 55.0612C28.9332 53.1927 28.8311 51.2919 28.4887 49.4233C28.4511 49.2179 28.4368 49.0125 28.4386 48.8052C28.4887 48.1568 28.227 47.5422 28.2181 46.9009C28.098 46.3972 28.0604 45.8791 27.9618 45.37C27.8076 44.7644 27.8668 44.1338 27.7503 43.5246C27.5621 42.2813 27.4133 41.0326 27.2126 39.791C27.1212 39.2301 26.9957 38.6727 26.9706 38.1011C26.9581 37.7956 26.7555 37.6616 26.5207 37.5241C25.103 36.697 23.6924 35.8591 22.3033 34.9838C20.7386 33.9977 19.138 33.0705 17.5626 32.1023C16.4872 31.5146 15.4601 30.8518 14.426 30.198C12.8881 29.2423 11.3736 28.249 9.77303 27.3951C8.21727 26.4715 6.99309 25.2175 6.0557 23.6776C5.53771 22.6861 5.1183 21.659 5 20.5335Z" stroke="#41B79B" stroke-width="9" mask="url(#path-1-outside-1_674_2323)"/>
</svg>
