<svg width="520" height="623" viewBox="0 0 520 623" fill="none" xmlns="http://www.w3.org/2000/svg">
<path opacity="0.1" fill-rule="evenodd" clip-rule="evenodd" d="M184.376 71.7492C146.587 85.8552 116.9 113.351 88.4592 150.028C68.2638 176.073 57.3077 211.652 57.3077 261.55C51.7607 350.723 120.988 413.18 174.89 474.676L256.107 563.078L270.525 548.291C279.377 539.215 294.103 539.63 302.428 549.187L307.455 554.956C314.764 563.351 314.515 575.907 306.883 584.004L280.991 611.471C266.257 627.102 241.284 626.797 226.934 610.81L138.503 512.281C61.7693 426.504 6.7836 374.873 0.336924 264.877C-2.67769 213.444 14.7906 164.337 42.5859 118.282C63.1183 84.2617 115.802 34.7015 166.027 15.954C216.406 -2.85188 273.664 -5.68782 340.345 10.958C451.274 41.7697 524.62 163.722 519.773 261.664C517.681 303.904 508.224 350.364 477.967 397.986C443.816 442.342 416.396 474.793 376.986 511.814C359.97 527.801 333.596 528.302 317.91 511.011L258.608 445.659C256.218 448.177 254.229 450.284 252.373 452.273C242.17 463.206 224.818 463.369 214.834 452.238L212.502 449.644C204.065 440.236 203.879 425.933 212.454 416.653C214.872 414.042 217.678 411.046 221.908 406.519L182.708 362.383C131.831 308.252 107.235 238.102 154.232 171.561C179.897 135.223 222.001 118.282 261.899 118.282C301.773 118.282 342.42 136.395 367.037 173.346C380.395 193.397 388.72 213.319 390.39 238.642C393.726 264.117 386.177 292.237 372.039 315.747C349.521 348.226 323.415 372.912 296.064 403.828L333.309 445.663C342.451 455.936 357.895 455.538 367.955 446.161C393.438 422.402 414.064 398.013 431.258 372.376C457.815 332.782 463.212 282.784 465.589 255.404C471.842 183.368 414.577 90.9028 320.841 65.0871C263.195 50.6968 222.008 57.7013 184.376 71.7492ZM259.44 363.168C290.282 329.365 297.045 322.409 316.157 301.59C334.507 281.605 337.455 255.788 335.342 239.967C333.672 227.477 327.804 214.208 320.841 203.759C308.854 185.765 286.697 175.261 261.899 175.261C237.13 175.261 214.013 185.792 200.871 204.399C174.727 241.416 177.704 276.607 221.908 322.409L259.44 363.168Z" fill="#33A78C"/>
</svg>
