<svg width="71" height="71" viewBox="0 0 71 71" fill="none" xmlns="http://www.w3.org/2000/svg">
<path d="M35.5 70.9999C27.2869 70.9999 19.3279 68.1521 12.9791 62.9417C6.63025 57.7314 2.28446 50.4809 0.682173 42.4256C-0.920119 34.3703 0.320226 26.0087 4.19186 18.7654C8.06349 11.5221 14.3269 5.84528 21.9148 2.70227C29.5027 -0.440741 37.9457 -0.85551 45.8051 1.52863C53.6646 3.91278 60.4542 8.94832 65.0171 15.7773C69.5801 22.6062 71.634 30.806 70.829 38.9796C70.024 47.1531 66.4098 54.7947 60.6022 60.6022C57.3134 63.909 53.4014 66.5307 49.0926 68.3154C44.7838 70.1002 40.1638 71.0126 35.5 70.9999Z" fill="#333949"/>
</svg>
