<svg width="471" height="564" viewBox="0 0 471 564" fill="none" xmlns="http://www.w3.org/2000/svg">
<path fill-rule="evenodd" clip-rule="evenodd" d="M167.003 64.8712C132.774 77.6249 105.884 102.485 80.1236 135.646C61.8313 159.194 51.9076 191.363 51.9076 236.477C46.8832 317.102 109.587 373.572 158.41 429.172L231.974 509.1L245.034 495.731C253.051 487.525 266.39 487.9 273.93 496.541L278.483 501.757C285.104 509.347 284.878 520.699 277.965 528.02L254.513 552.854C241.168 566.986 218.547 566.711 205.55 552.257L125.452 463.172C55.9488 385.618 6.14438 338.937 0.305176 239.486C-2.42537 192.983 13.3969 148.583 38.573 106.943C57.1706 76.1842 104.89 31.3749 150.382 14.4247C196.014 -2.57849 247.877 -5.14257 308.274 9.90757C408.75 37.7656 475.185 148.027 470.795 236.58C468.9 274.771 460.333 316.777 432.927 359.834C401.995 399.938 377.159 429.279 341.463 462.75C326.049 477.204 302.161 477.658 287.953 462.025L234.24 402.937C232.074 405.214 230.273 407.119 228.591 408.917C219.35 418.802 203.633 418.949 194.59 408.885L192.478 406.54C184.835 398.034 184.667 385.102 192.434 376.712C194.624 374.351 197.166 371.642 200.997 367.549L165.491 327.644C119.408 278.702 97.1304 215.277 139.699 155.115C162.946 122.261 201.082 106.943 237.22 106.943C273.337 106.943 310.153 123.32 332.451 156.729C344.55 174.857 352.09 192.87 353.603 215.765C356.625 238.798 349.787 264.223 336.982 285.479C316.586 314.844 292.939 337.164 268.166 365.116L301.901 402.94C310.181 412.229 324.17 411.869 333.282 403.391C356.364 381.909 375.047 359.859 390.62 336.679C414.675 300.881 419.563 255.676 421.716 230.92C427.38 165.79 375.511 82.1886 290.608 58.8477C238.394 45.8369 201.088 52.17 167.003 64.8712ZM234.993 328.354C262.929 297.791 269.054 291.502 286.365 272.679C302.986 254.609 305.657 231.267 303.743 216.963C302.23 205.67 296.915 193.674 290.608 184.226C279.751 167.957 259.681 158.46 237.22 158.46C214.785 158.46 193.846 167.982 181.942 184.805C158.262 218.273 160.959 250.09 200.997 291.502L234.993 328.354Z" fill="#333949"/>
</svg>
