<svg width="56" height="41" viewBox="0 0 56 41" fill="none" xmlns="http://www.w3.org/2000/svg">
<path d="M0.171875 11.4118L4.16565 15.394C4.16565 15.394 13.0277 5.15821 28.1135 5.71907C43.1848 6.29396 51.4638 15.394 51.4638 15.394L55.6033 11.4118C55.6033 11.4118 29.8772 -13.6167 0.171875 11.4118Z" fill="#33A78C"/>
<path d="M7.10938 18.2403L11.5404 22.5028C11.5404 22.5028 24.5419 8.28492 44.2046 22.5028L48.1983 18.2403C48.2129 18.2403 29.8766 0.460891 7.10938 18.2403Z" fill="#33A78C"/>
<path d="M18.8009 29.6119C18.8009 29.6119 27.6629 20.9326 36.5395 29.6119L40.9706 25.0549C40.9706 25.0549 28.6978 14.2443 14.5156 25.0549L18.8009 29.6119Z" fill="#33A78C"/>
<path d="M32.6888 35.4449C32.6888 38.0809 30.4733 40.2122 27.7331 40.2122C24.9928 40.2122 22.7773 38.0809 22.7773 35.4449C22.7773 32.8088 24.9928 30.6775 27.7331 30.6775C30.4733 30.6775 32.6888 32.8088 32.6888 35.4449Z" fill="#33A78C"/>
</svg>
