<svg width="5" height="4" viewBox="0 0 5 4" fill="none" xmlns="http://www.w3.org/2000/svg">
<path d="M4.76628 2.96549C4.76628 2.96549 4.47477 3.0917 3.99377 3.14778C3.51278 3.18985 2.85685 3.11974 2.24467 2.83931C1.96773 2.69909 1.6908 2.50278 1.47216 2.30648C1.25353 2.11018 1.07864 1.88583 0.947457 1.68953C0.685095 1.29692 0.6122 0.988446 0.6122 0.988446V0.974432C0.597624 0.904324 0.641348 0.848229 0.699651 0.834208C0.757954 0.820186 0.816265 0.848234 0.845417 0.90432C0.845417 0.90432 0.962037 1.17073 1.2244 1.52127C1.35558 1.68953 1.51591 1.88584 1.71997 2.0541C1.92403 2.23638 2.15722 2.37659 2.43416 2.50278C2.94431 2.76919 3.54191 2.85333 3.97918 2.83931C4.41646 2.83931 4.72256 2.75518 4.72256 2.75518C4.78086 2.74116 4.83917 2.76918 4.86833 2.82527C4.8829 2.88136 4.85374 2.93746 4.81001 2.95148L4.76628 2.96549Z" fill="#DA806C"/>
</svg>
