<svg width="10" height="11" viewBox="0 0 10 11" fill="none" xmlns="http://www.w3.org/2000/svg">
<path d="M6.45235 0.819129C11.5393 1.98292 9.23632 7.39525 9.23632 7.39525C9.76104 9.70882 7.41435 9.47046 7.41435 9.47046C7.41435 9.47046 6.59811 9.72283 6.86047 10.7184C6.86047 10.7184 6.16083 10.9708 5.08223 10.9708C4.00363 10.9708 3.17282 10.7184 3.17282 10.7184C3.43518 9.72283 2.61893 9.47046 2.61893 9.47046C2.61893 9.47046 0.301397 9.72284 0.796971 7.39525C0.796971 7.39525 -1.43311 2.24933 3.58094 0.819129C3.58094 0.819129 4.74699 0.426525 6.45235 0.819129Z" fill="white"/>
<path d="M5.66513 5.44615C5.79631 5.23582 6.01491 5.08158 6.2627 5.03951C6.51048 4.99745 6.77288 5.02549 7.02066 5.08157C7.31218 5.13766 7.6037 5.20777 7.89521 5.30592C8.11385 5.37603 8.33248 5.46018 8.47823 5.62844C8.62399 5.81072 8.65312 6.04907 8.63854 6.27342C8.62397 6.53983 8.56568 6.82025 8.41992 7.05862C8.27416 7.29699 8.05552 7.49327 7.77858 7.56338C7.28301 7.68957 6.78746 7.39512 6.39392 7.08665C6.00037 6.76415 5.66512 6.39958 5.60682 5.89481C5.59224 5.88078 5.60683 5.5443 5.66513 5.44615Z" fill="#003A70"/>
<path d="M4.55646 5.65658C4.48358 5.41821 4.2941 5.23594 4.06089 5.13779C3.82768 5.03963 3.5653 5.02562 3.31752 5.0116C3.01143 5.0116 2.71992 5.01158 2.41383 5.03962C2.19519 5.05365 1.9474 5.09573 1.7725 5.23595C1.59759 5.37616 1.51015 5.61451 1.46642 5.82483C1.42269 6.09124 1.4081 6.3717 1.49555 6.63811C1.58301 6.90452 1.75793 7.14286 2.00571 7.26905C2.45756 7.4934 3.01144 7.32513 3.46328 7.08676C3.92971 6.8484 4.33781 6.56798 4.49815 6.09124C4.5273 6.10526 4.58561 5.76875 4.55646 5.65658Z" fill="#003A70"/>
<path d="M5.11036 6.75021C5.15409 6.77825 5.22698 6.82031 5.25613 6.87639C5.44561 7.12878 5.57679 7.43726 5.66425 7.75976C5.6934 7.87193 5.70795 8.01216 5.63507 8.08227C5.57676 8.13836 5.50391 8.12431 5.43103 8.09627C5.35815 8.06822 5.29983 8.02617 5.22695 8.02617C5.15407 8.01215 5.06661 8.05423 4.99373 8.08227C4.87713 8.12434 4.73137 8.15235 4.62934 8.0542C4.55646 7.98409 4.52734 7.8579 4.52734 7.74573C4.52734 7.63355 4.57107 7.52141 4.61479 7.42326C4.68767 7.24098 4.77512 7.05869 4.87715 6.89043C4.87715 6.89043 5.02291 6.69412 5.11036 6.75021Z" fill="#003A70"/>
</svg>
