<svg width="97" height="139" viewBox="0 0 97 139" fill="none" xmlns="http://www.w3.org/2000/svg">
<path d="M96.0582 56.8493H0.28125V138.862H96.0582V56.8493Z" fill="#41B79B"/>
<path d="M10.6895 38.8176C10.6895 18.977 27.5681 2.75407 48.1782 2.75407C68.8028 2.75407 85.6669 18.9911 85.6669 38.8176V56.8493" stroke="#41B79B" stroke-width="4" stroke-miterlimit="10"/>
<path d="M32.3201 56.8493H9.17383V138.862H32.3201V56.8493Z" fill="#41B79B"/>
<path d="M48.1774 118.011C54.5932 118.011 59.7942 113.008 59.7942 106.836C59.7942 100.664 54.5932 95.6611 48.1774 95.6611C41.7616 95.6611 36.5605 100.664 36.5605 106.836C36.5605 113.008 41.7616 118.011 48.1774 118.011Z" fill="#003A70"/>
<path d="M48.1785 96.7968C52.6381 96.7968 56.2534 93.319 56.2534 89.0288C56.2534 84.7387 52.6381 81.2609 48.1785 81.2609C43.7188 81.2609 40.1035 84.7387 40.1035 89.0288C40.1035 93.319 43.7188 96.7968 48.1785 96.7968Z" fill="#003A70"/>
</svg>
