<svg width="23" height="67" viewBox="0 0 23 67" fill="none" xmlns="http://www.w3.org/2000/svg">
<path d="M0.5 55.2349C5.35371 48.4064 7.86073 40.2318 8.92476 32.0152C10.0034 23.7985 9.93048 14.2078 9.65354 5.93503C8.47291 5.03765 7.30686 3.8318 6.51977 2.58388C6.15538 2.00899 5.87843 1.19574 6.37401 0.719002C6.60722 0.494656 6.95704 0.424561 7.29228 0.424561C8.42919 0.438582 9.3766 1.2378 10.4261 1.68649C12.0002 2.35953 13.7931 2.23334 15.4984 2.10715C17.2038 1.96693 18.9091 1.84075 20.629 1.70053C20.9351 1.67249 21.2412 1.65846 21.5182 1.75661C22.1158 1.96693 22.3636 2.76616 21.9992 3.27094L20.9351 5.94907C22.3198 20.2511 21.3578 37.4976 17.437 51.3509C15.9211 56.6932 13.1226 61.9373 9.65354 66.3541" fill="#F7C5B4"/>
</svg>
