<svg width="460" height="342" viewBox="0 0 460 342" fill="none" xmlns="http://www.w3.org/2000/svg">
<path d="M0.933594 319.677V22.2372C0.933594 10.431 10.8742 0.868271 23.147 0.868271H436.937C449.209 0.868271 459.15 10.431 459.15 22.2372V319.677C459.15 331.483 449.209 341.046 436.937 341.046H23.147C10.8888 341.046 0.933594 331.483 0.933594 319.677Z" fill="#F9FBFD"/>
<path d="M30.9023 311.11V30.7904C30.9023 22.6999 37.7238 16.1518 46.1194 16.1518H423.339C431.749 16.1518 438.556 22.7139 438.556 30.7904V311.11C438.556 319.2 431.734 325.748 423.339 325.748H46.134C37.7238 325.762 30.9023 319.2 30.9023 311.11Z" fill="url(#paint0_linear_560_15536)"/>
<path d="M15.1593 184.004C10.8595 184.004 7.36133 180.653 7.36133 176.503C7.36133 172.366 10.8449 169.001 15.1593 169.001C19.4592 169.001 22.9573 172.352 22.9573 176.503C22.9573 180.653 19.4737 184.004 15.1593 184.004Z" fill="#33A78C"/>
<defs>
<linearGradient id="paint0_linear_560_15536" x1="294.789" y1="145.13" x2="-22.4846" y2="292.595" gradientUnits="userSpaceOnUse">
<stop stop-color="white"/>
<stop offset="1" stop-color="#C6D4EE"/>
</linearGradient>
</defs>
</svg>
