<svg width="177" height="47" viewBox="0 0 177 47" fill="none" xmlns="http://www.w3.org/2000/svg">
<path d="M167.156 12.7576H55.6523V14.4962H167.156V12.7576Z" fill="#41B79B"/>
<path d="M167.156 19.6282H55.6523V21.3669H167.156V19.6282Z" fill="#41B79B"/>
<path d="M167.156 26.2323H55.6523V27.971H167.156V26.2323Z" fill="#41B79B"/>
<path d="M167.827 32.7804H55.6523V34.5191H167.827V32.7804Z" fill="#41B79B"/>
<path d="M29.7638 39.5247C38.9327 39.5247 46.3656 32.3745 46.3656 23.5542C46.3656 14.7339 38.9327 7.58357 29.7638 7.58357C20.595 7.58357 13.1621 14.7339 13.1621 23.5542C13.1621 32.3745 20.595 39.5247 29.7638 39.5247Z" stroke="#003A70" stroke-width="2.2528" stroke-miterlimit="10"/>
<path d="M41.4818 12.379L18.0586 34.8977" stroke="#003A70" stroke-width="2.2528" stroke-miterlimit="10"/>
<path d="M166.268 46.6617H11.0511C5.3666 46.6617 0.746094 42.2309 0.746094 36.7484V10.3458C0.746094 4.87741 5.35203 0.432556 11.0511 0.432556H166.268C171.952 0.432556 176.573 4.86339 176.573 10.3458V36.7484C176.573 42.2169 171.952 46.6617 166.268 46.6617Z" stroke="#41B79B" stroke-width="0.5" stroke-miterlimit="10"/>
</svg>
