<svg width="3" height="7" viewBox="0 0 3 7" fill="none" xmlns="http://www.w3.org/2000/svg">
<path d="M1.6887 0.58505C1.6887 0.58505 1.63043 1.01972 1.54298 1.67873C1.45552 2.33775 1.36803 3.22112 1.36803 4.10448C1.35345 4.53915 1.33891 4.98784 1.35348 5.39447C1.33891 5.82913 1.44092 6.01141 1.70329 6.15162C2.19886 6.38999 2.73818 6.29183 2.7236 6.31987C2.82563 6.31987 2.91309 6.39 2.91309 6.48815C2.91309 6.5863 2.84018 6.67041 2.73815 6.67041C2.73815 6.67041 2.62154 6.68444 2.41748 6.69846C2.21342 6.69846 1.8782 6.75455 1.48466 6.57227C1.29518 6.47412 1.09109 6.34793 0.959911 6.09554C0.82873 5.8712 0.828766 5.60478 0.81419 5.40848C0.785038 4.98783 0.770434 4.52512 0.78501 4.07643C0.828737 3.16503 0.945361 2.26764 1.07654 1.59461C1.20772 0.92157 1.35348 0.500924 1.35348 0.500924C1.38264 0.416795 1.47008 0.360706 1.57211 0.388749C1.64499 0.430814 1.70327 0.500921 1.6887 0.58505Z" fill="#DA806C"/>
</svg>
