<svg width="126" height="129" viewBox="0 0 126 129" fill="none" xmlns="http://www.w3.org/2000/svg">
<path d="M26.3379 98.8887C51.5247 100.95 77.2654 101.637 101.694 97.8651L66.3191 117.818L26.3379 98.8887Z" fill="#41B79B"/>
<path d="M95.7165 80.9411C98.4568 79.4268 104.156 76.4402 106.998 75.1221C111.779 90.9385 109.899 94.9767 104.2 95.6217C102.305 95.832 100.483 96.0704 98.5879 95.9302C93.9383 95.6077 89.653 95.0748 85.4844 93.2661C85.7613 91.8218 85.703 88.8352 85.9799 87.391C89.6967 86.8021 93.9237 85.9608 97.6405 85.3719L95.7165 80.9411Z" fill="#F7C5B4"/>
<path d="M35.9399 80.9411C33.1997 79.4268 27.5006 76.4402 24.6583 75.1221C19.8775 90.9385 21.7577 94.9767 27.4568 95.6217C29.3517 95.832 32.1794 96.3368 34.0596 96.0424C38.5781 95.3272 42.0034 95.2711 46.172 93.4624C45.8951 92.0181 45.9534 88.8352 45.6765 87.391C41.9597 86.8021 37.7327 85.9608 34.0159 85.3719L35.9399 80.9411Z" fill="#F7C5B4"/>
<path d="M41.8899 102.899C41.8753 96.5051 39.893 83.8296 39.3537 75.1783L36.3511 81.2777L24.3262 75.1362C25.5214 71.1681 28.7863 66.1203 31.1767 62.3906C36.1325 54.6507 42.4583 50.6265 52.122 47.9624C55.9263 46.9108 59.8617 45.9713 65.3859 45.9152H66.0418C71.566 45.9573 76.2157 46.8126 80.0636 47.6539C89.2755 49.673 96.7382 56.2912 101.694 64.0451C104.084 67.7749 106.023 70.9297 107.655 74.7997L95.0621 81.2777L92.0595 75.1783C91.389 84.5166 89.669 93.9812 88.9111 102.899H41.8899Z" fill="#003A70"/>
<path d="M60.662 31.9215C60.3122 34.5996 58.6214 42.9705 58.1404 43.8399C57.3679 45.242 54.2633 47.0228 53.0098 47.6958C53.0098 47.6958 53.3159 52.4491 66.3757 52.5753C79.2315 52.7015 80.0477 47.6537 80.0477 47.6537C78.7942 46.9807 75.2086 45.9151 74.611 43.8399C74.334 42.8864 72.6287 34.9502 72.2788 32.2861L60.662 31.9215Z" fill="#F7C5B4"/>
<path d="M80.691 10.3004C81.7842 15.9651 80.2246 27.3787 78.9711 31.8936C78.4609 33.7304 77.907 35.6234 76.6827 37.1096C70.6192 44.457 62.5443 42.1294 59.8915 40.4608C57.8071 39.1428 56.1455 37.334 55.1835 35.1186C52.7348 29.4679 51.7291 23.2423 52.283 17.1429C52.283 17.1429 51.5833 1.22841 68.5057 1.22841C68.4766 1.21438 78.869 0.835803 80.691 10.3004Z" fill="#F7C5B4"/>
<path d="M53.0234 25.9064C52.659 26.4112 51.8136 26.3971 51.3181 26.0185C50.8225 25.64 50.5893 25.009 50.4727 24.4061C50.3561 23.8172 50.3123 23.2142 50.3269 22.6113C50.3415 22.1766 50.4144 21.7279 50.7059 21.3914C50.9974 21.0689 51.493 20.9287 51.9157 21.0549C52.3384 21.1811 52.6736 21.5597 52.7319 21.9944L53.0234 25.9064Z" fill="#F7C5B4"/>
<path d="M80.0359 21.9803C80.1816 21.5737 80.4148 21.1671 80.8521 21.0409C81.2748 20.9147 81.7849 21.0549 82.0619 21.3774C82.3534 21.6999 82.4263 22.1626 82.4408 22.5973C82.47 23.2002 82.4263 23.8031 82.2951 24.392C82.1785 24.9949 81.9453 25.6259 81.4497 26.0045C80.9541 26.3831 80.1087 26.3971 79.7443 25.8923C79.7589 25.9063 79.3945 23.9013 80.0359 21.9803Z" fill="#F7C5B4"/>
<path d="M66.1011 26.4391C66.1011 26.4391 66.0574 26.5373 66.0428 26.6775C66.0137 26.8317 65.9845 27.0701 65.9408 27.3646C65.8679 27.9394 65.7805 28.7106 65.693 29.4678C65.6639 29.8464 65.6056 30.253 65.6056 30.5755C65.6201 30.7297 65.6201 30.8279 65.693 30.898C65.7222 30.926 65.8679 31.0102 65.9991 31.0522C66.5238 31.1925 66.9465 31.2906 66.9465 31.2906C67.0486 31.3186 67.1069 31.4028 67.0777 31.5009C67.0631 31.5851 66.9757 31.6411 66.8882 31.6271C66.8882 31.6271 66.7862 31.6271 66.6113 31.6131C66.4364 31.6131 66.174 31.5851 65.8533 31.515C65.693 31.4589 65.5181 31.4448 65.2995 31.2345C65.1246 31.0522 65.0517 30.7858 65.0663 30.5755C65.0808 30.1689 65.1391 29.8043 65.1974 29.4117C65.314 28.6405 65.4161 27.8693 65.5327 27.2945C65.591 27 65.6493 26.7757 65.7076 26.5934C65.7659 26.3971 65.8096 26.327 65.8096 26.327V26.3129C65.8533 26.2288 65.9408 26.2008 66.0283 26.2428C66.0866 26.2849 66.1157 26.369 66.1011 26.4391Z" fill="#DA806C"/>
<path d="M68.5607 25.0931C68.2546 24.1958 68.4878 23.1441 69.2311 22.5272C69.2894 22.5973 69.3623 22.6814 69.4206 22.7515C69.6101 22.5833 69.8142 22.415 70.0037 22.2468C70.0911 22.3028 70.1786 22.373 70.266 22.429C71.6944 21.4756 73.4289 20.9708 75.1489 21.0129C75.8922 21.0269 76.6939 21.1671 77.1895 21.6999C77.0437 21.8401 76.8251 21.9243 76.621 21.9383C73.6913 22.2748 71.8985 22.8076 68.8084 25.1773C68.8084 25.1632 68.619 25.2614 68.5607 25.0931Z" fill="#3C3C3B"/>
<path d="M54.0604 5.32266C52.9818 7.01927 48.9152 14.619 51.4951 21.2652C51.5971 21.5316 51.7428 21.8261 52.0052 21.9663C52.5299 22.2467 53.1567 21.798 53.5648 21.3493C55.0224 19.7509 56.2176 17.914 56.8881 15.8809C57.3837 14.3806 57.5731 12.7821 57.3982 11.2257C57.3982 11.2257 57.7335 13.1046 59.9636 15.7127C60.2696 16.0632 60.9547 16.7783 61.3774 16.9746C61.8001 17.1709 62.3977 17.1148 62.66 16.7362C62.835 16.4698 62.8204 16.1333 62.7912 15.8248C62.6746 14.8994 62.4123 14.002 62.0041 13.1467C64.1322 15.0536 66.3769 17.0307 69.1608 17.858C69.9916 18.1103 71.0848 18.1524 71.5512 17.4513C71.799 17.0727 71.7699 16.596 71.697 16.1613C71.5075 15.0957 70.9973 14.0862 70.2686 13.2729C71.6824 15.0677 73.5481 16.5399 75.6616 17.5214C76.7693 18.0402 77.9791 18.4188 79.2035 18.2926C80.4278 18.1524 81.7834 17.5915 81.9 16.4137C82.4247 11.5342 80.6319 7.35579 79.6408 5.91157C73.4315 -3.09029 65.444 0.919876 63.7678 0.723574C60.0364 0.260861 55.9552 2.16781 54.0604 5.32266Z" fill="#3C3C3B"/>
<path d="M78.6171 13.6655C78.2527 16.0772 78.7191 18.6011 79.9143 20.7464C80.0601 20.9988 80.2495 21.2652 80.541 21.3073C80.7888 21.3353 81.0366 21.1811 81.1678 20.9708C81.299 20.7604 81.3573 20.5221 81.401 20.2837C81.8674 17.8159 82.3047 15.1798 81.2553 12.8803C81.1824 12.7121 81.0949 12.5438 80.9346 12.4176C80.7597 12.2774 80.541 12.2353 80.3078 12.2213C79.3896 12.2073 78.5442 13.0205 78.5879 13.9039" fill="#3C3C3B"/>
<path d="M72.892 40.4046C72.892 40.4046 67.5573 44.2466 59.8613 40.4467C59.8759 40.4467 66.6536 47.6117 72.892 40.4046Z" fill="#F7C5B4"/>
<path d="M63.619 25.0931C63.9251 24.1958 63.6919 23.1441 62.9486 22.5272C62.8903 22.5973 62.8174 22.6814 62.7591 22.7515C62.5696 22.5833 62.3656 22.415 62.1761 22.2468C62.0886 22.3028 62.0011 22.373 61.9137 22.429C60.4853 21.4756 58.7508 20.9708 57.0308 21.0129C56.2875 21.0269 55.4858 21.1671 54.9902 21.6999C55.136 21.8401 55.3546 21.9243 55.5587 21.9383C58.4884 22.2748 60.2812 22.8076 63.3713 25.1773C63.3713 25.1632 63.5607 25.2614 63.619 25.0931Z" fill="#3C3C3B"/>
<path d="M69.0739 32.8329C69.0739 32.8329 68.9573 33.0572 68.6658 33.3657C68.3743 33.6602 67.937 33.9967 67.4269 34.2491C66.9022 34.4734 66.3483 34.5716 65.9256 34.5996C65.5029 34.6136 65.226 34.5576 65.226 34.5576H65.2114C65.0948 34.5295 65.0365 34.4314 65.051 34.3192C65.0656 34.2351 65.1531 34.179 65.226 34.1649C65.226 34.1649 65.4737 34.1369 65.8527 34.0808C66.2171 34.0387 66.6981 33.8985 67.1354 33.6882C67.5872 33.5059 68.0099 33.2395 68.2868 33.0012C68.5638 32.7908 68.7678 32.5945 68.7678 32.5945C68.8407 32.5244 68.9573 32.5244 69.0302 32.5945C69.0885 32.6506 69.1031 32.7347 69.0593 32.8049L69.0739 32.8329Z" fill="#DA806C"/>
<path d="M74.4063 27.6731C74.4063 28.3602 73.969 28.9351 73.4297 28.9351C72.8904 28.9351 72.4531 28.3742 72.4531 27.6731C72.4531 26.9861 72.8904 26.4112 73.4297 26.4112C73.969 26.4252 74.4063 26.9861 74.4063 27.6731Z" fill="#3C3C3B"/>
<path d="M59.3789 27.6731C59.3789 28.3602 58.9417 28.9351 58.4024 28.9351C57.863 28.9351 57.4258 28.3742 57.4258 27.6731C57.4258 26.9861 57.863 26.4112 58.4024 26.4112C58.9417 26.4112 59.3789 26.9721 59.3789 27.6731Z" fill="#3C3C3B"/>
<path d="M88.7073 107.834H41.963C39.3831 107.834 37.2988 105.829 37.2988 103.347V74.4911C37.2988 72.0093 39.3831 70.0042 41.963 70.0042H88.7073C91.2872 70.0042 93.3716 72.0093 93.3716 74.4911V103.347C93.3716 105.829 91.2872 107.834 88.7073 107.834Z" fill="#434F66"/>
<path d="M49.8472 125.488C70.6176 124.927 92.7435 123.763 112.231 116.794C115.321 115.687 118.426 114.397 120.918 112.321C123.411 110.232 125.233 107.203 125.102 104.035C124.927 99.9122 121.458 96.4209 117.42 95.0047C113.397 93.5885 108.937 93.883 104.725 94.6121C85.616 97.9072 67.513 109.685 48.7832 115.869L49.8472 125.488Z" fill="#41B79B"/>
<path d="M48.8547 116.612C44.4237 116.304 40.1821 115.715 35.7511 115.729C32.6173 115.743 29.4253 115.841 26.4955 116.78C25.1546 117.215 23.8719 117.846 22.8808 118.757C21.8896 119.683 21.2337 120.917 21.2775 122.193C21.3212 123.973 22.7059 125.586 24.4258 126.511C26.1457 127.437 28.1718 127.773 30.1541 127.969C36.7277 128.586 43.7678 127.675 49.8458 125.474L48.8547 116.612Z" fill="#003A70"/>
<path d="M93.9531 97.2201C93.9531 97.2201 93.2535 97.4866 92.0437 97.9633C90.8193 98.426 89.0994 99.1411 87.0588 100.01C85.0036 100.866 82.6424 101.973 80.0916 103.109C77.5554 104.287 74.8589 105.535 72.1624 106.783C69.4514 108.017 66.7257 109.237 64.1604 110.344C61.595 111.452 59.1463 112.391 57.0474 113.163C54.9485 113.948 53.1557 114.495 51.9022 114.873C50.6487 115.238 49.9199 115.448 49.9199 115.448C49.9199 115.448 50.6195 115.182 51.8439 114.733C53.0683 114.284 54.8028 113.597 56.8579 112.742C58.9277 111.915 61.289 110.821 63.8397 109.699C66.3905 108.564 69.087 107.302 71.7835 106.054C74.5091 104.834 77.2202 103.614 79.771 102.478C82.3363 101.357 84.7704 100.389 86.8547 99.6038C88.9391 98.7906 90.7319 98.2297 91.9708 97.8231C93.2389 97.4445 93.9531 97.2201 93.9531 97.2201Z" fill="#003A70"/>
<path d="M76.6376 124.198C55.8672 123.693 33.3914 122.599 13.9037 115.687C10.7991 114.593 7.69447 113.317 5.20202 111.228C2.70957 109.152 0.873026 106.124 0.989631 102.941C1.14996 98.8186 4.61898 95.3132 8.64188 93.897C12.6648 92.4668 17.1249 92.7472 21.3373 93.4623C40.4461 96.7013 58.3159 108.746 77.0748 114.887L76.6376 124.198Z" fill="#41B79B"/>
<path d="M34.0469 96.8275C34.0469 96.8275 34.7465 97.0519 35.9709 97.4304C37.1806 97.8371 38.9297 98.412 40.9703 99.2112C43.0109 99.9964 45.3868 100.964 47.8938 102.058C50.3862 103.179 53.0536 104.385 55.7064 105.577C58.3446 106.811 60.9828 108.045 63.4752 109.166C65.9677 110.274 68.2852 111.354 70.3112 112.167C72.3227 113.008 74.0134 113.71 75.2086 114.158C76.4039 114.621 77.0889 114.887 77.0889 114.887C77.0889 114.887 76.3893 114.677 75.1649 114.312C73.9406 113.92 72.1915 113.373 70.1363 112.602C68.0811 111.831 65.6907 110.905 63.1837 109.812C60.6767 108.718 58.0093 107.526 55.3565 106.306C52.7183 105.072 50.0802 103.838 47.6023 102.689C45.1098 101.567 42.8069 100.473 40.7954 99.6178C38.784 98.7485 37.1223 98.0334 35.9271 97.5707C34.7319 97.0939 34.0469 96.8275 34.0469 96.8275Z" fill="#003A70"/>
<path d="M76.6387 124.198C82.7313 126.371 89.4216 127.282 95.9952 126.651C97.9775 126.455 100.004 126.119 101.723 125.179C103.443 124.254 104.814 122.627 104.857 120.846C104.886 119.571 104.23 118.323 103.239 117.411C102.248 116.5 100.966 115.869 99.6245 115.448C96.6948 114.509 93.5028 114.411 90.369 114.411C85.938 114.411 81.4924 114.565 77.0759 114.887L76.6387 124.198Z" fill="#003A70"/>
<path d="M29 86.2272C29 86.2272 29.2915 86.087 29.7288 85.8907C30.1806 85.7084 30.7637 85.456 31.4341 85.3439C32.1046 85.2878 32.746 85.3298 33.227 85.3579C33.708 85.3859 34.0432 85.428 34.0432 85.428C34.0432 85.428 33.7225 85.4981 33.2415 85.5542C32.7605 85.6243 32.1046 85.6243 31.4925 85.6944C30.8949 85.7785 30.2681 85.9889 29.8017 86.087C29.3207 86.1852 29 86.2272 29 86.2272Z" fill="#DA806C"/>
<path d="M67.3823 82.89C74.7139 84.5726 71.3906 92.3686 71.3906 92.3686C72.134 95.7057 68.767 95.3552 68.767 95.3552C68.767 95.3552 67.5863 95.7198 67.9653 97.164C67.9653 97.164 66.945 97.5286 65.4 97.5286C63.8404 97.5286 62.6452 97.164 62.6452 97.164C63.0242 95.7198 61.8435 95.3552 61.8435 95.3552C61.8435 95.3552 58.5057 95.7198 59.2199 92.3686C59.2199 92.3686 56.0132 84.9512 63.2282 82.89C63.2428 82.89 64.919 82.3292 67.3823 82.89Z" fill="white"/>
<path d="M66.2602 89.5642C66.4497 89.2557 66.7704 89.0454 67.1202 88.9753C67.4846 88.9052 67.849 88.9613 68.2134 89.0314C68.6361 89.1155 69.0588 89.2137 69.4669 89.3539C69.773 89.452 70.1082 89.5782 70.2977 89.8306C70.5018 90.083 70.5455 90.4336 70.5309 90.7561C70.5163 91.1487 70.4289 91.5413 70.2248 91.8918C70.0208 92.2283 69.6855 92.5228 69.292 92.6209C68.5778 92.8032 67.849 92.3826 67.2951 91.9198C66.7267 91.4431 66.2311 90.9243 66.1582 90.2092C66.1582 90.1952 66.1728 89.7044 66.2602 89.5642Z" fill="#E94552"/>
<path d="M64.6422 89.8728C64.5256 89.5362 64.2633 89.2558 63.928 89.1156C63.5928 88.9754 63.2138 88.9473 62.8494 88.9473C62.4121 88.9333 61.9749 88.9473 61.5522 88.9894C61.2315 89.0174 60.8817 89.0735 60.6339 89.2698C60.3715 89.4802 60.2549 89.8027 60.1966 90.1252C60.1238 90.5178 60.1238 90.9244 60.2404 91.303C60.357 91.6815 60.6193 92.0181 60.9837 92.2144C61.6396 92.5509 62.4413 92.2845 63.0972 91.9479C63.7677 91.6114 64.3507 91.2048 64.5985 90.5178C64.5985 90.5178 64.7005 90.027 64.6422 89.8728Z" fill="#E94552"/>
<path d="M65.4597 91.4432C65.5326 91.4853 65.6201 91.5554 65.6784 91.6255C65.9553 91.976 66.1448 92.4247 66.2614 92.8875C66.3051 93.0417 66.3197 93.252 66.2177 93.3502C66.1448 93.4343 66.0282 93.4203 65.9261 93.3782C65.8241 93.3361 65.7367 93.2801 65.6346 93.266C65.518 93.252 65.4014 93.3081 65.2994 93.3502C65.1245 93.4203 64.9204 93.4483 64.7747 93.3081C64.6726 93.2099 64.6289 93.0277 64.6289 92.8734C64.6435 92.7052 64.6872 92.5509 64.7455 92.4107C64.8475 92.1443 64.9787 91.8779 65.1245 91.6395C65.1245 91.6395 65.3286 91.3731 65.4597 91.4432Z" fill="#E94552"/>
<path d="M102.655 86.2272C102.655 86.2272 102.334 86.1711 101.853 86.0729C101.372 85.9748 100.76 85.7645 100.162 85.6803C99.5499 85.5962 98.894 85.6102 98.413 85.5401C97.932 85.484 97.6113 85.4139 97.6113 85.4139C97.6113 85.4139 97.932 85.3719 98.4276 85.3438C98.9086 85.3158 99.5499 85.2737 100.22 85.3298C100.891 85.442 101.488 85.6944 101.926 85.8766C102.363 86.087 102.655 86.2272 102.655 86.2272Z" fill="#DA806C"/>
</svg>
