<svg width="22" height="67" viewBox="0 0 22 67" fill="none" xmlns="http://www.w3.org/2000/svg">
<path d="M21.8883 55.3331C17.0346 48.5046 14.5275 40.33 13.4635 32.1134C12.3849 23.8967 12.4578 14.306 12.7347 6.03325C13.9154 5.13586 15.0814 3.93001 15.8685 2.68209C16.2329 2.1072 16.5098 1.29395 16.0143 0.817214C15.7811 0.592868 15.4312 0.522751 15.096 0.522751C13.9591 0.536772 13.0117 1.33602 11.9622 1.78471C10.388 2.45774 8.59522 2.33155 6.88986 2.20536C5.1845 2.06514 3.47916 1.93894 1.75923 1.79872C1.45314 1.77068 1.14702 1.75667 0.870086 1.85482C0.272482 2.06514 0.024715 2.86435 0.389108 3.36913L1.45311 6.04726C0.0684136 20.3493 1.0304 37.5958 4.95127 51.4492C6.46714 56.7914 9.26571 62.0355 12.7347 66.4523" fill="#F7C5B4"/>
</svg>
