<svg width="86" height="82" viewBox="0 0 86 82" fill="none" xmlns="http://www.w3.org/2000/svg">
<path d="M26.2094 7.11895C24.6352 7.59568 22.2302 7.66579 20.6123 7.39938C19.4608 7.20308 18.3822 6.71231 17.3619 6.16547C14.5197 4.63712 11.9543 2.58998 10.0886 0.0240326L0.0605469 12.335C1.45981 15.9245 3.35465 19.3598 5.97828 22.2483C8.60191 25.1367 12.552 27.6325 16.3562 28.7402C18.4697 42.1308 19.4462 68.4493 19.0527 79.9751C19.0527 79.9751 26.5446 80.4799 37.7971 81.223C38.7008 81.2791 39.619 81.3212 40.5519 81.3492L42.3447 81.3352H43.0443L44.8371 81.3492C45.77 81.3212 46.7028 81.2791 47.5919 81.223C58.8444 80.4939 66.3363 79.9751 66.3363 79.9751C65.7095 56.1384 67.0942 49.3239 69.0328 28.7402C72.8516 27.6325 76.8016 25.1367 79.4107 22.2483C82.0343 19.3598 83.9292 15.9245 85.3284 12.335L75.3004 0.0240326C73.4201 2.58998 70.8693 4.63712 68.0271 6.16547C67.0068 6.71231 65.9282 7.20308 64.7767 7.39938C63.1588 7.67981 60.0542 7.37133 58.48 6.8946L26.2094 7.11895Z" fill="#003A70"/>
</svg>
