<svg width="184" height="72" viewBox="0 0 184 72" fill="none" xmlns="http://www.w3.org/2000/svg">
<path d="M176.668 71.1958H10.6941C6.68578 71.1958 3.40625 68.0409 3.40625 64.185V7.72005C3.40625 3.86411 6.68578 0.709255 10.6941 0.709255H176.668C180.676 0.709255 183.955 3.86411 183.955 7.72005V64.1709C183.955 68.0409 180.676 71.1958 176.668 71.1958Z" fill="#C7D4E2"/>
<path d="M173.972 71.1958H7.99879C3.99047 71.1958 0.710938 68.041 0.710938 64.185V10.7488C0.710938 6.89283 3.99047 3.73798 7.99879 3.73798H173.972C177.981 3.73798 181.26 6.89283 181.26 10.7488V64.185C181.26 68.041 177.981 71.1958 173.972 71.1958Z" fill="white"/>
<path d="M56.1591 56.9217C53.1857 49.6725 46.991 42.4234 34.1498 42.4093C21.2794 42.3953 15.0848 49.6585 12.1113 56.9077L56.1591 56.9217Z" fill="#41B79B"/>
<path d="M44.6588 29.201C44.6588 34.7816 39.9508 39.3106 34.1497 39.3106C28.3486 39.3106 23.6406 34.7816 23.6406 29.201C23.6406 23.6204 28.3486 19.0914 34.1497 19.0914C39.9654 19.0914 44.6588 23.6204 44.6588 29.201Z" fill="#41B79B"/>
<path d="M173.416 27.3503H61.9121V29.0889H173.416V27.3503Z" fill="#41B79B"/>
<path d="M173.416 34.2349H61.9121V35.9736H173.416V34.2349Z" fill="#41B79B"/>
<path d="M173.416 40.8251H61.9121V42.5637H173.416V40.8251Z" fill="#41B79B"/>
<path d="M120.623 47.3732H61.9121V49.1119H120.623V47.3732Z" fill="#41B79B"/>
<path d="M173.416 27.3503H61.9121V29.0889H173.416V27.3503Z" fill="#41B79B"/>
<path d="M173.416 34.2349H61.9121V35.9736H173.416V34.2349Z" fill="#41B79B"/>
<path d="M173.416 40.8251H61.9121V42.5637H173.416V40.8251Z" fill="#41B79B"/>
<path d="M120.623 47.3732H61.9121V49.1119H120.623V47.3732Z" fill="#41B79B"/>
</svg>
