<svg width="190" height="167" viewBox="0 0 190 167" fill="none" xmlns="http://www.w3.org/2000/svg">
<path d="M189.914 55.981H0.458984V166.275H189.914V55.981Z" fill="#41B79B"/>
<path d="M0.458984 55.9808L95.1865 0.862L189.914 55.9808H0.458984Z" fill="#41B79B"/>
<path d="M161.347 15.7669H32.1621V156.978H161.347V15.7669Z" fill="white"/>
<path d="M152.293 36.7572H41.1973V40.5149H152.293V36.7572Z" fill="#41B79B"/>
<path d="M152.293 45.8993H41.1973V49.657H152.293V45.8993Z" fill="#41B79B"/>
<path d="M152.293 55.5181H41.1973V59.2759H152.293V55.5181Z" fill="#41B79B"/>
<path d="M91.5126 65.8098H41.1973V69.5676H91.5126V65.8098Z" fill="#41B79B"/>
<path d="M152.293 81.1916H41.1973V84.9494H152.293V81.1916Z" fill="#41B79B"/>
<path d="M152.293 90.3197H41.1973V94.0774H152.293V90.3197Z" fill="#41B79B"/>
<path d="M152.293 99.9526H41.1973V103.71H152.293V99.9526Z" fill="#41B79B"/>
<path d="M91.5126 110.23H41.1973V113.988H91.5126V110.23Z" fill="#41B79B"/>
<path d="M0.458984 166.275L95.1865 111.128L189.914 166.275H0.458984Z" fill="#41B79B"/>
<path d="M0.458984 55.981L95.1865 111.128L0.458984 166.275V55.981Z" fill="#33A78C"/>
<path d="M189.915 55.981L95.1875 111.128L189.915 166.275V55.981Z" fill="#33A78C"/>
</svg>
