<svg width="73" height="70" viewBox="0 0 73 70" fill="none" xmlns="http://www.w3.org/2000/svg">
<path opacity="0.9" d="M55.3352 51.2298C64.77 41.1871 63.9556 25.6883 53.5161 16.6122C43.0766 7.53608 26.9653 8.31959 17.5305 18.3622C8.09568 28.4048 8.91014 43.9036 19.3496 52.9797C29.7891 62.0559 45.9004 61.2724 55.3352 51.2298Z" fill="#003A70"/>
<path d="M36.892 45.8405H36.4693C34.8076 45.8405 33.423 44.6347 33.2626 43.0502L30.9597 20.7699C30.7702 18.9471 32.2569 17.3627 34.1663 17.3627H38.6848C40.5651 17.3627 42.0372 18.9051 41.8914 20.6998L40.0986 42.9801C39.982 44.5926 38.5828 45.8405 36.892 45.8405Z" fill="white"/>
<path d="M39.9396 50.8043C39.9396 52.6691 38.3654 54.1835 36.4268 54.1835C34.4882 54.1835 32.9141 52.6691 32.9141 50.8043C32.9141 48.9394 34.4882 47.4251 36.4268 47.4251C38.3654 47.4251 39.9396 48.9394 39.9396 50.8043Z" fill="white"/>
</svg>
