<svg width="152" height="183" viewBox="0 0 152 183" fill="none" xmlns="http://www.w3.org/2000/svg">
<path d="M124.965 38.2285V158.281" stroke="#41B79B" stroke-width="0.5" stroke-miterlimit="10"/>
<path d="M25.1914 35.8308V147.344" stroke="#41B79B" stroke-width="0.4819" stroke-miterlimit="10"/>
<path d="M50.4517 164.661H128.796C131.536 164.661 133.781 162.502 133.781 159.866C133.781 157.23 131.536 155.07 128.796 155.07H50.4517C47.7115 155.07 45.4668 157.23 45.4668 159.866C45.4668 162.502 47.7115 164.661 50.4517 164.661Z" fill="#003A70"/>
<path d="M128.796 164.661H121.1V172.766H128.796V164.661Z" fill="#005CB2"/>
<path d="M110.517 171.146H116.289V164.669H110.517V171.146Z" fill="#005CB2"/>
<path d="M99.1931 171.146H105.213V164.669H99.1931V171.146Z" fill="#005CB2"/>
<path d="M62.7787 158.275H128.807V157.125H62.7787V158.275Z" fill="#005CB2"/>
<path d="M121.118 172.774H128.814V171.147H121.118V172.774Z" fill="#003A70"/>
<path d="M110.517 171.147H116.289V169.815H110.517V171.147Z" fill="#003A70"/>
<path d="M99.1931 171.147H105.213V169.815H99.1931V171.147Z" fill="#003A70"/>
<path d="M8.125 158.281C8.125 171.91 19.6107 182.945 33.7637 182.945C47.9313 182.945 59.4023 171.896 59.4023 158.281C59.4023 144.652 47.9167 133.617 33.7637 133.617C19.6107 133.617 8.125 144.652 8.125 158.281Z" fill="#005CB3"/>
<path d="M11.8262 158.281C11.8262 169.947 21.6502 179.398 33.7772 179.398C45.9042 179.398 55.7282 169.947 55.7282 158.281C55.7282 146.615 45.9042 137.165 33.7772 137.165C21.6502 137.165 11.8262 146.615 11.8262 158.281Z" fill="#003A70"/>
<path d="M21.0977 158.281C21.0977 161.366 23.6921 163.862 26.8988 163.862C30.1054 163.862 32.6999 161.366 32.6999 158.281C32.6999 155.196 30.1054 152.701 26.8988 152.701C23.6921 152.701 21.0977 155.196 21.0977 158.281Z" fill="white"/>
<path d="M7.54081 29.451C13.6918 23.2535 27.3638 22.9871 34.3601 28.2872C41.1524 13.2982 62.4621 6.4416 77.2564 14.476C80.0987 6.90432 92.4443 -2.30786 110.285 1.67427C122.31 4.35239 133.067 15.5136 129.933 26.9972C138.241 25.8475 146.637 31.3299 149.858 38.7894C153.079 46.2489 151.651 55.0685 147.482 62.0652H11.0244C11.0098 62.0652 -9.19209 46.305 7.54081 29.451Z" fill="#33A78C"/>
</svg>
