<svg width="32" height="22" viewBox="0 0 32 22" fill="none" xmlns="http://www.w3.org/2000/svg">
<path d="M6.25036 9.57299C6.87712 11.4939 6.80423 13.5972 6.19205 15.5182C5.57987 17.4391 4.47212 19.2058 3.10201 20.7201C2.72304 21.1408 2.14 21.5895 1.62985 21.3231C1.38206 21.1969 1.23631 20.9305 1.13428 20.6641C-0.177536 17.5793 0.14311 13.8916 1.97965 11.0733C1.92135 8.73171 2.57729 6.17978 4.20977 4.45512C5.84225 2.73047 8.18892 1.63678 10.6085 1.46852C13.203 1.28624 16.2201 1.63677 18.4502 0.346786C18.5668 1.0058 18.3773 1.7069 17.9401 2.2257C20.9135 3.17916 24.2368 3.03893 27.1082 1.83307C26.9187 3.16512 26.5106 4.46913 25.9276 5.68901C26.6709 6.41813 27.7932 6.69856 28.8572 6.6565C29.9213 6.62846 30.9416 6.30596 31.9619 5.99748C31.5246 8.4793 30.7667 11.4519 28.4346 12.6017C22.7646 15.3779 18.1441 13.5972 15.0541 12.3633C15.3601 13.0363 15.8849 13.6112 16.5116 14.0178C14.5876 14.1721 12.6637 13.6533 10.9437 12.812C9.22381 11.9707 7.69334 10.8209 6.23577 9.60104" fill="#3C3C3B"/>
</svg>
