<svg width="62" height="160" viewBox="0 0 62 160" fill="none" xmlns="http://www.w3.org/2000/svg">
<path d="M53.336 0.975189C56.222 9.05162 59.2246 41.5957 59.8514 50.219C62.4458 85.8058 61.4547 98.271 60.0409 131.951C59.691 140.406 59.2975 151.329 58.9331 159.784H47.7973C42.1273 126.426 32.9446 55.1406 30.1315 21.4046C30.1315 21.4046 18.6459 125.922 13.0925 159.293H1.73804C1.35907 150.838 1.14046 139.957 0.761496 131.502C-0.113046 112.222 0.309617 95.5928 0.455374 76.2851C0.557404 61.8709 -0.0547771 44.7646 1.59228 30.4205C2.58343 21.8393 3.18106 9.07968 6.03789 0.989224H53.336V0.975189Z" fill="#41B79B"/>
</svg>
